<?xml version="1.0" encoding="UTF-8" standalone="no"?>
<!-- Created with Inkscape (http://www.inkscape.org/) -->

<svg
   xmlns:dc="http://purl.org/dc/elements/1.1/"
   xmlns:cc="http://creativecommons.org/ns#"
   xmlns:rdf="http://www.w3.org/1999/02/22-rdf-syntax-ns#"
   xmlns:svg="http://www.w3.org/2000/svg"
   xmlns="http://www.w3.org/2000/svg"
   xmlns:sodipodi="http://sodipodi.sourceforge.net/DTD/sodipodi-0.dtd"
   xmlns:inkscape="http://www.inkscape.org/namespaces/inkscape"
   id="svg3654"
   version="1.1"
   inkscape:version="0.91 r13725"
   xml:space="preserve"
   width="1677.5"
   height="1373.75"
   viewBox="0 0 1677.5 1373.75"
   sodipodi:docname="6287-text.pdf"><metadata
     id="metadata3660"><rdf:RDF><cc:Work
         rdf:about=""><dc:format>image/svg+xml</dc:format><dc:type
           rdf:resource="http://purl.org/dc/dcmitype/StillImage" /><dc:title></dc:title></cc:Work></rdf:RDF></metadata><defs
     id="defs3658" /><sodipodi:namedview
     pagecolor="#ffffff"
     bordercolor="#666666"
     borderopacity="1"
     objecttolerance="10"
     gridtolerance="10"
     guidetolerance="10"
     inkscape:pageopacity="0"
     inkscape:pageshadow="2"
     inkscape:window-width="640"
     inkscape:window-height="480"
     id="namedview3656"
     showgrid="false"
     inkscape:zoom="0.17179254"
     inkscape:cx="838.75"
     inkscape:cy="686.875"
     inkscape:window-x="20"
     inkscape:window-y="43"
     inkscape:window-maximized="0"
     inkscape:current-layer="g3662" /><g
     id="g3662"
     inkscape:groupmode="layer"
     inkscape:label="6287-text"
     transform="matrix(1.25,0,0,-1.25,0,1373.75)"><path
       d="m 796,732.01 c 33.52,13.82 72.51,13.67 105.92,-0.42 31.16,-12.95 57.17,-37.74 71.64,-68.23 14.13,-29.36 17.24,-63.76 8.88,-95.23 -9.64,-36.95 -35.38,-69.38 -69.28,-86.97 25.3,16.07 44.25,41.82 51.87,70.82 8.37,31.13 3.68,65.55 -13,93.17 -18.16,30.76 -50.57,52.63 -85.97,57.68 -34.81,5.4 -71.68,-5.45 -97.94,-28.93 -26.36,-23.02 -41.83,-57.9 -40.92,-92.91 0.33,-38.15 20.27,-75.33 51.64,-96.95 -27.53,15.42 -48.94,41.22 -60.09,70.67 -13.13,34.47 -11.67,74.19 4.07,107.57 14.52,31.31 41.2,56.74 73.18,69.73 m -46.72,-42.28 c -23.01,-25.21 -35.59,-59.55 -34.31,-93.66 0.57,-21.25 6.67,-42.16 16.69,-60.85 0.05,2.79 -1.43,5.37 -3.11,7.48 -14.13,32.37 -14.26,70.51 -0.32,102.97 12.58,29.81 36.7,54.52 66.19,67.84 32.35,14.87 70.83,15.54 103.7,1.89 30.03,-12.26 55.06,-36.18 68.71,-65.61 13.99,-29.74 16.03,-64.84 5.7,-96.03 -0.64,-2.23 -2.39,-4.12 -2.15,-6.57 0.59,1.1 1.14,2.24 1.3,3.49 9.55,23.07 11.93,48.94 7.57,73.48 -5.29,29.96 -21.38,57.8 -44.52,77.51 -25.62,22.13 -59.93,33.77 -93.72,31.8 -34.79,-1.66 -68.51,-17.83 -91.73,-43.74 m 58.66,21.2 c -32.2,-10.83 -59.27,-35.72 -72.85,-66.85 -7.29,-16.07 -10.26,-33.72 -10.68,-51.27 1.08,7.02 1.45,14.15 3.11,21.07 7.94,37.72 34.78,70.74 69.96,86.44 34.79,15.97 77.01,14.37 110.47,-4.26 28,-15.29 49.64,-41.78 58.85,-72.34 -6.96,30.88 -27.24,58.27 -53.98,75.02 -30.77,19.57 -70.43,24.09 -104.88,12.19 m 27.55,-13.73 c 34.18,4.08 69.8,-8.3 94.02,-32.76 23.97,-23.56 36.55,-58.02 33.41,-91.48 -2.68,-33.48 -21.13,-65.16 -48.74,-84.23 -26.52,-18.76 -61.21,-25.18 -92.73,-17.45 -32.73,7.7 -61.35,30.7 -76.09,60.89 -16.62,33.15 -15.63,74.39 2.64,106.67 17.56,31.99 51.15,54.54 87.49,58.36 m 0.09,-4.97 C 819.5,690.1 804,683.77 791.01,674.06 c -8.33,-6.62 -16.9,-13.09 -23.75,-21.31 -13.52,-15.59 -22.36,-35.19 -25.01,-55.66 -2.62,-19.67 0.33,-40.08 8.57,-58.15 7.41,-16.41 19.07,-30.86 33.52,-41.6 24.94,-18.86 58.41,-25.63 88.76,-18.2 30.72,7.17 57.55,28.86 71.17,57.29 13.92,28.36 14.2,62.95 0.76,91.53 -6.91,15.05 -17.55,28.24 -30.35,38.7 -20.72,19.89 -50.64,29.6 -79.1,25.57 m -7.45,-8.51 c 15.2,5.17 32.39,4.17 46.87,-2.78 14.63,-6.9 26.34,-19.68 31.89,-34.87 3.83,-10.55 5.09,-22.24 2.64,-33.25 1.4,15.67 -3.97,31.7 -14.05,43.72 -9.39,11.33 -22.96,19.11 -37.51,21.39 -16.19,2.66 -33.37,-1.46 -46.51,-11.31 -16.49,-12.01 -26.2,-32.59 -24.91,-52.97 -2.91,14.85 0.31,30.68 8.23,43.52 7.58,12.37 19.58,21.96 33.35,26.55 m 5.75,-14.1 c 12.61,3.52 26.48,2.3 38.26,-3.43 11.5,-5.52 20.94,-15.23 26.12,-26.9 4.82,-10.73 6.02,-23.06 3.32,-34.52 0.63,12.04 -2.67,24.3 -9.73,34.12 -8.48,12.07 -22.19,20.33 -36.86,22.05 -14.51,1.88 -29.69,-2.63 -40.82,-12.13 -12.76,-10.63 -20.06,-27.52 -18.74,-44.11 -3.21,12.49 -1.32,26.11 4.6,37.51 6.86,13.28 19.41,23.49 33.85,27.41 m -25.37,-40.17 c 6.61,12.53 19.4,21.58 33.45,23.49 13.12,1.98 26.99,-2.23 36.79,-11.18 9.46,-8.46 15.06,-21.04 14.93,-33.74 0.07,-5.18 -1.15,-10.25 -2.32,-15.26 -0.1,4.73 0.5,9.49 -0.33,14.17 -1.89,13.14 -10.27,25.09 -21.89,31.46 -11.81,6.64 -26.76,7.19 -39.04,1.5 -11.85,-5.36 -21,-16.32 -24.07,-28.96 -1.35,-4.93 -1.22,-10.06 -1.49,-15.12 -2.39,11.25 -1.69,23.43 3.97,33.64 m -26.77,-51 c -11.09,22.89 -8.96,51.35 5.17,72.46 -5.75,-11.04 -9.01,-23.45 -8.53,-35.94 0.42,-17.11 7.46,-33.93 19.31,-46.27 11.05,-11.67 26.23,-19.35 42.2,-21.23 14.36,-1.76 29.25,0.98 41.96,7.93 16.94,9.11 29.77,25.49 34.49,44.15 4.53,17.13 1.92,35.72 -6.31,51.33 6.72,-10.43 11.04,-22.45 11.97,-34.86 1.44,-17.11 -3.34,-34.66 -13.33,-48.63 -10.31,-14.6 -26.07,-25.27 -43.5,-29.23 -15.21,-3.55 -31.54,-2.13 -45.87,4.08 -16.36,6.98 -29.98,20.12 -37.56,36.21 m -19.78,18.53 c -0.06,16.62 4.93,33.17 14.01,47.07 -5.75,-12.47 -8.95,-26.21 -8.12,-39.99 0.84,-18.27 8.25,-36.12 20.53,-49.67 12.48,-13.95 29.96,-23.3 48.52,-25.84 15.99,-2.27 32.66,0.4 47.1,7.65 16.53,8.2 30.03,22.29 37.53,39.14 9.85,21.63 9.11,47.49 -1.35,68.76 16.96,-25.14 18.72,-59.43 4.77,-86.31 -8.56,-16.87 -22.85,-30.77 -39.97,-38.83 -17.61,-8.4 -38.12,-10.46 -57.07,-5.86 -18.65,4.42 -35.63,15.38 -47.47,30.44 -11.95,15.05 -18.59,34.21 -18.48,53.44 m -2.11,38.05 c -4.1,-10.92 -7.18,-22.32 -7.51,-34.04 -0.96,-20.99 5.23,-42.21 17.36,-59.37 10.89,-15.55 26.49,-27.75 44.22,-34.55 19.04,-7.35 40.43,-8.38 60.1,-2.94 23.76,6.44 44.69,22.49 57.18,43.69 11.08,18.53 15.53,40.88 12.54,62.25 -1.01,8.58 -3.82,16.75 -6.62,24.86 9.63,-18.61 13.72,-40.1 10.8,-60.91 -3.74,-29.2 -21.27,-56.15 -46.27,-71.64 -28.49,-18.14 -66.3,-20.21 -96.63,-5.38 -29.71,14.05 -51.49,43.5 -55.93,76.09 -3.15,21.13 0.88,43.05 10.76,61.94 m 56.72,-16.57 c 5.95,8.78 15.71,14.89 26.24,16.29 8.8,1.27 18.03,-0.68 25.56,-5.43 9.2,-5.7 15.78,-15.47 17.47,-26.17 1.95,-11.56 -1.65,-24.18 -10.05,-32.47 5.92,8.44 8.73,19.25 6.1,29.39 -3.4,15.21 -18.23,26.79 -33.82,26.32 -15.36,0.11 -29.74,-11.39 -33.09,-26.35 -3.13,-12.32 1.45,-25.8 10.87,-34.18 -7.45,5.22 -12.81,13.28 -14.91,22.12 -2.53,10.35 -0.44,21.72 5.63,30.48 m 3.23,-25.32 c 2.26,12.47 13.6,22.5 26.27,23.2 12.65,1.13 25.29,-7.22 29.31,-19.25 3.92,-10.79 0.61,-23.81 -8.23,-31.21 6.04,7.15 8.27,17.45 4.72,26.25 -4.02,10.98 -16.28,18.1 -27.82,15.97 -11.3,-1.62 -20.6,-11.73 -21.28,-23.13 -0.71,-6.97 2.09,-13.72 6.31,-19.14 -7.66,6.6 -11.35,17.41 -9.28,27.31 m 9.78,-7.24 c 1.9,7.48 8.73,13.35 16.41,14.11 8.32,1.09 16.89,-4.06 19.94,-11.87 2.91,-6.84 1.17,-15.07 -3.8,-20.5 1.49,3.56 2.88,7.39 2.13,11.31 -1.02,8.21 -9.09,14.68 -17.33,13.88 -7.74,-0.42 -14.53,-7.07 -15.04,-14.82 -0.49,-3.61 0.91,-7.04 2.18,-10.33 -4.32,4.89 -6.32,11.87 -4.49,18.22 m 11.49,-3.99 c 5.26,4.5 14.24,2.53 17.18,-3.74 2.42,-4.42 0.94,-9.72 -2.01,-13.48 0.46,2.92 1.07,6.16 -0.74,8.77 -2.55,4.43 -9.17,5.49 -12.96,2.06 -3.19,-2.52 -3.71,-7.04 -2.26,-10.66 -4.88,4.5 -4.55,13.07 0.79,17.05 m 5.15,-11.06 c 2.84,1.67 6.89,-0.55 7.03,-3.83 0.57,-3.63 -3.81,-6.63 -6.98,-4.79 -3.48,1.52 -3.51,7.08 -0.05,8.62 M 719.06,400.17 c -16.1,40.04 -11.92,87.51 11.07,124.05 1.47,-1.95 2.91,-3.93 4.35,-5.9 -19.26,-30.63 -25.01,-69.25 -15.74,-104.2 2.92,-11.19 7.33,-21.98 13.03,-32.04 -8.36,16.76 -13.54,35.16 -14.29,53.92 -1.37,27.13 6.13,54.54 20.91,77.32 1.62,-1.8 3.23,-3.62 4.86,-5.43 -12.63,-20.13 -19.87,-44.04 -18.74,-67.88 0.3,23.18 8.38,45.91 21.28,65.03 1.26,-1.13 2.49,-2.31 3.72,-3.5 -20.81,-28.43 -27.98,-66.19 -19.27,-100.31 6.96,-28.32 24.76,-53.62 48.7,-70.2 -27.02,15.38 -48.48,40.23 -59.88,69.14 m 242.17,117.46 c 1.6,2.11 3.15,4.26 4.69,6.41 17.45,-28.08 24.24,-62.51 18.85,-95.12 -6.57,-42.04 -33.86,-80.4 -71.7,-99.95 28.86,18.46 49.2,49.65 54.12,83.59 4.75,30.72 -2.93,63.11 -21.08,88.35 1.33,1.32 2.67,2.63 4.01,3.94 7.36,-10.97 13.33,-23 16.66,-35.83 -2.46,13.35 -8.1,25.95 -15.02,37.55 1.99,2.12 3.92,4.31 5.82,6.51 21.69,-33.07 26.99,-76.27 13.78,-113.55 -0.62,-1.33 -1.21,-2.73 -0.96,-4.25 7.41,18.9 11.54,39.34 10.28,59.73 -1.1,22.07 -7.9,43.79 -19.45,62.62 M 754.24,497.16 c 2,-1.69 4.03,-3.37 6.07,-5.04 -12.97,-18.29 -19.92,-40.74 -19.53,-63.16 0.23,-31.78 15.73,-62.92 40.8,-82.41 24.5,-19.55 57.87,-27.18 88.47,-20.46 30.86,6.42 58.18,27.45 72.49,55.51 13.23,25.38 15.46,56.15 6.21,83.22 -3.19,9.54 -7.88,18.52 -13.51,26.84 2.21,1.69 4.36,3.47 6.5,5.26 16.92,-23.8 24.2,-54.17 19.86,-83.05 -4.52,-32.49 -23.93,-62.41 -51.56,-80.03 -24.01,-15.61 -53.98,-21.52 -82.15,-16.5 -28.29,4.86 -54.38,20.93 -71.64,43.84 -19.2,25.05 -27.12,58.24 -21.55,89.29 2.91,16.77 9.71,32.81 19.54,46.69 m 16.27,-14.31 c 0.42,0.47 1.25,1.41 1.67,1.87 -0.44,-3.18 -1.7,-6.16 -2.46,-9.27 -4.18,-16.53 -2.98,-34.39 3.51,-50.17 6.54,-16.1 18.49,-29.91 33.44,-38.76 14.68,-8.79 32.22,-12.57 49.23,-10.81 25.61,2.41 49.4,18.12 61.86,40.58 10.36,18.24 13.04,40.63 7.38,60.82 -0.64,2.38 -1.65,4.71 -1.65,7.2 2.89,-3.44 4.1,-7.91 5.7,-12.04 9.49,-27.18 4.1,-58.93 -13.99,-81.35 -17.35,-22.26 -46.14,-34.89 -74.28,-32.43 -28.58,1.94 -55.38,19.41 -68.94,44.6 -13.45,24.23 -14.07,55.07 -1.47,79.76 m -13.39,-90.68 c -13.62,28.41 -12.69,63.31 2.63,90.87 -8.8,-20.31 -10.47,-43.63 -4.36,-64.94 7.56,-27.18 27.83,-50.42 53.69,-61.71 25.47,-11.4 55.93,-10.84 80.97,1.5 22.4,10.83 40.23,30.71 48.51,54.19 8.25,22.74 7.13,48.47 -2.22,70.65 1.71,-1.37 1.64,-3.82 2.72,-5.64 11.99,-25.55 12.27,-56.24 0.93,-82.07 -8.3,-19.19 -22.8,-35.6 -40.77,-46.27 -22.16,-13.33 -49.57,-17.42 -74.69,-11.35 -29.23,6.81 -54.71,27.6 -67.41,54.77 m 19.94,85.92 c 0.2,1.26 0.93,2.08 2.18,2.49 0.03,-3.2 -0.77,-6.32 -1.03,-9.5 -1.6,-16.52 2.94,-33.55 12.6,-47.05 9.16,-12.97 22.85,-22.67 38.15,-26.94 14.41,-4.08 30.14,-3.39 44.13,2 14.84,5.65 27.61,16.54 35.56,30.29 7.31,12.51 10.53,27.32 9.14,41.73 -0.29,3.06 -0.89,6.08 -1.12,9.14 0.44,-0.17 1.3,-0.51 1.73,-0.67 5.15,-16.11 4.36,-34.02 -1.98,-49.68 -9.76,-24.72 -33.81,-43.04 -60.28,-45.68 -16.12,-1.83 -32.82,1.85 -46.64,10.37 -13.4,8.17 -24.08,20.73 -29.95,35.3 -6.19,15.19 -7.01,32.45 -2.49,48.2 m 8.17,-1.55 c 0.43,-0.2 1.3,-0.6 1.73,-0.79 -0.59,-4.87 -1.44,-9.82 -0.68,-14.73 -1.56,5.01 -1.16,10.35 -1.05,15.52 m 123.26,-0.97 c 0.46,0.07 1.37,0.2 1.82,0.26 0.14,-5.06 -0.03,-10.14 -0.95,-15.14 0.06,4.98 -0.16,9.95 -0.87,14.88 M 794,472.55 c 1,-0.35 2,-0.71 3.01,-1.08 -1.62,-6.18 -2.34,-12.54 -2.37,-18.93 -1.21,6.6 -1.59,13.36 -0.64,20.01 m 104.89,-1.35 c 1.03,0.45 2.08,0.88 3.14,1.31 1,-6.87 0.38,-13.82 -0.58,-20.66 -0.32,6.51 -0.61,13.08 -2.56,19.35 m -94.32,-2.5 c 1.41,-0.4 2.82,-0.82 4.24,-1.24 -3.59,-7.38 -5.16,-15.69 -4.38,-23.88 -2.41,8.17 -2.13,16.96 0.14,25.12 m 82.02,-1.49 c 1.59,0.47 3.19,0.95 4.81,1.41 2.7,-9.38 2.33,-19.52 -0.91,-28.72 1.28,9.26 0.26,18.87 -3.9,27.31 m -76.66,-29.19 c -1.66,9.53 0.55,19.54 5.83,27.62 2.64,-0.57 5.29,-1.11 7.95,-1.6 -7.75,-7.75 -11.62,-19.19 -9.75,-30.04 1.19,-8.22 5.77,-15.6 11.91,-21.07 -8.35,5.83 -14.32,15.01 -15.94,25.09 m 62.3,25.84 c 2.44,0.59 4.88,1.09 7.35,1.6 9.76,-14.41 7.99,-35.61 -4.71,-47.68 3.35,4.92 6.22,10.3 7.03,16.28 1.81,10.74 -1.93,22.16 -9.67,29.8 m -50.78,-16.52 c 3.25,6.84 9.26,12.56 16.55,14.84 6.38,0.09 12.78,0.11 19.16,-0.02 11.42,-3.52 19.48,-15.26 19.3,-27.13 0.11,-8.47 -3.92,-16.67 -10.28,-22.18 2.76,3.68 5.4,7.64 6.25,12.26 2.25,9.73 -1.95,20.52 -10.17,26.18 -7.94,5.77 -19.28,6.21 -27.65,1.11 -8.94,-5.16 -14.03,-16.11 -12.08,-26.27 0.71,-4.97 3.39,-9.33 6.45,-13.21 -9.83,8.12 -13.16,22.94 -7.53,34.42 m 15.27,-3.05 c 6.07,4.27 14.66,4.49 20.93,0.5 6.35,-3.81 10.03,-11.55 8.96,-18.88 -0.47,-4.16 -2.6,-7.9 -5.26,-11.04 1.53,3.49 3.03,7.2 2.41,11.09 -0.74,7.85 -7.91,14.42 -15.81,14.42 -7.84,0.38 -15.29,-5.75 -16.46,-13.51 -0.89,-4.17 0.54,-8.31 2.32,-12.04 -2.47,2.99 -4.58,6.4 -5.15,10.29 -1.38,7.25 1.94,15.07 8.06,19.17 m 1.38,-17.46 c 3.88,6.39 14.07,6.75 18.41,0.67 3.78,-4.59 2.65,-11.35 -1.16,-15.55 1.05,3.38 1.33,7.41 -1.29,10.16 -3.56,4.44 -11.29,3.74 -13.98,-1.27 -1.8,-2.67 -1.11,-5.94 -0.43,-8.86 -3.47,4.06 -4.82,10.27 -1.55,14.85 m 9.07,-7.97 c 3.69,0.72 6.85,-3.71 4.99,-6.97 -1.42,-3.15 -6.27,-3.58 -8.2,-0.72 -2.27,2.74 -0.33,7.39 3.21,7.69 z"
       style="fill:#ffffff;fill-opacity:1;fill-rule:nonzero;stroke:#ffffff;stroke-width:0.09375;stroke-linecap:butt;stroke-linejoin:miter;stroke-miterlimit:10;stroke-dasharray:none;stroke-opacity:1"
       id="path3664"
       inkscape:connector-curvature="0" /><path
       d="m 789.89,781.27 c 37.37,13.6 79.55,13.43 116.8,-0.49 28.8,-10.66 54.53,-29.38 73.64,-53.41 19.08,-23.86 31.52,-52.98 35.45,-83.28 5.39,-39.79 -3.93,-81.35 -25.96,-114.94 21.45,-32.34 31.1,-72.19 27.01,-110.77 -3.34,-33.45 -17.05,-65.75 -38.71,-91.46 -22.63,-27.09 -53.91,-46.85 -88.16,-55.47 -42.7,-10.95 -89.61,-4.48 -127.57,18.01 -29.58,17.29 -53.69,43.74 -68.12,74.81 -15.17,32.33 -19.55,69.52 -12.62,104.54 4.16,21.17 12.44,41.52 24.24,59.57 -18.95,28.72 -28.85,63.27 -27.86,97.68 0.77,34.85 12.73,69.32 33.68,97.18 19.69,26.39 47.2,46.87 78.18,58.03 m -46.88,-57.35 c -23.03,-20.26 -40.04,-47.29 -48.15,-76.89 -10.88,-39.2 -6.11,-82.61 13.62,-118.25 -2.84,-5.63 -5.7,-11.25 -7.99,-17.13 -14.22,-35.28 -15.07,-75.7 -2.45,-111.58 9.97,-28.62 28.41,-54.19 52.32,-72.81 25.23,-19.79 56.59,-31.62 88.61,-33.33 36.4,-2.2 73.42,8.63 102.8,30.25 28.02,20.38 49.08,50.15 58.8,83.43 11.9,39.98 7.17,84.52 -12.86,121.11 21.84,39.51 25.29,88.49 9.61,130.78 -11.83,32.41 -34.61,60.64 -63.7,79.18 -28.72,18.48 -63.54,27.15 -97.58,24.49 -34.2,-2.45 -67.39,-16.51 -93.03,-39.25 m 21,-3.97 c 23.87,17.42 53.34,27.54 82.97,27.16 37.23,1.01 74.33,-14.31 100.81,-40.34 23.07,-22.36 38.16,-52.74 41.95,-84.65 4.09,-32.56 -3.51,-66.42 -21.18,-94.08 14.75,-23.47 22.42,-51.3 21.73,-79.01 -0.62,-36.07 -15.67,-71.62 -41.17,-97.14 -23.94,-24.46 -56.99,-39.71 -91.15,-42.02 -13.57,-0.39 -27.27,-0.31 -40.55,2.84 -34.67,7.32 -66.1,28.31 -86.43,57.28 -18.46,25.96 -27.63,58.24 -25.81,90.02 1.22,24.38 9.07,48.25 22.01,68.9 -20.86,32.89 -27.1,74.53 -17.05,112.14 8.13,31.48 27.62,59.77 53.87,78.9 M 796,732.01 c -31.98,-12.99 -58.66,-38.42 -73.18,-69.73 -15.74,-33.38 -17.2,-73.1 -4.07,-107.57 11.15,-29.45 32.56,-55.25 60.09,-70.67 -31.37,21.62 -51.31,58.8 -51.64,96.95 -0.91,35.01 14.56,69.89 40.92,92.91 26.26,23.48 63.13,34.33 97.94,28.93 35.4,-5.05 67.81,-26.92 85.97,-57.68 16.68,-27.62 21.37,-62.04 13,-93.17 -7.62,-29 -26.57,-54.75 -51.87,-70.82 33.9,17.59 59.64,50.02 69.28,86.97 8.36,31.47 5.25,65.87 -8.88,95.23 -14.47,30.49 -40.48,55.28 -71.64,68.23 -33.41,14.09 -72.4,14.24 -105.92,0.42 m 39.49,-34.81 c -36.34,-3.82 -69.93,-26.37 -87.49,-58.36 -18.27,-32.28 -19.26,-73.52 -2.64,-106.67 14.74,-30.19 43.36,-53.19 76.09,-60.89 31.52,-7.73 66.21,-1.31 92.73,17.45 27.61,19.07 46.06,50.75 48.74,84.23 3.14,33.46 -9.44,67.92 -33.41,91.48 -24.22,24.46 -59.84,36.84 -94.02,32.76 M 719.06,400.17 c 11.4,-28.91 32.86,-53.76 59.88,-69.14 -23.94,16.58 -41.74,41.88 -48.7,70.2 -8.71,34.12 -1.54,71.88 19.27,100.31 -1.23,1.19 -2.46,2.37 -3.72,3.5 -12.9,-19.12 -20.98,-41.85 -21.28,-65.03 -1.13,23.84 6.11,47.75 18.74,67.88 -1.63,1.81 -3.24,3.63 -4.86,5.43 -14.78,-22.78 -22.28,-50.19 -20.91,-77.32 0.75,-18.76 5.93,-37.16 14.29,-53.92 -5.7,10.06 -10.11,20.85 -13.03,32.04 -9.27,34.95 -3.52,73.57 15.74,104.2 -1.44,1.97 -2.88,3.95 -4.35,5.9 -22.99,-36.54 -27.17,-84.01 -11.07,-124.05 m 242.17,117.46 c 11.55,-18.83 18.35,-40.55 19.45,-62.62 1.26,-20.39 -2.87,-40.83 -10.28,-59.73 -0.25,1.52 0.34,2.92 0.96,4.25 13.21,37.28 7.91,80.48 -13.78,113.55 -1.9,-2.2 -3.83,-4.39 -5.82,-6.51 6.92,-11.6 12.56,-24.2 15.02,-37.55 -3.33,12.83 -9.3,24.86 -16.66,35.83 -1.34,-1.31 -2.68,-2.62 -4.01,-3.94 18.15,-25.24 25.83,-57.63 21.08,-88.35 -4.92,-33.94 -25.26,-65.13 -54.12,-83.59 37.84,19.55 65.13,57.91 71.7,99.95 5.39,32.61 -1.4,67.04 -18.85,95.12 -1.54,-2.15 -3.09,-4.3 -4.69,-6.41 M 754.24,497.16 c -9.83,-13.88 -16.63,-29.92 -19.54,-46.69 -5.57,-31.05 2.35,-64.24 21.55,-89.29 17.26,-22.91 43.35,-38.98 71.64,-43.84 28.17,-5.02 58.14,0.89 82.15,16.5 27.63,17.62 47.04,47.54 51.56,80.03 4.34,28.88 -2.94,59.25 -19.86,83.05 -2.14,-1.79 -4.29,-3.57 -6.5,-5.26 5.63,-8.32 10.32,-17.3 13.51,-26.84 9.25,-27.07 7.02,-57.84 -6.21,-83.22 -14.31,-28.06 -41.63,-49.09 -72.49,-55.51 -30.6,-6.72 -63.97,0.91 -88.47,20.46 -25.07,19.49 -40.57,50.63 -40.8,82.41 -0.39,22.42 6.56,44.87 19.53,63.16 -2.04,1.67 -4.07,3.35 -6.07,5.04 m 16.27,-14.31 c -12.6,-24.69 -11.98,-55.53 1.47,-79.76 13.56,-25.19 40.36,-42.66 68.94,-44.6 28.14,-2.46 56.93,10.17 74.28,32.43 18.09,22.42 23.48,54.17 13.99,81.35 -1.6,4.13 -2.81,8.6 -5.7,12.04 0,-2.49 1.01,-4.82 1.65,-7.2 5.66,-20.19 2.98,-42.58 -7.38,-60.82 -12.46,-22.46 -36.25,-38.17 -61.86,-40.58 -17.01,-1.76 -34.55,2.02 -49.23,10.81 -14.95,8.85 -26.9,22.66 -33.44,38.76 -6.49,15.78 -7.69,33.64 -3.51,50.17 0.76,3.11 2.02,6.09 2.46,9.27 -0.42,-0.46 -1.25,-1.4 -1.67,-1.87 m -13.39,-90.68 c 12.7,-27.17 38.18,-47.96 67.41,-54.77 25.12,-6.07 52.53,-1.98 74.69,11.35 17.97,10.67 32.47,27.08 40.77,46.27 11.34,25.83 11.06,56.52 -0.93,82.07 -1.08,1.82 -1.01,4.27 -2.72,5.64 9.35,-22.18 10.47,-47.91 2.22,-70.65 -8.28,-23.48 -26.11,-43.36 -48.51,-54.19 -25.04,-12.34 -55.5,-12.9 -80.97,-1.5 -25.86,11.29 -46.13,34.53 -53.69,61.71 -6.11,21.31 -4.44,44.63 4.36,64.94 -15.32,-27.56 -16.25,-62.46 -2.63,-90.87 m 19.94,85.92 c -4.52,-15.75 -3.7,-33.01 2.49,-48.2 5.87,-14.57 16.55,-27.13 29.95,-35.3 13.82,-8.52 30.52,-12.2 46.64,-10.37 26.47,2.64 50.52,20.96 60.28,45.68 6.34,15.66 7.13,33.57 1.98,49.68 -0.43,0.16 -1.29,0.5 -1.73,0.67 0.23,-3.06 0.83,-6.08 1.12,-9.14 1.39,-14.41 -1.83,-29.22 -9.14,-41.73 -7.95,-13.75 -20.72,-24.64 -35.56,-30.29 -13.99,-5.39 -29.72,-6.08 -44.13,-2 -15.3,4.27 -28.99,13.97 -38.15,26.94 -9.66,13.5 -14.2,30.53 -12.6,47.05 0.26,3.18 1.06,6.3 1.03,9.5 -1.25,-0.41 -1.98,-1.23 -2.18,-2.49 m 8.17,-1.55 c -0.11,-5.17 -0.51,-10.51 1.05,-15.52 -0.76,4.91 0.09,9.86 0.68,14.73 -0.43,0.19 -1.3,0.59 -1.73,0.79 m 123.26,-0.97 c 0.71,-4.93 0.93,-9.9 0.87,-14.88 0.92,5 1.09,10.08 0.95,15.14 -0.45,-0.06 -1.36,-0.19 -1.82,-0.26 M 794,472.55 c -0.95,-6.65 -0.57,-13.41 0.64,-20.01 0.03,6.39 0.75,12.75 2.37,18.93 -1.01,0.37 -2.01,0.73 -3.01,1.08 m 104.89,-1.35 c 1.95,-6.27 2.24,-12.84 2.56,-19.35 0.96,6.84 1.58,13.79 0.58,20.66 -1.06,-0.43 -2.11,-0.86 -3.14,-1.31 m -94.32,-2.5 c -2.27,-8.16 -2.55,-16.95 -0.14,-25.12 -0.78,8.19 0.79,16.5 4.38,23.88 -1.42,0.42 -2.83,0.84 -4.24,1.24 m 82.02,-1.49 c 4.16,-8.44 5.18,-18.05 3.9,-27.31 3.24,9.2 3.61,19.34 0.91,28.72 -1.62,-0.46 -3.22,-0.94 -4.81,-1.41 m -76.66,-29.19 c 1.62,-10.08 7.59,-19.26 15.94,-25.09 -6.14,5.47 -10.72,12.85 -11.91,21.07 -1.87,10.85 2,22.29 9.75,30.04 -2.66,0.49 -5.31,1.03 -7.95,1.6 -5.28,-8.08 -7.49,-18.09 -5.83,-27.62 m 62.3,25.84 c 7.74,-7.64 11.48,-19.06 9.67,-29.8 -0.81,-5.98 -3.68,-11.36 -7.03,-16.28 12.7,12.07 14.47,33.27 4.71,47.68 -2.47,-0.51 -4.91,-1.01 -7.35,-1.6 m -50.78,-16.52 c -5.63,-11.48 -2.3,-26.3 7.53,-34.42 -3.06,3.88 -5.74,8.24 -6.45,13.21 -1.95,10.16 3.14,21.11 12.08,26.27 8.37,5.1 19.71,4.66 27.65,-1.11 8.22,-5.66 12.42,-16.45 10.17,-26.18 -0.85,-4.62 -3.49,-8.58 -6.25,-12.26 6.36,5.51 10.39,13.71 10.28,22.18 0.18,11.87 -7.88,23.61 -19.3,27.13 -6.38,0.13 -12.78,0.11 -19.16,0.02 -7.29,-2.28 -13.3,-8 -16.55,-14.84 m 15.27,-3.05 c -6.12,-4.1 -9.44,-11.92 -8.06,-19.17 0.57,-3.89 2.68,-7.3 5.15,-10.29 -1.78,3.73 -3.21,7.87 -2.32,12.04 1.17,7.76 8.62,13.89 16.46,13.51 7.9,0 15.07,-6.57 15.81,-14.42 0.62,-3.89 -0.88,-7.6 -2.41,-11.09 2.66,3.14 4.79,6.88 5.26,11.04 1.07,7.33 -2.61,15.07 -8.96,18.88 -6.27,3.99 -14.86,3.77 -20.93,-0.5 m 1.38,-17.46 c -3.27,-4.58 -1.92,-10.79 1.55,-14.85 -0.68,2.92 -1.37,6.19 0.43,8.86 2.69,5.01 10.42,5.71 13.98,1.27 2.62,-2.75 2.34,-6.78 1.29,-10.16 3.81,4.2 4.94,10.96 1.16,15.55 -4.34,6.08 -14.53,5.72 -18.41,-0.67 m 9.07,-7.97 c -3.54,-0.3 -5.48,-4.95 -3.21,-7.69 1.93,-2.86 6.78,-2.43 8.2,0.72 1.86,3.26 -1.3,7.69 -4.99,6.97 M 119.38,707.73 c 28.32,18.27 61.85,28.69 95.63,28.34 19.43,-0.12 39.7,-3.09 56.35,-13.75 8.01,-4.99 14.95,-12.29 17.85,-21.43 3.95,-12.48 1.55,-27.05 -6.93,-37.16 -6.46,-7.93 -16.12,-13.35 -26.41,-13.96 -8.63,-0.78 -16.85,2.84 -24.27,6.84 -4.43,2.52 -9.47,4.2 -14.62,3.95 -22.33,-0.5 -43.96,-8.83 -62.42,-21.08 -24.26,-16.87 -43.11,-41.65 -52.37,-69.75 15.93,10.11 33.73,17.81 52.66,19.68 25.98,3.01 52.98,-3.16 74.75,-17.76 23.54,-15.84 42.72,-38.67 52.69,-65.36 7.37,-19.48 9.97,-40.54 9.14,-61.28 -0.73,-17.89 -4.59,-35.79 -12.49,-51.92 -7.98,-16.31 -19.84,-30.79 -34.62,-41.38 -15.12,-11.02 -33.02,-17.89 -51.41,-21.01 -16.74,-2.83 -33.88,-3.05 -50.73,-1.09 -21.15,2.52 -42.02,9.65 -59.21,22.42 -22.29,15.99 -37.09,40.36 -46.22,65.84 -8.94,25.16 -13.92,51.63 -15.96,78.22 -1.63,22.65 -1.69,45.53 1.71,68.03 3.96,26.71 12.95,52.92 28.03,75.43 18.37,26.78 41.45,50.6 68.85,68.18 m 1.53,-9.6 C 95.06,680.81 73.29,657.76 56.12,631.9 36.25,600.86 28.72,563.46 28.58,527.01 c -0.12,-27.23 2.5,-54.56 9.02,-81.04 4.25,-17.19 9.92,-34.17 18.57,-49.69 7.61,-13.76 17.69,-26.31 30.29,-35.81 13.25,-10.22 29.02,-16.89 45.38,-20.19 17.17,-3.46 34.9,-3.88 52.28,-1.91 18.41,2.17 36.59,8.02 52.02,18.44 16.68,11.06 29.68,27.35 37.37,45.78 7.19,17.13 9.68,35.92 9.13,54.4 -0.5,20.45 -4.96,41 -14.45,59.21 -7.87,15.29 -19.22,28.6 -32.28,39.7 -13.42,11.36 -29.51,19.73 -46.8,23.23 -18.67,3.73 -38.41,2.63 -56.34,-3.89 -17,-6.19 -32.12,-16.55 -45.81,-28.21 4.96,25.21 14.56,49.96 30.99,69.96 20.5,26.54 50.86,45.48 84.02,51.09 9.54,1.35 19.74,2.73 28.86,-1.26 6.91,-3.07 13.44,-7.64 21.19,-8.24 11.3,-0.73 22.12,6.42 27.06,16.38 3.68,7.7 4.22,17.03 1.03,24.98 -3.32,8.24 -10.82,13.79 -18.45,17.77 -15.86,8.1 -34.11,9.77 -51.66,9.46 -31.72,-0.67 -62.87,-11.34 -89.09,-29.04 m 263.54,-2.53 c 23.09,23.26 54.97,36.75 87.41,39.74 23.5,2.09 47.68,-0.13 69.83,-8.59 25.73,-9.74 47.79,-28.4 62.44,-51.61 11.66,-18.48 17.52,-40.33 17.6,-62.13 0.35,-22.03 -5.74,-44.3 -18.22,-62.55 -9.37,-13.68 -20.69,-25.87 -32.26,-37.7 -22.16,-22.24 -45.93,-42.78 -69.36,-63.65 -13.46,-11.87 -27,-23.67 -40.53,-35.46 33.27,-0.01 66.55,0 99.82,0 6.42,4.58 13.79,8.38 21.83,8.68 10.39,0.47 21.26,-3.09 28.31,-10.97 8.24,-8.96 10.49,-21.62 10.9,-33.39 0.13,-10.63 0.05,-21.27 0.04,-31.91 0.24,-4.95 -4.31,-9.32 -9.23,-9 -88.03,-0.02 -176.07,-0.01 -264.11,0 -4.91,-0.34 -9.51,4 -9.28,8.95 -0.05,20.33 0,40.66 -0.03,60.98 -0.2,3.03 0.94,6.13 3.38,8.01 29.93,25.05 59.76,50.23 89.27,75.78 26.71,23.22 53.36,46.54 78.84,71.12 8.86,8.81 18.06,17.43 25.43,27.57 5.45,7.71 9.77,16.89 9.11,26.55 -0.63,13.64 -9.41,25.64 -20.28,33.26 -14.06,9.56 -31.92,11.32 -48.44,9.62 -18.01,-1.98 -36.33,-11.4 -44.9,-27.94 -4.86,-8.34 -6.21,-18.27 -11.75,-26.25 -3.55,-5.46 -8.71,-9.9 -14.84,-12.19 -11.78,-4.49 -25.87,-3.69 -36.47,3.41 -9.42,6.32 -16.41,16.7 -17.32,28.16 -0.85,10.99 2.46,21.8 6.74,31.79 6.43,14.53 14.74,28.45 26.07,39.72 m 62.14,26.04 c -29.51,-8.37 -57.04,-26.93 -72.3,-53.99 -6.72,-11.94 -13.09,-24.74 -13.91,-38.65 -1.06,-15.05 11.79,-29.19 26.69,-30.24 8.55,-0.69 18.23,1.32 23.89,8.28 6.51,7.63 7.61,18.03 12.45,26.59 8.21,17.12 25.48,28.47 43.66,32.56 14.78,3.21 30.41,2.93 45.01,-1.09 16.02,-4.38 30.05,-15.6 37.59,-30.43 5.51,-10.92 6.57,-24.16 2.06,-35.61 -5.71,-15.17 -17.65,-26.65 -28.79,-37.95 -25.74,-25.37 -52.94,-49.18 -80.15,-72.94 -31.15,-27 -62.59,-53.66 -94.26,-80.04 -0.14,-20.71 0.03,-41.42 -0.09,-62.13 88.33,-0.26 176.65,-0.04 264.98,-0.11 0,9.69 0.02,19.39 -0.01,29.08 -0.18,9.56 -1.1,19.76 -6.6,27.9 -5.01,7.39 -14.16,10.95 -22.87,10.62 -7.51,-0.12 -14.05,-4.37 -19.84,-8.73 -42.12,0.08 -84.24,-0.1 -126.36,0.09 18.74,16.38 37.59,32.65 56.25,49.11 23.45,20.86 47.23,41.41 69.49,63.56 11.13,11.27 22.01,22.88 31.23,35.79 10.63,14.75 16.73,32.59 17.9,50.69 1.42,21.21 -2.73,42.97 -13.14,61.59 -15.49,27.61 -42.25,48.82 -72.97,56.79 -26.06,6.73 -53.97,6.5 -79.91,-0.74 m 302.69,-31.91 c 23.22,25.91 56.94,42.08 91.73,43.74 33.79,1.97 68.1,-9.67 93.72,-31.8 23.14,-19.71 39.23,-47.55 44.52,-77.51 4.36,-24.54 1.98,-50.41 -7.57,-73.48 -0.16,-1.25 -0.71,-2.39 -1.3,-3.49 -0.24,2.45 1.51,4.34 2.15,6.57 10.33,31.19 8.29,66.29 -5.7,96.03 -13.65,29.43 -38.68,53.35 -68.71,65.61 -32.87,13.65 -71.35,12.98 -103.7,-1.89 -29.49,-13.32 -53.61,-38.03 -66.19,-67.84 -13.94,-32.46 -13.81,-70.6 0.32,-102.97 1.68,-2.11 3.16,-4.69 3.11,-7.48 -10.02,18.69 -16.12,39.6 -16.69,60.85 -1.28,34.11 11.3,68.45 34.31,93.66 m 301.37,27.25 c -0.38,5.09 4.27,9.67 9.34,9.29 84.02,0.01 168.04,0.01 252.06,0 5.06,0.4 9.72,-4.15 9.38,-9.23 -0.11,-20 0.23,-40.01 -0.17,-59.99 -31.08,-94.13 -62.65,-188.12 -93.91,-282.19 -3.43,-10.1 -7.31,-20.57 -14.91,-28.33 -10.57,-10.06 -27.19,-11.94 -40.44,-6.55 -11.01,4.49 -19.66,14.49 -22.34,26.09 -2.39,10.55 1.05,21.19 3.99,31.26 28.47,84.12 57.02,168.22 85.49,252.34 -37.59,0.01 -75.17,0 -112.75,0.01 -0.89,-10.41 -3.45,-21.41 -10.96,-29.14 -13.63,-15.52 -40.79,-14.66 -54.18,0.75 -8.3,9.05 -10.16,21.91 -10.55,33.72 -0.12,20.65 -0.03,41.31 -0.05,61.97 m 8.85,0.44 c 0.02,-20.5 -0.05,-41 0.04,-61.5 0.32,-9.17 1.22,-19.02 6.68,-26.75 9.72,-13.65 32.76,-15.02 43.42,-1.81 7.04,8.11 7.85,19.47 8.18,29.72 -0.49,2.14 2.06,1.31 3.22,1.5 43.49,-0.1 86.98,0.03 130.48,-0.07 -29.75,-87.67 -59.44,-175.36 -89.16,-263.04 -2.07,-6.67 -4.09,-13.46 -4.63,-20.46 -0.68,-10.47 5.77,-20.56 14.84,-25.49 10.64,-5.73 25.31,-4.9 34.13,3.82 6.05,6.68 9.16,15.37 12.04,23.76 31.15,93.56 62.4,187.08 93.49,280.65 0.74,19.85 0.13,39.8 0.3,59.69 -84.34,-0.03 -168.68,0 -253.03,-0.02 m -251.56,-6.49 c 34.45,11.9 74.11,7.38 104.88,-12.19 26.74,-16.75 47.02,-44.14 53.98,-75.02 -9.21,30.56 -30.85,57.05 -58.85,72.34 -33.46,18.63 -75.68,20.23 -110.47,4.26 -35.18,-15.7 -62.02,-48.72 -69.96,-86.44 -1.66,-6.92 -2.03,-14.05 -3.11,-21.07 0.42,17.55 3.39,35.2 10.68,51.27 13.58,31.13 40.65,56.02 72.85,66.85 m 27.64,-18.7 c 28.46,4.03 58.38,-5.68 79.1,-25.57 12.8,-10.46 23.44,-23.65 30.35,-38.7 13.44,-28.58 13.16,-63.17 -0.76,-91.53 -13.62,-28.43 -40.45,-50.12 -71.17,-57.29 -30.35,-7.43 -63.82,-0.66 -88.76,18.2 -14.45,10.74 -26.11,25.19 -33.52,41.6 -8.24,18.07 -11.19,38.48 -8.57,58.15 2.65,20.47 11.49,40.07 25.01,55.66 6.85,8.22 15.42,14.69 23.75,21.31 12.99,9.71 28.49,16.04 44.57,18.17 m -7.45,-8.51 c -13.77,-4.59 -25.77,-14.18 -33.35,-26.55 -7.92,-12.84 -11.14,-28.67 -8.23,-43.52 -1.29,20.38 8.42,40.96 24.91,52.97 13.14,9.85 30.32,13.97 46.51,11.31 14.55,-2.28 28.12,-10.06 37.51,-21.39 10.08,-12.02 15.45,-28.05 14.05,-43.72 2.45,11.01 1.19,22.7 -2.64,33.25 -5.55,15.19 -17.26,27.97 -31.89,34.87 -14.48,6.95 -31.67,7.95 -46.87,2.78 m 5.75,-14.1 c -14.44,-3.92 -26.99,-14.13 -33.85,-27.41 -5.92,-11.4 -7.81,-25.02 -4.6,-37.51 -1.32,16.59 5.98,33.48 18.74,44.11 11.13,9.5 26.31,14.01 40.82,12.13 14.67,-1.72 28.38,-9.98 36.86,-22.05 7.06,-9.82 10.36,-22.08 9.73,-34.12 2.7,11.46 1.5,23.79 -3.32,34.52 -5.18,11.67 -14.62,21.38 -26.12,26.9 -11.78,5.73 -25.65,6.95 -38.26,3.43 m -25.37,-40.17 c -5.66,-10.21 -6.36,-22.39 -3.97,-33.64 0.27,5.06 0.14,10.19 1.49,15.12 3.07,12.64 12.22,23.6 24.07,28.96 12.28,5.69 27.23,5.14 39.04,-1.5 11.62,-6.37 20,-18.32 21.89,-31.46 0.83,-4.68 0.23,-9.44 0.33,-14.17 1.17,5.01 2.39,10.08 2.32,15.26 0.13,12.7 -5.47,25.28 -14.93,33.74 -9.8,8.95 -23.67,13.16 -36.79,11.18 -14.05,-1.91 -26.84,-10.96 -33.45,-23.49 m -26.77,-51 c 7.58,-16.09 21.2,-29.23 37.56,-36.21 14.33,-6.21 30.66,-7.63 45.87,-4.08 17.43,3.96 33.19,14.63 43.5,29.23 9.99,13.97 14.77,31.52 13.33,48.63 -0.93,12.41 -5.25,24.43 -11.97,34.86 8.23,-15.61 10.84,-34.2 6.31,-51.33 -4.72,-18.66 -17.55,-35.04 -34.49,-44.15 -12.71,-6.95 -27.6,-9.69 -41.96,-7.93 -15.97,1.88 -31.15,9.56 -42.2,21.23 -11.85,12.34 -18.89,29.16 -19.31,46.27 -0.48,12.49 2.78,24.9 8.53,35.94 -14.13,-21.11 -16.26,-49.57 -5.17,-72.46 m -19.78,18.53 c -0.11,-19.23 6.53,-38.39 18.48,-53.44 11.84,-15.06 28.82,-26.02 47.47,-30.44 18.95,-4.6 39.46,-2.54 57.07,5.86 17.12,8.06 31.41,21.96 39.97,38.83 13.95,26.88 12.19,61.17 -4.77,86.31 10.46,-21.27 11.2,-47.13 1.35,-68.76 -7.5,-16.85 -21,-30.94 -37.53,-39.14 -14.44,-7.25 -31.11,-9.92 -47.1,-7.65 -18.56,2.54 -36.04,11.89 -48.52,25.84 -12.28,13.55 -19.69,31.4 -20.53,49.67 -0.83,13.78 2.37,27.52 8.12,39.99 -9.08,-13.9 -14.07,-30.45 -14.01,-47.07 m -2.11,38.05 c -9.88,-18.89 -13.91,-40.81 -10.76,-61.94 4.44,-32.59 26.22,-62.04 55.93,-76.09 30.33,-14.83 68.14,-12.76 96.63,5.38 25,15.49 42.53,42.44 46.27,71.64 2.92,20.81 -1.17,42.3 -10.8,60.91 2.8,-8.11 5.61,-16.28 6.62,-24.86 2.99,-21.37 -1.46,-43.72 -12.54,-62.25 -12.49,-21.2 -33.42,-37.25 -57.18,-43.69 -19.67,-5.44 -41.06,-4.41 -60.1,2.94 -17.73,6.8 -33.33,19 -44.22,34.55 -12.13,17.16 -18.32,38.38 -17.36,59.37 0.33,11.72 3.41,23.12 7.51,34.04 m 56.72,-16.57 c -6.07,-8.76 -8.16,-20.13 -5.63,-30.48 2.1,-8.84 7.46,-16.9 14.91,-22.12 -9.42,8.38 -14,21.86 -10.87,34.18 3.35,14.96 17.73,26.46 33.09,26.35 15.59,0.47 30.42,-11.11 33.82,-26.32 2.63,-10.14 -0.18,-20.95 -6.1,-29.39 8.4,8.29 12,20.91 10.05,32.47 -1.69,10.7 -8.27,20.47 -17.47,26.17 -7.53,4.75 -16.76,6.7 -25.56,5.43 -10.53,-1.4 -20.29,-7.51 -26.24,-16.29 m 3.23,-25.32 c -2.07,-9.9 1.62,-20.71 9.28,-27.31 -4.22,5.42 -7.02,12.17 -6.31,19.14 0.68,11.4 9.98,21.51 21.28,23.13 11.54,2.13 23.8,-4.99 27.82,-15.97 3.55,-8.8 1.32,-19.1 -4.72,-26.25 8.84,7.4 12.15,20.42 8.23,31.21 -4.02,12.03 -16.66,20.38 -29.31,19.25 -12.67,-0.7 -24.01,-10.73 -26.27,-23.2 m 9.78,-7.24 c -1.83,-6.35 0.17,-13.33 4.49,-18.22 -1.27,3.29 -2.67,6.72 -2.18,10.33 0.51,7.75 7.3,14.4 15.04,14.82 8.24,0.8 16.31,-5.67 17.33,-13.88 0.75,-3.92 -0.64,-7.75 -2.13,-11.31 4.97,5.43 6.71,13.66 3.8,20.5 -3.05,7.81 -11.62,12.96 -19.94,11.87 -7.68,-0.76 -14.51,-6.63 -16.41,-14.11 m 11.49,-3.99 c -5.34,-3.98 -5.67,-12.55 -0.79,-17.05 -1.45,3.62 -0.93,8.14 2.26,10.66 3.79,3.43 10.41,2.37 12.96,-2.06 1.81,-2.61 1.2,-5.85 0.74,-8.77 2.95,3.76 4.43,9.06 2.01,13.48 -2.94,6.27 -11.92,8.24 -17.18,3.74 m 5.15,-11.06 c -3.46,-1.54 -3.43,-7.1 0.05,-8.62 3.17,-1.84 7.55,1.16 6.98,4.79 -0.14,3.28 -4.19,5.5 -7.03,3.83 m -691.8,-50.47 c 12.04,3.98 25.57,1.77 36.4,-4.55 16.54,-9.73 28.3,-26.91 31.91,-45.72 2.66,-14.17 2.59,-29.37 -3.04,-42.84 -5.24,-12.55 -16,-22.57 -28.83,-27.04 -12.53,-4.53 -26.17,-4.78 -39.29,-3.44 -13.84,1.56 -28.13,6.66 -37.23,17.7 -9.79,11.91 -14.84,26.85 -18.83,41.52 7,16.86 16.42,33.05 29.79,45.66 8.48,7.87 17.99,15.11 29.12,18.71 m -19.65,-22.11 c -13.47,-11.48 -23.02,-26.87 -29.91,-43.02 4.12,-13.62 8.85,-27.93 19.21,-38.18 11.27,-10.2 27.33,-12.23 41.95,-12.12 14.12,0.05 29.37,3.96 38.85,15.13 10.03,11.33 11.79,27.46 10.16,41.95 -1.54,15.88 -9.27,31.17 -21.72,41.27 -9.07,7.76 -21.64,12.16 -33.51,9.38 -9.51,-2.31 -17.71,-8.11 -25.03,-14.41 z"
       style="fill:#000000;fill-opacity:1;fill-rule:nonzero;stroke:#000000;stroke-width:0.09375;stroke-linecap:butt;stroke-linejoin:miter;stroke-miterlimit:10;stroke-dasharray:none;stroke-opacity:1"
       id="path3666"
       inkscape:connector-curvature="0" /><path
       d="m 743.01,723.92 c 25.64,22.74 58.83,36.8 93.03,39.25 34.04,2.66 68.86,-6.01 97.58,-24.49 29.09,-18.54 51.87,-46.77 63.7,-79.18 15.68,-42.29 12.23,-91.27 -9.61,-130.78 20.03,-36.59 24.76,-81.13 12.86,-121.11 -9.72,-33.28 -30.78,-63.05 -58.8,-83.43 -29.38,-21.62 -66.4,-32.45 -102.8,-30.25 -32.02,1.71 -63.38,13.54 -88.61,33.33 -23.91,18.62 -42.35,44.19 -52.32,72.81 -12.62,35.88 -11.77,76.3 2.45,111.58 2.29,5.88 5.15,11.5 7.99,17.13 -19.73,35.64 -24.5,79.05 -13.62,118.25 8.11,29.6 25.12,56.63 48.15,76.89 m 21,-3.97 c -26.25,-19.13 -45.74,-47.42 -53.87,-78.9 -10.05,-37.61 -3.81,-79.25 17.05,-112.14 -12.94,-20.65 -20.79,-44.52 -22.01,-68.9 -1.82,-31.78 7.35,-64.06 25.81,-90.02 20.33,-28.97 51.76,-49.96 86.43,-57.28 13.28,-3.15 26.98,-3.23 40.55,-2.84 34.16,2.31 67.21,17.56 91.15,42.02 25.5,25.52 40.55,61.07 41.17,97.14 0.69,27.71 -6.98,55.54 -21.73,79.01 17.67,27.66 25.27,61.52 21.18,94.08 -3.79,31.91 -18.88,62.29 -41.95,84.65 -26.48,26.03 -63.58,41.35 -100.81,40.34 -29.63,0.38 -59.1,-9.74 -82.97,-27.16 m -643.1,-21.82 c 26.22,17.7 57.37,28.37 89.09,29.04 17.55,0.31 35.8,-1.36 51.66,-9.46 7.63,-3.98 15.13,-9.53 18.45,-17.77 3.19,-7.95 2.65,-17.28 -1.03,-24.98 -4.94,-9.96 -15.76,-17.11 -27.06,-16.38 -7.75,0.6 -14.28,5.17 -21.19,8.24 -9.12,3.99 -19.32,2.61 -28.86,1.26 -33.16,-5.61 -63.52,-24.55 -84.02,-51.09 -16.43,-20 -26.03,-44.75 -30.99,-69.96 13.69,11.66 28.81,22.02 45.81,28.21 17.93,6.52 37.67,7.62 56.34,3.89 17.29,-3.5 33.38,-11.87 46.8,-23.23 13.06,-11.1 24.41,-24.41 32.28,-39.7 9.49,-18.21 13.95,-38.76 14.45,-59.21 0.55,-18.48 -1.94,-37.27 -9.13,-54.4 -7.69,-18.43 -20.69,-34.72 -37.37,-45.78 -15.43,-10.42 -33.61,-16.27 -52.02,-18.44 -17.38,-1.97 -35.11,-1.55 -52.28,1.91 -16.36,3.3 -32.13,9.97 -45.38,20.19 -12.6,9.5 -22.68,22.05 -30.29,35.81 -8.65,15.52 -14.32,32.5 -18.57,49.69 -6.52,26.48 -9.14,53.81 -9.02,81.04 0.14,36.45 7.67,73.85 27.54,104.89 17.17,25.86 38.94,48.91 64.79,66.23 m 33.51,-177.75 c -11.13,-3.6 -20.64,-10.84 -29.12,-18.71 -13.37,-12.61 -22.79,-28.8 -29.79,-45.66 3.99,-14.67 9.04,-29.61 18.83,-41.52 9.1,-11.04 23.39,-16.14 37.23,-17.7 13.12,-1.34 26.76,-1.09 39.29,3.44 12.83,4.47 23.59,14.49 28.83,27.04 5.63,13.47 5.7,28.67 3.04,42.84 -3.61,18.81 -15.37,35.99 -31.91,45.72 -10.83,6.32 -24.36,8.53 -36.4,4.55 m 292.17,201.26 c 25.94,7.24 53.85,7.47 79.91,0.74 30.72,-7.97 57.48,-29.18 72.97,-56.79 10.41,-18.62 14.56,-40.38 13.14,-61.59 -1.17,-18.1 -7.27,-35.94 -17.9,-50.69 -9.22,-12.91 -20.1,-24.52 -31.23,-35.79 -22.26,-22.15 -46.04,-42.7 -69.49,-63.56 -18.66,-16.46 -37.51,-32.73 -56.25,-49.11 42.12,-0.19 84.24,-0.01 126.36,-0.09 5.79,4.36 12.33,8.61 19.84,8.73 8.71,0.33 17.86,-3.23 22.87,-10.62 5.5,-8.14 6.42,-18.34 6.6,-27.9 0.03,-9.69 0.01,-19.39 0.01,-29.08 -88.33,0.07 -176.65,-0.15 -264.98,0.11 0.12,20.71 -0.05,41.42 0.09,62.13 31.67,26.38 63.11,53.04 94.26,80.04 27.21,23.76 54.41,47.57 80.15,72.94 11.14,11.3 23.08,22.78 28.79,37.95 4.51,11.45 3.45,24.69 -2.06,35.61 -7.54,14.83 -21.57,26.05 -37.59,30.43 -14.6,4.02 -30.23,4.3 -45.01,1.09 -18.18,-4.09 -35.45,-15.44 -43.66,-32.56 -4.84,-8.56 -5.94,-18.96 -12.45,-26.59 -5.66,-6.96 -15.34,-8.97 -23.89,-8.28 -14.9,1.05 -27.75,15.19 -26.69,30.24 0.82,13.91 7.19,26.71 13.91,38.65 15.26,27.06 42.79,45.62 72.3,53.99 m 612.91,-4.22 c 84.35,0.02 168.69,-0.01 253.03,0.02 -0.17,-19.89 0.44,-39.84 -0.3,-59.69 -31.09,-93.57 -62.34,-187.09 -93.49,-280.65 -2.88,-8.39 -5.99,-17.08 -12.04,-23.76 -8.82,-8.72 -23.49,-9.55 -34.13,-3.82 -9.07,4.93 -15.52,15.02 -14.84,25.49 0.54,7 2.56,13.79 4.63,20.46 29.72,87.68 59.41,175.37 89.16,263.04 -43.5,0.1 -86.99,-0.03 -130.48,0.07 -1.16,-0.19 -3.71,0.64 -3.22,-1.5 -0.33,-10.25 -1.14,-21.61 -8.18,-29.72 -10.66,-13.21 -33.7,-11.84 -43.42,1.81 -5.46,7.73 -6.36,17.58 -6.68,26.75 -0.09,20.5 -0.02,41 -0.04,61.5 z"
       style="fill:#0053ff;fill-opacity:1;fill-rule:nonzero;stroke:#0053ff;stroke-width:0.09375;stroke-linecap:butt;stroke-linejoin:miter;stroke-miterlimit:10;stroke-dasharray:none;stroke-opacity:1"
       id="path3668"
       inkscape:connector-curvature="0" /></g></svg>