<?xml version="1.0" encoding="UTF-8" standalone="no"?>
<!-- Created with Inkscape (http://www.inkscape.org/) -->

<svg
   xmlns:dc="http://purl.org/dc/elements/1.1/"
   xmlns:cc="http://creativecommons.org/ns#"
   xmlns:rdf="http://www.w3.org/1999/02/22-rdf-syntax-ns#"
   xmlns:svg="http://www.w3.org/2000/svg"
   xmlns="http://www.w3.org/2000/svg"
   xmlns:sodipodi="http://sodipodi.sourceforge.net/DTD/sodipodi-0.dtd"
   xmlns:inkscape="http://www.inkscape.org/namespaces/inkscape"
   id="svg3670"
   version="1.1"
   inkscape:version="0.91 r13725"
   xml:space="preserve"
   width="1677.5"
   height="1373.75"
   viewBox="0 0 1677.5 1373.75"
   sodipodi:docname="About-robot.svg"><metadata
     id="metadata3676"><rdf:RDF><cc:Work
         rdf:about=""><dc:format>image/svg+xml</dc:format><dc:type
           rdf:resource="http://purl.org/dc/dcmitype/StillImage" /><dc:title></dc:title></cc:Work></rdf:RDF></metadata><defs
     id="defs3674" /><sodipodi:namedview
     pagecolor="#ffffff"
     bordercolor="#666666"
     borderopacity="1"
     objecttolerance="10"
     gridtolerance="10"
     guidetolerance="10"
     inkscape:pageopacity="0"
     inkscape:pageshadow="2"
     inkscape:window-width="640"
     inkscape:window-height="480"
     id="namedview3672"
     showgrid="false"
     inkscape:zoom="0.17179254"
     inkscape:cx="838.75"
     inkscape:cy="686.875"
     inkscape:window-x="40"
     inkscape:window-y="85"
     inkscape:window-maximized="0"
     inkscape:current-layer="g3678" /><g
     id="g3678"
     inkscape:groupmode="layer"
     inkscape:label="About-robot"
     transform="matrix(1.25,0,0,-1.25,0,1373.75)"><path
       d="m 643.08,870.1 c 36.04,10.1 76.26,4.14 107.63,-16.34 26.42,-16.93 46.5,-43.49 55.47,-73.57 10.98,-36.13 5.69,-76.85 -14.49,-108.81 -12.4,-19.87 -30.09,-36.43 -50.84,-47.31 30.9,19.58 51.62,54.35 53.48,90.96 2.22,32.61 -10.32,65.77 -33.41,88.86 -14.29,14.43 -32.41,25.05 -52.02,30.36 -33.7,9.29 -71.44,2.38 -99.44,-18.61 -29.7,-21.6 -47.96,-57.95 -47.24,-94.71 0,-37.48 19.78,-74.05 50.83,-94.94 -29.76,16.67 -52.49,45.33 -62.07,78.06 -10.94,36.64 -5.13,77.89 15.83,109.9 17.46,27.18 45.11,47.61 76.27,56.15 m -9.68,-11.61 c -32.73,-12.15 -59.87,-38.37 -73.18,-70.63 -15.13,-35.79 -12.58,-78.43 6.71,-112.16 -4.9,10.33 -9.04,21.1 -11.19,32.37 -4.82,23.85 -2.63,49.1 6.5,71.68 11.62,29.23 34.73,53.64 63.23,66.92 33.54,15.93 74.21,15.72 107.58,-0.54 28.82,-13.78 51.94,-39 63.07,-68.95 9.53,-25.15 10.53,-53.39 3.03,-79.21 -0.99,-3.37 -2.27,-6.65 -3.07,-10.08 10.71,25.78 13.38,54.95 6.4,82.06 -8.57,34.86 -32.74,65.42 -64.56,82 -31.79,16.95 -70.86,19.32 -104.52,6.54 m 22.64,-9.41 c -19.7,-3.68 -38.4,-12.51 -53.76,-25.38 -24.53,-20.3 -40.26,-50.87 -42.17,-82.7 -0.08,-3.4 -0.66,-6.77 -1.13,-10.14 0.29,1.8 1.74,3.25 1.64,5.11 -0.3,5.39 0.97,10.69 1.99,15.93 7.27,34.01 30.49,64.07 61.41,79.94 31.65,16.65 70.9,17.68 103.44,2.87 31.43,-14.1 56.43,-42.46 65.38,-75.84 -7.78,38.28 -36.82,71.08 -73.31,84.65 -20.12,7.65 -42.35,9.48 -63.49,5.56 m 6.55,-17.94 c 21.84,3.23 44.65,-0.24 64.48,-9.98 29.19,-14.09 51.42,-41.66 58.91,-73.21 5.49,-22.93 3.59,-47.64 -5.75,-69.33 -12.73,-30.24 -39.68,-54.06 -71.3,-62.86 -22.52,-6.44 -47.08,-5.45 -69,2.79 -28.62,10.62 -52.3,33.68 -63.6,62.04 -9.65,23.64 -10.59,50.67 -2.8,74.97 9.09,28.82 30.65,53.36 57.99,66.18 9.8,4.68 20.33,7.81 31.07,9.4 m 0,-4.87 c -16.65,-2.89 -32.36,-10.57 -45.06,-21.69 -14.93,-11.14 -26.92,-26.24 -33.98,-43.5 -8.68,-20.79 -10.06,-44.47 -4.16,-66.19 8.01,-29.93 30.41,-55.51 58.99,-67.45 24.4,-10.42 52.87,-10.78 77.53,-1.01 29.11,11.27 52.3,36.58 60.92,66.59 6.59,22.46 5.26,47.2 -3.9,68.76 -6.59,15.82 -17.4,29.71 -30.64,40.53 -20.82,19.98 -51.3,29.19 -79.7,23.96 m -8.29,-9.48 c 15.25,6.75 33.37,6.67 48.57,-0.18 12.06,-5.35 22.25,-14.81 28.48,-26.44 6.52,-11.95 8.66,-26.16 6.18,-39.52 0.9,14.86 -3.77,30.04 -13.34,41.51 -10.45,12.88 -26.53,21.04 -43.13,21.63 -13.54,0.69 -27.25,-3.53 -38.08,-11.68 -15.97,-11.7 -25.19,-31.78 -23.71,-51.53 -2.72,14.18 -0.09,29.34 7.35,41.73 6.37,10.79 16.2,19.48 27.68,24.48 m -21.05,-36.06 c 8.1,14.28 23.28,24.32 39.64,25.96 14.62,1.73 29.84,-3.14 40.74,-13.03 14.2,-12.42 20.48,-32.8 16.08,-51.11 0.77,13.06 -3.38,26.4 -11.91,36.38 -9.23,11.12 -23.36,17.95 -37.8,18.24 -15.48,0.5 -30.94,-6.58 -40.71,-18.57 -8.37,-9.93 -12.33,-23.08 -11.69,-35.97 -2.83,12.82 -1.04,26.73 5.65,38.1 m 6.76,-14.82 c 6.62,13.17 20.34,22.4 35.04,23.5 14.59,1.36 29.56,-5.37 38.3,-17.11 9.07,-11.67 11.06,-27.9 6.11,-41.71 1.61,10.33 -0.03,21.27 -5.73,30.14 -6.8,10.99 -18.91,18.47 -31.81,19.45 -14.98,1.45 -30.29,-6.08 -38.43,-18.71 -5.49,-8.08 -7.21,-18 -6.94,-27.61 -2.24,10.7 -1.82,22.27 3.46,32.05 M 612.2,723.29 c -7.77,20.59 -5.16,44.79 7.01,63.14 -6.37,-12.34 -9.17,-26.56 -7.3,-40.37 2.01,-16.55 10.56,-32.15 23.32,-42.85 11.83,-10.09 27.26,-15.83 42.81,-15.89 14.94,-0.21 29.88,4.77 41.69,13.94 13.23,10.11 22.49,25.3 25.26,41.74 2.76,14.83 -0.14,30.26 -6.83,43.66 6.53,-10.39 10.66,-22.36 11.3,-34.66 1.11,-18.15 -5.12,-36.62 -17.07,-50.34 -10.29,-12.03 -24.73,-20.41 -40.28,-23.36 -16.96,-3.31 -35.1,-0.14 -49.88,8.82 -13.72,8.19 -24.52,21.17 -30.03,36.17 m -4.68,-30.83 c -16.34,26.45 -15.84,62.3 1.65,88.07 -6.82,-14.03 -9.51,-30.06 -7.21,-45.53 2.53,-17.93 11.69,-34.82 25.3,-46.76 10.81,-9.62 24.39,-16.05 38.67,-18.36 18.06,-2.98 37.15,0.71 52.73,10.34 15.39,9.36 27.3,24.28 32.96,41.39 5.2,15.5 5.3,32.66 0.24,48.21 -1.06,3.58 -2.74,6.92 -3.9,10.45 8.34,-13.16 13.13,-28.61 13.17,-44.23 0.23,-17.09 -5.04,-34.2 -14.89,-48.18 -9.57,-13.73 -23.41,-24.47 -39.13,-30.24 -19.1,-7.12 -40.87,-6.82 -59.74,0.89 -16.5,6.6 -30.66,18.76 -39.85,33.95 M 584,708.04 c -4.22,21.68 -0.66,44.71 9.82,64.15 -7.1,-17 -9.45,-36.02 -5.92,-54.16 3.73,-20.11 14.47,-38.8 29.88,-52.23 12.41,-10.93 27.81,-18.46 44.09,-21.39 18.44,-3.41 37.93,-1.12 54.99,6.7 18.38,8.29 33.86,22.83 43.33,40.63 9.75,18.08 13.1,39.47 9.48,59.68 -1.09,6.87 -3.45,13.41 -5.68,19.97 10.62,-20.2 13.84,-44.16 8.74,-66.42 -6.77,-31.06 -30.08,-57.81 -59.86,-68.87 -23,-8.79 -49.4,-8.26 -72.02,1.47 -29.04,12.18 -51.16,39.46 -56.85,70.47 m 63.69,47.38 c 5.59,8.64 15.01,14.69 25.2,16.15 9.65,1.5 19.86,-1.06 27.61,-7 8.64,-6.44 14.17,-16.87 14.56,-27.65 0.56,-10.28 -3.59,-20.57 -10.86,-27.82 6.35,8.46 9.38,19.62 6.42,29.97 -3.53,14.03 -17.16,24.71 -31.67,24.51 -14.34,0.42 -28.04,-9.78 -31.93,-23.54 -3.28,-10.68 -0.65,-22.98 6.85,-31.29 1.03,-1.17 2.64,-1.94 4.17,-1.26 -10.2,10.36 -9.66,28.65 0.88,38.57 9.58,9.8 26.5,10.64 36.95,1.75 7.29,-5.84 11.27,-15.55 10.06,-24.83 -0.78,-7.1 -4.58,-13.66 -10.01,-18.25 3.47,3.98 6.1,8.82 6.69,14.12 1.14,8.44 -2.53,17.32 -9.34,22.44 -6.78,5.35 -16.49,6.59 -24.4,3.15 -7.54,-3.14 -13.25,-10.28 -14.56,-18.35 -1.26,-7.53 0.89,-16.06 7.07,-20.94 -0.58,0.42 -1.73,1.26 -2.31,1.68 -0.78,-0.56 -1.51,-1.97 -2.66,-1.38 -5.72,5.07 -10.8,11.17 -13.02,18.61 -3.33,10.39 -1.81,22.28 4.3,31.36 m 12.26,-36.4 c -0.58,8.54 5.6,16.85 13.92,18.8 8.25,2.25 17.63,-2.17 21.15,-9.95 3.48,-6.92 1.71,-15.61 -3.56,-21.13 3.9,6.33 3.36,15.29 -2.31,20.38 -5.87,5.85 -16.3,5.65 -21.94,-0.4 -5.33,-5.14 -5.59,-13.64 -2.07,-19.87 -2.86,3.45 -5.09,7.6 -5.19,12.17 m 9.87,0.07 c 4,5.52 13.19,5.5 17.15,-0.06 3.58,-4.29 2.57,-10.63 -0.81,-14.72 0.75,3.37 0.88,7.4 -1.88,9.94 -3.48,3.78 -10.34,3.05 -12.92,-1.4 -1.81,-2.55 -1.27,-5.76 -0.64,-8.6 -3.55,4.06 -4.53,10.51 -0.9,14.84 m 6.68,-8.84 c 2.98,1.78 7.1,-0.86 6.85,-4.28 0,-3.38 -4.25,-5.75 -7.07,-3.81 -3.09,1.66 -2.91,6.61 0.22,8.09 z"
       style="fill:#ffffff;fill-opacity:1;fill-rule:nonzero;stroke:#ffffff;stroke-width:0.09375;stroke-linecap:butt;stroke-linejoin:miter;stroke-miterlimit:10;stroke-dasharray:none;stroke-opacity:1"
       id="path3680"
       inkscape:connector-curvature="0" /><path
       d="m 580.44,866.65 c 26.14,23.87 61.23,37.61 96.63,37.75 32.06,0.41 64.1,-10.21 89.56,-29.68 27.31,-20.66 46.99,-51.18 54.27,-84.67 9.07,-40.45 0.05,-84.78 -24.96,-117.95 18.72,31.16 24.37,69.82 15.13,105 -8.42,33.2 -29.98,62.72 -58.83,81.12 -21.7,13.84 -47.42,21.79 -73.23,21.33 -37.61,0.92 -74.95,-15.57 -100.53,-42.98 -23.69,-24.98 -37.25,-59.18 -37.14,-93.6 -0.16,-24.5 6.65,-48.86 18.93,-70.02 -23.04,30.83 -32.2,71.32 -25.93,109.19 5.18,32.33 21.79,62.61 46.1,84.51 m -441.61,-4.44 c 8.24,7.35 20.49,7.93 30.71,5.18 11.06,-3.38 17.55,-14.02 21.68,-24.13 12.47,-34.24 25.91,-68.12 38.83,-102.2 9.85,-25.72 19.75,-51.42 29.56,-77.15 2.44,-7.45 5.66,-15.3 3.98,-23.26 -2.23,-9.74 -11.38,-17.8 -21.58,-17.55 -7.22,-0.31 -14.42,3.82 -17.66,10.31 -8.21,16.06 -13.38,33.41 -19.7,50.25 -30.49,-0.01 -60.98,0.02 -91.47,-0.02 -5.51,-15.07 -10.26,-30.44 -16.59,-45.2 -2.45,-5.09 -4.74,-11.15 -10.29,-13.6 -6.81,-2.87 -15.3,-2.37 -21.27,2.22 -5.01,3.86 -9.29,9.38 -9.73,15.9 -0.76,7.94 2.57,15.36 5.22,22.64 21.41,57.24 42.41,114.64 64.03,171.81 3.49,8.84 6.88,18.4 14.28,24.8 M 125.18,719.98 c 22.4,-0.03 44.81,-0.01 67.21,-0.01 -11.36,32.71 -22.66,65.43 -34.1,98.11 -10.92,-32.74 -22.14,-65.38 -33.11,-98.1 M 874.57,868.2 c 7.39,1.72 15.88,0.24 21.39,-5.26 5.89,-5.62 7.34,-14.21 7.48,-22.01 0.02,-32.99 0,-65.98 0.01,-98.97 0.13,-17.45 -1.05,-35.37 4.32,-52.25 2.74,-9.32 8.97,-17.69 17.55,-22.37 9,-4.93 19.54,-5.9 29.62,-5.75 12.18,0.28 25.43,3.29 33.78,12.84 9.14,10.63 11.72,25.12 12.62,38.69 0.45,11.3 0.1,22.62 0.21,33.93 0,30.65 0.01,61.3 0,91.95 0.03,7.8 0.96,16.23 5.96,22.55 8.82,10.8 28.36,9.57 35.47,-2.55 5.1,-8.4 4.35,-18.59 4.36,-28.01 0,-34.35 0,-68.7 0,-103.05 0.1,-17.28 -0.94,-34.81 -5.96,-51.45 -5.16,-17.24 -17.47,-31.89 -32.76,-41.15 -13.69,-8.25 -29.8,-11.4 -45.59,-12.09 -15.84,-0.52 -31.87,0.37 -47.26,4.39 -13.42,3.42 -26.36,9.96 -35.69,20.38 -11.06,11.67 -16.84,27.29 -19.6,42.89 -2.09,11.58 -2.82,23.36 -2.81,35.11 0,37.98 0,75.96 0,113.94 0.07,6.51 0.86,13.33 4.3,19 2.8,4.55 7.4,7.97 12.6,9.24 M 323.03,857.9 c 6.13,6.34 15.61,7.11 23.94,6.97 24.67,-0.04 49.35,0.04 74.02,-0.04 14.96,-0.31 30.65,-1.41 43.93,-8.99 16.7,-9.87 27.75,-28.48 28.66,-47.83 0.61,-12.54 -2.33,-25.55 -9.84,-35.77 -6.05,-8.5 -14.77,-14.6 -23.91,-19.37 13.27,-4.58 26.18,-11.96 34.37,-23.68 9.46,-13.29 11.4,-30.55 9.02,-46.35 -2.98,-19.86 -15.8,-38.21 -33.98,-47 -15.31,-7.2 -32.58,-8.2 -49.23,-8.68 -25,-0.12 -50,-0.01 -75,-0.05 -7.9,-0.08 -16.87,1.2 -22.27,7.58 -5.48,6.77 -6.03,15.97 -5.96,24.32 0.01,57.32 0,114.64 0,171.96 -0.08,9.19 0,19.53 6.25,26.93 m 39.53,-29.35 c -0.01,-20.49 0,-40.97 -0.01,-61.46 16.16,0.07 32.31,-0.17 48.47,0.13 9.57,0.61 20.17,1.37 27.73,7.99 9.92,8.97 12.39,24.16 7.83,36.42 -2.05,5.47 -6.54,9.84 -11.97,11.93 -10.02,3.96 -20.95,4.66 -31.61,4.94 -13.48,0.11 -26.96,0.03 -40.44,0.05 m 0,-96 c -0.01,-23.04 -0.01,-46.08 0,-69.12 17.46,0.02 34.92,-0.06 52.38,0.04 11.85,0.44 24.75,2.44 33.76,10.85 7.79,7.24 9.87,18.61 8.85,28.8 -0.65,8.67 -4.92,17.35 -12.5,21.97 -9.56,5.82 -21.07,7.13 -32.05,7.45 -16.81,0.04 -33.63,0.01 -50.44,0.01 m 739.58,128.39 c 4.61,3.14 10.36,3.98 15.84,3.93 48.34,-0.02 96.67,0.01 145.01,-0.01 5.63,-0.03 11.61,-1.03 16.13,-4.64 9.75,-7.74 9.13,-25.21 -1.56,-31.85 -4.61,-2.89 -10.2,-3.54 -15.52,-3.55 -16.39,0.01 -32.78,0 -49.16,0 -0.01,-57.62 0.01,-115.24 -0.01,-172.86 -0.07,-8.2 -1.55,-17.23 -7.72,-23.17 -5.17,-5.21 -13.11,-6.59 -20.11,-5.21 -7.47,1.48 -13.64,7.45 -15.96,14.62 -2.65,7.63 -1.87,15.83 -1.98,23.76 -0.01,54.29 0.01,108.57 -0.01,162.86 -16.71,0.02 -33.41,-0.01 -50.11,0.01 -5.44,0.08 -11.25,0.94 -15.63,4.43 -9.73,7.5 -9.68,24.84 0.79,31.68 M 576.57,581.22 c 11.39,1.31 23.54,0.63 33.88,-4.78 6.86,-3.54 12.44,-9.78 14.41,-17.33 2.58,-9.67 1.32,-20.89 -5.19,-28.79 -5.54,-6.77 -13.98,-10.6 -22.48,-11.97 -9.23,-1.43 -18.81,-1.24 -27.84,1.25 -7.23,2.03 -14.17,6.07 -18.45,12.37 -7.52,11.12 -7.18,27.31 1.66,37.61 5.99,7 15.06,10.46 24.01,11.64 m 3.94,-9.93 c -6.05,-0.99 -12.09,-4.16 -15.07,-9.72 -5.46,-9.85 -3.46,-24.44 6.71,-30.48 8.29,-4.9 19.37,-4.67 27.66,0.14 10.11,6.22 11.91,20.94 6.25,30.72 -5.21,8.47 -16.32,10.82 -25.55,9.34 m 64.91,10.11 c 3.34,0.84 7.43,0.52 9.92,-2.12 1.53,-1.71 1.6,-4.1 1.62,-6.26 -0.01,-9.68 -0.02,-19.36 -0.01,-29.03 0.05,-4.29 0.57,-9.13 3.81,-12.3 3.52,-3.35 8.64,-4.01 13.3,-4.12 4.57,-0.02 9.49,0.31 13.4,2.95 3.62,2.55 5.04,7.15 5.16,11.39 0.23,11.39 -0.23,22.79 0.21,34.16 1.26,8.27 16.44,7.56 16.48,-1.04 0.18,-10.34 0.03,-20.69 0.07,-31.04 -0.01,-6.68 -1.28,-14.17 -6.73,-18.68 -8.56,-7.54 -20.72,-8.19 -31.57,-7.72 -9.02,0.5 -19.18,1.91 -25.51,9.07 -5.09,5.82 -5.5,14 -5.35,21.35 0.08,9.01 -0.12,18.02 0.09,27.02 -0.07,3.03 2.21,5.68 5.11,6.37 m 83.96,-2.7 c 2.68,2.19 6.37,2 9.62,2.08 10.66,-0.11 21.33,0.19 31.98,-0.19 7.16,-0.28 15.07,-2.05 19.82,-7.85 4.49,-5.3 4.51,-13.98 -0.51,-18.94 -4.52,-4.46 -10.97,-6.04 -17.01,-7.22 8.76,-3.68 15.23,-11.24 20.2,-19.11 0.99,-1.95 2.77,-4.1 1.8,-6.41 -2.66,-4.03 -8.68,-4.45 -12.73,-2.47 -3.85,2.39 -6.15,6.47 -9.05,9.82 -3.99,4.7 -7.32,10.11 -12.35,13.8 -4.98,3.64 -11.47,2.89 -17.26,2.94 -0.1,-7.31 0.22,-14.63 -0.15,-21.93 -1.27,-8.14 -16.19,-7.68 -16.45,0.8 -0.17,16 -0.01,32.01 -0.08,48 -0.04,2.37 0.16,5.09 2.17,6.68 m 14.52,-7.48 c -0.02,-5.67 0,-11.33 -0.02,-17 6.7,0.06 13.4,-0.18 20.1,0.17 3.65,0.35 7.59,0.69 10.66,2.91 3.57,2.57 3.33,8.62 -0.26,11.06 -3.25,2.51 -7.53,2.65 -11.45,2.8 -6.35,0.12 -12.69,0.03 -19.03,0.06 M 388.87,460.69 c 23.97,3.35 49.3,-0.83 70.1,-13.51 23.29,-14.25 41.27,-36.65 51.36,-61.91 5.04,-12.63 7.82,-26.07 9.07,-39.58 6.22,0.03 12.45,0.07 18.68,0 3.75,0.02 7.96,-1.21 9.97,-4.64 2.13,-3.86 2.02,-8.67 0.64,-12.77 -1.35,-4.01 -5.59,-6.25 -9.64,-6.33 -6.56,-0.18 -13.13,0 -19.69,-0.06 -1.89,-24.15 -10.17,-47.97 -25.01,-67.24 15.42,-0.09 30.85,0.21 46.25,-0.15 5.37,-0.1 6.91,-7.37 3.68,-10.83 -1.62,-1.68 -4.1,-1.96 -6.3,-2.01 -18.45,-0.05 -36.9,0.08 -55.35,-0.06 -12.37,-12.78 -27.62,-22.96 -44.59,-28.48 -20.27,-6.57 -42.52,-7.01 -63,-1.12 -16.58,4.76 -31.66,14.02 -44.12,25.85 -1.4,1.24 -2.55,2.81 -4.17,3.73 -17.91,0.23 -35.83,-0.07 -53.73,0.14 -3.91,-0.19 -6.97,3.47 -6.35,7.27 -0.14,3.86 3.86,5.88 7.24,5.64 13.93,0.07 27.87,0.01 41.8,0.02 -14.45,19.49 -23.36,43.02 -25.29,67.22 -6.14,0.13 -12.29,-0.17 -18.43,0.13 -4.02,0.2 -8.05,2.69 -9.21,6.69 -1.24,4.3 -1.34,9.42 1.36,13.19 2.28,3 6.28,3.84 9.84,3.82 5.47,0.06 10.95,0 16.42,0.01 2.08,29.02 13.42,57.53 33.33,78.92 -2.88,4.59 -2.02,10.99 2.24,14.42 3.94,3.73 10.08,4.21 14.91,2.01 14.17,10.17 30.66,17.26 47.99,19.63 m 2.23,-5.15 c -16.36,-2.12 -31.93,-8.87 -45.14,-18.66 0.74,-2.2 1.59,-4.45 1.41,-6.83 -0.17,-6.32 -6.14,-11.55 -12.35,-11.53 -2.74,-0.11 -5.34,0.89 -7.8,1.97 -18.34,-20.58 -29.04,-47.38 -31.11,-74.78 8.82,-0.01 17.63,0.04 26.44,-0.02 3.87,19.08 15.5,36.31 31.7,47.1 31.07,21.16 76.3,18.89 104.67,-5.98 12.31,-10.49 20.82,-25.21 23.86,-41.09 10.39,0 20.79,-0.01 31.19,0 -1.79,21.74 -8.9,43.1 -21.18,61.16 -10.53,15.52 -24.18,29.25 -40.81,38.13 -18.48,9.93 -40.17,13.23 -60.88,10.53 m 1.29,-72.11 c -15.7,-2.25 -30.19,-11.61 -38.67,-25.02 -8.2,-12.73 -9.93,-29.08 -5.7,-43.5 3.82,-12.86 13.38,-23.51 24.94,-30.05 12.26,-7 27.02,-8.93 40.87,-6.76 16.19,2.54 30.9,12.78 39.15,26.9 6.79,11.65 8.17,26.01 4.96,38.99 -3.37,13.58 -13.06,24.96 -24.86,32.14 -12.1,7.31 -26.84,9.3 -40.69,7.3 m -96.15,-61.45 c 1.94,-24.43 11.63,-48.07 26.73,-67.33 8.14,-0.13 16.3,0.29 24.42,-0.2 6.17,-0.28 7.41,-10.48 1.58,-12.25 -4.6,-1.09 -9.4,-0.31 -14.08,-0.56 8.85,-8.14 18.85,-15.12 29.89,-19.96 21.86,-9.65 47.26,-10.69 69.99,-3.46 14.65,4.64 27.93,13.02 39.16,23.43 -4.3,0.05 -8.59,-0.06 -12.88,0.02 -2.41,0.05 -5.26,0.59 -6.6,2.82 -1.27,2.34 -1.11,5.45 0.37,7.65 1.65,2.21 4.63,2.5 7.18,2.51 7.95,0.03 15.91,0 23.86,0.01 15.71,18.89 24.93,42.81 26.82,67.25 -9.87,-0.07 -19.75,0.03 -29.61,-0.05 -1.13,-9.28 -3.8,-18.4 -8.29,-26.62 -8.28,-15.25 -22.06,-27.24 -37.93,-34.12 -15.61,-6.76 -33.21,-8.23 -49.93,-5.58 -18.38,2.96 -35.54,12.56 -47.86,26.49 -9.89,11.01 -16.03,25.16 -17.7,39.84 -8.37,0.1 -16.75,-0.11 -25.12,0.11 m 624.65,137.73 c 26.48,5.16 55.16,0.85 78,-13.87 23.49,-15.2 41.45,-38.6 50.81,-64.9 4.06,-11.35 6.31,-23.26 7.45,-35.24 6.63,-0.04 13.28,0.15 19.93,-0.08 3.87,-0.11 8,-2.11 9.4,-5.94 1.42,-4.05 1.3,-8.77 -0.6,-12.65 -1.85,-3.58 -6.03,-5.12 -9.85,-5.13 -6.32,-0.08 -12.64,0.05 -18.95,-0.04 -1.82,-24.14 -10.17,-47.93 -24.97,-67.2 14.29,0 28.58,-0.01 42.88,0.01 2.39,-0.03 5.1,0.01 7.03,-1.7 3.46,-3.61 1.38,-11.03 -4.05,-11.15 -19.16,-0.4 -38.34,-0.03 -57.51,-0.18 -12.45,-12.77 -27.69,-23.03 -44.72,-28.54 -21.16,-6.83 -44.47,-7.03 -65.68,-0.27 -17.3,5.47 -32.67,15.96 -45.34,28.82 -16.25,0 -32.5,0.02 -48.74,-0.01 -2.81,0.1 -5.78,-0.34 -8.4,0.85 -3.35,1.58 -3.92,6.21 -2.42,9.24 1.3,2.45 4.36,2.9 6.88,2.92 13.82,0.02 27.64,0.01 41.47,-0.01 -14.55,19.46 -23.38,43.04 -25.36,67.24 -6.06,0.09 -12.12,-0.14 -18.16,0.09 -4.27,0.14 -8.52,2.85 -9.59,7.12 -1.17,4.62 -1.21,10.46 2.56,13.93 3,2.67 7.24,2.76 11.03,2.71 4.72,-0.01 9.44,-0.02 14.16,-0.01 2.09,29.01 13.4,57.52 33.34,78.89 -3.17,4.9 -1.79,11.74 2.97,15.07 3.97,3.24 9.65,3.38 14.22,1.39 12.58,9.05 26.97,15.68 42.21,18.64 m 4.09,-4.78 c -14.97,-2.58 -29.14,-9.05 -41.31,-18.08 2.23,-4.68 2.01,-10.8 -1.98,-14.47 -4.24,-4.6 -11.43,-4.8 -16.68,-1.88 -18.41,-20.54 -29.04,-47.39 -31.17,-74.78 8.83,-0.01 17.67,-0.01 26.51,0 3.33,16.53 12.45,31.76 25.5,42.45 30.92,25.94 80.57,25.23 110.86,-1.4 12.3,-10.49 20.78,-25.2 23.83,-41.06 10.39,0.02 20.78,0 31.18,0.01 -2.69,36.61 -22,71.74 -51.92,93.09 -21.4,15.27 -49.08,20.59 -74.82,16.12 m 4.49,-71.6 c -20.11,-3.08 -38.15,-18.11 -43.83,-37.78 -3.94,-14.04 -2.45,-29.94 5.5,-42.36 8.39,-13.05 22.47,-22.2 37.73,-24.86 11.58,-2.03 23.82,-1.3 34.77,3.17 8.88,3.63 16.74,9.65 22.73,17.13 14.15,17.28 14.68,44.15 1.4,62.07 -5.88,7.92 -13.73,14.42 -22.74,18.44 -11.09,4.95 -23.64,6 -35.56,4.19 m -95.63,-61.48 c 2.33,-24.36 11.69,-48 26.9,-67.2 8.27,-0.16 16.58,0.37 24.83,-0.27 5.8,-0.67 6.8,-10.29 1.3,-12.12 -4.65,-1.19 -9.53,-0.36 -14.27,-0.61 8.2,-7.48 17.3,-14.05 27.36,-18.8 22.71,-10.86 49.61,-12.18 73.46,-4.34 14.43,4.64 27.21,13.18 38.5,23.15 -5.56,0.26 -11.23,-0.6 -16.69,0.54 -4.25,1.14 -4.92,6.96 -2.54,10.09 1.73,2.16 4.72,2.36 7.28,2.37 7.91,0.03 15.82,-0.06 23.73,0.03 15.62,18.94 24.77,42.78 26.79,67.17 -9.89,0.04 -19.78,0.04 -29.67,0 -1.19,-9.72 -4.08,-19.29 -8.95,-27.81 -8.95,-15.72 -23.73,-27.84 -40.56,-34.27 -15.36,-5.81 -32.32,-6.81 -48.42,-3.92 -20.45,3.75 -39.23,15.76 -51.26,32.71 -6.95,9.79 -11.12,21.41 -12.52,33.3 -8.42,0.02 -16.85,0.05 -25.27,-0.02 M 69.45,452.35 c 6.24,2.4 13.02,2.08 19.58,2.07 17.3,0 34.61,0 51.92,0 13.72,-0.04 27.52,0.4 41.14,-1.63 16.1,-2.02 31.61,-10.47 41.06,-23.82 9.09,-12.99 13.23,-29.19 12.41,-44.96 -0.48,-13.41 -4.12,-27.2 -12.82,-37.69 -10.81,-13.28 -27.19,-20.64 -43.55,-24.39 13.25,-7.58 23.05,-19.66 31.68,-31.97 9.64,-13.77 17.36,-28.81 23.78,-44.32 1.83,-4.63 3.63,-9.3 4.68,-14.18 1.53,-7.61 -2.77,-15.63 -9.36,-19.44 -6.12,-3.79 -14.04,-4.3 -20.72,-1.76 -6.5,2.77 -10.85,8.79 -14.39,14.66 -11.92,20.53 -22.84,41.63 -34.85,62.11 -6.1,9.84 -12.98,20.09 -23.63,25.42 -11.32,5.18 -24.08,3.48 -36.15,3.77 0,-26.07 0.01,-52.13 0,-78.2 -0.11,-7.85 -1.21,-16.43 -6.65,-22.51 -8.48,-9.98 -26.84,-9.03 -33.6,2.45 -3.78,5.95 -4.73,13.19 -4.75,20.1 0,60.98 0.01,121.95 0,182.93 -0.09,6.77 0.07,13.76 2.68,20.12 2.07,5.13 6.3,9.38 11.54,11.24 m 30.77,-34.89 c 0.02,-22.06 0,-44.12 0.01,-66.19 16.22,0.14 32.46,-0.28 48.67,0.25 11.49,0.92 24.21,2.33 33.03,10.54 7.09,6.52 8.69,16.85 7.99,26.01 -0.55,8.85 -4.82,17.59 -12.26,22.62 -8.22,6.09 -18.91,6.16 -28.67,6.69 -16.25,0.19 -32.51,0.03 -48.77,0.08 m 492.27,29.14 c 5.1,6.31 13.82,7.78 21.49,7.82 25.33,-0.02 50.66,0.05 75.99,-0.04 12.04,-0.35 24.41,-1.1 35.67,-5.74 12.4,-4.9 22.18,-15.07 28.3,-26.73 8.32,-16.19 9.2,-36.09 2.05,-52.85 -5.44,-12.75 -16.39,-22.31 -28.59,-28.44 13.26,-4.63 26.02,-12.32 34,-24.16 8.8,-12.9 10.92,-29.27 9.14,-44.51 -2.03,-18.57 -12.11,-36.36 -27.74,-46.78 -10.29,-6.91 -22.67,-9.79 -34.83,-11.11 -17.6,-1.95 -35.34,-1.12 -53.01,-1.3 -14.3,0.04 -28.61,-0.07 -42.91,0.05 -7.26,0.24 -15.34,2.18 -19.8,8.4 -4.48,6.28 -5.23,14.3 -5.33,21.79 -0.02,59.34 0.01,118.67 -0.01,178.01 -0.01,8.72 0.21,18.27 5.58,25.59 m 39.44,-29.14 c 0.02,-20.8 0,-41.6 0.01,-62.4 12.35,-0.05 24.7,-0.01 37.05,-0.02 9.35,-0.01 18.9,0.04 27.94,2.75 6.18,1.74 11.52,5.99 14.74,11.52 5.56,8.75 6.23,19.93 3.32,29.71 -1.76,5.8 -6.05,10.79 -11.66,13.16 -9.23,3.98 -19.43,4.82 -29.35,5.23 -14.02,0.13 -28.03,0.02 -42.05,0.05 m 0.01,-97.52 c -0.01,-23.42 -0.01,-46.84 0.01,-70.26 16.65,0.01 33.31,-0.04 49.97,0.02 11.44,0.3 23.76,1.99 32.92,9.46 7.38,5.92 10.59,15.61 10.68,24.82 0.42,10.08 -2.6,21.16 -11.06,27.39 -9.64,6.86 -21.92,8.28 -33.44,8.56 -16.36,0.07 -32.72,0.03 -49.08,0.01 m 474.1,131.01 c 6.85,4.35 15.27,3.38 23,3.47 44.65,0 89.29,0 133.94,0 5.07,-0.02 10.39,-0.78 14.73,-3.62 11.1,-7.3 11.07,-26.26 -0.07,-33.5 -4.32,-2.78 -9.6,-3.55 -14.64,-3.57 -16.3,-0.01 -32.61,0 -48.91,-0.01 0,-58.24 0,-116.49 0,-174.74 -0.01,-8.38 -1.17,-17.61 -7.13,-24.01 -4.95,-5.5 -12.99,-7.27 -20.05,-5.78 -6.79,1.31 -12.42,6.5 -15.07,12.77 -2.39,5.66 -2.83,11.9 -2.76,17.97 0.02,57.93 0.02,115.86 0,173.79 -16.01,0 -32.03,0.01 -48.04,0 -5.14,-0.02 -10.54,0.55 -14.98,3.35 -11.4,7.22 -11.7,26.79 -0.02,33.88 M 400.37,345.44 c 7.55,1.98 16.15,-4.47 15.45,-12.44 -0.12,-6.91 -7.24,-11.96 -13.84,-11.09 -5.87,0.27 -11.42,5.1 -11.5,11.16 -0.47,5.89 4.27,11.24 9.89,12.37 m 538.02,0.05 c 7.81,1.9 16.47,-5.19 15.11,-13.38 -0.78,-7.6 -9.57,-12 -16.48,-9.72 -5.81,1.4 -9.95,7.59 -8.61,13.5 0.9,4.86 5.19,8.71 9.98,9.6 z"
       style="fill:#0052ff;fill-opacity:1;fill-rule:nonzero;stroke:#0052ff;stroke-width:0.09375;stroke-linecap:butt;stroke-linejoin:miter;stroke-miterlimit:10;stroke-dasharray:none;stroke-opacity:1"
       id="path3682"
       inkscape:connector-curvature="0" /><path
       d="m 578.48,836.57 c 25.58,27.41 62.92,43.9 100.53,42.98 25.81,0.46 51.53,-7.49 73.23,-21.33 28.85,-18.4 50.41,-47.92 58.83,-81.12 9.24,-35.18 3.59,-73.84 -15.13,-105 -15.67,-25.79 -39.83,-46.4 -68.05,-57.21 -15.22,-5.77 -31.48,-9.28 -47.8,-8.92 -33.39,-1.13 -66.76,11.53 -91.81,33.47 -11.04,9.6 -20.4,21.04 -28.01,33.51 -12.28,21.16 -19.09,45.52 -18.93,70.02 -0.11,34.42 13.45,68.62 37.14,93.6 m 64.6,33.53 c -31.16,-8.54 -58.81,-28.97 -76.27,-56.15 -20.96,-32.01 -26.77,-73.26 -15.83,-109.9 9.58,-32.73 32.31,-61.39 62.07,-78.06 -31.05,20.89 -50.83,57.46 -50.83,94.94 -0.72,36.76 17.54,73.11 47.24,94.71 28,20.99 65.74,27.9 99.44,18.61 19.61,-5.31 37.73,-15.93 52.02,-30.36 23.09,-23.09 35.63,-56.25 33.41,-88.86 -1.86,-36.61 -22.58,-71.38 -53.48,-90.96 20.75,10.88 38.44,27.44 50.84,47.31 20.18,31.96 25.47,72.68 14.49,108.81 -8.97,30.08 -29.05,56.64 -55.47,73.57 -31.37,20.48 -71.59,26.44 -107.63,16.34 m 19.51,-38.96 c -10.74,-1.59 -21.27,-4.72 -31.07,-9.4 -27.34,-12.82 -48.9,-37.36 -57.99,-66.18 -7.79,-24.3 -6.85,-51.33 2.8,-74.97 11.3,-28.36 34.98,-51.42 63.6,-62.04 21.92,-8.24 46.48,-9.23 69,-2.79 31.62,8.8 58.57,32.62 71.3,62.86 9.34,21.69 11.24,46.4 5.75,69.33 -7.49,31.55 -29.72,59.12 -58.91,73.21 -19.83,9.74 -42.64,13.21 -64.48,9.98 m -512.62,43.84 c 11.72,2.11 25.01,0.33 33.97,-8.12 11.33,-10.2 15.21,-25.52 20.38,-39.28 18.84,-49.27 37.75,-98.51 56.63,-147.77 3.78,-10.12 8.31,-20.13 9.84,-30.92 1.99,-13.79 -7.66,-27.92 -20.97,-31.65 -11.87,-3.66 -26.08,1.63 -31.62,12.99 -7.66,14.86 -12.62,30.88 -18.41,46.51 -27.23,0.01 -54.46,0 -81.69,0.01 -4.31,-11.89 -8.24,-23.92 -12.88,-35.68 -2.52,-5.97 -4.96,-12.13 -9.03,-17.24 -5.35,-6.42 -14.36,-8.33 -22.34,-7.48 -9.65,0.98 -17.87,7.8 -22.49,16.05 -4.93,9.03 -3.27,20 0.32,29.19 20.66,55.59 41.26,111.2 62,166.76 4.06,10.11 7.24,20.67 12.96,30.03 5.08,8.38 13.54,14.96 23.33,16.6 m -11.14,-12.77 c -7.4,-6.4 -10.79,-15.96 -14.28,-24.8 C 102.93,780.24 81.93,722.84 60.52,665.6 c -2.65,-7.28 -5.98,-14.7 -5.22,-22.64 0.44,-6.52 4.72,-12.04 9.73,-15.9 5.97,-4.59 14.46,-5.09 21.27,-2.22 5.55,2.45 7.84,8.51 10.29,13.6 6.33,14.76 11.08,30.13 16.59,45.2 30.49,0.04 60.98,0.01 91.47,0.02 6.32,-16.84 11.49,-34.19 19.7,-50.25 3.24,-6.49 10.44,-10.62 17.66,-10.31 10.2,-0.25 19.35,7.81 21.58,17.55 1.68,7.96 -1.54,15.81 -3.98,23.26 -9.81,25.73 -19.71,51.43 -29.56,77.15 -12.92,34.08 -26.36,67.96 -38.83,102.2 -4.13,10.11 -10.62,20.75 -21.68,24.13 -10.22,2.75 -22.47,2.17 -30.71,-5.18 m 878.73,12.9 c 8.6,1.72 18.15,0.2 25.06,-5.43 5.56,-4.3 8.95,-10.86 10.42,-17.64 1.6,-6.88 1.22,-13.99 1.26,-21.01 -0.01,-35.66 0,-71.33 -0.01,-106.99 -0.14,-17.61 -1.54,-35.47 -7.15,-52.27 -8.51,-24.61 -29.94,-44.01 -54.92,-50.98 -17.27,-4.96 -35.49,-5.29 -53.29,-3.96 -16.28,1.4 -32.8,4.79 -47.11,13 -15.1,8.65 -26.56,23.02 -32.57,39.28 -6.75,18.12 -8.43,37.68 -8.48,56.88 0,34.33 0,68.66 0,102.99 0.09,9.05 -0.65,18.38 2.32,27.1 1.97,6.21 6.08,11.71 11.57,15.24 6.83,4.47 15.56,5.42 23.41,3.57 8.29,-1.92 15.47,-7.98 18.84,-15.8 2.78,-6.29 3.5,-13.28 3.49,-20.1 -0.01,-37.64 0,-75.28 -0.01,-112.92 -0.08,-11.48 0.52,-23.15 3.96,-34.19 2.13,-7.34 6.82,-14.02 13.43,-17.97 9.04,-5.27 19.94,-5.73 30.14,-5.25 10.05,0.58 21.03,3.66 27.16,12.24 7.78,10.99 9.17,25 9.56,38.07 0.09,40.69 -0.01,81.38 0.05,122.06 0.15,8.5 1.78,17.43 7.04,24.33 3.86,5.04 9.62,8.51 15.83,9.75 M 874.57,868.2 c -5.2,-1.27 -9.8,-4.69 -12.6,-9.24 -3.44,-5.67 -4.23,-12.49 -4.3,-19 0,-37.98 0,-75.96 0,-113.94 -0.01,-11.75 0.72,-23.53 2.81,-35.11 2.76,-15.6 8.54,-31.22 19.6,-42.89 9.33,-10.42 22.27,-16.96 35.69,-20.38 15.39,-4.02 31.42,-4.91 47.26,-4.39 15.79,0.69 31.9,3.84 45.59,12.09 15.29,9.26 27.6,23.91 32.76,41.15 5.02,16.64 6.06,34.17 5.96,51.45 0,34.35 0,68.7 0,103.05 -0.01,9.42 0.74,19.61 -4.36,28.01 -7.11,12.12 -26.65,13.35 -35.47,2.55 -5,-6.32 -5.93,-14.75 -5.96,-22.55 0.01,-30.65 0,-61.3 0,-91.95 -0.11,-11.31 0.24,-22.63 -0.21,-33.93 -0.9,-13.57 -3.48,-28.06 -12.62,-38.69 -8.35,-9.55 -21.6,-12.56 -33.78,-12.84 -10.08,-0.15 -20.62,0.82 -29.62,5.75 -8.58,4.68 -14.81,13.05 -17.55,22.37 -5.37,16.88 -4.19,34.8 -4.32,52.25 -0.01,32.99 0.01,65.98 -0.01,98.97 -0.14,7.8 -1.59,16.39 -7.48,22.01 -5.51,5.5 -14,6.98 -21.39,5.26 M 317.7,862.3 c 6.32,7.01 16.18,9.3 25.28,9.45 20.69,0.05 41.38,0.01 62.07,0.02 16.4,0 33.14,0.46 49.09,-4 10.8,-3.03 20.75,-8.98 28.32,-17.29 13.66,-14.31 20.25,-34.94 17.56,-54.53 -1.75,-16.8 -11.25,-32.31 -25.03,-41.97 13.01,-6.53 24.44,-16.93 30.35,-30.41 6.94,-15.82 7.28,-34.1 2.77,-50.64 -5.48,-19.31 -19.53,-36.23 -38.02,-44.31 -16.06,-6.93 -33.83,-7.98 -51.09,-8.41 -24.67,-0.11 -49.34,-0.01 -74.01,-0.05 -9.3,-0.08 -19.46,1.74 -26.23,8.64 -6.99,7.13 -8.82,17.61 -8.89,27.23 0,60 0,120 0.01,180.01 0.09,9.18 1.64,19.07 7.82,26.26 m 5.33,-4.4 c -6.25,-7.4 -6.33,-17.74 -6.25,-26.93 0,-57.32 0.01,-114.64 0,-171.96 -0.07,-8.35 0.48,-17.55 5.96,-24.32 5.4,-6.38 14.37,-7.66 22.27,-7.58 25,0.04 50,-0.07 75,0.05 16.65,0.48 33.92,1.48 49.23,8.68 18.18,8.79 31,27.14 33.98,47 2.38,15.8 0.44,33.06 -9.02,46.35 -8.19,11.72 -21.1,19.1 -34.37,23.68 9.14,4.77 17.86,10.87 23.91,19.37 7.51,10.22 10.45,23.23 9.84,35.77 -0.91,19.35 -11.96,37.96 -28.66,47.83 -13.28,7.58 -28.97,8.68 -43.93,8.99 -24.67,0.08 -49.35,0 -74.02,0.04 -8.33,0.14 -17.81,-0.63 -23.94,-6.97 m 774.71,8.38 c 6.95,5.08 15.9,5.79 24.23,5.5 46.67,-0.01 93.33,-0.01 139.99,0 7.96,0.11 16.46,-1.54 22.52,-7.04 11.2,-9.88 11.31,-29.5 0.29,-39.54 -5.79,-5.45 -14.02,-7.28 -21.75,-7.29 -14.41,-0.01 -28.82,0.01 -43.22,-0.01 0,-54.96 -0.01,-109.93 0,-164.89 0.08,-9.66 -1.66,-20.05 -8.24,-27.52 -10.28,-12.17 -31.1,-12.45 -41.98,-0.96 -6.75,6.59 -9.15,16.3 -9.36,25.45 -0.1,55.97 -0.01,111.95 -0.04,167.92 -14.73,0.02 -29.45,-0.03 -44.17,0.03 -7.41,0.12 -15.25,2.04 -20.66,7.4 -11.48,10.62 -10.72,31.95 2.39,40.95 m 4.4,-5.34 c -10.47,-6.84 -10.52,-24.18 -0.79,-31.68 4.38,-3.49 10.19,-4.35 15.63,-4.43 16.7,-0.02 33.4,0.01 50.11,-0.01 0.02,-54.29 0,-108.57 0.01,-162.86 0.11,-7.93 -0.67,-16.13 1.98,-23.76 2.32,-7.17 8.49,-13.14 15.96,-14.62 7,-1.38 14.94,0 20.11,5.21 6.17,5.94 7.65,14.97 7.72,23.17 0.02,57.62 0,115.24 0.01,172.86 16.38,0 32.77,0.01 49.16,0 5.32,0.01 10.91,0.66 15.52,3.55 10.69,6.64 11.31,24.11 1.56,31.85 -4.52,3.61 -10.5,4.61 -16.13,4.64 -48.34,0.02 -96.67,-0.01 -145.01,0.01 -5.48,0.05 -11.23,-0.79 -15.84,-3.93 M 633.4,858.49 c 33.66,12.78 72.73,10.41 104.52,-6.54 31.82,-16.58 55.99,-47.14 64.56,-82 6.98,-27.11 4.31,-56.28 -6.4,-82.06 0.8,3.43 2.08,6.71 3.07,10.08 7.5,25.82 6.5,54.06 -3.03,79.21 -11.13,29.95 -34.25,55.17 -63.07,68.95 -33.37,16.26 -74.04,16.47 -107.58,0.54 -28.5,-13.28 -51.61,-37.69 -63.23,-66.92 -9.13,-22.58 -11.32,-47.83 -6.5,-71.68 2.15,-11.27 6.29,-22.04 11.19,-32.37 -19.29,33.73 -21.84,76.37 -6.71,112.16 13.31,32.26 40.45,58.48 73.18,70.63 m 22.64,-9.41 c 21.14,3.92 43.37,2.09 63.49,-5.56 36.49,-13.57 65.53,-46.37 73.31,-84.65 -8.95,33.38 -33.95,61.74 -65.38,75.84 -32.54,14.81 -71.79,13.78 -103.44,-2.87 -30.92,-15.87 -54.14,-45.93 -61.41,-79.94 -1.02,-5.24 -2.29,-10.54 -1.99,-15.93 0.1,-1.86 -1.35,-3.31 -1.64,-5.11 0.47,3.37 1.05,6.74 1.13,10.14 1.91,31.83 17.64,62.4 42.17,82.7 15.36,12.87 34.06,21.7 53.76,25.38 M 362.56,828.55 c 13.48,-0.02 26.96,0.06 40.44,-0.05 10.66,-0.28 21.59,-0.98 31.61,-4.94 5.43,-2.09 9.92,-6.46 11.97,-11.93 4.56,-12.26 2.09,-27.45 -7.83,-36.42 -7.56,-6.62 -18.16,-7.38 -27.73,-7.99 -16.16,-0.3 -32.31,-0.06 -48.47,-0.13 0.01,20.49 0,40.97 0.01,61.46 m 6.93,-6.96 c 0.02,-15.88 -0.04,-31.76 0.03,-47.63 14.16,0.16 28.33,-0.23 42.48,0.22 7.47,0.65 15.79,1 21.87,5.95 8.04,7.08 9.83,19.29 6.24,29.06 -1.43,3.88 -4.77,6.8 -8.63,8.16 -9.69,3.6 -20.18,4.06 -30.42,4.24 -10.52,0.02 -21.05,0 -31.57,0 m 293.1,4.68 c 28.4,5.23 58.88,-3.98 79.7,-23.96 13.24,-10.82 24.05,-24.71 30.64,-40.53 9.16,-21.56 10.49,-46.3 3.9,-68.76 -8.62,-30.01 -31.81,-55.32 -60.92,-66.59 -24.66,-9.77 -53.13,-9.41 -77.53,1.01 -28.58,11.94 -50.98,37.52 -58.99,67.45 -5.9,21.72 -4.52,45.4 4.16,66.19 7.06,17.26 19.05,32.36 33.98,43.5 12.7,11.12 28.41,18.8 45.06,21.69 m -8.29,-9.48 c -11.48,-5 -21.31,-13.69 -27.68,-24.48 -7.44,-12.39 -10.07,-27.55 -7.35,-41.73 -1.48,19.75 7.74,39.83 23.71,51.53 10.83,8.15 24.54,12.37 38.08,11.68 16.6,-0.59 32.68,-8.75 43.13,-21.63 9.57,-11.47 14.24,-26.65 13.34,-41.51 2.48,13.36 0.34,27.57 -6.18,39.52 -6.23,11.63 -16.42,21.09 -28.48,26.44 -15.2,6.85 -33.32,6.93 -48.57,0.18 m -21.05,-36.06 c -6.69,-11.37 -8.48,-25.28 -5.65,-38.1 -0.64,12.89 3.32,26.04 11.69,35.97 9.77,11.99 25.23,19.07 40.71,18.57 14.44,-0.29 28.57,-7.12 37.8,-18.24 8.53,-9.98 12.68,-23.32 11.91,-36.38 4.4,18.31 -1.88,38.69 -16.08,51.11 -10.9,9.89 -26.12,14.76 -40.74,13.03 -16.36,-1.64 -31.54,-11.68 -39.64,-25.96 m 6.76,-14.82 c -5.28,-9.78 -5.7,-21.35 -3.46,-32.05 -0.27,9.61 1.45,19.53 6.94,27.61 8.14,12.63 23.45,20.16 38.43,18.71 12.9,-0.98 25.01,-8.46 31.81,-19.45 5.7,-8.87 7.34,-19.81 5.73,-30.14 4.95,13.81 2.96,30.04 -6.11,41.71 -8.74,11.74 -23.71,18.47 -38.3,17.11 -14.7,-1.1 -28.42,-10.33 -35.04,-23.5 M 612.2,723.29 c 5.51,-15 16.31,-27.98 30.03,-36.17 14.78,-8.96 32.92,-12.13 49.88,-8.82 15.55,2.95 29.99,11.33 40.28,23.36 11.95,13.72 18.18,32.19 17.07,50.34 -0.64,12.3 -4.77,24.27 -11.3,34.66 6.69,-13.4 9.59,-28.83 6.83,-43.66 -2.77,-16.44 -12.03,-31.63 -25.26,-41.74 -11.81,-9.17 -26.75,-14.15 -41.69,-13.94 -15.55,0.06 -30.98,5.8 -42.81,15.89 -12.76,10.7 -21.31,26.3 -23.32,42.85 -1.87,13.81 0.93,28.03 7.3,40.37 -12.17,-18.35 -14.78,-42.55 -7.01,-63.14 m -4.68,-30.83 c 9.19,-15.19 23.35,-27.35 39.85,-33.95 18.87,-7.71 40.64,-8.01 59.74,-0.89 15.72,5.77 29.56,16.51 39.13,30.24 9.85,13.98 15.12,31.09 14.89,48.18 -0.04,15.62 -4.83,31.07 -13.17,44.23 1.16,-3.53 2.84,-6.87 3.9,-10.45 5.06,-15.55 4.96,-32.71 -0.24,-48.21 -5.66,-17.11 -17.57,-32.03 -32.96,-41.39 -15.58,-9.63 -34.67,-13.32 -52.73,-10.34 -14.28,2.31 -27.86,8.74 -38.67,18.36 -13.61,11.94 -22.77,28.83 -25.3,46.76 -2.3,15.47 0.39,31.5 7.21,45.53 -17.49,-25.77 -17.99,-61.62 -1.65,-88.07 M 584,708.04 c 5.69,-31.01 27.81,-58.29 56.85,-70.47 22.62,-9.73 49.02,-10.26 72.02,-1.47 29.78,11.06 53.09,37.81 59.86,68.87 5.1,22.26 1.88,46.22 -8.74,66.42 2.23,-6.56 4.59,-13.1 5.68,-19.97 3.62,-20.21 0.27,-41.6 -9.48,-59.68 -9.47,-17.8 -24.95,-32.34 -43.33,-40.63 -17.06,-7.82 -36.55,-10.11 -54.99,-6.7 -16.28,2.93 -31.68,10.46 -44.09,21.39 -15.41,13.43 -26.15,32.12 -29.88,52.23 -3.53,18.14 -1.18,37.16 5.92,54.16 -10.48,-19.44 -14.04,-42.47 -9.82,-64.15 m 63.69,47.38 c -6.11,-9.08 -7.63,-20.97 -4.3,-31.36 2.22,-7.44 7.3,-13.54 13.02,-18.61 1.15,-0.59 1.88,0.82 2.66,1.38 0.58,-0.42 1.73,-1.26 2.31,-1.68 -6.18,4.88 -8.33,13.41 -7.07,20.94 1.31,8.07 7.02,15.21 14.56,18.35 7.91,3.44 17.62,2.2 24.4,-3.15 6.81,-5.12 10.48,-14 9.34,-22.44 -0.59,-5.3 -3.22,-10.14 -6.69,-14.12 5.43,4.59 9.23,11.15 10.01,18.25 1.21,9.28 -2.77,18.99 -10.06,24.83 -10.45,8.89 -27.37,8.05 -36.95,-1.75 -10.54,-9.92 -11.08,-28.21 -0.88,-38.57 -1.53,-0.68 -3.14,0.09 -4.17,1.26 -7.5,8.31 -10.13,20.61 -6.85,31.29 3.89,13.76 17.59,23.96 31.93,23.54 14.51,0.2 28.14,-10.48 31.67,-24.51 2.96,-10.35 -0.07,-21.51 -6.42,-29.97 7.27,7.25 11.42,17.54 10.86,27.82 -0.39,10.78 -5.92,21.21 -14.56,27.65 -7.75,5.94 -17.96,8.5 -27.61,7 -10.19,-1.46 -19.61,-7.51 -25.2,-16.15 m 12.26,-36.4 c 0.1,-4.57 2.33,-8.72 5.19,-12.17 -3.52,6.23 -3.26,14.73 2.07,19.87 5.64,6.05 16.07,6.25 21.94,0.4 5.67,-5.09 6.21,-14.05 2.31,-20.38 5.27,5.52 7.04,14.21 3.56,21.13 -3.52,7.78 -12.9,12.2 -21.15,9.95 -8.32,-1.95 -14.5,-10.26 -13.92,-18.8 m 9.87,0.07 c -3.63,-4.33 -2.65,-10.78 0.9,-14.84 -0.63,2.84 -1.17,6.05 0.64,8.6 2.58,4.45 9.44,5.18 12.92,1.4 2.76,-2.54 2.63,-6.57 1.88,-9.94 3.38,4.09 4.39,10.43 0.81,14.72 -3.96,5.56 -13.15,5.58 -17.15,0.06 m 6.68,-8.84 c -3.13,-1.48 -3.31,-6.43 -0.22,-8.09 2.82,-1.94 7.07,0.43 7.07,3.81 0.25,3.42 -3.87,6.06 -6.85,4.28 m -551.32,9.73 c 10.97,32.72 22.19,65.36 33.11,98.1 11.44,-32.68 22.74,-65.4 34.1,-98.11 -22.4,0 -44.81,-0.02 -67.21,0.01 m 9.64,6.95 c 15.94,0 31.89,-0.01 47.84,0 -8.1,23.26 -16.13,46.55 -24.26,69.79 -7.8,-23.28 -15.75,-46.52 -23.58,-69.79 m 227.74,5.62 c 16.81,0 33.63,0.03 50.44,-0.01 10.98,-0.32 22.49,-1.63 32.05,-7.45 7.58,-4.62 11.85,-13.3 12.5,-21.97 1.02,-10.19 -1.06,-21.56 -8.85,-28.8 -9.01,-8.41 -21.91,-10.41 -33.76,-10.85 -17.46,-0.1 -34.92,-0.02 -52.38,-0.04 -0.01,23.04 -0.01,46.08 0,69.12 m 6.93,-6.91 c 0,-18.43 0,-36.86 0,-55.29 15.4,0.03 30.8,-0.1 46.2,0.07 9.6,0.49 19.99,1.89 27.6,8.3 6.91,5.92 8.27,15.8 7.31,24.36 -0.58,6.66 -3.99,13.3 -9.97,16.6 -8.4,4.68 -18.25,5.63 -27.69,5.93 -14.48,0.08 -28.97,0.02 -43.45,0.03 m 205.08,-140.4 c 11.18,1.57 22.93,1.1 33.54,-3.03 8.57,-3.33 16.24,-9.76 19.64,-18.47 3.68,-9.41 3.52,-20.41 -0.69,-29.63 -4.64,-9.96 -14.56,-16.57 -25.03,-19.09 -9.53,-2.24 -19.55,-2.35 -29.17,-0.63 -10.08,1.87 -20.07,6.89 -25.8,15.66 -8.98,13.68 -7.45,33.93 4.96,45.06 6.16,5.75 14.34,8.8 22.55,10.13 m 2,-4.02 c -8.95,-1.18 -18.02,-4.64 -24.01,-11.64 -8.84,-10.3 -9.18,-26.49 -1.66,-37.61 4.28,-6.3 11.22,-10.34 18.45,-12.37 9.03,-2.49 18.61,-2.68 27.84,-1.25 8.5,1.37 16.94,5.2 22.48,11.97 6.51,7.9 7.77,19.12 5.19,28.79 -1.97,7.55 -7.55,13.79 -14.41,17.33 -10.34,5.41 -22.49,6.09 -33.88,4.78 m 66.92,4.04 c 4.95,1.61 11.06,0.95 14.81,-2.92 2.13,-2.21 2.93,-5.35 2.9,-8.35 0.04,-10.33 -0.03,-20.66 0.02,-31 0.03,-3.72 0.89,-8.35 4.86,-9.78 5.33,-1.9 11.39,-1.83 16.8,-0.28 3.92,1.1 5.49,5.44 5.49,9.14 0.13,10.96 -0.05,21.92 0.08,32.88 0.04,3.98 2.21,7.98 5.9,9.69 4.55,2.13 10.31,1.96 14.58,-0.8 3.23,-2.08 4.79,-6.02 4.69,-9.77 0,-10.38 0.03,-20.76 -0.01,-31.14 -0.08,-7.48 -2.01,-15.56 -7.94,-20.6 -8.77,-8.02 -21.31,-9.43 -32.69,-9.07 -10.08,0.36 -21.16,1.69 -28.9,8.83 -6.09,5.49 -8.13,14.04 -8.09,21.96 0.03,10.34 -0.07,20.68 0.05,31.01 -0.04,4.58 3.1,8.82 7.45,10.2 m 1.93,-3.86 c -2.9,-0.69 -5.18,-3.34 -5.11,-6.37 -0.21,-9 -0.01,-18.01 -0.09,-27.02 -0.15,-7.35 0.26,-15.53 5.35,-21.35 6.33,-7.16 16.49,-8.57 25.51,-9.07 10.85,-0.47 23.01,0.18 31.57,7.72 5.45,4.51 6.72,12 6.73,18.68 -0.04,10.35 0.11,20.7 -0.07,31.04 -0.04,8.6 -15.22,9.31 -16.48,1.04 -0.44,-11.37 0.02,-22.77 -0.21,-34.16 -0.12,-4.24 -1.54,-8.84 -5.16,-11.39 -3.91,-2.64 -8.83,-2.97 -13.4,-2.95 -4.66,0.11 -9.78,0.77 -13.3,4.12 -3.24,3.17 -3.76,8.01 -3.81,12.3 -0.01,9.67 0,19.35 0.01,29.03 -0.02,2.16 -0.09,4.55 -1.62,6.26 -2.49,2.64 -6.58,2.96 -9.92,2.12 m 81.44,0.74 c 3.11,2.52 7.28,2.89 11.14,2.88 9.67,-0.03 19.35,0.03 29.02,-0.03 8.2,-0.04 16.99,-1.03 23.68,-6.23 6.62,-4.94 9.53,-14.28 6.44,-22.02 -2.12,-5.82 -7.57,-9.53 -13.1,-11.73 6.11,-5.25 11.4,-11.59 14.93,-18.87 1.78,-3.33 0.65,-7.6 -2.27,-9.88 -5.71,-4.55 -14.97,-4.03 -19.89,1.47 -5.76,6.28 -10.37,13.56 -16.38,19.61 -3.15,3.37 -7.95,3.66 -12.26,3.61 -0.08,-5.64 0.09,-11.29 -0.07,-16.93 -0.06,-4.39 -3.03,-8.47 -7.18,-9.9 -4.97,-1.69 -11.26,-1.19 -15.03,2.79 -2.34,2.4 -3.06,5.86 -2.96,9.11 0.02,15.67 -0.01,31.34 0.02,47.01 -0.07,3.4 1.12,6.99 3.91,9.11 m 2.52,-3.44 c -2.01,-1.59 -2.21,-4.31 -2.17,-6.68 0.07,-15.99 -0.09,-32 0.08,-48 0.26,-8.48 15.18,-8.94 16.45,-0.8 0.37,7.3 0.05,14.62 0.15,21.93 5.79,-0.05 12.28,0.7 17.26,-2.94 5.03,-3.69 8.36,-9.1 12.35,-13.8 2.9,-3.35 5.2,-7.43 9.05,-9.82 4.05,-1.98 10.07,-1.56 12.73,2.47 0.97,2.31 -0.81,4.46 -1.8,6.41 -4.97,7.87 -11.44,15.43 -20.2,19.11 6.04,1.18 12.49,2.76 17.01,7.22 5.02,4.96 5,13.64 0.51,18.94 -4.75,5.8 -12.66,7.57 -19.82,7.85 -10.65,0.38 -21.32,0.08 -31.98,0.19 -3.25,-0.08 -6.94,0.11 -9.62,-2.08 m -148.87,-7.41 c 9.23,1.48 20.34,-0.87 25.55,-9.34 5.66,-9.78 3.86,-24.5 -6.25,-30.72 -8.29,-4.81 -19.37,-5.04 -27.66,-0.14 -10.17,6.04 -12.17,20.63 -6.71,30.48 2.98,5.56 9.02,8.73 15.07,9.72 m -2.05,-4.83 c -12.73,-2.95 -15.37,-21.24 -6.74,-29.71 5.65,-5.33 14.32,-5.86 21.49,-3.86 5.21,1.43 9.57,5.64 10.95,10.89 1.68,6.68 0.86,14.97 -4.87,19.52 -5.83,4.46 -13.93,5.03 -20.83,3.16 m 165.44,4.76 c 6.34,-0.03 12.68,0.06 19.03,-0.06 3.92,-0.15 8.2,-0.29 11.45,-2.8 3.59,-2.44 3.83,-8.49 0.26,-11.06 -3.07,-2.22 -7.01,-2.56 -10.66,-2.91 -6.7,-0.35 -13.4,-0.11 -20.1,-0.17 0.02,5.67 0,11.33 0.02,17 m 4.25,-4.26 c 0,-2.83 0,-5.66 0.01,-8.5 6.92,0.17 13.94,-0.52 20.77,0.92 1.72,0.44 4.37,1.24 3.98,3.55 -0.15,2.41 -3.02,3.21 -4.98,3.59 -6.56,0.78 -13.19,0.32 -19.78,0.44 m -363,-100.62 c 24.88,4.09 51.31,0.47 73.46,-11.86 23.67,-13.21 42.31,-34.61 53.97,-58.93 6.51,-13.74 10.53,-28.59 12.33,-43.68 7.54,-0.44 15.68,1.37 22.69,-2.24 5.37,-2.71 8.2,-8.79 8.19,-14.64 0.35,-6.41 -2.1,-13.53 -7.99,-16.78 -6.97,-3.92 -15.29,-2.01 -22.9,-2.48 -2.26,-19.38 -8.5,-38.37 -18.86,-54.95 11.01,-0.01 22.03,0.03 33.04,-0.01 4.54,0.07 9.4,-1.95 11.54,-6.15 2.64,-5.23 1.72,-12.51 -3.05,-16.23 -2.7,-2.17 -6.26,-2.87 -9.65,-2.87 -17.53,0 -35.07,0 -52.6,0.01 -9.81,-9.6 -21.05,-17.82 -33.54,-23.58 -22.5,-10.45 -48.51,-12.84 -72.65,-7.36 -20.76,4.67 -39.62,16.02 -54.66,30.92 -16.15,0.02 -32.31,0.03 -48.47,0 -3.27,-0.04 -6.72,0.14 -9.6,1.86 -7.21,4.01 -8,15.71 -1.47,20.69 2.81,2.23 6.52,2.79 10.01,2.73 9.74,0 19.49,-0.01 29.23,0 -10.28,16.65 -16.9,35.52 -19.29,54.95 -7.96,0.29 -17.3,-1.55 -23.72,4.43 -7.99,7.82 -7.39,24.14 3.1,29.58 6.37,3.24 13.73,1.8 20.58,2.12 2.94,27.03 13.72,53.3 31.64,73.85 -1.57,5.82 -0.14,12.35 4.13,16.68 4.78,5.36 12.54,7.24 19.41,5.57 13.55,9.17 28.95,15.72 45.13,18.37 m 3.72,-5.65 c -17.33,-2.37 -33.82,-9.46 -47.99,-19.63 -4.83,2.2 -10.97,1.72 -14.91,-2.01 -4.26,-3.43 -5.12,-9.83 -2.24,-14.42 -19.91,-21.39 -31.25,-49.9 -33.33,-78.92 -5.47,-0.01 -10.95,0.05 -16.42,-0.01 -3.56,0.02 -7.56,-0.82 -9.84,-3.82 -2.7,-3.77 -2.6,-8.89 -1.36,-13.19 1.16,-4 5.19,-6.49 9.21,-6.69 6.14,-0.3 12.29,0 18.43,-0.13 1.93,-24.2 10.84,-47.73 25.29,-67.22 -13.93,-0.01 -27.87,0.05 -41.8,-0.02 -3.38,0.24 -7.38,-1.78 -7.24,-5.64 -0.62,-3.8 2.44,-7.46 6.35,-7.27 17.9,-0.21 35.82,0.09 53.73,-0.14 1.62,-0.92 2.77,-2.49 4.17,-3.73 12.46,-11.83 27.54,-21.09 44.12,-25.85 20.48,-5.89 42.73,-5.45 63,1.12 16.97,5.52 32.22,15.7 44.59,28.48 18.45,0.14 36.9,0.01 55.35,0.06 2.2,0.05 4.68,0.33 6.3,2.01 3.23,3.46 1.69,10.73 -3.68,10.83 -15.4,0.36 -30.83,0.06 -46.25,0.15 14.84,19.27 23.12,43.09 25.01,67.24 6.56,0.06 13.13,-0.12 19.69,0.06 4.05,0.08 8.29,2.32 9.64,6.33 1.38,4.1 1.49,8.91 -0.64,12.77 -2.01,3.43 -6.22,4.66 -9.97,4.64 -6.23,0.07 -12.46,0.03 -18.68,0 -1.25,13.51 -4.03,26.95 -9.07,39.58 -10.09,25.26 -28.07,47.66 -51.36,61.91 -20.8,12.68 -46.13,16.86 -70.1,13.51 m 530.02,4.9 c 28.69,5.82 59.89,0.98 84.46,-15.3 33.07,-21.88 55.09,-59.08 59.31,-98.42 7.98,-0.47 16.89,1.63 24,-3.03 7.07,-4.64 8.14,-14.43 5.82,-21.94 -1.78,-5.94 -7.37,-10.22 -13.47,-10.89 -5.44,-0.56 -10.91,-0.14 -16.36,-0.28 -2.26,-19.38 -8.51,-38.36 -18.85,-54.94 11.07,-0.02 22.14,0.03 33.22,-0.03 3.9,-0.01 8.01,-1.44 10.41,-4.68 2.96,-4 3.06,-9.73 0.88,-14.12 -2.12,-4.14 -6.83,-6.33 -11.34,-6.39 -17.9,-0.15 -35.81,0.07 -53.71,-0.11 -9.49,-8.69 -19.73,-16.8 -31.41,-22.41 -22.95,-11.34 -49.85,-14.12 -74.77,-8.51 -20.82,4.66 -39.77,16 -54.84,30.97 -16.74,0.03 -33.48,0 -50.22,0.01 -2.72,0.03 -5.49,0.45 -7.85,1.84 -7.32,4.05 -8.04,16.03 -1.23,20.89 2.57,1.91 5.86,2.54 9.01,2.53 9.99,0.02 19.98,0 29.97,0 -10.28,16.66 -16.91,35.53 -19.29,54.96 -7.3,0.33 -15.43,-1.34 -21.88,2.99 -6.84,4.49 -8.3,13.83 -6.46,21.28 1.32,5.56 6.02,9.96 11.56,11.17 5.49,1.23 11.17,0.49 16.74,0.69 2.93,27.04 13.73,53.29 31.64,73.86 -1.59,5.89 -0.09,12.5 4.27,16.82 4.78,5.25 12.45,7.08 19.25,5.41 12.44,8.39 26.4,14.65 41.14,17.63 m 2,-5.88 c -15.24,-2.96 -29.63,-9.59 -42.21,-18.64 -4.57,1.99 -10.25,1.85 -14.22,-1.39 -4.76,-3.33 -6.14,-10.17 -2.97,-15.07 -19.94,-21.37 -31.25,-49.88 -33.34,-78.89 -4.72,-0.01 -9.44,0 -14.16,0.01 -3.79,0.05 -8.03,-0.04 -11.03,-2.71 -3.77,-3.47 -3.73,-9.31 -2.56,-13.93 1.07,-4.27 5.32,-6.98 9.59,-7.12 6.04,-0.23 12.1,0 18.16,-0.09 1.98,-24.2 10.81,-47.78 25.36,-67.24 -13.83,0.02 -27.65,0.03 -41.47,0.01 -2.52,-0.02 -5.58,-0.47 -6.88,-2.92 -1.5,-3.03 -0.93,-7.66 2.42,-9.24 2.62,-1.19 5.59,-0.75 8.4,-0.85 16.24,0.03 32.49,0.01 48.74,0.01 12.67,-12.86 28.04,-23.35 45.34,-28.82 21.21,-6.76 44.52,-6.56 65.68,0.27 17.03,5.51 32.27,15.77 44.72,28.54 19.17,0.15 38.35,-0.22 57.51,0.18 5.43,0.12 7.51,7.54 4.05,11.15 -1.93,1.71 -4.64,1.67 -7.03,1.7 -14.3,-0.02 -28.59,-0.01 -42.88,-0.01 14.8,19.27 23.15,43.06 24.97,67.2 6.31,0.09 12.63,-0.04 18.95,0.04 3.82,0.01 8,1.55 9.85,5.13 1.9,3.88 2.02,8.6 0.6,12.65 -1.4,3.83 -5.53,5.83 -9.4,5.94 -6.65,0.23 -13.3,0.04 -19.93,0.08 -1.14,11.98 -3.39,23.89 -7.45,35.24 -9.36,26.3 -27.32,49.7 -50.81,64.9 -22.84,14.72 -51.52,19.03 -78,13.87 M 56.86,452.15 c 6.3,6.95 16.1,9.19 25.13,9.22 24.66,0.01 49.31,0 73.97,0 10.08,0.01 20.19,-0.51 30.15,-2.16 17.6,-3 34.2,-13.03 44.02,-28.09 9.75,-14.96 13.78,-33.32 12.19,-51.04 -1.04,-14.88 -6.18,-29.9 -16.53,-40.9 -8.36,-9.21 -19.39,-15.59 -30.95,-19.9 12.95,-11.56 22.86,-26.08 31.65,-40.93 7.51,-13.65 14.59,-27.7 19.01,-42.69 2.51,-7.74 0.66,-16.45 -4.29,-22.83 -9.6,-12.78 -30.48,-15.07 -42.31,-4.14 -6.09,5.27 -9.96,12.45 -13.9,19.34 -9.42,16.91 -18.73,33.89 -28.2,50.77 -5.88,9.71 -11.78,20.19 -21.64,26.4 -8.47,4.82 -18.59,3.97 -27.97,4.04 -0.01,-24.08 0.03,-48.16 -0.02,-72.23 -0.13,-9.39 -2.09,-19.46 -8.73,-26.53 -10.78,-12.21 -32.81,-11.71 -42.68,1.4 -5.82,7.33 -7.49,17 -7.52,26.13 0,62.34 -0.01,124.69 0.01,187.04 0.06,9.55 1.77,19.93 8.61,27.1 m 12.59,0.2 c -5.24,-1.86 -9.47,-6.11 -11.54,-11.24 -2.61,-6.36 -2.77,-13.35 -2.68,-20.12 0.01,-60.98 0,-121.95 0,-182.93 0.02,-6.91 0.97,-14.15 4.75,-20.1 6.76,-11.48 25.12,-12.43 33.6,-2.45 5.44,6.08 6.54,14.66 6.65,22.51 0.01,26.07 0,52.13 0,78.2 12.07,-0.29 24.83,1.41 36.15,-3.77 10.65,-5.33 17.53,-15.58 23.63,-25.42 12.01,-20.48 22.93,-41.58 34.85,-62.11 3.54,-5.87 7.89,-11.89 14.39,-14.66 6.68,-2.54 14.6,-2.03 20.72,1.76 6.59,3.81 10.89,11.83 9.36,19.44 -1.05,4.88 -2.85,9.55 -4.68,14.18 -6.42,15.51 -14.14,30.55 -23.78,44.32 -8.63,12.31 -18.43,24.39 -31.68,31.97 16.36,3.75 32.74,11.11 43.55,24.39 8.7,10.49 12.34,24.28 12.82,37.69 0.82,15.77 -3.32,31.97 -12.41,44.96 -9.45,13.35 -24.96,21.8 -41.06,23.82 -13.62,2.03 -27.42,1.59 -41.14,1.63 -17.31,0 -34.62,0 -51.92,0 -6.56,0.01 -13.34,0.33 -19.58,-2.07 m 517.64,-1.36 c 6.15,7.72 16.55,10.29 26.01,10.37 25.28,0.02 50.57,0.03 75.85,-0.01 16.38,-0.27 33.59,-1.78 47.88,-10.55 17.08,-10.77 28.39,-29.75 30.56,-49.75 1.25,-12.69 -0.49,-25.88 -6.21,-37.36 -4.3,-8.73 -10.93,-16.19 -18.72,-21.98 11.74,-6.09 22.11,-15.3 28.2,-27.17 7.82,-15.11 8.93,-32.96 5.87,-49.49 -3.59,-18.55 -14.58,-35.78 -30.51,-46.11 -9.3,-6.1 -20.18,-9.31 -31.09,-11.01 -18.83,-2.87 -37.93,-1.98 -56.91,-2.13 -15.33,0.03 -30.66,-0.06 -45.99,0.04 -9.39,0.19 -19.57,3.18 -25.3,11.12 -6.32,8.61 -6.94,19.79 -6.76,30.08 0.01,57.99 0.01,115.99 0,173.98 -0.15,10.29 0.62,21.5 7.12,29.97 m 5.4,-4.39 c -5.37,-7.32 -5.59,-16.87 -5.58,-25.59 0.02,-59.34 -0.01,-118.67 0.01,-178.01 0.1,-7.49 0.85,-15.51 5.33,-21.79 4.46,-6.22 12.54,-8.16 19.8,-8.4 14.3,-0.12 28.61,-0.01 42.91,-0.05 17.67,0.18 35.41,-0.65 53.01,1.3 12.16,1.32 24.54,4.2 34.83,11.11 15.63,10.42 25.71,28.21 27.74,46.78 1.78,15.24 -0.34,31.61 -9.14,44.51 -7.98,11.84 -20.74,19.53 -34,24.16 12.2,6.13 23.15,15.69 28.59,28.44 7.15,16.76 6.27,36.66 -2.05,52.85 -6.12,11.66 -15.9,21.83 -28.3,26.73 -11.26,4.64 -23.63,5.39 -35.67,5.74 -25.33,0.09 -50.66,0.02 -75.99,0.04 -7.67,-0.04 -16.39,-1.51 -21.49,-7.82 m 508.51,9.34 c 6.87,5.06 15.74,5.73 23.99,5.44 46,-0.01 92,-0.01 138.01,-0.01 7.35,0.04 15.13,-1.58 20.86,-6.48 12.24,-10.25 12.17,-31.68 -0.19,-41.81 -5.45,-4.57 -12.74,-6.23 -19.71,-6.32 -14.3,-0.03 -28.6,0 -42.89,-0.01 -0.01,-56.25 0,-112.5 -0.01,-168.75 -0.02,-9.86 -2.05,-20.49 -9.08,-27.88 -10.21,-11.15 -29.78,-11.19 -40.19,-0.29 -7.49,7.24 -9.69,18.1 -9.67,28.13 -0.02,56.27 0,112.53 -0.01,168.79 -14.36,0.01 -28.71,-0.02 -43.06,0.01 -7.03,0.11 -14.42,1.86 -19.74,6.7 -12.27,10.68 -11.85,33.02 1.69,42.48 m 5.04,-4.99 c -11.68,-7.09 -11.38,-26.66 0.02,-33.88 4.44,-2.8 9.84,-3.37 14.98,-3.35 16.01,0.01 32.03,0 48.04,0 0.02,-57.93 0.02,-115.86 0,-173.79 -0.07,-6.07 0.37,-12.31 2.76,-17.97 2.65,-6.27 8.28,-11.46 15.07,-12.77 7.06,-1.49 15.1,0.28 20.05,5.78 5.96,6.4 7.12,15.63 7.13,24.01 0,58.25 0,116.5 0,174.74 16.3,0.01 32.61,0 48.91,0.01 5.04,0.02 10.32,0.79 14.64,3.57 11.14,7.24 11.17,26.2 0.07,33.5 -4.34,2.84 -9.66,3.6 -14.73,3.62 -44.65,0 -89.29,0 -133.94,0 -7.73,-0.09 -16.15,0.88 -23,-3.47 m -714.94,4.59 c 20.71,2.7 42.4,-0.6 60.88,-10.53 16.63,-8.88 30.28,-22.61 40.81,-38.13 12.28,-18.06 19.39,-39.42 21.18,-61.16 -10.4,-0.01 -20.8,0 -31.19,0 -3.04,15.88 -11.55,30.6 -23.86,41.09 -28.37,24.87 -73.6,27.14 -104.67,5.98 -16.2,-10.79 -27.83,-28.02 -31.7,-47.1 -8.81,0.06 -17.62,0.01 -26.44,0.02 2.07,27.4 12.77,54.2 31.11,74.78 2.46,-1.08 5.06,-2.08 7.8,-1.97 6.21,-0.02 12.18,5.21 12.35,11.53 0.18,2.38 -0.67,4.63 -1.41,6.83 13.21,9.79 28.78,16.54 45.14,18.66 m -37.86,-20.99 c 1.02,-5.94 -0.57,-12.44 -5.08,-16.61 -4.85,-5.06 -12.45,-6.61 -19.11,-4.81 -14.41,-17.34 -23.26,-38.95 -26.11,-61.26 4.94,0 9.88,0 14.82,0 4.75,18.08 16.19,34.13 31.41,44.89 32.82,23.52 81.37,21.9 112.35,-4.09 12.71,-10.43 22.08,-24.85 26.16,-40.8 6.48,0.01 12.96,0 19.45,0 -4.05,31.86 -21.42,61.81 -47.22,80.95 -30.56,22.63 -75.41,23.48 -106.67,1.73 m 571.74,20.38 c 25.74,4.47 53.42,-0.85 74.82,-16.12 29.92,-21.35 49.23,-56.48 51.92,-93.09 -10.4,-0.01 -20.79,0.01 -31.18,-0.01 -3.05,15.86 -11.53,30.57 -23.83,41.06 -30.29,26.63 -79.94,27.34 -110.86,1.4 -13.05,-10.69 -22.17,-25.92 -25.5,-42.45 -8.84,-0.01 -17.68,-0.01 -26.51,0 2.13,27.39 12.76,54.24 31.17,74.78 5.25,-2.92 12.44,-2.72 16.68,1.88 3.99,3.67 4.21,9.79 1.98,14.47 12.17,9.03 26.34,15.5 41.31,18.08 m -33.92,-20.29 c 0.78,-5.71 -0.4,-11.93 -4.59,-16.13 -4.84,-5.45 -12.74,-7.28 -19.67,-5.39 -14.42,-17.32 -23.26,-38.95 -26.12,-61.25 4.91,-0.02 9.83,0.06 14.75,-0.05 2.52,8.65 6.11,17.04 11.29,24.46 14.23,20.82 38.23,34.17 63.23,36.48 23.71,2.59 48.52,-3.64 67.36,-18.5 13.65,-10.57 23.85,-25.6 28.1,-42.38 6.49,-0.02 12.97,-0.01 19.46,-0.01 -4.07,32.06 -21.64,62.21 -47.73,81.31 -19.36,14.19 -44.42,19.5 -68.04,16.22 -13.62,-1.85 -26.6,-7.19 -38.04,-14.76 M 100.22,417.46 c 16.26,-0.05 32.52,0.11 48.77,-0.08 9.76,-0.53 20.45,-0.6 28.67,-6.69 7.44,-5.03 11.71,-13.77 12.26,-22.62 0.7,-9.16 -0.9,-19.49 -7.99,-26.01 -8.82,-8.21 -21.54,-9.62 -33.03,-10.54 -16.21,-0.53 -32.45,-0.11 -48.67,-0.25 -0.01,22.07 0.01,44.13 -0.01,66.19 m 6.97,-6.96 c 0,-17.42 0,-34.84 0,-52.26 11.27,0.01 22.54,0 33.8,0.01 9.08,0.06 18.28,0.75 26.97,3.56 5.35,1.72 10.46,5.2 12.89,10.42 2.65,6.27 2.81,13.44 1.36,20.02 -1.77,8.3 -8.93,14.86 -17.15,16.52 -6.92,1.41 -14.02,1.61 -21.07,1.71 -12.26,0.04 -24.53,0.01 -36.8,0.02 m 524.74,6.96 c 14.02,-0.03 28.03,0.08 42.05,-0.05 9.92,-0.41 20.12,-1.25 29.35,-5.23 5.61,-2.37 9.9,-7.36 11.66,-13.16 2.91,-9.78 2.24,-20.96 -3.32,-29.71 -3.22,-5.53 -8.56,-9.78 -14.74,-11.52 -9.04,-2.71 -18.59,-2.76 -27.94,-2.75 -12.35,0.01 -24.7,-0.03 -37.05,0.02 -0.01,20.8 0.01,41.6 -0.01,62.4 m 7,-6.96 c 0,-16.17 0,-32.34 0,-48.5 10.71,-0.01 21.41,0 32.12,-0.01 9.13,0.12 18.7,0.04 27.22,3.78 9.85,5.31 13.01,18.05 10.8,28.38 -0.83,5.13 -4.02,10.03 -9.04,11.85 -9.17,3.71 -19.24,4.22 -29.01,4.47 -10.7,0.06 -21.4,0.02 -32.09,0.03 M 392.39,383.43 c 13.85,2 28.59,0.01 40.69,-7.3 11.8,-7.18 21.49,-18.56 24.86,-32.14 3.21,-12.98 1.83,-27.34 -4.96,-38.99 -8.25,-14.12 -22.96,-24.36 -39.15,-26.9 -13.85,-2.17 -28.61,-0.24 -40.87,6.76 -11.56,6.54 -21.12,17.19 -24.94,30.05 -4.23,14.42 -2.5,30.77 5.7,43.5 8.48,13.41 22.97,22.77 38.67,25.02 m 0.18,-6.18 c -14.41,-2.27 -27.57,-11.31 -34.79,-24 -5.97,-10.36 -7.2,-23.07 -4.43,-34.61 2.86,-11.77 11.25,-21.63 21.51,-27.78 11.38,-6.89 25.32,-8.75 38.33,-6.63 14.08,2.3 26.84,11.17 34.19,23.36 6.17,10.25 7.41,22.98 4.72,34.5 -2.92,12.17 -11.59,22.33 -22.12,28.75 -11.11,6.74 -24.72,8.4 -37.41,6.41 m 536.9,6.08 c 11.92,1.81 24.47,0.76 35.56,-4.19 9.01,-4.02 16.86,-10.52 22.74,-18.44 13.28,-17.92 12.75,-44.79 -1.4,-62.07 -5.99,-7.48 -13.85,-13.5 -22.73,-17.13 -10.95,-4.47 -23.19,-5.2 -34.77,-3.17 -15.26,2.66 -29.34,11.81 -37.73,24.86 -7.95,12.42 -9.44,28.32 -5.5,42.36 5.68,19.67 23.72,34.7 43.83,37.78 m 1.03,-6.05 c -17.98,-2.72 -34.16,-16.2 -39.08,-33.85 -3.3,-12.3 -2.02,-26.18 4.96,-37.03 7.65,-11.84 20.58,-20 34.48,-22.18 10.79,-1.71 22.21,-0.86 32.22,3.73 9.13,4.22 17.02,11.19 22.17,19.85 6.06,10.2 7.27,22.82 4.61,34.26 -2.89,12.13 -11.54,22.28 -22.01,28.71 -11.08,6.76 -24.67,8.46 -37.35,6.51 M 398.44,351.3 c 9,2.51 19.24,-2.7 22.47,-11.45 2.37,-6.32 0.81,-13.93 -4.06,-18.66 -6.87,-6.99 -19.14,-7.25 -26.48,-0.84 -4.42,3.76 -6.69,9.79 -5.91,15.53 0.8,7.42 6.84,13.67 13.98,15.42 m 1.93,-5.86 c -5.62,-1.13 -10.36,-6.48 -9.89,-12.37 0.08,-6.06 5.63,-10.89 11.5,-11.16 6.6,-0.87 13.72,4.18 13.84,11.09 0.7,7.97 -7.9,14.42 -15.45,12.44 m 536.1,5.92 c 9.47,2.54 20.24,-3.58 22.69,-13.11 1.68,-6.17 -0.25,-13.18 -5.02,-17.5 -7.25,-6.87 -19.86,-6.64 -26.9,0.42 -3.92,3.83 -5.8,9.54 -5,14.95 0.91,7.41 7.03,13.61 14.23,15.24 m 1.92,-5.87 c -4.79,-0.89 -9.08,-4.74 -9.98,-9.6 -1.34,-5.91 2.8,-12.1 8.61,-13.5 6.91,-2.28 15.7,2.12 16.48,9.72 1.36,8.19 -7.3,15.28 -15.11,13.38 M 296.24,321.98 c 8.37,-0.22 16.75,-0.01 25.12,-0.11 1.67,-14.68 7.81,-28.83 17.7,-39.84 12.32,-13.93 29.48,-23.53 47.86,-26.49 16.72,-2.65 34.32,-1.18 49.93,5.58 15.87,6.88 29.65,18.87 37.93,34.12 4.49,8.22 7.16,17.34 8.29,26.62 9.86,0.08 19.74,-0.02 29.61,0.05 -1.89,-24.44 -11.11,-48.36 -26.82,-67.25 -7.95,-0.01 -15.91,0.02 -23.86,-0.01 -2.55,-0.01 -5.53,-0.3 -7.18,-2.51 -1.48,-2.2 -1.64,-5.31 -0.37,-7.65 1.34,-2.23 4.19,-2.77 6.6,-2.82 4.29,-0.08 8.58,0.03 12.88,-0.02 -11.23,-10.41 -24.51,-18.79 -39.16,-23.43 -22.73,-7.23 -48.13,-6.19 -69.99,3.46 -11.04,4.84 -21.04,11.82 -29.89,19.96 4.68,0.25 9.48,-0.53 14.08,0.56 5.83,1.77 4.59,11.97 -1.58,12.25 -8.12,0.49 -16.28,0.07 -24.42,0.2 -15.1,19.26 -24.79,42.9 -26.73,67.33 m 6.82,-6.25 c 2.95,-19.85 10.91,-38.9 22.97,-54.95 6.67,-0.02 13.34,0.06 20.01,-0.03 4.09,-0.05 8.32,-1.76 10.64,-5.25 4.35,-6.37 2.08,-16.48 -5.52,-19.21 12.71,-8.69 27.43,-14.56 42.8,-16.08 22,-2.5 44.75,3.11 63.01,15.64 -2.12,0.81 -4.34,1.57 -5.96,3.21 -4.18,3.96 -4.53,10.85 -1.8,15.7 2.32,4.11 7.19,6.05 11.74,6 7.32,0.07 14.64,0 21.96,0.02 12.45,15.81 20.25,35.05 22.94,54.95 -5.83,0.01 -11.66,0.01 -17.48,0.01 -3.89,-22.78 -18.68,-42.93 -38.38,-54.71 -19.55,-12.06 -43.72,-15.32 -66.12,-11.17 -18.64,3.45 -35.96,13.28 -48.69,27.3 -9.86,10.72 -16.5,24.26 -19.11,38.58 -4.34,0 -8.68,0 -13.01,-0.01 m 530.78,6.12 c 8.42,0.07 16.85,0.04 25.27,0.02 1.4,-11.89 5.57,-23.51 12.52,-33.3 12.03,-16.95 30.81,-28.96 51.26,-32.71 16.1,-2.89 33.06,-1.89 48.42,3.92 16.83,6.43 31.61,18.55 40.56,34.27 4.87,8.52 7.76,18.09 8.95,27.81 9.89,0.04 19.78,0.04 29.67,0 -2.02,-24.39 -11.17,-48.23 -26.79,-67.17 -7.91,-0.09 -15.82,0 -23.73,-0.03 -2.56,-0.01 -5.55,-0.21 -7.28,-2.37 -2.38,-3.13 -1.71,-8.95 2.54,-10.09 5.46,-1.14 11.13,-0.28 16.69,-0.54 -11.29,-9.97 -24.07,-18.51 -38.5,-23.15 -23.85,-7.84 -50.75,-6.52 -73.46,4.34 -10.06,4.75 -19.16,11.32 -27.36,18.8 4.74,0.25 9.62,-0.58 14.27,0.61 5.5,1.83 4.5,11.45 -1.3,12.12 -8.25,0.64 -16.56,0.11 -24.83,0.27 -15.21,19.2 -24.57,42.84 -26.9,67.2 m 6.97,-6.11 c 2.94,-19.86 10.92,-38.9 22.95,-54.96 6.1,0.01 12.21,0.01 18.31,0.01 4.14,0.13 8.66,-0.89 11.47,-4.16 5.48,-6.15 3.46,-17.45 -4.62,-20.32 12.46,-8.58 26.92,-14.37 42.01,-16.01 22.19,-2.68 45.3,2.8 63.7,15.55 -1.99,0.81 -4.1,1.52 -5.67,3.03 -4.59,4.14 -4.86,11.74 -1.47,16.7 2.53,3.67 7.13,5.24 11.44,5.19 7.24,0.05 14.49,0 21.73,0.01 12.45,15.81 20.24,35.05 22.94,54.95 -5.83,0.02 -11.65,0.01 -17.47,0.01 -3.38,-19.35 -14.48,-36.98 -29.99,-48.92 -31.18,-24.59 -78.9,-25 -110.57,-1.11 -16.33,11.95 -28.27,29.99 -31.75,50.03 -4.34,0 -8.68,0 -13.01,0 m -208.87,4.2 c 16.36,0.02 32.72,0.06 49.08,-0.01 11.52,-0.28 23.8,-1.7 33.44,-8.56 8.46,-6.23 11.48,-17.31 11.06,-27.39 -0.09,-9.21 -3.3,-18.9 -10.68,-24.82 -9.16,-7.47 -21.48,-9.16 -32.92,-9.46 -16.66,-0.06 -33.32,-0.01 -49.97,-0.02 -0.02,23.42 -0.02,46.84 -0.01,70.26 m 6.99,-6.95 c 0,-18.77 0,-37.54 0,-56.32 12.36,0 24.73,0.01 37.09,0 11.09,-0.06 23.08,0.28 32.67,6.56 7.18,4.64 10.03,13.58 9.87,21.77 0.26,8.16 -2.33,17.34 -9.73,21.77 -9.56,5.62 -21.06,6.18 -31.87,6.22 -12.68,-0.01 -25.35,0 -38.03,0 z"
       style="fill:#000000;fill-opacity:1;fill-rule:nonzero;stroke:#000000;stroke-width:0.09375;stroke-linecap:butt;stroke-linejoin:miter;stroke-miterlimit:10;stroke-dasharray:none;stroke-opacity:1"
       id="path3684"
       inkscape:connector-curvature="0" /></g></svg>