<?xml version="1.0" encoding="UTF-8" standalone="no"?>
<!-- Created with Inkscape (http://www.inkscape.org/) -->

<svg
   xmlns:dc="http://purl.org/dc/elements/1.1/"
   xmlns:cc="http://creativecommons.org/ns#"
   xmlns:rdf="http://www.w3.org/1999/02/22-rdf-syntax-ns#"
   xmlns:svg="http://www.w3.org/2000/svg"
   xmlns="http://www.w3.org/2000/svg"
   xmlns:sodipodi="http://sodipodi.sourceforge.net/DTD/sodipodi-0.dtd"
   xmlns:inkscape="http://www.inkscape.org/namespaces/inkscape"
   id="svg3686"
   version="1.1"
   inkscape:version="0.91 r13725"
   xml:space="preserve"
   width="1555.9634"
   height="881.92365"
   viewBox="0 0 1555.9634 881.92365"
   sodipodi:docname="about-team.svg"><metadata
     id="metadata3692"><rdf:RDF><cc:Work
         rdf:about=""><dc:format>image/svg+xml</dc:format><dc:type
           rdf:resource="http://purl.org/dc/dcmitype/StillImage" /><dc:title></dc:title></cc:Work></rdf:RDF></metadata><defs
     id="defs3690" /><sodipodi:namedview
     pagecolor="#ffffff"
     bordercolor="#666666"
     borderopacity="1"
     objecttolerance="10"
     gridtolerance="10"
     guidetolerance="10"
     inkscape:pageopacity="0"
     inkscape:pageshadow="2"
     inkscape:window-width="1280"
     inkscape:window-height="672"
     id="namedview3688"
     showgrid="false"
     inkscape:zoom="0.48590268"
     inkscape:cx="778.45898"
     inkscape:cy="438.19839"
     inkscape:window-x="0"
     inkscape:window-y="1"
     inkscape:window-maximized="1"
     inkscape:current-layer="g3694"
     fit-margin-top="0"
     fit-margin-left="0"
     fit-margin-right="0"
     fit-margin-bottom="0" /><g
     id="g3694"
     inkscape:groupmode="layer"
     inkscape:label="About-team"
     transform="matrix(1.25,0,0,-1.25,-60.291024,1130.6004)"><path
       d="m 640.86,869.46 c 36.86,11.05 78.43,5.12 110.54,-16.15 29.64,-19.2 51.07,-50.64 57.81,-85.33 6.73,-33.14 0.26,-68.76 -17.95,-97.28 -12.39,-19.62 -29.99,-35.9 -50.51,-46.72 30.94,19.62 51.74,54.4 53.59,91.08 2.25,33.1 -10.73,66.75 -34.48,89.88 -11.37,11.17 -25.04,20.02 -39.94,25.7 -24.56,9.47 -52.38,10.15 -77.41,2.01 -30.11,-9.65 -55.72,-32.22 -69.16,-60.83 -15.49,-32.25 -14.77,-71.7 1.94,-103.34 8.84,-17.05 22.04,-31.73 37.86,-42.59 -29.11,16.38 -51.61,44.11 -61.51,76.03 -11.44,36.04 -6.56,76.87 13.3,109.07 16.96,27.96 44.52,49.28 75.92,58.47 m -7.43,-10.96 c -33.19,-12.3 -60.62,-39.09 -73.75,-71.96 -14.57,-35.58 -11.78,-77.65 7.33,-111.02 -2.73,6.02 -5.52,12.02 -7.51,18.33 -11.7,35.1 -6.79,75.29 13.26,106.42 17.85,28.28 47.41,48.87 80.2,55.59 35.88,7.64 74.91,-1.42 103.54,-24.42 27.05,-21.24 44.7,-54.01 47.21,-88.34 1.66,-18.75 -1.53,-37.61 -7.73,-55.29 11.02,26.06 13.5,55.72 6.25,83.12 -8.76,34.44 -32.77,64.56 -64.25,80.99 -31.79,16.97 -70.88,19.35 -104.55,6.58 m 4.44,-14.37 c -33.35,-11.82 -60.55,-39.51 -71.78,-73.06 -4.59,-12.92 -6.11,-26.65 -6.53,-40.28 0.98,6.33 1.2,12.77 2.62,19.04 6.61,33.9 29.03,64.2 59.35,80.67 31.69,17.67 71.58,19.4 104.74,4.73 32.04,-13.91 57.47,-42.6 66.62,-76.4 -6.42,31.13 -26.79,58.81 -53.89,75.22 -29.91,18.36 -68.18,22.13 -101.13,10.08 m 24.74,-12.99 c 21.83,3.23 44.62,-0.24 64.44,-9.97 28.24,-13.64 50.02,-39.87 58.13,-70.17 6.45,-23.74 4.8,-49.66 -4.92,-72.29 -11.38,-27.05 -34.07,-49.04 -61.44,-59.63 -22.47,-8.8 -47.83,-9.92 -70.99,-3.15 -31.49,8.98 -58.26,32.84 -70.85,63.07 -9.62,22.58 -11.24,48.41 -4.78,72.07 8.17,30.44 30.16,56.75 58.59,70.32 10.02,4.87 20.8,8.13 31.82,9.75 m -0.12,-4.88 c -11.72,-2.09 -23.03,-6.47 -33.09,-12.83 -5.69,-3.47 -10.64,-7.96 -15.88,-12.04 -13.65,-11.11 -24.38,-25.81 -30.74,-42.23 -8.5,-21.62 -9.23,-46.16 -2.2,-68.28 9.42,-30.28 33.76,-55.35 63.72,-65.74 23.67,-8.37 50.42,-7.65 73.58,2.09 28.69,11.81 51.27,37.34 59.38,67.29 6.15,22.27 4.6,46.64 -4.59,67.87 -6.61,15.59 -17.33,29.26 -30.42,39.95 -20.84,19.99 -51.35,29.17 -79.76,23.92 m -6.57,-8.79 c 14.89,6.05 32.25,5.75 46.91,-0.84 12.54,-5.55 23.04,-15.54 29.22,-27.78 6.01,-11.71 7.85,-25.42 5.48,-38.35 0.95,15.16 -3.9,30.65 -13.81,42.22 -10.46,12.57 -26.33,20.49 -42.69,21.07 -13.76,0.7 -27.68,-3.68 -38.58,-12.08 -15.77,-11.77 -24.52,-31.69 -23.3,-51.25 -2.12,12.56 -0.62,25.81 5.01,37.29 6.43,13.39 17.97,24.21 31.76,29.72 m -23.4,-38.05 c 7.77,14.65 22.87,25.17 39.36,27.15 11.37,1.51 23.23,-0.8 33.12,-6.63 13.12,-7.56 22.67,-21.06 25.23,-36 1.38,-7.12 0.9,-14.46 -0.47,-21.55 0.56,11.64 -2.44,23.5 -9.25,33.03 -8.73,12.55 -23.31,20.8 -38.59,21.66 -16.33,1.17 -32.91,-6.19 -43.06,-19.01 -8.16,-9.9 -11.85,-22.89 -11.31,-35.62 -2.57,12.42 -1.21,25.79 4.97,36.97 m 7.1,-14.28 c 5.89,12.26 17.85,21.37 31.26,23.71 13.16,2.5 27.35,-1.59 37.15,-10.72 9.43,-8.53 14.76,-21.37 14.05,-34.08 -0.12,-4.64 -1.34,-9.13 -2.61,-13.57 1.84,11.54 -0.55,23.88 -7.78,33.22 -8.55,11.57 -23.39,18.06 -37.7,16.4 -13.29,-1.29 -25.6,-9.49 -32.02,-21.17 -4.42,-7.58 -5.62,-16.49 -5.37,-25.13 -2.25,10.43 -1.93,21.7 3.02,31.34 m -26.85,-43.33 c -8.45,20.92 -6.02,45.84 6.45,64.66 -6.37,-12.37 -9.19,-26.61 -7.31,-40.44 2.05,-16.77 10.81,-32.55 23.85,-43.27 11.76,-9.82 26.97,-15.38 42.29,-15.44 15.45,-0.22 30.89,5.13 42.87,14.88 13.63,10.9 22.74,27.3 24.63,44.67 1.8,13.79 -1.45,27.73 -7.47,40.12 6.44,-10.6 10.81,-22.61 11.38,-35.08 1.09,-18.14 -5.16,-36.6 -17.12,-50.3 -10.27,-11.99 -24.68,-20.35 -40.19,-23.3 -16.97,-3.33 -35.13,-0.16 -49.92,8.81 -13.27,7.92 -23.8,20.32 -29.46,34.69 m -5.22,-29.41 c -16.47,26.62 -15.85,62.73 1.89,88.57 -7.84,-15.57 -10.27,-33.79 -6.61,-50.85 3.4,-16.34 12.33,-31.46 24.97,-42.35 12.24,-10.7 27.95,-17.32 44.15,-18.62 16.73,-1.44 33.91,2.78 48.02,11.89 16.3,10.35 28.44,27.04 33.18,45.76 4.72,17.8 2.43,37.05 -5.41,53.63 18.37,-27.38 17.73,-65.82 -1.51,-92.58 -9.84,-14.12 -24.19,-25.05 -40.44,-30.71 -18.79,-6.63 -40.01,-6.16 -58.45,1.38 -16.47,6.6 -30.6,18.73 -39.79,33.88 m -22.44,10.52 c -5.82,23.16 -2.59,48.36 8.74,69.37 -7.11,-17.06 -9.5,-36.13 -5.94,-54.32 3.75,-20.08 14.47,-38.74 29.85,-52.16 12.41,-10.93 27.82,-18.46 44.11,-21.4 18.42,-3.41 37.9,-1.12 54.96,6.68 18.16,8.19 33.5,22.47 43.01,39.98 10.02,18.24 13.5,39.93 9.82,60.39 -1.11,6.89 -3.45,13.47 -5.74,20.03 8.59,-16.35 12.47,-35.14 10.81,-53.55 -1.54,-18.65 -8.74,-36.78 -20.39,-51.42 -10.46,-13.28 -24.48,-23.75 -40.22,-29.93 -21.39,-8.52 -45.87,-8.95 -67.55,-1.24 -30.07,10.39 -53.97,36.64 -61.46,67.57 m 62.56,52.46 c 5.58,8.66 15.01,14.72 25.21,16.19 10.1,1.58 20.82,-1.32 28.7,-7.85 9.36,-7.5 14.59,-19.84 13.36,-31.79 -0.68,-9.52 -5.69,-18.21 -12.45,-24.75 7.32,8.23 11.06,19.79 8.44,30.65 -3.06,14.58 -17,25.95 -31.94,25.75 -14.39,0.44 -28.13,-9.81 -32,-23.64 -3.48,-11.08 -0.15,-23.4 7.34,-32.07 0.85,-0.3 1.72,-0.51 2.63,-0.62 0.25,1.52 -1.13,2.59 -1.74,3.82 -4.86,7.17 -5.91,16.69 -2.88,24.78 4.07,11.59 16.5,19.46 28.73,18.04 12.44,-0.98 23.28,-11.4 24.79,-23.79 1.48,-9.55 -2.71,-19.38 -10.04,-25.53 3.31,3.86 5.96,8.42 6.68,13.52 1.45,8.66 -2.21,17.93 -9.23,23.2 -7.47,5.92 -18.49,6.73 -26.76,2 -8.88,-4.81 -14.04,-15.45 -12.22,-25.4 0.94,-4.67 2.7,-9.62 6.7,-12.53 -1.55,0.39 -3.09,0.16 -4.63,0.17 -7.13,5.88 -12.65,14.1 -14.13,23.34 -1.63,9.1 0.28,18.81 5.44,26.51 m 12.29,-34.35 c 0.36,8.62 7.52,16.27 16.09,17.21 8.24,1.2 16.79,-3.98 19.59,-11.81 2.7,-6.76 0.6,-14.58 -4.23,-19.82 3.77,6.17 3.54,14.81 -1.77,20.02 -5.76,6.3 -16.63,6.34 -22.44,0.08 -5.33,-5.14 -5.59,-13.67 -2.04,-19.89 -3.35,3.93 -5.64,8.96 -5.2,14.21 m 10.88,-0.82 c 4.73,4.92 13.79,3.61 16.97,-2.41 2.76,-4.4 1.18,-9.85 -1.71,-13.74 0.82,3.45 1,7.63 -1.85,10.23 -3.52,3.76 -10.39,2.98 -12.94,-1.51 -1.74,-2.57 -1.31,-5.79 -0.43,-8.57 -4.22,4.29 -4.65,11.83 -0.04,16 m 5.7,-9.94 c 2.98,1.75 7.08,-0.91 6.81,-4.33 -0.02,-3.37 -4.27,-5.72 -7.08,-3.77 -3.1,1.66 -2.9,6.63 0.27,8.1 z"
       style="fill:#ffffff;fill-opacity:1;fill-rule:nonzero;stroke:#ffffff;stroke-width:0.09375;stroke-linecap:butt;stroke-linejoin:miter;stroke-miterlimit:10;stroke-dasharray:none;stroke-opacity:1"
       id="path3696"
       inkscape:connector-curvature="0" /><path
       d="m 577.28,863.7 c 23.8,23.02 55.66,37.52 88.67,40.18 34.74,3.09 70.45,-6.85 98.53,-27.56 28.44,-20.69 48.99,-51.97 56.44,-86.37 8.99,-40.28 0.09,-84.46 -24.78,-117.53 18.86,31.63 24.31,70.9 14.47,106.41 -8.7,32.51 -30.03,61.31 -58.38,79.39 -21.69,13.83 -47.4,21.78 -73.2,21.33 -37.4,0.92 -74.53,-15.37 -100.09,-42.5 -23.27,-24.3 -36.93,-57.46 -37.57,-91.1 -0.68,-25.88 6.27,-51.84 19.58,-74.03 -21.98,29.15 -31.81,66.95 -27.58,103.16 3.67,33.48 19.57,65.38 43.91,88.62 M 139.9,863.09 c 7.28,5.93 17.38,6.59 26.31,5.12 8.11,-1.31 14.96,-6.9 19.23,-13.75 6.08,-9.26 8.81,-20.13 12.79,-30.35 18.54,-48.42 37.11,-96.82 55.66,-145.23 3.72,-10.15 8.44,-20.09 10.03,-30.87 1.77,-12.18 -8.55,-24.61 -20.9,-24.89 -7.52,-0.64 -15.25,3.44 -18.64,10.23 -8.23,16.08 -13.4,33.45 -19.73,50.31 -30.49,-0.01 -60.98,0.02 -91.47,-0.02 -3.98,-11.25 -7.92,-22.53 -11.98,-33.76 -2.61,-6.78 -5.14,-13.68 -9.02,-19.86 -2.7,-4.54 -8.05,-6.69 -13.14,-6.86 -12.86,-1.37 -25.19,11.06 -23.76,23.9 0.48,7.78 4.09,14.84 6.58,22.1 20.93,56.06 41.51,112.27 62.69,168.24 3.65,9.26 7.22,19.36 15.35,25.69 m 18.45,-45.03 c -11.06,-32.69 -22.16,-65.36 -33.17,-98.07 22.4,0.01 44.8,-0.12 67.2,0.06 -11.36,32.67 -22.71,65.34 -34.03,98.01 m 716.24,50.15 c 7.38,1.71 15.85,0.23 21.36,-5.25 5.88,-5.6 7.34,-14.16 7.49,-21.92 0.03,-37.33 0,-74.65 0.01,-111.97 -0.13,-14.19 0.37,-28.73 5.3,-42.2 3.74,-10.32 12.24,-18.83 22.71,-22.25 10.29,-3.36 21.37,-3.64 32.05,-2.34 10.48,1.33 21.17,5.91 27.36,14.84 8.31,11.83 10.22,26.77 10.65,40.87 0.08,36.32 0.01,72.64 0.03,108.97 0.22,9.63 -1,19.68 2.65,28.86 2.13,5.7 6.93,10.35 12.8,12.04 7.76,2.23 16.97,0.93 22.85,-4.94 5.77,-5.65 7.34,-14.13 7.49,-21.89 0.01,-31.01 0,-62.03 0,-93.05 -0.11,-19.67 0.83,-39.52 -2.9,-58.95 -2.19,-12.27 -6.46,-24.38 -14.21,-34.29 -9.43,-12.37 -22.62,-21.9 -37.5,-26.55 -18.29,-5.77 -37.82,-5.84 -56.74,-4.14 -19.24,2.01 -39.38,7.42 -53.47,21.44 -11.21,10.72 -17.84,25.37 -21.02,40.37 -5.27,23.36 -3.52,47.43 -3.83,71.16 0,27.65 0,55.31 0.01,82.96 0.08,7.18 1.03,14.9 5.53,20.78 2.83,3.65 6.88,6.36 11.38,7.45 m -551.5,-10.25 c 5.37,5.53 13.53,6.84 20.91,6.9 25.34,0 50.68,0.02 76.02,-0.01 12.08,-0.24 24.43,-0.85 35.93,-4.93 14.93,-5.11 26.85,-17.39 32.95,-31.78 5.39,-12.48 6.14,-26.76 2.56,-39.83 -4.18,-16.11 -17.1,-28.45 -31.79,-35.41 13.59,-4.61 26.79,-12.25 34.99,-24.36 9.22,-13.46 10.97,-30.74 8.43,-46.53 -3.27,-20.04 -16.6,-38.43 -35.23,-46.81 -15.32,-6.74 -32.36,-7.64 -48.86,-8.05 -25.01,-0.08 -50.03,-0.02 -75.04,-0.03 -7.37,0.02 -15.55,1.37 -20.77,7.05 -5.24,5.94 -6.29,14.27 -6.4,21.88 -0.01,60 -0.01,120 0,180 0.14,7.61 1.11,15.94 6.3,21.91 m 39.48,-29.41 c -0.03,-20.48 -0.01,-40.97 -0.01,-61.46 16.14,0.07 32.28,-0.16 48.42,0.13 9.58,0.61 20.2,1.36 27.77,7.99 9.93,8.98 12.39,24.18 7.83,36.44 -2.06,5.47 -6.57,9.84 -12.01,11.92 -9.98,3.94 -20.86,4.64 -31.48,4.93 -13.51,0.12 -27.02,0.02 -40.52,0.05 m -0.01,-96 c -0.01,-23.04 -0.01,-46.08 0,-69.12 17.46,0.02 34.91,-0.06 52.37,0.04 11.63,0.43 24.2,2.35 33.23,10.34 7.9,6.94 10.31,18.12 9.48,28.22 -0.44,8.8 -4.42,17.77 -11.99,22.66 -9.34,6.01 -20.76,7.41 -31.63,7.82 -17.15,0.1 -34.31,0.02 -51.46,0.04 m 739.54,128.36 c 4.63,3.17 10.4,4.02 15.9,3.96 48.34,-0.02 96.68,0.01 145.02,-0.01 5.64,-0.04 11.64,-1.05 16.16,-4.69 9.48,-7.61 9.1,-24.45 -0.99,-31.38 -4.71,-3.25 -10.63,-3.97 -16.21,-3.97 -16.37,0.01 -32.73,0 -49.09,0 -0.04,-57.6 0.01,-115.21 -0.02,-172.82 -0.07,-8.21 -1.54,-17.24 -7.71,-23.19 -5.14,-5.21 -13.04,-6.59 -20.01,-5.25 -7.55,1.46 -13.78,7.47 -16.09,14.71 -2.64,7.65 -1.84,15.85 -1.97,23.79 0,54.25 0.01,108.51 0,162.76 -16.68,0.02 -33.36,-0.01 -50.04,0.01 -5.27,0.07 -10.84,0.86 -15.2,4.04 -10.19,7.29 -10.37,25.07 0.25,32.04 M 576.55,581.22 c 10.69,1.24 21.97,0.69 31.91,-3.79 7.22,-3.22 13.44,-9.14 15.92,-16.77 2.8,-8.68 2.33,-18.67 -2.19,-26.7 -4.89,-8.53 -14.21,-13.59 -23.65,-15.37 -9.13,-1.63 -18.63,-1.57 -27.67,0.6 -7.8,1.91 -15.4,6.04 -19.99,12.8 -7.36,10.92 -7.16,26.71 1.21,37.04 5.97,7.34 15.29,10.99 24.46,12.19 m 3.95,-9.93 c -6.06,-0.99 -12.09,-4.17 -15.07,-9.74 -5.44,-9.84 -3.45,-24.39 6.68,-30.44 8.31,-4.93 19.42,-4.69 27.72,0.13 10.12,6.25 11.9,21.02 6.18,30.8 -5.24,8.41 -16.31,10.72 -25.51,9.25 m 64.88,10.09 c 4.33,1.34 10.85,-0.17 11.42,-5.48 0.4,-11.29 -0.06,-22.61 0.22,-33.91 0.18,-4.11 1.28,-8.69 4.83,-11.21 4.3,-3.12 9.91,-3.31 15.03,-3.17 4.74,0.22 10.19,1.28 13.1,5.44 3.47,4.93 2.57,11.24 2.68,16.91 0.12,8.7 -0.23,17.42 0.17,26.1 1.26,8.3 16.49,7.56 16.49,-1.07 0.16,-10.34 0.03,-20.69 0.06,-31.03 -0.01,-6.66 -1.28,-14.12 -6.69,-18.62 -8.03,-7.14 -19.43,-8.11 -29.7,-7.83 -8.76,0.38 -18.35,1.26 -25.36,7.11 -5.66,4.65 -7.4,12.34 -7.39,19.34 0.02,10.35 -0.11,20.71 0.06,31.05 -0.06,3.02 2.19,5.67 5.08,6.37 m 85.18,-1.88 c 3.56,1.71 7.64,1.16 11.47,1.28 9.96,-0.12 19.93,0.24 29.89,-0.25 7.06,-0.36 14.85,-2.39 19.29,-8.32 4.11,-5.32 3.92,-13.63 -0.93,-18.42 -4.55,-4.49 -11.03,-6 -17.07,-7.28 5.81,-2.05 10.34,-6.48 14.4,-10.96 2.96,-3.55 5.8,-7.32 7.65,-11.59 1.06,-1.99 -0.48,-4.17 -2.22,-5.12 -3.99,-2.18 -9.53,-1.9 -12.79,1.48 -6.35,6.66 -11.07,14.8 -17.91,21 -5.04,4.51 -12.19,3.85 -18.45,3.83 -0.11,-7.33 0.22,-14.68 -0.16,-22 -1.35,-8.06 -16.16,-7.59 -16.44,0.86 -0.15,16.36 -0.04,32.72 -0.05,49.08 -0.15,2.54 0.92,5.26 3.32,6.41 m 13.34,-8.28 c -0.02,-5.67 0,-11.33 -0.02,-16.99 8.84,0.25 17.83,-0.8 26.54,1.13 3.6,0.72 7.2,3.64 6.77,7.66 -0.06,4.71 -4.95,7.34 -9.1,7.75 -8.04,0.84 -16.14,0.29 -24.19,0.45 m -4.73,-127.38 c 7.35,7.75 18.97,9.13 29,7.19 7.79,-1.41 14.31,-6.86 18.45,-13.44 6.21,-9.45 8.92,-20.57 12.97,-31.01 18.14,-47.81 36.33,-95.61 54.48,-143.43 3.4,-9.3 7.5,-18.4 9.72,-28.09 0.98,-4.17 1.35,-8.63 0.06,-12.79 -2.66,-9.03 -11.25,-16.4 -20.89,-16.24 -7.24,-0.34 -14.46,3.8 -17.66,10.33 -8.13,16.06 -13.25,33.39 -19.5,50.21 -30.22,0.02 -60.44,0.04 -90.65,-0.01 -6.48,-17.35 -11.26,-35.45 -19.79,-51.96 -4.06,-8.69 -15.67,-10.37 -23.8,-7.01 -7.71,3.65 -14.03,11.53 -13.86,20.36 -0.1,6.63 2.44,12.81 4.67,18.92 20.25,54.74 40.24,109.58 60.59,164.29 4.58,11.21 7.62,23.7 16.21,32.68 m 20.77,-42.61 c -10.86,-32.81 -22,-65.52 -32.89,-98.32 22.2,0.04 44.39,0.02 66.58,0.01 -11.17,32.79 -22.69,65.47 -33.69,98.31 m -541.67,42.54 c 4.56,3.18 10.29,4.08 15.75,4.01 47.68,-0.01 95.37,-0.01 143.06,0 5.71,0.04 11.78,-0.85 16.42,-4.44 9.61,-7.43 9.48,-24.21 -0.36,-31.41 -4.35,-3.19 -9.89,-4.1 -15.17,-4.16 -16.61,-0.01 -33.23,0.01 -49.84,-0.01 -0.02,-57.58 0,-115.17 -0.01,-172.76 -0.09,-7.6 -1.25,-15.79 -6.29,-21.82 -7.76,-9.5 -24.01,-9.56 -32.12,-0.48 -5.41,5.64 -6.83,13.81 -6.94,21.34 -0.04,57.91 0,115.81 -0.02,173.72 -16.58,0.02 -33.15,0 -49.73,0.01 -5.22,0.05 -10.76,0.89 -15.04,4.11 -9.95,7.38 -10.1,24.84 0.29,31.89 m 238.71,0.1 c 5.41,3.24 11.87,3.98 18.07,3.91 39.65,-0.02 79.31,0.01 118.96,-0.02 5.29,0.01 10.94,-1.07 15,-4.71 8.59,-7.12 7.97,-22.51 -1.29,-28.82 -5.08,-3.7 -11.67,-3.81 -17.7,-3.7 -32.76,0.02 -65.51,0.01 -98.26,0.01 0.05,-19.47 -0.01,-38.94 0.03,-58.4 31.39,0 62.79,0 94.18,0 4.9,-0.07 10.16,-0.88 14.03,-4.15 7.07,-5.71 7.8,-16.81 3.28,-24.3 -3.58,-5.85 -10.82,-7.95 -17.33,-7.89 -31.41,-0.04 -62.83,0.02 -94.24,-0.03 0.16,-22.41 0.02,-44.83 0.07,-67.25 34.75,-0.01 69.49,-0.01 104.24,0 7.34,0.23 15.94,-1.64 19.81,-8.56 4.19,-7.71 3.71,-18.63 -2.82,-24.95 -4.84,-4.45 -11.77,-5.1 -18.05,-5.05 -38.99,0.01 -77.98,0.01 -116.97,0 -7.41,-0.02 -15.35,0.16 -21.79,4.28 -7.89,4.96 -9.62,15.08 -9.77,23.68 -0.04,57.37 0,114.73 -0.02,172.09 0.06,7.65 -0.5,15.53 2,22.89 1.45,4.51 4.42,8.6 8.57,10.97 m 465.36,-2.09 c 7.82,6.01 18.17,6.24 27.61,5.99 9.15,-0.25 19,1 27.48,-3.24 7.78,-4.22 8.97,-13.76 11.33,-21.42 11.52,-45.8 23.02,-91.62 34.34,-137.48 10.54,42.53 21.08,85.07 31.62,127.6 1.92,7.6 3.71,15.27 6.46,22.63 1.87,5.09 6.31,9.07 11.58,10.38 8.9,2.26 18.17,1.32 27.26,1.54 8.41,0.22 17.52,-0.93 24.2,-6.49 5.25,-4.82 6.17,-12.46 6.3,-19.21 0.03,-58.34 0.01,-116.68 0.02,-175.02 -0.31,-9.43 1.1,-19.26 -2.3,-28.3 -2.34,-6.46 -8.24,-11.58 -15.12,-12.46 -6.23,-1.08 -13.04,0.69 -17.42,5.38 -5.49,5.58 -6.68,13.81 -6.8,21.31 -0.07,54.74 0.09,109.49 -0.08,164.24 -10.1,-43.77 -20.63,-87.44 -30.9,-131.17 -3.14,-13.07 -6.06,-26.2 -9.46,-39.21 -1.68,-6.99 -6.06,-13.31 -11.91,-17.46 -7.05,-4.18 -16.17,-4.35 -23.73,-1.46 -8.87,3.77 -13.52,12.98 -16.04,21.77 -2.72,10.23 -4.9,20.59 -7.41,30.87 -10.68,45.56 -21.69,91.03 -32.16,136.63 -0.28,-55.06 0,-110.12 -0.14,-165.18 -0.21,-7.17 -1.51,-15.01 -6.77,-20.33 -7.16,-7.53 -20.59,-7.62 -27.86,-0.21 -5.64,5.56 -6.9,13.91 -6.99,21.48 -0.01,63.03 -0.02,126.06 0.01,189.09 0.15,6.98 1.12,15.01 6.88,19.73 z"
       style="fill:#0052ff;fill-opacity:1;fill-rule:nonzero;stroke:#0052ff;stroke-width:0.09375;stroke-linecap:butt;stroke-linejoin:miter;stroke-miterlimit:10;stroke-dasharray:none;stroke-opacity:1"
       id="path3698"
       inkscape:connector-curvature="0" /><path
       d="m 578.94,837.05 c 25.56,27.13 62.69,43.42 100.09,42.5 25.8,0.45 51.51,-7.5 73.2,-21.33 28.35,-18.08 49.68,-46.88 58.38,-79.39 9.84,-35.51 4.39,-74.78 -14.47,-106.41 -15.4,-25.45 -39.02,-45.94 -66.73,-56.93 -15.67,-6.17 -32.51,-9.89 -49.4,-9.52 -28.59,-0.97 -57.22,8.25 -80.54,24.67 -15.5,10.92 -28.64,25.11 -38.52,41.28 -13.31,22.19 -20.26,48.15 -19.58,74.03 0.64,33.64 14.3,66.8 37.57,91.1 m 61.92,32.41 c -31.4,-9.19 -58.96,-30.51 -75.92,-58.47 -19.86,-32.2 -24.74,-73.03 -13.3,-109.07 9.9,-31.92 32.4,-59.65 61.51,-76.03 -15.82,10.86 -29.02,25.54 -37.86,42.59 -16.71,31.64 -17.43,71.09 -1.94,103.34 13.44,28.61 39.05,51.18 69.16,60.83 25.03,8.14 52.85,7.46 77.41,-2.01 14.9,-5.68 28.57,-14.53 39.94,-25.7 23.75,-23.13 36.73,-56.78 34.48,-89.88 -1.85,-36.68 -22.65,-71.46 -53.59,-91.08 20.52,10.82 38.12,27.1 50.51,46.72 18.21,28.52 24.68,64.14 17.95,97.28 -6.74,34.69 -28.17,66.13 -57.81,85.33 -32.11,21.27 -73.68,27.2 -110.54,16.15 m 21.75,-38.32 c -11.02,-1.62 -21.8,-4.88 -31.82,-9.75 -28.43,-13.57 -50.42,-39.88 -58.59,-70.32 -6.46,-23.66 -4.84,-49.49 4.78,-72.07 12.59,-30.23 39.36,-54.09 70.85,-63.07 23.16,-6.77 48.52,-5.65 70.99,3.15 27.37,10.59 50.06,32.58 61.44,59.63 9.72,22.63 11.37,48.55 4.92,72.29 -8.11,30.3 -29.89,56.53 -58.13,70.17 -19.82,9.73 -42.61,13.2 -64.44,9.97 m -525.96,38.15 c 8.61,6.44 20.1,7.44 30.42,5.77 10.37,-1.58 19.26,-8.64 24.58,-17.49 6.08,-9.41 8.95,-20.36 12.94,-30.72 17.92,-46.81 35.88,-93.61 53.82,-140.42 3.51,-9.54 7.64,-18.88 10.47,-28.66 1.71,-6.02 2.97,-12.47 1.45,-18.68 -2.1,-8.93 -8.49,-16.8 -16.88,-20.53 -8.98,-3.97 -20.12,-3.09 -27.97,2.97 -5.62,4.08 -8.45,10.65 -11.13,16.82 -5.68,12.47 -9.77,25.57 -14.56,38.39 -27.23,0.01 -54.46,0 -81.68,0.01 -4.91,-13.36 -9.15,-26.98 -14.74,-40.08 -2.55,-5.51 -5,-11.42 -9.78,-15.41 -5.45,-4.39 -12.84,-5.58 -19.64,-4.92 -9.95,0.99 -18.43,8.14 -22.96,16.78 -4.73,9.38 -2.57,20.44 1.16,29.77 22.12,59.24 43.87,118.63 66.24,177.77 4.07,10.57 8.69,21.84 18.26,28.63 m 3.25,-6.2 C 131.77,856.76 128.2,846.66 124.55,837.4 103.37,781.43 82.79,725.22 61.86,669.16 c -2.49,-7.26 -6.1,-14.32 -6.58,-22.1 -1.43,-12.84 10.9,-25.27 23.76,-23.9 5.09,0.17 10.44,2.32 13.14,6.86 3.88,6.18 6.41,13.08 9.02,19.86 4.06,11.23 8,22.51 11.98,33.76 30.49,0.04 60.98,0.01 91.47,0.02 6.33,-16.86 11.5,-34.23 19.73,-50.31 3.39,-6.79 11.12,-10.87 18.64,-10.23 12.35,0.28 22.67,12.71 20.9,24.89 -1.59,10.78 -6.31,20.72 -10.03,30.87 -18.55,48.41 -37.12,96.81 -55.66,145.23 -3.98,10.22 -6.71,21.09 -12.79,30.35 -4.27,6.85 -11.12,12.44 -19.23,13.75 -8.93,1.47 -19.03,0.81 -26.31,-5.12 m 734.69,12.16 c 9.25,1.72 19.52,-0.64 26.28,-7.44 7.19,-6.84 9.38,-17.21 9.51,-26.79 0.04,-35.34 0,-70.68 0.02,-106.03 -0.05,-15.29 -0.5,-31.07 4.84,-45.67 3.05,-8.52 10.09,-15.54 18.76,-18.25 9.36,-2.96 19.44,-3.09 29.11,-1.86 8.78,1.17 17.79,5.04 22.72,12.74 7.09,10.88 8.44,24.3 8.81,36.97 0.08,40.03 0.02,80.06 0.03,120.1 -0.06,9.56 1.53,19.85 7.9,27.38 10.67,12.54 32.41,12.5 43.3,0.25 6.49,-7.17 8.39,-17.25 8.43,-26.64 0,-37.66 -0.01,-75.31 0,-112.96 0.01,-16.19 -0.94,-32.54 -5.07,-48.26 -6.28,-26.18 -27.09,-47.89 -52.41,-56.53 -17.58,-6.06 -36.48,-6.78 -54.89,-5.65 -15.61,1.07 -31.38,3.91 -45.55,10.79 -14.98,7.22 -27.1,19.89 -34.21,34.87 -8.48,17.97 -10.83,38.14 -11.34,57.8 -0.14,39.31 -0.01,78.62 -0.06,117.94 -0.08,7.32 0.6,14.87 3.72,21.6 3.67,8.04 11.38,14.1 20.1,15.64 m 0,-7.04 c -4.5,-1.09 -8.55,-3.8 -11.38,-7.45 -4.5,-5.88 -5.45,-13.6 -5.53,-20.78 -0.01,-27.65 -0.01,-55.31 -0.01,-82.96 0.31,-23.73 -1.44,-47.8 3.83,-71.16 3.18,-15 9.81,-29.65 21.02,-40.37 14.09,-14.02 34.23,-19.43 53.47,-21.44 18.92,-1.7 38.45,-1.63 56.74,4.14 14.88,4.65 28.07,14.18 37.5,26.55 7.75,9.91 12.02,22.02 14.21,34.29 3.73,19.43 2.79,39.28 2.9,58.95 0,31.02 0.01,62.04 0,93.05 -0.15,7.76 -1.72,16.24 -7.49,21.89 -5.88,5.87 -15.09,7.17 -22.85,4.94 -5.87,-1.69 -10.67,-6.34 -12.8,-12.04 -3.65,-9.18 -2.43,-19.23 -2.65,-28.86 -0.02,-36.33 0.05,-72.65 -0.03,-108.97 -0.43,-14.1 -2.34,-29.04 -10.65,-40.87 -6.19,-8.93 -16.88,-13.51 -27.36,-14.84 -10.68,-1.3 -21.76,-1.02 -32.05,2.34 -10.47,3.42 -18.97,11.93 -22.71,22.25 -4.93,13.47 -5.43,28.01 -5.3,42.2 -0.01,37.32 0.02,74.64 -0.01,111.97 -0.15,7.76 -1.61,16.32 -7.49,21.92 -5.51,5.48 -13.98,6.96 -21.36,5.25 m -556.88,-5.9 c 6.33,7.01 16.2,9.3 25.3,9.44 22,0.05 44.01,0.01 66.02,0.02 17.75,-0.01 36.23,0.24 52.89,-6.78 15.95,-6.7 28.4,-20.71 34.4,-36.81 5.41,-14.07 5.6,-29.98 1.03,-44.3 -3.87,-12.11 -12.09,-22.54 -22.38,-29.9 13.3,-6.63 24.93,-17.38 30.74,-31.25 6.58,-15.66 6.84,-33.59 2.38,-49.85 -5.47,-19.23 -19.44,-36.07 -37.81,-44.18 -16.4,-7.13 -34.59,-8.11 -52.23,-8.5 -24.71,-0.07 -49.41,-0.02 -74.11,-0.03 -9.21,0.02 -19.25,2.13 -25.71,9.19 -6.57,7.14 -8.28,17.28 -8.36,26.64 0,60 0,119.99 0,179.98 0.1,9.2 1.64,19.13 7.84,26.33 m 5.38,-4.35 c -5.19,-5.97 -6.16,-14.3 -6.3,-21.91 -0.01,-60 -0.01,-120 0,-180 0.11,-7.61 1.16,-15.94 6.4,-21.88 5.22,-5.68 13.4,-7.03 20.77,-7.05 25.01,0.01 50.03,-0.05 75.04,0.03 16.5,0.41 33.54,1.31 48.86,8.05 18.63,8.38 31.96,26.77 35.23,46.81 2.54,15.79 0.79,33.07 -8.43,46.53 -8.2,12.11 -21.4,19.75 -34.99,24.36 14.69,6.96 27.61,19.3 31.79,35.41 3.58,13.07 2.83,27.35 -2.56,39.83 -6.1,14.39 -18.02,26.67 -32.95,31.78 -11.5,4.08 -23.85,4.69 -35.93,4.93 -25.34,0.03 -50.68,0.01 -76.02,0.01 -7.38,-0.06 -15.54,-1.37 -20.91,-6.9 m 774.63,8.3 c 7.24,5.33 16.61,5.8 25.27,5.51 46.35,0 92.71,0 139.06,0.01 7.98,0.1 16.53,-1.58 22.56,-7.16 11.07,-9.91 11.13,-29.4 0.16,-39.41 -5.55,-5.23 -13.39,-7.16 -20.83,-7.28 -14.72,-0.06 -29.43,0 -44.14,-0.03 -0.01,-55.3 0,-110.61 -0.01,-165.91 -0.01,-9.57 -2,-19.85 -8.74,-27.06 -10.45,-11.66 -30.81,-11.69 -41.51,-0.36 -7.22,7.08 -9.39,17.63 -9.36,27.39 -0.01,55.32 0,110.63 0,165.94 -14.74,0.02 -29.47,-0.02 -44.2,0.03 -7.42,0.12 -15.27,2.06 -20.68,7.45 -11.42,10.63 -10.65,31.88 2.42,40.88 m 4.38,-5.35 c -10.62,-6.97 -10.44,-24.75 -0.25,-32.04 4.36,-3.18 9.93,-3.97 15.2,-4.04 16.68,-0.02 33.36,0.01 50.04,-0.01 0.01,-54.25 0,-108.51 0,-162.76 0.13,-7.94 -0.67,-16.14 1.97,-23.79 2.31,-7.24 8.54,-13.25 16.09,-14.71 6.97,-1.34 14.87,0.04 20.01,5.25 6.17,5.95 7.64,14.98 7.71,23.19 0.03,57.61 -0.02,115.22 0.02,172.82 16.36,0 32.72,0.01 49.09,0 5.58,0 11.5,0.72 16.21,3.97 10.09,6.93 10.47,23.77 0.99,31.38 -4.52,3.64 -10.52,4.65 -16.16,4.69 -48.34,0.02 -96.68,-0.01 -145.02,0.01 -5.5,0.06 -11.27,-0.79 -15.9,-3.96 M 633.43,858.5 c 33.67,12.77 72.76,10.39 104.55,-6.58 31.48,-16.43 55.49,-46.55 64.25,-80.99 7.25,-27.4 4.77,-57.06 -6.25,-83.12 6.2,17.68 9.39,36.54 7.73,55.29 -2.51,34.33 -20.16,67.1 -47.21,88.34 -28.63,23 -67.66,32.06 -103.54,24.42 -32.79,-6.72 -62.35,-27.31 -80.2,-55.59 -20.05,-31.13 -24.96,-71.32 -13.26,-106.42 1.99,-6.31 4.78,-12.31 7.51,-18.33 -19.11,33.37 -21.9,75.44 -7.33,111.02 13.13,32.87 40.56,59.66 73.75,71.96 m 4.44,-14.37 c 32.95,12.05 71.22,8.28 101.13,-10.08 27.1,-16.41 47.47,-44.09 53.89,-75.22 -9.15,33.8 -34.58,62.49 -66.62,76.4 -33.16,14.67 -73.05,12.94 -104.74,-4.73 -30.32,-16.47 -52.74,-46.77 -59.35,-80.67 -1.42,-6.27 -1.64,-12.71 -2.62,-19.04 0.42,13.63 1.94,27.36 6.53,40.28 11.23,33.55 38.43,61.24 71.78,73.06 m -275.3,-15.58 c 13.5,-0.03 27.01,0.07 40.52,-0.05 10.62,-0.29 21.5,-0.99 31.48,-4.93 5.44,-2.08 9.95,-6.45 12.01,-11.92 4.56,-12.26 2.1,-27.46 -7.83,-36.44 -7.57,-6.63 -18.19,-7.38 -27.77,-7.99 -16.14,-0.29 -32.28,-0.06 -48.42,-0.13 0,20.49 -0.02,40.98 0.01,61.46 m 6.92,-6.96 c 0,-15.87 0,-31.74 0,-47.61 9.5,0 19.01,0 28.52,0 9.75,0.01 19.73,-0.23 29.18,2.57 4.73,1.34 8.72,4.71 11.09,8.98 3.95,6.36 4.33,14.36 2.56,21.47 -1.06,4.54 -4.33,8.47 -8.73,10.09 -8.63,3.43 -18.04,4.08 -27.22,4.43 -11.8,0.16 -23.6,0.04 -35.4,0.07 m 293,4.67 c 28.41,5.25 58.92,-3.93 79.76,-23.92 13.09,-10.69 23.81,-24.36 30.42,-39.95 9.19,-21.23 10.74,-45.6 4.59,-67.87 -8.11,-29.95 -30.69,-55.48 -59.38,-67.29 -23.16,-9.74 -49.91,-10.46 -73.58,-2.09 -29.96,10.39 -54.3,35.46 -63.72,65.74 -7.03,22.12 -6.3,46.66 2.2,68.28 6.36,16.42 17.09,31.12 30.74,42.23 5.24,4.08 10.19,8.57 15.88,12.04 10.06,6.36 21.37,10.74 33.09,12.83 m -6.57,-8.79 c -13.79,-5.51 -25.33,-16.33 -31.76,-29.72 -5.63,-11.48 -7.13,-24.73 -5.01,-37.29 -1.22,19.56 7.53,39.48 23.3,51.25 10.9,8.4 24.82,12.78 38.58,12.08 16.36,-0.58 32.23,-8.5 42.69,-21.07 9.91,-11.57 14.76,-27.06 13.81,-42.22 2.37,12.93 0.53,26.64 -5.48,38.35 -6.18,12.24 -16.68,22.23 -29.22,27.78 -14.66,6.59 -32.02,6.89 -46.91,0.84 m -23.4,-38.05 c -6.18,-11.18 -7.54,-24.55 -4.97,-36.97 -0.54,12.73 3.15,25.72 11.31,35.62 10.15,12.82 26.73,20.18 43.06,19.01 15.28,-0.86 29.86,-9.11 38.59,-21.66 6.81,-9.53 9.81,-21.39 9.25,-33.03 1.37,7.09 1.85,14.43 0.47,21.55 -2.56,14.94 -12.11,28.44 -25.23,36 -9.89,5.83 -21.75,8.14 -33.12,6.63 -16.49,-1.98 -31.59,-12.5 -39.36,-27.15 m 7.1,-14.28 c -4.95,-9.64 -5.27,-20.91 -3.02,-31.34 -0.25,8.64 0.95,17.55 5.37,25.13 6.42,11.68 18.73,19.88 32.02,21.17 14.31,1.66 29.15,-4.83 37.7,-16.4 7.23,-9.34 9.62,-21.68 7.78,-33.22 1.27,4.44 2.49,8.93 2.61,13.57 0.71,12.71 -4.62,25.55 -14.05,34.08 -9.8,9.13 -23.99,13.22 -37.15,10.72 -13.41,-2.34 -25.37,-11.45 -31.26,-23.71 m -26.85,-43.33 c 5.66,-14.37 16.19,-26.77 29.46,-34.69 14.79,-8.97 32.95,-12.14 49.92,-8.81 15.51,2.95 29.92,11.31 40.19,23.3 11.96,13.7 18.21,32.16 17.12,50.3 -0.57,12.47 -4.94,24.48 -11.38,35.08 6.02,-12.39 9.27,-26.33 7.47,-40.12 -1.89,-17.37 -11,-33.77 -24.63,-44.67 -11.98,-9.75 -27.42,-15.1 -42.87,-14.88 -15.32,0.06 -30.53,5.62 -42.29,15.44 -13.04,10.72 -21.8,26.5 -23.85,43.27 -1.88,13.83 0.94,28.07 7.31,40.44 -12.47,-18.82 -14.9,-43.74 -6.45,-64.66 m -5.22,-29.41 c 9.19,-15.15 23.32,-27.28 39.79,-33.88 18.44,-7.54 39.66,-8.01 58.45,-1.38 16.25,5.66 30.6,16.59 40.44,30.71 19.24,26.76 19.88,65.2 1.51,92.58 7.84,-16.58 10.13,-35.83 5.41,-53.63 -4.74,-18.72 -16.88,-35.41 -33.18,-45.76 -14.11,-9.11 -31.29,-13.33 -48.02,-11.89 -16.2,1.3 -31.91,7.92 -44.15,18.62 -12.64,10.89 -21.57,26.01 -24.97,42.35 -3.66,17.06 -1.23,35.28 6.61,50.85 -17.74,-25.84 -18.36,-61.95 -1.89,-88.57 m -22.44,10.52 c 7.49,-30.93 31.39,-57.18 61.46,-67.57 21.68,-7.71 46.16,-7.28 67.55,1.24 15.74,6.18 29.76,16.65 40.22,29.93 11.65,14.64 18.85,32.77 20.39,51.42 1.66,18.41 -2.22,37.2 -10.81,53.55 2.29,-6.56 4.63,-13.14 5.74,-20.03 3.68,-20.46 0.2,-42.15 -9.82,-60.39 -9.51,-17.51 -24.85,-31.79 -43.01,-39.98 -17.06,-7.8 -36.54,-10.09 -54.96,-6.68 -16.29,2.94 -31.7,10.47 -44.11,21.4 -15.38,13.42 -26.1,32.08 -29.85,52.16 -3.56,18.19 -1.17,37.26 5.94,54.32 -11.33,-21.01 -14.56,-46.21 -8.74,-69.37 m 62.56,52.46 c -5.16,-7.7 -7.07,-17.41 -5.44,-26.51 1.48,-9.24 7,-17.46 14.13,-23.34 1.54,-0.01 3.08,0.22 4.63,-0.17 -4,2.91 -5.76,7.86 -6.7,12.53 -1.82,9.95 3.34,20.59 12.22,25.4 8.27,4.73 19.29,3.92 26.76,-2 7.02,-5.27 10.68,-14.54 9.23,-23.2 -0.72,-5.1 -3.37,-9.66 -6.68,-13.52 7.33,6.15 11.52,15.98 10.04,25.53 -1.51,12.39 -12.35,22.81 -24.79,23.79 -12.23,1.42 -24.66,-6.45 -28.73,-18.04 -3.03,-8.09 -1.98,-17.61 2.88,-24.78 0.61,-1.23 1.99,-2.3 1.74,-3.82 -0.91,0.11 -1.78,0.32 -2.63,0.62 -7.49,8.67 -10.82,20.99 -7.34,32.07 3.87,13.83 17.61,24.08 32,23.64 14.94,0.2 28.88,-11.17 31.94,-25.75 2.62,-10.86 -1.12,-22.42 -8.44,-30.65 6.76,6.54 11.77,15.23 12.45,24.75 1.23,11.95 -4,24.29 -13.36,31.79 -7.88,6.53 -18.6,9.43 -28.7,7.85 -10.2,-1.47 -19.63,-7.53 -25.21,-16.19 m 12.29,-34.35 c -0.44,-5.25 1.85,-10.28 5.2,-14.21 -3.55,6.22 -3.29,14.75 2.04,19.89 5.81,6.26 16.68,6.22 22.44,-0.08 5.31,-5.21 5.54,-13.85 1.77,-20.02 4.83,5.24 6.93,13.06 4.23,19.82 -2.8,7.83 -11.35,13.01 -19.59,11.81 -8.57,-0.94 -15.73,-8.59 -16.09,-17.21 m 10.88,-0.82 c -4.61,-4.17 -4.18,-11.71 0.04,-16 -0.88,2.78 -1.31,6 0.43,8.57 2.55,4.49 9.42,5.27 12.94,1.51 2.85,-2.6 2.67,-6.78 1.85,-10.23 2.89,3.89 4.47,9.34 1.71,13.74 -3.18,6.02 -12.24,7.33 -16.97,2.41 m 5.7,-9.94 c -3.17,-1.47 -3.37,-6.44 -0.27,-8.1 2.81,-1.95 7.06,0.4 7.08,3.77 0.27,3.42 -3.83,6.08 -6.81,4.33 M 158.35,818.06 c 11.32,-32.67 22.67,-65.34 34.03,-98.01 -22.4,-0.18 -44.8,-0.05 -67.2,-0.06 11.01,32.71 22.11,65.38 33.17,98.07 m -2.18,-28.01 c -7.1,-21.05 -14.25,-42.08 -21.35,-63.12 15.94,0 31.89,-0.01 47.83,0 -8.03,23.16 -16.07,46.32 -24.12,69.47 -0.95,-2.05 -1.67,-4.2 -2.36,-6.35 m 206.39,-57.5 c 17.15,-0.02 34.31,0.06 51.46,-0.04 10.87,-0.41 22.29,-1.81 31.63,-7.82 7.57,-4.89 11.55,-13.86 11.99,-22.66 0.83,-10.1 -1.58,-21.28 -9.48,-28.22 -9.03,-7.99 -21.6,-9.91 -33.23,-10.34 -17.46,-0.1 -34.91,-0.02 -52.37,-0.04 -0.01,23.04 -0.01,46.08 0,69.12 m 6.92,-6.92 c 0.02,-18.43 0.02,-36.85 0,-55.27 15.14,-0.01 30.28,-0.08 45.42,0.03 9.86,0.43 20.57,1.76 28.4,8.34 6.92,5.93 8.26,15.84 7.3,24.41 -0.6,6.64 -4,13.25 -9.97,16.54 -8.39,4.67 -18.23,5.63 -27.66,5.93 -14.5,0.07 -29,0.03 -43.49,0.02 M 574.59,585.24 c 12.43,1.71 25.7,1.03 37.09,-4.64 8.04,-3.94 14.63,-11.06 17.09,-19.75 3.11,-10.84 1.8,-23.43 -5.25,-32.5 -6.02,-7.84 -15.46,-12.44 -25.06,-14.09 -9.04,-1.5 -18.4,-1.45 -27.36,0.51 -8.77,1.92 -17.31,6.3 -22.82,13.56 -7.97,10.61 -9.16,25.8 -3.21,37.62 5.48,11.21 17.56,17.57 29.52,19.29 m 1.96,-4.02 c -9.17,-1.2 -18.49,-4.85 -24.46,-12.19 -8.37,-10.33 -8.57,-26.12 -1.21,-37.04 4.59,-6.76 12.19,-10.89 19.99,-12.8 9.04,-2.17 18.54,-2.23 27.67,-0.6 9.44,1.78 18.76,6.84 23.65,15.37 4.52,8.03 4.99,18.02 2.19,26.7 -2.48,7.63 -8.7,13.55 -15.92,16.77 -9.94,4.48 -21.22,5.03 -31.91,3.79 m 67.79,4.3 c 4.55,1.18 9.9,0.56 13.48,-2.71 2.45,-2.2 3.43,-5.59 3.38,-8.81 0.04,-10.35 -0.03,-20.71 0.03,-31.06 0.01,-3.75 0.94,-8.4 4.96,-9.78 5.31,-1.84 11.32,-1.77 16.69,-0.23 3.91,1.1 5.49,5.44 5.49,9.13 0.11,10.65 -0.01,21.31 0.05,31.96 0,2.37 0.43,4.8 1.71,6.82 5.5,8.65 22.24,6.39 23.35,-4.56 0.35,-10.73 0.05,-21.48 0.14,-32.23 0.03,-7.57 -1.56,-15.87 -7.4,-21.2 -8.48,-8.2 -20.94,-9.9 -32.24,-9.61 -10.2,0.29 -21.37,1.42 -29.38,8.39 -6.16,5.21 -8.5,13.53 -8.58,21.34 -0.03,10.68 -0.09,21.37 0.02,32.05 -0.08,4.92 3.56,9.36 8.3,10.5 m 1.04,-4.14 c -2.89,-0.7 -5.14,-3.35 -5.08,-6.37 -0.17,-10.34 -0.04,-20.7 -0.06,-31.05 -0.01,-7 1.73,-14.69 7.39,-19.34 7.01,-5.85 16.6,-6.73 25.36,-7.11 10.27,-0.28 21.67,0.69 29.7,7.83 5.41,4.5 6.68,11.96 6.69,18.62 -0.03,10.34 0.1,20.69 -0.06,31.03 0,8.63 -15.23,9.37 -16.49,1.07 -0.4,-8.68 -0.05,-17.4 -0.17,-26.1 -0.11,-5.67 0.79,-11.98 -2.68,-16.91 -2.91,-4.16 -8.36,-5.22 -13.1,-5.44 -5.12,-0.14 -10.73,0.05 -15.03,3.17 -3.55,2.52 -4.65,7.1 -4.83,11.21 -0.28,11.3 0.18,22.62 -0.22,33.91 -0.57,5.31 -7.09,6.82 -11.42,5.48 m 81.48,0.76 c 3.41,2.75 8.02,2.92 12.2,2.89 10.32,-0.09 20.64,0.13 30.96,-0.13 8.12,-0.19 16.87,-2.04 22.79,-8.01 5.54,-5.5 7.21,-14.48 3.73,-21.52 -2.4,-5.1 -7.41,-8.28 -12.45,-10.34 6.03,-5.32 11.37,-11.6 14.88,-18.89 1.48,-2.86 0.99,-6.53 -1.24,-8.87 -3.69,-4.02 -9.87,-4.82 -14.92,-3.4 -5.44,1.69 -8.46,6.87 -11.91,10.99 -3.84,4.5 -7.04,9.62 -11.61,13.44 -3.07,2.64 -7.32,2.58 -11.13,2.64 -0.04,-5.31 0.04,-10.62 -0.02,-15.93 0.03,-3.19 -1.05,-6.52 -3.52,-8.66 -3.89,-3.45 -9.75,-3.86 -14.52,-2.22 -4.46,1.53 -7.33,6.16 -7.14,10.81 -0.04,16.03 -0.03,32.06 -0.01,48.09 -0.07,3.4 1.12,6.99 3.91,9.11 m 3.7,-2.64 c -2.4,-1.15 -3.47,-3.87 -3.32,-6.41 0.01,-16.36 -0.1,-32.72 0.05,-49.08 0.28,-8.45 15.09,-8.92 16.44,-0.86 0.38,7.32 0.05,14.67 0.16,22 6.26,0.02 13.41,0.68 18.45,-3.83 6.84,-6.2 11.56,-14.34 17.91,-21 3.26,-3.38 8.8,-3.66 12.79,-1.48 1.74,0.95 3.28,3.13 2.22,5.12 -1.85,4.27 -4.69,8.04 -7.65,11.59 -4.06,4.48 -8.59,8.91 -14.4,10.96 6.04,1.28 12.52,2.79 17.07,7.28 4.85,4.79 5.04,13.1 0.93,18.42 -4.44,5.93 -12.23,7.96 -19.29,8.32 -9.96,0.49 -19.93,0.13 -29.89,0.25 -3.83,-0.12 -7.91,0.43 -11.47,-1.28 M 580.5,571.29 c 9.2,1.47 20.27,-0.84 25.51,-9.25 5.72,-9.78 3.94,-24.55 -6.18,-30.8 -8.3,-4.82 -19.41,-5.06 -27.72,-0.13 -10.13,6.05 -12.12,20.6 -6.68,30.44 2.98,5.57 9.01,8.75 15.07,9.74 m -2.09,-4.85 c -14.27,-3.33 -15.71,-25.92 -3.12,-32.27 7.17,-3.53 16.43,-3.19 23.13,1.25 7.19,5.25 8.13,15.98 4.45,23.57 -4.67,8.36 -16,9.82 -24.46,7.45 m 165.49,4.78 c 8.05,-0.16 16.15,0.39 24.19,-0.45 4.15,-0.41 9.04,-3.04 9.1,-7.75 0.43,-4.02 -3.17,-6.94 -6.77,-7.66 -8.71,-1.93 -17.7,-0.88 -26.54,-1.13 0.02,5.66 0,11.32 0.02,16.99 m 4.25,-4.26 c 0,-2.83 0,-5.67 0.02,-8.51 7.57,0.32 15.46,-0.88 22.77,1.6 3.37,0.98 1.96,5.61 -1.07,5.97 -7.09,1.68 -14.5,0.66 -21.72,0.94 m -5.88,-112.27 c 9.91,4.98 21.91,5.15 32.33,1.68 11.71,-4.24 19.14,-15.24 23.76,-26.28 22.5,-61.04 46.16,-121.66 68.99,-182.58 2.36,-7.21 4.89,-14.71 4.11,-22.4 -1.3,-11.61 -10.1,-22.12 -21.46,-25.09 -12.25,-3.59 -26.48,2.62 -31.54,14.47 -7.16,14.52 -11.98,30.02 -17.55,45.19 -26.95,-0.01 -53.89,0.01 -80.83,-0.01 -4.19,-11.73 -8.06,-23.58 -12.56,-35.2 -2.56,-6.15 -5.02,-12.51 -9.2,-17.77 -5.37,-6.43 -14.42,-8.31 -22.41,-7.39 -9.17,1.03 -16.91,7.43 -21.57,15.12 -4.94,8.29 -4.15,18.66 -1.09,27.46 17.43,47.75 35.11,95.42 52.64,143.14 5.54,15.05 11.04,30.12 16.93,45.04 3.97,9.79 9.79,19.56 19.45,24.62 m -3.1,-10.85 c -8.59,-8.98 -11.63,-21.47 -16.21,-32.68 -20.35,-54.71 -40.34,-109.55 -60.59,-164.29 -2.23,-6.11 -4.77,-12.29 -4.67,-18.92 -0.17,-8.83 6.15,-16.71 13.86,-20.36 8.13,-3.36 19.74,-1.68 23.8,7.01 8.53,16.51 13.31,34.61 19.79,51.96 30.21,0.05 60.43,0.03 90.65,0.01 6.25,-16.82 11.37,-34.15 19.5,-50.21 3.2,-6.53 10.42,-10.67 17.66,-10.33 9.64,-0.16 18.23,7.21 20.89,16.24 1.29,4.16 0.92,8.62 -0.06,12.79 -2.22,9.69 -6.32,18.79 -9.72,28.09 -18.15,47.82 -36.34,95.62 -54.48,143.43 -4.05,10.44 -6.76,21.56 -12.97,31.01 -4.14,6.58 -10.66,12.03 -18.45,13.44 -10.03,1.94 -21.65,0.56 -29,-7.19 m -525.79,4.9 c 6.1,4.74 14.06,6.14 21.61,5.96 47.71,-0.03 95.41,0.01 143.12,-0.02 7.38,-0.05 15.15,-1.81 20.78,-6.84 11.42,-9.92 11.51,-29.9 0.23,-39.96 -5.67,-5.21 -13.61,-7.01 -21.12,-7.05 -14.32,-0.01 -28.65,0 -42.97,0 -0.02,-55.62 0.02,-111.23 -0.02,-166.84 -0.11,-9.54 -2.33,-19.76 -9.26,-26.76 -10.75,-11.31 -31.09,-10.77 -41.32,1 -7.7,8.18 -8.91,20.07 -8.61,30.78 0,53.94 0,107.88 0,161.81 -14.28,0.01 -28.56,0 -42.83,0.01 -7.28,0.03 -15,1.65 -20.55,6.64 -12.01,10.24 -11.87,31.75 0.94,41.27 m 4.89,-4.97 c -10.39,-7.05 -10.24,-24.51 -0.29,-31.89 4.28,-3.22 9.82,-4.06 15.04,-4.11 16.58,-0.01 33.15,0.01 49.73,-0.01 0.02,-57.91 -0.02,-115.81 0.02,-173.72 0.11,-7.53 1.53,-15.7 6.94,-21.34 8.11,-9.08 24.36,-9.02 32.12,0.48 5.04,6.03 6.2,14.22 6.29,21.82 0.01,57.59 -0.01,115.18 0.01,172.76 16.61,0.02 33.23,0 49.84,0.01 5.28,0.06 10.82,0.97 15.17,4.16 9.84,7.2 9.97,23.98 0.36,31.41 -4.64,3.59 -10.71,4.48 -16.42,4.44 -47.69,-0.01 -95.38,-0.01 -143.06,0 -5.46,0.07 -11.19,-0.83 -15.75,-4.01 m 226.08,-3.12 c 5.82,10.34 18.39,14.28 29.64,14.04 40.01,0 80.02,0.01 120.03,-0.01 7.11,0.01 14.63,-1.76 19.92,-6.78 10.83,-9.35 10.69,-28.35 -0.13,-37.65 -5.3,-4.94 -12.78,-6.65 -19.84,-6.66 -31.76,-0.01 -63.52,0 -95.28,0 0,-14.84 0,-29.69 0,-44.53 29.09,-0.01 58.18,0.01 87.26,-0.01 6.72,-0.02 13.85,-1.54 18.98,-6.16 11.29,-9.67 10.72,-29.8 -1.17,-38.75 -5.04,-3.85 -11.53,-5.22 -17.76,-5.26 -29.1,-0.01 -58.21,0.01 -87.31,-0.01 0,-17.81 0,-35.63 0,-53.44 33.11,-0.03 66.22,0.01 99.33,-0.02 9.08,0.06 18.96,-3.51 23.66,-11.74 6.3,-10.94 4.88,-26.92 -5.43,-34.98 -5.44,-4.22 -12.5,-5.63 -19.25,-5.59 -41.36,0.01 -82.71,-0.03 -124.06,0.01 -9.16,0.09 -19.02,2.43 -25.4,9.44 -6.46,7.12 -7.98,17.19 -8.05,26.46 -0.01,57.67 0,115.35 0,173.02 -0.13,9.68 -0.13,19.98 4.86,28.62 m 12.63,3.22 c -4.15,-2.37 -7.12,-6.46 -8.57,-10.97 -2.5,-7.36 -1.94,-15.24 -2,-22.89 0.02,-57.36 -0.02,-114.72 0.02,-172.09 0.15,-8.6 1.88,-18.72 9.77,-23.68 6.44,-4.12 14.38,-4.3 21.79,-4.28 38.99,0.01 77.98,0.01 116.97,0 6.28,-0.05 13.21,0.6 18.05,5.05 6.53,6.32 7.01,17.24 2.82,24.95 -3.87,6.92 -12.47,8.79 -19.81,8.56 -34.75,-0.01 -69.49,-0.01 -104.24,0 -0.05,22.42 0.09,44.84 -0.07,67.25 31.41,0.05 62.83,-0.01 94.24,0.03 6.51,-0.06 13.75,2.04 17.33,7.89 4.52,7.49 3.79,18.59 -3.28,24.3 -3.87,3.27 -9.13,4.08 -14.03,4.15 -31.39,0 -62.79,0 -94.18,0 -0.04,19.46 0.02,38.93 -0.03,58.4 32.75,0 65.5,0.01 98.26,-0.01 6.03,-0.11 12.62,0 17.7,3.7 9.26,6.31 9.88,21.7 1.29,28.82 -4.06,3.64 -9.71,4.72 -15,4.71 -39.65,0.03 -79.31,0 -118.96,0.02 -6.2,0.07 -12.66,-0.67 -18.07,-3.91 m 460.98,3.24 c 8.71,6.88 20.29,7.95 31,7.58 11.41,-0.27 24.15,1.28 34.09,-5.56 8.13,-5.61 9.97,-15.89 12.53,-24.75 9.25,-36.68 18.43,-73.38 27.53,-110.1 8.37,34.06 16.86,68.08 25.28,102.13 1.94,7.6 3.75,15.29 6.62,22.61 2.78,6.87 8.95,12.16 16.14,13.93 9.76,2.48 19.92,1.54 29.88,1.75 9.87,0.19 20.44,-1.8 28.06,-8.49 6.61,-6.1 8.3,-15.6 8.37,-24.2 0.01,-62.98 0,-125.96 0,-188.94 -0.01,-9.2 -1.89,-19.15 -8.52,-25.99 -9.42,-10.11 -27.11,-10.79 -37.14,-1.23 -6.77,6.06 -9.36,15.38 -9.7,24.18 -0.36,36.03 0.27,72.07 -0.32,108.09 -4.24,-20.71 -9.62,-41.17 -14.31,-61.78 -3.67,-15.32 -7.16,-30.69 -10.96,-45.99 -1.56,-7.14 -3.87,-14.35 -8.81,-19.92 -10.98,-14.83 -35.69,-15.13 -47.78,-1.55 -6.46,7.11 -9.41,16.59 -11.54,25.76 -5.24,22.26 -10.51,44.52 -15.77,66.78 -2.76,12.23 -6.03,24.34 -8.42,36.65 -0.48,-35.69 0,-71.39 -0.24,-107.08 -0.24,-8.89 -2.57,-18.39 -9.26,-24.69 -9.81,-9.74 -27.49,-9.63 -37.14,0.29 -6.98,6.81 -9,17.02 -9,26.41 -0.01,63 -0.01,125.99 0,188.99 0.04,9.02 1.99,19.17 9.41,25.12 m 4.38,-5.33 c -5.76,-4.72 -6.73,-12.75 -6.88,-19.73 -0.03,-63.03 -0.02,-126.06 -0.01,-189.09 0.09,-7.57 1.35,-15.92 6.99,-21.48 7.27,-7.41 20.7,-7.32 27.86,0.21 5.26,5.32 6.56,13.16 6.77,20.33 0.14,55.06 -0.14,110.12 0.14,165.18 10.47,-45.6 21.48,-91.07 32.16,-136.63 2.51,-10.28 4.69,-20.64 7.41,-30.87 2.52,-8.79 7.17,-18 16.04,-21.77 7.56,-2.89 16.68,-2.72 23.73,1.46 5.85,4.15 10.23,10.47 11.91,17.46 3.4,13.01 6.32,26.14 9.46,39.21 10.27,43.73 20.8,87.4 30.9,131.17 0.17,-54.75 0.01,-109.5 0.08,-164.24 0.12,-7.5 1.31,-15.73 6.8,-21.31 4.38,-4.69 11.19,-6.46 17.42,-5.38 6.88,0.88 12.78,6 15.12,12.46 3.4,9.04 1.99,18.87 2.3,28.3 -0.01,58.34 0.01,116.68 -0.02,175.02 -0.13,6.75 -1.05,14.39 -6.3,19.21 -6.68,5.56 -15.79,6.71 -24.2,6.49 -9.09,-0.22 -18.36,0.72 -27.26,-1.54 -5.27,-1.31 -9.71,-5.29 -11.58,-10.38 -2.75,-7.36 -4.54,-15.03 -6.46,-22.63 -10.54,-42.53 -21.08,-85.07 -31.62,-127.6 -11.32,45.86 -22.82,91.68 -34.34,137.48 -2.36,7.66 -3.55,17.2 -11.33,21.42 -8.48,4.24 -18.33,2.99 -27.48,3.24 -9.44,0.25 -19.79,0.02 -27.61,-5.99 m -162.4,-40.55 c 11,-32.84 22.52,-65.52 33.69,-98.31 -22.19,0.01 -44.38,0.03 -66.58,-0.01 10.89,32.8 22.03,65.51 32.89,98.32 m -0.08,-22.28 c -7.8,-23.01 -15.46,-46.07 -23.2,-69.1 15.76,0 31.51,0 47.27,0 -6.56,19.12 -13.15,38.23 -19.73,57.35 -1.54,3.85 -2.42,8.23 -4.34,11.75 z"
       style="fill:#000000;fill-opacity:1;fill-rule:nonzero;stroke:#000000;stroke-width:0.09375;stroke-linecap:butt;stroke-linejoin:miter;stroke-miterlimit:10;stroke-dasharray:none;stroke-opacity:1"
       id="path3700"
       inkscape:connector-curvature="0" /></g></svg>