<?xml version="1.0" encoding="UTF-8" standalone="no"?>
<svg
   xmlns:dc="http://purl.org/dc/elements/1.1/"
   xmlns:cc="http://creativecommons.org/ns#"
   xmlns:rdf="http://www.w3.org/1999/02/22-rdf-syntax-ns#"
   xmlns:svg="http://www.w3.org/2000/svg"
   xmlns="http://www.w3.org/2000/svg"
   xmlns:sodipodi="http://sodipodi.sourceforge.net/DTD/sodipodi-0.dtd"
   xmlns:inkscape="http://www.inkscape.org/namespaces/inkscape"
   height="97.985954"
   id="Layer_1"
   version="1.1"
   viewBox="0 0 101.08475 97.985955"
   width="101.08475"
   xml:space="preserve"
   inkscape:version="0.91 r13725"
   sodipodi:docname="hamburger-menu.svg"><metadata
     id="metadata9"><rdf:RDF><cc:Work
         rdf:about=""><dc:format>image/svg+xml</dc:format><dc:type
           rdf:resource="http://purl.org/dc/dcmitype/StillImage" /><dc:title></dc:title></cc:Work></rdf:RDF></metadata><defs
     id="defs7" /><sodipodi:namedview
     pagecolor="#ffffff"
     bordercolor="#666666"
     borderopacity="1"
     objecttolerance="10"
     gridtolerance="10"
     guidetolerance="10"
     inkscape:pageopacity="0"
     inkscape:pageshadow="2"
     inkscape:window-width="718"
     inkscape:window-height="480"
     id="namedview5"
     showgrid="false"
     fit-margin-top="0"
     fit-margin-left="0"
     fit-margin-right="0"
     fit-margin-bottom="0"
     inkscape:zoom="5.2149125"
     inkscape:cx="55.231002"
     inkscape:cy="19.770704"
     inkscape:window-x="0"
     inkscape:window-y="23"
     inkscape:window-maximized="0"
     inkscape:current-layer="layer1" /><g
     inkscape:groupmode="layer"
     id="layer1"
     inkscape:label="Layer 1"
     transform="translate(1.0847458,13.298159)"><rect
       style="fill:#808080"
       id="rect3354"
       width="100.88136"
       height="73.220337"
       x="-1.0847458"
       y="-0.70701957"
       ry="0" /><rect
       style="fill:#808080"
       id="rect3356"
       width="100.81837"
       height="37.540291"
       x="-1.0847458"
       y="-13.298159"
       ry="0" /><rect
       style="fill:#808080"
       id="rect3360"
       width="100.8776"
       height="12.310074"
       x="-1.0847458"
       y="72.377724" /></g><path
     d="m 8.2276028,27.583874 85.7142862,0 c 3.942857,0 7.142861,-3.2 7.142861,-7.142858 0,-3.942857 -3.200004,-7.142857 -7.142861,-7.142857 l -85.7142862,0 c -3.942857,0 -7.142857,3.2 -7.142857,7.142857 0,3.942858 3.2,7.142858 7.142857,7.142858 z m 85.7142862,14.285714 -85.7142862,0 c -3.942857,0 -7.142857,3.2 -7.142857,7.142857 0,3.942857 3.2,7.142857 7.142857,7.142857 l 85.7142862,0 c 3.942857,0 7.142861,-3.2 7.142861,-7.142857 0,-3.942857 -3.200004,-7.142857 -7.142861,-7.142857 z m 0,28.571428 -85.7142862,0 c -3.942857,0 -7.142857,3.2 -7.142857,7.142858 0,3.942857 3.2,7.142857 7.142857,7.142857 l 85.7142862,0 c 3.942857,0 7.142861,-3.2 7.142861,-7.142857 0,-3.942858 -3.200004,-7.142858 -7.142861,-7.142858 z"
     id="path3"
     inkscape:connector-curvature="0" /></svg>