<?xml version="1.0" encoding="UTF-8" standalone="no"?>
<!-- Created with Inkscape (http://www.inkscape.org/) -->

<svg
   xmlns:dc="http://purl.org/dc/elements/1.1/"
   xmlns:cc="http://creativecommons.org/ns#"
   xmlns:rdf="http://www.w3.org/1999/02/22-rdf-syntax-ns#"
   xmlns:svg="http://www.w3.org/2000/svg"
   xmlns="http://www.w3.org/2000/svg"
   xmlns:sodipodi="http://sodipodi.sourceforge.net/DTD/sodipodi-0.dtd"
   xmlns:inkscape="http://www.inkscape.org/namespaces/inkscape"
   id="svg3522"
   version="1.1"
   inkscape:version="0.91 r13725"
   xml:space="preserve"
   width="1677.5"
   height="1373.75"
   viewBox="0 0 1677.5 1373.75"
   sodipodi:docname="HP-Robotics.svg"><metadata
     id="metadata3528"><rdf:RDF><cc:Work
         rdf:about=""><dc:format>image/svg+xml</dc:format><dc:type
           rdf:resource="http://purl.org/dc/dcmitype/StillImage" /><dc:title></dc:title></cc:Work></rdf:RDF></metadata><defs
     id="defs3526" /><sodipodi:namedview
     pagecolor="#ffffff"
     bordercolor="#666666"
     borderopacity="1"
     objecttolerance="10"
     gridtolerance="10"
     guidetolerance="10"
     inkscape:pageopacity="0"
     inkscape:pageshadow="2"
     inkscape:window-width="640"
     inkscape:window-height="480"
     id="namedview3524"
     showgrid="false"
     inkscape:zoom="0.17179254"
     inkscape:cx="838.75"
     inkscape:cy="686.875"
     inkscape:window-x="20"
     inkscape:window-y="43"
     inkscape:window-maximized="0"
     inkscape:current-layer="g3530" /><g
     id="g3530"
     inkscape:groupmode="layer"
     inkscape:label="HP-Robotics"
     transform="matrix(1.25,0,0,-1.25,0,1373.75)"><path
       d="m 633.02,883.19 c 72.93,8.45 148.34,-8.19 211.22,-45.99 52.79,-31.68 96.82,-77.91 125.34,-132.52 10.84,-20.65 19.55,-42.4 26.18,-64.75 10.4,0.19 20.81,0.09 31.22,0.1 4.31,0 8.73,0.27 12.91,-1.05 7.25,-2.17 13.76,-6.92 17.84,-13.33 5.49,-8.37 7.25,-18.94 5.26,-28.72 -1.34,-7.53 -6.44,-14.66 -13.79,-17.28 1.87,-4.77 5.54,-8.6 7.07,-13.54 1.78,-5.47 4.13,-11.18 3.03,-17.04 -0.54,-3.17 -0.62,-6.39 -1.02,-9.57 -0.87,-3.18 -2.53,-6.06 -3.63,-9.16 -5.28,-12.97 -17.12,-22.19 -29.96,-27.03 -7.1,-2.41 -14.67,-2.72 -21.98,-4.19 0.39,-4.7 -0.49,-9.36 -1.93,-13.82 -1.66,-4.95 -0.78,-10.42 -2.94,-15.24 -2.75,-6.76 -3.68,-14.04 -5.73,-21 -2.81,-7.66 -4.83,-15.61 -8.04,-23.12 -3.64,-7.25 -6.69,-14.78 -9.83,-22.26 -9.17,-17.39 -18.2,-35.05 -30.09,-50.81 -3.81,-4.28 -6.3,-9.54 -10.22,-13.73 -3.72,-3.67 -6.4,-8.22 -10.14,-11.88 -11.79,-13.2 -24.39,-25.72 -37.93,-37.11 -4.03,-4.46 -9.48,-7.13 -14.05,-10.94 -16.01,-13.04 -34.24,-22.92 -52.38,-32.63 -6.48,-3.46 -13.44,-5.87 -20.02,-9.11 -4.45,-2.25 -9.42,-3.04 -14.01,-4.92 -6.99,-2.69 -13.82,-6.08 -21.32,-7.11 -5.23,-0.73 -9.77,-3.91 -15.05,-4.37 -11.17,-1.34 -21.85,-5.5 -33.15,-5.92 -9.18,-2.03 -18.57,-2.69 -27.94,-3.09 -7.6,-1.31 -15.31,-0.53 -22.96,-0.76 -2.96,-0.06 -5.94,-0.13 -8.86,0.42 -5.31,1.07 -10.77,0.24 -16.09,1.18 -6.75,0.55 -13.28,2.43 -20.01,3.08 -10.04,1.52 -20.37,2.29 -29.88,6.11 -2.74,0.96 -5.76,0.58 -8.46,1.62 -2.55,0.99 -5.03,2.23 -7.74,2.68 -9.04,1.63 -17.26,5.88 -25.86,8.88 -12.63,4.38 -24.49,10.55 -36.38,16.58 -7.7,4.11 -14.95,9 -22.54,13.3 -6.55,3.13 -11.95,8.05 -17.85,12.17 -7.19,6.17 -15.3,11.2 -22.01,17.92 -6.22,5.11 -12.54,10.17 -17.49,16.59 -6.92,6.73 -13.54,13.75 -19.54,21.32 -6.11,6.09 -10.72,13.42 -15.76,20.37 -9.46,11.41 -16.14,24.73 -23.28,37.62 -2.55,4.01 -3.88,8.63 -6.37,12.66 -8.52,15.03 -13.32,31.74 -18.99,47.96 -1.66,4.74 -1.81,9.84 -3.37,14.6 -1.42,4.24 -1.77,8.74 -3.24,12.96 -2.32,5.96 -1.56,12.52 -3.38,18.61 -2.11,6.37 -0.92,13.18 -2.61,19.63 -1.19,-5.26 -4.55,-9.87 -9.22,-12.57 -6.56,-4.28 -14.62,-4.3 -22.13,-5.05 -6.47,0.88 -13.25,0.99 -19.26,3.79 -4.29,2.51 -7.7,6.43 -10.14,10.71 -1.1,8.48 -0.68,17.1 0.46,25.55 0.7,4.94 -0.12,9.96 0.62,14.89 0.49,2.67 1.33,5.27 1.57,7.98 1.64,19.08 3.4,38.15 5.05,57.23 0.7,11.36 11.82,19.89 22.77,19.96 13.49,0.03 26.99,-0.12 40.48,0.06 17.17,60.52 51.78,115.89 98.51,157.99 52.05,47.2 119.2,77.41 189.04,85.09 m -76.81,-25.85 c 0.01,-16.1 0.31,-32.22 -0.14,-48.32 4.05,-0.3 8.11,-0.32 12.17,-0.21 0,-20.76 -0.06,-41.52 0.04,-62.29 -4.06,0.12 -8.1,-0.2 -12.12,-0.67 0.23,-15.96 0.11,-31.93 0.05,-47.89 23.61,-0.08 47.21,0.05 70.82,-0.06 1.74,-0.06 3.45,0.36 5.14,0.76 0.09,1.55 0.21,3.08 0.4,4.61 0.05,-1.77 0.03,-3.54 0.01,-5.31 4.44,-0.08 8.86,-0.62 13.31,-0.65 -0.26,-2.15 -0.54,-4.3 -0.78,-6.46 -4.19,0.52 -8.41,0.27 -12.58,-0.3 0.21,-16.01 0.14,-32.02 0.04,-48.04 12.78,-0.78 25.59,-0.63 38.38,-0.21 12.93,-0.45 25.88,-0.54 38.8,0.22 0.05,16.19 -0.94,32.37 -0.56,48.56 -4.66,-0.11 -9.33,0.05 -13.99,0.04 0.05,2.26 0.09,4.52 0.12,6.77 12.56,0.27 25.14,-0.28 37.7,0.22 3.97,0.21 8.02,0.15 11.88,1.28 10.58,2.64 21.28,6.74 29.06,14.66 17.64,17.72 19.83,48.59 4.57,68.46 -10.52,12.72 -27.3,18.88 -43.47,19.39 -13.2,-0.04 -26.4,-0.08 -39.6,0.42 0.15,2.16 0.24,4.32 0.26,6.48 4.66,0.42 9.35,0.67 14.04,0.45 -0.2,16.09 -0.06,32.18 -0.07,48.27 -25.58,-0.32 -51.17,-0.2 -76.74,-0.06 -0.88,-15.94 0.59,-31.91 -0.44,-47.84 -0.95,12.09 -0.05,24.22 -0.21,36.33 -0.05,4 -0.19,8.03 0.31,12.01 -25.45,-1.25 -50.94,-0.32 -76.4,-0.62 M 297.62,618.08 c -2.84,-32.04 -5.81,-64.07 -8.51,-96.12 -0.01,-3.41 4.03,-4.6 6.81,-4.79 6.04,0 12.1,-0.18 18.15,0.12 2.64,0.24 5.98,1.67 6.15,4.72 1.24,13.54 2.61,27.07 3.43,40.64 5.51,-0.14 11.02,0.01 16.54,-0.12 9.12,-15.47 18.57,-30.75 28.85,-45.48 2.53,0.16 5.11,-0.08 7.6,0.48 4.08,1.29 6.17,6.53 4.19,10.3 -6.2,12.43 -14,23.94 -21.58,35.54 8.9,0.83 17,6.03 22.1,13.26 7.38,10.03 9.07,24.5 2.65,35.41 -4.76,7.88 -13.81,12.58 -22.95,12.56 -18.32,0.1 -36.64,0.02 -54.96,0.03 -3.83,0.15 -8.53,-2.21 -8.47,-6.55 M 501.95,624 c -3.31,-0.33 -5.32,-3.82 -5.45,-6.9 -2.66,-30.38 -5.32,-60.77 -8.07,-91.15 -0.87,-3.42 0.39,-8.53 4.58,-8.77 18.01,-0.08 36.03,0.01 54.04,-0.02 5.92,-0.1 12,0.74 17.39,3.31 11.43,5.89 19.19,18.63 18.42,31.58 0.04,10.82 -7.24,21.22 -17.51,24.72 4.53,7.29 7.5,16.07 5.9,24.7 -1.5,7.19 -4.96,14.44 -11.21,18.64 -5.28,3.55 -11.87,3.99 -18.04,4.06 -13.34,0.72 -26.72,0.7 -40.05,-0.17 m 197.04,-15.25 c 8.55,-0.42 17.15,-0.15 25.72,-0.12 -2.37,-28.56 -5.05,-57.1 -7.5,-85.65 -0.34,-1.68 0.67,-3.17 1.24,-4.68 6.03,-1.77 12.35,-0.99 18.54,-1.17 3.12,0.01 6.53,-0.17 9.29,1.59 1.81,1.05 2.1,3.32 2.28,5.2 1.17,15.39 2.8,30.75 4,46.14 -0.08,2.21 0.69,4.84 -0.74,6.72 -4.01,2.73 -10.26,0.8 -13.2,5.27 -0.21,8.87 1.49,17.64 1.8,26.48 23.37,0.04 46.73,0.15 70.1,0.03 -2.15,-20.5 -3.75,-41.06 -5.65,-61.58 -0.35,-4.68 -1.16,-9.34 -0.9,-14.05 -8.96,-0.63 -17.96,0.28 -26.91,-0.46 -3.14,-1.49 -4.52,-5.22 -4.59,-8.51 -0.15,-2.76 1.06,-6.97 4.51,-6.78 22.88,0.09 45.78,-0.31 68.65,0.21 4.66,2.74 6.49,10.49 2.06,14.23 -4.18,1.11 -8.56,1.18 -12.83,1.68 1.38,12.59 2.29,25.22 3.62,37.8 0.16,2.06 0.44,4.63 -1.47,5.99 -4.03,2.15 -9.81,0.9 -12.75,4.87 0.06,8.9 1.61,17.72 1.8,26.62 8.29,-0.02 16.59,-0.06 24.88,0 5.88,-0.32 7.85,6.95 6.94,11.61 -0.12,3.37 -3.99,4.7 -6.85,4.47 -49.96,-0.17 -99.92,0.07 -149.88,-0.09 -7.56,-0.48 -9.06,-13.29 -2.16,-15.82 m 292.32,15.84 c -4.55,-0.08 -9.2,0.07 -13.55,-1.44 -14.77,-4.74 -24.82,-20.83 -22.69,-36.19 1.01,-10.38 8.29,-20.26 18.49,-23.16 9.19,-2.26 18.7,-0.62 28.03,-1.37 3.84,-0.62 7.08,-3.42 8.97,-6.75 4.8,-8.39 -0.77,-21.11 -10.78,-22.01 -7.56,-0.44 -15.13,-0.82 -22.69,-1.34 -3.9,-0.13 -8.64,-0.49 -11.46,2.76 -0.77,3.41 1.98,7.29 -0.19,10.6 -3.92,4.4 -12.51,3.03 -14.46,-2.67 -1.86,-6.28 -1.45,-13.86 3.09,-18.95 3.55,-3.89 8.45,-7.21 13.94,-6.95 13.99,0.07 27.98,0.02 41.98,0.03 9.11,0.07 18.29,3.6 24.43,10.47 9.01,9.28 11.68,24.28 6.08,35.97 -3.85,7.9 -11.59,14.34 -20.58,14.95 -12.98,0.46 -25.97,-0.17 -38.94,0.28 -9.01,2.27 -13.19,14.4 -7.84,21.98 3.15,3.9 7.4,8.05 12.81,7.78 14.66,-0.12 29.32,0.14 43.98,-0.13 2.2,0.17 2.85,-2.69 2.8,-4.41 -0.02,-3.32 -0.87,-7.72 2.55,-9.77 3.98,-1.52 10.32,-1.36 11.95,3.47 2.19,7.01 1.09,15.16 -3.5,21 -2.92,3.97 -7.94,5.94 -12.76,5.91 -13.22,-0.14 -26.44,0.15 -39.66,-0.06 m -554.8,-1.23 c -7.09,-1.29 -14.19,-4.42 -18.74,-10.21 -6.2,-7.66 -8.32,-17.68 -9.2,-27.27 -0.32,-1.92 -0.11,-4.35 -1.83,-5.68 -3.99,-2.15 -9.14,-1.15 -12.86,-3.94 -3.11,-5.57 -1.88,-12.18 -2.62,-18.26 -0.44,-9.19 -1.4,-19.07 2.98,-27.54 2.83,-5.92 8.81,-9.71 15,-11.3 9.08,-2.18 18.48,-2.15 27.76,-1.98 8.42,-0.01 17.16,-0.66 25.18,2.47 9.81,3.75 16.98,12.82 19.55,22.86 0.84,3.46 1.06,7.03 1.35,10.56 1.32,14.64 2.55,29.3 3.77,43.94 -0.5,11.19 -7.4,23.01 -18.67,26.1 -10.41,2.06 -21.21,1.96 -31.67,0.25 m 198.01,-0.05 c -6.56,-1.33 -13.09,-4.17 -17.59,-9.25 -6.13,-7.2 -8.76,-16.71 -9.51,-25.99 -0.42,-2.49 0.05,-5.54 -1.93,-7.48 -3.14,-2.49 -7.48,-1.74 -11.03,-3.17 -4.1,-1.55 -3.69,-6.78 -4.29,-10.36 -0.26,-11.68 -2.94,-23.99 1.91,-35.12 2.2,-5.74 7.18,-10.16 13.02,-11.99 9.65,-2.98 19.89,-2.95 29.9,-2.76 9.4,-0.05 19.35,-0.77 28.04,3.56 10.75,5.06 17.49,16.63 18.24,28.29 1.12,15.99 2.88,31.93 3.88,47.93 -0.27,11.27 -7.24,23.28 -18.64,26.27 -10.56,1.75 -21.45,1.94 -32,0.07 m 267.03,0.04 c -7.51,-1.41 -14.99,-4.97 -19.51,-11.33 -5.69,-7.83 -7.49,-17.67 -8.21,-27.12 0.01,-2.02 -0.85,-4.13 -2.72,-5.1 -3.73,-1.64 -8.18,-1.08 -11.71,-3.27 -1.61,-2.13 -2.14,-4.84 -2.32,-7.45 -0.27,-11.31 -2.85,-22.92 0.58,-34.01 1.83,-7.01 7.3,-12.98 14.26,-15.13 9.07,-2.77 18.66,-2.89 28.06,-2.81 9.36,0.29 19.17,-1.03 28.01,2.88 8.6,3.25 15.03,10.78 17.62,19.52 0.72,3.2 3.21,6.58 1.64,9.86 -2.6,4.09 -9.21,4.55 -12.53,1.08 -4.31,-4.14 -4.49,-11.07 -9.29,-14.82 -5.07,-3.47 -11.57,-3.09 -17.42,-2.92 -4.88,0.33 -10.22,-1.01 -14.6,1.81 -3.56,2.24 -7.43,5.88 -6.91,10.46 0.14,6.72 1.2,13.37 1.74,20.05 1.11,10.95 1.53,21.98 3.16,32.86 2.79,6.25 9.46,11.38 16.58,10.7 5.35,-0.13 10.7,0.03 16.06,-0.07 3.28,-0.01 6.49,-1.5 8.8,-3.82 2.96,-3.92 2.08,-9.3 4.18,-13.58 1.91,-2.38 5.29,-2.24 8.06,-2.13 2.44,0.06 5.45,0.87 6.3,3.47 1.67,6.32 -0.48,12.9 -3.35,18.53 -3.35,6.84 -10.22,11.96 -17.83,12.77 -9.52,1.06 -19.21,1.31 -28.65,-0.43 M 683.85,455.31 c -3.31,0.73 -6.63,1.46 -9.98,1.92 -11.52,1.83 -23.56,-0.86 -33.54,-6.79 l 0.57,-0.52 c -12.73,11.34 -24.81,23.38 -37.4,34.88 -3.04,-0.81 -6.19,-0.83 -9.3,-0.79 -0.11,-2.3 -0.28,-4.61 -0.78,-6.87 -6.38,-33.42 -12.07,-66.98 -18.67,-100.35 3.23,-0.49 6.5,-0.6 9.75,-0.82 13.24,5.71 26.6,11.22 39.59,17.49 1.26,0.06 2.38,-0.31 3.35,-1.13 18.9,-14.25 45.56,-16.6 67.06,-7.04 1.76,0.87 4.17,1.69 5.64,-0.17 4.81,-4.75 9.83,-9.31 14.46,-14.25 16.73,17.1 33.3,34.37 49.89,51.6 3.34,2.62 1.17,7.42 1.89,10.98 l 0.06,0.09 c -17.98,17.07 -35.83,34.3 -53.79,51.41 -9.71,-9.78 -18.97,-19.98 -28.8,-29.64 m -46.57,-93.68 c -5.02,-20.68 -9.7,-41.44 -14.55,-62.16 7.25,0.09 14.51,0.06 21.77,0.01 1.65,6.98 3.16,13.99 4.93,20.94 2.95,-6.83 5.67,-13.76 8.12,-20.8 8.23,-0.16 16.46,-0.19 24.69,0.03 -3.69,7.81 -6.98,15.94 -12.07,22.98 6,1.47 11.77,4.74 14.97,10.19 3.74,5.86 4.95,13.66 1.91,20.06 -2.29,4.69 -7.16,7.57 -12.11,8.66 -12.39,2.86 -25.16,1.17 -37.66,0.09 m 62.29,-5.2 c -6.56,-4.46 -11.21,-13.22 -8.1,-21.05 3.27,-6.75 10.69,-9.79 17.08,-12.85 1.74,-0.97 4.5,-1.95 3.9,-4.49 -0.89,-2.08 -3.32,-2.87 -5.38,-3.1 -6.18,-0.46 -12.12,1.72 -17.84,3.72 -1.71,-5.82 -3.33,-11.67 -4.96,-17.52 8.46,-2.55 17.46,-3.49 26.26,-2.49 10,1.31 19.82,7.51 23.61,17.13 2.18,5.17 1.43,11.67 -2.56,15.76 -5.04,5.21 -12.46,6.78 -18.27,10.86 -0.95,2.04 1.41,3.82 3.18,4.28 5.55,1.36 11.02,-1.08 16.3,-2.53 1.59,5.65 3.08,11.33 4.63,16.99 -12.53,3.28 -26.91,2.92 -37.85,-4.71 m -139.46,5.49 c -4.78,-20.78 -9.71,-41.51 -14.45,-62.3 7.48,-0.16 14.97,-0.19 22.45,0.03 1.49,7.21 3.39,14.33 4.94,21.52 7.13,0.21 14.27,0.01 21.4,0.2 1.11,5.14 2.56,10.2 3.65,15.35 -7.16,-0.05 -14.32,-0.02 -21.48,-0.02 0.67,2.85 1.33,5.7 2.01,8.55 6.86,-0.03 13.73,0.08 20.6,-0.07 1.45,5.55 2.66,11.15 4.17,16.68 -14.43,0.1 -28.86,0 -43.29,0.06 m 48.95,-0.05 c -4.84,-20.8 -9.66,-41.61 -14.54,-62.4 7.51,0.11 15.03,-0.06 22.55,0.18 4.65,20.79 9.63,41.49 14.41,62.25 -7.48,0 -14.95,0.03 -22.42,-0.03 m 132.34,0.02 c -1.69,-6.06 -3.57,-12.06 -5.37,-18.08 5.8,-0.04 11.6,-0.03 17.4,-0.02 -3.58,-14.72 -7.05,-29.46 -10.67,-44.17 7.49,-0.16 14.98,-0.17 22.47,-0.02 3.43,14.72 7.16,29.36 10.46,44.11 5.39,0.16 10.78,0.04 16.17,0.06 1.25,6.02 2.44,12.04 3.81,18.03 -18.09,0.22 -36.18,0.05 -54.27,0.09 M 561.32,852.24 c 10.9,-0.1 21.81,0.35 32.69,-0.44 11.19,-0.11 22.4,-0.13 33.6,0.01 0.08,-12.68 0.12,-25.36 -0.01,-38.03 -4.86,0.25 -9.72,0.06 -14.57,-0.01 0.33,-5.65 0.18,-11.31 0.11,-16.97 12.36,0.06 24.72,0.14 37.08,-0.04 0.02,5.72 -0.06,11.43 0.07,17.15 -4.19,-0.12 -8.38,0.04 -12.57,0 0.06,12.74 0.12,25.48 -0.04,38.22 22.34,0.13 44.69,0.33 67.03,-0.1 -0.31,-12.68 -0.16,-25.37 -0.07,-38.05 -4.83,-0.22 -9.66,-0.21 -14.49,-0.01 -0.1,-5.73 -0.05,-11.47 -0.04,-17.21 11.97,0.34 23.96,-0.4 35.92,0.45 6.38,-0.08 12.69,-1.3 19.07,-1.58 12.16,-2.57 24.1,-8.86 31.09,-19.45 9.31,-13.58 9.96,-32.12 2.55,-46.69 -5,-10.32 -14.55,-17.83 -25.08,-21.99 -6.3,-2.37 -12.84,-4.48 -19.66,-4.46 -14.65,-0.02 -29.3,0 -43.95,0 0.08,-5.7 0.07,-11.41 0,-17.12 4.87,0.14 9.74,0.01 14.61,-0.1 -0.2,-12.74 -0.1,-25.47 -0.05,-38.21 -22.3,-0.06 -44.6,-0.02 -66.89,-0.03 0.06,12.75 0.12,25.49 -0.05,38.24 4.19,0.08 8.39,0.26 12.59,0.14 -0.06,5.74 -0.04,11.48 -0.04,17.21 -4.16,-0.76 -8.4,-0.69 -12.56,0 0.21,12.74 0.09,25.47 0.08,38.2 4.18,-0.07 8.37,0.18 12.56,-0.02 -0.13,5.73 -0.06,11.47 -0.08,17.2 -12.36,-0.22 -24.72,-0.11 -37.08,-0.06 0.07,-5.64 0.25,-11.28 -0.14,-16.91 4.87,-0.21 9.74,-0.3 14.61,-0.13 1.06,-8.77 0.55,-17.62 0.26,-26.43 0.1,-3.98 0.51,-7.97 0,-11.95 -22.18,-0.1 -44.36,0.06 -66.54,-0.09 0.01,12.81 0,25.62 0.01,38.43 4.03,-0.11 8.06,0.11 12.1,-0.05 -0.18,24.19 -0.2,48.38 0.01,72.56 -4.05,-0.11 -8.09,-0.03 -12.13,0.03 0.03,12.77 0.02,25.53 0,38.29 m 4.9,-5.37 c -0.01,-9.23 -0.2,-18.46 0.11,-27.68 4.14,0.27 8.29,-0.01 12.44,0.06 -0.02,-27.74 -0.04,-55.48 0.02,-83.21 -4.13,0.04 -8.26,-0.13 -12.38,-0.08 -0.57,-9.17 -0.05,-18.35 -0.25,-27.52 18.7,-0.15 37.4,-0.23 56.1,0.04 -0.1,9.17 0,18.34 -0.05,27.51 -4.73,-0.09 -9.46,0.06 -14.18,0.04 -0.67,9.26 -1.31,18.57 -0.27,27.82 11.4,0.02 22.8,-0.16 34.2,0.05 4.74,0.34 9.52,0.64 14.24,-0.15 -0.5,-8.93 1.06,-17.89 -0.23,-26.78 -4.04,-2 -8.58,-0.73 -12.86,-0.85 0.06,-9.18 0.15,-18.37 -0.05,-27.55 4.41,-0.13 8.83,-0.37 13.25,-0.37 -0.24,-9.13 -0.26,-18.28 0.02,-27.41 -4.42,-0.18 -8.84,-0.39 -13.26,-0.35 0.18,-9.16 0.11,-18.32 0.04,-27.48 18.73,0.07 37.45,0.05 56.18,0.01 -0.12,9.13 -0.16,18.27 0.04,27.41 -4.76,0.08 -9.52,0.18 -14.27,0.41 0.2,9.14 0.21,18.28 -0.02,27.42 15.32,0.36 30.63,-0.1 45.95,0.17 3.66,0.08 7.38,-0.06 10.94,1.01 10.2,2.51 20.58,6.83 27.35,15.22 6.87,8 9.92,18.9 9.2,29.33 -1.73,12.86 -8.34,26.23 -20.54,32 -14.98,6.84 -31.84,5.91 -47.9,5.93 -8.32,0.24 -16.64,-0.3 -24.95,-0.43 0.14,9.18 0.17,18.36 -0.03,27.54 4.7,0.43 9.43,0.43 14.15,0.23 0.1,9.14 -0.21,18.28 0.16,27.42 -18.75,0.27 -37.51,0.18 -56.26,0.05 0.1,-9.14 0.09,-18.29 0,-27.43 4.4,0.13 8.8,0.16 13.19,-0.28 -0.24,-9.16 -0.21,-18.33 -0.03,-27.5 -16.17,-0.01 -32.34,-0.02 -48.51,0.01 0.11,9.15 0.04,18.31 0.02,27.47 4.79,0.54 9.61,0.39 14.42,0.27 0.04,9.19 0.02,18.37 0.01,27.55 -18.66,0.07 -37.33,-0.1 -55.99,0.1 m 52.06,-38.03 c 8.89,-0.1 17.8,-0.11 26.7,0.03 0.04,-2.33 0.13,-4.66 0.24,-7 -8.97,0.07 -17.95,-0.15 -26.9,0.53 0.01,2.15 0,4.3 -0.04,6.44 m 67.59,-44.93 c 16.73,-0.34 33.46,0.23 50.19,-0.27 5.5,-0.12 8.79,-5.68 9.73,-10.52 1.56,-7.1 -2.51,-16.66 -10.66,-16.97 -16.46,-0.41 -32.94,-0.06 -49.4,-0.16 0.19,9.3 -0.03,18.61 0.14,27.92 m 5.24,-5.37 c -0.02,-5.74 0.03,-11.49 -0.06,-17.23 14.87,0.28 29.75,-0.15 44.62,0.19 4.15,0.8 4.92,5.9 4.63,9.42 -0.07,3.09 -1.41,7.62 -5.25,7.43 -14.65,0.28 -29.3,-0.11 -43.94,0.19 m 4.5,-4.83 c 10.47,0.56 20.97,-0.36 31.42,0.61 2.92,0.28 5.82,-0.29 8.71,-0.64 -0.08,-2.56 -0.26,-5.12 -0.56,-7.67 -10.76,-0.17 -21.53,0.34 -32.28,-0.46 -2.47,-0.24 -4.92,0.27 -7.33,0.64 0.17,2.5 0.16,5.02 0.04,7.52 m -77.36,-6.64 c 0.05,2.12 0.06,4.24 0.03,6.36 9.17,-0.21 18.36,0.2 27.53,-0.23 -0.17,-2.31 -0.45,-4.61 -0.9,-6.88 -8.89,0.3 -17.8,-0.1 -26.66,0.75 M 312.7,608.55 c 15.79,0 31.58,0.02 47.37,0 8.04,-0.15 13.38,-9.39 11.54,-16.75 -1.44,-5.19 -5.03,-9.99 -10.04,-12.17 -2.7,-1.2 -5.72,-0.94 -8.59,-0.97 -14.29,0.03 -28.59,0.04 -42.89,0 1.08,9.94 1.74,19.93 2.61,29.89 m 124.81,-0.41 c 6.78,0.98 13.65,0.15 20.47,0.43 7.27,0.67 13.56,-6.58 12.82,-13.63 -1.29,-16.35 -2.79,-32.69 -4.19,-49.04 -0.33,-4.68 -4.18,-8.04 -7.59,-10.77 -4.23,-3.52 -10,-2.14 -15.04,-2.44 -5.17,0.35 -10.78,-0.9 -15.52,1.76 -3.88,2.06 -7.21,5.98 -7.23,10.54 1.4,16.03 2.85,32.07 4.22,48.1 -0.12,7.07 5.74,12.88 12.06,15.05 m 74.28,0.6 c 10.75,-0.42 21.51,-0.09 32.26,-0.13 5.14,-0.5 8.95,-4.87 11.2,-9.19 2.55,-9.45 -5.08,-20.94 -15.24,-20.73 -10.25,-0.09 -20.5,0.09 -30.75,-0.06 0.63,10.06 1.65,20.08 2.53,30.11 m 126.58,-0.21 c 6.22,0.12 12.43,-0.03 18.65,0.04 7.08,0.48 12.71,-6.88 12.29,-13.55 -1.3,-14.37 -2.4,-28.76 -3.68,-43.13 -0.35,-3.96 0.03,-8.51 -2.85,-11.68 -3.25,-3.75 -7.42,-7.79 -12.76,-7.54 -7.16,0.47 -14.49,-0.86 -21.53,0.95 -4.01,2.12 -8.24,5.51 -8.76,10.33 1.18,16.02 2.96,32.01 4.01,48.04 -0.23,8.09 6.72,15.64 14.63,16.54 M 523.03,562.59 c 10.68,-0.05 21.35,0.05 32.03,0 5.3,-0.01 9.24,-4.59 11.37,-9.01 2.66,-9.58 -5.22,-21.11 -15.48,-20.89 -10.2,0.01 -20.39,0.11 -30.59,-0.01 0.88,9.97 1.77,19.94 2.67,29.91 M 701.16,443.77 c 3.93,3.99 7.66,8.2 11.92,11.85 3.93,-2.84 7.16,-6.47 10.67,-9.79 6.01,-5.81 12.28,-11.37 18.07,-17.44 -8.2,-8.7 -16.64,-17.18 -24.92,-25.81 0.55,4.13 2.71,7.81 3.41,11.9 0.7,3.67 0.57,7.42 0.31,11.12 -0.37,-3.45 -0.25,-7.12 -2.08,-10.21 -6.71,-13.55 -20.79,-21.96 -35.18,-25.15 -7.91,-2.29 -16.22,-1.6 -24.33,-1.46 -14.87,1.56 -29.86,7.91 -39.41,19.75 -3.56,4.33 -5.73,9.63 -6.51,15.16 0.05,-4.19 0.55,-8.36 0.86,-12.54 -3.29,-1.43 -6.39,-3.35 -9.91,-4.19 2.44,14.7 5.3,29.35 8.38,43.94 5.8,-4.52 10.32,-10.43 16.03,-15.07 -0.43,-3.13 -0.78,-6.27 -0.96,-9.43 1.11,2.25 2.23,4.5 3.39,6.71 3.82,-3.55 7.55,-7.21 11.28,-10.87 -3.44,-1.65 -7.02,-2.97 -10.67,-4.03 1.22,-1.53 2.42,-3.09 3.69,-4.6 3.61,-3.79 8.26,-6.54 13.15,-8.33 1.52,-0.71 3.11,0.04 4.55,0.59 5.84,2.53 11.62,5.22 17.41,7.87 3.18,-3.25 6.39,-6.47 9.68,-9.62 2.29,0.67 4.6,1.26 6.92,1.85 4.8,1.61 8.93,4.67 12.7,7.97 -4.46,4.53 -9.2,8.78 -13.77,13.18 3.05,4.72 7.56,8.15 11.32,12.25 4.23,-3.58 7.57,-8.16 9.23,-13.48 0.31,6.36 -1.45,12.73 -5.23,17.88 m -54.88,0.88 c 9.32,5.11 20.39,4.35 30.61,3.47 -5.33,-5.82 -10.74,-11.56 -16.34,-17.12 -4.68,4.64 -9.59,9.02 -14.27,13.65 m 9.21,-97.89 c 3.18,0.27 7.09,0.84 9.51,-1.78 1.94,-3.4 -0.03,-7.81 -2.86,-10.1 -2.76,-2.4 -6.56,-2.61 -10.03,-2.75 0.98,4.92 2.25,9.76 3.38,14.63 z"
       style="fill:#ffffff;fill-opacity:1;fill-rule:nonzero;stroke:#ffffff;stroke-width:0.09375;stroke-linecap:butt;stroke-linejoin:miter;stroke-miterlimit:10;stroke-dasharray:none;stroke-opacity:1"
       id="path3532"
       inkscape:connector-curvature="0" /><path
       d="m 669.2,1056.89 c 0.7,1.16 0.97,3.44 2.81,3.17 14.85,0.1 29.76,-0.33 44.51,-2.19 7.33,-27.3 13.61,-54.92 17.67,-82.91 21.66,-3.09 43.06,-7.99 63.94,-14.5 1.07,0.71 2.14,1.49 2.92,2.55 14.61,18.87 30.26,36.94 46.9,54.04 2.67,2.68 4.75,6.09 8.19,7.89 14.44,-4.43 27.84,-11.66 41.72,-17.56 -2.13,-21.87 -5.45,-43.61 -9.36,-65.22 -1.13,-6.34 -3.05,-12.54 -3.55,-18.98 14.03,-8.95 28.39,-17.41 41.68,-27.46 4.37,-3.28 8.66,-6.66 13.25,-9.64 23.65,14.83 48.65,27.36 73.93,39.14 0.93,0.37 1.9,0.63 2.91,0.8 10.47,-10.27 21.46,-20.08 31.02,-31.22 0.97,-1.29 0,-2.69 -0.6,-3.88 -12.06,-23.13 -24.93,-45.87 -39.37,-67.61 -1.18,-1.61 -1.32,-3.91 0.16,-5.39 10.61,-13.24 20.46,-27.1 29.45,-41.49 2.28,-3.41 3.9,-7.26 6.67,-10.33 28.38,4.58 56.98,8.51 85.75,9.12 6.81,-12.48 12.39,-25.59 17.47,-38.86 0.26,-1.12 1.29,-2.75 -0.01,-3.62 -20.78,-18.5 -42.53,-35.93 -65.3,-51.93 6.37,-21.12 12.23,-42.52 15.28,-64.41 28.4,-5.59 56.51,-12.79 83.91,-22.15 1.75,-15.23 2.27,-30.58 1.88,-45.91 -5.77,-1.11 -10.86,-4.13 -16.42,-5.85 -7.3,-2.4 -14.47,-5.18 -21.97,-6.9 -13.74,-5.12 -28.08,-8.38 -42.14,-12.51 -0.87,-8.99 -1.29,-18.05 -2.6,-27 -1.96,-6.61 -2.03,-13.55 -3.43,-20.28 -0.92,-6.15 -3.26,-12.19 -2.41,-18.5 6.49,-4.7 13.79,-8.16 20.15,-13.06 15.42,-12.36 32.44,-22.63 47.31,-35.69 0.69,-0.72 1.39,-1.46 2.08,-2.23 -1.01,-5.62 -4.32,-10.51 -5.08,-16.2 -2.81,-8.42 -5.23,-17.02 -8.83,-25.16 -4.4,-1.17 -9.02,-2 -13.56,-1.27 -8.95,1.44 -18.04,0.48 -27.04,0.98 -15,0.84 -29.95,2.32 -44.85,4.22 -2.86,-4.18 -4.18,-9.12 -6.5,-13.58 -6.7,-14.18 -14.53,-27.78 -22.9,-41.05 -1.06,-1.68 -2.27,-4.1 -0.53,-5.79 5.39,-7.14 9.93,-14.88 15.39,-21.97 4.27,-6.69 9.32,-12.89 12.83,-20.06 5.05,-6.78 8.52,-14.55 13.32,-21.52 1.19,-2.42 3.84,-4.82 2.96,-7.73 -3.17,-5.03 -7.08,-9.56 -10.9,-14.1 -5.93,-6.31 -10.61,-13.67 -16.93,-19.64 -4.47,0.16 -8.3,2.63 -12.35,4.18 -7.86,3.57 -16.02,6.45 -23.73,10.32 -14.26,5.96 -27.56,13.96 -41.69,20.23 -3.51,-3.26 -7.27,-6.25 -10.54,-9.76 -3.49,-3.9 -8.11,-6.48 -11.83,-10.12 -9.32,-7.8 -18.98,-15.17 -28.65,-22.55 3.77,-14.22 7.89,-28.4 10.47,-42.89 2.71,-9.37 4.28,-19.04 5.03,-28.76 0.7,-4.56 1.23,-9.19 0.69,-13.81 -4.37,-3.36 -9.54,-5.44 -13.98,-8.68 -6.1,-4.46 -13.61,-6.54 -19.46,-11.4 -1.57,-0.13 -3.14,-0.47 -4.69,-0.4 -7.3,5.41 -12.73,12.86 -19.77,18.57 -6.45,5.25 -11.39,12.02 -17.58,17.52 -7.25,7.93 -14.45,15.91 -21.48,24.03 -15.31,-6.37 -30.75,-12.63 -46.86,-16.68 -5.53,-1.51 -10.95,-3.53 -16.67,-4.26 -0.75,-11.7 -2.94,-23.24 -3.77,-34.93 -0.17,-4.31 -1.93,-8.33 -2.44,-12.6 -1.64,-13.11 -3.93,-26.2 -7.97,-38.79 -5.99,-0.49 -11.83,-1.95 -17.76,-2.81 -9.09,-0.76 -18.07,-2.98 -27.24,-2.54 -6.82,16.96 -16.16,32.91 -21.12,50.59 -3.82,9.15 -7.04,18.54 -10.58,27.8 -7.27,-1.36 -14.65,0.53 -21.92,-0.55 -4.71,-0.85 -9.39,0.97 -14.13,0.35 -5.08,-0.6 -9.92,1.67 -14.98,1.07 -5.38,-0.37 -10.67,0.83 -15.98,1.38 -3.94,-8.46 -8.34,-16.73 -13.27,-24.67 -2.79,-4.11 -3.82,-9.17 -6.98,-13.07 -4.48,-7.45 -9.76,-14.38 -13.9,-22.05 -2.64,-5.07 -6.81,-9.18 -9.15,-14.42 -5.11,-0.55 -9.85,1.86 -14.82,2.5 -10.05,1.46 -20.16,3.65 -29.25,8.32 -1.47,5.66 -0.79,11.51 -1.28,17.24 -1.45,7.66 -0.7,15.46 -0.79,23.18 0.04,3.72 -1.32,7.29 -1.18,11.01 0.13,10.94 0.04,21.89 0.1,32.83 -11.72,2.9 -22.55,8.38 -33.37,13.59 -7.48,2.86 -14.47,6.79 -21.84,9.91 -2.52,0.91 -5.37,4 -7.89,1.47 -5.31,-5.86 -11.83,-10.39 -17.72,-15.65 -6.22,-5.46 -12.76,-10.55 -19.6,-15.21 -8.84,-8.37 -19.44,-14.51 -28.98,-21.98 -4.84,3.19 -9.45,6.72 -14.34,9.82 -7.91,4.64 -14.99,10.5 -22.71,15.43 1.8,12.08 8.38,22.74 10.79,34.66 1.14,5.64 4.3,10.58 5.87,16.08 1.18,4.09 3.17,7.88 4.29,11.98 1.59,6.25 5.74,11.58 6.58,18.05 -3.89,4.3 -8.65,7.7 -12.77,11.76 -3.03,2.99 -5.99,6.05 -9.36,8.64 -5.1,3.97 -8.34,9.74 -13.22,13.92 -3.95,3.47 -7.08,7.71 -10.59,11.57 -1.47,1.57 -3.64,0 -5.22,-0.55 -9.83,-4.7 -20.5,-7.2 -30.67,-11.03 -12.57,-3.39 -24.96,-7.44 -37.64,-10.39 -3.53,-0.96 -7.07,-2.16 -10.79,-1.93 -8.66,12.12 -17.61,24.09 -25,37.04 4.5,6.03 9.64,11.53 14.3,17.43 9.23,13.5 21.45,24.55 31.91,37.06 2.63,3.47 6.72,5.67 8.76,9.61 -3.49,11.05 -10.45,20.6 -14.77,31.32 -4.9,9.34 -7.28,19.68 -11.6,29.27 -4.35,0.29 -8.73,-0.05 -13.05,0.57 -8.87,1.57 -17.93,0.19 -26.86,1.09 -15.73,1.58 -31.62,2.25 -47.15,5.43 -3.42,14.51 -7.82,28.84 -10.15,43.57 24.27,14.68 49.25,28.29 75.01,40.13 0.76,9.17 -2.25,18.25 -1.92,27.45 0.47,5.08 -1.37,9.97 -1.12,15.03 0.25,7.85 -0.09,15.7 0.18,23.54 -27.24,10.3 -53.45,23.15 -78.95,37.19 0.91,15.32 3.59,30.45 5.96,45.6 12.75,1.59 25.36,4.09 38.12,5.52 15.34,2.01 30.77,3.28 46.2,4.37 5.8,21.27 11.97,42.54 20.92,62.73 -5.56,5.17 -10.75,10.73 -16.42,15.78 -14.21,14.49 -28.09,29.32 -41.2,44.82 -0.94,1.22 -2.43,2.67 -1.23,4.25 6.36,13.01 13.87,25.41 20.96,38.04 26.98,-4.81 53.51,-11.83 79.7,-19.86 1.4,-0.41 3.49,-1.05 4.27,0.68 12.28,17.49 25.93,34.01 40.67,49.49 -11.97,24.99 -22.62,50.62 -31.67,76.81 -0.32,1.47 -1.59,3.53 0.07,4.66 10.37,9.38 21.03,18.46 32.24,26.83 1.33,1.38 3.18,0.45 4.51,-0.4 22.27,-14.36 43.94,-29.66 64.66,-46.19 1.47,-1.33 3.54,-0.33 4.93,0.6 17.19,11.62 35.48,21.52 54.15,30.53 -1.04,25.32 -2.92,50.69 -1.41,76.03 -0.03,3.46 0,6.92 0.39,10.37 2.35,1.35 4.83,2.46 7.43,3.27 11.8,3.91 23.42,8.51 35.58,11.2 9.91,-12.37 18.42,-25.75 27.27,-38.88 6.55,-9.89 12.64,-20.08 18.67,-30.3 1,-2.18 3.68,-0.7 5.41,-0.6 20.13,4.58 40.69,6.8 61.19,8.97 7.49,26.55 17.03,52.53 27.94,77.87 M 633.02,883.19 C 563.18,875.51 496.03,845.3 443.98,798.1 397.25,756 362.64,700.63 345.47,640.11 c -13.49,-0.18 -26.99,-0.03 -40.48,-0.06 -10.95,-0.07 -22.07,-8.6 -22.77,-19.96 -1.65,-19.08 -3.41,-38.15 -5.05,-57.23 -0.24,-2.71 -1.08,-5.31 -1.57,-7.98 -0.74,-4.93 0.08,-9.95 -0.62,-14.89 -1.14,-8.45 -1.56,-17.07 -0.46,-25.55 2.44,-4.28 5.85,-8.2 10.14,-10.71 6.01,-2.8 12.79,-2.91 19.26,-3.79 7.51,0.75 15.57,0.77 22.13,5.05 4.67,2.7 8.03,7.31 9.22,12.57 1.69,-6.45 0.5,-13.26 2.61,-19.63 1.82,-6.09 1.06,-12.65 3.38,-18.61 1.47,-4.22 1.82,-8.72 3.24,-12.96 1.56,-4.76 1.71,-9.86 3.37,-14.6 5.67,-16.22 10.47,-32.93 18.99,-47.96 2.49,-4.03 3.82,-8.65 6.37,-12.66 7.14,-12.89 13.82,-26.21 23.28,-37.62 5.04,-6.95 9.65,-14.28 15.76,-20.37 6,-7.57 12.62,-14.59 19.54,-21.32 4.95,-6.42 11.27,-11.48 17.49,-16.59 6.71,-6.72 14.82,-11.75 22.01,-17.92 5.9,-4.12 11.3,-9.04 17.85,-12.17 7.59,-4.3 14.84,-9.19 22.54,-13.3 11.89,-6.03 23.75,-12.2 36.38,-16.58 8.6,-3 16.82,-7.25 25.86,-8.88 2.71,-0.45 5.19,-1.69 7.74,-2.68 2.7,-1.04 5.72,-0.66 8.46,-1.62 9.51,-3.82 19.84,-4.59 29.88,-6.11 6.73,-0.65 13.26,-2.53 20.01,-3.08 5.32,-0.94 10.78,-0.11 16.09,-1.18 2.92,-0.55 5.9,-0.48 8.86,-0.42 7.65,0.23 15.36,-0.55 22.96,0.76 9.37,0.4 18.76,1.06 27.94,3.09 11.3,0.42 21.98,4.58 33.15,5.92 5.28,0.46 9.82,3.64 15.05,4.37 7.5,1.03 14.33,4.42 21.32,7.11 4.59,1.88 9.56,2.67 14.01,4.92 6.58,3.24 13.54,5.65 20.02,9.11 18.14,9.71 36.37,19.59 52.38,32.63 4.57,3.81 10.02,6.48 14.05,10.94 13.54,11.39 26.14,23.91 37.93,37.11 3.74,3.66 6.42,8.21 10.14,11.88 3.92,4.19 6.41,9.45 10.22,13.73 11.89,15.76 20.92,33.42 30.09,50.81 3.14,7.48 6.19,15.01 9.83,22.26 3.21,7.51 5.23,15.46 8.04,23.12 2.05,6.96 2.98,14.24 5.73,21 2.16,4.82 1.28,10.29 2.94,15.24 1.44,4.46 2.32,9.12 1.93,13.82 7.31,1.47 14.88,1.78 21.98,4.19 12.84,4.84 24.68,14.06 29.96,27.03 1.1,3.1 2.76,5.98 3.63,9.16 0.4,3.18 0.48,6.4 1.02,9.57 1.1,5.86 -1.25,11.57 -3.03,17.04 -1.53,4.94 -5.2,8.77 -7.07,13.54 7.35,2.62 12.45,9.75 13.79,17.28 1.99,9.78 0.23,20.35 -5.26,28.72 -4.08,6.41 -10.59,11.16 -17.84,13.33 -4.18,1.32 -8.6,1.05 -12.91,1.05 -10.41,-0.01 -20.82,0.09 -31.22,-0.1 -6.63,22.35 -15.34,44.1 -26.18,64.75 -28.52,54.61 -72.55,100.84 -125.34,132.52 -62.88,37.8 -138.29,54.44 -211.22,45.99 m -66.8,-36.32 c 18.66,-0.2 37.33,-0.03 55.99,-0.1 0.01,-9.18 0.03,-18.36 -0.01,-27.55 -4.81,0.12 -9.63,0.27 -14.42,-0.27 0.02,-9.16 0.09,-18.32 -0.02,-27.47 16.17,-0.03 32.34,-0.02 48.51,-0.01 -0.18,9.17 -0.21,18.34 0.03,27.5 -4.39,0.44 -8.79,0.41 -13.19,0.28 0.09,9.14 0.1,18.29 0,27.43 18.75,0.13 37.51,0.22 56.26,-0.05 -0.37,-9.14 -0.06,-18.28 -0.16,-27.42 -4.72,0.2 -9.45,0.2 -14.15,-0.23 0.2,-9.18 0.17,-18.36 0.03,-27.54 8.31,0.13 16.63,0.67 24.95,0.43 16.06,-0.02 32.92,0.91 47.9,-5.93 12.2,-5.77 18.81,-19.14 20.54,-32 0.72,-10.43 -2.33,-21.33 -9.2,-29.33 -6.77,-8.39 -17.15,-12.71 -27.35,-15.22 -3.56,-1.07 -7.28,-0.93 -10.94,-1.01 -15.32,-0.27 -30.63,0.19 -45.95,-0.17 0.23,-9.14 0.22,-18.28 0.02,-27.42 4.75,-0.23 9.51,-0.33 14.27,-0.41 -0.2,-9.14 -0.16,-18.28 -0.04,-27.41 -18.73,0.04 -37.45,0.06 -56.18,-0.01 0.07,9.16 0.14,18.32 -0.04,27.48 4.42,-0.04 8.84,0.17 13.26,0.35 -0.28,9.13 -0.26,18.28 -0.02,27.41 -4.42,0 -8.84,0.24 -13.25,0.37 0.2,9.18 0.11,18.37 0.05,27.55 4.28,0.12 8.82,-1.15 12.86,0.85 1.29,8.89 -0.27,17.85 0.23,26.78 -4.72,0.79 -9.5,0.49 -14.24,0.15 -11.4,-0.21 -22.8,-0.03 -34.2,-0.05 -1.04,-9.25 -0.4,-18.56 0.27,-27.82 4.72,0.02 9.45,-0.13 14.18,-0.04 0.05,-9.17 -0.05,-18.34 0.05,-27.51 -18.7,-0.27 -37.4,-0.19 -56.1,-0.04 0.2,9.17 -0.32,18.35 0.25,27.52 4.12,-0.05 8.25,0.12 12.38,0.08 -0.06,27.73 -0.04,55.47 -0.02,83.21 -4.15,-0.07 -8.3,0.21 -12.44,-0.06 -0.31,9.22 -0.12,18.45 -0.11,27.68 m 119.65,-82.96 c -0.17,-9.31 0.05,-18.62 -0.14,-27.92 16.46,0.1 32.94,-0.25 49.4,0.16 8.15,0.31 12.22,9.87 10.66,16.97 -0.94,4.84 -4.23,10.4 -9.73,10.52 -16.73,0.5 -33.46,-0.07 -50.19,0.27 m -2.02,-308.6 c 9.83,9.66 19.09,19.86 28.8,29.64 17.96,-17.11 35.81,-34.34 53.79,-51.41 l -0.06,-0.09 c -4.66,-7.45 -11.28,-13.31 -17.42,-19.5 -11.36,-11 -21.55,-23.15 -32.94,-34.12 -1.88,-1.81 -3.77,0.93 -5.07,2.11 -2.22,2.67 -5.59,4.69 -6.81,8.01 3.89,4.55 8.97,7.96 12.76,12.63 8.28,8.63 16.72,17.11 24.92,25.81 1,1.6 4.45,3.66 2.3,5.61 -4.74,4.65 -9.49,9.31 -14.54,13.63 -5.58,5.36 -10.93,10.96 -16.59,16.23 -5.16,-6.12 -11.42,-11.17 -16.44,-17.42 -5.12,-4.89 -9.82,-10.18 -14.51,-15.48 1.25,-1.28 2.51,-2.57 3.8,-3.84 4.57,-4.4 9.31,-8.65 13.77,-13.18 -3.77,-3.3 -7.9,-6.36 -12.7,-7.97 -4.38,2.45 -7.41,6.51 -10.92,9.94 -4.87,5.11 -10.32,9.58 -15.42,14.44 0,0.16 -0.02,0.49 -0.02,0.65 5.6,5.56 11.01,11.3 16.34,17.12 2.23,2.48 4.49,4.94 6.96,7.19 z"
       style="fill:#0945f1;fill-opacity:1;fill-rule:nonzero;stroke:#0945f1;stroke-width:0.09375;stroke-linecap:butt;stroke-linejoin:miter;stroke-miterlimit:10;stroke-dasharray:none;stroke-opacity:1"
       id="path3534"
       inkscape:connector-curvature="0" /><path
       d="m 556.21,857.34 c 25.46,0.3 50.95,-0.63 76.4,0.62 -0.5,-3.98 -0.36,-8.01 -0.31,-12.01 0.16,-12.11 -0.74,-24.24 0.21,-36.33 1.03,15.93 -0.44,31.9 0.44,47.84 25.57,-0.14 51.16,-0.26 76.74,0.06 0.01,-16.09 -0.13,-32.18 0.07,-48.27 -4.69,0.22 -9.38,-0.03 -14.04,-0.45 -0.02,-2.16 -0.11,-4.32 -0.26,-6.48 13.2,-0.5 26.4,-0.46 39.6,-0.42 16.17,-0.51 32.95,-6.67 43.47,-19.39 15.26,-19.87 13.07,-50.74 -4.57,-68.46 -7.78,-7.92 -18.48,-12.02 -29.06,-14.66 -3.86,-1.13 -7.91,-1.07 -11.88,-1.28 -12.56,-0.5 -25.14,0.05 -37.7,-0.22 -0.03,-2.25 -0.07,-4.51 -0.12,-6.77 4.66,0.01 9.33,-0.15 13.99,-0.04 -0.38,-16.19 0.61,-32.37 0.56,-48.56 -12.92,-0.76 -25.87,-0.67 -38.8,-0.22 -12.79,-0.42 -25.6,-0.57 -38.38,0.21 0.1,16.02 0.17,32.03 -0.04,48.04 4.17,0.57 8.39,0.82 12.58,0.3 0.24,2.16 0.52,4.31 0.78,6.46 -4.45,0.03 -8.87,0.57 -13.31,0.65 0.02,1.77 0.04,3.54 -0.01,5.31 -0.19,-1.53 -0.31,-3.06 -0.4,-4.61 -1.69,-0.4 -3.4,-0.82 -5.14,-0.76 -23.61,0.11 -47.21,-0.02 -70.82,0.06 0.06,15.96 0.18,31.93 -0.05,47.89 4.02,0.47 8.06,0.79 12.12,0.67 -0.1,20.77 -0.04,41.53 -0.04,62.29 -4.06,-0.11 -8.12,-0.09 -12.17,0.21 0.45,16.1 0.15,32.22 0.14,48.32 m 5.11,-5.1 c 0.02,-12.76 0.03,-25.52 0,-38.29 4.04,-0.06 8.08,-0.14 12.13,-0.03 -0.21,-24.18 -0.19,-48.37 -0.01,-72.56 -4.04,0.16 -8.07,-0.06 -12.1,0.05 -0.01,-12.81 0,-25.62 -0.01,-38.43 22.18,0.15 44.36,-0.01 66.54,0.09 0.51,3.98 0.1,7.97 0,11.95 0.29,8.81 0.8,17.66 -0.26,26.43 -4.87,-0.17 -9.74,-0.08 -14.61,0.13 0.39,5.63 0.21,11.27 0.14,16.91 12.36,-0.05 24.72,-0.16 37.08,0.06 0.02,-5.73 -0.05,-11.47 0.08,-17.2 -4.19,0.2 -8.38,-0.05 -12.56,0.02 0.01,-12.73 0.13,-25.46 -0.08,-38.2 4.16,-0.69 8.4,-0.76 12.56,0 0,-5.73 -0.02,-11.47 0.04,-17.21 -4.2,0.12 -8.4,-0.06 -12.59,-0.14 0.17,-12.75 0.11,-25.49 0.05,-38.24 22.29,0.01 44.59,-0.03 66.89,0.03 -0.05,12.74 -0.15,25.47 0.05,38.21 -4.87,0.11 -9.74,0.24 -14.61,0.1 0.07,5.71 0.08,11.42 0,17.12 14.65,0 29.3,-0.02 43.95,0 6.82,-0.02 13.36,2.09 19.66,4.46 10.53,4.16 20.08,11.67 25.08,21.99 7.41,14.57 6.76,33.11 -2.55,46.69 -6.99,10.59 -18.93,16.88 -31.09,19.45 -6.38,0.28 -12.69,1.5 -19.07,1.58 -11.96,-0.85 -23.95,-0.11 -35.92,-0.45 -0.01,5.74 -0.06,11.48 0.04,17.21 4.83,-0.2 9.66,-0.21 14.49,0.01 -0.09,12.68 -0.24,25.37 0.07,38.05 -22.34,0.43 -44.69,0.23 -67.03,0.1 0.16,-12.74 0.1,-25.48 0.04,-38.22 4.19,0.04 8.38,-0.12 12.57,0 -0.13,-5.72 -0.05,-11.43 -0.07,-17.15 -12.36,0.18 -24.72,0.1 -37.08,0.04 0.07,5.66 0.22,11.32 -0.11,16.97 4.85,0.07 9.71,0.26 14.57,0.01 0.13,12.67 0.09,25.35 0.01,38.03 -11.2,-0.14 -22.41,-0.12 -33.6,-0.01 -10.88,0.79 -21.79,0.34 -32.69,0.44 m 56.96,-43.4 c 0.04,-2.14 0.05,-4.29 0.04,-6.44 8.95,-0.68 17.93,-0.46 26.9,-0.53 -0.11,2.34 -0.2,4.67 -0.24,7 -8.9,-0.14 -17.81,-0.13 -26.7,-0.03 m -0.03,-61.77 c 8.86,-0.85 17.77,-0.45 26.66,-0.75 0.45,2.27 0.73,4.57 0.9,6.88 -9.17,0.43 -18.36,0.02 -27.53,0.23 0.03,-2.12 0.02,-4.24 -0.03,-6.36 m 72.86,11.47 c 14.64,-0.3 29.29,0.09 43.94,-0.19 3.84,0.19 5.18,-4.34 5.25,-7.43 0.29,-3.52 -0.48,-8.62 -4.63,-9.42 -14.87,-0.34 -29.75,0.09 -44.62,-0.19 0.09,5.74 0.04,11.49 0.06,17.23 m 4.5,-4.83 c 0.12,-2.5 0.13,-5.02 -0.04,-7.52 2.41,-0.37 4.86,-0.88 7.33,-0.64 10.75,0.8 21.52,0.29 32.28,0.46 0.3,2.55 0.48,5.11 0.56,7.67 -2.89,0.35 -5.79,0.92 -8.71,0.64 -10.45,-0.97 -20.95,-0.05 -31.42,-0.61 M 297.62,618.08 c -0.06,4.34 4.64,6.7 8.47,6.55 18.32,-0.01 36.64,0.07 54.96,-0.03 9.14,0.02 18.19,-4.68 22.95,-12.56 6.42,-10.91 4.73,-25.38 -2.65,-35.41 -5.1,-7.23 -13.2,-12.43 -22.1,-13.26 7.58,-11.6 15.38,-23.11 21.58,-35.54 1.98,-3.77 -0.11,-9.01 -4.19,-10.3 -2.49,-0.56 -5.07,-0.32 -7.6,-0.48 -10.28,14.73 -19.73,30.01 -28.85,45.48 -5.52,0.13 -11.03,-0.02 -16.54,0.12 -0.82,-13.57 -2.19,-27.1 -3.43,-40.64 -0.17,-3.05 -3.51,-4.48 -6.15,-4.72 -6.05,-0.3 -12.11,-0.12 -18.15,-0.12 -2.78,0.19 -6.82,1.38 -6.81,4.79 2.7,32.05 5.67,64.08 8.51,96.12 m 15.08,-9.53 c -0.87,-9.96 -1.53,-19.95 -2.61,-29.89 14.3,0.04 28.6,0.03 42.89,0 2.87,0.03 5.89,-0.23 8.59,0.97 5.01,2.18 8.6,6.98 10.04,12.17 1.84,7.36 -3.5,16.6 -11.54,16.75 -15.79,0.02 -31.58,0 -47.37,0 M 501.95,624 c 13.33,0.87 26.71,0.89 40.05,0.17 6.17,-0.07 12.76,-0.51 18.04,-4.06 6.25,-4.2 9.71,-11.45 11.21,-18.64 1.6,-8.63 -1.37,-17.41 -5.9,-24.7 10.27,-3.5 17.55,-13.9 17.51,-24.72 0.77,-12.95 -6.99,-25.69 -18.42,-31.58 -5.39,-2.57 -11.47,-3.41 -17.39,-3.31 -18.01,0.03 -36.03,-0.06 -54.04,0.02 -4.19,0.24 -5.45,5.35 -4.58,8.77 2.75,30.38 5.41,60.77 8.07,91.15 0.13,3.08 2.14,6.57 5.45,6.9 m 9.84,-15.26 c -0.88,-10.03 -1.9,-20.05 -2.53,-30.11 10.25,0.15 20.5,-0.03 30.75,0.06 10.16,-0.21 17.79,11.28 15.24,20.73 -2.25,4.32 -6.06,8.69 -11.2,9.19 -10.75,0.04 -21.51,-0.29 -32.26,0.13 m 11.24,-46.15 c -0.9,-9.97 -1.79,-19.94 -2.67,-29.91 10.2,0.12 20.39,0.02 30.59,0.01 10.26,-0.22 18.14,11.31 15.48,20.89 -2.13,4.42 -6.07,9 -11.37,9.01 -10.68,0.05 -21.35,-0.05 -32.03,0 m 175.96,46.16 c -6.9,2.53 -5.4,15.34 2.16,15.82 49.96,0.16 99.92,-0.08 149.88,0.09 2.86,0.23 6.73,-1.1 6.85,-4.47 0.91,-4.66 -1.06,-11.93 -6.94,-11.61 -8.29,-0.06 -16.59,-0.02 -24.88,0 -0.19,-8.9 -1.74,-17.72 -1.8,-26.62 2.94,-3.97 8.72,-2.72 12.75,-4.87 1.91,-1.36 1.63,-3.93 1.47,-5.99 -1.33,-12.58 -2.24,-25.21 -3.62,-37.8 4.27,-0.5 8.65,-0.57 12.83,-1.68 4.43,-3.74 2.6,-11.49 -2.06,-14.23 -22.87,-0.52 -45.77,-0.12 -68.65,-0.21 -3.45,-0.19 -4.66,4.02 -4.51,6.78 0.07,3.29 1.45,7.02 4.59,8.51 8.95,0.74 17.95,-0.17 26.91,0.46 -0.26,4.71 0.55,9.37 0.9,14.05 1.9,20.52 3.5,41.08 5.65,61.58 -23.37,0.12 -46.73,0.01 -70.1,-0.03 -0.31,-8.84 -2.01,-17.61 -1.8,-26.48 2.94,-4.47 9.19,-2.54 13.2,-5.27 1.43,-1.88 0.66,-4.51 0.74,-6.72 -1.2,-15.39 -2.83,-30.75 -4,-46.14 -0.18,-1.88 -0.47,-4.15 -2.28,-5.2 -2.76,-1.76 -6.17,-1.58 -9.29,-1.59 -6.19,0.18 -12.51,-0.6 -18.54,1.17 -0.57,1.51 -1.58,3 -1.24,4.68 2.45,28.55 5.13,57.09 7.5,85.65 -8.57,-0.03 -17.17,-0.3 -25.72,0.12 m 292.32,15.84 c 13.22,0.21 26.44,-0.08 39.66,0.06 4.82,0.03 9.84,-1.94 12.76,-5.91 4.59,-5.84 5.69,-13.99 3.5,-21 -1.63,-4.83 -7.97,-4.99 -11.95,-3.47 -3.42,2.05 -2.57,6.45 -2.55,9.77 0.05,1.72 -0.6,4.58 -2.8,4.41 -14.66,0.27 -29.32,0.01 -43.98,0.13 -5.41,0.27 -9.66,-3.88 -12.81,-7.78 -5.35,-7.58 -1.17,-19.71 7.84,-21.98 12.97,-0.45 25.96,0.18 38.94,-0.28 8.99,-0.61 16.73,-7.05 20.58,-14.95 5.6,-11.69 2.93,-26.69 -6.08,-35.97 -6.14,-6.87 -15.32,-10.4 -24.43,-10.47 -14,-0.01 -27.99,0.04 -41.98,-0.03 -5.49,-0.26 -10.39,3.06 -13.94,6.95 -4.54,5.09 -4.95,12.67 -3.09,18.95 1.95,5.7 10.54,7.07 14.46,2.67 2.17,-3.31 -0.58,-7.19 0.19,-10.6 2.82,-3.25 7.56,-2.89 11.46,-2.76 7.56,0.52 15.13,0.9 22.69,1.34 10.01,0.9 15.58,13.62 10.78,22.01 -1.89,3.33 -5.13,6.13 -8.97,6.75 -9.33,0.75 -18.84,-0.89 -28.03,1.37 -10.2,2.9 -17.48,12.78 -18.49,23.16 -2.13,15.36 7.92,31.45 22.69,36.19 4.35,1.51 9,1.36 13.55,1.44 m -554.8,-1.23 c 10.46,1.71 21.26,1.81 31.67,-0.25 11.27,-3.09 18.17,-14.91 18.67,-26.1 -1.22,-14.64 -2.45,-29.3 -3.77,-43.94 -0.29,-3.53 -0.51,-7.1 -1.35,-10.56 -2.57,-10.04 -9.74,-19.11 -19.55,-22.86 -8.02,-3.13 -16.76,-2.48 -25.18,-2.47 -9.28,-0.17 -18.68,-0.2 -27.76,1.98 -6.19,1.59 -12.17,5.38 -15,11.3 -4.38,8.47 -3.42,18.35 -2.98,27.54 0.74,6.08 -0.49,12.69 2.62,18.26 3.72,2.79 8.87,1.79 12.86,3.94 1.72,1.33 1.51,3.76 1.83,5.68 0.88,9.59 3,19.61 9.2,27.27 4.55,5.79 11.65,8.92 18.74,10.21 m 1,-15.22 c -6.32,-2.17 -12.18,-7.98 -12.06,-15.05 -1.37,-16.03 -2.82,-32.07 -4.22,-48.1 0.02,-4.56 3.35,-8.48 7.23,-10.54 4.74,-2.66 10.35,-1.41 15.52,-1.76 5.04,0.3 10.81,-1.08 15.04,2.44 3.41,2.73 7.26,6.09 7.59,10.77 1.4,16.35 2.9,32.69 4.19,49.04 0.74,7.05 -5.55,14.3 -12.82,13.63 -6.82,-0.28 -13.69,0.55 -20.47,-0.43 m 197.01,15.17 c 10.55,1.87 21.44,1.68 32,-0.07 11.4,-2.99 18.37,-15 18.64,-26.27 -1,-16 -2.76,-31.94 -3.88,-47.93 -0.75,-11.66 -7.49,-23.23 -18.24,-28.29 -8.69,-4.33 -18.64,-3.61 -28.04,-3.56 -10.01,-0.19 -20.25,-0.22 -29.9,2.76 -5.84,1.83 -10.82,6.25 -13.02,11.99 -4.85,11.13 -2.17,23.44 -1.91,35.12 0.6,3.58 0.19,8.81 4.29,10.36 3.55,1.43 7.89,0.68 11.03,3.17 1.98,1.94 1.51,4.99 1.93,7.48 0.75,9.28 3.38,18.79 9.51,25.99 4.5,5.08 11.03,7.92 17.59,9.25 m 3.85,-14.78 c -7.91,-0.9 -14.86,-8.45 -14.63,-16.54 -1.05,-16.03 -2.83,-32.02 -4.01,-48.04 0.52,-4.82 4.75,-8.21 8.76,-10.33 7.04,-1.81 14.37,-0.48 21.53,-0.95 5.34,-0.25 9.51,3.79 12.76,7.54 2.88,3.17 2.5,7.72 2.85,11.68 1.28,14.37 2.38,28.76 3.68,43.13 0.42,6.67 -5.21,14.03 -12.29,13.55 -6.22,-0.07 -12.43,0.08 -18.65,-0.04 m 263.18,14.82 c 9.44,1.74 19.13,1.49 28.65,0.43 7.61,-0.81 14.48,-5.93 17.83,-12.77 2.87,-5.63 5.02,-12.21 3.35,-18.53 -0.85,-2.6 -3.86,-3.41 -6.3,-3.47 -2.77,-0.11 -6.15,-0.25 -8.06,2.13 -2.1,4.28 -1.22,9.66 -4.18,13.58 -2.31,2.32 -5.52,3.81 -8.8,3.82 -5.36,0.1 -10.71,-0.06 -16.06,0.07 -7.12,0.68 -13.79,-4.45 -16.58,-10.7 -1.63,-10.88 -2.05,-21.91 -3.16,-32.86 -0.54,-6.68 -1.6,-13.33 -1.74,-20.05 -0.52,-4.58 3.35,-8.22 6.91,-10.46 4.38,-2.82 9.72,-1.48 14.6,-1.81 5.85,-0.17 12.35,-0.55 17.42,2.92 4.8,3.75 4.98,10.68 9.29,14.82 3.32,3.47 9.93,3.01 12.53,-1.08 1.57,-3.28 -0.92,-6.66 -1.64,-9.86 -2.59,-8.74 -9.02,-16.27 -17.62,-19.52 -8.84,-3.91 -18.65,-2.59 -28.01,-2.88 -9.4,-0.08 -18.99,0.04 -28.06,2.81 -6.96,2.15 -12.43,8.12 -14.26,15.13 -3.43,11.09 -0.85,22.7 -0.58,34.01 0.18,2.61 0.71,5.32 2.32,7.45 3.53,2.19 7.98,1.63 11.71,3.27 1.87,0.97 2.73,3.08 2.72,5.1 0.72,9.45 2.52,19.29 8.21,27.12 4.52,6.36 12,9.92 19.51,11.33 z"
       style="fill:#010101;fill-opacity:1;fill-rule:nonzero;stroke:#010101;stroke-width:0.09375;stroke-linecap:butt;stroke-linejoin:miter;stroke-miterlimit:10;stroke-dasharray:none;stroke-opacity:1"
       id="path3536"
       inkscape:connector-curvature="0" /><path
       d="m 594.2,484.01 c 3.11,-0.04 6.26,-0.02 9.3,0.79 -2.02,-4.43 -1.8,-9.42 -3.04,-14.08 -1.8,-12.99 -5.08,-25.73 -6.84,-38.73 -2.05,-10.33 -3.82,-20.72 -5.51,-31.11 -1.89,-8.15 -4.22,-16.5 -3.61,-24.91 -3.25,0.22 -6.52,0.33 -9.75,0.82 6.6,33.37 12.29,66.93 18.67,100.35 0.5,2.26 0.67,4.57 0.78,6.87 m 102.35,-37.57 c 5.02,6.25 11.28,11.3 16.44,17.42 5.66,-5.27 11.01,-10.87 16.59,-16.23 5.05,-4.32 9.8,-8.98 14.54,-13.63 2.15,-1.95 -1.3,-4.01 -2.3,-5.61 -5.79,6.07 -12.06,11.63 -18.07,17.44 -3.51,3.32 -6.74,6.95 -10.67,9.79 -4.26,-3.65 -7.99,-7.86 -11.92,-11.85 3.78,-5.15 5.54,-11.52 5.23,-17.88 -1.66,5.32 -5,9.9 -9.23,13.48 -3.76,-4.1 -8.27,-7.53 -11.32,-12.25 -1.29,1.27 -2.55,2.56 -3.8,3.84 4.69,5.3 9.39,10.59 14.51,15.48 m -56.22,4 c 9.98,5.93 22.02,8.62 33.54,6.79 3.35,-0.46 6.67,-1.19 9.98,-1.92 -2.47,-2.25 -4.73,-4.71 -6.96,-7.19 -10.22,0.88 -21.29,1.64 -30.61,-3.47 -1.77,1.78 -3.52,3.59 -5.38,5.27 l -0.57,0.52 m -27.04,4.8 c 9.82,-7.81 17.94,-17.56 28.22,-24.82 3.3,-2.48 6.09,-5.53 8.77,-8.66 -4.72,-3.34 -10.9,-4 -15.08,-8.15 -1.27,1.51 -2.47,3.07 -3.69,4.6 3.65,1.06 7.23,2.38 10.67,4.03 -3.73,3.66 -7.46,7.32 -11.28,10.87 -1.16,-2.21 -2.28,-4.46 -3.39,-6.71 0.18,3.16 0.53,6.3 0.96,9.43 -5.71,4.64 -10.23,10.55 -16.03,15.07 0.3,1.45 0.56,2.91 0.85,4.34 m 135.67,-41.29 c 6.14,6.19 12.76,12.05 17.42,19.5 -0.72,-3.56 1.45,-8.36 -1.89,-10.98 -16.59,-17.23 -33.16,-34.5 -49.89,-51.6 -4.63,4.94 -9.65,9.5 -14.46,14.25 -1.47,1.86 -3.88,1.04 -5.64,0.17 -21.5,-9.56 -48.16,-7.21 -67.06,7.04 -0.97,0.82 -2.09,1.19 -3.35,1.13 -2.81,3.89 -5.9,7.58 -8.48,11.63 -4.47,-1.46 -8.76,-3.38 -13.23,-4.86 0.59,2.25 1.21,4.47 1.68,6.73 3.52,0.84 6.62,2.76 9.91,4.19 -0.31,4.18 -0.81,8.35 -0.86,12.54 0.78,-5.53 2.95,-10.83 6.51,-15.16 9.55,-11.84 24.54,-18.19 39.41,-19.75 8.11,-0.14 16.42,-0.83 24.33,1.46 14.39,3.19 28.47,11.6 35.18,25.15 1.83,3.09 1.71,6.76 2.08,10.21 0.26,-3.7 0.39,-7.45 -0.31,-11.12 -0.7,-4.09 -2.86,-7.77 -3.41,-11.9 -3.79,-4.67 -8.87,-8.08 -12.76,-12.63 1.22,-3.32 4.59,-5.34 6.81,-8.01 1.3,-1.18 3.19,-3.92 5.07,-2.11 11.39,10.97 21.58,23.12 32.94,34.12 m -88.39,16.4 c 5.1,-4.86 10.55,-9.33 15.42,-14.44 3.51,-3.43 6.54,-7.49 10.92,-9.94 -2.32,-0.59 -4.63,-1.18 -6.92,-1.85 -3.29,3.15 -6.5,6.37 -9.68,9.62 -2.59,2.61 -5.65,4.72 -8.11,7.46 -2.31,2.46 -1.45,6.12 -1.63,9.15 m -23.29,-68.72 c 12.5,1.08 25.27,2.77 37.66,-0.09 4.95,-1.09 9.82,-3.97 12.11,-8.66 3.04,-6.4 1.83,-14.2 -1.91,-20.06 -3.2,-5.45 -8.97,-8.72 -14.97,-10.19 5.09,-7.04 8.38,-15.17 12.07,-22.98 -8.23,-0.22 -16.46,-0.19 -24.69,-0.03 -2.45,7.04 -5.17,13.97 -8.12,20.8 -1.77,-6.95 -3.28,-13.96 -4.93,-20.94 -7.26,0.05 -14.52,0.08 -21.77,-0.01 4.85,20.72 9.53,41.48 14.55,62.16 m 18.21,-14.87 c -1.13,-4.87 -2.4,-9.71 -3.38,-14.63 3.47,0.14 7.27,0.35 10.03,2.75 2.83,2.29 4.8,6.7 2.86,10.1 -2.42,2.62 -6.33,2.05 -9.51,1.78 m 44.08,9.67 c 10.94,7.63 25.32,7.99 37.85,4.71 -1.55,-5.66 -3.04,-11.34 -4.63,-16.99 -5.28,1.45 -10.75,3.89 -16.3,2.53 -1.77,-0.46 -4.13,-2.24 -3.18,-4.28 5.81,-4.08 13.23,-5.65 18.27,-10.86 3.99,-4.09 4.74,-10.59 2.56,-15.76 -3.79,-9.62 -13.61,-15.82 -23.61,-17.13 -8.8,-1 -17.8,-0.06 -26.26,2.49 1.63,5.85 3.25,11.7 4.96,17.52 5.72,-2 11.66,-4.18 17.84,-3.72 2.06,0.23 4.49,1.02 5.38,3.1 0.6,2.54 -2.16,3.52 -3.9,4.49 -6.39,3.06 -13.81,6.1 -17.08,12.85 -3.11,7.83 1.54,16.59 8.1,21.05 m -139.46,5.49 c 14.43,-0.06 28.86,0.04 43.29,-0.06 -1.51,-5.53 -2.72,-11.13 -4.17,-16.68 -6.87,0.15 -13.74,0.04 -20.6,0.07 -0.68,-2.85 -1.34,-5.7 -2.01,-8.55 7.16,0 14.32,-0.03 21.48,0.02 -1.09,-5.15 -2.54,-10.21 -3.65,-15.35 -7.13,-0.19 -14.27,0.01 -21.4,-0.2 -1.55,-7.19 -3.45,-14.31 -4.94,-21.52 -7.48,-0.22 -14.97,-0.19 -22.45,-0.03 4.74,20.79 9.67,41.52 14.45,62.3 m 48.95,-0.05 c 7.47,0.06 14.94,0.03 22.42,0.03 -4.78,-20.76 -9.76,-41.46 -14.41,-62.25 -7.52,-0.24 -15.04,-0.07 -22.55,-0.18 4.88,20.79 9.7,41.6 14.54,62.4 m 132.34,0.02 c 18.09,-0.04 36.18,0.13 54.27,-0.09 -1.37,-5.99 -2.56,-12.01 -3.81,-18.03 -5.39,-0.02 -10.78,0.1 -16.17,-0.06 -3.3,-14.75 -7.03,-29.39 -10.46,-44.11 -7.49,-0.15 -14.98,-0.14 -22.47,0.02 3.62,14.71 7.09,29.45 10.67,44.17 -5.8,-0.01 -11.6,-0.02 -17.4,0.02 1.8,6.02 3.68,12.02 5.37,18.08 z"
       style="fill:#242021;fill-opacity:1;fill-rule:nonzero;stroke:#242021;stroke-width:0.09375;stroke-linecap:butt;stroke-linejoin:miter;stroke-miterlimit:10;stroke-dasharray:none;stroke-opacity:1"
       id="path3538"
       inkscape:connector-curvature="0" /><path
       d="m 603.5,484.8 c 12.59,-11.5 24.67,-23.54 37.4,-34.88 1.86,-1.68 3.61,-3.49 5.38,-5.27 4.68,-4.63 9.59,-9.01 14.27,-13.65 0,-0.16 0.02,-0.49 0.02,-0.65 0.18,-3.03 -0.68,-6.69 1.63,-9.15 2.46,-2.74 5.52,-4.85 8.11,-7.46 -5.79,-2.65 -11.57,-5.34 -17.41,-7.87 -1.44,-0.55 -3.03,-1.3 -4.55,-0.59 -4.89,1.79 -9.54,4.54 -13.15,8.33 4.18,4.15 10.36,4.81 15.08,8.15 -2.68,3.13 -5.47,6.18 -8.77,8.66 -10.28,7.26 -18.4,17.01 -28.22,24.82 -0.29,-1.43 -0.55,-2.89 -0.85,-4.34 -3.08,-14.59 -5.94,-29.24 -8.38,-43.94 -0.47,-2.26 -1.09,-4.48 -1.68,-6.73 4.47,1.48 8.76,3.4 13.23,4.86 2.58,-4.05 5.67,-7.74 8.48,-11.63 -12.99,-6.27 -26.35,-11.78 -39.59,-17.49 -0.61,8.41 1.72,16.76 3.61,24.91 1.69,10.39 3.46,20.78 5.51,31.11 1.76,13 5.04,25.74 6.84,38.73 1.24,4.66 1.02,9.65 3.04,14.08 z"
       style="fill:#ed1b24;fill-opacity:1;fill-rule:nonzero;stroke:#ed1b24;stroke-width:0.09375;stroke-linecap:butt;stroke-linejoin:miter;stroke-miterlimit:10;stroke-dasharray:none;stroke-opacity:1"
       id="path3540"
       inkscape:connector-curvature="0" /></g></svg>