<?xml version="1.0" encoding="UTF-8" standalone="no"?>
<!-- Created with Inkscape (http://www.inkscape.org/) -->

<svg
   xmlns:dc="http://purl.org/dc/elements/1.1/"
   xmlns:cc="http://creativecommons.org/ns#"
   xmlns:rdf="http://www.w3.org/1999/02/22-rdf-syntax-ns#"
   xmlns:svg="http://www.w3.org/2000/svg"
   xmlns="http://www.w3.org/2000/svg"
   xmlns:sodipodi="http://sodipodi.sourceforge.net/DTD/sodipodi-0.dtd"
   xmlns:inkscape="http://www.inkscape.org/namespaces/inkscape"
   id="svg3702"
   version="1.1"
   inkscape:version="0.91 r13725"
   xml:space="preserve"
   width="1671.9797"
   height="305.6181"
   viewBox="0 0 1671.9797 305.6181"
   sodipodi:docname="outreach-text.svg"><metadata
     id="metadata3708"><rdf:RDF><cc:Work
         rdf:about=""><dc:format>image/svg+xml</dc:format><dc:type
           rdf:resource="http://purl.org/dc/dcmitype/StillImage" /><dc:title></dc:title></cc:Work></rdf:RDF></metadata><defs
     id="defs3706" /><sodipodi:namedview
     pagecolor="#ffffff"
     bordercolor="#666666"
     borderopacity="1"
     objecttolerance="10"
     gridtolerance="10"
     guidetolerance="10"
     inkscape:pageopacity="0"
     inkscape:pageshadow="2"
     inkscape:window-width="1280"
     inkscape:window-height="672"
     id="namedview3704"
     showgrid="false"
     inkscape:zoom="0.17179254"
     inkscape:cx="838.8086"
     inkscape:cy="60.295645"
     inkscape:window-x="0"
     inkscape:window-y="1"
     inkscape:window-maximized="1"
     inkscape:current-layer="g3710"
     fit-margin-top="0"
     fit-margin-left="0"
     fit-margin-right="0"
     fit-margin-bottom="0" /><g
     id="g3710"
     inkscape:groupmode="layer"
     inkscape:label="Outreach-text"
     transform="matrix(1.25,0,0,-1.25,0.05859375,932.19747)"><path
       d="m 39.28,685.69 c 17.57,20.39 42.86,33.95 69.61,37.1 26.54,3.33 54.21,-3.4 76.12,-18.78 21.49,-14.84 37.39,-37.58 43.82,-62.9 5.63,-21.82 4.37,-45.36 -3.64,-66.42 -9.23,-24.46 -27.48,-45.48 -50.6,-57.74 13.39,8.95 24.69,21.07 32.23,35.33 11.37,21.13 14.21,46.6 8.04,69.76 -5.69,21.73 -19.38,41.19 -37.8,54.02 -16.25,11.46 -36.17,17.59 -56.05,17.28 -23.97,-0.11 -47.68,-9.79 -64.99,-26.36 -17.03,-16.06 -27.84,-38.55 -29.59,-61.91 -1.52,-18.61 2.52,-37.65 11.59,-53.98 7.24,-13.2 17.69,-24.59 30.11,-33.08 -15.6,8.74 -28.9,21.48 -38.52,36.53 -12.39,19.29 -18.43,42.55 -17.04,65.43 1.26,24.07 10.87,47.57 26.71,65.72 m 16.96,8.05 C 35.11,677.01 20.77,651.93 17.32,625.16 14.2,602.46 18.85,578.91 30,558.93 c -4.75,10.21 -8.6,20.93 -10.13,32.13 -3.79,24.92 1.87,51.15 15.81,72.17 14.58,22.36 38.09,38.7 64.19,44.37 24.35,5.42 50.63,1.76 72.44,-10.38 25.14,-13.74 44.06,-38.34 50.7,-66.22 5.11,-20.55 3.37,-42.47 -3.95,-62.26 7.7,17.98 10.49,38.06 7.65,57.44 -3.48,25.04 -16.47,48.54 -35.65,64.98 -17.18,14.89 -39.3,23.99 -62.01,25.37 -25.98,1.85 -52.51,-6.45 -72.81,-22.79 m 47.37,8.52 C 77.6,697.5 53.96,681.51 39.71,659.26 29.53,643.37 23.64,624.41 24.44,605.47 c 0.54,20.35 8.28,40.29 20.86,56.22 13.8,17.53 33.73,30.15 55.53,34.96 22.24,5.01 46.21,2.02 66.45,-8.51 22.03,-11.28 39.45,-31.2 47.64,-54.56 0.67,-1.73 0.23,-3.92 1.69,-5.3 -5.83,26.98 -24.28,50.88 -48.58,63.94 -19.47,10.64 -42.64,14.14 -64.42,10.04 m 3.98,-15.03 c 19.22,3.17 39.43,0 56.7,-9.02 19.07,-9.84 34.43,-26.64 42.48,-46.54 8.12,-19.75 8.91,-42.39 2.27,-62.68 -5.26,-16.22 -15.21,-30.88 -28.33,-41.77 -16.01,-13.46 -36.8,-21.09 -57.72,-21.13 -17.22,-0.19 -34.45,4.7 -49.02,13.87 -15.88,9.93 -28.58,24.85 -35.77,42.14 -8.6,20.43 -9.31,44.02 -2.04,64.95 10.47,31.11 38.96,55.2 71.43,60.18 m 0.9,-3.9 c -8.68,-1.59 -17.09,-4.71 -24.7,-9.19 -5.82,-3.29 -10.83,-7.74 -16.04,-11.88 -10.16,-8.51 -18.33,-19.4 -23.54,-31.6 -7.4,-17.09 -8.83,-36.64 -4.16,-54.66 4.26,-16.66 13.8,-31.89 26.87,-43.06 14.9,-12.88 34.43,-20.3 54.13,-20.4 16.06,-0.28 32.14,4.21 45.76,12.71 14.7,9.13 26.5,22.85 33.26,38.79 8.32,19.38 8.96,41.89 1.83,61.73 -5.25,14.9 -14.92,28.05 -27.16,37.99 -17.32,16.58 -42.7,24.06 -66.25,19.57 M 84.03,661.99 c 10.51,12.73 27.65,19.52 44.03,17.4 19.17,-2.07 36.22,-16.45 41.61,-34.95 2.45,-7.44 2.16,-15.33 1.95,-23.05 -0.83,5.16 -0.78,10.47 -2.26,15.52 -3.79,14.55 -14.76,26.97 -28.68,32.62 -14.08,5.86 -30.88,4.59 -43.89,-3.39 -15.42,-9.1 -24.7,-27.08 -23.65,-44.91 -2.54,14.32 1.41,29.68 10.89,40.76 m -0.17,-17.92 c 6.21,12.22 18.54,21.1 32.13,23 13.55,2.13 27.91,-2.77 37.4,-12.65 10.26,-10.37 14.42,-26.01 11.15,-40.17 0.61,11.59 -3.38,23.44 -11.47,31.84 -9.26,10.05 -23.63,15 -37.11,12.82 C 102.9,657.04 91.08,648.53 85,636.85 c -3.67,-6.79 -5.11,-14.59 -4.88,-22.27 -2.17,9.88 -0.97,20.51 3.74,29.49 m 8.82,-6.64 c 7.96,11.97 23.52,18.16 37.52,14.81 12.91,-2.76 23.73,-13.25 26.9,-26.07 1.97,-7.1 1.09,-14.59 -0.82,-21.6 1.24,10.61 -1.32,21.95 -8.87,29.81 -10.5,11.85 -29.48,14.6 -42.94,6.26 -11.62,-6.7 -18.05,-20.44 -16.81,-33.67 -2.5,10.29 -1.17,21.69 5.02,30.46 m 79.58,-37.72 c 8.06,16.03 7.33,35.74 -1.08,51.48 7.27,-11.26 10.86,-24.93 9.42,-38.31 -1.47,-15.68 -9.69,-30.54 -22.1,-40.22 -10.55,-8.35 -24.07,-12.86 -37.52,-12.47 -15.54,0.23 -30.8,7.11 -41.36,18.49 -11.38,11.98 -17.2,28.97 -15.58,45.41 0.75,9.33 4.09,18.29 8.89,26.28 -4.35,-9.47 -7.01,-19.88 -6.04,-30.36 1.15,-16.92 10.66,-32.95 24.85,-42.2 12.86,-8.6 29.4,-11.32 44.37,-7.45 15.57,3.87 29.12,14.94 36.15,29.35 M 65.15,646.24 c -4.37,-9.12 -6.97,-19.16 -6.83,-29.31 -0.03,-15.96 6.31,-31.8 17.28,-43.38 10.48,-11.22 25.13,-18.46 40.44,-19.83 15.76,-1.56 32.03,3.04 44.61,12.68 14.27,10.74 23.65,27.71 25,45.54 1.09,11.79 -1.53,23.69 -6.62,34.31 8.5,-12.95 12.65,-28.74 11.15,-44.19 -1.35,-15.63 -8.36,-30.68 -19.41,-41.81 -11.26,-11.49 -26.71,-18.8 -42.76,-20.1 -15.81,-1.44 -32.06,2.9 -45.04,12.03 -14.79,10.27 -25.26,26.57 -28.25,44.35 -3.04,17.11 0.85,35.23 10.43,49.71 m 130.64,-58.76 c 4.9,16.96 3.36,35.44 -3.48,51.65 7.46,-14.08 10.96,-30.3 9.28,-46.19 -1.91,-20.31 -12.09,-39.64 -27.67,-52.78 -14.06,-12.05 -32.44,-18.91 -50.96,-18.95 -15.97,-0.19 -31.94,4.63 -45.15,13.59 -15.15,10.19 -26.62,25.72 -31.79,43.23 -6.08,19.91 -3.64,41.96 5.92,60.38 -4.09,-11 -6.66,-22.71 -5.79,-34.5 0.97,-18.75 9.25,-36.96 22.68,-50.06 12.77,-12.65 30.14,-20.53 48.08,-21.71 16.15,-1.2 32.63,2.93 46.28,11.64 15.72,9.93 27.61,25.77 32.6,43.7 m -103.8,24.5 c 1.43,13.73 13.37,25.37 27.13,26.47 12.95,1.5 26.16,-6.47 30.99,-18.55 4.96,-11.42 1.73,-25.46 -7.3,-33.92 5.63,6.93 8.41,16.37 5.98,25.13 -2.95,12.63 -15.88,21.85 -28.8,20.47 -13.09,-0.87 -24.39,-12.4 -24.89,-25.54 -0.73,-8.38 3.17,-16.38 8.92,-22.26 -8.54,6.5 -13.52,17.48 -12.03,28.2 m 18.38,8.55 c 7.19,4.39 16.8,4.27 23.89,-0.28 7.48,-4.59 11.83,-13.74 10.54,-22.44 -0.66,-5.74 -3.84,-10.87 -8.03,-14.73 2.66,3.49 5.02,7.42 5.36,11.89 0.98,7.67 -2.96,15.6 -9.58,19.53 -6.67,4.16 -15.77,3.84 -22.13,-0.79 -6.75,-4.65 -10.08,-13.7 -7.84,-21.61 0.75,-3.28 2.76,-6.03 4.51,-8.84 -4.26,4.17 -7.47,9.64 -7.82,15.69 -0.82,8.54 3.68,17.28 11.1,21.58 m -2.89,-20.58 c 1.95,7 9.41,11.86 16.61,10.75 7.55,-0.82 13.65,-8.01 13.24,-15.59 0,-3.91 -1.98,-7.38 -4.25,-10.42 2.46,4.83 2.82,11.09 -0.82,15.45 -4.5,6.1 -14.41,6.61 -19.49,0.97 -4.38,-4.26 -4.42,-11.13 -1.73,-16.31 -3.45,4.15 -5.26,9.86 -3.56,15.15 m 7.18,-5.53 c 3.35,5.38 12.24,5.09 15.19,-0.53 2.43,-3.72 0.88,-8.23 -1.42,-11.58 0.5,2.69 1.02,5.82 -0.98,8.06 -2.71,3.66 -8.96,3.29 -11.21,-0.68 -1.52,-2.19 -0.87,-4.91 -0.6,-7.36 -2.34,3.53 -3.76,8.38 -0.98,12.09 m 6.45,-6.6 c 2.45,0.98 5.35,-1.23 5.05,-3.86 -0.01,-2.89 -3.79,-4.72 -6.05,-2.9 -2.54,1.61 -1.92,6 1,6.76 z"
       style="fill:#ffffff;fill-opacity:1;fill-rule:nonzero;stroke:#ffffff;stroke-width:0.09375;stroke-linecap:butt;stroke-linejoin:miter;stroke-miterlimit:10;stroke-dasharray:none;stroke-opacity:1"
       id="path3712"
       inkscape:connector-curvature="0" /><path
       d="m 53.43,724.55 c 21.12,14.49 46.93,21.98 72.53,21.09 29.66,-0.76 58.8,-12.95 80.24,-33.45 19.3,-18.21 32.4,-42.86 36.54,-69.08 4.14,-25.45 0.02,-52.19 -11.79,-75.13 -13.56,-26.47 -37.03,-48.09 -65.07,-58.3 15.56,7.21 30.06,17.03 41.3,30.1 22.3,25.02 32.24,60.3 26.57,93.31 -5.19,32.53 -25.6,62.09 -53.96,78.78 C 149.53,730.06 110.6,732.59 78.15,718.8 50.17,707.13 27.37,683.68 16.52,655.37 6.86,630.6 6.35,602.4 15.12,577.3 c 6.72,-19.51 18.97,-37.02 34.87,-50.15 9.17,-7.75 19.76,-13.56 30.72,-18.37 -24.2,8.36 -45.27,25.09 -59.64,46.2 C 8.06,573.97 0.82,596.71 0,619.68 l 0,8.66 c 0.58,9.28 1.81,18.54 4.33,27.51 7.51,27.77 25.3,52.55 49.1,68.7 m 211.92,-8.08 c 5.27,1.93 11.69,0.63 15.52,-3.57 4.73,-5.01 5.64,-12.29 5.78,-18.89 0.02,-31.68 0.01,-63.35 0.01,-95.03 -0.07,-11.78 0.36,-23.81 4.06,-35.11 2.7,-8.1 8.73,-15.43 17,-18.18 8.38,-2.73 17.65,-2.79 26.12,-0.4 7.29,2.04 13.29,7.54 16.37,14.4 5.82,12.55 6,26.74 5.92,40.31 0,30.99 -0.01,61.98 0,92.97 0.1,6.78 0.76,14.22 5.29,19.62 5.08,6.08 15.35,6.34 20.88,0.74 5.06,-5 6.08,-12.54 6.24,-19.33 0.03,-28.67 0,-57.34 0.01,-86.01 0.1,-17.02 0.13,-34.29 -3.98,-50.92 -3.54,-14.91 -12.71,-28.58 -25.63,-36.92 -11.8,-7.51 -26.24,-9.29 -39.96,-8.71 -14.56,0.55 -29.91,3.6 -41.45,13.08 -11.25,9.32 -17.44,23.33 -20.18,37.41 -2.58,12.52 -3.17,25.35 -3.11,38.11 0.04,31.67 -0.07,63.33 0.05,95 0.05,8.2 2.56,18.2 11.06,21.43 m 651.98,-6.89 c 6.96,10.09 23.72,10.45 31.31,0.94 6.91,-8.39 8.94,-19.4 12.26,-29.47 12.81,-39.65 25.66,-79.29 38.5,-118.94 2.91,-9.6 6.78,-19 8.28,-28.97 1.33,-8.25 -2.82,-17.7 -10.78,-20.96 -6.38,-2.62 -14.08,0.81 -16.77,7.06 -6.17,13.8 -9.7,28.56 -14.36,42.89 -21.57,-0.02 -43.13,0.02 -64.69,-0.02 -4.06,-12.99 -7.42,-26.22 -12.18,-38.98 -1.67,-3.97 -3.21,-8.71 -7.46,-10.61 -5.72,-2.68 -12.89,-0.72 -16.6,4.35 -6.12,6.47 -5.59,16.23 -2.94,24.12 14.82,47.15 29.56,94.33 44.45,141.45 3.22,9.19 5.24,19.09 10.98,27.14 m -7.79,-117.01 c 15.87,-0.06 31.73,0 47.6,-0.03 -8.05,27.23 -15.89,54.52 -24.06,81.71 -8.17,-27.12 -15.63,-54.47 -23.54,-81.68 m 179.89,123.7 c 13.88,2.38 28.65,0.84 41.31,-5.53 17.38,-8.9 30.92,-25.42 35.36,-44.53 2.23,-8.78 1.36,-20.09 -7.01,-25.38 -5.58,-3.06 -13.58,-1.11 -16.53,4.72 -5.31,9.35 -8.41,20.05 -15.78,28.16 -11.23,14.29 -34.4,14.88 -47.73,3.27 -9.64,-8.28 -14.91,-20.47 -17.69,-32.62 -3.36,-15.17 -3.7,-30.86 -2.56,-46.3 1.25,-15.04 4.88,-30.72 14.83,-42.52 12.24,-14.71 36.92,-16.04 50.9,-3.1 7.05,6.55 11.36,15.51 13.99,24.64 1.31,4.78 2.82,9.62 5.65,13.74 3.17,4.61 9.96,5.45 14.76,3.07 5.36,-2.84 8.56,-8.88 8.78,-14.85 0.26,-7.68 -1.57,-15.27 -4.12,-22.48 -5.34,-14.75 -14.94,-28.44 -28.64,-36.5 -9.48,-6.03 -20.77,-8.73 -31.94,-8.71 -14.13,-0.1 -28.84,2.81 -40.57,11.07 -13.07,9.34 -21.93,23.46 -27.88,38.14 -6.39,16.69 -9.1,34.63 -9.18,52.45 -0.08,17.22 1.87,34.66 7.76,50.92 5.01,13.93 12.98,27.03 24.26,36.77 9,7.97 20.16,13.51 32.03,15.57 m 111.9,-4.63 c 4.64,6.79 15.36,7.59 21.21,1.94 5.3,-4.94 6.3,-12.67 6.53,-19.54 0.05,-19.38 0,-38.77 0.02,-58.15 23.21,-0.01 46.42,-0.03 69.63,0.01 0,16.36 0,32.72 0,49.08 0.11,8.95 -0.92,18.99 4.7,26.63 4.53,6.49 14.62,7.64 20.59,2.52 5.83,-4.86 6.96,-13.01 7.13,-20.15 0.02,-52.99 0,-105.99 0.01,-158.98 -0.11,-6.71 -1.1,-14.1 -5.94,-19.16 -4.84,-5.51 -14.16,-6.06 -19.61,-1.18 -5.39,4.83 -6.64,12.5 -6.85,19.37 -0.08,22.93 0,45.87 -0.03,68.8 -23.21,0.01 -46.42,0 -69.63,0 -0.02,-22.61 0.02,-45.22 -0.02,-67.83 -0.14,-6.91 -1.19,-14.59 -6.42,-19.63 -5.56,-5.83 -16.2,-5.28 -21,1.24 -5.1,6.6 -5.09,15.42 -5.03,23.37 0.01,47.68 0,95.36 0.01,143.04 0.23,9.58 -1.3,20.37 4.7,28.62 M 409.79,706.2 c 2.57,5.23 8.51,7.95 14.17,7.75 34.37,0.03 68.73,0.01 103.09,0.01 5.2,0.16 10.88,-1.67 13.74,-6.31 3.71,-5.89 3.79,-13.9 0.55,-20.02 -2.52,-4.82 -8.06,-7.24 -13.33,-7.17 -12.05,-0.05 -24.1,0.02 -36.14,-0.03 -0.01,-48.14 0,-96.28 -0.01,-144.42 -0.06,-6.98 -0.83,-14.69 -5.68,-20.13 -4.61,-5.37 -13.48,-6.06 -18.99,-1.7 -6.27,4.86 -7.71,13.34 -7.74,20.81 -0.02,48.48 0,96.97 -0.01,145.45 -12.18,0.03 -24.35,-0.05 -36.53,0.04 -5,-0.02 -10.13,2.35 -12.58,6.85 -3.22,5.67 -3.28,13.02 -0.54,18.87 m 158.18,2.82 c 3.81,4.11 9.73,5.05 15.08,4.95 18.66,-0.05 37.32,0.06 55.97,-0.06 9.33,-0.35 19.09,-0.91 27.51,-5.38 9.56,-4.75 16.83,-13.39 20.77,-23.23 6.53,-16.16 6.86,-34.87 0.8,-51.22 -5.85,-15.45 -20.81,-25.44 -36.33,-29.41 11.46,-7.66 18.89,-19.69 25.71,-31.36 6,-10.74 10.91,-22.1 14.94,-33.72 1.9,-5.89 4.32,-12.46 1.5,-18.48 -2.77,-7.27 -11.39,-11.53 -18.83,-9.15 -5.76,1.77 -9.16,7.3 -11.87,12.3 -8.34,16.43 -16.01,33.2 -24.28,49.66 -4.48,8.35 -9.15,17.29 -17.35,22.56 -8.1,4.72 -17.82,3.32 -26.77,3.55 -0.05,-21.67 0.01,-43.35 -0.03,-65.03 -0.1,-6.68 -0.97,-14.02 -5.69,-19.16 -5.45,-6.29 -16.67,-5.99 -21.67,0.71 -4.24,5.47 -5.01,12.69 -5.04,19.39 0,51.38 -0.02,102.75 0.01,154.13 0.13,6.59 0.86,13.9 5.57,18.95 m 26.84,-25.52 c -0.01,-18.2 -0.01,-36.4 0,-54.6 11.41,0.08 22.83,-0.21 34.23,0.17 8.36,0.6 17.58,1.88 23.88,7.96 5.58,5.33 6.82,13.52 6.59,20.89 -0.2,7.62 -3.04,15.6 -9.31,20.3 -5.62,4.61 -13.26,4.83 -20.17,5.2 -11.74,0.19 -23.48,0.05 -35.22,0.08 m 132.91,24.78 c 3.7,4.39 9.73,5.8 15.26,5.68 28.67,-0.03 57.34,0.05 86.01,-0.04 5.67,0.2 11.17,-3.32 13.17,-8.67 2.2,-6.23 1.55,-14.15 -3.48,-18.88 -2.78,-2.78 -6.88,-3.64 -10.68,-3.62 -24.25,0.01 -48.51,0.01 -72.76,0 -0.02,-16.34 -0.01,-32.68 -0.01,-49.02 22.61,0.15 45.22,0.06 67.83,0.05 5.37,0.2 10.75,-2.89 12.63,-8.06 2.05,-5.63 1.75,-12.55 -1.88,-17.49 -2.7,-3.65 -7.44,-4.98 -11.79,-4.87 -22.27,0.01 -44.53,-0.01 -66.8,0.01 0.04,-18.81 -0.04,-37.62 0.05,-56.43 24.92,0.02 49.84,0 74.77,0.01 3.8,0.04 7.85,-0.65 10.82,-3.2 3.37,-2.85 4.73,-7.41 4.9,-11.69 0.26,-4.8 -0.75,-10.04 -4.24,-13.56 -3,-3 -7.41,-3.85 -11.5,-3.82 -29.33,0.03 -58.66,-0.02 -88,0.02 -5.53,0.02 -11.62,1.67 -15,6.37 -3.59,5.2 -4.08,11.79 -4.2,17.91 0,50.34 -0.01,100.69 0.01,151.04 0.15,6.29 0.72,13.2 4.89,18.26 z"
       style="fill:#0052ff;fill-opacity:1;fill-rule:nonzero;stroke:#0052ff;stroke-width:0.09375;stroke-linecap:butt;stroke-linejoin:miter;stroke-miterlimit:10;stroke-dasharray:none;stroke-opacity:1"
       id="path3714"
       inkscape:connector-curvature="0" /><path
       d="m 78.15,718.8 c 32.45,13.79 71.38,11.26 101.64,-6.93 28.36,-16.69 48.77,-46.25 53.96,-78.78 5.67,-33.01 -4.27,-68.29 -26.57,-93.31 -11.24,-13.07 -25.74,-22.89 -41.3,-30.1 -26.99,-10.82 -57.96,-11.18 -85.17,-0.9 -10.96,4.81 -21.55,10.62 -30.72,18.37 -15.9,13.13 -28.15,30.64 -34.87,50.15 -8.77,25.1 -8.26,53.3 1.4,78.07 10.85,28.31 33.65,51.76 61.63,63.43 M 39.28,685.69 C 23.44,667.54 13.83,644.04 12.57,619.97 c -1.39,-22.88 4.65,-46.14 17.04,-65.43 9.62,-15.05 22.92,-27.79 38.52,-36.53 -12.42,8.49 -22.87,19.88 -30.11,33.08 -9.07,16.33 -13.11,35.37 -11.59,53.98 1.75,23.36 12.56,45.85 29.59,61.91 17.31,16.57 41.02,26.25 64.99,26.36 19.88,0.31 39.8,-5.82 56.05,-17.28 18.42,-12.83 32.11,-32.29 37.8,-54.02 6.17,-23.16 3.33,-48.63 -8.04,-69.76 -7.54,-14.26 -18.84,-26.38 -32.23,-35.33 23.12,12.26 41.37,33.28 50.6,57.74 8.01,21.06 9.27,44.6 3.64,66.42 -6.43,25.32 -22.33,48.06 -43.82,62.9 -21.91,15.38 -49.58,22.11 -76.12,18.78 -26.75,-3.15 -52.04,-16.71 -69.61,-37.1 m 68.31,1.54 C 75.12,682.25 46.63,658.16 36.16,627.05 28.89,606.12 29.6,582.53 38.2,562.1 c 7.19,-17.29 19.89,-32.21 35.77,-42.14 14.57,-9.17 31.8,-14.06 49.02,-13.87 20.92,0.04 41.71,7.67 57.72,21.13 13.12,10.89 23.07,25.55 28.33,41.77 6.64,20.29 5.85,42.93 -2.27,62.68 -8.05,19.9 -23.41,36.7 -42.48,46.54 -17.27,9.02 -37.48,12.19 -56.7,9.02 m 155.78,35.24 c 7.26,2.56 15.96,0.91 21.44,-4.59 6.41,-6.1 8.05,-15.39 8.16,-23.87 0.03,-30 0,-60 0.01,-90 -0.03,-12.83 -0.27,-25.99 3.79,-38.31 2.25,-6.7 7.43,-12.75 14.48,-14.52 7.17,-1.8 14.97,-1.83 22,0.56 5.38,1.82 9.46,6.27 11.62,11.42 4.33,9.99 4.9,21.09 4.95,31.82 0.01,33.01 -0.02,66.02 0.01,99.03 0.15,8.28 1.6,17.36 7.6,23.55 5.17,5.51 13.49,7.31 20.66,5.29 5.84,-1.59 10.67,-6.04 13.26,-11.46 2.74,-5.71 3.49,-12.14 3.52,-18.41 0,-28.66 0,-57.31 0,-85.96 0.12,-18.64 -0.02,-37.63 -5.33,-55.67 -5.6,-18.32 -19.16,-34.68 -37.3,-41.58 -14.73,-5.54 -30.94,-5.58 -46.35,-3.45 -15.28,2.15 -30.58,8.82 -40.17,21.3 -14.25,17.69 -16.99,41.38 -17.71,63.31 -0.19,33.38 -0.02,66.75 -0.09,100.13 -0.04,6.9 0.43,14.06 3.5,20.36 2.44,4.97 6.68,9.18 11.95,11.05 m 1.98,-6 c -8.5,-3.23 -11.01,-13.23 -11.06,-21.43 -0.12,-31.67 -0.01,-63.33 -0.05,-95 -0.06,-12.76 0.53,-25.59 3.11,-38.11 2.74,-14.08 8.93,-28.09 20.18,-37.41 11.54,-9.48 26.89,-12.53 41.45,-13.08 13.72,-0.58 28.16,1.2 39.96,8.71 12.92,8.34 22.09,22.01 25.63,36.92 4.11,16.63 4.08,33.9 3.98,50.92 -0.01,28.67 0.02,57.34 -0.01,86.01 -0.16,6.79 -1.18,14.33 -6.24,19.33 -5.53,5.6 -15.8,5.34 -20.88,-0.74 -4.53,-5.4 -5.19,-12.84 -5.29,-19.62 -0.01,-30.99 0,-61.98 0,-92.97 0.08,-13.57 -0.1,-27.76 -5.92,-40.31 -3.08,-6.86 -9.08,-12.36 -16.37,-14.4 -8.47,-2.39 -17.74,-2.33 -26.12,0.4 -8.27,2.75 -14.3,10.08 -17,18.18 -3.7,11.3 -4.13,23.33 -4.06,35.11 0,31.68 0.01,63.35 -0.01,95.03 -0.14,6.6 -1.05,13.88 -5.78,18.89 -3.83,4.2 -10.25,5.5 -15.52,3.57 m 650.97,1.21 c 6.56,5.95 16.28,7.09 24.63,5.01 7.37,-1.81 13.12,-7.59 16.65,-14.1 4.64,-8.2 6.67,-17.48 9.56,-26.36 14.48,-44.77 28.99,-89.53 43.47,-134.31 2.33,-8 5.02,-16.55 2.72,-24.87 -2.33,-8.91 -9.7,-17.15 -19.27,-17.93 -8.17,-1.01 -16.31,4.05 -19.65,11.44 -5.71,12.61 -9.12,26.09 -13.29,39.25 -18.45,0 -36.9,0 -55.34,0 -4.51,-13.93 -7.55,-28.46 -14.05,-41.65 -4.79,-9.7 -18.7,-11.84 -27.09,-5.69 -5.63,4.18 -9.83,10.53 -10.72,17.56 -0.93,6.83 0.82,13.64 2.95,20.07 15.63,49.48 30.95,99.05 46.75,148.46 2.79,8.33 5.82,17.2 12.68,23.12 m 1.01,-8.1 c -5.74,-8.05 -7.76,-17.95 -10.98,-27.14 -14.89,-47.12 -29.63,-94.3 -44.45,-141.45 -2.65,-7.89 -3.18,-17.65 2.94,-24.12 3.71,-5.07 10.88,-7.03 16.6,-4.35 4.25,1.9 5.79,6.64 7.46,10.61 4.76,12.76 8.12,25.99 12.18,38.98 21.56,0.04 43.12,0 64.69,0.02 4.66,-14.33 8.19,-29.09 14.36,-42.89 2.69,-6.25 10.39,-9.68 16.77,-7.06 7.96,3.26 12.11,12.71 10.78,20.96 -1.5,9.97 -5.37,19.37 -8.28,28.97 -12.84,39.65 -25.69,79.29 -38.5,118.94 -3.32,10.07 -5.35,21.08 -12.26,29.47 -7.59,9.51 -24.35,9.15 -31.31,-0.94 m 170.2,12.76 c 16.61,3.05 34.47,0.84 49.21,-7.65 12.35,-7.22 22.87,-17.79 29.38,-30.6 4.77,-9.2 8,-19.56 7.18,-30.02 -0.82,-8.66 -6.09,-17.69 -14.79,-20.31 -6.74,-1.7 -14.83,-0.01 -19.27,5.64 -5.28,6.6 -7.32,15.02 -11.63,22.18 -3.71,6.29 -8.41,12.71 -15.48,15.38 -9.65,3.52 -21.32,1.97 -29.13,-4.91 -8.16,-7.14 -12.64,-17.5 -15.17,-27.83 -3.42,-14.43 -3.77,-29.43 -2.84,-44.17 1.04,-13.84 3.9,-28.31 12.67,-39.47 10.16,-13.38 32.5,-14.39 43.96,-2.19 5.45,5.73 8.76,13.14 10.92,20.66 1.58,5.71 3.5,11.51 7.14,16.27 4.6,5.85 13.1,7.47 19.94,5.14 6.7,-2.39 11.55,-8.55 13.48,-15.26 1.78,-6.68 0.83,-13.73 -0.53,-20.4 -4.9,-21.84 -18.42,-42.52 -38.82,-52.67 -11.57,-6.1 -24.97,-7.76 -37.88,-6.89 -14.13,0.9 -28.46,5.03 -39.66,13.96 -12.54,9.94 -21.33,23.91 -27.32,38.59 -6.7,17.24 -9.62,35.79 -9.79,54.23 -0.33,26.29 4.31,53.61 18.95,75.92 11.21,17.25 29,30.71 49.48,34.4 m 1.9,-6.07 c -11.87,-2.06 -23.03,-7.6 -32.03,-15.57 -11.28,-9.74 -19.25,-22.84 -24.26,-36.77 -5.89,-16.26 -7.84,-33.7 -7.76,-50.92 0.08,-17.82 2.79,-35.76 9.18,-52.45 5.95,-14.68 14.81,-28.8 27.88,-38.14 11.73,-8.26 26.44,-11.17 40.57,-11.07 11.17,-0.02 22.46,2.68 31.94,8.71 13.7,8.06 23.3,21.75 28.64,36.5 2.55,7.21 4.38,14.8 4.12,22.48 -0.22,5.97 -3.42,12.01 -8.78,14.85 -4.8,2.38 -11.59,1.54 -14.76,-3.07 -2.83,-4.12 -4.34,-8.96 -5.65,-13.74 -2.63,-9.13 -6.94,-18.09 -13.99,-24.64 -13.98,-12.94 -38.66,-11.61 -50.9,3.1 -9.95,11.8 -13.58,27.48 -14.83,42.52 -1.14,15.44 -0.8,31.13 2.56,46.3 2.78,12.15 8.05,24.34 17.69,32.62 13.33,11.61 36.5,11.02 47.73,-3.27 7.37,-8.11 10.47,-18.81 15.78,-28.16 2.95,-5.83 10.95,-7.78 16.53,-4.72 8.37,5.29 9.24,16.6 7.01,25.38 -4.44,19.11 -17.98,35.63 -35.36,44.53 -12.66,6.37 -27.43,7.91 -41.31,5.53 m 107.4,-0.18 c 4,5.17 10.61,7.99 17.11,7.52 6.85,-0.2 13.25,-4.27 16.76,-10.08 3.72,-6.14 4.65,-13.49 4.69,-20.54 0,-16.93 0,-33.86 0,-50.79 19.02,0 38.05,-0.03 57.08,0.01 -0.08,15.57 -0.01,31.15 -0.04,46.72 -0.07,6.52 0.04,13.2 2.22,19.43 1.78,5.28 5.39,10.02 10.27,12.77 7.77,4.36 18.39,2.97 24.61,-3.49 6.44,-6.39 7.92,-15.97 7.96,-24.67 -0.01,-52.65 0.01,-105.31 -0.01,-157.96 -0.04,-8.6 -1.84,-17.96 -8.3,-24.15 -7.05,-7.3 -19.76,-7.81 -27.42,-1.19 -6.58,5.53 -8.88,14.45 -9.24,22.71 -0.2,21.38 -0.03,42.76 -0.08,64.14 -19.02,0.02 -38.03,0.01 -57.05,0.01 0,-17.5 0,-35 0,-52.5 -0.05,-7.05 0.4,-14.24 -1.49,-21.11 -1.61,-6.37 -5.6,-12.3 -11.43,-15.5 -7.74,-4.2 -18.24,-2.84 -24.31,3.65 -6.12,6.29 -7.73,15.47 -7.81,23.92 -0.03,52.34 0,104.67 -0.01,157 -0.05,8.36 0.98,17.42 6.49,24.1 m 4.5,-4.45 c -6,-8.25 -4.47,-19.04 -4.7,-28.62 -0.01,-47.68 0,-95.36 -0.01,-143.04 -0.06,-7.95 -0.07,-16.77 5.03,-23.37 4.8,-6.52 15.44,-7.07 21,-1.24 5.23,5.04 6.28,12.72 6.42,19.63 0.04,22.61 0,45.22 0.02,67.83 23.21,0 46.42,0.01 69.63,0 0.03,-22.93 -0.05,-45.87 0.03,-68.8 0.21,-6.87 1.46,-14.54 6.85,-19.37 5.45,-4.88 14.77,-4.33 19.61,1.18 4.84,5.06 5.83,12.45 5.94,19.16 -0.01,52.99 0.01,105.99 -0.01,158.98 -0.17,7.14 -1.3,15.29 -7.13,20.15 -5.97,5.12 -16.06,3.97 -20.59,-2.52 -5.62,-7.64 -4.59,-17.68 -4.7,-26.63 0,-16.36 0,-32.72 0,-49.08 -23.21,-0.04 -46.42,-0.02 -69.63,-0.01 -0.02,19.38 0.03,38.77 -0.02,58.15 -0.23,6.87 -1.23,14.6 -6.53,19.54 -5.85,5.65 -16.57,4.85 -21.21,-1.94 m -797.84,-4.02 c 3.09,7.77 11.3,12.65 19.54,12.63 34.66,0.08 69.32,0.01 103.98,0.04 7.32,0.21 15.08,-2.76 19.06,-9.17 6.36,-9.99 5.12,-25.14 -4.49,-32.69 -4.13,-3.19 -9.46,-4.35 -14.6,-4.32 -9.6,-0.01 -19.2,0.01 -28.81,0 0,-46.39 0.01,-92.77 0,-139.15 -0.09,-8.53 -1.77,-17.84 -8.06,-24.1 -6.5,-6.75 -17.86,-7.72 -25.58,-2.53 -10.01,6.63 -11.87,19.67 -11.41,30.75 0,45.01 0,90.02 0,135.03 -10.06,0.03 -20.11,-0.06 -30.16,0.04 -5.9,0.1 -12.01,2.25 -15.84,6.91 -6.2,7.17 -7,17.94 -3.63,26.56 m 6.3,-1.42 c -2.74,-5.85 -2.68,-13.2 0.54,-18.87 2.45,-4.5 7.58,-6.87 12.58,-6.85 12.18,-0.09 24.35,-0.01 36.53,-0.04 0.01,-48.48 -0.01,-96.97 0.01,-145.45 0.03,-7.47 1.47,-15.95 7.74,-20.81 5.51,-4.36 14.38,-3.67 18.99,1.7 4.85,5.44 5.62,13.15 5.68,20.13 0.01,48.14 0,96.28 0.01,144.42 12.04,0.05 24.09,-0.02 36.14,0.03 5.27,-0.07 10.81,2.35 13.33,7.17 3.24,6.12 3.16,14.13 -0.55,20.02 -2.86,4.64 -8.54,6.47 -13.74,6.31 -34.36,0 -68.72,0.02 -103.09,-0.01 -5.66,0.2 -11.6,-2.52 -14.17,-7.75 m 154.16,7.74 c 5.22,5.21 12.95,6.58 20.04,6.36 18.35,-0.06 36.69,0.06 55.04,-0.06 10.47,-0.37 21.42,-1.16 30.79,-6.31 10.09,-5.15 17.97,-14.08 22.54,-24.39 7.42,-16.73 8.22,-36.13 3.09,-53.63 -4.45,-15.2 -16.5,-27.5 -31.06,-33.42 9.82,-10.39 17.2,-22.82 23.56,-35.55 5.11,-10.92 9.99,-22.07 12.9,-33.81 3.57,-12.43 -5.7,-26.75 -18.7,-27.95 -5.97,-0.72 -12.36,1.03 -16.69,5.3 -5.39,5.06 -8.4,11.95 -11.65,18.44 -5.62,11.68 -11.32,23.33 -16.93,35.01 -3.22,6.6 -6.51,13.2 -10.7,19.25 -2.67,3.59 -5.72,7.27 -10,8.94 -4.79,1.85 -10.01,1.58 -15.05,1.57 0,-16.88 0,-33.76 0,-50.65 0.02,-8.1 0.38,-16.53 -2.77,-24.18 -2.61,-6.48 -8.2,-12.04 -15.21,-13.38 -7.21,-1.51 -15.37,0.68 -20.12,6.49 -5.62,6.6 -6.97,15.63 -6.95,24.02 0.01,51.33 -0.01,102.66 0.01,153.99 0.06,8.46 1.52,17.79 7.86,23.96 m 4.02,-4.92 c -4.71,-5.05 -5.44,-12.36 -5.57,-18.95 -0.03,-51.38 -0.01,-102.75 -0.01,-154.13 0.03,-6.7 0.8,-13.92 5.04,-19.39 5,-6.7 16.22,-7 21.67,-0.71 4.72,5.14 5.59,12.48 5.69,19.16 0.04,21.68 -0.02,43.36 0.03,65.03 8.95,-0.23 18.67,1.17 26.77,-3.55 8.2,-5.27 12.87,-14.21 17.35,-22.56 8.27,-16.46 15.94,-33.23 24.28,-49.66 2.71,-5 6.11,-10.53 11.87,-12.3 7.44,-2.38 16.06,1.88 18.83,9.15 2.82,6.02 0.4,12.59 -1.5,18.48 -4.03,11.62 -8.94,22.98 -14.94,33.72 -6.82,11.67 -14.25,23.7 -25.71,31.36 15.52,3.97 30.48,13.96 36.33,29.41 6.06,16.35 5.73,35.06 -0.8,51.22 -3.94,9.84 -11.21,18.48 -20.77,23.23 -8.42,4.47 -18.18,5.03 -27.51,5.38 -18.65,0.12 -37.31,0.01 -55.97,0.06 -5.35,0.1 -11.27,-0.84 -15.08,-4.95 m 158.42,6.56 c 6.42,4.92 14.87,4.9 22.57,4.71 26.36,-0.01 52.72,0 79.08,-0.01 5.14,0.03 10.53,-1.3 14.42,-4.82 11.01,-9.53 9.36,-30.4 -4.09,-36.92 -4.46,-2.2 -9.55,-2.2 -14.4,-2.12 -20.8,0.02 -41.6,0.01 -62.4,0.01 0,-12.1 -0.01,-24.21 0.01,-36.31 20.48,0.01 40.97,0.03 61.45,-0.01 6.99,0.12 14.1,-3.38 17.4,-9.71 5.23,-9.77 3.45,-24.17 -6.41,-30.36 -3.58,-2.22 -7.84,-3.02 -11.99,-2.99 -20.16,-0.01 -40.31,0 -60.46,-0.01 -0.02,-14.58 0.02,-29.17 -0.02,-43.76 23.16,-0.03 46.33,0.01 69.49,-0.02 7.25,0.12 14.85,-3.38 18.21,-10.05 4,-7.92 3.96,-18.04 -0.56,-25.75 -3.57,-6.1 -10.79,-9.14 -17.66,-9.07 -29.69,-0.01 -59.38,-0.02 -89.07,0.01 -7.15,0 -14.75,2.35 -19.36,8.09 -5.04,6.29 -5.99,14.73 -6.08,22.52 0.01,50.65 -0.03,101.31 0.03,151.96 0.11,8.93 2.13,19.07 9.84,24.61 m 1.33,-7.3 c -4.17,-5.06 -4.74,-11.97 -4.89,-18.26 -0.02,-50.35 -0.01,-100.7 -0.01,-151.04 0.12,-6.12 0.61,-12.71 4.2,-17.91 3.38,-4.7 9.47,-6.35 15,-6.37 29.34,-0.04 58.67,0.01 88,-0.02 4.09,-0.03 8.5,0.82 11.5,3.82 3.49,3.52 4.5,8.76 4.24,13.56 -0.17,4.28 -1.53,8.84 -4.9,11.69 -2.97,2.55 -7.02,3.24 -10.82,3.2 -24.93,-0.01 -49.85,0.01 -74.77,-0.01 -0.09,18.81 -0.01,37.62 -0.05,56.43 22.27,-0.02 44.53,0 66.8,-0.01 4.35,-0.11 9.09,1.22 11.79,4.87 3.63,4.94 3.93,11.86 1.88,17.49 -1.88,5.17 -7.26,8.26 -12.63,8.06 -22.61,0.01 -45.22,0.1 -67.83,-0.05 0,16.34 -0.01,32.68 0.01,49.02 24.25,0.01 48.51,0.01 72.76,0 3.8,-0.02 7.9,0.84 10.68,3.62 5.03,4.73 5.68,12.65 3.48,18.88 -2,5.35 -7.5,8.87 -13.17,8.67 -28.67,0.09 -57.34,0.01 -86.01,0.04 -5.53,0.12 -11.56,-1.29 -15.26,-5.68 M 56.24,693.74 c 20.3,16.34 46.83,24.64 72.81,22.79 22.71,-1.38 44.83,-10.48 62.01,-25.37 19.18,-16.44 32.17,-39.94 35.65,-64.98 2.84,-19.38 0.05,-39.46 -7.65,-57.44 7.32,19.79 9.06,41.71 3.95,62.26 -6.64,27.88 -25.56,52.48 -50.7,66.22 -21.81,12.14 -48.09,15.8 -72.44,10.38 -26.1,-5.67 -49.61,-22.01 -64.19,-44.37 -13.94,-21.02 -19.6,-47.25 -15.81,-72.17 1.53,-11.2 5.38,-21.92 10.13,-32.13 -11.15,19.98 -15.8,43.53 -12.68,66.23 3.45,26.77 17.79,51.85 38.92,68.58 m 47.37,8.52 c 21.78,4.1 44.95,0.6 64.42,-10.04 24.3,-13.06 42.75,-36.96 48.58,-63.94 -1.46,1.38 -1.02,3.57 -1.69,5.3 -8.19,23.36 -25.61,43.28 -47.64,54.56 -20.24,10.53 -44.21,13.52 -66.45,8.51 C 79.03,691.84 59.1,679.22 45.3,661.69 32.72,645.76 24.98,625.82 24.44,605.47 c -0.8,18.94 5.09,37.9 15.27,53.79 14.25,22.25 37.89,38.24 63.9,43 m 4.88,-18.93 c 23.55,4.49 48.93,-2.99 66.25,-19.57 12.24,-9.94 21.91,-23.09 27.16,-37.99 7.13,-19.84 6.49,-42.35 -1.83,-61.73 -6.76,-15.94 -18.56,-29.66 -33.26,-38.79 -13.62,-8.5 -29.7,-12.99 -45.76,-12.71 -19.7,0.1 -39.23,7.52 -54.13,20.4 -13.07,11.17 -22.61,26.4 -26.87,43.06 -4.67,18.02 -3.24,37.57 4.16,54.66 5.21,12.2 13.38,23.09 23.54,31.6 5.21,4.14 10.22,8.59 16.04,11.88 7.61,4.48 16.02,7.6 24.7,9.19 M 84.03,661.99 C 74.55,650.91 70.6,635.55 73.14,621.23 c -1.05,17.83 8.23,35.81 23.65,44.91 13.01,7.98 29.81,9.25 43.89,3.39 13.92,-5.65 24.89,-18.07 28.68,-32.62 1.48,-5.05 1.43,-10.36 2.26,-15.52 0.21,7.72 0.5,15.61 -1.95,23.05 -5.39,18.5 -22.44,32.88 -41.61,34.95 -16.38,2.12 -33.52,-4.67 -44.03,-17.4 m -0.17,-17.92 c -4.71,-8.98 -5.91,-19.61 -3.74,-29.49 -0.23,7.68 1.21,15.48 4.88,22.27 6.08,11.68 17.9,20.19 30.96,22.06 13.48,2.18 27.85,-2.77 37.11,-12.82 8.09,-8.4 12.08,-20.25 11.47,-31.84 3.27,14.16 -0.89,29.8 -11.15,40.17 -9.49,9.88 -23.85,14.78 -37.4,12.65 -13.59,-1.9 -25.92,-10.78 -32.13,-23 m 8.82,-6.64 c -6.19,-8.77 -7.52,-20.17 -5.02,-30.46 -1.24,13.23 5.19,26.97 16.81,33.67 13.46,8.34 32.44,5.59 42.94,-6.26 7.55,-7.86 10.11,-19.2 8.87,-29.81 1.91,7.01 2.79,14.5 0.82,21.6 -3.17,12.82 -13.99,23.31 -26.9,26.07 -14,3.35 -29.56,-2.84 -37.52,-14.81 m 79.58,-37.72 c -7.03,-14.41 -20.58,-25.48 -36.15,-29.35 -14.97,-3.87 -31.51,-1.15 -44.37,7.45 -14.19,9.25 -23.7,25.28 -24.85,42.2 -0.97,10.48 1.69,20.89 6.04,30.36 -4.8,-7.99 -8.14,-16.95 -8.89,-26.28 -1.62,-16.44 4.2,-33.43 15.58,-45.41 10.56,-11.38 25.82,-18.26 41.36,-18.49 13.45,-0.39 26.97,4.12 37.52,12.47 12.41,9.68 20.63,24.54 22.1,40.22 1.44,13.38 -2.15,27.05 -9.42,38.31 8.41,-15.74 9.14,-35.45 1.08,-51.48 M 65.15,646.24 c -9.58,-14.48 -13.47,-32.6 -10.43,-49.71 2.99,-17.78 13.46,-34.08 28.25,-44.35 12.98,-9.13 29.23,-13.47 45.04,-12.03 16.05,1.3 31.5,8.61 42.76,20.1 11.05,11.13 18.06,26.18 19.41,41.81 1.5,15.45 -2.65,31.24 -11.15,44.19 5.09,-10.62 7.71,-22.52 6.62,-34.31 -1.35,-17.83 -10.73,-34.8 -25,-45.54 -12.58,-9.64 -28.85,-14.24 -44.61,-12.68 -15.31,1.37 -29.96,8.61 -40.44,19.83 -10.97,11.58 -17.31,27.42 -17.28,43.38 -0.14,10.15 2.46,20.19 6.83,29.31 m 130.64,-58.76 c -4.99,-17.93 -16.88,-33.77 -32.6,-43.7 -13.65,-8.71 -30.13,-12.84 -46.28,-11.64 -17.94,1.18 -35.31,9.06 -48.08,21.71 -13.43,13.1 -21.71,31.31 -22.68,50.06 -0.87,11.79 1.7,23.5 5.79,34.5 -9.56,-18.42 -12,-40.47 -5.92,-60.38 5.17,-17.51 16.64,-33.04 31.79,-43.23 13.21,-8.96 29.18,-13.78 45.15,-13.59 18.52,0.04 36.9,6.9 50.96,18.95 15.58,13.14 25.76,32.47 27.67,52.78 1.68,15.89 -1.82,32.11 -9.28,46.19 6.84,-16.21 8.38,-34.69 3.48,-51.65 m -103.8,24.5 c -1.49,-10.72 3.49,-21.7 12.03,-28.2 -5.75,5.88 -9.65,13.88 -8.92,22.26 0.5,13.14 11.8,24.67 24.89,25.54 12.92,1.38 25.85,-7.84 28.8,-20.47 2.43,-8.76 -0.35,-18.2 -5.98,-25.13 9.03,8.46 12.26,22.5 7.3,33.92 -4.83,12.08 -18.04,20.05 -30.99,18.55 -13.76,-1.1 -25.7,-12.74 -27.13,-26.47 m 18.38,8.55 c -7.42,-4.3 -11.92,-13.04 -11.1,-21.58 0.35,-6.05 3.56,-11.52 7.82,-15.69 -1.75,2.81 -3.76,5.56 -4.51,8.84 -2.24,7.91 1.09,16.96 7.84,21.61 6.36,4.63 15.46,4.95 22.13,0.79 6.62,-3.93 10.56,-11.86 9.58,-19.53 -0.34,-4.47 -2.7,-8.4 -5.36,-11.89 4.19,3.86 7.37,8.99 8.03,14.73 1.29,8.7 -3.06,17.85 -10.54,22.44 -7.09,4.55 -16.7,4.67 -23.89,0.28 m -2.89,-20.58 c -1.7,-5.29 0.11,-11 3.56,-15.15 -2.69,5.18 -2.65,12.05 1.73,16.31 5.08,5.64 14.99,5.13 19.49,-0.97 3.64,-4.36 3.28,-10.62 0.82,-15.45 2.27,3.04 4.25,6.51 4.25,10.42 0.41,7.58 -5.69,14.77 -13.24,15.59 -7.2,1.11 -14.66,-3.75 -16.61,-10.75 m 7.18,-5.53 c -2.78,-3.71 -1.36,-8.56 0.98,-12.09 -0.27,2.45 -0.92,5.17 0.6,7.36 2.25,3.97 8.5,4.34 11.21,0.68 2,-2.24 1.48,-5.37 0.98,-8.06 2.3,3.35 3.85,7.86 1.42,11.58 -2.95,5.62 -11.84,5.91 -15.19,0.53 m 6.45,-6.6 c -2.92,-0.76 -3.54,-5.15 -1,-6.76 2.26,-1.82 6.04,0.01 6.05,2.9 0.3,2.63 -2.6,4.84 -5.05,3.86 m 473.7,95.68 c 11.74,-0.03 23.48,0.11 35.22,-0.08 6.91,-0.37 14.55,-0.59 20.17,-5.2 6.27,-4.7 9.11,-12.68 9.31,-20.3 0.23,-7.37 -1.01,-15.56 -6.59,-20.89 -6.3,-6.08 -15.52,-7.36 -23.88,-7.96 -11.4,-0.38 -22.82,-0.09 -34.23,-0.17 -0.01,18.2 -0.01,36.4 0,54.6 m 6.33,-6.3 c -0.01,-13.99 -0.01,-27.98 0,-41.97 7.94,0.01 15.89,-0.03 23.84,0.01 6.61,0.12 13.4,0.75 19.51,3.47 4.39,2.03 7.46,6.36 8.17,11.12 1.28,7.69 0.8,16.87 -5.26,22.52 -4.32,4.27 -10.79,4.31 -16.44,4.72 -9.94,0.29 -19.89,0.06 -29.82,0.13 m 308.4,-84.63 c 7.91,27.21 15.37,54.56 23.54,81.68 8.17,-27.19 16.01,-54.48 24.06,-81.71 -15.87,0.03 -31.73,-0.03 -47.6,0.03 m 8.4,6.32 c 10.28,-0.01 20.56,0.03 30.84,-0.02 -5.35,17.71 -10.42,35.51 -15.7,53.24 -4.93,-17.77 -10.13,-35.47 -15.14,-53.22 z"
       style="fill:#000001;fill-opacity:1;fill-rule:nonzero;stroke:#000001;stroke-width:0.09375;stroke-linecap:butt;stroke-linejoin:miter;stroke-miterlimit:10;stroke-dasharray:none;stroke-opacity:1"
       id="path3716"
       inkscape:connector-curvature="0" /></g></svg>