<?xml version="1.0" standalone="no"?>
<!DOCTYPE svg PUBLIC "-//W3C//DTD SVG 20010904//EN"
 "http://www.w3.org/TR/2001/REC-SVG-20010904/DTD/svg10.dtd">
<svg version="1.0" xmlns="http://www.w3.org/2000/svg"
 width="1678.000000pt" height="1678.000000pt" viewBox="0 0 1678.000000 1678.000000"
 preserveAspectRatio="xMidYMid meet">
<metadata>
Created by potrace 1.11, written by Peter Selinger 2001-2013
</metadata>
<g transform="translate(0.000000,1678.000000) scale(0.100000,-0.100000)"
fill="#000000" stroke="none">
<path d="M8145 14934 c-562 -29 -1020 -105 -1511 -250 -777 -228 -1481 -599
-2119 -1113 -581 -468 -982 -879 -1352 -1387 -1539 -2110 -1646 -4960 -270
-7184 639 -1032 1559 -1868 2642 -2400 716 -352 1420 -551 2250 -637 215 -22
945 -25 1150 -5 569 57 1029 153 1520 318 893 299 1743 820 2444 1498 120 116
358 379 487 536 945 1157 1454 2584 1454 4080 0 717 -107 1377 -335 2055 -105
315 -184 507 -335 810 -187 378 -381 693 -629 1023 -231 306 -557 663 -826
901 -173 154 -181 162 -275 242 -1041 889 -2221 1384 -3575 1499 -128 11 -603
20 -720 14z m745 -310 c1157 -98 2257 -548 3155 -1288 1031 -849 1730 -2022
1984 -3326 289 -1488 -17 -3021 -852 -4275 -477 -715 -1097 -1308 -1827 -1747
-208 -125 -271 -151 -115 -48 193 129 412 309 630 520 1293 1246 1814 3065
1380 4818 -88 353 -186 621 -349 957 -195 401 -399 717 -667 1036 -593 705
-1335 1220 -2194 1521 -718 253 -1512 335 -2285 237 -944 -119 -1832 -505
-2565 -1115 -966 -803 -1592 -1926 -1764 -3164 -59 -428 -63 -878 -10 -1302
137 -1112 633 -2129 1424 -2922 187 -188 423 -392 598 -516 56 -40 62 -51 10
-19 -751 453 -1390 1072 -1865 1804 -445 687 -740 1472 -858 2280 -44 305 -54
458 -54 830 -1 468 28 756 115 1175 325 1567 1305 2939 2684 3760 1032 614
2224 887 3425 784z m-188 -1825 c1487 -102 2798 -855 3640 -2089 451 -661 726
-1446 798 -2280 13 -149 13 -601 0 -755 -69 -821 -336 -1591 -783 -2260 -176
-264 -364 -493 -592 -720 -810 -812 -1845 -1290 -3000 -1386 -185 -15 -713 -6
-895 16 -765 91 -1448 337 -2082 751 -607 396 -1150 971 -1516 1605 -618 1074
-792 2375 -477 3574 190 724 544 1388 1031 1935 112 126 356 369 474 471 253
220 571 437 874 596 626 328 1264 504 1981 546 128 8 408 6 547 -4z"/>
<path d="M8050 14284 c-519 -42 -847 -102 -1273 -230 -610 -183 -1257 -517
-1758 -906 -456 -354 -874 -798 -1191 -1263 -596 -875 -923 -1870 -957 -2913
-30 -961 157 -1825 580 -2672 134 -268 164 -310 60 -85 -186 403 -304 746
-391 1139 -166 742 -171 1530 -15 2285 252 1218 934 2326 1920 3117 664 532
1464 907 2293 1073 391 79 667 105 1092 105 420 -1 704 -29 1088 -110 1538
-322 2852 -1286 3622 -2659 353 -630 573 -1325 657 -2075 15 -134 18 -242 18
-570 -1 -356 -4 -427 -23 -588 -57 -465 -160 -904 -298 -1264 -19 -50 -33 -92
-31 -94 9 -9 133 313 196 507 124 385 194 728 243 1184 18 162 17 847 0 1015
-75 728 -250 1338 -561 1960 -629 1259 -1710 2224 -3041 2718 -424 157 -886
261 -1390 313 -102 10 -749 20 -840 13z"/>
<path d="M7980 13609 c-1458 -116 -2765 -824 -3655 -1979 -660 -856 -1028
-1898 -1049 -2975 -4 -177 -3 -201 4 -120 24 255 43 421 66 555 173 1025 646
1959 1372 2711 809 837 1858 1365 3019 1518 441 58 968 53 1423 -14 1544 -227
2925 -1178 3697 -2545 173 -307 297 -587 414 -940 59 -178 53 -123 -12 102
-91 319 -182 554 -334 863 -398 807 -995 1484 -1755 1992 -674 450 -1447 727
-2280 819 -172 19 -738 27 -910 13z"/>
<path d="M8130 12603 c-19 -1 -87 -8 -150 -14 -445 -41 -951 -189 -1375 -402
-145 -72 -390 -223 -537 -330 -164 -119 -532 -416 -675 -546 -129 -116 -340
-341 -458 -489 -490 -611 -807 -1331 -924 -2098 -38 -251 -46 -364 -46 -674 1
-365 20 -563 85 -888 204 -1006 764 -1919 1574 -2566 689 -550 1491 -870 2390
-952 220 -20 667 -15 871 10 1078 133 2015 608 2748 1396 495 531 866 1214
1041 1916 306 1226 85 2508 -614 3549 -135 202 -345 460 -524 644 -125 129
-593 539 -745 654 -609 457 -1328 728 -2085 787 -118 9 -493 11 -576 3z m580
-269 c692 -83 1323 -451 1751 -1020 271 -361 439 -784 495 -1244 19 -155 20
-491 1 -615 l-13 -90 -7 170 c-17 442 -123 821 -332 1190 -242 426 -631 797
-1066 1016 -377 189 -736 273 -1164 272 -242 -1 -410 -21 -630 -78 -346 -90
-693 -265 -970 -490 -99 -81 -283 -263 -367 -365 -260 -315 -446 -706 -527
-1110 -31 -156 -43 -260 -50 -448 l-6 -177 -15 120 c-20 163 -18 464 4 630 78
582 327 1086 741 1500 215 215 421 363 690 495 456 225 946 306 1465 244z
m-130 -624 c159 -14 273 -34 420 -75 527 -146 972 -469 1275 -925 203 -305
323 -636 365 -1001 17 -145 8 -470 -16 -614 l-19 -110 -6 165 c-13 347 -88
646 -234 934 -330 649 -931 1080 -1665 1193 -232 35 -564 19 -810 -39 -633
-150 -1176 -582 -1467 -1169 -154 -310 -220 -601 -234 -1024 l-1 -40 -9 40
c-4 22 -15 105 -25 185 -26 231 -9 508 46 747 73 310 232 639 430 888 469 588
1210 909 1950 845z m175 -779 c236 -48 495 -155 685 -283 555 -376 872 -1024
822 -1680 -6 -84 -21 -197 -32 -250 -21 -101 -74 -270 -64 -208 2 19 7 114 10
210 8 252 -19 430 -103 665 -92 259 -216 450 -427 660 -162 161 -288 252 -479
345 -354 172 -757 223 -1142 144 -624 -127 -1144 -588 -1345 -1193 -63 -188
-81 -299 -88 -521 -6 -215 -10 -216 -42 -10 -43 275 -19 589 67 855 191 596
668 1057 1272 1229 75 21 194 45 296 60 17 2 127 3 245 1 174 -2 236 -7 325
-24z m2289 -233 c195 -338 325 -721 381 -1125 22 -159 30 -492 16 -653 -38
-420 -139 -773 -328 -1143 -147 -286 -323 -527 -558 -763 -244 -244 -497 -426
-800 -575 -325 -160 -598 -243 -965 -295 -158 -23 -591 -26 -750 -5 -689 88
-1281 371 -1768 846 -85 82 -193 197 -239 255 -273 338 -482 748 -588 1152
-83 320 -119 680 -96 968 42 521 166 924 418 1363 25 42 47 77 49 77 2 0 -13
-35 -35 -77 -84 -169 -174 -428 -220 -640 -150 -676 -47 -1399 285 -2008 137
-251 286 -448 498 -661 456 -458 1008 -734 1661 -831 171 -25 621 -25 785 1
465 72 848 216 1200 451 183 122 311 226 460 375 461 460 739 1028 832 1700
20 145 17 594 -5 745 -46 311 -142 626 -266 873 -23 45 -39 82 -37 82 2 0 34
-51 70 -112z m-5674 -189 c-49 -95 -125 -292 -168 -434 -249 -811 -182 -1678
187 -2436 471 -969 1382 -1651 2441 -1828 208 -35 324 -44 565 -44 249 0 400
15 629 59 811 158 1529 610 2031 1279 314 418 530 926 614 1437 33 206 43 333
43 558 0 361 -45 655 -152 999 -33 106 -131 355 -170 431 -37 73 -12 42 53
-67 134 -223 274 -533 346 -768 102 -334 149 -621 158 -967 22 -823 -223
-1593 -712 -2243 -534 -709 -1280 -1178 -2155 -1355 -250 -51 -397 -64 -690
-64 -433 -1 -746 49 -1134 178 -755 252 -1403 748 -1843 1411 -311 469 -496
973 -573 1560 -17 130 -24 565 -11 705 44 476 162 896 370 1310 70 141 186
340 197 340 2 0 -9 -27 -26 -61z m3255 -320 c560 -83 1050 -485 1243 -1019 67
-186 93 -337 93 -553 1 -398 -152 -783 -427 -1072 -60 -63 -72 -67 -18 -5 80
92 190 296 237 441 52 158 62 231 62 439 0 219 -11 291 -72 470 -69 203 -163
357 -313 513 -125 131 -238 214 -395 292 -242 119 -370 149 -635 149 -153 0
-202 -4 -286 -22 -578 -125 -1011 -568 -1120 -1147 -21 -112 -24 -369 -5 -475
50 -288 176 -543 372 -755 46 -49 75 -83 64 -74 -307 243 -513 571 -589 943
-37 179 -39 419 -6 601 107 568 516 1034 1067 1214 231 75 484 96 728 60z
m-3929 -81 c-37 -85 -112 -314 -150 -459 -323 -1231 -49 -2529 742 -3514 478
-596 1114 -1039 1842 -1287 812 -275 1718 -274 2545 5 1230 415 2189 1416
2550 2662 116 401 162 767 152 1204 -9 411 -62 735 -184 1121 -25 80 -58 176
-74 214 -36 86 -30 98 9 20 175 -349 320 -820 381 -1239 56 -386 54 -883 -5
-1235 -87 -521 -252 -993 -497 -1420 -417 -726 -1032 -1303 -1782 -1672 -414
-203 -837 -328 -1335 -395 -110 -15 -204 -18 -500 -18 -386 1 -492 10 -790 66
-951 181 -1829 714 -2447 1484 -426 530 -716 1164 -842 1840 -159 852 -40
1754 338 2550 59 123 92 175 47 73z m3969 -707 c466 -124 799 -474 892 -938
23 -116 22 -347 -1 -453 -35 -160 -96 -308 -179 -432 -50 -74 -165 -207 -197
-226 -23 -14 -22 -13 6 19 108 121 197 303 236 484 19 90 16 313 -6 415 -110
519 -610 887 -1131 830 -251 -27 -450 -119 -629 -290 -144 -138 -241 -304
-293 -498 -23 -85 -26 -117 -27 -257 0 -133 4 -174 22 -242 40 -156 102 -286
189 -400 19 -25 32 -47 30 -49 -7 -7 -127 132 -179 206 -165 235 -238 552
-193 840 40 265 152 488 335 670 188 187 392 290 680 344 14 2 102 3 195 1
133 -3 187 -8 250 -24z m-85 -667 c380 -96 640 -473 591 -856 -21 -163 -84
-311 -174 -410 -38 -42 -38 -42 -19 -8 41 71 74 192 79 291 21 376 -262 688
-642 706 -202 10 -360 -52 -506 -197 -70 -69 -94 -102 -127 -170 -23 -47 -48
-114 -56 -150 -33 -139 -12 -322 52 -453 23 -46 25 -54 9 -40 -11 10 -37 44
-59 77 -227 332 -163 787 146 1047 91 77 228 145 342 170 105 22 260 20 364
-7z m-56 -649 c70 -20 161 -80 210 -136 153 -177 153 -447 2 -614 l-37 -40 18
35 c13 26 17 60 18 135 0 88 -3 107 -27 157 -49 106 -150 180 -274 201 -113
19 -259 -37 -327 -126 -79 -105 -101 -242 -58 -362 l11 -30 -33 37 c-68 76
-107 184 -107 298 0 130 43 232 135 326 125 127 294 170 469 119z m-49 -534
c56 -26 96 -72 110 -127 31 -121 -45 -233 -168 -250 -63 -9 -147 31 -184 88
-107 161 67 370 242 289z"/>
</g>
</svg>
