<?xml version="1.0" encoding="UTF-8" standalone="no"?>
<!-- Created with Inkscape (http://www.inkscape.org/) -->

<svg
   xmlns:dc="http://purl.org/dc/elements/1.1/"
   xmlns:cc="http://creativecommons.org/ns#"
   xmlns:rdf="http://www.w3.org/1999/02/22-rdf-syntax-ns#"
   xmlns:svg="http://www.w3.org/2000/svg"
   xmlns="http://www.w3.org/2000/svg"
   xmlns:sodipodi="http://sodipodi.sourceforge.net/DTD/sodipodi-0.dtd"
   xmlns:inkscape="http://www.inkscape.org/namespaces/inkscape"
   id="svg3766"
   version="1.1"
   inkscape:version="0.91 r13725"
   xml:space="preserve"
   width="952.5"
   height="622.5"
   viewBox="0 0 952.5 622.5"
   sodipodi:docname="screw.svg"><metadata
     id="metadata3772"><rdf:RDF><cc:Work
         rdf:about=""><dc:format>image/svg+xml</dc:format><dc:type
           rdf:resource="http://purl.org/dc/dcmitype/StillImage" /><dc:title /></cc:Work></rdf:RDF></metadata><defs
     id="defs3770" /><sodipodi:namedview
     pagecolor="#ffffff"
     bordercolor="#666666"
     borderopacity="1"
     objecttolerance="10"
     gridtolerance="10"
     guidetolerance="10"
     inkscape:pageopacity="0"
     inkscape:pageshadow="2"
     inkscape:window-width="640"
     inkscape:window-height="480"
     id="namedview3768"
     showgrid="false"
     inkscape:zoom="0.65091863"
     inkscape:cx="717.90612"
     inkscape:cy="334.46931"
     inkscape:window-x="235"
     inkscape:window-y="74"
     inkscape:window-maximized="0"
     inkscape:current-layer="g3774" /><g
     id="g3774"
     inkscape:groupmode="layer"
     inkscape:label="screw"
     transform="matrix(1.25,0,0,-1.25,0,622.5)"><path
       d="m 106.49,487.98 c 1.97,-1.66 3.9,-3.37 5.87,-5.04 0.04,-77.98 0.01,-155.96 0.03,-233.94 0.21,-76.69 0.16,-153.39 0.15,-230.08 0.83,-4.05 -3.3,-6.01 -5.83,-8.27 -0.24,159.11 0.03,318.22 -0.22,477.33 M 56.98,400.99 c 13.93,26.39 27.51,52.97 41.6,79.28 0.08,-76.09 0.01,-152.18 0.03,-228.27 0.2,-17.33 -0.51,-34.69 0.6,-51.99 C 99.12,138.86 99.33,77.7 99.11,16.56 93.9,25.38 89.74,34.78 84.99,43.86 76.69,60.2 68.35,76.52 59.94,92.81 c -1.53,3.38 -4.32,6.32 -4.7,10.12 -0.24,42.69 0.3,85.38 -0.26,128.07 -0.01,51.33 0,102.67 0,154 0.21,5.34 -0.91,11.17 2,15.99 m 97.67,-84.03 c 3.81,-3.98 6.9,-8.58 10.81,-12.46 2.44,-2.67 4.73,-5.52 6.21,-8.85 15.41,-27.95 31.65,-55.42 47.45,-83.15 1.71,-3.2 4.13,-6.12 5.01,-9.7 0.19,-3.23 0.04,-6.48 0.15,-9.72 -8.26,13.47 -16.31,27.07 -24.58,40.53 -1.06,1.74 -2.05,3.59 -3.59,4.96 -1.7,0.14 -3.44,-0.14 -4.55,-1.56 -0.63,-2.63 1.38,-4.74 2.49,-6.91 10.14,-16.25 19.73,-32.84 29.94,-49.05 -5.92,6.44 -11.28,13.41 -16.55,20.38 -11.21,19.05 -22.3,38.19 -33.23,57.39 -1.37,-0.28 -2.71,-0.61 -4.04,-1 -0.42,-1.99 -0.34,-4.08 0.92,-5.78 2.89,-4.36 4.21,-9.52 7.07,-13.89 1.05,-1.7 1.92,-3.51 2.64,-5.38 -3.99,-0.29 -7.98,-0.63 -11.98,-0.42 -0.35,-0.58 -1.06,-1.76 -1.41,-2.34 3.2,-4.08 4.37,-9.25 6.82,-13.76 1.91,-3.52 3.08,-7.43 5.17,-10.84 5.45,-1.81 11.52,0.24 17.17,-1.08 1.13,-0.85 2.08,-1.92 3.13,-2.88 -15.2,-0.58 -30.43,0.03 -45.62,-0.37 -7.15,-4.88 -12.92,-11.69 -20.37,-16.16 -2.85,43.52 -6.89,86.97 -9.65,130.5 7.3,-5.06 14.22,-10.65 21.58,-15.63 -0.33,-4.39 -0.98,-8.76 -1.01,-13.18 4.14,1.13 8.46,0.65 12.67,1.19 -1.89,3.3 -3.93,6.62 -5.06,10.27 1.63,6.17 1.81,12.57 2.41,18.89 m 72.96,-0.21 c 4.71,-5.96 10.01,-11.43 14.67,-17.42 10.76,-19.17 21.28,-38.51 32.72,-57.29 6.96,-12.6 14.45,-24.91 21.32,-37.56 1.01,-4.03 0.05,-8.3 0.15,-12.43 -4.62,8.98 -10.13,17.47 -15.2,26.19 -3.52,5.27 -6.25,11.04 -9.9,16.2 -3.01,2.56 -6.81,-1.48 -4.67,-4.54 9.09,-15.22 18.03,-30.53 27.19,-45.7 -5.56,7 -11.9,13.49 -16.21,21.39 -9.02,15.61 -17.99,31.25 -27.2,46.74 -1.6,2.24 -2.01,6.45 -5.47,6.38 -1.71,-0.87 -3.46,-2.6 -2.53,-4.67 1.65,-3.09 3.88,-5.89 5.02,-9.24 1.35,-4.03 3.74,-7.56 5.69,-11.3 -8.5,-1.16 -17.12,-1.2 -25.68,-1.18 -8.92,16.63 -18.74,32.74 -27.88,49.25 -2.3,4.22 -5.07,8.24 -6.65,12.82 8.06,0.02 16.13,-0.08 24.19,0.11 0.9,-2.64 0.21,-5.46 0.32,-8.18 1.86,0.56 3.77,0.96 5.69,1.3 1.46,-2.43 2.95,-4.84 4.4,-7.27 1.39,0.03 2.77,0.05 4.16,0.07 0.31,1.1 1.07,2.17 0.88,3.35 -1.68,4.03 -4.32,7.57 -6.22,11.48 -0.16,7.18 1.06,14.32 1.21,21.5 m 72.22,0.12 c 4.49,-4.23 8.05,-9.31 12.26,-13.8 4.41,-4.38 6.29,-10.45 9.56,-15.61 8.38,-14.24 16,-28.92 24.7,-42.97 7.49,-13.44 15.34,-26.67 22.91,-40.06 0.68,-3.77 0.25,-7.7 0.41,-11.53 -7.85,13.66 -15.99,27.16 -24.05,40.69 -1.86,3.87 -8.22,0.22 -5.67,-3.28 9.6,-16.49 19.69,-32.69 29.11,-49.27 -3.43,4.25 -6.77,8.56 -10.33,12.68 -6.88,7.87 -11.32,17.42 -16.68,26.31 -4.24,6.8 -7.82,13.98 -12.08,20.77 -3.68,5.73 -6.95,11.73 -9.96,17.83 -1.6,-0.21 -3.18,-0.57 -4.72,-1.01 -0.54,-3.95 2.35,-6.92 3.88,-10.27 2.27,-4.73 4.09,-9.75 7.43,-13.86 -8.62,-1.17 -17.37,-0.62 -25.99,-1.74 -7.5,13.43 -15.33,26.66 -22.93,40.03 -3.79,7.76 -8.85,14.81 -12.5,22.63 8.44,0 16.89,-0.08 25.33,0 -0.13,-2.39 -0.25,-4.78 -0.4,-7.17 2.02,0.05 4.04,0.13 6.07,0.22 1.4,-2.37 2.76,-4.77 4.19,-7.12 1.32,0.04 2.65,0.07 3.98,0.1 0.32,0.64 0.97,1.9 1.29,2.54 -1.64,4.35 -4.4,8.14 -6.32,12.35 -0.34,7.18 1.51,14.4 0.51,21.54 m 73.73,-0.15 c 4.51,-6.15 9.97,-11.52 14.56,-17.6 15.43,-28.08 31.64,-55.76 47.45,-83.64 2.42,-4.21 5.28,-8.24 6.92,-12.84 0.23,-3.38 -0.11,-6.78 -0.23,-10.16 -8.08,14.5 -16.45,28.86 -24.99,43.1 -1.65,-0.32 -3.28,-0.68 -4.91,-1.07 0.04,-1.73 -0.08,-3.58 1.03,-5.04 9.24,-15.79 18.18,-31.76 27.67,-47.4 -5.67,7.31 -12.2,14 -17.05,21.91 -10.17,18.13 -21.28,35.75 -30.92,54.17 -1.23,0.36 -2.5,0.43 -3.75,0.55 -1.03,-1.94 -1.76,-4.43 -0.13,-6.29 3.94,-6.11 5.71,-13.45 10.44,-19.07 -8.79,-0.02 -17.51,-1.54 -26.31,-1.06 -11.93,20.59 -23.9,41.17 -35.26,62.08 8.02,0.06 16.04,0.02 24.06,0.02 2.45,-1.55 0.71,-4.78 0.97,-7.14 2.06,0.08 4.12,0.13 6.19,0.19 1.31,-2.34 2.16,-5.04 4.15,-6.93 1.41,-0.23 2.85,-0.14 4.28,-0.15 1.66,6.13 -4.35,10.29 -5.63,15.74 0.26,6.89 0.64,13.78 1.46,20.63 m 72.99,0.07 c 4.57,-6.68 10.71,-12.14 15.17,-18.9 8.84,-16.37 18.35,-32.37 27.37,-48.63 7.89,-12.65 14.71,-25.93 22.45,-38.67 1.32,-2.28 2.67,-4.57 3.61,-7.04 0.42,-3.79 0.15,-7.62 0.05,-11.43 -7.33,15.15 -16.11,29.57 -23.73,44.58 -1.7,-0.06 -3.38,-0.14 -5.06,-0.23 0.01,-1.8 -0.38,-3.75 0.52,-5.42 8.63,-16.01 17.41,-31.92 26.03,-47.94 -4.68,6.53 -10.35,12.29 -14.82,18.94 -9.65,17.21 -19.85,34.1 -29.55,51.27 -1.33,1.91 -1.71,5.32 -4.58,5.33 -2.74,-0.2 -3.69,-3.73 -2.15,-5.73 3.64,-6.36 6.22,-13.24 10.13,-19.46 -8.71,-0.61 -17.42,-1.57 -26.16,-1.03 -11.31,20.77 -23.74,40.96 -34.75,61.89 8.46,0.08 16.94,0.16 25.41,-0.05 -0.25,-2.33 -0.54,-4.66 -0.79,-6.99 2.15,-0.01 4.32,0.02 6.48,0.1 1.05,-1.99 2.04,-4.01 3.25,-5.91 0.79,-1.79 3.14,-0.96 4.66,-1.23 0.36,0.72 1.09,2.16 1.46,2.88 -1.8,3.9 -4.1,7.54 -6.07,11.34 -1.11,1.67 -0.4,3.67 -0.35,5.5 0.36,5.62 0.45,11.28 1.42,16.83 m 78.11,-7.63 c 3.81,-3.35 7.4,-7.04 10.64,-10.94 6.91,-12.92 14.4,-25.51 21.54,-38.3 6.12,-11.14 13.07,-21.8 19.15,-32.96 3.78,-7.04 7.99,-13.85 11.81,-20.86 1.72,-2.64 0.41,-5.79 -0.59,-8.42 -7.32,13.14 -15.1,26.02 -22.56,39.08 -1.59,-0.23 -3.45,0.26 -4.81,-0.71 -1.12,-2.02 0.09,-4.28 1.11,-6.07 7.67,-13.33 15.54,-26.53 23.14,-39.9 -4.58,4.72 -10.38,8.49 -13.49,14.43 -10.47,18.15 -20.98,36.29 -31.53,54.4 -1.7,-0.28 -4.31,-0.81 -4.39,-2.93 0.42,-3.9 3.35,-6.82 4.78,-10.35 1.7,-4.34 4.01,-8.41 6.72,-12.2 -9.11,-0.74 -18.27,-1.38 -27.4,-0.97 -8.33,15.03 -17.19,29.76 -25.52,44.8 -3.17,5.65 -6.65,11.16 -9.23,17.12 7.95,0.06 15.91,-0.07 23.86,0.05 -0.84,-2.38 -1.73,-4.75 -2.32,-7.2 3.27,-0.08 6.54,-0.04 9.81,0.24 1.62,-2.24 2.96,-4.66 4.59,-6.91 1.51,-0.18 3.05,-0.23 4.59,-0.15 1.45,5.73 -3.94,9.54 -5.36,14.58 1.35,4.87 3.57,9.48 5.46,14.17 m 32.54,-14.57 c 56.22,0.13 112.43,0.06 168.65,0.04 1.71,-2.8 4.28,-5.28 5.04,-8.53 -1.51,-4.71 -7.23,-7 -11.84,-7.05 -47.36,-0.03 -94.72,-0.14 -142.07,0.06 -3.53,0.6 -7.21,-1.24 -10.53,-0.58 -2.98,5.41 -5.78,10.94 -9.25,16.06 m 21.52,-27.26 c 6.72,0.75 13.51,0.95 20.28,0.86 17.66,0 35.33,0 53,0 18.54,-0.05 37.17,0.15 55.57,-2.58 16.2,-2.57 32.47,-6.46 46.95,-14.42 -8.51,-15.01 -17.11,-29.96 -25.62,-44.97 -1.15,-1.58 -1.71,-3.99 -3.9,-4.4 -39.48,-0.13 -78.96,0.13 -118.44,-0.12 0.89,3.52 -0.15,6.86 -2.17,9.76 7.82,1.02 15.72,1.53 23.61,1.55 28.73,0.15 57.48,-0.52 86.19,0.54 -28.14,0.51 -56.34,2.43 -84.09,7.29 -1.41,0.1 -1.74,1.75 -2.46,2.68 -3.08,5.54 -5.97,11.19 -8.71,16.9 -10,-0.51 -19.98,-1.38 -30,-1.22 -4.23,6.77 -7.92,13.86 -11.86,20.79 -1.53,2.43 -0.03,5.43 1.65,7.34 m -45.45,-59.59 c 9.35,-0.68 18.9,0.61 28.1,-1.29 0.88,-1.98 1.83,-3.94 2.71,-5.93 -10.28,-0.11 -20.56,0.14 -30.8,0.83 0.01,2.13 0,4.26 -0.01,6.39 M 241.7,204.76 c 9.3,0.08 18.6,0.02 27.9,-0.33 0.74,-0.95 1.52,-1.88 2.32,-2.8 -10.02,-0.74 -20.07,-0.38 -30.11,-0.47 -0.04,1.21 -0.07,2.41 -0.11,3.6 m 72.4,0.06 c 9.71,-0.04 19.41,0.02 29.11,-0.46 0.18,-0.98 0.38,-1.96 0.57,-2.94 -9.86,0.06 -19.72,0.1 -29.58,-0.03 -0.03,1.15 -0.06,2.29 -0.1,3.43 m 73.23,0.03 c 9.4,-0.05 18.79,-0.08 28.19,-0.41 0.46,-0.99 0.94,-1.97 1.44,-2.96 -9.85,-0.14 -19.7,0.14 -29.54,-0.09 -0.03,1.16 -0.06,2.31 -0.09,3.46 m 72.32,-0.26 c 9.84,0.37 19.68,0.21 29.52,-0.25 0.27,-0.96 0.55,-1.91 0.84,-2.87 -10.1,0.04 -20.19,-0.06 -30.28,0.02 -0.03,1.04 -0.05,2.07 -0.08,3.1 z"
       style="fill:#fdfdfd;fill-opacity:1;fill-rule:nonzero;stroke:#fdfdfd;stroke-width:0.09375;stroke-linecap:butt;stroke-linejoin:miter;stroke-miterlimit:10;stroke-dasharray:none;stroke-opacity:1"
       id="path3776"
       inkscape:connector-curvature="0" /><path
       d="m 100.79,498 4.26,0 c 4.49,-2.64 7.84,-6.81 11.9,-10.03 2.02,-1.29 2.07,-3.72 2.03,-5.86 -0.02,-50.41 0,-100.82 -0.02,-151.23 0.07,-1.83 -0.13,-4.09 1.77,-5.1 8.55,-6.14 16.92,-12.53 25.49,-18.65 1.16,13.83 2.09,27.67 3.34,41.49 6.24,-5.49 11.01,-12.36 16.52,-18.54 5.9,-6.46 11.16,-13.47 16.98,-20 2.57,-2.73 4.15,-6.16 5.81,-9.48 9.79,-0.02 19.57,0.01 29.36,0 1.66,16.23 2.24,32.58 4.34,48.76 11.36,-13.86 23.19,-27.34 34.69,-41.08 1.74,-2.41 2.93,-5.15 4.39,-7.73 9.48,0.19 18.97,-0.13 28.45,0.14 0.28,0.35 0.83,1.07 1.11,1.42 1.55,15.86 2.21,31.82 4.14,47.63 10.9,-14.13 23.22,-27.12 34.32,-41.1 1.99,-2.49 3.05,-5.63 5.27,-7.95 9.74,-0.22 19.49,-0.04 29.24,-0.07 0.83,14.18 2.14,28.33 3.23,42.49 0.13,2.03 0.39,4.05 0.82,6.04 8.49,-9.84 16.86,-19.76 25.27,-29.67 4.86,-6.04 10.9,-11.35 13.61,-18.84 9.87,-0.09 19.75,-0.01 29.63,-0.05 1.69,16.22 2.61,32.5 3.97,48.75 9.09,-10.46 18.1,-21 27.12,-31.52 3.63,-4.41 7.79,-8.49 10.36,-13.66 0.91,-1.4 1.69,-3.66 3.72,-3.54 9.7,-0.1 19.4,0.05 29.11,-0.06 4.92,10.8 9.25,21.9 14.71,32.44 7.26,-8.47 15.55,-15.98 23.28,-24 2.05,-2.15 3.06,-5.02 4.3,-7.66 58.88,0.07 117.76,0.06 176.64,0 10.53,-16.85 21.58,-33.37 32.05,-50.25 l 0,-0.7 c -10.62,-18.3 -21.04,-36.71 -31.39,-55.16 -42.15,-0.08 -84.31,0.11 -126.46,-0.1 -2.59,-9.72 -5.95,-19.23 -8.23,-29.03 -8.9,8.74 -17.56,17.72 -26.37,26.54 -1.01,0.89 -2.01,2.13 -3.5,1.99 -11.14,0.63 -22.31,0.33 -33.46,0.33 0.11,-11.97 -0.52,-23.94 -0.11,-35.91 -0.17,-3.65 -0.6,-7.29 -0.84,-10.94 -2.55,4.19 -5.83,7.86 -8.99,11.59 -7.15,8.88 -14.51,17.59 -21.65,26.48 -0.49,-0.45 -1.47,-1.36 -1.96,-1.82 0.58,0.78 1.17,1.56 1.76,2.33 -2.7,2.75 -4.68,6.27 -7.84,8.52 -11.05,0.5 -22.14,0.15 -33.2,0.15 -0.3,-15.69 -0.18,-31.39 -0.67,-47.07 -11.97,14.97 -24.31,29.64 -36.35,44.56 -1.03,1.14 -2.03,2.78 -3.82,2.48 -10.7,0.21 -21.42,0.06 -32.13,0.09 -0.1,-15.55 -0.06,-31.1 -0.69,-46.64 -12.88,14.92 -24.83,30.63 -37.6,45.65 -0.83,1.09 -2.26,0.9 -3.46,0.98 -10.33,0.06 -20.66,-0.02 -30.98,0.07 -0.45,-15.72 -0.18,-31.46 -0.65,-47.17 -11.89,14.79 -24.23,29.21 -35.98,44.13 -1.22,1.29 -2.33,3.24 -4.39,2.94 -10.56,0.03 -21.12,0.1 -31.67,-0.07 0.06,-15.53 -0.54,-31.05 -0.66,-46.59 -13.02,15.34 -25.63,31.02 -38.27,46.67 -14.52,-0.14 -29.03,-0.55 -43.56,-0.4 -3.5,0.37 -5.79,-2.67 -8.3,-4.57 -9.72,-8.61 -19.94,-16.65 -29.65,-25.29 -2.71,-1.83 -1.81,-5.33 -1.97,-8.1 0.11,-46.37 -0.08,-92.75 0.06,-139.12 -0.18,-2.18 0.34,-4.85 -1.61,-6.42 C 113.32,7.45 108.82,3.84 104.55,0 l -3.07,0 c -1.18,1.34 -2.51,2.56 -3.44,4.08 -16.26,31.28 -32.4,62.64 -48.69,93.91 -0.66,1.2 -1,2.53 -0.94,3.89 -0.01,96.71 0.01,193.42 -0.02,290.13 0.1,3.2 -0.48,6.67 1.25,9.57 14.6,27.97 29.23,55.93 43.87,83.88 2.18,4.31 4.08,8.84 7.28,12.54 m 5.7,-10.02 c 0.25,-159.11 -0.02,-318.22 0.22,-477.33 2.53,2.26 6.66,4.22 5.83,8.27 0.01,76.69 0.06,153.39 -0.15,230.08 -0.02,77.98 0.01,155.96 -0.03,233.94 -1.97,1.67 -3.9,3.38 -5.87,5.04 M 56.98,400.99 c -2.91,-4.82 -1.79,-10.65 -2,-15.99 0,-51.33 -0.01,-102.67 0,-154 0.56,-42.69 0.02,-85.38 0.26,-128.07 0.38,-3.8 3.17,-6.74 4.7,-10.12 8.41,-16.29 16.75,-32.61 25.05,-48.95 4.75,-9.08 8.91,-18.48 14.12,-27.3 0.22,61.14 0.01,122.3 0.1,183.45 -1.11,17.3 -0.4,34.66 -0.6,51.99 -0.02,76.09 0.05,152.18 -0.03,228.27 -14.09,-26.31 -27.67,-52.89 -41.6,-79.28 m 97.67,-84.03 c -0.6,-6.32 -0.78,-12.72 -2.41,-18.89 1.13,-3.65 3.17,-6.97 5.06,-10.27 -4.21,-0.54 -8.53,-0.06 -12.67,-1.19 0.03,4.42 0.68,8.79 1.01,13.18 -7.36,4.98 -14.28,10.57 -21.58,15.63 2.76,-43.53 6.8,-86.98 9.65,-130.5 7.45,4.47 13.22,11.28 20.37,16.16 15.19,0.4 30.42,-0.21 45.62,0.37 -1.05,0.96 -2,2.03 -3.13,2.88 -5.65,1.32 -11.72,-0.73 -17.17,1.08 -2.09,3.41 -3.26,7.32 -5.17,10.84 -2.45,4.51 -3.62,9.68 -6.82,13.76 0.35,0.58 1.06,1.76 1.41,2.34 4,-0.21 7.99,0.13 11.98,0.42 -0.72,1.87 -1.59,3.68 -2.64,5.38 -2.86,4.37 -4.18,9.53 -7.07,13.89 -1.26,1.7 -1.34,3.79 -0.92,5.78 1.33,0.39 2.67,0.72 4.04,1 10.93,-19.2 22.02,-38.34 33.23,-57.39 5.27,-6.97 10.63,-13.94 16.55,-20.38 -10.21,16.21 -19.8,32.8 -29.94,49.05 -1.11,2.17 -3.12,4.28 -2.49,6.91 1.11,1.42 2.85,1.7 4.55,1.56 1.54,-1.37 2.53,-3.22 3.59,-4.96 8.27,-13.46 16.32,-27.06 24.58,-40.53 -0.11,3.24 0.04,6.49 -0.15,9.72 -0.88,3.58 -3.3,6.5 -5.01,9.7 -15.8,27.73 -32.04,55.2 -47.45,83.15 -1.48,3.33 -3.77,6.18 -6.21,8.85 -3.91,3.88 -7,8.48 -10.81,12.46 m 72.96,-0.21 c -0.15,-7.18 -1.37,-14.32 -1.21,-21.5 1.9,-3.91 4.54,-7.45 6.22,-11.48 0.19,-1.18 -0.57,-2.25 -0.88,-3.35 -1.39,-0.02 -2.77,-0.04 -4.16,-0.07 -1.45,2.43 -2.94,4.84 -4.4,7.27 -1.92,-0.34 -3.83,-0.74 -5.69,-1.3 -0.11,2.72 0.58,5.54 -0.32,8.18 -8.06,-0.19 -16.13,-0.09 -24.19,-0.11 1.58,-4.58 4.35,-8.6 6.65,-12.82 9.14,-16.51 18.96,-32.62 27.88,-49.25 8.56,-0.02 17.18,0.02 25.68,1.18 -1.95,3.74 -4.34,7.27 -5.69,11.3 -1.14,3.35 -3.37,6.15 -5.02,9.24 -0.93,2.07 0.82,3.8 2.53,4.67 3.46,0.07 3.87,-4.14 5.47,-6.38 9.21,-15.49 18.18,-31.13 27.2,-46.74 4.31,-7.9 10.65,-14.39 16.21,-21.39 -9.16,15.17 -18.1,30.48 -27.19,45.7 -2.14,3.06 1.66,7.1 4.67,4.54 3.65,-5.16 6.38,-10.93 9.9,-16.2 5.07,-8.72 10.58,-17.21 15.2,-26.19 -0.1,4.13 0.86,8.4 -0.15,12.43 -6.87,12.65 -14.36,24.96 -21.32,37.56 -11.44,18.78 -21.96,38.12 -32.72,57.29 -4.66,5.99 -9.96,11.46 -14.67,17.42 m 72.22,0.12 c 1,-7.14 -0.85,-14.36 -0.51,-21.54 1.92,-4.21 4.68,-8 6.32,-12.35 -0.32,-0.64 -0.97,-1.9 -1.29,-2.54 -1.33,-0.03 -2.66,-0.06 -3.98,-0.1 -1.43,2.35 -2.79,4.75 -4.19,7.12 -2.03,-0.09 -4.05,-0.17 -6.07,-0.22 0.15,2.39 0.27,4.78 0.4,7.17 -8.44,-0.08 -16.89,0 -25.33,0 3.65,-7.82 8.71,-14.87 12.5,-22.63 7.6,-13.37 15.43,-26.6 22.93,-40.03 8.62,1.12 17.37,0.57 25.99,1.74 -3.34,4.11 -5.16,9.13 -7.43,13.86 -1.53,3.35 -4.42,6.32 -3.88,10.27 1.54,0.44 3.12,0.8 4.72,1.01 3.01,-6.1 6.28,-12.1 9.96,-17.83 4.26,-6.79 7.84,-13.97 12.08,-20.77 5.36,-8.89 9.8,-18.44 16.68,-26.31 3.56,-4.12 6.9,-8.43 10.33,-12.68 -9.42,16.58 -19.51,32.78 -29.11,49.27 -2.55,3.5 3.81,7.15 5.67,3.28 8.06,-13.53 16.2,-27.03 24.05,-40.69 -0.16,3.83 0.27,7.76 -0.41,11.53 -7.57,13.39 -15.42,26.62 -22.91,40.06 -8.7,14.05 -16.32,28.73 -24.7,42.97 -3.27,5.16 -5.15,11.23 -9.56,15.61 -4.21,4.49 -7.77,9.57 -12.26,13.8 m 73.73,-0.15 c -0.82,-6.85 -1.2,-13.74 -1.46,-20.63 1.28,-5.45 7.29,-9.61 5.63,-15.74 -1.43,0.01 -2.87,-0.08 -4.28,0.15 -1.99,1.89 -2.84,4.59 -4.15,6.93 -2.07,-0.06 -4.13,-0.11 -6.19,-0.19 -0.26,2.36 1.48,5.59 -0.97,7.14 -8.02,0 -16.04,0.04 -24.06,-0.02 11.36,-20.91 23.33,-41.49 35.26,-62.08 8.8,-0.48 17.52,1.04 26.31,1.06 -4.73,5.62 -6.5,12.96 -10.44,19.07 -1.63,1.86 -0.9,4.35 0.13,6.29 1.25,-0.12 2.52,-0.19 3.75,-0.55 9.64,-18.42 20.75,-36.04 30.92,-54.17 4.85,-7.91 11.38,-14.6 17.05,-21.91 -9.49,15.64 -18.43,31.61 -27.67,47.4 -1.11,1.46 -0.99,3.31 -1.03,5.04 1.63,0.39 3.26,0.75 4.91,1.07 8.54,-14.24 16.91,-28.6 24.99,-43.1 0.12,3.38 0.46,6.78 0.23,10.16 -1.64,4.6 -4.5,8.63 -6.92,12.84 -15.81,27.88 -32.02,55.56 -47.45,83.64 -4.59,6.08 -10.05,11.45 -14.56,17.6 m 72.99,0.07 c -0.97,-5.55 -1.06,-11.21 -1.42,-16.83 -0.05,-1.83 -0.76,-3.83 0.35,-5.5 1.97,-3.8 4.27,-7.44 6.07,-11.34 -0.37,-0.72 -1.1,-2.16 -1.46,-2.88 -1.52,0.27 -3.87,-0.56 -4.66,1.23 -1.21,1.9 -2.2,3.92 -3.25,5.91 -2.16,-0.08 -4.33,-0.11 -6.48,-0.1 0.25,2.33 0.54,4.66 0.79,6.99 -8.47,0.21 -16.95,0.13 -25.41,0.05 11.01,-20.93 23.44,-41.12 34.75,-61.89 8.74,-0.54 17.45,0.42 26.16,1.03 -3.91,6.22 -6.49,13.1 -10.13,19.46 -1.54,2 -0.59,5.53 2.15,5.73 2.87,-0.01 3.25,-3.42 4.58,-5.33 9.7,-17.17 19.9,-34.06 29.55,-51.27 4.47,-6.65 10.14,-12.41 14.82,-18.94 -8.62,16.02 -17.4,31.93 -26.03,47.94 -0.9,1.67 -0.51,3.62 -0.52,5.42 1.68,0.09 3.36,0.17 5.06,0.23 7.62,-15.01 16.4,-29.43 23.73,-44.58 0.1,3.81 0.37,7.64 -0.05,11.43 -0.94,2.47 -2.29,4.76 -3.61,7.04 -7.74,12.74 -14.56,26.02 -22.45,38.67 -9.02,16.26 -18.53,32.26 -27.37,48.63 -4.46,6.76 -10.6,12.22 -15.17,18.9 m 78.11,-7.63 c -1.89,-4.69 -4.11,-9.3 -5.46,-14.17 1.42,-5.04 6.81,-8.85 5.36,-14.58 -1.54,-0.08 -3.08,-0.03 -4.59,0.15 -1.63,2.25 -2.97,4.67 -4.59,6.91 -3.27,-0.28 -6.54,-0.32 -9.81,-0.24 0.59,2.45 1.48,4.82 2.32,7.2 -7.95,-0.12 -15.91,0.01 -23.86,-0.05 2.58,-5.96 6.06,-11.47 9.23,-17.12 8.33,-15.04 17.19,-29.77 25.52,-44.8 9.13,-0.41 18.29,0.23 27.4,0.97 -2.71,3.79 -5.02,7.86 -6.72,12.2 -1.43,3.53 -4.36,6.45 -4.78,10.35 0.08,2.12 2.69,2.65 4.39,2.93 10.55,-18.11 21.06,-36.25 31.53,-54.4 3.11,-5.94 8.91,-9.71 13.49,-14.43 -7.6,13.37 -15.47,26.57 -23.14,39.9 -1.02,1.79 -2.23,4.05 -1.11,6.07 1.36,0.97 3.22,0.48 4.81,0.71 7.46,-13.06 15.24,-25.94 22.56,-39.08 1,2.63 2.31,5.78 0.59,8.42 -3.82,7.01 -8.03,13.82 -11.81,20.86 -6.08,11.16 -13.03,21.82 -19.15,32.96 -7.14,12.79 -14.63,25.38 -21.54,38.3 -3.24,3.9 -6.83,7.59 -10.64,10.94 m 32.54,-14.57 c 3.47,-5.12 6.27,-10.65 9.25,-16.06 3.32,-0.66 7,1.18 10.53,0.58 47.35,-0.2 94.71,-0.09 142.07,-0.06 4.61,0.05 10.33,2.34 11.84,7.05 -0.76,3.25 -3.33,5.73 -5.04,8.53 -56.22,0.02 -112.43,0.09 -168.65,-0.04 m 21.52,-27.26 c -1.68,-1.91 -3.18,-4.91 -1.65,-7.34 3.94,-6.93 7.63,-14.02 11.86,-20.79 10.02,-0.16 20,0.71 30,1.22 2.74,-5.71 5.63,-11.36 8.71,-16.9 0.72,-0.93 1.05,-2.58 2.46,-2.68 27.75,-4.86 55.95,-6.78 84.09,-7.29 -28.71,-1.06 -57.46,-0.39 -86.19,-0.54 -7.89,-0.02 -15.79,-0.53 -23.61,-1.55 2.02,-2.9 3.06,-6.24 2.17,-9.76 39.48,0.25 78.96,-0.01 118.44,0.12 2.19,0.41 2.75,2.82 3.9,4.4 8.51,15.01 17.11,29.96 25.62,44.97 -14.48,7.96 -30.75,11.85 -46.95,14.42 -18.4,2.73 -37.03,2.53 -55.57,2.58 -17.67,0 -35.34,0 -53,0 -6.77,0.09 -13.56,-0.11 -20.28,-0.86 m -45.45,-59.59 c 0.01,-2.13 0.02,-4.26 0.01,-6.39 10.24,-0.69 20.52,-0.94 30.8,-0.83 -0.88,1.99 -1.83,3.95 -2.71,5.93 -9.2,1.9 -18.75,0.61 -28.1,1.29 M 241.7,204.76 c 0.04,-1.19 0.07,-2.39 0.11,-3.6 10.04,0.09 20.09,-0.27 30.11,0.47 -0.8,0.92 -1.58,1.85 -2.32,2.8 -9.3,0.35 -18.6,0.41 -27.9,0.33 m 72.4,0.06 c 0.04,-1.14 0.07,-2.28 0.1,-3.43 9.86,0.13 19.72,0.09 29.58,0.03 -0.19,0.98 -0.39,1.96 -0.57,2.94 -9.7,0.48 -19.4,0.42 -29.11,0.46 m 73.23,0.03 c 0.03,-1.15 0.06,-2.3 0.09,-3.46 9.84,0.23 19.69,-0.05 29.54,0.09 -0.5,0.99 -0.98,1.97 -1.44,2.96 -9.4,0.33 -18.79,0.36 -28.19,0.41 m 72.32,-0.26 c 0.03,-1.03 0.05,-2.06 0.08,-3.1 10.09,-0.08 20.18,0.02 30.28,-0.02 -0.29,0.96 -0.57,1.91 -0.84,2.87 -9.84,0.46 -19.68,0.62 -29.52,0.25 z"
       style="fill:#030102;fill-opacity:1;fill-rule:nonzero;stroke:#030102;stroke-width:0.09375;stroke-linecap:butt;stroke-linejoin:miter;stroke-miterlimit:10;stroke-dasharray:none;stroke-opacity:1"
       id="path3778"
       inkscape:connector-curvature="0" /></g></svg>