<?xml version="1.0" encoding="UTF-8" standalone="no"?>
<!-- Created with Inkscape (http://www.inkscape.org/) -->

<svg
   xmlns:dc="http://purl.org/dc/elements/1.1/"
   xmlns:cc="http://creativecommons.org/ns#"
   xmlns:rdf="http://www.w3.org/1999/02/22-rdf-syntax-ns#"
   xmlns:svg="http://www.w3.org/2000/svg"
   xmlns="http://www.w3.org/2000/svg"
   xmlns:sodipodi="http://sodipodi.sourceforge.net/DTD/sodipodi-0.dtd"
   xmlns:inkscape="http://www.inkscape.org/namespaces/inkscape"
   id="svg3780"
   version="1.1"
   inkscape:version="0.91 r13725"
   xml:space="preserve"
   width="1677.5"
   height="1373.75"
   viewBox="0 0 1677.5 1373.75"
   sodipodi:docname="spiral.svg"><metadata
     id="metadata3786"><rdf:RDF><cc:Work
         rdf:about=""><dc:format>image/svg+xml</dc:format><dc:type
           rdf:resource="http://purl.org/dc/dcmitype/StillImage" /><dc:title></dc:title></cc:Work></rdf:RDF></metadata><defs
     id="defs3784" /><sodipodi:namedview
     pagecolor="#ffffff"
     bordercolor="#666666"
     borderopacity="1"
     objecttolerance="10"
     gridtolerance="10"
     guidetolerance="10"
     inkscape:pageopacity="0"
     inkscape:pageshadow="2"
     inkscape:window-width="640"
     inkscape:window-height="480"
     id="namedview3782"
     showgrid="false"
     inkscape:zoom="0.17179254"
     inkscape:cx="838.75"
     inkscape:cy="686.875"
     inkscape:window-x="180"
     inkscape:window-y="379"
     inkscape:window-maximized="0"
     inkscape:current-layer="g3788" /><g
     id="g3788"
     inkscape:groupmode="layer"
     inkscape:label="spiral"
     transform="matrix(1.25,0,0,-1.25,0,1373.75)"><path
       d="m 536.21,1029.8 c 84.17,26.02 175.86,27.04 260.61,3.02 64.9,-18.31 125.56,-51.29 176.33,-95.64 69.42,-60.31 120.13,-141.89 142.98,-231 22.12,-85.52 19.03,-177.42 -9.1,-261.17 -22.36,-66.98 -60.6,-128.55 -110.52,-178.47 -33.05,-33.06 -71.09,-61.21 -112.61,-82.73 56.08,35.26 103.17,84.64 135.72,142.33 18.16,32.12 31.84,66.78 40.48,102.66 21.15,87.34 12.07,181.77 -26.09,263.2 -25.76,55.44 -64.46,104.79 -112.06,143.14 -52.88,42.77 -116.84,71.73 -183.93,83 -79.35,13.52 -162.75,2.73 -235.74,-31.31 -75.8,-34.98 -140,-94.35 -180.91,-167.1 -37.3,-65.78 -55.08,-142.33 -50.94,-217.81 3.55,-71.82 27.13,-142.5 67.35,-202.11 28.74,-42.81 65.83,-79.96 108.53,-108.87 -53.68,30 -100.96,71.26 -138.51,119.91 -42.1,54.51 -71.71,118.63 -85.67,186.09 -10.47,50.29 -12.42,102.33 -5.85,153.28 8.16,63.87 30.12,125.91 63.88,180.74 33.92,55.27 79.67,103.21 133.27,139.7 37.67,25.68 79.2,45.72 122.78,59.14 m 50.66,-16.2 c -84.09,-15.98 -163,-57.45 -224.2,-117.25 -47.41,-46.13 -84.34,-102.99 -106.93,-165.17 -17.85,-48.95 -26.82,-101.1 -26.5,-153.19 0.2,-77.54 21.31,-154.98 60.92,-221.66 -18.51,34.92 -32.57,72.24 -41.01,110.88 -20.22,91.16 -10.15,188.84 28.99,273.68 24.2,52.85 59.23,100.69 102.22,139.81 38.08,34.73 82.4,62.61 130.24,81.79 74.8,30.16 158.11,38.42 237.46,24.23 67.32,-11.91 131.61,-40.31 185.89,-81.86 44.92,-34.3 83.07,-77.44 111.53,-126.27 23.53,-40.27 40.45,-84.39 49.83,-130.08 17.19,-83.33 9.4,-171.75 -22.81,-250.55 11.56,24.58 20.2,50.5 26.75,76.84 21.56,87.91 15.48,182.45 -17.76,266.68 -19.9,50.7 -49.35,97.62 -86.27,137.66 -43.3,47.07 -96.93,84.62 -156.06,109.04 -79.21,32.92 -168.11,41.63 -252.29,25.42 m 22.22,-50.03 C 531.81,952.38 458.16,918.01 399.7,866.28 353.21,825.34 316.17,773.7 292.51,716.43 273.66,671.02 263.29,622.14 261.87,573.01 c -0.32,-7.31 0.13,-14.64 -0.43,-21.94 0.33,2.16 0.64,4.32 0.76,6.49 2.55,54.9 16.4,109.24 40.44,158.67 24.54,50.62 59.68,96.05 102.41,132.63 54.64,46.96 121.87,79.14 192.79,91.91 80.82,14.77 166.06,4.79 241.03,-28.94 57.2,-25.56 108.33,-64.49 148.29,-112.72 36.27,-43.71 63.51,-94.99 78.79,-149.72 -0.81,5.47 -2.36,10.79 -3.71,16.14 -14.55,55.01 -40.95,106.83 -76.75,151.05 -38.78,48.05 -88.6,87.14 -144.56,113.25 -71.74,33.72 -153.47,45.33 -231.84,33.74 m 35.44,-61.38 c 75.11,5.48 151.74,-11.91 216.92,-49.69 53.88,-31.01 99.94,-75.43 132.91,-128.13 28.73,-45.76 47.49,-97.73 54.55,-151.3 10.3,-76.68 -3.22,-156.46 -38.93,-225.15 C 979.04,287.87 931.76,236.39 874.61,200.38 812.19,160.76 737.96,140.23 664.06,141.89 c -59.42,1.04 -118.54,16.31 -170.98,44.29 -56.02,29.73 -104.36,73.74 -139.28,126.67 -40.88,61.56 -62.98,135.29 -62.86,209.18 -0.26,70.79 19.83,141.52 57.41,201.54 34.65,55.67 83.9,102.15 141.52,133.46 47.52,25.92 100.66,41.44 154.66,45.16 m 2.07,-16.02 C 607.94,883.18 569.84,873.05 534.84,856.36 507.95,843.6 482.98,826.94 460.62,807.32 440.53,792.35 421.9,775.4 405.34,756.6 362.18,707.91 332.85,647.09 321.92,582.94 c -13.25,-76.12 -0.9,-156.53 35.28,-224.87 31.06,-59.26 79.32,-109.34 137.38,-142.6 54.19,-31.26 116.85,-47.51 179.4,-46.78 71.63,0.45 142.88,23.47 201.19,65.09 54.36,38.5 97.53,92.61 122.77,154.28 33.52,81.06 35.16,174.68 4.63,256.9 -21.81,59.43 -60.13,112.55 -109.24,152.44 -33.18,32 -73.22,56.93 -116.8,72.05 -41.53,14.53 -86.09,20.12 -129.93,16.72 m -94.45,-56.33 c 33.46,23.4 73.99,36.52 114.83,37.04 35.39,0.72 70.93,-7.88 102.06,-24.76 35.17,-18.94 64.64,-48.29 83.74,-83.38 23.11,-41.93 30.54,-91.94 21.56,-138.9 2.26,32.78 -3.03,66.13 -16.16,96.3 -15.56,36.18 -41.88,67.61 -74.71,89.36 -30.29,20.2 -66.09,32.02 -102.46,33.75 -37.99,2.03 -76.5,-6.84 -109.7,-25.43 -32.39,-17.99 -59.7,-44.99 -78.09,-77.15 -18.94,-32.88 -28.28,-71.16 -26.79,-109.07 0.1,-2.47 0.2,-4.94 0.19,-7.42 -7.38,40.47 -3.24,83.14 13.17,120.96 15.2,35.56 40.6,66.64 72.36,88.7 m 62.82,-22.95 c 36.66,12.15 77.22,12.08 113.84,-0.19 32.46,-10.77 61.64,-31.07 83.14,-57.64 22.18,-27.21 36.12,-61.01 39.47,-95.96 2.09,-20.17 0.38,-40.6 -3.99,-60.36 2.32,35.61 -5.77,71.96 -24.13,102.66 -17.85,30.25 -44.93,54.95 -76.73,69.87 -33.24,15.75 -71.47,20.49 -107.59,13.69 -34.02,-6.31 -65.97,-23.05 -90.62,-47.3 -24.3,-23.7 -41.52,-54.58 -48.77,-87.75 -3.85,-16.73 -4.58,-33.98 -3.93,-51.08 -4.29,20.11 -6.04,40.84 -3.78,61.33 3.62,35.66 18.31,70.05 41.44,97.4 21.42,25.51 50,44.94 81.65,55.33 m -3.3,-63.67 c 33.55,14.77 72.58,16.47 107.33,4.82 31.53,-10.43 59.27,-31.77 77.56,-59.47 19.59,-29.29 28.1,-65.64 23.84,-100.59 -1.44,-12.3 -4.49,-24.39 -8.86,-35.98 7.19,36.04 0.1,74.74 -19.91,105.62 -17.7,27.76 -45.21,49.12 -76.55,59.24 -35.26,11.57 -74.98,8.77 -108.19,-7.82 -30.02,-14.77 -54.52,-40.38 -67.93,-71.03 -10.32,-23.21 -13.97,-49.15 -11.26,-74.35 -10.53,36.08 -7.05,76.07 10.03,109.6 15.55,30.95 42.16,56.16 73.94,69.96 M 427.35,602.02 c -2.32,51.83 12.56,104.2 41.75,147.09 -20.22,-36.13 -30.71,-77.65 -29.64,-119.07 0.77,-38.46 11.34,-76.68 30.51,-110.03 17.73,-31.01 42.71,-57.82 72.38,-77.7 27.16,-18.27 58.25,-30.67 90.54,-36.05 41.25,-6.94 84.39,-2.63 123.34,12.68 52.89,20.53 97.52,61.27 122.89,112.01 28.01,55.13 32.34,121.58 12.06,179.97 -4.51,13.26 -10.42,26 -17.13,38.28 17.63,-26.07 30.26,-55.53 36.72,-86.34 7.68,-36.33 6.99,-74.39 -2.04,-110.41 -13.28,-53.63 -45.61,-102.2 -89.72,-135.42 -23.07,-17.48 -49.27,-30.82 -76.99,-39.12 -39.77,-11.96 -82.58,-13.51 -123.12,-4.6 -33.57,7.35 -65.5,21.96 -93.05,42.49 -27.87,20.7 -51.27,47.4 -68.12,77.76 -18.43,33.11 -28.93,70.59 -30.38,108.46 m -41.99,-45.97 c -2.84,60.65 14.46,122 48.61,172.22 -18.01,-34.99 -28.33,-73.94 -29.53,-113.29 -1.6,-44.29 8.06,-88.95 28.02,-128.54 27.75,-55.55 75.56,-100.73 132.63,-125.21 63.93,-27.84 138.87,-28.92 203.61,-3.05 60.01,23.61 110.63,69.93 139.59,127.53 27,52.99 35.13,115.15 23.23,173.38 -4.85,24.08 -13.22,47.4 -24.41,69.25 34.96,-51.35 52.21,-114.37 48.44,-176.36 C 952.86,502.71 936.97,454.26 910,412.94 887.49,378.29 857.37,348.63 822.39,326.65 768.67,292.61 703.33,277.71 640.15,284.59 c -61.53,6.32 -120.56,33.63 -165.43,76.17 -24.96,23.52 -45.66,51.56 -60.72,82.38 -17.23,35.11 -27.03,73.83 -28.64,112.91 m 577.5,142.01 c 27.8,-50.18 42.13,-107.69 41.21,-165.06 -0.65,-70.94 -25.03,-141.37 -68.32,-197.57 -38.79,-50.8 -92.49,-90.08 -152.76,-111.39 -52.96,-18.87 -110.74,-23.82 -166.18,-14.61 -61.13,10.01 -119.14,37.79 -165.45,78.89 -49.1,43.3 -85.03,101.36 -101.48,164.74 -21.49,81.36 -10.73,170.81 30.18,244.43 -16.88,-38.56 -26.33,-80.4 -27.02,-122.51 -0.94,-42.49 6.72,-85.15 22.51,-124.61 22.83,-57.45 62.91,-107.83 113.6,-143.19 49.56,-34.82 109.29,-54.95 169.83,-57.11 56.06,-2.33 112.68,10.47 162.18,36.93 53.36,28.31 98.3,72.16 127.98,124.77 20.49,36.17 33.73,76.4 38.73,117.66 7.08,57.11 -1.64,116.04 -25.01,168.63 M 656.1,694.29 c 36.37,4.39 74.28,-8.08 100.89,-33.26 26.04,-24.08 41.11,-59.5 40.16,-94.98 -0.39,-35.56 -16.89,-70.44 -43.9,-93.51 12.74,13.37 22.54,29.62 27.69,47.41 10.29,34.24 3.21,73.13 -18.72,101.4 -22.39,29.78 -60.07,47.18 -97.27,44.64 -35.49,-1.73 -69.37,-21.5 -88.68,-51.28 -19.19,-28.8 -23.9,-66.53 -12.61,-99.22 6.96,-20.66 20.13,-39.05 37.11,-52.67 -28.33,18.48 -48.56,48.87 -54.67,82.14 -6.53,33.86 1.58,70.24 22.05,98.02 20.48,28.35 53.15,47.55 87.95,51.31 m -2.23,-62.61 c 17.54,3.11 35.96,1.23 52.48,-5.47 18.26,-7.34 34.1,-20.5 44.72,-37.07 10.88,-16.82 16.18,-37.14 14.97,-57.14 -1.33,-27.32 -15.3,-53.57 -36.96,-70.21 10.74,10.55 18.83,23.86 22.74,38.43 4.8,17.51 3.77,36.57 -2.99,53.43 -6.76,17.06 -19.29,31.74 -35.05,41.14 -15.14,9.13 -33.24,13.23 -50.84,11.58 -16.15,-1.4 -31.82,-7.66 -44.51,-17.73 -13.46,-10.58 -23.59,-25.35 -28.51,-41.75 -6.24,-20.49 -4.31,-43.36 5.45,-62.44 4.22,-8.45 10.01,-16.03 16.69,-22.68 -12.81,9.95 -23.1,23.14 -29.46,38.07 -7.86,18.22 -9.73,38.91 -5.46,58.27 3.96,18.18 13.45,35.09 26.82,48.02 13.59,13.24 31.21,22.3 49.91,25.55 m -1.99,-55.28 c 15.02,4.66 31.75,3.45 45.94,-3.34 14.5,-6.84 26.21,-19.38 32,-34.34 6.11,-15.47 5.76,-33.35 -0.94,-48.58 -3.4,-7.9 -8.55,-14.97 -14.7,-20.96 7.98,11.09 11.78,25.18 9.95,38.76 -1.74,14.49 -9.74,28.04 -21.5,36.66 -10.7,7.98 -24.43,11.7 -37.7,10.25 -14.78,-1.43 -28.73,-9.4 -37.58,-21.31 -8.46,-11.15 -12.24,-25.69 -10.32,-39.56 1.1,-8.93 4.72,-17.4 9.84,-24.76 -9.91,9.55 -16.88,22.2 -19.06,35.83 -2.61,15.2 0.6,31.31 8.86,44.33 8.01,12.83 20.74,22.62 35.21,27.02 m -11.16,-64.12 c 7.44,9.88 20,15.61 32.35,14.68 15.43,-0.82 29.52,-12.23 33.58,-27.14 4.12,-13.72 -0.66,-29.3 -11.38,-38.7 4.45,7.76 5.26,17.54 1.71,25.8 -4.81,11.94 -18.34,19.49 -31.03,17.17 -12.37,-1.8 -22.68,-12.6 -23.87,-25.05 -0.76,-6.18 0.73,-12.46 3.74,-17.88 -5.4,4.95 -9.59,11.28 -11.47,18.39 -3.1,11.12 -0.71,23.61 6.37,32.73 m 26.7,-28.83 c 9.34,2.85 19.87,-4.69 20.15,-14.45 0.84,-8.77 -6.8,-17.05 -15.58,-17.06 -8.36,-0.38 -16.11,6.74 -16.39,15.1 -0.58,7.38 4.67,14.59 11.82,16.41 z"
       style="fill:#ffffff;fill-opacity:1;fill-rule:nonzero;stroke:#ffffff;stroke-width:0.09375;stroke-linecap:butt;stroke-linejoin:miter;stroke-miterlimit:10;stroke-dasharray:none;stroke-opacity:1"
       id="path3790"
       inkscape:connector-curvature="0" /><path
       d="m 407.62,997.28 c 72.31,45.78 156.77,72.05 242.29,75.41 76.79,3.27 154.33,-11.54 224.32,-43.36 44.75,-20.28 86.44,-47.31 123.24,-79.87 2.66,-2.02 4.89,-4.59 7.77,-6.33 0.53,-0.8 1.13,-1.56 1.79,-2.28 63.19,-58.81 110.74,-134.33 135.87,-216.95 25.09,-81.91 28.24,-170.36 9.35,-253.9 -15.39,-68.4 -45.75,-133.35 -88.2,-189.13 C 1024.38,228.62 974.24,184.36 917.43,151.56 855.38,115.61 785.36,93.57 713.91,87.45 c -86.98,-7.67 -175.97,8 -254.82,45.61 -54.25,25.74 -103.7,61.5 -145.2,104.9 -48.35,50.43 -85.86,111.21 -109.05,177.12 -27.96,79.04 -35.04,165.23 -20.94,247.83 11.32,66.67 36.69,130.89 73.88,187.35 19.55,29.73 42.33,57.34 67.77,82.22 3.57,3.57 7.36,6.92 10.88,10.54 22.23,19.95 45.86,38.4 71.19,54.26 m 128.59,32.52 C 492.63,1016.38 451.1,996.34 413.43,970.66 359.83,934.17 314.08,886.23 280.16,830.96 246.4,776.13 224.44,714.09 216.28,650.22 c -6.57,-50.95 -4.62,-102.99 5.85,-153.28 13.96,-67.46 43.57,-131.58 85.67,-186.09 37.55,-48.65 84.83,-89.91 138.51,-119.91 -42.7,28.91 -79.79,66.06 -108.53,108.87 -40.22,59.61 -63.8,130.29 -67.35,202.11 -4.14,75.48 13.64,152.03 50.94,217.81 40.91,72.75 105.11,132.12 180.91,167.1 72.99,34.04 156.39,44.83 235.74,31.31 67.09,-11.27 131.05,-40.23 183.93,-83 47.6,-38.35 86.3,-87.7 112.06,-143.14 38.16,-81.43 47.24,-175.86 26.09,-263.2 -8.64,-35.88 -22.32,-70.54 -40.48,-102.66 -32.55,-57.69 -79.64,-107.07 -135.72,-142.33 41.52,21.52 79.56,49.67 112.61,82.73 49.92,49.92 88.16,111.49 110.52,178.47 28.13,83.75 31.22,175.65 9.1,261.17 -22.85,89.11 -73.56,170.69 -142.98,231 -50.77,44.35 -111.43,77.33 -176.33,95.64 -84.75,24.02 -176.44,23 -260.61,-3.02 M 644.53,902.19 C 590.53,898.47 537.39,882.95 489.87,857.03 432.25,825.72 383,779.24 348.35,723.57 310.77,663.55 290.68,592.82 290.94,522.03 c -0.12,-73.89 21.98,-147.62 62.86,-209.18 34.92,-52.93 83.26,-96.94 139.28,-126.67 52.44,-27.98 111.56,-43.25 170.98,-44.29 73.9,-1.66 148.13,18.87 210.55,58.49 57.15,36.01 104.43,87.49 135.37,147.54 35.71,68.69 49.23,148.47 38.93,225.15 -7.06,53.57 -25.82,105.54 -54.55,151.3 -32.97,52.7 -79.03,97.12 -132.91,128.13 -65.18,37.78 -141.81,55.17 -216.92,49.69 m -57.66,111.41 c 84.18,16.21 173.08,7.5 252.29,-25.42 59.13,-24.42 112.76,-61.97 156.06,-109.04 36.92,-40.04 66.37,-86.96 86.27,-137.66 33.24,-84.23 39.32,-178.77 17.76,-266.68 -6.55,-26.34 -15.19,-52.26 -26.75,-76.84 32.21,78.8 40,167.22 22.81,250.55 -9.38,45.69 -26.3,89.81 -49.83,130.08 -28.46,48.83 -66.61,91.97 -111.53,126.27 -54.28,41.55 -118.57,69.95 -185.89,81.86 C 668.71,1000.91 585.4,992.65 510.6,962.49 462.76,943.31 418.44,915.43 380.36,880.7 337.37,841.58 302.34,793.74 278.14,740.89 239,656.05 228.93,558.37 249.15,467.21 c 8.44,-38.64 22.5,-75.96 41.01,-110.88 -39.61,66.68 -60.72,144.12 -60.92,221.66 -0.32,52.09 8.65,104.24 26.5,153.19 22.59,62.18 59.52,119.04 106.93,165.17 61.2,59.8 140.11,101.27 224.2,117.25 m 22.22,-50.03 c 78.37,11.59 160.1,-0.02 231.84,-33.74 55.96,-26.11 105.78,-65.2 144.56,-113.25 35.8,-44.22 62.2,-96.04 76.75,-151.05 1.35,-5.35 2.9,-10.67 3.71,-16.14 -15.28,54.73 -42.52,106.01 -78.79,149.72 C 947.2,847.34 896.07,886.27 838.87,911.83 763.9,945.56 678.66,955.54 597.84,940.77 526.92,928 459.69,895.82 405.05,848.86 362.32,812.28 327.18,766.85 302.64,716.23 278.6,666.8 264.75,612.46 262.2,557.56 c -0.12,-2.17 -0.43,-4.33 -0.76,-6.49 0.56,7.3 0.11,14.63 0.43,21.94 1.42,49.13 11.79,98.01 30.64,143.42 23.66,57.27 60.7,108.91 107.19,149.85 58.46,51.73 132.11,86.1 209.39,97.29 m 37.51,-77.4 c 43.84,3.4 88.4,-2.19 129.93,-16.72 43.58,-15.12 83.62,-40.05 116.8,-72.05 49.11,-39.89 87.43,-93.01 109.24,-152.44 30.53,-82.22 28.89,-175.84 -4.63,-256.9 C 972.7,326.39 929.53,272.28 875.17,233.78 816.86,192.16 745.61,169.14 673.98,168.69 c -62.55,-0.73 -125.21,15.52 -179.4,46.78 -58.06,33.26 -106.32,83.34 -137.38,142.6 -36.18,68.34 -48.53,148.75 -35.28,224.87 10.93,64.15 40.26,124.97 83.42,173.66 16.56,18.8 35.19,35.75 55.28,50.72 22.36,19.62 47.33,36.28 74.22,49.04 35,16.69 73.1,26.82 111.76,29.81 m -94.45,-56.33 c -31.76,-22.06 -57.16,-53.14 -72.36,-88.7 -16.41,-37.82 -20.55,-80.49 -13.17,-120.96 0.01,2.48 -0.09,4.95 -0.19,7.42 -1.49,37.91 7.85,76.19 26.79,109.07 18.39,32.16 45.7,59.16 78.09,77.15 33.2,18.59 71.71,27.46 109.7,25.43 36.37,-1.73 72.17,-13.55 102.46,-33.75 32.83,-21.75 59.15,-53.18 74.71,-89.36 13.13,-30.17 18.42,-63.52 16.16,-96.3 8.98,46.96 1.55,96.97 -21.56,138.9 -19.1,35.09 -48.57,64.44 -83.74,83.38 -31.13,16.88 -66.67,25.48 -102.06,24.76 -40.84,-0.52 -81.37,-13.64 -114.83,-37.04 m 62.82,-22.95 c -31.65,-10.39 -60.23,-29.82 -81.65,-55.33 -23.13,-27.35 -37.82,-61.74 -41.44,-97.4 -2.26,-20.49 -0.51,-41.22 3.78,-61.33 -0.65,17.1 0.08,34.35 3.93,51.08 7.25,33.17 24.47,64.05 48.77,87.75 24.65,24.25 56.6,40.99 90.62,47.3 36.12,6.8 74.35,2.06 107.59,-13.69 31.8,-14.92 58.88,-39.62 76.73,-69.87 18.36,-30.7 26.45,-67.05 24.13,-102.66 4.37,19.76 6.08,40.19 3.99,60.36 -3.35,34.95 -17.29,68.75 -39.47,95.96 -21.5,26.57 -50.68,46.87 -83.14,57.64 -36.62,12.27 -77.18,12.34 -113.84,0.19 m -3.3,-63.67 c -31.78,-13.8 -58.39,-39.01 -73.94,-69.96 -17.08,-33.53 -20.56,-73.52 -10.03,-109.6 -2.71,25.2 0.94,51.14 11.26,74.35 13.41,30.65 37.91,56.26 67.93,71.03 33.21,16.59 72.93,19.39 108.19,7.82 31.34,-10.12 58.85,-31.48 76.55,-59.24 20.01,-30.88 27.1,-69.58 19.91,-105.62 4.37,11.59 7.42,23.68 8.86,35.98 4.26,34.95 -4.25,71.3 -23.84,100.59 -18.29,27.7 -46.03,49.04 -77.56,59.47 -34.75,11.65 -73.78,9.95 -107.33,-4.82 M 427.35,602.02 c 1.45,-37.87 11.95,-75.35 30.38,-108.46 16.85,-30.36 40.25,-57.06 68.12,-77.76 27.55,-20.53 59.48,-35.14 93.05,-42.49 40.54,-8.91 83.35,-7.36 123.12,4.6 27.72,8.3 53.92,21.64 76.99,39.12 44.11,33.22 76.44,81.79 89.72,135.42 9.03,36.02 9.72,74.08 2.04,110.41 -6.46,30.81 -19.09,60.27 -36.72,86.34 6.71,-12.28 12.62,-25.02 17.13,-38.28 20.28,-58.39 15.95,-124.84 -12.06,-179.97 -25.37,-50.74 -70,-91.48 -122.89,-112.01 -38.95,-15.31 -82.09,-19.62 -123.34,-12.68 -32.29,5.38 -63.38,17.78 -90.54,36.05 -29.67,19.88 -54.65,46.69 -72.38,77.7 -19.17,33.35 -29.74,71.57 -30.51,110.03 -1.07,41.42 9.42,82.94 29.64,119.07 -29.19,-42.89 -44.07,-95.26 -41.75,-147.09 m -41.99,-45.97 c 1.61,-39.08 11.41,-77.8 28.64,-112.91 15.06,-30.82 35.76,-58.86 60.72,-82.38 44.87,-42.54 103.9,-69.85 165.43,-76.17 63.18,-6.88 128.52,8.02 182.24,42.06 34.98,21.98 65.1,51.64 87.61,86.29 26.97,41.32 42.86,89.77 45.55,139.04 3.77,61.99 -13.48,125.01 -48.44,176.36 11.19,-21.85 19.56,-45.17 24.41,-69.25 11.9,-58.23 3.77,-120.39 -23.23,-173.38 -28.96,-57.6 -79.58,-103.92 -139.59,-127.53 -64.74,-25.87 -139.68,-24.79 -203.61,3.05 -57.07,24.48 -104.88,69.66 -132.63,125.21 -19.96,39.59 -29.62,84.25 -28.02,128.54 1.2,39.35 11.52,78.3 29.53,113.29 C 399.82,678.05 382.52,616.7 385.36,556.05 m 577.5,142.01 c 23.37,-52.59 32.09,-111.52 25.01,-168.63 -5,-41.26 -18.24,-81.49 -38.73,-117.66 C 919.46,359.16 874.52,315.31 821.16,287 771.66,260.54 715.04,247.74 658.98,250.07 c -60.54,2.16 -120.27,22.29 -169.83,57.11 -50.69,35.36 -90.77,85.74 -113.6,143.19 -15.79,39.46 -23.45,82.12 -22.51,124.61 0.69,42.11 10.14,83.95 27.02,122.51 -40.91,-73.62 -51.67,-163.07 -30.18,-244.43 16.45,-63.38 52.38,-121.44 101.48,-164.74 46.31,-41.1 104.32,-68.88 165.45,-78.89 55.44,-9.21 113.22,-4.26 166.18,14.61 60.27,21.31 113.97,60.59 152.76,111.39 43.29,56.2 67.67,126.63 68.32,197.57 0.92,57.37 -13.41,114.88 -41.21,165.06 M 656.1,694.29 c -34.8,-3.76 -67.47,-22.96 -87.95,-51.31 -20.47,-27.78 -28.58,-64.16 -22.05,-98.02 6.11,-33.27 26.34,-63.66 54.67,-82.14 -16.98,13.62 -30.15,32.01 -37.11,52.67 -11.29,32.69 -6.58,70.42 12.61,99.22 19.31,29.78 53.19,49.55 88.68,51.28 37.2,2.54 74.88,-14.86 97.27,-44.64 21.93,-28.27 29.01,-67.16 18.72,-101.4 -5.15,-17.79 -14.95,-34.04 -27.69,-47.41 27.01,23.07 43.51,57.95 43.9,93.51 0.95,35.48 -14.12,70.9 -40.16,94.98 -26.61,25.18 -64.52,37.65 -100.89,33.26 m -2.23,-62.61 c -18.7,-3.25 -36.32,-12.31 -49.91,-25.55 -13.37,-12.93 -22.86,-29.84 -26.82,-48.02 -4.27,-19.36 -2.4,-40.05 5.46,-58.27 6.36,-14.93 16.65,-28.12 29.46,-38.07 -6.68,6.65 -12.47,14.23 -16.69,22.68 -9.76,19.08 -11.69,41.95 -5.45,62.44 4.92,16.4 15.05,31.17 28.51,41.75 12.69,10.07 28.36,16.33 44.51,17.73 17.6,1.65 35.7,-2.45 50.84,-11.58 15.76,-9.4 28.29,-24.08 35.05,-41.14 6.76,-16.86 7.79,-35.92 2.99,-53.43 -3.91,-14.57 -12,-27.88 -22.74,-38.43 21.66,16.64 35.63,42.89 36.96,70.21 1.21,20 -4.09,40.32 -14.97,57.14 -10.62,16.57 -26.46,29.73 -44.72,37.07 -16.52,6.7 -34.94,8.58 -52.48,5.47 m -1.99,-55.28 c -14.47,-4.4 -27.2,-14.19 -35.21,-27.02 -8.26,-13.02 -11.47,-29.13 -8.86,-44.33 2.18,-13.63 9.15,-26.28 19.06,-35.83 -5.12,7.36 -8.74,15.83 -9.84,24.76 -1.92,13.87 1.86,28.41 10.32,39.56 8.85,11.91 22.8,19.88 37.58,21.31 13.27,1.45 27,-2.27 37.7,-10.25 11.76,-8.62 19.76,-22.17 21.5,-36.66 1.83,-13.58 -1.97,-27.67 -9.95,-38.76 6.15,5.99 11.3,13.06 14.7,20.96 6.7,15.23 7.05,33.11 0.94,48.58 -5.79,14.96 -17.5,27.5 -32,34.34 -14.19,6.79 -30.92,8 -45.94,3.34 m -11.16,-64.12 c -7.08,-9.12 -9.47,-21.61 -6.37,-32.73 1.88,-7.11 6.07,-13.44 11.47,-18.39 -3.01,5.42 -4.5,11.7 -3.74,17.88 1.19,12.45 11.5,23.25 23.87,25.05 12.69,2.32 26.22,-5.23 31.03,-17.17 3.55,-8.26 2.74,-18.04 -1.71,-25.8 10.72,9.4 15.5,24.98 11.38,38.7 -4.06,14.91 -18.15,26.32 -33.58,27.14 -12.35,0.93 -24.91,-4.8 -32.35,-14.68 m 26.7,-28.83 c -7.15,-1.82 -12.4,-9.03 -11.82,-16.41 0.28,-8.36 8.03,-15.48 16.39,-15.1 8.78,0.01 16.42,8.29 15.58,17.06 -0.28,9.76 -10.81,17.3 -20.15,14.45 z"
       style="fill:#000000;fill-opacity:1;fill-rule:nonzero;stroke:#000000;stroke-width:0.09375;stroke-linecap:butt;stroke-linejoin:miter;stroke-miterlimit:10;stroke-dasharray:none;stroke-opacity:1"
       id="path3792"
       inkscape:connector-curvature="0" /><path
       d="m 294.59,903.54 c 13.24,13.86 26.9,27.44 41.84,39.48 -3.52,-3.62 -7.31,-6.97 -10.88,-10.54 C 300.11,907.6 277.33,879.99 257.78,850.26 220.59,793.8 195.22,729.58 183.9,662.91 c -14.1,-82.6 -7.02,-168.79 20.94,-247.83 23.19,-65.91 60.7,-126.69 109.05,-177.12 41.5,-43.4 90.95,-79.16 145.2,-104.9 78.85,-37.61 167.84,-53.28 254.82,-45.61 71.45,6.12 141.47,28.16 203.52,64.11 56.81,32.8 106.95,77.06 146.62,129.31 42.45,55.78 72.81,120.73 88.2,189.13 18.89,83.54 15.74,171.99 -9.35,253.9 -25.13,82.62 -72.68,158.14 -135.87,216.95 l 0.39,0.04 c 18.6,-15.46 35.6,-32.82 51.62,-50.92 53.48,-60.86 92.36,-134.48 112.18,-213.06 21.38,-84.28 21.06,-173.96 -0.91,-258.09 -17.37,-66.75 -48.45,-129.86 -90.62,-184.43 C 1035.91,177.6 980.21,130.04 917.21,95.8 846.76,57.34 767.18,35.9 686.97,33.53 607.51,30.95 527.47,46.89 455.25,80.19 406.54,102.56 361.38,132.6 321.87,168.83 270.24,216.07 228.32,273.88 199.59,337.7 168.72,406 153.27,481.13 154.27,556.05 c 0.65,56.8 10.7,113.5 29.81,167.01 23.82,66.94 61.78,128.77 110.51,180.48 z"
       style="fill:#0052ff;fill-opacity:1;fill-rule:nonzero;stroke:#0052ff;stroke-width:0.09375;stroke-linecap:butt;stroke-linejoin:miter;stroke-miterlimit:10;stroke-dasharray:none;stroke-opacity:1"
       id="path3794"
       inkscape:connector-curvature="0" /></g></svg>