<?xml version="1.0" encoding="UTF-8" standalone="no"?>
<!-- Created with Inkscape (http://www.inkscape.org/) -->

<svg
   xmlns:dc="http://purl.org/dc/elements/1.1/"
   xmlns:cc="http://creativecommons.org/ns#"
   xmlns:rdf="http://www.w3.org/1999/02/22-rdf-syntax-ns#"
   xmlns:svg="http://www.w3.org/2000/svg"
   xmlns="http://www.w3.org/2000/svg"
   xmlns:sodipodi="http://sodipodi.sourceforge.net/DTD/sodipodi-0.dtd"
   xmlns:inkscape="http://www.inkscape.org/namespaces/inkscape"
   id="svg3750"
   version="1.1"
   inkscape:version="0.91 r13725"
   xml:space="preserve"
   width="1612.6771"
   height="542.69897"
   viewBox="0 0 1612.6771 542.69897"
   sodipodi:docname="vertigo-text.svg"><metadata
     id="metadata3756"><rdf:RDF><cc:Work
         rdf:about=""><dc:format>image/svg+xml</dc:format><dc:type
           rdf:resource="http://purl.org/dc/dcmitype/StillImage" /><dc:title></dc:title></cc:Work></rdf:RDF></metadata><defs
     id="defs3754" /><sodipodi:namedview
     pagecolor="#ffffff"
     bordercolor="#666666"
     borderopacity="1"
     objecttolerance="10"
     gridtolerance="10"
     guidetolerance="10"
     inkscape:pageopacity="0"
     inkscape:pageshadow="2"
     inkscape:window-width="640"
     inkscape:window-height="480"
     id="namedview3752"
     showgrid="false"
     inkscape:zoom="0.29925484"
     inkscape:cx="732.64931"
     inkscape:cy="306.72609"
     inkscape:window-x="174"
     inkscape:window-y="81"
     inkscape:window-maximized="0"
     inkscape:current-layer="g3758"
     fit-margin-top="0"
     fit-margin-left="0"
     fit-margin-right="0"
     fit-margin-bottom="0" /><g
     id="g3758"
     inkscape:groupmode="layer"
     inkscape:label="Vertigo-text"
     transform="matrix(1.25,0,0,-1.25,-38.567511,982.01219)"><path
       d="m 620.03,781.46 c 26.68,0.28 53.36,0.16 80.04,0.32 1.83,0.09 3.7,-0.27 5.22,-1.37 12.31,-7.88 24.68,-15.66 36.94,-23.61 -40.06,-0.19 -80.13,-0.22 -120.19,-0.36 -32.58,-0.7 -65.19,-0.44 -97.78,-0.56 13.2,8.56 26.64,16.77 39.89,25.22 18.61,0.49 37.25,0.07 55.88,0.36 m -13.87,-5.35 c -0.05,-3.74 -0.11,-7.48 0.04,-11.22 -0.28,-1.76 2.19,-2.45 3.04,-0.94 0.21,2 0.14,4.02 0.16,6.03 2.3,0 4.6,0 6.91,0 0.02,-1.9 -0.09,-3.8 0.15,-5.7 0.32,-1.98 3.51,-1.2 3.06,0.75 -0.19,4.38 0.71,9.07 -0.51,13.27 -3.75,1.3 -2.47,-3.81 -2.73,-5.86 -2.29,0 -4.57,0 -6.85,-0.01 -0.05,1.93 -0.03,3.88 -0.3,5.79 -1.73,0.93 -3.38,-0.15 -2.97,-2.11 m 17.13,1.62 c -0.29,-4.69 -0.65,-9.58 0.18,-14.2 3.58,-1.76 2.81,3.48 2.86,5.6 2.45,0.18 5.21,-0.3 7.35,1.2 2.65,2 1.78,7.03 -1.62,7.66 -2.88,0.3 -6.02,0.77 -8.77,-0.26 m 14.79,0.76 c -0.43,-4.98 -0.18,-9.99 -0.21,-14.98 1.04,-0.09 2.25,-0.62 3.06,0.37 0.23,2.03 0.15,4.07 0.18,6.11 2.3,-0.01 4.6,-0.01 6.91,-0.01 0.29,-2.2 -1.24,-7.9 2.69,-6.58 1.25,4.78 0.31,10.06 0.44,15.02 -4.06,1.02 -3.02,-3.47 -3.16,-5.98 -2.29,0 -4.58,0 -6.85,-0.01 -0.04,1.87 -0.03,3.76 -0.29,5.61 -0.69,0.11 -2.08,0.34 -2.77,0.45 m 18.31,-0.92 c -2.98,-1.5 -2.19,-6.22 1.03,-6.85 2.16,-1.18 6.34,-0.47 6.35,-3.8 -1.51,-2.07 -5.15,-2.22 -6.34,0.25 -0.58,1.28 -2.7,2.74 -3.23,0.62 0.43,-6.78 13.75,-6.1 12.59,1.03 -1.04,4.61 -7.99,2.29 -9.43,6.17 0.39,0.31 1.18,0.92 1.58,1.22 3.36,1.85 4.16,-3.74 7.17,-2.4 0.57,5.02 -6.48,5.68 -9.72,3.76 m -30.1,-1.47 c 2.11,-0.19 6.22,0.39 5.63,-2.98 -0.88,-2.22 -3.76,-1.42 -5.6,-1.78 -0.02,1.59 -0.04,3.18 -0.03,4.76 M 521.34,751.4 c 74.85,0.43 149.71,0.42 224.57,0.77 -0.79,-1.1 -1.56,-2.21 -2.33,-3.32 -72.55,-0.16 -145.09,-0.53 -217.64,-0.68 -2.33,-0.58 -3.38,1.78 -4.6,3.23 m 81.84,-15.31 c 20.56,1.66 41.05,4.1 61.61,5.74 -2.44,-4.13 -4.89,-8.26 -7.34,-12.38 -2.03,0.2 -4.04,0.42 -6.04,0.62 0.19,-2.43 0.3,-4.87 0.44,-7.31 1.68,0.86 3.15,2.46 5.11,2.59 2.85,-0.42 5.71,-0.91 8.59,-1.17 -3.53,-3.37 -6.36,-7.52 -10.51,-10.19 -14.07,-9.48 -27.7,-19.58 -41.62,-29.26 -1.75,-1.14 -3.95,-0.6 -5.9,-0.81 6.76,5.22 13.75,10.12 20.47,15.4 1.74,0.84 0.67,4.75 -1.27,3.34 -8.54,-6 -16.74,-12.5 -25.2,-18.63 3.83,3.64 7.32,7.69 11.55,10.9 8.39,6.01 16.88,11.89 25.17,18.03 -0.1,0.61 -0.3,1.83 -0.39,2.44 -4.43,-0.78 -7.9,-4.27 -11.79,-6.4 -0.12,2.66 -0.25,5.3 -0.56,7.93 -4.14,-2.32 -8.2,-4.78 -12.45,-6.88 -0.92,-3.86 1.13,-8.54 -1.56,-11.81 -0.69,8.66 0.1,17.37 -0.5,26.03 -2.08,4.25 -5.27,7.84 -7.81,11.82 m 22.66,-54.24 c 9.69,6.82 19.24,13.87 29.17,20.34 0.03,-4.73 0,-9.47 0.09,-14.2 -0.96,-0.01 -2.87,-0.03 -3.82,-0.04 0.19,-1.06 0.39,-2.14 0.6,-3.21 -2.1,-1.43 -4.37,-2.94 -3.26,-5.9 2.73,0.71 4.72,2.84 7.25,3.94 3.2,0.03 6.39,-0.45 9.59,-0.68 -3.46,-3.4 -6.36,-7.44 -10.47,-10.12 -13.89,-9.35 -27.32,-19.35 -41.06,-28.91 -1.95,-1.48 -4.52,-0.68 -6.76,-0.79 6.43,4.39 12.61,9.14 18.89,13.74 1.68,0.96 1.84,3.14 -0.02,4.08 -8.27,-5.41 -16.2,-11.42 -23.92,-17.6 3.83,3.58 7.14,7.78 11.5,10.76 7.86,5.51 15.59,11.22 23.45,16.74 1.99,0.74 0.94,2.76 0.15,4.02 -3.55,-2.36 -7.39,-4.27 -10.79,-6.85 -0.32,4.89 -0.49,9.79 -0.59,14.68 m -14.52,-8 c 0.4,0 1.2,0 1.6,0 -0.39,-6.1 1.09,-12.54 -1.2,-18.37 -0.57,6.11 -0.4,12.24 -0.4,18.37 M 626,640.1 c 9.7,6.88 19.51,13.63 29.16,20.58 -0.03,-4.93 -0.02,-9.86 0.02,-14.79 -0.84,0.05 -2.53,0.16 -3.37,0.22 0.02,-1.16 0.04,-2.32 0.08,-3.48 -2.14,-1.34 -4.23,-2.91 -3.19,-5.8 2.46,0.8 4.51,2.41 6.73,3.69 3.34,0.52 6.77,-0.21 10.14,-0.42 -3.11,-3.08 -5.76,-6.67 -9.31,-9.28 C 642,621.09 628.04,610.94 613.92,601 c -1.73,-1.3 -4.04,-0.71 -6.03,-0.95 6.43,5.13 13.36,9.61 19.75,14.78 -0.24,0.78 -0.73,2.35 -0.97,3.13 -8.55,-5.17 -16.22,-11.68 -24.39,-17.44 3.98,4.08 7.76,8.46 12.56,11.61 7.98,5.5 15.61,11.49 23.74,16.77 -0.27,0.78 -0.82,2.33 -1.09,3.11 -3.65,-2.27 -7.46,-4.3 -10.93,-6.84 -0.33,4.97 -0.53,9.95 -0.56,14.93 m -14.49,-8.12 c 0.39,0.05 1.17,0.13 1.57,0.18 -0.1,-5.39 0.18,-10.79 -0.24,-16.17 -0.27,-0.37 -0.82,-1.12 -1.09,-1.49 -0.35,5.82 -0.1,11.66 -0.24,17.48 m 14.57,-34.02 c 9.68,6.84 19.22,13.88 29.16,20.33 0,-4.81 0.08,-9.63 -0.03,-14.44 -0.82,0.03 -2.46,0.1 -3.28,0.13 0.01,-1.14 0.03,-2.29 0.06,-3.45 -2.03,-1.2 -4.03,-2.71 -3.39,-5.42 2.91,0.24 4.93,2.47 7.46,3.6 3.24,0.09 6.46,-0.36 9.68,-0.7 -3.23,-3 -5.86,-6.65 -9.43,-9.27 -14.25,-9.73 -28.28,-19.78 -42.37,-29.72 -1.82,-1.4 -4.23,-0.76 -6.33,-0.89 6.59,4.96 13.59,9.39 20.01,14.57 -0.08,0.8 -0.25,2.4 -0.33,3.2 -1.47,-0.52 -2.87,-1.18 -4.1,-2.11 -6.79,-4.95 -13.71,-9.71 -20.45,-14.73 3.46,3.25 6.53,6.95 10.34,9.81 8.25,5.79 16.33,11.83 24.67,17.49 2.01,0.66 0.19,4.68 -1.61,2.79 -3.21,-1.93 -6.45,-3.83 -9.49,-6.03 -0.1,4.96 -0.61,9.89 -0.57,14.84 m -14.44,-8.14 c 0.39,0.02 1.17,0.05 1.56,0.06 -0.04,-4.81 0.04,-9.63 -0.1,-14.45 0.06,-1.13 -0.61,-2.07 -1.22,-2.95 -0.4,5.77 -0.09,11.56 -0.24,17.34 m 14.64,-33.65 c 9.77,6.58 19.18,13.7 29.07,20.12 0.01,-4.83 0.09,-9.66 -0.03,-14.49 -0.83,0.05 -2.5,0.14 -3.33,0.18 0.03,-0.87 0.1,-2.61 0.13,-3.48 -1.66,-1.2 -4.14,-2.16 -3.34,-4.72 2.54,-1.8 4.92,2.15 7.31,3.04 3.27,-0.22 6.55,-0.44 9.82,-0.83 -3.45,-3.18 -6.24,-7.08 -10.15,-9.73 -13.87,-9.43 -27.42,-19.33 -41.15,-28.96 -1.97,-1.66 -4.67,-1.11 -7.02,-1.21 7.01,4.51 13.84,9.29 20.82,13.84 -0.06,1.09 -0.12,2.18 -0.18,3.26 -1.34,-0.37 -2.72,-0.67 -3.85,-1.51 -6.73,-4.52 -13.44,-9.06 -20.19,-13.55 2.51,2.7 5,5.44 7.88,7.75 8.81,6.43 17.81,12.62 26.59,19.08 -0.13,0.52 -0.39,1.57 -0.52,2.09 l -1.03,0.52 c -3.55,-1.98 -7.06,-4.06 -10.31,-6.51 -0.27,5.04 -0.65,10.07 -0.52,15.11 M 162,542.95 c -4.8,5.16 -8.42,11.27 -11.02,17.8 4.1,-3.75 9.77,-4.08 15.03,-3.82 -1.33,-4.66 -2.63,-9.33 -4.01,-13.98 m 449.95,4.68 c 0.29,0.27 0.87,0.81 1.16,1.08 0.3,-6.1 0.34,-12.24 -0.16,-18.33 -1.63,1.42 -1.03,3.69 -1.15,5.56 0.12,3.9 -0.3,7.83 0.15,11.69 m 14.47,-33.61 c 9.65,6.8 19.14,13.82 29.04,20.25 0.04,-4.57 0,-9.13 0.07,-13.7 -1.14,0.46 -2.27,0.92 -3.39,1.37 0.01,-1.95 0.03,-3.9 0.07,-5.86 -1.07,-0.83 -2.13,-1.66 -3.19,-2.49 -0.02,-0.79 -0.07,-2.36 -0.1,-3.15 2.66,0.4 4.62,2.28 6.93,3.47 2.33,-0.74 4.47,-1.99 6.66,-3.09 -2.09,-2.64 -4.07,-5.49 -6.95,-7.33 -13.73,-9.24 -26.98,-19.15 -40.57,-28.58 -1.29,-1.14 -3.06,-0.99 -4.63,-0.9 5.3,5.38 12.32,8.84 18.07,13.78 -0.01,0.83 -0.03,2.49 -0.03,3.32 -1.58,-0.5 -3.08,-1.17 -4.4,-2.17 -5.75,-4.14 -11.5,-8.29 -17.28,-12.38 2.1,2.71 3.91,5.77 6.79,7.76 8.56,6.07 17.1,12.15 25.59,18.31 -0.64,0.75 -0.5,2.73 -1.88,2.38 -3.59,-1.89 -7,-4.14 -10.32,-6.47 -0.29,5.16 -0.6,10.32 -0.48,15.48 m -14.6,-8.34 c 0.73,0.03 2.19,0.07 2.92,0.09 -0.12,-5.38 0.19,-10.78 -0.4,-16.15 -0.71,-0.39 -2.13,-1.18 -2.84,-1.57 -0.06,5.88 0.03,11.76 0.32,17.63 m 36.1,-19.17 c 2.65,1.74 5.27,3.54 7.78,5.48 0.11,-32.38 0.2,-64.76 0.27,-97.14 -1.39,-1.26 -2.87,-2.47 -4.65,-3.14 -1.46,2.18 -2.82,4.6 -2.65,7.32 -0.1,25.3 -0.13,50.6 -0.22,75.9 -0.02,3.87 0.28,7.77 -0.53,11.58 m -18.2,-12.79 c 3.45,2.44 6.81,5.02 10.45,7.18 0.91,-0.2 1.82,-0.47 2.72,-0.81 0.88,-12.68 0.27,-25.4 0.53,-38.1 0.06,-21.39 0.6,-43.61 -7.76,-63.74 -7.67,5.5 -15.76,10.49 -23.13,16.37 -0.51,22.81 -0.11,45.66 -0.42,68.48 1.58,0.31 3.15,0.75 4.67,1.33 1.06,-12.12 0.57,-24.3 0.69,-36.46 -0.1,-8.73 0.32,-17.47 -0.12,-26.2 1.26,16.27 1.4,32.63 3.85,48.79 2.98,1.99 6,3.93 9.05,5.83 -0.08,5.78 -0.59,11.55 -0.53,17.33 m 364.46,-56.19 c 0.78,-0.7 0.91,-1.57 0.4,-2.63 -2.36,-1.95 -3.16,2.83 -0.4,2.63 z"
       style="fill:#ffffff;fill-opacity:1;fill-rule:nonzero;stroke:#ffffff;stroke-width:0.09375;stroke-linecap:butt;stroke-linejoin:miter;stroke-miterlimit:10;stroke-dasharray:none;stroke-opacity:1"
       id="path3760"
       inkscape:connector-curvature="0" /><path
       d="m 565.95,785.2 c 45.37,0.17 90.74,0.35 136.11,0.34 2.29,0.23 4.13,-1.33 6,-2.39 13.43,-8.65 26.94,-17.19 40.42,-25.76 1.06,-0.94 2.89,-1.74 2.72,-3.45 -1.5,-3.27 -4.01,-5.94 -6.1,-8.84 -24.9,-0.48 -49.83,0.09 -74.71,-0.51 -3.37,-4.97 -6.27,-10.26 -9.28,-15.46 6.59,-0.73 13.19,-1.25 19.78,-1.9 -7.54,-7.76 -14.61,-16.16 -22.82,-23.15 -0.27,-5.49 0.02,-11 -0.05,-16.51 7.63,-0.9 15.31,-1.31 22.92,-2.38 -5.85,-6.18 -11.76,-12.3 -17.6,-18.49 -1.54,-1.66 -3.38,-2.98 -5.25,-4.23 -0.01,-5.58 0.04,-11.16 0.01,-16.75 7.66,-1.21 15.44,-1.43 23.12,-2.51 -7.85,-7.44 -14.42,-16.25 -23.02,-22.89 0,-5.63 0.01,-11.27 0.07,-16.9 7.66,-0.62 15.31,-1.3 22.94,-2.18 -5.68,-6.13 -11.57,-12.07 -17.26,-18.2 -1.65,-1.8 -3.6,-3.27 -5.63,-4.61 -0.02,-5.62 0.02,-11.25 0.06,-16.88 7.62,-0.91 15.29,-1.48 22.94,-2.2 -5.74,-6.17 -11.53,-12.28 -17.33,-18.39 -1.62,-1.76 -3.57,-3.16 -5.54,-4.5 -0.05,-5.91 0.03,-11.82 0.02,-17.74 5.09,-2.76 10.28,-5.35 15.23,-8.37 -5.15,-5.18 -8.56,-12.16 -14.78,-16.17 0.09,-33.83 0.2,-67.66 0.27,-101.49 -7.67,-6.55 -15.86,-12.45 -23.55,-18.97 -8.87,5.99 -17.55,12.25 -26.44,18.21 -0.04,24.3 -0.04,48.6 -0.24,72.9 -4.55,1.62 -9.09,3.27 -13.65,4.85 4.31,5.48 9.14,10.58 13.08,16.33 0.91,6.65 0.26,13.41 0.39,20.1 -7.33,0.19 -14.67,-0.19 -21.97,0.44 6.77,6.42 13.1,13.29 19.81,19.78 0.88,1.05 2.31,2 2.22,3.54 0.22,6.08 0.03,12.17 0,18.25 -7.38,0.1 -14.77,0.1 -22.15,0.29 6.83,6.81 13.55,13.73 20.39,20.53 0.71,0.86 1.86,1.68 1.69,2.95 0.13,6.08 -0.01,12.17 0.01,18.25 -7.5,-0.02 -15.01,0.33 -22.51,0.18 6.75,6.37 13.13,13.14 19.76,19.65 1.02,1.22 2.78,2.23 2.64,4.04 0.11,6.04 -0.03,12.08 0.02,18.11 -7.36,0.23 -14.72,0.07 -22.08,0.32 6.69,7.01 13.57,13.85 20.42,20.71 0.67,0.8 1.67,1.6 1.52,2.78 0.1,6.02 -0.02,12.06 -0.03,18.08 -7.33,0.01 -14.65,0.27 -21.98,0.37 7.2,7.51 14.58,14.82 21.95,22.16 -0.13,8.16 -0.29,16.31 -0.26,24.47 0.23,2.54 -1.58,4.48 -2.89,6.42 -3.84,5.22 -7.28,10.72 -11.16,15.9 -0.79,1.63 -2.74,1.17 -4.19,1.26 -20.98,-0.15 -41.96,-0.07 -62.95,-0.23 -1.5,0.03 -3.02,-0.06 -4.48,0.26 -2.34,2.48 -4.27,5.33 -6.08,8.2 -0.6,1.93 1.14,3.11 2.49,4.07 14.03,9.03 28.15,17.94 42.17,26.98 1.4,1.02 3.07,1.49 4.81,1.33 m 54.08,-3.74 c -18.63,-0.29 -37.27,0.13 -55.88,-0.36 -13.25,-8.45 -26.69,-16.66 -39.89,-25.22 32.59,0.12 65.2,-0.14 97.78,0.56 40.06,0.14 80.13,0.17 120.19,0.36 -12.26,7.95 -24.63,15.73 -36.94,23.61 -1.52,1.1 -3.39,1.46 -5.22,1.37 -26.68,-0.16 -53.36,-0.04 -80.04,-0.32 M 521.34,751.4 c 1.22,-1.45 2.27,-3.81 4.6,-3.23 72.55,0.15 145.09,0.52 217.64,0.68 0.77,1.11 1.54,2.22 2.33,3.32 -74.86,-0.35 -149.72,-0.34 -224.57,-0.77 m 81.84,-15.31 c 2.54,-3.98 5.73,-7.57 7.81,-11.82 0.6,-8.66 -0.19,-17.37 0.5,-26.03 2.69,3.27 0.64,7.95 1.56,11.81 4.25,2.1 8.31,4.56 12.45,6.88 0.31,-2.63 0.44,-5.27 0.56,-7.93 3.89,2.13 7.36,5.62 11.79,6.4 0.09,-0.61 0.29,-1.83 0.39,-2.44 -8.29,-6.14 -16.78,-12.02 -25.17,-18.03 -4.23,-3.21 -7.72,-7.26 -11.55,-10.9 8.46,6.13 16.66,12.63 25.2,18.63 1.94,1.41 3.01,-2.5 1.27,-3.34 -6.72,-5.28 -13.71,-10.18 -20.47,-15.4 1.95,0.21 4.15,-0.33 5.9,0.81 13.92,9.68 27.55,19.78 41.62,29.26 4.15,2.67 6.98,6.82 10.51,10.19 -2.88,0.26 -5.74,0.75 -8.59,1.17 -1.96,-0.13 -3.43,-1.73 -5.11,-2.59 -0.14,2.44 -0.25,4.88 -0.44,7.31 2,-0.2 4.01,-0.42 6.04,-0.62 2.45,4.12 4.9,8.25 7.34,12.38 -20.56,-1.64 -41.05,-4.08 -61.61,-5.74 m 22.66,-54.24 c 0.1,-4.89 0.27,-9.79 0.59,-14.68 3.4,2.58 7.24,4.49 10.79,6.85 0.79,-1.26 1.84,-3.28 -0.15,-4.02 -7.86,-5.52 -15.59,-11.23 -23.45,-16.74 -4.36,-2.98 -7.67,-7.18 -11.5,-10.76 7.72,6.18 15.65,12.19 23.92,17.6 1.86,-0.94 1.7,-3.12 0.02,-4.08 -6.28,-4.6 -12.46,-9.35 -18.89,-13.74 2.24,0.11 4.81,-0.69 6.76,0.79 13.74,9.56 27.17,19.56 41.06,28.91 4.11,2.68 7.01,6.72 10.47,10.12 -3.2,0.23 -6.39,0.71 -9.59,0.68 -2.53,-1.1 -4.52,-3.23 -7.25,-3.94 -1.11,2.96 1.16,4.47 3.26,5.9 -0.21,1.07 -0.41,2.15 -0.6,3.21 0.95,0.01 2.86,0.03 3.82,0.04 -0.09,4.73 -0.06,9.47 -0.09,14.2 -9.93,-6.47 -19.48,-13.52 -29.17,-20.34 m -14.52,-8 c 0,-6.13 -0.17,-12.26 0.4,-18.37 2.29,5.83 0.81,12.27 1.2,18.37 -0.4,0 -1.2,0 -1.6,0 M 626,640.1 c 0.03,-4.98 0.23,-9.96 0.56,-14.93 3.47,2.54 7.28,4.57 10.93,6.84 0.27,-0.78 0.82,-2.33 1.09,-3.11 -8.13,-5.28 -15.76,-11.27 -23.74,-16.77 -4.8,-3.15 -8.58,-7.53 -12.56,-11.61 8.17,5.76 15.84,12.27 24.39,17.44 0.24,-0.78 0.73,-2.35 0.97,-3.13 -6.39,-5.17 -13.32,-9.65 -19.75,-14.78 1.99,0.24 4.3,-0.35 6.03,0.95 14.12,9.94 28.08,20.09 42.34,29.82 3.55,2.61 6.2,6.2 9.31,9.28 -3.37,0.21 -6.8,0.94 -10.14,0.42 -2.22,-1.28 -4.27,-2.89 -6.73,-3.69 -1.04,2.89 1.05,4.46 3.19,5.8 -0.04,1.16 -0.06,2.32 -0.08,3.48 0.84,-0.06 2.53,-0.17 3.37,-0.22 -0.04,4.93 -0.05,9.86 -0.02,14.79 -9.65,-6.95 -19.46,-13.7 -29.16,-20.58 m -14.49,-8.12 c 0.14,-5.82 -0.11,-11.66 0.24,-17.48 0.27,0.37 0.82,1.12 1.09,1.49 0.42,5.38 0.14,10.78 0.24,16.17 -0.4,-0.05 -1.18,-0.13 -1.57,-0.18 m 14.57,-34.02 c -0.04,-4.95 0.47,-9.88 0.57,-14.84 3.04,2.2 6.28,4.1 9.49,6.03 1.8,1.89 3.62,-2.13 1.61,-2.79 -8.34,-5.66 -16.42,-11.7 -24.67,-17.49 -3.81,-2.86 -6.88,-6.56 -10.34,-9.81 6.74,5.02 13.66,9.78 20.45,14.73 1.23,0.93 2.63,1.59 4.1,2.11 0.08,-0.8 0.25,-2.4 0.33,-3.2 -6.42,-5.18 -13.42,-9.61 -20.01,-14.57 2.1,0.13 4.51,-0.51 6.33,0.89 14.09,9.94 28.12,19.99 42.37,29.72 3.57,2.62 6.2,6.27 9.43,9.27 -3.22,0.34 -6.44,0.79 -9.68,0.7 -2.53,-1.13 -4.55,-3.36 -7.46,-3.6 -0.64,2.71 1.36,4.22 3.39,5.42 -0.03,1.16 -0.05,2.31 -0.06,3.45 0.82,-0.03 2.46,-0.1 3.28,-0.13 0.11,4.81 0.03,9.63 0.03,14.44 -9.94,-6.45 -19.48,-13.49 -29.16,-20.33 m -14.44,-8.14 c 0.15,-5.78 -0.16,-11.57 0.24,-17.34 0.61,0.88 1.28,1.82 1.22,2.95 0.14,4.82 0.06,9.64 0.1,14.45 -0.39,-0.01 -1.17,-0.04 -1.56,-0.06 m 14.64,-33.65 c -0.13,-5.04 0.25,-10.07 0.52,-15.11 3.25,2.45 6.76,4.53 10.31,6.51 l 1.03,-0.52 c 0.13,-0.52 0.39,-1.57 0.52,-2.09 -8.78,-6.46 -17.78,-12.65 -26.59,-19.08 -2.88,-2.31 -5.37,-5.05 -7.88,-7.75 6.75,4.49 13.46,9.03 20.19,13.55 1.13,0.84 2.51,1.14 3.85,1.51 0.06,-1.08 0.12,-2.17 0.18,-3.26 -6.98,-4.55 -13.81,-9.33 -20.82,-13.84 2.35,0.1 5.05,-0.45 7.02,1.21 13.73,9.63 27.28,19.53 41.15,28.96 3.91,2.65 6.7,6.55 10.15,9.73 -3.27,0.39 -6.55,0.61 -9.82,0.83 -2.39,-0.89 -4.77,-4.84 -7.31,-3.04 -0.8,2.56 1.68,3.52 3.34,4.72 -0.03,0.87 -0.1,2.61 -0.13,3.48 0.83,-0.04 2.5,-0.13 3.33,-0.18 0.12,4.83 0.04,9.66 0.03,14.49 -9.89,-6.42 -19.3,-13.54 -29.07,-20.12 m -14.33,-8.54 c -0.45,-3.86 -0.03,-7.79 -0.15,-11.69 0.12,-1.87 -0.48,-4.14 1.15,-5.56 0.5,6.09 0.46,12.23 0.16,18.33 -0.29,-0.27 -0.87,-0.81 -1.16,-1.08 m 14.47,-33.61 c -0.12,-5.16 0.19,-10.32 0.48,-15.48 3.32,2.33 6.73,4.58 10.32,6.47 1.38,0.35 1.24,-1.63 1.88,-2.38 -8.49,-6.16 -17.03,-12.24 -25.59,-18.31 -2.88,-1.99 -4.69,-5.05 -6.79,-7.76 5.78,4.09 11.53,8.24 17.28,12.38 1.32,1 2.82,1.67 4.4,2.17 0,-0.83 0.02,-2.49 0.03,-3.32 -5.75,-4.94 -12.77,-8.4 -18.07,-13.78 1.57,-0.09 3.34,-0.24 4.63,0.9 13.59,9.43 26.84,19.34 40.57,28.58 2.88,1.84 4.86,4.69 6.95,7.33 -2.19,1.1 -4.33,2.35 -6.66,3.09 -2.31,-1.19 -4.27,-3.07 -6.93,-3.47 0.03,0.79 0.08,2.36 0.1,3.15 1.06,0.83 2.12,1.66 3.19,2.49 -0.04,1.96 -0.06,3.91 -0.07,5.86 1.12,-0.45 2.25,-0.91 3.39,-1.37 -0.07,4.57 -0.03,9.13 -0.07,13.7 -9.9,-6.43 -19.39,-13.45 -29.04,-20.25 m -14.6,-8.34 c -0.29,-5.87 -0.38,-11.75 -0.32,-17.63 0.71,0.39 2.13,1.18 2.84,1.57 0.59,5.37 0.28,10.77 0.4,16.15 -0.73,-0.02 -2.19,-0.06 -2.92,-0.09 m 36.1,-19.17 c 0.81,-3.81 0.51,-7.71 0.53,-11.58 0.09,-25.3 0.12,-50.6 0.22,-75.9 -0.17,-2.72 1.19,-5.14 2.65,-7.32 1.78,0.67 3.26,1.88 4.65,3.14 -0.07,32.38 -0.16,64.76 -0.27,97.14 -2.51,-1.94 -5.13,-3.74 -7.78,-5.48 m -18.2,-12.79 c -0.06,-5.78 0.45,-11.55 0.53,-17.33 -3.05,-1.9 -6.07,-3.84 -9.05,-5.83 -2.45,-16.16 -2.59,-32.52 -3.85,-48.79 0.44,8.73 0.02,17.47 0.12,26.2 -0.12,12.16 0.37,24.34 -0.69,36.46 -1.52,-0.58 -3.09,-1.02 -4.67,-1.33 0.31,-22.82 -0.09,-45.67 0.42,-68.48 7.37,-5.88 15.46,-10.87 23.13,-16.37 8.36,20.13 7.82,42.35 7.76,63.74 -0.26,12.7 0.35,25.42 -0.53,38.1 -0.9,0.34 -1.81,0.61 -2.72,0.81 -3.64,-2.16 -7,-4.74 -10.45,-7.18 m -23.56,302.39 c -0.41,1.96 1.24,3.04 2.97,2.11 0.27,-1.91 0.25,-3.86 0.3,-5.79 2.28,0.01 4.56,0.01 6.85,0.01 0.26,2.05 -1.02,7.16 2.73,5.86 1.22,-4.2 0.32,-8.89 0.51,-13.27 0.45,-1.95 -2.74,-2.73 -3.06,-0.75 -0.24,1.9 -0.13,3.8 -0.15,5.7 -2.31,0 -4.61,0 -6.91,0 -0.02,-2.01 0.05,-4.03 -0.16,-6.03 -0.85,-1.51 -3.32,-0.82 -3.04,0.94 -0.15,3.74 -0.09,7.48 -0.04,11.22 m 17.13,1.62 c 2.75,1.03 5.89,0.56 8.77,0.26 3.4,-0.63 4.27,-5.66 1.62,-7.66 -2.14,-1.5 -4.9,-1.02 -7.35,-1.2 -0.05,-2.12 0.72,-7.36 -2.86,-5.6 -0.83,4.62 -0.47,9.51 -0.18,14.2 m 3,-1.63 c -0.01,-1.58 0.01,-3.17 0.03,-4.76 1.84,0.36 4.72,-0.44 5.6,1.78 0.59,3.37 -3.52,2.79 -5.63,2.98 m 11.79,2.39 c 0.69,-0.11 2.08,-0.34 2.77,-0.45 0.26,-1.85 0.25,-3.74 0.29,-5.61 2.27,0.01 4.56,0.01 6.85,0.01 0.14,2.51 -0.9,7 3.16,5.98 -0.13,-4.96 0.81,-10.24 -0.44,-15.02 -3.93,-1.32 -2.4,4.38 -2.69,6.58 -2.31,0 -4.61,0 -6.91,0.01 -0.03,-2.04 0.05,-4.08 -0.18,-6.11 -0.81,-0.99 -2.02,-0.46 -3.06,-0.37 0.03,4.99 -0.22,10 0.21,14.98 m 18.31,-0.92 c 3.24,1.92 10.29,1.26 9.72,-3.76 -3.01,-1.34 -3.81,4.25 -7.17,2.4 -0.4,-0.3 -1.19,-0.91 -1.58,-1.22 1.44,-3.88 8.39,-1.56 9.43,-6.17 1.16,-7.13 -12.16,-7.81 -12.59,-1.03 0.53,2.12 2.65,0.66 3.23,-0.62 1.19,-2.47 4.83,-2.32 6.34,-0.25 -0.01,3.33 -4.19,2.62 -6.35,3.8 -3.22,0.63 -4.01,5.35 -1.03,6.85 M 763.53,702.2 c 17.63,2.13 36.16,-0.85 51.48,-10.08 14.19,-8.56 26.17,-21.39 32.22,-36.96 5.37,-13.94 5.97,-29.57 2.32,-44.01 -4.79,-18.69 -18.07,-34.56 -34.61,-44.17 -16.28,-9.46 -35.94,-12.06 -54.39,-9.23 -27.72,4.24 -52.63,24.93 -60.79,51.9 -5.54,19.2 -3.15,40.94 7.83,57.81 12.38,18.99 33.34,32.25 55.94,34.74 m 0.62,-6.32 c -19.51,-2.16 -37.61,-13.11 -49.18,-28.88 -15.84,-21.47 -15.61,-53.27 0.43,-74.58 10.67,-14.45 26.76,-25.02 44.55,-28.11 17.65,-3.05 36.66,-0.77 52.24,8.44 15.34,9.05 27.62,24.02 31.59,41.57 2.88,12.81 2.22,26.54 -2.58,38.81 -5.48,13.93 -16.21,25.38 -28.84,33.18 -14.28,8.81 -31.69,11.59 -48.21,9.57 m -1.8,-15.46 c 14.04,2.64 29.25,0.94 41.66,-6.44 11.45,-6.81 20.76,-17.73 24.34,-30.69 2.54,-8.65 1.93,-17.9 -0.06,-26.59 -4.07,-16 -16.87,-28.89 -31.88,-35.16 -15.56,-6.08 -33.9,-5.66 -48.8,2.13 -8.97,4.88 -16.78,12.05 -22.18,20.73 -8.26,13.56 -9,31.24 -2.55,45.67 7.36,15.58 22.59,27.09 39.47,30.35 m 2.09,-6.08 c -13.18,-2.25 -25.15,-10.26 -32.63,-21.29 -7.11,-10.51 -8.56,-24.26 -5.01,-36.31 3.12,-10.5 10.89,-19 19.78,-25.08 11.46,-7.72 26.16,-9.46 39.51,-6.67 12.78,2.67 24.11,10.96 31.15,21.87 5.31,8.24 6.82,18.35 6.27,27.99 -1.38,14.24 -10.85,26.74 -23.01,33.8 -10.77,6.32 -23.88,7.75 -36.06,5.69 m 2.92,-14.98 c 8.92,1.91 18.73,0.73 26.43,-4.38 7.78,-4.98 13.3,-13.58 13.91,-22.88 0.22,-7.97 -1.93,-16.35 -7.46,-22.32 -9.72,-11.2 -27.09,-14.09 -40.29,-7.78 -7.79,3.74 -14.05,10.76 -16.38,19.13 -2.18,8 -1.3,16.99 3.14,24.08 4.54,7.3 12.3,12.34 20.65,14.15 m 2.09,-6.05 c -7.67,-1.46 -14.92,-6.25 -18.4,-13.36 -4.02,-8.45 -2.67,-19.33 3.73,-26.25 9.8,-11.23 29.02,-11.4 39.47,-0.99 3.94,3.73 6.35,8.91 6.81,14.3 1.61,8.8 -3.2,17.78 -10.53,22.52 -6.11,4.15 -13.92,5.12 -21.08,3.78 m -602.41,-0.37 c 14.92,8.17 33.75,8.41 49.08,1.16 17.69,-8.68 30.24,-25.98 35.64,-44.67 1.86,4.09 5.11,7.84 9.66,8.86 4.84,1.02 9.83,0.34 14.74,0.53 2.79,7.02 10.86,10.69 18.06,8.74 4.7,-0.9 8.17,-4.57 10.17,-8.74 15.2,0 30.41,0 45.61,0 3.16,7.56 8.25,14.6 15.44,18.77 9.34,5.45 21.99,4.08 30.06,-3.08 13.68,-12.04 17.06,-32.73 11.45,-49.55 -2.73,-7.7 -7.53,-14.94 -14.41,-19.51 -10.06,-6.59 -24.6,-5.37 -33.3,2.98 -4.11,3.76 -6.84,8.72 -8.98,13.8 -14.86,-0.01 -29.72,0 -44.58,-0.01 0,-16.12 0,-32.25 0,-48.37 9.04,0 18.08,-0.02 27.12,0.01 7.14,7.79 19.62,5.34 27.49,-0.01 5.84,-0.4 12.83,1.48 17.54,-3.02 6.55,-6.64 5.02,-20.15 -4,-23.91 0.62,-8.94 -0.88,-18.28 -5.83,-25.9 -4.69,-7.65 -12.79,-13.66 -22.01,-13.87 -13.43,-0.11 -26.87,-0.01 -40.31,-0.04 0,-8.95 0,-17.89 0,-26.84 11.8,0.03 23.61,-0.05 35.42,0.04 2.96,3.5 7.28,6.08 12,5.67 4.33,0.03 8.06,-2.57 10.82,-5.69 4.46,0.07 9.2,0.34 13.11,-2.2 -0.09,6.99 -0.06,13.99 -0.04,20.98 -0.03,4.21 0.94,8.76 4.11,11.75 4.28,4.12 11.99,3.55 15.69,-1.08 2.54,-2.93 3.22,-6.96 3.22,-10.73 0.02,-14.66 0,-29.33 0.01,-43.99 15.71,0 31.42,-0.01 47.14,0 -0.01,17.36 0,34.72 0,52.08 -12.08,0.02 -24.15,-0.01 -36.22,0.01 -4.65,-0.08 -9.42,1.95 -12.06,5.88 -3.88,5.64 -4.03,13.09 -2.5,19.54 1.5,6.21 7.18,11.19 13.68,11.14 12.37,0.11 24.73,0.01 37.1,0.04 0,14.68 -0.01,29.37 0,44.05 -12.4,0.08 -24.8,-0.15 -37.19,0.1 -6.54,0.39 -10.69,7.07 -10.45,13.18 -0.6,6.41 3.98,13.42 10.83,13.51 12.8,0.15 25.61,0.02 38.41,0.05 1.93,3.86 4.95,7.49 9.31,8.58 4.62,1.16 10.32,1.76 14.12,-1.74 2.65,-1.94 2.83,-5.51 4.19,-8.28 4.76,-1.76 10.24,0.86 14.68,-2.12 2.38,-0.97 2.7,-3.8 3.12,-6 1.13,-5.4 -0.06,-12 -4.89,-15.29 -3.2,-2.32 -7.32,-1.99 -11.06,-2.01 0,-14.63 0,-29.26 0,-43.9 5.91,0.53 11.85,1 17.6,2.51 -2.48,9.48 -7.49,19.49 -3.63,29.32 2.8,8.63 14.43,12.48 21.91,7.51 4.27,-2.84 6.06,-7.91 7.43,-12.61 5.44,11.6 7.01,24.76 5.65,37.43 -1.87,14.24 -8.78,28.11 -20.07,37.18 -8.37,6.73 -19.46,10.61 -30.22,8.8 -8.46,-1.24 -16.03,-5.81 -22.3,-11.44 -5.27,-5.97 -9.26,-13.86 -17.12,-16.87 -7.76,-2.55 -15.73,3.5 -18.15,10.71 -1.88,5.44 -1.24,11.66 1.61,16.65 6.34,11.19 15.23,21.12 26.36,27.69 7.03,3.46 13.99,7.38 21.83,8.73 17.66,3.68 36.82,-0.07 51.49,-10.68 11.37,-7.7 19.9,-18.79 26.66,-30.59 8.64,-18.27 12.93,-38.79 10.98,-58.99 -1.77,-21.51 -10.08,-42.74 -25.02,-58.53 7.28,-25.21 14.47,-50.44 21.75,-75.64 8.39,-0.06 16.78,0.11 25.16,-0.07 5.4,-0.11 9.81,-4.72 10.57,-9.91 1.71,-6.78 -1.63,-15.61 -9.26,-16.66 -9.86,-0.55 -19.77,0 -29.65,-0.26 -3.04,-0.49 -5.65,-2.7 -8.85,-2.53 -3.59,-0.43 -6.7,1.58 -9.98,2.52 -5.7,0.25 -11.42,-0.17 -17.11,0.17 -4.77,0.32 -8.69,4.23 -9.67,8.8 -1.32,5.58 -0.19,12.51 4.8,15.99 3.24,2.37 7.45,1.92 11.24,1.97 -5.57,18.91 -11.14,37.82 -16.72,56.73 -8.89,-2.47 -17.93,-5.43 -27.29,-4.66 -0.02,-17.34 0.03,-34.67 -0.02,-52.01 4.45,0.21 9.52,-0.79 12.04,-4.88 5.23,-7.49 2.32,-21.7 -8.3,-22.02 -104.99,-0.1 -209.98,-0.01 -314.97,-0.04 -3.65,-0.16 -7.45,1.24 -9.66,4.23 -2.41,3.09 -2.7,7.17 -2.81,10.93 -1.87,-8.23 -4.54,-16.26 -6.72,-24.42 2.91,-0.1 6.02,0.05 8.63,-1.48 9.8,-5.47 7.55,-24.11 -4.32,-25.3 -15.04,-0.37 -30.1,-0.07 -45.15,-0.15 -4.66,-0.27 -9.33,2.36 -11.13,6.72 -2.47,5.92 -1.93,14.04 3.58,18.09 3.12,2.39 7.22,2.04 10.91,2.09 -8.49,29.41 -17.01,58.82 -25.48,88.24 -12.97,0.01 -25.94,-0.03 -38.91,0.01 -4.1,-0.03 -8.28,1.63 -10.89,4.85 -3.28,3.85 -4.18,9.11 -4.09,14.01 0.07,4.57 1.1,9.37 4.17,12.89 2.64,3.18 6.78,4.81 10.86,4.82 9.36,0.06 18.72,0 28.08,0.02 -3.87,11.23 -7.67,22.49 -11.53,33.73 -5.83,0.04 -11.67,-0.12 -17.5,0.06 -4.98,0.18 -9.69,3.22 -11.88,7.7 -2.78,5.77 -2.8,12.67 -1,18.73 1.79,5.93 7.59,10.28 13.83,10.07 18.01,0.08 36.02,0.01 54.03,0.04 4.01,0.12 8.24,-0.94 11.15,-3.86 4.55,-4.38 5.53,-11.18 5.02,-17.21 -0.41,-5.31 -2.76,-10.9 -7.59,-13.62 -3.24,-1.95 -7.13,-1.97 -10.79,-1.97 10.45,-36.64 20.91,-73.29 31.36,-109.94 9,31.87 17.97,63.74 26.99,95.6 -12.66,11.08 -20.52,26.88 -24.08,43.15 -4.29,21.28 -1.23,44.53 10.58,63 6.21,9.58 14.29,18.24 24.4,23.75 m 3.18,-6.13 c -9.74,-5.17 -17.4,-13.6 -23.19,-22.86 -10.04,-16.3 -12.48,-36.47 -9.11,-55.1 3.43,-16.58 11.76,-32.78 25.57,-43.03 -11.45,-40.56 -22.91,-81.12 -34.34,-121.69 -13.19,46.84 -26.69,93.58 -39.96,140.39 5.17,0.29 10.51,-0.67 15.56,0.67 5.36,2.17 5.64,8.94 5.01,13.83 -0.27,4.07 -3.56,7.94 -7.83,7.81 -18.33,0.16 -36.66,0.02 -54.98,0.07 -3.1,0.17 -6.58,-0.8 -8.12,-3.73 -2.1,-3.97 -2.08,-8.87 -0.82,-13.11 0.97,-3.46 4.46,-5.65 7.97,-5.51 6.95,-0.1 13.89,0.03 20.83,-0.03 5.44,-15.97 10.94,-31.92 16.33,-47.91 -12.36,-0.02 -24.72,0.06 -37.07,-0.02 -3.55,0.16 -7.06,-2.03 -8.06,-5.52 -1.19,-4.02 -1.25,-8.6 0.46,-12.49 1.22,-2.89 4.37,-4.46 7.42,-4.34 14.48,-0.06 28.96,0 43.44,-0.02 9.87,-34.16 19.79,-68.29 29.59,-102.47 -4.93,-0.15 -9.9,0.38 -14.79,-0.3 -3.77,-1.08 -3.97,-6.12 -2.85,-9.22 0.82,-2.89 4.16,-3.27 6.7,-3.16 14.37,0.09 28.76,-0.11 43.13,0.1 6.52,-0.09 7.18,11.74 0.77,12.42 -4.22,0.39 -8.46,0.09 -12.69,0.16 9.7,34.17 19.36,68.35 29.18,102.49 37.49,-0.05 74.98,-0.01 112.47,-0.02 0.01,-13.67 -0.01,-27.34 0.01,-41.01 -6.99,-0.06 -13.99,0.11 -20.97,-0.05 -7.22,0.58 -7.68,-12.76 -0.59,-12.86 7.18,-0.22 14.37,0.01 21.55,-0.08 0,-4.11 0,-8.22 0,-12.34 -37.29,0.01 -74.57,-0.04 -111.85,0.03 -1.99,-0.12 -4.25,0.29 -5.99,-0.93 -4.01,-3.44 -2.51,-12.77 3.94,-11.73 104.69,0 209.38,-0.03 314.07,0.02 6.38,-0.65 7.24,9.54 2.57,12.11 -3.75,1.01 -7.71,0.34 -11.54,0.48 -0.19,22.11 -0.02,44.24 -0.1,66.36 5.03,0.13 10.08,-0.3 15.1,0.21 7.59,1.64 15.33,3.09 22.37,6.53 7.18,-24.36 14.38,-48.71 21.51,-73.08 -4.67,-0.08 -9.33,0.15 -13.99,-0.07 -6.69,0.06 -6.83,-12.74 0.02,-12.5 6.22,-0.23 12.44,0.07 18.67,-0.12 3.8,-3.19 9.43,-3.35 13.19,0.01 10.38,0.18 20.76,-0.15 31.13,0.14 5.12,0.11 5.93,6.82 3.83,10.37 -1.1,2.08 -3.64,2.22 -5.69,2.18 -9.19,-0.02 -18.39,0 -27.58,-0.03 -8.23,28.32 -16.36,56.66 -24.42,85.03 14.72,14.15 23.51,33.8 25.61,54.01 2.48,19.87 -1.25,40.44 -10.55,58.17 -6.34,12.63 -16.22,23.53 -28.46,30.65 -14.65,8.67 -33.12,10.31 -49.2,4.91 -12.81,-4.48 -24.48,-12.62 -32.33,-23.79 -3.38,-4.91 -7.95,-10.39 -6.31,-16.79 1.08,-5.06 7,-9.88 12.1,-7.02 6.96,4.33 10.27,12.38 16.48,17.55 8.57,6.89 19.43,11.39 30.55,10.9 13.19,-0.6 25.48,-7.62 34.02,-17.48 10.31,-12.17 16.23,-28.05 15.9,-44.04 0.2,-15.95 -4.35,-32.19 -14.48,-44.7 -2.2,6.32 -3.33,13.03 -6.11,19.12 -3,6.11 -13.2,4.69 -15.34,-1.42 -1.41,-3.84 -1.02,-8.12 0.13,-11.98 1.92,-6.33 3.74,-12.69 5.62,-19.04 -9.9,-4.54 -21.04,-5.04 -31.76,-5.35 0.01,19.41 0.01,38.83 0,58.24 4,0.09 8.02,-0.22 12.01,0.18 5.96,0.83 6.08,11.89 -0.14,12.39 -3.88,0.32 -7.78,0.07 -11.67,0.14 -0.8,2.74 -1.48,5.87 -3.98,7.58 -3.1,2.06 -7.51,2.22 -10.67,0.22 -2.65,-1.71 -3.38,-4.96 -4.23,-7.79 -13.44,-0.03 -26.88,-0.02 -40.32,0 -2.21,-0.01 -5,-0.04 -6.27,-2.21 -1.31,-2.57 -1.24,-5.91 0.23,-8.41 1.24,-2.1 3.95,-2.06 6.09,-2.11 13.48,0.03 26.96,0.03 40.44,0.01 -0.02,-19.4 -0.01,-38.81 0,-58.21 -14.19,-0.02 -28.37,0.03 -42.56,-0.02 -3.24,0.15 -6.71,-1.45 -7.93,-4.61 -1.61,-4.07 -1.62,-8.8 -0.12,-12.91 1.19,-3.3 4.76,-5.03 8.13,-4.86 14.16,-0.02 28.31,0.01 42.47,0 0,-22.12 0.01,-44.23 0,-66.34 -19.89,0 -39.78,0 -59.67,0 -0.04,17.36 0.04,34.72 -0.04,52.07 0.22,3.3 -2.02,7.15 -5.79,6.53 -3.35,0.08 -4.73,-3.62 -4.61,-6.43 -0.11,-17.39 0.01,-34.78 -0.05,-52.17 -27.95,0 -55.91,-0.01 -83.86,0 -0.02,4.12 -0.02,8.24 0.02,12.35 14.91,-0.04 29.83,0.04 44.74,-0.04 1.99,-2.95 4.9,-5.9 8.81,-5.42 3.55,-0.05 5.96,2.8 7.81,5.44 3.37,0.06 6.75,-0.15 10.11,0.14 6.31,0.49 6.29,11.94 0.14,12.68 -3.44,0.38 -6.9,0.13 -10.34,0.21 -1.72,2.74 -4.1,5.73 -7.67,5.64 -3.97,0.57 -6.93,-2.53 -8.76,-5.63 -14.96,-0.1 -29.91,-0.01 -44.87,-0.04 0.02,13.68 -0.05,27.36 0.04,41.03 15.2,-0.04 30.4,-0.03 45.6,-0.01 6.44,-0.11 12.46,3.48 16.23,8.56 6.75,8.56 7.83,20.47 4.89,30.72 2.95,0.07 7.05,-0.51 8.56,2.75 1.46,3.38 1.34,9.26 -3.07,10.24 -4.41,0.57 -8.88,0.11 -13.32,0.29 -4.7,3.78 -10.93,5.68 -16.91,4.6 -2.54,-0.4 -4.01,-2.65 -5.36,-4.6 -12.21,-0.08 -24.42,0 -36.64,-0.04 -0.05,20.85 -0.03,41.71 -0.01,62.56 18.37,-0.01 36.74,-0.01 55.11,0 1.76,-5.34 3.98,-10.74 8.03,-14.79 6.32,-6.53 16.98,-8 25.03,-4 6.23,3.27 10.53,9.39 13.09,15.8 5.24,14.19 2.74,32.05 -8.83,42.46 -6.75,6.06 -17.69,6.81 -25.11,1.53 -6.29,-4.39 -10.31,-11.33 -12.44,-18.57 -18.22,0 -36.44,0 -54.67,0 -0.73,2.84 -1.27,6.2 -4.04,7.82 -3.06,1.76 -7.15,1.86 -10.28,0.21 -2.99,-1.56 -3.79,-5.06 -4.63,-8.03 -5.99,-0.22 -12.06,0.5 -18.01,-0.4 -4.93,-1.22 -6.17,-6.99 -5.96,-11.38 -0.09,-4.23 1.66,-9.58 6.43,-10.38 5.88,-0.62 11.81,-0.11 17.71,-0.27 0,-20.85 0.01,-41.7 -0.01,-62.56 -7.94,-0.05 -15.88,0.12 -23.82,-0.05 -7,0.15 -6.91,-13 -0.09,-13.11 7.97,-0.14 15.95,0.01 23.92,-0.04 0,-5.65 0,-11.29 0,-16.94 -35.36,0 -70.73,0.01 -106.1,0.01 1.95,6.87 3.87,13.75 5.94,20.58 13.5,-3.2 28.46,-0.94 39.8,7.28 14.8,10.73 24.66,27.76 27.33,45.78 2.68,17.87 0.6,37.02 -8.72,52.77 -6.56,11.07 -16.04,20.93 -28.16,25.75 -13,5.11 -28.31,4.63 -40.71,-1.97 m 84.92,-60.59 c 0.13,-8.58 -0.67,-17.21 -2.9,-25.51 -4.3,-16.57 -14.21,-31.78 -28.04,-41.94 -11.18,-8.25 -25.61,-11.38 -39.3,-9.57 -0.52,-1.83 -1.04,-3.65 -1.55,-5.49 30.42,0 60.83,0.01 91.25,0 0,0.68 0,2.05 0,2.73 -6.47,0.13 -12.96,-0.26 -19.41,0.19 -6.64,0.96 -9.99,8.24 -9.48,14.36 -0.19,5.91 3.82,12.35 10.13,12.73 6.25,0.3 12.51,0.04 18.76,0.12 0,16.13 0,32.26 0,48.39 -6.62,0.07 -14.26,-1.14 -19.46,3.99 M 156.32,409.28 c 2.09,3.29 5.58,5.82 9.61,5.7 29.07,0.05 58.15,0.08 87.22,-0.02 -5.58,4.57 -6.46,13.06 -3.37,19.28 1.7,3.47 5.35,5.84 9.21,5.97 5.2,0.18 10.41,0 15.62,0.06 -0.01,8.95 -0.01,17.89 -0.01,26.84 -33.91,-0.01 -67.82,0 -101.74,-0.01 -5.53,-19.26 -10.85,-38.6 -16.54,-57.82 m 614.15,238.05 c 6.59,1.3 13.89,-0.3 18.8,-5.02 4.22,-3.84 6.3,-9.77 5.49,-15.41 -0.79,-7.71 -7.24,-14.06 -14.69,-15.66 -10.5,-2.85 -23.25,3.79 -24.82,15.03 -1.97,9.78 5.66,19.46 15.22,21.06 m 0.01,-9.14 c -4.03,-0.97 -6.11,-5.27 -5.83,-9.16 -0.11,-6.6 6.88,-12.19 13.31,-10.1 6.8,1.33 7.67,10.1 5.36,15.41 -2.29,4.64 -8.42,5.04 -12.84,3.85 m -592.06,6.29 c 13.53,4.46 29.2,2.2 40.69,-6.32 13.68,-10.12 22.35,-26.26 24.48,-43.03 2.16,-16.29 -0.25,-33.6 -8.83,-47.82 -5.9,-9.79 -14.36,-18.48 -25.1,-22.8 -8.63,-3.55 -18.29,-3.93 -27.35,-2.06 3.85,13.88 7.77,27.75 11.59,41.64 6.4,0.1 12.81,-0.18 19.2,0.11 3.51,0.08 6.37,2.97 7.05,6.3 0.86,4.12 0.95,8.77 -1.26,12.49 -1.63,2.68 -4.93,3.61 -7.9,3.47 -16.69,-0.02 -33.38,0.05 -50.06,-0.03 -3.17,0.13 -6.34,-1.73 -7.48,-4.73 -1.37,-3.68 -1.35,-7.82 -0.44,-11.62 0.73,-3.15 3.53,-5.82 6.86,-5.88 4.92,-0.29 9.86,-0.02 14.79,-0.1 -3.16,-11.01 -6.29,-22.04 -9.5,-33.04 -11.47,8.81 -19.61,21.75 -22.4,35.95 -3.51,17.72 -1.89,37.06 7.37,52.86 6.39,10.95 16.05,20.56 28.29,24.61 M 160.98,624 c -9.57,-11.13 -13.76,-25.92 -13.77,-40.42 2.05,5.47 7.06,9.92 13.11,9.93 16.92,0.11 33.85,0.02 50.77,0.05 4.58,0.16 9.34,-1.64 12.13,-5.39 3.92,-5.13 4.26,-12.06 3.29,-18.21 -0.91,-5.7 -4.9,-11.16 -10.72,-12.49 -5.69,-1.03 -11.52,-0.31 -17.27,-0.52 -2.68,-9.52 -5.36,-19.03 -7.96,-28.57 10.97,-0.57 22.05,3.46 29.82,11.26 13.25,12.57 18.94,31.5 17.55,49.44 -0.91,16.72 -8.77,33.39 -22.5,43.33 -8.4,6.15 -19.3,8.33 -29.51,6.69 C 176,637.61 167.28,631.62 160.98,624 M 162,542.95 c 1.38,4.65 2.68,9.32 4.01,13.98 -5.26,-0.26 -10.93,0.07 -15.03,3.82 2.6,-6.53 6.22,-12.64 11.02,-17.8 m 204.7,81.41 c 6.03,5.16 15.81,5.41 21.89,0.19 13,-11.18 13.56,-33.54 1.42,-45.54 -5.94,-6.11 -16.56,-6.5 -23.04,-1.04 -3.61,2.93 -5.81,7.15 -7.66,11.32 5.94,0.11 11.89,-0.14 17.83,0.1 3.56,-0.02 6.73,2.67 7.47,6.12 1,4.23 1,9.06 -1.29,12.88 -1.52,2.42 -4.5,3.37 -7.22,3.33 -5.67,0.11 -11.33,-0.05 -16.99,0.04 1.64,4.64 3.74,9.36 7.59,12.6 m 611.63,-12.18 c 3.65,7.33 14.26,8.49 20.29,3.54 3.11,-2.55 4.29,-6.72 4.18,-10.63 0,-17.36 -0.02,-34.73 0.01,-52.1 0.03,-2.82 -0.26,-5.76 -1.65,-8.28 -4.21,-7.99 -17.61,-8.44 -22.19,-0.59 -1.63,2.64 -1.92,5.81 -1.88,8.83 0.01,8.36 0,16.72 0.01,25.08 -13.37,-2.64 -25.68,-9.34 -36.21,-17.85 -9.5,-7.56 -15.73,-18.21 -21.23,-28.83 -6.88,-13.3 -7.91,-28.87 -6.37,-43.53 1.89,-17.9 10.93,-34.42 22.97,-47.55 7.74,-8.55 18.13,-14.08 28.64,-18.51 -2.79,6.37 -1.94,14.32 3.04,19.37 6.92,7.27 19.43,6.98 26.54,0.1 -0.12,5.84 -0.03,11.69 -0.06,17.53 -7.79,0.04 -15.59,-0.07 -23.38,0.04 -5.93,0.05 -12.11,3.03 -14.71,8.57 -2.56,5.59 -2.6,12.53 0.38,17.97 2.81,5.03 8.67,7.53 14.25,7.61 7.82,0.13 15.64,0 23.47,0.04 -0.01,5.83 -0.01,11.65 0,17.48 -7.14,0.01 -14.27,-0.01 -21.4,-0.01 -3.2,-0.01 -6.54,0.54 -9.19,2.43 -6.38,4.38 -6.75,15.2 -0.46,19.81 2.72,2.1 6.26,2.67 9.63,2.65 20,0 40,-0.02 60.01,0.01 4.13,0.12 8.67,-0.58 11.7,-3.68 6.1,-5.99 3.51,-18.2 -5.03,-20.45 -6.39,-1.53 -13.06,-0.44 -19.56,-0.76 -0.01,-5.82 -0.01,-11.65 0,-17.47 15.04,-0.12 30.08,0.09 45.12,0.26 2.84,25.14 12.94,49.51 29.57,68.66 -1.33,5.63 0.06,11.87 4.22,16 4.61,5.09 11.96,6.77 18.54,5.36 33.27,23.11 79.99,25.03 114.81,4.2 32.96,-19.97 55.17,-56.02 59.45,-94.21 7.45,-0.39 15.76,1.43 22.38,-2.96 6.82,-4.49 7.94,-13.95 5.65,-21.22 -1.64,-5.53 -6.7,-9.61 -12.35,-10.49 -5.19,-0.75 -10.47,-0.24 -15.68,-0.38 -2.16,-17.69 -7.84,-34.99 -17.16,-50.21 9.8,-0.01 19.6,0.01 29.41,-0.01 2.98,0.02 6.09,-0.55 8.57,-2.33 6.52,-4.53 6.28,-15.64 -0.2,-20.11 -2.72,-1.93 -6.14,-2.48 -9.4,-2.44 -16.24,0.01 -32.49,0.01 -48.72,0 -12.35,-12.07 -27.29,-21.65 -43.84,-26.77 -20.77,-6.43 -43.53,-6.52 -64.29,0.03 -16.41,5.16 -31.19,14.75 -43.43,26.74 -27.53,0.02 -55.06,-0.01 -82.59,0.01 -0.09,-3.22 0,-6.65 -1.6,-9.57 -4.06,-8.06 -17.34,-8.7 -22.13,-1.05 -2.07,3.13 -2.07,7.02 -2.09,10.62 -10.34,-0.15 -20.82,-0.13 -30.89,2.58 -19.6,4.87 -37.67,15.55 -51.61,30.14 -12.11,12.27 -22.07,26.8 -28.33,42.91 -9.84,0.02 -19.67,-0.03 -29.51,0.02 -5.72,-0.06 -11.83,2.3 -14.83,7.42 -3.16,5.5 -3.34,12.63 -0.71,18.37 2.55,5.43 8.62,8.32 14.43,8.38 7.9,0.14 15.81,-0.01 23.73,0.05 -0.32,16.35 2.08,32.89 8.36,48.06 7.06,17.41 19.17,32.4 33.28,44.65 16.79,14.58 38,23.73 60.04,26.47 m 7.37,-0.91 c -1.65,-1.11 -1.86,-3.24 -2.46,-4.97 -23.31,-1.97 -45.89,-11.61 -63.14,-27.45 -14.34,-13.01 -26.26,-29.22 -31.99,-47.89 -4.7,-14.26 -5.42,-29.41 -5.09,-44.32 -9.68,-0.02 -19.37,0.05 -29.05,-0.01 -3.5,-0.02 -7.48,-0.98 -9.39,-4.19 -1.98,-3.46 -1.89,-7.86 -0.63,-11.56 1.45,-4.04 5.95,-5.79 9.96,-5.72 11.36,-0.08 22.72,0 34.08,-0.03 4.88,-14.18 12.74,-27.26 22.6,-38.53 14.39,-17.09 33.95,-30.09 55.86,-35.05 11.23,-2.82 22.87,-1.94 34.33,-2.07 0.11,-4.06 -0.41,-8.21 0.46,-12.23 1.6,-5.52 11.46,-4.85 12.29,0.88 0.52,3.76 0.19,7.57 0.25,11.34 30.53,0.04 61.06,-0.01 91.59,0.02 11.32,-11.45 24.91,-20.9 40.2,-26.19 20.88,-7.25 44.15,-7.2 65.09,-0.22 15.62,5.22 29.56,14.7 41.06,26.39 16.77,0 33.55,0.03 50.32,-0.01 2.58,0.05 5.6,-0.03 7.56,1.97 1.8,2.12 1.94,5.46 0.6,7.84 -1.55,2.33 -4.65,2.39 -7.14,2.41 -13.46,-0.03 -26.93,-0.01 -40.39,-0.02 13.87,18.06 21.66,40.3 23.47,62.91 7.23,0.3 14.6,-0.73 21.74,0.65 6.56,1.79 7.82,10.07 5.98,15.68 -1.18,3.69 -5.04,5.76 -8.73,5.89 -6.33,0.27 -12.67,0.03 -18.99,0.09 -1.89,23.83 -10.31,47.24 -25.04,66.16 -10.59,13.8 -24.01,25.7 -39.81,33.18 -18.46,8.81 -39.66,11.16 -59.78,8.01 -15.49,-2.45 -30.23,-8.87 -42.94,-18.02 -5.24,2.19 -11.89,1.35 -15.49,-3.33 -3.04,-3.35 -2.87,-8.34 -0.84,-12.16 -18.6,-20.04 -29.32,-46.67 -31.21,-73.83 -19.08,-0.11 -38.16,-0.38 -57.24,-0.24 0,10.05 0.01,20.11 -0.01,30.16 7.73,0.21 15.51,-0.39 23.21,0.3 4.65,0.5 6.19,6.99 3.21,10.12 -1.91,1.81 -4.74,1.71 -7.17,1.8 -19.68,-0.01 -39.35,-0.02 -59.02,0.01 -2.68,-0.08 -5.94,0.01 -7.75,-2.35 -1.45,-2.12 -1.32,-5.16 -0.01,-7.33 1.68,-2.53 5.04,-2.5 7.76,-2.56 8.92,0.03 17.85,0.02 26.77,0.02 -0.02,-10.06 0,-20.12 -0.01,-30.18 -9.59,-0.02 -19.19,0.05 -28.78,-0.02 -3.53,-0.01 -7.52,-0.93 -9.55,-4.1 -2.11,-3.52 -2.01,-8.09 -0.61,-11.86 1.55,-4.01 6.12,-5.58 10.11,-5.51 9.61,-0.07 19.22,0.02 28.83,-0.02 0.01,-21.16 0,-42.32 0,-63.47 -1.66,0.01 -3.32,0.01 -4.95,0.01 -0.3,4.82 -4.3,8.35 -9,8.7 -17.54,1.37 -34.47,8.4 -48.34,19.13 -10.27,8.61 -18.28,19.79 -24.1,31.82 -8.37,17.19 -9.79,37.14 -6.34,55.77 1.83,10.34 6.94,19.68 12.35,28.53 5.13,8.87 12.12,16.6 20.44,22.59 12.49,8.99 27.02,16.07 42.62,16.89 0.03,-10.72 0.01,-21.44 0,-32.16 0.03,-2.31 0.03,-5.03 1.93,-6.71 3.91,-3.14 11.47,-0.89 11.02,4.83 0.07,18.64 0.17,37.31 -0.06,55.95 -0.09,5.17 -6.95,6.7 -10.64,4.26 m -7.48,-171.42 c -6.4,-1.1 -10.46,-8.57 -7.77,-14.52 2.64,-6.81 12.11,-8.61 17.79,-4.55 4.49,3.02 5.72,9.69 2.84,14.21 -2.57,4.29 -8.16,5.94 -12.86,4.86 m 15.96,-22.32 c -2.76,0.2 -1.96,-4.58 0.4,-2.63 0.51,1.06 0.38,1.93 -0.4,2.63 m 129.09,154.76 c 12.22,8.98 26.54,15.24 41.6,17.31 19.9,2.74 40.82,-0.41 58.54,-10.08 15.77,-8.56 28.67,-21.72 38.54,-36.57 11.05,-16.65 17.46,-36.18 19.08,-56.06 -9.76,0.01 -19.5,0 -29.25,0 -2.85,14.63 -10.59,28.21 -21.86,37.97 -28.22,25.19 -74.67,26.21 -104.01,2.36 -12.62,-10.04 -21.44,-24.55 -24.69,-40.34 -8.29,0.03 -16.57,0.01 -24.86,0.01 2,25.63 12,50.72 29.21,69.95 5.03,-2.53 11.76,-2.56 15.78,1.84 3.78,3.48 3.79,9.16 1.92,13.61 m 7.45,-2.53 c 0.78,-5.61 -0.71,-11.65 -4.93,-15.61 -4.64,-4.9 -11.88,-6.4 -18.32,-4.9 -13.12,-15.9 -21.26,-35.6 -24.01,-55.98 4.26,-0.01 8.52,0 12.79,0 4.69,17.33 15.93,32.63 30.75,42.69 30.89,21.25 75.7,19.59 104.7,-4.29 12.11,-9.76 21.11,-23.33 25.09,-38.4 5.7,0 11.41,-0.01 17.13,0 -3.96,29.43 -20.16,57.01 -44.05,74.66 -28.43,20.94 -69.98,21.8 -99.15,1.83 M 760.73,548.55 c 6.74,9.56 23.09,9.68 29.8,0.01 10.01,-0.08 20.03,0.1 30.04,-0.08 5.81,-0.02 11.43,-4.49 11.8,-10.48 1.12,-6.55 -3.6,-13.47 -10.36,-14.1 -9.72,-0.54 -19.49,-0.07 -29.22,-0.23 0,-0.38 0.01,-1.14 0.02,-1.52 6.96,-0.47 14.3,1.15 20.99,-1.31 9.2,-3.76 9.25,-19 -0.09,-22.61 -6.69,-2.34 -13.97,-0.79 -20.9,-1.24 0,-21.77 0,-43.55 0,-65.33 7.06,-0.51 14.59,1.29 21.32,-1.47 8.68,-3.95 8.75,-17.91 0.34,-22.24 30.17,0.14 60.35,0.01 90.52,0.07 3.87,0.06 8.03,-0.37 11.18,-2.85 6.03,-4.48 5.78,-14.76 -0.17,-19.2 -3.1,-2.43 -7.18,-2.92 -10.99,-2.85 -72.7,0.05 -145.4,-0.05 -218.09,0.05 -6.15,-0.17 -12.34,4.45 -12.57,10.85 -1.07,6.92 4.47,13.81 11.54,13.88 16.51,0.21 33.04,0.11 49.56,0.05 -8.4,4.34 -8.33,18.28 0.34,22.24 6.73,2.76 14.25,0.96 21.33,1.47 0,21.78 0,43.55 0,65.33 -5.4,0.08 -10.8,-0.15 -16.18,0.11 -4.51,0.24 -9.04,2.85 -10.75,7.15 -1.84,4.65 -1.18,10.51 2.41,14.15 2.43,2.5 5.95,3.62 9.37,3.71 5.05,0.12 10.1,-0.01 15.15,0.04 0,0.38 0,1.14 0.01,1.52 -8.73,0.05 -17.46,-0.08 -26.18,0.05 -4.36,0.07 -8.82,2.29 -10.84,6.26 -2.39,4.76 -2.01,11.23 1.93,15.06 2.6,2.59 6.37,3.51 9.95,3.51 9.58,0.02 19.16,-0.02 28.74,0 m 4,-6.33 c -11.58,-0.18 -23.18,0.25 -34.75,-0.2 -5.13,-0.1 -6.54,-7.18 -3.27,-10.36 1.67,-1.55 4.1,-1.56 6.25,-1.63 10.17,-0.02 20.35,0.07 30.52,-0.03 0,-4.74 0,-9.48 -0.01,-14.23 -7.62,-0.13 -15.26,0.29 -22.86,-0.19 -4.99,-0.29 -6.64,-7.17 -3.48,-10.46 1.82,-1.7 4.49,-1.73 6.85,-1.79 6.49,-0.01 12.99,0.03 19.5,0.01 0.01,-26.01 0,-52.01 0,-78.02 -6.5,-0.03 -12.99,0.01 -19.48,0.01 -2.48,-0.06 -5.41,-0.09 -7.14,-2.16 -1.64,-2.14 -1.74,-5.35 -0.42,-7.68 1.34,-2.19 4.15,-2.56 6.5,-2.6 6.85,-0.06 13.69,0.03 20.54,-0.01 0,-3.74 0,-7.48 0,-11.22 -24.84,0.01 -49.67,-0.02 -74.5,0.02 -2.36,-0.05 -5.08,-0.02 -6.82,-1.87 -2.52,-2.81 -2.08,-8.53 1.95,-9.74 3.2,-0.95 6.61,-0.5 9.92,-0.6 68.65,0.01 137.3,0.03 205.95,0 3.59,0.12 7.34,-0.44 10.81,0.77 4.15,1.48 4.76,8.27 0.83,10.34 -2.02,1.09 -4.39,1.04 -6.61,1.1 -39.52,-0.06 -79.04,0 -118.55,-0.02 -0.01,3.74 -0.01,7.48 -0.01,11.21 7.78,0.21 15.59,-0.37 23.34,0.29 4.85,0.56 6,7.37 2.86,10.45 -1.79,1.65 -4.39,1.65 -6.66,1.71 -6.51,0.01 -13.03,-0.02 -19.53,-0.01 0,26.01 -0.02,52.02 0,78.03 7.64,0.16 15.31,-0.33 22.93,0.23 4.98,0.28 6.48,7.01 3.47,10.32 -1.76,1.84 -4.48,1.87 -6.83,1.9 -6.52,-0.01 -13.04,-0.01 -19.55,-0.03 -0.04,4.75 -0.03,9.5 -0.02,14.25 10.53,0.07 21.07,0.01 31.6,0.02 2.38,0.05 5.21,0.11 6.83,2.17 1.58,2.23 1.72,5.58 0.14,7.85 -1.69,2.1 -4.64,2.11 -7.08,2.17 -10.44,-0.01 -20.88,-0.04 -31.32,0 -3.03,9.62 -18.89,9.61 -21.9,0 m 402.73,-19.93 c 17.83,2.71 37.11,-2.89 49.38,-16.43 14.53,-14.64 17.19,-39.01 7.06,-56.79 -6.46,-11.15 -17.19,-19.79 -29.48,-23.68 -20.14,-6.23 -44,-1.27 -58.53,14.45 -14.51,14.71 -16.73,39.12 -6.64,56.85 7.85,13.86 22.43,23.55 38.21,25.6 m -2.94,-6.99 c -14.18,-3.04 -26.74,-13.25 -32.16,-26.76 -5.74,-14.64 -3.21,-32.76 7.99,-44.19 13.25,-14.44 35.33,-18.65 53.57,-12.42 16.96,5.9 30.38,22.62 29.64,41.02 0.46,15.24 -8.87,29.37 -21.75,36.93 -11.08,6.66 -24.79,8.01 -37.29,5.42 m -865.11,-1.75 c 12.52,-0.06 25.05,0.1 37.57,-0.09 2.48,-2.41 5.93,-3.04 9.01,-4.35 5.18,-2.4 4.48,-12.53 -2,-12.39 -14.85,-0.26 -29.73,-0.02 -44.59,-0.1 -0.01,5.64 -0.01,11.29 0.01,16.93 m 6.27,-7.11 c 0,-0.68 0,-2.05 -0.01,-2.73 11.5,-0.04 22.99,0.1 34.48,-0.07 -1.88,0.82 -3.72,1.75 -5.5,2.77 -9.66,0.07 -19.31,0.01 -28.97,0.03 m 865.68,-14.01 c 9.84,3.43 21.73,-3.2 23.56,-13.53 1.77,-8.13 -3.33,-16.82 -11.14,-19.5 -9.32,-3.69 -21.51,1.14 -24.38,11.1 -3.09,9.06 2.93,19.38 11.96,21.93 m 2.08,-6 c -3.52,-1.04 -6.58,-3.74 -7.83,-7.22 -2.05,-5.48 1.15,-12.07 6.73,-13.84 6.57,-2.7 15.53,1.18 16.42,8.63 1.49,8.21 -7.7,15.08 -15.32,12.43 m -159.64,-21.3 c 12.07,-0.06 24.15,0.12 36.23,-0.07 6.97,-0.76 13.98,-0.41 20.99,-0.49 1.82,-22.67 10.21,-44.67 23.75,-62.91 -26.99,-0.01 -53.98,-0.01 -80.97,0 -0.01,21.16 -0.01,42.31 0,63.47 m 6.33,-6.37 c -0.01,-16.91 0,-33.83 -0.01,-50.75 20.91,-0.01 41.83,0.01 62.74,-0.01 -9.29,15.28 -15.3,32.49 -17.58,50.22 -3.11,0.01 -6.21,-0.05 -9.3,0.01 -11.92,1.02 -23.91,0.33 -35.85,0.53 m 56.23,5.79 c 7.89,0.02 15.79,0.01 23.69,0.01 1.75,-14.57 8.11,-28.6 18.39,-39.14 10.98,-11.57 25.62,-19.65 41.32,-22.59 21.67,-4.08 45.28,-0.14 63.26,13.04 15.97,11.22 26.94,29.23 29.06,48.69 9.26,0 18.53,0.01 27.8,0 -1.91,-22.86 -10.49,-45.22 -25.21,-62.9 -7.24,0 -14.48,0.01 -21.71,0.02 -2.59,-0.03 -5.67,-0.06 -7.41,-2.29 -2.23,-2.95 -1.53,-8.46 2.53,-9.41 5.03,-1.02 10.22,-0.28 15.32,-0.52 -10.62,-9.77 -23.14,-17.65 -36.96,-21.96 -22.05,-6.95 -46.75,-5.62 -67.7,4.28 -9.52,4.45 -18.17,10.6 -25.89,17.68 4.36,0.22 8.84,-0.49 13.14,0.53 3.96,1.07 4.49,6.47 2.39,9.42 -1.69,2.26 -4.78,2.23 -7.31,2.27 -6.48,-0.01 -12.96,-0.01 -19.44,-0.03 -14.25,17.97 -23.06,40.08 -25.27,62.9 m 7.22,-6.34 c 2.85,-18.13 10.17,-35.5 21.16,-50.21 6.11,-0.02 12.23,0.07 18.34,-0.02 4.31,0.01 8.83,-1.91 11.05,-5.76 3.59,-6 1.68,-14.67 -4.73,-17.93 11.27,-7.43 24.13,-12.56 37.58,-14.1 20.46,-2.64 41.73,2.23 58.98,13.56 -5.76,2.1 -9.2,8.4 -7.73,14.38 0.82,5.58 6.11,9.63 11.62,9.78 7.24,0.25 14.5,0.02 21.75,0.11 11.33,14.48 18.53,32.01 21.12,50.19 -5.08,0.01 -10.16,0 -15.23,0.01 -3.77,-20.9 -17.23,-39.41 -35.21,-50.48 -18.35,-11.68 -41.19,-15.05 -62.44,-11.39 -31.35,5.21 -59.53,30.07 -65.23,61.87 -3.68,0 -7.36,0 -11.03,-0.01 M 42.34,414.44 c 2.16,0.69 4.46,0.57 6.7,0.59 13.7,-0.08 27.4,0.09 41.1,-0.08 5.82,-0.07 10.27,-5.32 10.79,-10.87 1.44,-6.83 -2.6,-15.33 -10.22,-15.8 -14.92,-0.26 -29.86,-0.06 -44.79,-0.1 -5.12,-0.19 -9.92,3.53 -11.08,8.51 -1.82,6.56 0.27,15.54 7.5,17.75 m 1.92,-6.78 c -5.82,-1.61 -4.99,-12.96 1.7,-12.38 14.67,-0.02 29.35,-0.15 44.01,0.06 7.15,0.14 6.34,13.52 -0.94,12.52 -14.92,-0.11 -29.87,0.3 -44.77,-0.2 z"
       style="fill:#010000;fill-opacity:1;fill-rule:nonzero;stroke:#010000;stroke-width:0.09375;stroke-linecap:butt;stroke-linejoin:miter;stroke-miterlimit:10;stroke-dasharray:none;stroke-opacity:1"
       id="path3762"
       inkscape:connector-curvature="0" /><path
       d="m 764.15,695.88 c 16.52,2.02 33.93,-0.76 48.21,-9.57 12.63,-7.8 23.36,-19.25 28.84,-33.18 4.8,-12.27 5.46,-26 2.58,-38.81 -3.97,-17.55 -16.25,-32.52 -31.59,-41.57 -15.58,-9.21 -34.59,-11.49 -52.24,-8.44 -17.79,3.09 -33.88,13.66 -44.55,28.11 -16.04,21.31 -16.27,53.11 -0.43,74.58 11.57,15.77 29.67,26.72 49.18,28.88 m -1.8,-15.46 c -16.88,-3.26 -32.11,-14.77 -39.47,-30.35 -6.45,-14.43 -5.71,-32.11 2.55,-45.67 5.4,-8.68 13.21,-15.85 22.18,-20.73 14.9,-7.79 33.24,-8.21 48.8,-2.13 15.01,6.27 27.81,19.16 31.88,35.16 1.99,8.69 2.6,17.94 0.06,26.59 -3.58,12.96 -12.89,23.88 -24.34,30.69 -12.41,7.38 -27.62,9.08 -41.66,6.44 m 7.1,-27.11 c 7.16,1.34 14.97,0.37 21.08,-3.78 7.33,-4.74 12.14,-13.72 10.53,-22.52 -0.46,-5.39 -2.87,-10.57 -6.81,-14.3 -10.45,-10.41 -29.67,-10.24 -39.47,0.99 -6.4,6.92 -7.75,17.8 -3.73,26.25 3.48,7.11 10.73,11.9 18.4,13.36 m 1.02,-5.98 c -9.56,-1.6 -17.19,-11.28 -15.22,-21.06 1.57,-11.24 14.32,-17.88 24.82,-15.03 7.45,1.6 13.9,7.95 14.69,15.66 0.81,5.64 -1.27,11.57 -5.49,15.41 -4.91,4.72 -12.21,6.32 -18.8,5.02 m -600.25,-0.52 c 12.4,6.6 27.71,7.08 40.71,1.97 12.12,-4.82 21.6,-14.68 28.16,-25.75 9.32,-15.75 11.4,-34.9 8.72,-52.77 -2.67,-18.02 -12.53,-35.05 -27.33,-45.78 -11.34,-8.22 -26.3,-10.48 -39.8,-7.28 -2.07,-6.83 -3.99,-13.71 -5.94,-20.58 35.37,0 70.74,-0.01 106.1,-0.01 0,5.65 0,11.29 0,16.94 -7.97,0.05 -15.95,-0.1 -23.92,0.04 -6.82,0.11 -6.91,13.26 0.09,13.11 7.94,0.17 15.88,0 23.82,0.05 0.02,20.86 0.01,41.71 0.01,62.56 -5.9,0.16 -11.83,-0.35 -17.71,0.27 -4.77,0.8 -6.52,6.15 -6.43,10.38 -0.21,4.39 1.03,10.16 5.96,11.38 5.95,0.9 12.02,0.18 18.01,0.4 0.84,2.97 1.64,6.47 4.63,8.03 3.13,1.65 7.22,1.55 10.28,-0.21 2.77,-1.62 3.31,-4.98 4.04,-7.82 18.23,0 36.45,0 54.67,0 2.13,7.24 6.15,14.18 12.44,18.57 7.42,5.28 18.36,4.53 25.11,-1.53 11.57,-10.41 14.07,-28.27 8.83,-42.46 -2.56,-6.41 -6.86,-12.53 -13.09,-15.8 -8.05,-4 -18.71,-2.53 -25.03,4 -4.05,4.05 -6.27,9.45 -8.03,14.79 -18.37,-0.01 -36.74,-0.01 -55.11,0 -0.02,-20.85 -0.04,-41.71 0.01,-62.56 12.22,0.04 24.43,-0.04 36.64,0.04 1.35,1.95 2.82,4.2 5.36,4.6 5.98,1.08 12.21,-0.82 16.91,-4.6 4.44,-0.18 8.91,0.28 13.32,-0.29 4.41,-0.98 4.53,-6.86 3.07,-10.24 -1.51,-3.26 -5.61,-2.68 -8.56,-2.75 2.94,-10.25 1.86,-22.16 -4.89,-30.72 -3.77,-5.08 -9.79,-8.67 -16.23,-8.56 -15.2,-0.02 -30.4,-0.03 -45.6,0.01 -0.09,-13.67 -0.02,-27.35 -0.04,-41.03 14.96,0.03 29.91,-0.06 44.87,0.04 1.83,3.1 4.79,6.2 8.76,5.63 3.57,0.09 5.95,-2.9 7.67,-5.64 3.44,-0.08 6.9,0.17 10.34,-0.21 6.15,-0.74 6.17,-12.19 -0.14,-12.68 -3.36,-0.29 -6.74,-0.08 -10.11,-0.14 -1.85,-2.64 -4.26,-5.49 -7.81,-5.44 -3.91,-0.48 -6.82,2.47 -8.81,5.42 -14.91,0.08 -29.83,0 -44.74,0.04 -0.04,-4.11 -0.04,-8.23 -0.02,-12.35 27.95,-0.01 55.91,0 83.86,0 0.06,17.39 -0.06,34.78 0.05,52.17 -0.12,2.81 1.26,6.51 4.61,6.43 3.77,0.62 6.01,-3.23 5.79,-6.53 0.08,-17.35 0,-34.71 0.04,-52.07 19.89,0 39.78,0 59.67,0 0.01,22.11 0,44.22 0,66.34 -14.16,0.01 -28.31,-0.02 -42.47,0 -3.37,-0.17 -6.94,1.56 -8.13,4.86 -1.5,4.11 -1.49,8.84 0.12,12.91 1.22,3.16 4.69,4.76 7.93,4.61 14.19,0.05 28.37,0 42.56,0.02 -0.01,19.4 -0.02,38.81 0,58.21 -13.48,0.02 -26.96,0.02 -40.44,-0.01 -2.14,0.05 -4.85,0.01 -6.09,2.11 -1.47,2.5 -1.54,5.84 -0.23,8.41 1.27,2.17 4.06,2.2 6.27,2.21 13.44,-0.02 26.88,-0.03 40.32,0 0.85,2.83 1.58,6.08 4.23,7.79 3.16,2 7.57,1.84 10.67,-0.22 2.5,-1.71 3.18,-4.84 3.98,-7.58 3.89,-0.07 7.79,0.18 11.67,-0.14 6.22,-0.5 6.1,-11.56 0.14,-12.39 -3.99,-0.4 -8.01,-0.09 -12.01,-0.18 0.01,-19.41 0.01,-38.83 0,-58.24 10.72,0.31 21.86,0.81 31.76,5.35 -1.88,6.35 -3.7,12.71 -5.62,19.04 -1.15,3.86 -1.54,8.14 -0.13,11.98 2.14,6.11 12.34,7.53 15.34,1.42 2.78,-6.09 3.91,-12.8 6.11,-19.12 10.13,12.51 14.68,28.75 14.48,44.7 0.33,15.99 -5.59,31.87 -15.9,44.04 -8.54,9.86 -20.83,16.88 -34.02,17.48 -11.12,0.49 -21.98,-4.01 -30.55,-10.9 -6.21,-5.17 -9.52,-13.22 -16.48,-17.55 -5.1,-2.86 -11.02,1.96 -12.1,7.02 -1.64,6.4 2.93,11.88 6.31,16.79 7.85,11.17 19.52,19.31 32.33,23.79 16.08,5.4 34.55,3.76 49.2,-4.91 12.24,-7.12 22.12,-18.02 28.46,-30.65 9.3,-17.73 13.03,-38.3 10.55,-58.17 -2.1,-20.21 -10.89,-39.86 -25.61,-54.01 8.06,-28.37 16.19,-56.71 24.42,-85.03 9.19,0.03 18.39,0.01 27.58,0.03 2.05,0.04 4.59,-0.1 5.69,-2.18 2.1,-3.55 1.29,-10.26 -3.83,-10.37 -10.37,-0.29 -20.75,0.04 -31.13,-0.14 -3.76,-3.36 -9.39,-3.2 -13.19,-0.01 -6.23,0.19 -12.45,-0.11 -18.67,0.12 -6.85,-0.24 -6.71,12.56 -0.02,12.5 4.66,0.22 9.32,-0.01 13.99,0.07 -7.13,24.37 -14.33,48.72 -21.51,73.08 -7.04,-3.44 -14.78,-4.89 -22.37,-6.53 -5.02,-0.51 -10.07,-0.08 -15.1,-0.21 0.08,-22.12 -0.09,-44.25 0.1,-66.36 3.83,-0.14 7.79,0.53 11.54,-0.48 4.67,-2.57 3.81,-12.76 -2.57,-12.11 -104.69,-0.05 -209.38,-0.02 -314.07,-0.02 -6.45,-1.04 -7.95,8.29 -3.94,11.73 1.74,1.22 4,0.81 5.99,0.93 37.28,-0.07 74.56,-0.02 111.85,-0.03 0,4.12 0,8.23 0,12.34 -7.18,0.09 -14.37,-0.14 -21.55,0.08 -7.09,0.1 -6.63,13.44 0.59,12.86 6.98,0.16 13.98,-0.01 20.97,0.05 -0.02,13.67 0,27.34 -0.01,41.01 -37.49,0.01 -74.98,-0.03 -112.47,0.02 -9.82,-34.14 -19.48,-68.32 -29.18,-102.49 4.23,-0.07 8.47,0.23 12.69,-0.16 6.41,-0.68 5.75,-12.51 -0.77,-12.42 -14.37,-0.21 -28.76,-0.01 -43.13,-0.1 -2.54,-0.11 -5.88,0.27 -6.7,3.16 -1.12,3.1 -0.92,8.14 2.85,9.22 4.89,0.68 9.86,0.15 14.79,0.3 -9.8,34.18 -19.72,68.31 -29.59,102.47 -14.48,0.02 -28.96,-0.04 -43.44,0.02 -3.05,-0.12 -6.2,1.45 -7.42,4.34 -1.71,3.89 -1.65,8.47 -0.46,12.49 1,3.49 4.51,5.68 8.06,5.52 12.35,0.08 24.71,0 37.07,0.02 -5.39,15.99 -10.89,31.94 -16.33,47.91 -6.94,0.06 -13.88,-0.07 -20.83,0.03 -3.51,-0.14 -7,2.05 -7.97,5.51 -1.26,4.24 -1.28,9.14 0.82,13.11 1.54,2.93 5.02,3.9 8.12,3.73 18.32,-0.05 36.65,0.09 54.98,-0.07 4.27,0.13 7.56,-3.74 7.83,-7.81 0.63,-4.89 0.35,-11.66 -5.01,-13.83 -5.05,-1.34 -10.39,-0.38 -15.56,-0.67 13.27,-46.81 26.77,-93.55 39.96,-140.39 11.43,40.57 22.89,81.13 34.34,121.69 -13.81,10.25 -22.14,26.45 -25.57,43.03 -3.37,18.63 -0.93,38.8 9.11,55.1 5.79,9.26 13.45,17.69 23.19,22.86 m 8.2,-2.33 c -12.24,-4.05 -21.9,-13.66 -28.29,-24.61 -9.26,-15.8 -10.88,-35.14 -7.37,-52.86 2.79,-14.2 10.93,-27.14 22.4,-35.95 3.21,11 6.34,22.03 9.5,33.04 -4.93,0.08 -9.87,-0.19 -14.79,0.1 -3.33,0.06 -6.13,2.73 -6.86,5.88 -0.91,3.8 -0.93,7.94 0.44,11.62 1.14,3 4.31,4.86 7.48,4.73 16.68,0.08 33.37,0.01 50.06,0.03 2.97,0.14 6.27,-0.79 7.9,-3.47 2.21,-3.72 2.12,-8.37 1.26,-12.49 -0.68,-3.33 -3.54,-6.22 -7.05,-6.3 -6.39,-0.29 -12.8,-0.01 -19.2,-0.11 -3.82,-13.89 -7.74,-27.76 -11.59,-41.64 9.06,-1.87 18.72,-1.49 27.35,2.06 10.74,4.32 19.2,13.01 25.1,22.8 8.58,14.22 10.99,31.53 8.83,47.82 -2.13,16.77 -10.8,32.91 -24.48,43.03 -11.49,8.52 -27.16,10.78 -40.69,6.32 M 366.7,624.36 c -3.85,-3.24 -5.95,-7.96 -7.59,-12.6 5.66,-0.09 11.32,0.07 16.99,-0.04 2.72,0.04 5.7,-0.91 7.22,-3.33 2.29,-3.82 2.29,-8.65 1.29,-12.88 -0.74,-3.45 -3.91,-6.14 -7.47,-6.12 -5.94,-0.24 -11.89,0.01 -17.83,-0.1 1.85,-4.17 4.05,-8.39 7.66,-11.32 6.48,-5.46 17.1,-5.07 23.04,1.04 12.14,12 11.58,34.36 -1.42,45.54 -6.08,5.22 -15.86,4.97 -21.89,-0.19 M 299.41,513.55 c -0.02,-5.64 -0.02,-11.29 -0.01,-16.93 14.86,0.08 29.74,-0.16 44.59,0.1 6.48,-0.14 7.18,9.99 2,12.39 -3.08,1.31 -6.53,1.94 -9.01,4.35 -12.52,0.19 -25.05,0.03 -37.57,0.09 m 471.07,124.64 c 4.42,1.19 10.55,0.79 12.84,-3.85 2.31,-5.31 1.44,-14.08 -5.36,-15.41 -6.43,-2.09 -13.42,3.5 -13.31,10.1 -0.28,3.89 1.8,8.19 5.83,9.16 M 985.7,611.27 c 3.69,2.44 10.55,0.91 10.64,-4.26 0.23,-18.64 0.13,-37.31 0.06,-55.95 0.45,-5.72 -7.11,-7.97 -11.02,-4.83 -1.9,1.68 -1.9,4.4 -1.93,6.71 0.01,10.72 0.03,21.44 0,32.16 -15.6,-0.82 -30.13,-7.9 -42.62,-16.89 -8.32,-5.99 -15.31,-13.72 -20.44,-22.59 -5.41,-8.85 -10.52,-18.19 -12.35,-28.53 -3.45,-18.63 -2.03,-38.58 6.34,-55.77 5.82,-12.03 13.83,-23.21 24.1,-31.82 13.87,-10.73 30.8,-17.76 48.34,-19.13 4.7,-0.35 8.7,-3.88 9,-8.7 1.63,0 3.29,0 4.95,-0.01 0,21.15 0.01,42.31 0,63.47 -9.61,0.04 -19.22,-0.05 -28.83,0.02 -3.99,-0.07 -8.56,1.5 -10.11,5.51 -1.4,3.77 -1.5,8.34 0.61,11.86 2.03,3.17 6.02,4.09 9.55,4.1 9.59,0.07 19.19,0 28.78,0.02 0.01,10.06 -0.01,20.12 0.01,30.18 -8.92,0 -17.85,0.01 -26.77,-0.02 -2.72,0.06 -6.08,0.03 -7.76,2.56 -1.31,2.17 -1.44,5.21 0.01,7.33 1.81,2.36 5.07,2.27 7.75,2.35 19.67,-0.03 39.34,-0.02 59.02,-0.01 2.43,-0.09 5.26,0.01 7.17,-1.8 2.98,-3.13 1.44,-9.62 -3.21,-10.12 -7.7,-0.69 -15.48,-0.09 -23.21,-0.3 0.02,-10.05 0.01,-20.11 0.01,-30.16 19.08,-0.14 38.16,0.13 57.24,0.24 1.89,27.16 12.61,53.79 31.21,73.83 -2.03,3.82 -2.2,8.81 0.84,12.16 3.6,4.68 10.25,5.52 15.49,3.33 12.71,9.15 27.45,15.57 42.94,18.02 20.12,3.15 41.32,0.8 59.78,-8.01 15.8,-7.48 29.22,-19.38 39.81,-33.18 14.73,-18.92 23.15,-42.33 25.04,-66.16 6.32,-0.06 12.66,0.18 18.99,-0.09 3.69,-0.13 7.55,-2.2 8.73,-5.89 1.84,-5.61 0.58,-13.89 -5.98,-15.68 -7.14,-1.38 -14.51,-0.35 -21.74,-0.65 -1.81,-22.61 -9.6,-44.85 -23.47,-62.91 13.46,0.01 26.93,-0.01 40.39,0.02 2.49,-0.02 5.59,-0.08 7.14,-2.41 1.34,-2.38 1.2,-5.72 -0.6,-7.84 -1.96,-2 -4.98,-1.92 -7.56,-1.97 -16.77,0.04 -33.55,0.01 -50.32,0.01 -11.5,-11.69 -25.44,-21.17 -41.06,-26.39 -20.94,-6.98 -44.21,-7.03 -65.09,0.22 -15.29,5.29 -28.88,14.74 -40.2,26.19 -30.53,-0.03 -61.06,0.02 -91.59,-0.02 -0.06,-3.77 0.27,-7.58 -0.25,-11.34 -0.83,-5.73 -10.69,-6.4 -12.29,-0.88 -0.87,4.02 -0.35,8.17 -0.46,12.23 -11.46,0.13 -23.1,-0.75 -34.33,2.07 -21.91,4.96 -41.47,17.96 -55.86,35.05 -9.86,11.27 -17.72,24.35 -22.6,38.53 -11.36,0.03 -22.72,-0.05 -34.08,0.03 -4.01,-0.07 -8.51,1.68 -9.96,5.72 -1.26,3.7 -1.35,8.1 0.63,11.56 1.91,3.21 5.89,4.17 9.39,4.19 9.68,0.06 19.37,-0.01 29.05,0.01 -0.33,14.91 0.39,30.06 5.09,44.32 5.73,18.67 17.65,34.88 31.99,47.89 17.25,15.84 39.83,25.48 63.14,27.45 0.6,1.73 0.81,3.86 2.46,4.97 m 137.57,-38.98 c 1.87,-4.45 1.86,-10.13 -1.92,-13.61 -4.02,-4.4 -10.75,-4.37 -15.78,-1.84 -17.21,-19.23 -27.21,-44.32 -29.21,-69.95 8.29,0 16.57,0.02 24.86,-0.01 3.25,15.79 12.07,30.3 24.69,40.34 29.34,23.85 75.79,22.83 104.01,-2.36 11.27,-9.76 19.01,-23.34 21.86,-37.97 9.75,0 19.49,0.01 29.25,0 -1.62,19.88 -8.03,39.41 -19.08,56.06 -9.87,14.85 -22.77,28.01 -38.54,36.57 -17.72,9.67 -38.64,12.82 -58.54,10.08 -15.06,-2.07 -29.38,-8.33 -41.6,-17.31 m 44.19,-50 c -15.78,-2.05 -30.36,-11.74 -38.21,-25.6 -10.09,-17.73 -7.87,-42.14 6.64,-56.85 14.53,-15.72 38.39,-20.68 58.53,-14.45 12.29,3.89 23.02,12.53 29.48,23.68 10.13,17.78 7.47,42.15 -7.06,56.79 -12.27,13.54 -31.55,19.14 -49.38,16.43 M 1013.8,465.13 c -0.01,-21.16 -0.01,-42.31 0,-63.47 26.99,-0.01 53.98,-0.01 80.97,0 -13.54,18.24 -21.93,40.24 -23.75,62.91 -7.01,0.08 -14.02,-0.27 -20.99,0.49 -12.08,0.19 -24.16,0.01 -36.23,0.07 m 62.56,-0.58 c 2.21,-22.82 11.02,-44.93 25.27,-62.9 6.48,0.02 12.96,0.02 19.44,0.03 2.53,-0.04 5.62,-0.01 7.31,-2.27 2.1,-2.95 1.57,-8.35 -2.39,-9.42 -4.3,-1.02 -8.78,-0.31 -13.14,-0.53 7.72,-7.08 16.37,-13.23 25.89,-17.68 20.95,-9.9 45.65,-11.23 67.7,-4.28 13.82,4.31 26.34,12.19 36.96,21.96 -5.1,0.24 -10.29,-0.5 -15.32,0.52 -4.06,0.95 -4.76,6.46 -2.53,9.41 1.74,2.23 4.82,2.26 7.41,2.29 7.23,-0.01 14.47,-0.02 21.71,-0.02 14.72,17.68 23.3,40.04 25.21,62.9 -9.27,0.01 -18.54,0 -27.8,0 -2.12,-19.46 -13.09,-37.47 -29.06,-48.69 -17.98,-13.18 -41.59,-17.12 -63.26,-13.04 -15.7,2.94 -30.34,11.02 -41.32,22.59 -10.28,10.54 -16.64,24.57 -18.39,39.14 -7.9,0 -15.8,0.01 -23.69,-0.01 m -311.63,77.67 c 3.01,9.61 18.87,9.62 21.9,0 10.44,-0.04 20.88,-0.01 31.32,0 2.44,-0.06 5.39,-0.07 7.08,-2.17 1.58,-2.27 1.44,-5.62 -0.14,-7.85 -1.62,-2.06 -4.45,-2.12 -6.83,-2.17 -10.53,-0.01 -21.07,0.05 -31.6,-0.02 -0.01,-4.75 -0.02,-9.5 0.02,-14.25 6.51,0.02 13.03,0.02 19.55,0.03 2.35,-0.03 5.07,-0.06 6.83,-1.9 3.01,-3.31 1.51,-10.04 -3.47,-10.32 -7.62,-0.56 -15.29,-0.07 -22.93,-0.23 -0.02,-26.01 0,-52.02 0,-78.03 6.5,-0.01 13.02,0.02 19.53,0.01 2.27,-0.06 4.87,-0.06 6.66,-1.71 3.14,-3.08 1.99,-9.89 -2.86,-10.45 -7.75,-0.66 -15.56,-0.08 -23.34,-0.29 0,-3.73 0,-7.47 0.01,-11.21 39.51,0.02 79.03,-0.04 118.55,0.02 2.22,-0.06 4.59,-0.01 6.61,-1.1 3.93,-2.07 3.32,-8.86 -0.83,-10.34 -3.47,-1.21 -7.22,-0.65 -10.81,-0.77 -68.65,0.03 -137.3,0.01 -205.95,0 -3.31,0.1 -6.72,-0.35 -9.92,0.6 -4.03,1.21 -4.47,6.93 -1.95,9.74 1.74,1.85 4.46,1.82 6.82,1.87 24.83,-0.04 49.66,-0.01 74.5,-0.02 0,3.74 0,7.48 0,11.22 -6.85,0.04 -13.69,-0.05 -20.54,0.01 -2.35,0.04 -5.16,0.41 -6.5,2.6 -1.32,2.33 -1.22,5.54 0.42,7.68 1.73,2.07 4.66,2.1 7.14,2.16 6.49,0 12.98,-0.04 19.48,-0.01 0,26.01 0.01,52.01 0,78.02 -6.51,0.02 -13.01,-0.02 -19.5,-0.01 -2.36,0.06 -5.03,0.09 -6.85,1.79 -3.16,3.29 -1.51,10.17 3.48,10.46 7.6,0.48 15.24,0.06 22.86,0.19 0.01,4.75 0.01,9.49 0.01,14.23 -10.17,0.1 -20.35,0.01 -30.52,0.03 -2.15,0.07 -4.58,0.08 -6.25,1.63 -3.27,3.18 -1.86,10.26 3.27,10.36 11.57,0.45 23.17,0.02 34.75,0.2 m 408.71,-55.79 c 7.62,2.65 16.81,-4.22 15.32,-12.43 -0.89,-7.45 -9.85,-11.33 -16.42,-8.63 -5.58,1.77 -8.78,8.36 -6.73,13.84 1.25,3.48 4.31,6.18 7.83,7.22 M 978.22,439.85 c 4.7,1.08 10.29,-0.57 12.86,-4.86 2.88,-4.52 1.65,-11.19 -2.84,-14.21 -5.68,-4.06 -15.15,-2.26 -17.79,4.55 -2.69,5.95 1.37,13.42 7.77,14.52 M 44.26,407.66 c 14.9,0.5 29.85,0.09 44.77,0.2 7.28,1 8.09,-12.38 0.94,-12.52 -14.66,-0.21 -29.34,-0.08 -44.01,-0.06 -6.69,-0.58 -7.52,10.77 -1.7,12.38 z"
       style="fill:#0149ff;fill-opacity:1;fill-rule:nonzero;stroke:#0149ff;stroke-width:0.09375;stroke-linecap:butt;stroke-linejoin:miter;stroke-miterlimit:10;stroke-dasharray:none;stroke-opacity:1"
       id="path3764"
       inkscape:connector-curvature="0" /></g></svg>