<svg xmlns="http://www.w3.org/2000/svg" width="1677.5" height="1373.75" viewBox="0 0 1677.5 1373.75"><g stroke-width=".094" stroke-miterlimit="10"><path d="M995 458.737c41.9-17.275 90.638-17.087 132.4.525 38.95 16.188 71.463 47.175 89.55 85.288 17.663 36.7 21.55 79.7 11.1 119.038-12.05 46.187-44.225 86.725-86.6 108.712 31.625-20.087 55.313-52.275 64.837-88.525 10.463-38.913 4.6-81.938-16.25-116.463-22.7-38.45-63.212-65.787-107.462-72.1-43.513-6.75-89.6 6.813-122.425 36.163C927.2 560.15 907.863 603.75 909 647.512c.413 47.688 25.338 94.163 64.55 121.188-34.412-19.275-61.175-51.525-75.112-88.338-16.413-43.087-14.588-92.737 5.087-134.462 18.15-39.137 51.5-70.925 91.475-87.162m-58.4 52.85c-28.763 31.512-44.488 74.437-42.888 117.075.713 26.562 8.338 52.7 20.863 76.062.062-3.487-1.788-6.712-3.888-9.35-17.662-40.462-17.825-88.137-.4-128.712 15.725-37.263 45.875-68.15 82.738-84.8 40.437-18.588 88.537-19.425 129.625-2.363 37.537 15.325 68.825 45.225 85.887 82.013 17.488 37.175 20.038 81.05 7.125 120.037-.8 2.788-2.987 5.15-2.687 8.213.737-1.375 1.425-2.8 1.625-4.363 11.938-28.837 14.912-61.175 9.463-91.85-6.613-37.45-26.726-72.25-55.65-96.887-32.026-27.663-74.913-42.213-117.15-39.75-43.488 2.075-85.638 22.287-114.663 54.675m73.325-26.5c-40.25 13.537-74.088 44.65-91.063 83.562-9.112 20.088-12.825 42.15-13.35 64.088 1.35-8.775 1.813-17.688 3.888-26.338 9.925-47.15 43.475-88.425 87.45-108.05 43.487-19.962 96.262-17.962 138.087 5.325 35 19.113 62.05 52.225 73.563 90.425-8.7-38.6-34.05-72.837-67.475-93.775-38.463-24.462-88.038-30.112-131.1-15.237m34.437 17.162c42.725-5.1 87.25 10.375 117.525 40.95 29.963 29.45 45.688 72.525 41.763 114.35-3.35 41.85-26.413 81.45-60.925 105.288-33.15 23.45-76.513 31.475-115.913 21.812-40.912-9.625-76.687-38.375-95.112-76.112C910.925 667.1 912.162 615.55 935 575.2c21.95-39.987 63.938-68.175 109.362-72.95m.113 6.213c-20.1 2.662-39.475 10.575-55.713 22.712-10.412 8.275-21.125 16.363-29.687 26.638-16.9 19.487-27.95 43.987-31.263 69.575-3.275 24.587.413 50.1 10.713 72.687 9.262 20.513 23.837 38.575 41.9 52 31.175 23.575 73.012 32.038 110.95 22.75 38.4-8.962 71.937-36.075 88.962-71.612 17.4-35.45 17.75-78.688.95-114.413-8.637-18.812-21.937-35.3-37.937-48.375-25.9-24.862-63.3-37-98.875-31.962m-9.313 10.637c19-6.462 40.488-5.212 58.588 3.475 18.287 8.625 32.925 24.6 39.862 43.588 4.788 13.187 6.363 27.8 3.3 41.562 1.75-19.587-4.962-39.625-17.562-54.65-11.738-14.162-28.7-23.887-46.888-26.737-20.237-3.325-41.712 1.825-58.137 14.137-20.613 15.013-32.75 40.738-31.138 66.213-3.637-18.563.388-38.35 10.288-54.4 9.475-15.463 24.475-27.45 41.687-33.188m7.188 17.625c15.762-4.4 33.1-2.875 47.825 4.288 14.375 6.9 26.175 19.037 32.65 33.625 6.025 13.412 7.525 28.825 4.15 43.15.787-15.05-3.338-30.375-12.163-42.65-10.6-15.088-27.737-25.413-46.075-27.563-18.137-2.35-37.112 3.288-51.025 15.163-15.95 13.287-25.075 34.4-23.425 55.137-4.012-15.612-1.65-32.637 5.75-46.887 8.575-16.6 24.263-29.363 42.313-34.263m-31.713 50.213c8.263-15.663 24.25-26.975 41.813-29.363 16.4-2.475 33.737 2.788 45.987 13.975 11.825 10.575 18.825 26.3 18.663 42.175.087 6.475-1.438 12.813-2.9 19.075-.125-5.912.625-11.862-.413-17.712-2.362-16.425-12.837-31.363-27.362-39.325-14.763-8.3-33.45-8.988-48.8-1.875-14.813 6.7-26.25 20.4-30.088 36.2-1.687 6.162-1.525 12.575-1.862 18.9-2.988-14.063-2.113-29.288 4.962-42.05m-33.462 63.75c-13.863-28.613-11.2-64.188 6.462-90.575-7.187 13.8-11.262 29.312-10.662 44.925.525 21.387 9.325 42.412 24.137 57.837 13.813 14.588 32.788 24.188 52.75 26.538 17.95 2.2 36.563-1.225 52.45-9.913 21.175-11.387 37.213-31.862 43.113-55.187 5.662-21.413 2.4-44.65-7.888-64.163 8.4 13.038 13.8 28.063 14.963 43.575 1.8 21.388-4.175 43.325-16.663 60.788-12.887 18.25-32.587 31.587-54.375 36.537-19.012 4.438-39.425 2.663-57.337-5.1-20.45-8.725-37.475-25.15-46.95-45.262m-24.725-23.163c-.075-20.775 6.162-41.462 17.512-58.837-7.187 15.587-11.187 32.762-10.15 49.987 1.05 22.838 10.313 45.15 25.663 62.088 15.6 17.437 37.45 29.125 60.65 32.3 19.987 2.837 40.825-.5 58.875-9.563 20.662-10.25 37.537-27.862 46.912-48.925 12.313-27.037 11.388-59.362-1.687-85.95 21.2 31.425 23.4 74.288 5.962 107.888-10.7 21.087-28.562 38.462-49.962 48.537-22.013 10.5-47.65 13.075-71.338 7.325-23.312-5.525-44.537-19.225-59.337-38.05-14.938-18.812-23.238-42.762-23.1-66.8m-2.638-47.562c-5.125 13.65-8.975 27.9-9.387 42.55-1.2 26.237 6.537 52.762 21.7 74.212 13.612 19.438 33.112 34.688 55.275 43.188 23.8 9.187 50.537 10.475 75.125 3.675 29.7-8.05 55.862-28.113 71.475-54.613 13.85-23.162 19.412-51.1 15.675-77.812-1.263-10.725-4.775-20.938-8.275-31.075 12.037 23.262 17.15 50.125 13.5 76.137-4.675 36.5-26.588 70.188-57.838 89.55-35.612 22.675-82.875 25.263-120.787 6.725-37.138-17.562-64.363-54.375-69.913-95.112-3.937-26.413 1.1-53.813 13.45-77.425m70.9 20.712c7.438-10.975 19.638-18.612 32.8-20.362 11-1.588 22.538.85 31.95 6.787 11.5 7.125 19.725 19.338 21.838 32.713 2.437 14.45-2.063 30.225-12.563 40.587 7.4-10.55 10.913-24.062 7.625-36.737-4.25-19.013-22.787-33.488-42.275-32.9-19.2-.138-37.175 14.237-41.362 32.937-3.913 15.4 1.812 32.25 13.587 42.725-9.312-6.525-16.012-16.6-18.637-27.65-3.163-12.937-.55-27.15 7.037-38.1m4.038 31.65c2.825-15.587 17-28.125 32.837-29 15.813-1.412 31.613 9.025 36.638 24.063 4.9 13.487.762 29.762-10.288 39.012 7.55-8.937 10.338-21.812 5.9-32.812-5.025-13.725-20.35-22.625-34.775-19.963-14.125 2.025-25.75 14.663-26.6 28.913-.887 8.712 2.613 17.15 7.888 23.925-9.575-8.25-14.188-21.763-11.6-34.138m12.225 9.05c2.375-9.35 10.913-16.687 20.512-17.637 10.4-1.363 21.113 5.075 24.925 14.837 3.638 8.55 1.463 18.838-4.75 25.625 1.863-4.45 3.6-9.237 2.663-14.137-1.275-10.263-11.363-18.35-21.663-17.35-9.675.525-18.162 8.837-18.8 18.525-.612 4.512 1.138 8.8 2.725 12.912-5.4-6.112-7.9-14.837-5.612-22.775m14.363 4.988c6.574-5.625 17.8-3.163 21.474 4.675 3.025 5.525 1.175 12.15-2.512 16.85.575-3.65 1.337-7.7-.925-10.963-3.188-5.537-11.463-6.862-16.2-2.575-3.988 3.15-4.638 8.8-2.825 13.325-6.1-5.625-5.688-16.337.987-21.312m6.438 13.825c3.55-2.088 8.612.687 8.787 4.787.713 4.538-4.762 8.288-8.725 5.988-4.35-1.9-4.387-8.85-.062-10.775m-158.95 213.35c-20.125-50.05-14.9-109.388 13.838-155.063 1.837 2.438 3.637 4.913 5.437 7.375-24.075 38.288-31.263 86.563-19.675 130.25 3.65 13.988 9.163 27.475 16.288 40.05-10.45-20.95-16.925-43.95-17.863-67.4-1.712-33.912 7.663-68.175 26.138-96.65 2.025 2.25 4.037 4.525 6.075 6.788-15.788 25.162-24.838 55.05-23.425 84.85.375-28.975 10.475-57.388 26.6-81.288 1.575 1.413 3.112 2.888 4.65 4.375-26.013 35.538-34.975 82.738-24.088 125.388 8.7 35.4 30.95 67.025 60.875 87.75-33.775-19.225-60.6-50.288-74.85-86.425m302.713-146.825c2-2.638 3.937-5.325 5.862-8.013 21.813 35.1 30.3 78.138 23.563 118.9-8.213 52.55-42.325 100.5-89.625 124.938 36.075-23.075 61.5-62.063 67.65-104.488 5.937-38.4-3.663-78.887-26.35-110.437 1.662-1.65 3.337-3.288 5.012-4.925 9.2 13.712 16.663 28.75 20.825 44.787-3.075-16.687-10.125-32.437-18.775-46.937 2.488-2.65 4.9-5.388 7.275-8.138 27.113 41.338 33.738 95.338 17.225 141.938-.775 1.662-1.512 3.412-1.2 5.312 9.263-23.625 14.425-49.175 12.85-74.662-1.375-27.588-9.875-54.738-24.312-78.275M942.8 752.3c2.5 2.113 5.038 4.213 7.588 6.3-16.213 22.863-24.9 50.925-24.413 78.95.288 39.725 19.663 78.65 51 103.013 30.625 24.437 72.338 33.975 110.588 25.575 38.575-8.025 72.725-34.313 90.612-69.388 16.538-31.725 19.325-70.187 7.763-104.025-3.988-11.925-9.85-23.15-16.888-33.55 2.763-2.112 5.45-4.337 8.125-6.575 21.15 29.75 30.25 67.713 24.825 103.813-5.65 40.612-29.912 78.012-64.45 100.037-30.012 19.513-67.475 26.9-102.687 20.625-35.363-6.075-67.975-26.162-89.55-54.8-24-31.312-33.9-72.8-26.938-111.612 3.638-20.963 12.138-41.013 24.425-58.363m20.338 17.888c.525-.588 1.562-1.763 2.087-2.338-.55 3.975-2.125 7.7-3.075 11.588-5.225 20.662-3.725 42.987 4.388 62.712 8.175 20.125 23.112 37.388 41.8 48.45 18.35 10.988 40.275 15.713 61.537 13.513 32.013-3.013 61.75-22.65 77.325-50.725 12.95-22.8 16.3-50.788 9.225-76.025-.8-2.975-2.062-5.888-2.062-9 3.612 4.3 5.125 9.887 7.125 15.05 11.862 33.975 5.125 73.662-17.488 101.687-21.687 27.825-57.675 43.613-92.85 40.538-35.725-2.425-69.225-24.263-86.175-55.75-16.812-30.288-17.587-68.838-1.837-99.7M946.4 883.538c-17.025-35.513-15.862-79.138 3.288-113.588-11 25.388-13.088 54.538-5.45 81.175 9.45 33.975 34.787 63.025 67.112 77.138 31.838 14.25 69.913 13.55 101.213-1.875 28-13.538 50.287-38.388 60.637-67.738 10.313-28.425 8.913-60.587-2.775-88.312 2.138 1.712 2.05 4.775 3.4 7.05 14.988 31.937 15.338 70.3 1.163 102.587-10.375 23.988-28.5 44.5-50.963 57.838-27.7 16.662-61.962 21.775-93.362 14.187-36.538-8.512-68.388-34.5-84.263-68.462m24.925-107.4c.25-1.575 1.163-2.6 2.725-3.113.038 4-.962 7.9-1.287 11.875-2 20.65 3.675 41.938 15.75 58.813 11.45 16.212 28.562 28.337 47.687 33.675 18.013 5.1 37.675 4.237 55.163-2.5 18.55-7.063 34.512-20.675 44.45-37.863 9.137-15.637 13.162-34.15 11.425-52.162-.363-3.825-1.113-7.6-1.4-11.425.55.212 1.625.637 2.162.837 6.438 20.138 5.45 42.525-2.475 62.1-12.2 30.9-42.263 53.8-75.35 57.1-20.15 2.288-41.025-2.312-58.3-12.962-16.75-10.213-30.1-25.913-37.437-44.125-7.738-18.988-8.763-40.563-3.113-60.25m10.213 1.937c.537.25 1.625.75 2.162.988-.737 6.087-1.8 12.275-.85 18.412-1.95-6.262-1.45-12.937-1.312-19.4m154.075 1.213c.575-.088 1.712-.25 2.275-.325.175 6.325-.038 12.675-1.188 18.925.075-6.225-.2-12.438-1.087-18.6M992.5 783.063c1.25.437 2.5.887 3.762 1.35-2.025 7.725-2.925 15.675-2.962 23.662-1.513-8.25-1.988-16.7-.8-25.012m131.112 1.687c1.288-.562 2.6-1.1 3.925-1.637 1.25 8.587.475 17.275-.725 25.825-.4-8.138-.762-16.35-3.2-24.188m-117.9 3.125c1.763.5 3.525 1.025 5.3 1.55-4.487 9.225-6.45 19.613-5.475 29.85-3.012-10.212-2.662-21.2.175-31.4m102.525 1.863c1.988-.588 3.988-1.188 6.013-1.763 3.375 11.725 2.913 24.4-1.137 35.9 1.6-11.575.324-23.587-4.876-34.137m-95.825 36.487c-2.075-11.912.688-24.425 7.288-34.525 3.3.713 6.612 1.388 9.937 2-9.687 9.688-14.525 23.988-12.187 37.55 1.487 10.275 7.212 19.5 14.887 26.338-10.437-7.288-17.9-18.763-19.925-31.363m77.875-32.3c3.05-.737 6.1-1.362 9.188-2 12.2 18.013 9.988 44.513-5.888 59.6 4.188-6.15 7.775-12.875 8.788-20.35 2.262-13.425-2.413-27.7-12.088-37.25m-63.475 20.65c4.063-8.55 11.575-15.7 20.688-18.55 7.975-.112 15.975-.137 23.95.025 14.275 4.4 24.35 19.075 24.125 33.913.137 10.587-4.9 20.837-12.85 27.725 3.45-4.6 6.75-9.55 7.813-15.325 2.812-12.163-2.438-25.65-12.713-32.725-9.925-7.213-24.1-7.763-34.563-1.388-11.175 6.45-17.537 20.138-15.1 32.838.888 6.212 4.238 11.662 8.063 16.512-12.287-10.15-16.45-28.675-9.412-43.025m19.087 3.813c7.588-5.338 18.325-5.613 26.163-.625 7.937 4.762 12.537 14.437 11.2 23.6-.588 5.2-3.25 9.875-6.575 13.8 1.912-4.363 3.787-9 3.012-13.863-.925-9.812-9.887-18.025-19.762-18.025-9.8-.475-19.113 7.188-20.576 16.888-1.112 5.212.675 10.387 2.9 15.05-3.087-3.738-5.724-8-6.437-12.863-1.725-9.062 2.425-18.837 10.075-23.962m1.725 21.825c4.85-7.988 17.587-8.438 23.012-.838 4.726 5.738 3.313 14.188-1.45 19.438 1.313-4.225 1.663-9.263-1.612-12.7-4.45-5.55-14.112-4.675-17.475 1.587-2.25 3.338-1.387 7.425-.537 11.075-4.338-5.075-6.025-12.837-1.938-18.562m11.338 9.962c4.612-.9 8.562 4.638 6.237 8.713-1.775 3.937-7.837 4.475-10.25.9-2.837-3.425-.412-9.238 4.013-9.613z" fill="#fff" stroke="#fff" stroke-width=".1175"/><path d="M987.362 397.163c46.713-17 99.438-16.788 146 .612 36 13.325 68.163 36.725 92.05 66.763 23.85 29.825 39.4 66.225 44.313 104.1 6.737 49.737-4.913 101.687-32.45 143.675 26.812 40.425 38.875 90.237 33.762 138.462-4.175 41.813-21.312 82.188-48.387 114.325-28.288 33.862-67.388 58.562-110.2 69.337-53.375 13.688-112.013 5.6-159.463-22.512-36.975-21.612-67.112-54.675-85.15-93.513-18.962-40.412-24.437-86.9-15.775-130.675 5.2-26.462 15.55-51.9 30.3-74.462-23.687-35.9-36.062-79.088-34.825-122.1.963-43.563 15.913-86.65 42.1-121.475 24.613-32.988 59-58.588 97.725-72.538m-58.6 71.688c-28.787 25.325-50.05 59.112-60.187 96.112-13.6 49-7.638 103.263 17.025 147.813-3.55 7.037-7.125 14.062-9.988 21.412-17.775 44.1-18.837 94.625-3.062 139.475 12.462 35.775 35.512 67.738 65.4 91.013 31.537 24.737 70.737 39.525 110.762 41.662 45.5 2.75 91.775-10.787 128.5-37.812 35.025-25.475 61.35-62.688 73.5-104.288 14.875-49.975 8.963-105.65-16.075-151.387 27.3-49.388 31.613-110.613 12.013-163.475-14.788-40.513-43.263-75.8-79.625-98.975-35.9-23.1-79.425-33.938-121.975-30.613-42.75 3.063-84.237 20.638-116.287 49.063m26.25 4.962c29.837-21.775 66.674-34.425 103.712-33.95 46.537-1.262 92.912 17.888 126.013 50.425 28.837 27.95 47.7 65.925 52.437 105.813 5.112 40.7-4.387 83.025-26.475 117.6 18.438 29.337 28.025 64.125 27.163 98.762-.776 45.088-19.588 89.525-51.463 121.425-29.925 30.575-71.238 49.638-113.938 52.525-16.962.488-34.087.388-50.687-3.55-43.338-9.15-82.625-35.387-108.038-71.6-23.075-32.45-34.537-72.8-32.262-112.525 1.525-30.475 11.337-60.312 27.512-86.125-26.075-41.112-33.875-93.162-21.312-140.175 10.162-39.35 34.525-74.712 67.337-98.625M995 458.738c-39.975 16.237-73.325 48.025-91.475 87.162-19.675 41.725-21.5 91.375-5.088 134.463 13.938 36.812 40.7 69.062 75.113 88.337-39.213-27.025-64.138-73.5-64.55-121.187-1.138-43.763 18.2-87.363 51.15-116.138 32.825-29.35 78.912-42.912 122.425-36.162 44.25 6.312 84.762 33.65 107.462 72.1 20.85 34.525 26.713 77.55 16.25 116.462-9.525 36.25-33.212 68.438-64.837 88.525 42.375-21.987 74.55-62.525 86.6-108.712 10.45-39.338 6.562-82.338-11.1-119.038-18.088-38.112-50.6-69.1-89.55-85.287-41.763-17.613-90.5-17.8-132.4-.525m49.362 43.512C998.938 507.025 956.95 535.213 935 575.2c-22.837 40.35-24.075 91.9-3.3 133.338 18.425 37.737 54.2 66.487 95.113 76.112 39.4 9.663 82.762 1.638 115.912-21.812C1177.238 739 1200.3 699.4 1203.65 657.55c3.925-41.825-11.8-84.9-41.763-114.35-30.275-30.575-74.8-46.05-117.525-40.95M898.825 873.538c14.25 36.137 41.075 67.2 74.85 86.425-29.925-20.725-52.175-52.35-60.875-87.75-10.888-42.65-1.925-89.85 24.087-125.388-1.537-1.487-3.075-2.963-4.65-4.375-16.125 23.9-26.225 52.313-26.6 81.287-1.412-29.8 7.638-59.687 23.425-84.85-2.037-2.262-4.05-4.537-6.075-6.787-18.475 28.475-27.85 62.737-26.137 96.65.937 23.45 7.412 46.45 17.862 67.4-7.125-12.575-12.637-26.063-16.287-40.05-11.588-43.688-4.4-91.962 19.675-130.25-1.8-2.462-3.6-4.938-5.438-7.375-28.737 45.675-33.962 105.013-13.837 155.063m302.712-146.825c14.438 23.537 22.938 50.687 24.313 78.275 1.575 25.487-3.588 51.037-12.85 74.662-.313-1.9.425-3.65 1.2-5.312 16.512-46.6 9.887-100.6-17.225-141.938-2.375 2.75-4.788 5.488-7.275 8.138 8.65 14.5 15.7 30.25 18.775 46.937-4.163-16.037-11.625-31.075-20.825-44.787a931.172 931.172 0 0 0-5.013 4.925c22.688 31.55 32.288 72.037 26.35 110.437-6.15 42.425-31.575 81.413-67.65 104.488 47.3-24.438 81.413-72.388 89.625-124.938 6.738-40.762-1.75-83.8-23.562-118.9-1.925 2.688-3.863 5.375-5.863 8.013M942.8 752.3c-12.288 17.35-20.788 37.4-24.425 58.362-6.963 38.813 2.937 80.3 26.937 111.613 21.575 28.637 54.188 48.725 89.55 54.8 35.213 6.275 72.675-1.113 102.688-20.625 34.537-22.025 58.8-59.425 64.45-100.038 5.425-36.1-3.675-74.062-24.825-103.812-2.675 2.237-5.363 4.462-8.125 6.575 7.037 10.4 12.9 21.625 16.887 33.55 11.563 33.837 8.775 72.3-7.762 104.025-17.888 35.075-52.038 61.362-90.613 69.387-38.25 8.4-79.962-1.137-110.587-25.575-31.338-24.362-50.713-63.287-51-103.012-.488-28.025 8.2-56.088 24.412-78.95a633.525 633.525 0 0 1-7.587-6.3m20.337 17.887c-15.75 30.863-14.975 69.413 1.838 99.7 16.95 31.488 50.45 53.325 86.175 55.75 35.175 3.075 71.162-12.712 92.85-40.537 22.612-28.025 29.35-67.713 17.487-101.688-2-5.162-3.512-10.75-7.125-15.05 0 3.113 1.263 6.025 2.063 9 7.075 25.238 3.725 53.225-9.225 76.025-15.575 28.075-45.313 47.713-77.325 50.725-21.263 2.2-43.188-2.525-61.538-13.512-18.687-11.063-33.625-28.325-41.8-48.45-8.112-19.725-9.612-42.05-4.387-62.713.95-3.887 2.525-7.612 3.075-11.587-.525.575-1.563 1.75-2.088 2.337M946.4 883.537c15.875 33.963 47.725 59.95 84.262 68.463 31.4 7.587 65.663 2.475 93.363-14.188 22.462-13.337 40.587-33.85 50.962-57.837 14.175-32.288 13.825-70.65-1.162-102.588-1.35-2.275-1.263-5.337-3.4-7.05 11.687 27.725 13.087 59.888 2.775 88.313-10.35 29.35-32.638 54.2-60.638 67.737-31.3 15.425-69.375 16.125-101.212 1.875-32.325-14.112-57.663-43.162-67.113-77.137-7.637-26.638-5.55-55.788 5.45-81.175-19.15 34.45-20.312 78.075-3.287 113.587m24.925-107.4c-5.65 19.688-4.625 41.263 3.112 60.25 7.338 18.213 20.688 33.913 37.438 44.125 17.275 10.65 38.15 15.25 58.3 12.963 33.087-3.3 63.15-26.2 75.35-57.1 7.925-19.575 8.912-41.963 2.475-62.1-.538-.2-1.613-.625-2.163-.838.288 3.825 1.038 7.6 1.4 11.425 1.738 18.013-2.287 36.525-11.425 52.163-9.937 17.187-25.9 30.8-44.45 37.862-17.487 6.738-37.15 7.6-55.162 2.5-19.125-5.337-36.238-17.462-47.688-33.675-12.075-16.875-17.75-38.162-15.75-58.812.325-3.975 1.325-7.875 1.288-11.875-1.563.512-2.475 1.537-2.725 3.112m10.212 1.938c-.137 6.462-.637 13.137 1.313 19.4-.95-6.138.112-12.325.85-18.413a165.68 165.68 0 0 1-2.163-.987m154.075 1.212c.888 6.163 1.163 12.375 1.088 18.6 1.15-6.25 1.362-12.6 1.187-18.925-.562.075-1.7.238-2.275.325M992.5 783.062c-1.188 8.313-.712 16.763.8 25.013.037-7.988.938-15.938 2.963-23.663a275.837 275.837 0 0 0-3.763-1.35m131.112 1.688c2.438 7.837 2.8 16.05 3.2 24.187 1.2-8.55 1.976-17.237.726-25.825a160.73 160.73 0 0 0-3.926 1.638m-117.9 3.125c-2.837 10.2-3.187 21.187-.175 31.4-.975-10.238.988-20.625 5.475-29.85-1.774-.525-3.537-1.05-5.3-1.55m102.526 1.862c5.2 10.55 6.475 22.563 4.875 34.138 4.05-11.5 4.512-24.175 1.137-35.9-2.025.575-4.025 1.175-6.012 1.762m-95.825 36.488c2.025 12.6 9.487 24.075 19.925 31.362-7.675-6.837-13.4-16.062-14.888-26.337-2.338-13.563 2.5-27.863 12.188-37.55a332.663 332.663 0 0 1-9.938-2c-6.6 10.1-9.363 22.612-7.287 34.525m77.875-32.3c9.674 9.55 14.35 23.825 12.087 37.25-1.013 7.475-4.6 14.2-8.787 20.35 15.875-15.088 18.087-41.588 5.887-59.6-3.087.637-6.137 1.262-9.187 2m-63.475 20.65c-7.038 14.35-2.875 32.875 9.412 43.025-3.825-4.85-7.175-10.3-8.062-16.513-2.438-12.7 3.925-26.387 15.1-32.837 10.462-6.375 24.637-5.825 34.562 1.387 10.275 7.075 15.525 20.563 12.713 32.725-1.063 5.775-4.363 10.725-7.813 15.325 7.95-6.887 12.988-17.137 12.85-27.725.225-14.837-9.85-29.512-24.125-33.912-7.975-.163-15.975-.138-23.95-.025-9.113 2.85-16.625 10-20.688 18.55m19.088 3.812c-7.65 5.125-11.8 14.9-10.075 23.963.712 4.862 3.35 9.125 6.438 12.862-2.225-4.662-4.013-9.837-2.9-15.05 1.462-9.7 10.774-17.362 20.574-16.887 9.876 0 18.838 8.212 19.763 18.025.775 4.862-1.1 9.5-3.013 13.862 3.326-3.925 5.988-8.6 6.576-13.8 1.337-9.162-3.263-18.837-11.2-23.6-7.838-4.987-18.576-4.712-26.163.625m1.725 21.825c-4.088 5.725-2.4 13.488 1.938 18.563-.85-3.65-1.713-7.738.537-11.075 3.362-6.263 13.025-7.138 17.475-1.588 3.275 3.438 2.925 8.475 1.612 12.7 4.763-5.25 6.175-13.7 1.45-19.437-5.425-7.6-18.162-7.15-23.012.837m11.337 9.963c-4.425.375-6.85 6.187-4.012 9.612 2.412 3.575 8.475 3.038 10.25-.9 2.325-4.075-1.625-9.612-6.238-8.712M149.225 489.087c35.4-22.837 77.313-35.862 119.538-35.425 24.287.15 49.625 3.863 70.437 17.188 10.013 6.237 18.688 15.362 22.313 26.787 4.937 15.6 1.937 33.813-8.663 46.45-8.075 9.913-20.15 16.688-33.013 17.45-10.787.975-21.062-3.55-30.337-8.55-5.537-3.15-11.837-5.25-18.275-4.937-27.912.625-54.95 11.037-78.025 26.35-30.325 21.087-53.887 52.062-65.462 87.187 19.912-12.637 42.162-22.262 65.825-24.6 32.475-3.762 66.225 3.95 93.437 22.2 29.425 19.8 53.4 48.338 65.863 81.7 9.212 24.35 12.462 50.675 11.425 76.6-.913 22.363-5.738 44.738-15.613 64.9-9.975 20.388-24.8 38.488-43.275 51.725-18.9 13.775-41.275 22.363-64.262 26.263-20.925 3.538-42.35 3.813-63.413 1.363-26.437-3.15-52.525-12.063-74.012-28.026-27.863-19.987-46.363-50.45-57.775-82.3-11.175-31.45-17.4-64.537-19.95-97.775-2.038-28.312-2.113-56.912 2.137-85.037 4.95-33.388 16.188-66.15 35.038-94.288 22.962-33.475 51.812-63.25 86.062-85.225m1.913 12c-32.313 21.65-59.525 50.463-80.988 82.788-24.837 38.8-34.25 85.55-34.425 131.113-.15 34.037 3.125 68.2 11.275 101.3C52.313 837.775 59.4 859 70.213 878.4c9.512 17.2 22.112 32.888 37.862 44.763 16.563 12.775 36.275 21.112 56.725 25.237 21.463 4.325 43.625 4.85 65.35 2.388 23.013-2.713 45.738-10.025 65.025-23.05 20.85-13.825 37.1-34.188 46.713-57.225 8.987-21.413 12.1-44.9 11.412-68-.625-25.563-6.2-51.25-18.062-74.013-9.838-19.112-24.025-35.75-40.35-49.625-16.775-14.2-36.888-24.662-58.5-29.037-23.338-4.663-48.013-3.288-70.425 4.862-21.25 7.738-40.15 20.688-57.263 35.263 6.2-31.513 18.2-62.45 38.738-87.45 25.625-33.175 63.575-56.85 105.025-63.863 11.925-1.687 24.675-3.412 36.075 1.575 8.637 3.838 16.8 9.55 26.487 10.3 14.125.913 27.65-8.025 33.825-20.475 4.6-9.625 5.275-21.287 1.288-31.225-4.15-10.3-13.525-17.237-23.063-22.212-19.825-10.125-42.637-12.213-64.575-11.825-39.65.837-78.587 14.175-111.362 36.3m329.425 3.162c28.862-29.075 68.712-45.937 109.262-49.675 29.375-2.612 59.6.163 87.288 10.738 32.162 12.175 59.737 35.5 78.05 64.512 14.575 23.1 21.9 50.413 22 77.663.437 27.537-7.175 55.375-22.775 78.187-11.713 17.1-25.863 32.338-40.325 47.125-27.7 27.8-57.413 53.475-86.7 79.563-16.825 14.837-33.75 29.587-50.663 44.325 41.588.012 83.188 0 124.775 0 8.025-5.725 17.237-10.475 27.287-10.85 12.988-.588 26.576 3.862 35.388 13.712 10.3 11.2 13.113 27.025 13.625 41.738.163 13.287.063 26.587.05 39.887.3 6.188-5.387 11.65-11.538 11.25-110.037.025-220.087.013-330.137 0-6.138.425-11.887-5-11.6-11.187-.063-25.413 0-50.825-.038-76.225-.25-3.788 1.175-7.663 4.225-10.013 37.413-31.312 74.7-62.787 111.588-94.725 33.387-29.025 66.7-58.175 98.55-88.9 11.075-11.012 22.575-21.787 31.788-34.462 6.812-9.638 12.212-21.113 11.387-33.188-.787-17.05-11.762-32.05-25.35-41.575-17.575-11.95-39.9-14.15-60.55-12.025-22.512 2.475-45.412 14.25-56.125 34.925-6.075 10.425-7.762 22.838-14.687 32.813-4.438 6.825-10.888 12.375-18.55 15.237-14.725 5.613-32.338 4.612-45.588-4.263-11.775-7.9-20.512-20.875-21.65-35.2-1.062-13.737 3.075-27.25 8.425-39.737 8.038-18.162 18.425-35.563 32.588-49.65m77.675-32.55c-36.888 10.462-71.3 33.663-90.375 67.487-8.4 14.925-16.363 30.925-17.388 48.313-1.325 18.813 14.738 36.488 33.363 37.8 10.687.862 22.787-1.65 29.862-10.35 8.137-9.538 9.513-22.538 15.563-33.238 10.262-21.4 31.85-35.587 54.575-40.7 18.475-4.012 38.012-3.662 56.262 1.363 20.025 5.475 37.563 19.5 46.988 38.037 6.887 13.65 8.212 30.2 2.575 44.513-7.138 18.962-22.063 33.313-35.988 47.438-32.175 31.712-66.175 61.474-100.187 91.174-38.938 33.75-78.238 67.075-117.825 100.05-.175 25.888.037 51.775-.113 77.663 110.413.325 220.813.05 331.225.137 0-12.112.025-24.237-.012-36.35-.225-11.95-1.375-24.7-8.25-34.875-6.263-9.237-17.7-13.687-28.588-13.275-9.387.15-17.562 5.463-24.8 10.913-52.65-.1-105.3.125-157.95-.112 23.425-20.475 46.988-40.813 70.313-61.388 29.312-26.075 59.037-51.762 86.862-79.45 13.913-14.088 27.513-28.6 39.038-44.738 13.287-18.437 20.912-40.737 22.375-63.362 1.775-26.513-3.413-53.712-16.425-76.988-19.363-34.512-52.813-61.024-91.213-70.987-32.575-8.412-67.462-8.125-99.887.925M936.6 511.588c29.025-32.388 71.175-52.6 114.663-54.675 42.237-2.463 85.125 12.087 117.15 39.75 28.925 24.637 49.037 59.437 55.65 96.887 5.45 30.675 2.475 63.013-9.463 91.85-.2 1.563-.887 2.988-1.625 4.363-.3-3.063 1.888-5.425 2.688-8.213 12.912-38.987 10.362-82.862-7.125-120.037-17.063-36.788-48.35-66.688-85.888-82.013-41.087-17.062-89.188-16.225-129.625 2.363-36.862 16.65-67.012 47.537-82.737 84.8-17.425 40.575-17.263 88.25.4 128.712 2.1 2.638 3.95 5.863 3.887 9.35-12.525-23.362-20.15-49.5-20.862-76.062-1.6-42.638 14.125-85.563 42.887-117.075m376.713-34.063c-.475-6.362 5.337-12.087 11.675-11.612 105.025-.013 210.05-.013 315.075 0 6.325-.5 12.15 5.187 11.725 11.537-.138 25 .287 50.013-.213 74.988-38.85 117.662-78.313 235.15-117.387 352.737-4.288 12.625-9.138 25.713-18.638 35.413-13.213 12.575-33.988 14.925-50.55 8.187-13.762-5.612-24.575-18.112-27.925-32.612-2.988-13.188 1.313-26.488 4.988-39.075 35.587-105.15 71.274-210.275 106.862-315.425-46.988-.013-93.963 0-140.938-.013-1.112 13.013-4.312 26.763-13.7 36.425-17.037 19.4-50.987 18.325-67.725-.938-10.374-11.312-12.7-27.387-13.187-42.15-.15-25.812-.037-51.637-.063-77.462m11.063-.55c.025 25.625-.063 51.25.05 76.875.4 11.463 1.525 23.775 8.35 33.438 12.15 17.062 40.95 18.775 54.275 2.262 8.8-10.137 9.813-24.337 10.225-37.15-.613-2.675 2.575-1.637 4.025-1.875 54.363.125 108.725-.037 163.1.088-37.188 109.587-74.3 219.2-111.45 328.8-2.588 8.337-5.113 16.825-5.788 25.575-.85 13.087 7.213 25.7 18.55 31.862 13.3 7.163 31.638 6.125 42.663-4.775 7.562-8.35 11.45-19.212 15.05-29.7 38.937-116.95 78-233.85 116.862-350.812.925-24.813.163-49.75.375-74.613-105.425.038-210.85 0-316.287.025m-314.45 8.113c43.062-14.875 92.637-9.225 131.1 15.237 33.425 20.938 58.775 55.175 67.475 93.775-11.513-38.2-38.563-71.312-73.563-90.425-41.825-23.287-94.6-25.287-138.087-5.325-43.975 19.625-77.525 60.9-87.45 108.05-2.075 8.65-2.538 17.563-3.888 26.338.525-21.938 4.238-44 13.35-64.088 16.975-38.912 50.813-70.025 91.063-83.562m34.55 23.375c35.575-5.038 72.975 7.1 98.875 31.962 16 13.075 29.3 29.563 37.937 48.375 16.8 35.725 16.45 78.963-.95 114.413-17.025 35.537-50.562 62.65-88.962 71.612-37.938 9.287-79.775.825-110.95-22.75-18.063-13.425-32.638-31.488-41.9-52-10.3-22.587-13.988-48.1-10.713-72.688 3.313-25.587 14.363-50.087 31.263-69.574 8.562-10.275 19.275-18.363 29.687-26.638 16.238-12.138 35.613-20.05 55.713-22.713m-9.313 10.638c-17.212 5.737-32.212 17.725-41.687 33.188-9.9 16.05-13.925 35.837-10.288 54.4-1.612-25.475 10.525-51.2 31.138-66.213 16.425-12.313 37.9-17.463 58.137-14.138 18.188 2.85 35.15 12.575 46.888 26.738 12.6 15.025 19.312 35.062 17.562 54.65 3.063-13.763 1.488-28.375-3.3-41.563-6.937-18.987-21.575-34.962-39.862-43.587-18.1-8.688-39.588-9.938-58.588-3.475m7.188 17.625c-18.05 4.9-33.738 17.662-42.313 34.262-7.4 14.25-9.762 31.275-5.75 46.888-1.65-20.738 7.475-41.85 23.425-55.138 13.913-11.875 32.888-17.512 51.025-15.162 18.338 2.15 35.475 12.475 46.075 27.562 8.825 12.275 12.95 27.6 12.163 42.65 3.375-14.325 1.875-29.737-4.15-43.15-6.475-14.587-18.275-26.725-32.65-33.625-14.725-7.162-32.063-8.687-47.825-4.287m-31.713 50.212c-7.075 12.763-7.95 27.988-4.962 42.05.337-6.325.175-12.737 1.862-18.9 3.838-15.8 15.275-29.5 30.088-36.2 15.35-7.112 34.037-6.425 48.8 1.875 14.525 7.963 25 22.9 27.362 39.325 1.038 5.85.288 11.8.413 17.713 1.462-6.263 2.987-12.6 2.9-19.075.162-15.875-6.838-31.6-18.663-42.175-12.25-11.188-29.587-16.45-45.987-13.975-17.563 2.387-33.55 13.7-41.813 29.362m-33.462 63.75c9.475 20.113 26.5 36.538 46.95 45.263 17.912 7.762 38.325 9.537 57.337 5.1 21.788-4.95 41.488-18.288 54.375-36.538 12.488-17.462 18.463-39.4 16.663-60.787-1.163-15.513-6.563-30.538-14.963-43.575 10.288 19.512 13.55 42.75 7.888 64.162-5.9 23.325-21.938 43.8-43.113 55.188-15.887 8.687-34.5 12.112-52.45 9.912-19.962-2.35-38.937-11.95-52.75-26.537-14.812-15.425-23.612-36.45-24.137-57.838-.6-15.612 3.475-31.125 10.662-44.925-17.662 26.388-20.325 61.963-6.462 90.575m-24.725-23.162c-.138 24.037 8.162 47.987 23.1 66.8 14.8 18.825 36.025 32.525 59.337 38.05 23.688 5.75 49.325 3.175 71.338-7.325 21.4-10.075 39.262-27.45 49.962-48.538 17.438-33.6 15.238-76.462-5.962-107.887 13.075 26.587 14 58.912 1.687 85.95-9.375 21.062-26.25 38.675-46.912 48.925-18.05 9.062-38.888 12.4-58.875 9.562-23.2-3.175-45.05-14.862-60.65-32.3-15.35-16.937-24.613-39.25-25.663-62.087-1.037-17.225 2.963-34.4 10.15-49.988-11.35 17.375-17.587 38.063-17.512 58.838m-2.638-47.563c-12.35 23.613-17.387 51.013-13.45 77.425 5.55 40.738 32.775 77.55 69.913 95.113 37.912 18.537 85.175 15.95 120.787-6.725 31.25-19.363 53.163-53.05 57.838-89.55 3.65-26.013-1.463-52.875-13.5-76.138 3.5 10.138 7.012 20.35 8.275 31.075 3.737 26.713-1.825 54.65-15.675 77.813-15.613 26.5-41.775 46.562-71.475 54.612-24.588 6.8-51.325 5.513-75.125-3.675-22.163-8.5-41.663-23.75-55.275-43.187-15.163-21.45-22.9-47.975-21.7-74.213.412-14.65 4.262-28.9 9.387-42.55m70.9 20.713c-7.587 10.95-10.2 25.162-7.037 38.1 2.625 11.05 9.325 21.125 18.637 27.65-11.775-10.475-17.5-27.325-13.587-42.725 4.187-18.7 22.162-33.075 41.362-32.938 19.488-.587 38.025 13.888 42.275 32.9 3.288 12.675-.225 26.188-7.625 36.738 10.5-10.363 15-26.138 12.563-40.588-2.113-13.375-10.338-25.587-21.838-32.712-9.412-5.938-20.95-8.375-31.95-6.788-13.162 1.75-25.362 9.388-32.8 20.363m4.038 31.65c-2.588 12.375 2.025 25.887 11.6 34.137-5.275-6.775-8.775-15.212-7.888-23.925.85-14.25 12.475-26.887 26.6-28.912 14.425-2.663 29.75 6.237 34.775 19.962 4.438 11 1.65 23.875-5.9 32.813 11.05-9.25 15.188-25.525 10.288-39.013-5.025-15.037-20.825-25.475-36.638-24.062-15.837.875-30.012 13.412-32.837 29m12.225 9.05c-2.288 7.937.212 16.662 5.612 22.775-1.587-4.113-3.337-8.4-2.725-12.913.638-9.687 9.125-18 18.8-18.525 10.3-1 20.388 7.088 21.663 17.35.937 4.9-.8 9.688-2.663 14.138 6.213-6.788 8.388-17.075 4.75-25.625-3.812-9.763-14.525-16.2-24.925-14.838-9.6.95-18.137 8.288-20.512 17.638m14.362 4.987c-6.675 4.975-7.087 15.688-.987 21.313-1.813-4.525-1.163-10.175 2.825-13.325 4.737-4.288 13.012-2.963 16.2 2.575 2.262 3.262 1.5 7.312.925 10.962 3.687-4.7 5.537-11.325 2.512-16.85-3.675-7.837-14.9-10.3-21.475-4.675m6.438 13.825c-4.325 1.925-4.288 8.875.062 10.775 3.963 2.3 9.438-1.45 8.725-5.987-.175-4.1-5.237-6.875-8.787-4.788m-864.75 63.088c15.05-4.975 31.962-2.213 45.5 5.687 20.675 12.163 35.375 33.638 39.887 57.15 3.325 17.713 3.238 36.713-3.8 53.55-6.55 15.688-20 28.213-36.037 33.8-15.663 5.663-32.713 5.975-49.113 4.3-17.3-1.95-35.162-8.325-46.537-22.125-12.238-14.887-18.55-33.562-23.538-51.9 8.75-21.075 20.525-41.312 37.238-57.075 10.6-9.837 22.487-18.887 36.4-23.387m-24.563 27.637c-16.837 14.35-28.775 33.588-37.387 53.775 5.15 17.025 11.062 34.913 24.012 47.725 14.088 12.75 34.163 15.288 52.438 15.15 17.65-.062 36.712-4.95 48.562-18.912 12.538-14.163 14.738-34.325 12.7-52.438-1.925-19.85-11.587-38.962-27.15-51.587-11.337-9.7-27.05-15.2-41.887-11.725-11.888 2.887-22.138 10.137-31.288 18.012z" stroke="#000" stroke-width=".1175"/><path d="M928.763 468.85c32.05-28.425 73.537-46 116.287-49.063 42.55-3.324 86.075 7.513 121.975 30.613 36.362 23.175 64.837 58.463 79.625 98.975 19.6 52.862 15.287 114.087-12.013 163.475 25.038 45.738 30.95 101.412 16.075 151.387-12.15 41.6-38.475 78.813-73.5 104.288-36.725 27.025-83 40.563-128.5 37.813-40.025-2.138-79.225-16.925-110.762-41.663-29.888-23.275-52.938-55.237-65.4-91.013-15.775-44.85-14.713-95.375 3.062-139.475 2.863-7.35 6.438-14.375 9.988-21.412-24.663-44.55-30.625-98.813-17.025-147.813 10.137-37 31.4-70.787 60.187-96.112m26.25 4.962c-32.812 23.913-57.175 59.275-67.337 98.625-12.563 47.013-4.763 99.063 21.312 140.175-16.175 25.813-25.987 55.65-27.512 86.125-2.275 39.725 9.187 80.075 32.262 112.525 25.413 36.213 64.7 62.45 108.038 71.6 16.6 3.938 33.725 4.038 50.687 3.55 42.7-2.887 84.013-21.95 113.938-52.525 31.875-31.9 50.687-76.337 51.462-121.425.863-34.637-8.725-69.425-27.162-98.762 22.088-34.575 31.587-76.9 26.475-117.6-4.737-39.888-23.6-77.863-52.438-105.813-33.1-32.537-79.475-51.687-126.012-50.425-37.038-.475-73.875 12.175-103.713 33.95m-803.875 27.275c32.775-22.125 71.713-35.462 111.363-36.3 21.937-.387 44.75 1.7 64.575 11.825 9.537 4.975 18.912 11.913 23.062 22.213 3.988 9.937 3.313 21.6-1.287 31.225-6.175 12.45-19.7 21.387-33.825 20.475-9.688-.75-17.85-6.463-26.488-10.3-11.4-4.988-24.15-3.263-36.075-1.575-41.45 7.012-79.4 30.687-105.025 63.862-20.537 25-32.537 55.938-38.737 87.45 17.112-14.575 36.012-27.525 57.262-35.262 22.413-8.15 47.088-9.525 70.425-4.863 21.613 4.375 41.725 14.838 58.5 29.038 16.325 13.875 30.513 30.512 40.35 49.625 11.863 22.762 17.438 48.45 18.063 74.012.687 23.1-2.425 46.588-11.413 68-9.612 23.038-25.862 43.4-46.712 57.225-19.288 13.025-42.013 20.338-65.025 23.05-21.725 2.463-43.888 1.938-65.35-2.387-20.45-4.125-40.163-12.463-56.725-25.238-15.75-11.875-28.35-27.562-37.863-44.762C59.4 859 52.312 837.775 47 816.287c-8.15-33.1-11.425-67.262-11.275-101.3.175-45.562 9.587-92.312 34.425-131.112 21.462-32.325 48.675-61.138 80.987-82.788m41.888 222.188c-13.913 4.5-25.8 13.55-36.4 23.387-16.713 15.763-28.488 36-37.238 57.075 4.988 18.338 11.3 37.013 23.538 51.9 11.375 13.8 29.237 20.175 46.537 22.125 16.4 1.675 33.45 1.363 49.113-4.3 16.038-5.587 29.488-18.112 36.037-33.8 7.038-16.837 7.125-35.837 3.8-53.55-4.512-23.512-19.212-44.987-39.887-57.15-13.538-7.9-30.45-10.662-45.5-5.687M558.237 471.7c32.425-9.05 67.313-9.338 99.888-.925 38.4 9.963 71.85 36.475 91.213 70.987 13.012 23.275 18.2 50.475 16.425 76.988-1.463 22.625-9.088 44.925-22.376 63.362-11.525 16.138-25.125 30.65-39.037 44.738-27.825 27.687-57.55 53.375-86.863 79.45-23.325 20.575-46.887 40.912-70.312 61.388 52.65.237 105.3.012 157.95.112 7.237-5.45 15.412-10.762 24.8-10.913 10.888-.412 22.325 4.038 28.588 13.275 6.874 10.175 8.024 22.925 8.25 34.875.037 12.113.012 24.238.012 36.35-110.412-.087-220.813.188-331.225-.137.15-25.888-.063-51.775.112-77.663 39.588-32.975 78.888-66.3 117.825-100.05 34.013-29.7 68.013-59.462 100.188-91.175 13.925-14.125 28.85-28.475 35.987-47.437 5.638-14.313 4.313-30.863-2.575-44.513-9.425-18.537-26.962-32.562-46.987-38.037-18.25-5.025-37.788-5.375-56.263-1.363-22.725 5.113-44.312 19.3-54.575 40.7-6.05 10.7-7.425 23.7-15.562 33.238-7.075 8.7-19.175 11.212-29.863 10.35-18.625-1.313-34.687-18.988-33.362-37.8 1.025-17.387 8.987-33.388 17.387-48.313 19.075-33.825 53.488-57.025 90.375-67.487m766.138 5.275c105.437-.025 210.862.012 316.287-.025-.212 24.863.55 49.8-.375 74.612-38.862 116.963-77.925 233.863-116.862 350.813-3.6 10.488-7.488 21.35-15.05 29.7-11.025 10.9-29.363 11.938-42.663 4.775-11.337-6.162-19.4-18.775-18.55-31.862.675-8.75 3.2-17.238 5.788-25.575 37.15-109.6 74.262-219.213 111.45-328.8-54.375-.126-108.738.037-163.1-.088-1.45.237-4.638-.8-4.025 1.875-.413 12.813-1.425 27.012-10.225 37.15-13.325 16.513-42.125 14.8-54.275-2.263-6.825-9.662-7.95-21.975-8.35-33.437-.113-25.625-.025-51.25-.05-76.875z" fill="#0053ff" stroke="#0053ff" stroke-width=".1175"/></g></svg>