<svg xmlns="http://www.w3.org/2000/svg" width="1555.963" height="881.924" viewBox="0 0 1555.9634 881.92365"><g stroke-width=".094" stroke-miterlimit="10"><path d="M740.784 43.775c46.075-13.812 98.037-6.4 138.175 20.188 37.05 24 63.837 63.3 72.262 106.662 8.413 41.425.325 85.95-22.437 121.6-15.488 24.525-37.488 44.875-63.138 58.4 38.675-24.525 64.675-68 66.988-113.85 2.812-41.375-13.413-83.437-43.1-112.35-14.213-13.962-31.3-25.025-49.925-32.125-30.7-11.837-65.475-12.687-96.763-2.512-37.637 12.062-69.65 40.275-86.45 76.037-19.362 40.313-18.462 89.625 2.425 129.175 11.05 21.313 27.55 39.663 47.325 53.238-36.387-20.475-64.512-55.138-76.887-95.038-14.3-45.05-8.2-96.087 16.625-136.337 21.2-34.95 55.65-61.6 94.9-73.088m-9.288 13.7c-41.487 15.375-75.775 48.863-92.187 89.95-18.213 44.475-14.725 97.063 9.162 138.775-3.412-7.525-6.9-15.025-9.387-22.912-14.625-43.875-8.488-94.113 16.575-133.025 22.312-35.35 59.262-61.088 100.25-69.488 44.85-9.55 93.637 1.775 129.425 30.525 33.812 26.55 55.875 67.513 59.012 110.425 2.075 23.438-1.912 47.013-9.662 69.113 13.775-32.575 16.875-69.65 7.812-103.9-10.95-43.05-40.962-80.7-80.312-101.238-39.738-21.212-88.6-24.187-130.688-8.225m5.55 17.963c-41.687 14.775-75.687 49.387-89.725 91.325-5.737 16.15-7.637 33.312-8.162 50.35 1.225-7.913 1.5-15.963 3.275-23.8 8.262-42.375 36.287-80.25 74.187-100.838 39.613-22.087 89.475-24.25 130.925-5.912 40.05 17.387 71.838 53.25 83.275 95.5-8.025-38.913-33.487-73.513-67.362-94.025-37.388-22.95-85.225-27.663-126.413-12.6m30.925 16.237c27.288-4.037 55.775.3 80.55 12.463 35.3 17.05 62.525 49.837 72.663 87.712 8.062 29.675 6 62.075-6.15 90.363-14.225 33.812-42.588 61.3-76.8 74.537-28.088 11-59.788 12.4-88.738 3.938-39.362-11.225-72.825-41.05-88.562-78.838-12.025-28.225-14.05-60.512-5.975-90.087 10.212-38.05 37.7-70.938 73.237-87.9 12.525-6.088 26-10.163 39.775-12.188m-.15 6.1a115.63 115.63 0 0 0-41.362 16.038c-7.113 4.337-13.3 9.95-19.85 15.05-17.063 13.887-30.475 32.262-38.425 52.787-10.625 27.025-11.538 57.7-2.75 85.35 11.775 37.85 42.2 69.188 79.65 82.175 29.587 10.463 63.025 9.563 91.975-2.612 35.862-14.763 64.087-46.675 74.225-84.113 7.687-27.837 5.75-58.3-5.738-84.837-8.262-19.488-21.662-36.575-38.025-49.938-26.05-24.987-64.187-36.462-99.7-29.9m-8.212 10.988c18.612-7.563 40.312-7.188 58.637 1.05 15.675 6.937 28.8 19.425 36.525 34.725 7.513 14.637 9.813 31.775 6.85 47.937 1.188-18.95-4.875-38.312-17.262-52.775-13.075-15.712-32.913-25.612-53.363-26.337-17.2-.875-34.6 4.6-48.225 15.1-19.712 14.712-30.65 39.612-29.125 64.062-2.65-15.7-.775-32.262 6.263-46.612 8.037-16.738 22.462-30.263 39.7-37.15m-29.25 47.562c9.712-18.312 28.587-31.462 49.2-33.937 14.212-1.888 29.037 1 41.4 8.287 16.4 9.45 28.337 26.325 31.537 45 1.725 8.9 1.125 18.075-.587 26.938.7-14.55-3.05-29.375-11.563-41.288-10.912-15.687-29.137-26-48.237-27.075-20.413-1.462-41.138 7.738-53.825 23.763-10.2 12.375-14.813 28.612-14.138 44.525-3.212-15.525-1.512-32.238 6.213-46.213m8.875 17.85c7.362-15.325 22.312-26.712 39.075-29.637 16.45-3.125 34.187 1.987 46.437 13.4 11.788 10.662 18.45 26.712 17.563 42.6-.15 5.8-1.675 11.412-3.263 16.962 2.3-14.425-.687-29.85-9.725-41.525-10.687-14.462-29.237-22.575-47.125-20.5-16.612 1.613-32 11.863-40.025 26.463-5.525 9.475-7.025 20.612-6.712 31.412-2.813-13.037-2.413-27.125 3.775-39.175m-33.563 54.163c-10.562-26.15-7.525-57.3 8.063-80.825-7.963 15.462-11.488 33.262-9.138 50.55 2.563 20.962 13.513 40.687 29.813 54.087 14.7 12.275 33.712 19.225 52.862 19.3 19.313.275 38.613-6.412 53.588-18.6 17.037-13.625 28.425-34.125 30.787-55.837 2.25-17.238-1.812-34.663-9.337-50.15 8.05 13.25 13.512 28.262 14.225 43.85 1.362 22.675-6.45 45.75-21.4 62.875-12.838 14.987-30.85 25.437-50.238 29.125-21.212 4.162-43.912.2-62.4-11.013-16.587-9.9-29.75-25.4-36.825-43.362m-6.525 36.762c-20.587-33.275-19.812-78.412 2.363-110.712-9.8 19.462-12.838 42.237-8.263 63.562 4.25 20.425 15.413 39.325 31.213 52.938 15.3 13.375 34.937 21.65 55.187 23.275 20.913 1.8 42.388-3.475 60.025-14.863 20.375-12.937 35.55-33.8 41.475-57.2 5.9-22.25 3.038-46.312-6.762-67.037 22.962 34.225 22.162 82.275-1.888 115.725-12.3 17.65-30.237 31.312-50.55 38.387-23.487 8.288-50.012 7.7-73.062-1.725-20.588-8.25-38.25-23.412-49.738-42.35m-28.05-13.15c-7.275-28.95-3.237-60.45 10.925-86.712-8.887 21.325-11.875 45.162-7.425 67.9 4.688 25.1 18.088 48.425 37.313 65.2 15.512 13.662 34.775 23.075 55.137 26.75 23.025 4.262 47.375 1.4 68.7-8.35 22.7-10.238 41.875-28.088 53.763-49.975 12.525-22.8 16.875-49.913 12.275-75.488-1.388-8.612-4.313-16.837-7.175-25.037 10.737 20.437 15.587 43.925 13.512 66.937-1.925 23.313-10.925 45.975-25.487 64.275-13.075 16.6-30.6 29.688-50.275 37.413-26.738 10.65-57.338 11.187-84.438 1.55-37.587-12.988-67.462-45.8-76.825-84.463m78.2-65.575c6.975-10.825 18.763-18.4 31.513-20.237 12.625-1.975 26.025 1.65 35.875 9.812 11.7 9.375 18.237 24.8 16.7 39.738-.85 11.9-7.113 22.762-15.563 30.937 9.15-10.287 13.825-24.737 10.55-38.312-3.825-18.225-21.25-32.438-39.925-32.188-17.987-.55-35.162 12.263-40 29.55-4.35 13.85-.187 29.25 9.175 40.088 1.063.375 2.15.637 3.288.775.312-1.9-1.413-3.238-2.175-4.775-6.075-8.963-7.388-20.863-3.6-30.975 5.087-14.488 20.625-24.325 35.912-22.55 15.55 1.225 29.1 14.25 30.988 29.737 1.85 11.938-3.388 24.225-12.55 31.913 4.137-4.825 7.45-10.525 8.35-16.9 1.812-10.825-2.763-22.413-11.538-29-9.337-7.4-23.112-8.413-33.45-2.5-11.1 6.012-17.55 19.312-15.275 31.75 1.175 5.837 3.375 12.025 8.375 15.662-1.937-.487-3.862-.2-5.787-.212-8.913-7.35-15.813-17.625-17.663-29.175-2.037-11.375.35-23.513 6.8-33.138m15.363 42.938c.45-10.775 9.4-20.338 20.112-21.513 10.3-1.5 20.988 4.975 24.488 14.763 3.375 8.45.75 18.225-5.288 24.775 4.713-7.713 4.425-18.513-2.212-25.025-7.2-7.875-20.788-7.925-28.05-.1-6.663 6.425-6.988 17.087-2.55 24.862-4.188-4.912-7.05-11.2-6.5-17.762m13.6 1.025c5.912-6.15 17.237-4.513 21.212 3.012 3.45 5.5 1.475 12.313-2.137 17.175 1.025-4.312 1.25-9.537-2.313-12.787-4.4-4.7-12.987-3.725-16.175 1.887-2.175 3.213-1.637 7.238-.537 10.713-5.275-5.363-5.813-14.788-.05-20m7.125 12.425c3.725-2.188 8.85 1.137 8.512 5.412-.025 4.213-5.337 7.15-8.85 4.713-3.875-2.075-3.625-8.288.338-10.125z" fill="#fff" stroke="#fff" stroke-width=".1175"/><path d="M661.309 50.975C691.059 22.2 730.884 4.075 772.146.75 815.571-3.112 860.21 9.313 895.31 35.2c35.55 25.863 61.237 64.963 70.55 107.963 11.237 50.35.112 105.575-30.975 146.912 23.575-39.537 30.387-88.625 18.087-133.012-10.875-40.638-37.537-76.638-72.975-99.238-27.112-17.287-59.25-27.225-91.5-26.662-46.75-1.15-93.162 19.212-125.112 53.125-29.088 30.375-46.163 71.825-46.963 113.875-.85 32.35 7.838 64.8 24.475 92.537-27.475-36.437-39.762-83.687-34.475-128.95 4.588-41.85 24.463-81.725 54.888-110.775m-546.725.763c9.1-7.413 21.725-8.238 32.887-6.4 10.138 1.637 18.7 8.625 24.038 17.187 7.6 11.575 11.012 25.163 15.987 37.938 23.175 60.525 46.388 121.025 69.575 181.537 4.65 12.688 10.55 25.113 12.538 38.588 2.212 15.225-10.688 30.762-26.125 31.112-9.4.8-19.063-4.3-23.3-12.787-10.288-20.1-16.75-41.813-24.663-62.888-38.112.013-76.225-.025-114.337.025-4.975 14.063-9.9 28.163-14.975 42.2-3.263 8.475-6.425 17.1-11.275 24.825-3.375 5.675-10.063 8.363-16.425 8.575-16.075 1.713-31.488-13.825-29.7-29.875.6-9.725 5.112-18.55 8.225-27.625 26.162-70.075 51.887-140.337 78.362-210.3 4.563-11.575 9.025-24.2 19.188-32.112m23.062 56.287c-13.825 40.863-27.7 81.7-41.462 122.588 28-.013 56 .15 84-.075-14.2-40.838-28.388-81.675-42.538-122.513m895.3-62.687c9.225-2.138 19.813-.288 26.7 6.562 7.35 7 9.175 17.7 9.363 27.4.037 46.663 0 93.313.012 139.963-.162 17.737.463 35.912 6.625 52.75 4.675 12.9 15.3 23.537 28.388 27.812 12.862 4.2 26.712 4.55 40.062 2.925 13.1-1.662 26.463-7.387 34.2-18.55 10.388-14.787 12.775-33.462 13.313-51.087.1-45.4.012-90.8.037-136.213.275-12.037-1.25-24.6 3.313-36.075 2.662-7.125 8.662-12.937 16-15.05 9.7-2.787 21.212-1.162 28.562 6.175 7.213 7.063 9.175 17.663 9.363 27.363.012 38.762 0 77.537 0 116.312-.138 24.588 1.037 49.4-3.625 73.688-2.738 15.337-8.075 30.475-17.763 42.862-11.787 15.463-28.275 27.375-46.875 33.188-22.862 7.212-47.275 7.3-70.925 5.175-24.05-2.513-49.225-9.275-66.837-26.8-14.013-13.4-22.3-31.713-26.275-50.463-6.588-29.2-4.4-59.287-4.788-88.95 0-34.562 0-69.137.013-103.7.1-8.975 1.287-18.625 6.912-25.975 3.538-4.562 8.6-7.95 14.225-9.312M343.571 58.15c6.713-6.912 16.913-8.55 26.138-8.625 31.675 0 63.35-.025 95.025.013 15.1.3 30.537 1.062 44.912 6.162 18.663 6.388 33.563 21.738 41.188 39.725 6.737 15.6 7.675 33.45 3.2 49.788-5.225 20.137-21.375 35.562-39.738 44.262 16.988 5.763 33.488 15.313 43.738 30.45 11.525 16.825 13.712 38.425 10.537 58.163-4.087 25.05-20.75 48.037-44.037 58.512-19.15 8.425-40.45 9.55-61.075 10.063-31.263.1-62.538.025-93.8.037-9.213-.025-19.438-1.712-25.963-8.812-6.55-7.425-7.862-17.838-8-27.35-.012-75-.012-150 0-225 .175-9.513 1.388-19.925 7.875-27.388m49.35 36.763c-.037 25.6-.012 51.212-.012 76.825 20.175-.088 40.35.2 60.525-.163 11.975-.762 25.25-1.7 34.712-9.987 12.413-11.225 15.488-30.225 9.788-45.55-2.575-6.838-8.213-12.3-15.013-14.9-12.475-4.925-26.075-5.8-39.35-6.163-16.887-.15-33.775-.025-50.65-.062m-.012 120c-.013 28.8-.013 57.6 0 86.4 21.825-.025 43.637.075 65.462-.05 14.538-.538 30.25-2.938 41.538-12.925 9.875-8.675 12.887-22.65 11.85-35.275-.55-11-5.525-22.213-14.988-28.325-11.675-7.513-25.95-9.263-39.537-9.775-21.438-.125-42.888-.025-64.325-.05m924.425-160.45c5.787-3.963 13-5.025 19.875-4.95 60.425.025 120.85-.013 181.275.012 7.05.05 14.55 1.313 20.2 5.863 11.85 9.512 11.375 30.562-1.238 39.225-5.887 4.062-13.287 4.962-20.262 4.962-20.463-.012-40.913 0-61.363 0-.05 72 .013 144.013-.025 216.025-.087 10.263-1.925 21.55-9.637 28.988-6.425 6.512-16.3 8.237-25.013 6.562-9.437-1.825-17.225-9.337-20.112-18.387-3.3-9.563-2.3-19.813-2.463-29.738 0-67.812.013-135.637 0-203.45-20.85-.025-41.7.013-62.55-.012-6.587-.088-13.55-1.075-19-5.05-12.737-9.113-12.962-31.338.313-40.05M660.396 404.075c13.363-1.55 27.463-.862 39.888 4.738 9.025 4.025 16.8 11.425 19.9 20.962 3.5 10.85 2.912 23.338-2.738 33.375-6.112 10.663-17.762 16.988-29.562 19.213-11.413 2.037-23.288 1.962-34.588-.75-9.75-2.388-19.25-7.55-24.987-16-9.2-13.65-8.95-33.388 1.512-46.3 7.463-9.175 19.113-13.738 30.575-15.238m4.938 12.413c-7.575 1.237-15.113 5.212-18.838 12.175-6.8 12.3-4.312 30.487 8.35 38.05 10.388 6.162 24.275 5.862 34.65-.163 12.65-7.812 14.875-26.275 7.725-38.5-6.55-10.512-20.387-13.4-31.887-11.562m81.1-12.613c5.412-1.675 13.562.213 14.275 6.85.5 14.113-.075 28.263.275 42.388.225 5.137 1.6 10.862 6.037 14.012 5.375 3.9 12.388 4.138 18.788 3.963 5.925-.275 12.737-1.6 16.375-6.8 4.337-6.163 3.212-14.05 3.35-21.138.15-10.875-.288-21.775.212-32.625 1.575-10.375 20.613-9.45 20.613 1.338.2 12.925.037 25.862.075 38.787-.013 8.325-1.6 17.65-8.363 23.275-10.037 8.925-24.287 10.138-37.125 9.788-10.95-.475-22.937-1.575-31.7-8.888-7.075-5.812-9.25-15.425-9.237-24.175.025-12.937-.138-25.887.075-38.812-.075-3.775 2.737-7.088 6.35-7.963m106.475 2.35c4.45-2.137 9.55-1.45 14.337-1.6 12.45.15 24.913-.3 37.363.313 8.825.45 18.562 2.987 24.112 10.4 5.138 6.65 4.9 17.037-1.162 23.025-5.688 5.612-13.788 7.5-21.338 9.1 7.263 2.562 12.925 8.1 18 13.7 3.7 4.437 7.25 9.15 9.563 14.487 1.325 2.488-.6 5.213-2.775 6.4-4.988 2.725-11.913 2.375-15.988-1.85-7.937-8.325-13.837-18.5-22.387-26.25-6.3-5.637-15.238-4.812-23.063-4.787-.137 9.162.275 18.35-.2 27.5-1.687 10.075-20.2 9.487-20.55-1.075-.187-20.45-.05-40.9-.062-61.35-.188-3.175 1.15-6.575 4.15-8.013m16.675 10.35c-.025 7.088 0 14.163-.025 21.238 11.05-.313 22.287 1 33.175-1.413 4.5-.9 9-4.55 8.462-9.575-.075-5.887-6.187-9.175-11.375-9.687-10.05-1.05-20.175-.363-30.237-.563M863.671 575.8c9.188-9.687 23.713-11.412 36.25-8.987 9.738 1.762 17.888 8.575 23.063 16.8 7.762 11.812 11.15 25.712 16.212 38.762 22.675 59.763 45.413 119.513 68.1 179.288 4.25 11.625 9.375 23 12.15 35.112 1.225 5.213 1.688 10.788.075 15.988-3.325 11.287-14.062 20.5-26.112 20.3-9.05.425-18.075-4.75-22.075-12.913-10.163-20.075-16.563-41.737-24.375-62.762-37.775-.025-75.55-.05-113.313.012-8.1 21.688-14.075 44.313-24.737 64.95-5.075 10.863-19.588 12.963-29.75 8.763-9.638-4.563-17.538-14.413-17.325-25.45-.125-8.288 3.05-16.013 5.837-23.65 25.313-68.425 50.3-136.975 75.738-205.363 5.725-14.012 9.525-29.625 20.262-40.85m25.963 53.263c-13.575 41.012-27.5 81.9-41.113 122.9 27.75-.05 55.488-.025 83.225-.013-13.962-40.987-28.362-81.837-42.112-122.887m-677.088-53.175c5.7-3.975 12.863-5.1 19.688-5.013 59.6.013 119.212.013 178.825 0 7.137-.05 14.725 1.063 20.525 5.55 12.012 9.288 11.85 30.263-.45 39.263-5.438 3.987-12.363 5.125-18.963 5.2-20.762.012-41.537-.013-62.3.012-.025 71.975 0 143.963-.012 215.95-.113 9.5-1.563 19.738-7.863 27.275-9.7 11.875-30.012 11.95-40.15.6-6.762-7.05-8.537-17.262-8.675-26.675-.05-72.387 0-144.762-.025-217.15-20.725-.025-41.437 0-62.162-.012-6.525-.063-13.45-1.113-18.8-5.138-12.438-9.225-12.625-31.05.362-39.862m298.388-.125c6.762-4.05 14.837-4.975 22.587-4.888 49.563.025 99.138-.012 148.7.025 6.613-.012 13.675 1.338 18.75 5.888 10.738 8.9 9.963 28.137-1.612 36.025-6.35 4.625-14.588 4.762-22.125 4.625-40.95-.025-81.888-.013-122.825-.013.062 24.338-.013 48.675.037 73h117.725c6.125.088 12.7 1.1 17.538 5.188 8.837 7.137 9.75 21.012 4.1 30.375-4.475 7.312-13.525 9.937-21.663 9.862-39.262.05-78.537-.025-117.8.038.2 28.012.025 56.037.088 84.062 43.437.013 86.862.013 130.3 0 9.175-.287 19.925 2.05 24.762 10.7 5.238 9.638 4.638 23.288-3.525 31.188-6.05 5.562-14.712 6.375-22.562 6.312-48.738-.012-97.475-.012-146.213 0-9.262.025-19.187-.2-27.237-5.35-9.863-6.2-12.025-18.85-12.213-29.6-.05-71.712 0-143.412-.025-215.112.075-9.563-.625-19.413 2.5-28.613 1.813-5.637 5.525-10.75 10.713-13.712m581.7 2.612c9.775-7.512 22.712-7.8 34.512-7.487 11.438.312 23.75-1.25 34.35 4.05 9.725 5.275 11.213 17.2 14.163 26.775 14.4 57.25 28.775 114.525 42.925 171.85 13.175-53.163 26.35-106.338 39.525-159.5 2.4-9.5 4.637-19.088 8.075-28.288 2.337-6.362 7.887-11.337 14.475-12.975 11.125-2.825 22.712-1.65 34.075-1.925 10.512-.275 21.9 1.163 30.25 8.113 6.562 6.025 7.712 15.575 7.875 24.012.037 72.925.012 145.85.025 218.775-.388 11.788 1.375 24.075-2.875 35.375-2.925 8.075-10.3 14.475-18.9 15.575-7.788 1.35-16.3-.862-21.775-6.725-6.863-6.975-8.35-17.262-8.5-26.637-.088-68.425.112-136.863-.1-205.3-12.625 54.712-25.788 109.3-38.625 163.962-3.925 16.338-7.575 32.75-11.825 49.013-2.1 8.737-7.575 16.637-14.888 21.825-8.812 5.225-20.212 5.437-29.662 1.825-11.088-4.713-16.9-16.225-20.05-27.213-3.4-12.787-6.125-25.737-9.263-38.587-13.35-56.95-27.112-113.788-40.2-170.788-.35 68.825 0 137.65-.175 206.475-.262 8.963-1.887 18.763-8.462 25.413-8.95 9.412-25.738 9.525-34.825.262-7.05-6.95-8.625-17.387-8.738-26.85-.012-78.787-.025-157.575.013-236.362.187-8.725 1.4-18.763 8.6-24.663z" fill="#0052ff" stroke="#0052ff" stroke-width=".1175"/><path d="M663.384 84.288c31.95-33.913 78.362-54.275 125.112-53.125 32.25-.563 64.388 9.375 91.5 26.662 35.438 22.6 62.1 58.6 72.975 99.238 12.3 44.387 5.488 93.475-18.087 133.012-19.25 31.813-48.775 57.425-83.413 71.163-19.587 7.712-40.637 12.362-61.75 11.9-35.737 1.212-71.525-10.313-100.675-30.838-19.375-13.65-35.8-31.387-48.15-51.6-16.637-27.737-25.325-60.187-24.475-92.537.8-42.05 17.875-83.5 46.963-113.875m77.4-40.513c-39.25 11.488-73.7 38.138-94.9 73.088-24.825 40.25-30.925 91.287-16.625 136.337 12.375 39.9 40.5 74.563 76.887 95.038-19.775-13.575-36.275-31.925-47.325-53.238-20.887-39.55-21.787-88.862-2.425-129.175 16.8-35.762 48.813-63.975 86.45-76.037 31.288-10.175 66.063-9.325 96.763 2.512 18.625 7.1 35.712 18.163 49.925 32.125 29.687 28.913 45.912 70.975 43.1 112.35-2.313 45.85-28.313 89.325-66.988 113.85 25.65-13.525 47.65-33.875 63.138-58.4 22.762-35.65 30.85-80.175 22.437-121.6-8.425-43.362-35.212-82.662-72.262-106.662-40.138-26.588-92.1-34-138.175-20.188m27.187 47.9c-13.775 2.025-27.25 6.1-39.775 12.188-35.537 16.962-63.025 49.85-73.237 87.9-8.075 29.575-6.05 61.862 5.975 90.087 15.737 37.788 49.2 67.613 88.562 78.838 28.95 8.462 60.65 7.062 88.738-3.938 34.212-13.237 62.575-40.725 76.8-74.537 12.15-28.288 14.212-60.688 6.15-90.363-10.138-37.875-37.363-70.662-72.663-87.712-24.775-12.163-53.262-16.5-80.55-12.463m-657.45-47.687c10.763-8.05 25.125-9.3 38.025-7.213 12.963 1.975 24.075 10.8 30.725 21.863 7.6 11.762 11.188 25.45 16.175 38.4 22.4 58.512 44.85 117.012 67.275 175.525 4.388 11.925 9.55 23.6 13.088 35.825 2.137 7.525 3.712 15.587 1.812 23.35-2.625 11.162-10.612 21-21.1 25.662-11.225 4.963-25.15 3.863-34.962-3.712-7.025-5.1-10.563-13.313-13.913-21.025-7.1-15.588-12.212-31.963-18.2-47.988-34.037-.012-68.075 0-102.1-.012-6.137 16.7-11.437 33.725-18.425 50.1-3.187 6.887-6.25 14.275-12.225 19.262-6.812 5.488-16.05 6.975-24.55 6.15C19.71 358.938 9.11 350 3.446 339.2c-5.912-11.725-3.212-25.55 1.45-37.212 27.65-74.05 54.838-148.288 82.8-222.213 5.088-13.212 10.863-27.3 22.825-35.787m4.063 7.75C104.421 59.65 99.959 72.275 95.396 83.85c-26.475 69.963-52.2 140.225-78.362 210.3-3.113 9.075-7.625 17.9-8.225 27.625-1.788 16.05 13.625 31.588 29.7 29.875 6.362-.212 13.05-2.9 16.425-8.575 4.85-7.725 8.012-16.35 11.275-24.825 5.075-14.037 10-28.137 14.975-42.2 38.112-.05 76.225-.012 114.337-.025 7.913 21.075 14.375 42.788 24.663 62.888 4.237 8.487 13.9 13.587 23.3 12.787 15.437-.35 28.337-15.887 26.125-31.112-1.988-13.475-7.888-25.9-12.538-38.588-23.187-60.512-46.4-121.012-69.575-181.537-4.975-12.775-8.387-26.363-15.987-37.938-5.338-8.562-13.9-15.55-24.038-17.187-11.162-1.838-23.787-1.013-32.887 6.4m918.362-15.2c11.563-2.15 24.4.8 32.85 9.3 8.988 8.55 11.725 21.512 11.888 33.487.05 44.175 0 88.35.025 132.538-.063 19.112-.625 38.837 6.05 57.087 3.812 10.65 12.612 19.425 23.45 22.813 11.7 3.7 24.3 3.862 36.387 2.325 10.975-1.463 22.238-6.3 28.4-15.925 8.863-13.6 10.55-30.375 11.013-46.213.1-50.037.025-100.075.037-150.125-.075-11.95 1.913-24.812 9.875-34.225 13.338-15.675 40.513-15.625 54.125-.312 8.113 8.962 10.488 21.562 10.538 33.3 0 47.075-.013 94.137 0 141.2.012 20.237-1.175 40.675-6.338 60.325-7.85 32.725-33.862 59.862-65.512 70.662-21.975 7.575-45.6 8.475-68.613 7.063-19.512-1.338-39.225-4.888-56.937-13.488-18.725-9.025-33.875-24.862-42.763-43.587-10.6-22.463-13.537-47.675-14.175-72.25-.175-49.138-.012-98.275-.075-147.425-.1-9.15.75-18.588 4.65-27 4.588-10.05 14.225-17.625 25.125-19.55m0 8.8c-5.625 1.362-10.687 4.75-14.225 9.312-5.625 7.35-6.812 17-6.912 25.975-.013 34.563-.013 69.138-.013 103.7.388 29.663-1.8 59.75 4.788 88.95 3.975 18.75 12.262 37.063 26.275 50.463 17.612 17.525 42.787 24.287 66.837 26.8 23.65 2.125 48.063 2.037 70.925-5.175 18.6-5.813 35.088-17.725 46.875-33.188 9.688-12.387 15.025-27.525 17.763-42.862 4.662-24.288 3.487-49.1 3.625-73.688 0-38.775.012-77.55 0-116.312-.188-9.7-2.15-20.3-9.363-27.363-7.35-7.337-18.862-8.962-28.562-6.175-7.338 2.113-13.338 7.925-16 15.05-4.563 11.475-3.038 24.038-3.313 36.075-.025 45.413.063 90.813-.037 136.213-.538 17.625-2.925 36.3-13.313 51.087-7.737 11.163-21.1 16.888-34.2 18.55-13.35 1.625-27.2 1.275-40.062-2.925-13.088-4.275-23.713-14.912-28.388-27.812-6.162-16.838-6.787-35.013-6.625-52.75-.012-46.65.025-93.3-.012-139.963-.188-9.7-2.013-20.4-9.363-27.4-6.887-6.85-17.475-8.7-26.7-6.562m-696.1 7.375c7.913-8.763 20.25-11.625 31.625-11.8 27.5-.063 55.013-.013 82.525-.025 22.188.012 45.288-.3 66.113 8.475 19.937 8.375 35.5 25.887 43 46.012 6.762 17.588 7 37.475 1.287 55.375-4.837 15.138-15.112 28.175-27.975 37.375 16.625 8.288 31.163 21.725 38.425 39.063 8.225 19.575 8.55 41.987 2.975 62.312-6.837 24.038-24.3 45.088-47.262 55.225-20.5 8.913-43.238 10.138-65.288 10.625-30.887.088-61.762.025-92.637.038-11.513-.025-24.063-2.663-32.138-11.488-8.212-8.925-10.35-21.6-10.45-33.3V85.625c.125-11.5 2.05-23.912 9.8-32.912m6.725 5.437c-6.487 7.463-7.7 17.875-7.875 27.388-.012 75-.012 150 0 225 .138 9.512 1.45 19.925 8 27.35 6.525 7.1 16.75 8.787 25.963 8.812 31.262-.012 62.537.063 93.8-.037 20.625-.513 41.925-1.638 61.075-10.063 23.287-10.475 39.95-33.462 44.037-58.512 3.175-19.738.988-41.338-10.537-58.163-10.25-15.137-26.75-24.687-43.738-30.45 18.363-8.7 34.513-24.125 39.738-44.262 4.475-16.338 3.537-34.188-3.2-49.788-7.625-17.987-22.525-33.337-41.188-39.725-14.375-5.1-29.812-5.862-44.912-6.162-31.675-.038-63.35-.013-95.025-.013-9.225.075-19.425 1.713-26.138 8.625m968.288-10.375c9.05-6.662 20.762-7.25 31.587-6.887 57.938 0 115.888 0 173.825-.013 9.975-.125 20.663 1.975 28.2 8.95 13.838 12.388 13.913 36.75.2 49.263-6.937 6.537-16.737 8.95-26.037 9.1-18.4.075-36.788 0-55.175.037-.013 69.125 0 138.263-.013 207.388-.012 11.962-2.5 24.812-10.925 33.825-13.062 14.575-38.512 14.612-51.887.45-9.025-8.85-11.738-22.038-11.7-34.238-.013-69.15 0-138.287 0-207.425-18.425-.025-36.838.025-55.25-.037-9.275-.15-19.088-2.575-25.85-9.313-14.275-13.287-13.313-39.85 3.025-51.1m5.475 6.688c-13.275 8.712-13.05 30.937-.313 40.05 5.45 3.975 12.413 4.962 19 5.05 20.85.025 41.7-.013 62.55.012.013 67.813 0 135.638 0 203.45.163 9.925-.837 20.175 2.463 29.738 2.887 9.05 10.675 16.562 20.112 18.387 8.713 1.675 18.588-.05 25.013-6.562 7.712-7.438 9.55-18.725 9.637-28.988.038-72.012-.025-144.025.025-216.025 20.45 0 40.9-.012 61.363 0 6.975 0 14.375-.9 20.262-4.962 12.613-8.663 13.088-29.713 1.238-39.225-5.65-4.55-13.15-5.813-20.2-5.863-60.425-.025-120.85.013-181.275-.012-6.875-.075-14.088.987-19.875 4.95m-585.838 3.012c42.088-15.962 90.95-12.987 130.688 8.225 39.35 20.538 69.362 58.188 80.312 101.238 9.063 34.25 5.963 71.325-7.812 103.9 7.75-22.1 11.737-45.675 9.662-69.113-3.137-42.912-25.2-83.875-59.012-110.425-35.788-28.75-84.575-40.075-129.425-30.525-40.988 8.4-77.938 34.138-100.25 69.488-25.063 38.912-31.2 89.15-16.575 133.025 2.487 7.887 5.975 15.387 9.387 22.912-23.887-41.712-27.375-94.3-9.162-138.775 16.412-41.087 50.7-74.575 92.187-89.95m5.55 17.963c41.188-15.063 89.025-10.35 126.413 12.6 33.875 20.512 59.337 55.112 67.362 94.025-11.437-42.25-43.225-78.113-83.275-95.5-41.45-18.338-91.312-16.175-130.925 5.912-37.9 20.588-65.925 58.463-74.187 100.838-1.775 7.837-2.05 15.887-3.275 23.8.525-17.038 2.425-34.2 8.162-50.35 14.038-41.938 48.038-76.55 89.725-91.325M392.921 94.913c16.875.037 33.763-.088 50.65.062 13.275.363 26.875 1.238 39.35 6.163 6.8 2.6 12.438 8.062 15.013 14.9 5.7 15.325 2.625 34.325-9.788 45.55-9.462 8.287-22.737 9.225-34.712 9.987-20.175.363-40.35.075-60.525.163 0-25.613-.025-51.225.012-76.825m8.65 8.7v59.512h35.65c12.188-.012 24.663.288 36.475-3.212 5.913-1.675 10.9-5.888 13.863-11.225 4.937-7.95 5.412-17.95 3.2-26.838-1.325-5.675-5.413-10.587-10.913-12.612-10.787-4.288-22.55-5.1-34.025-5.538-14.75-.2-29.5-.05-44.25-.087m366.25-5.838c35.513-6.562 73.65 4.913 99.7 29.9 16.363 13.363 29.763 30.45 38.025 49.938 11.488 26.537 13.425 57 5.738 84.837-10.138 37.438-38.363 69.35-74.225 84.113-28.95 12.175-62.388 13.075-91.975 2.612-37.45-12.987-67.875-44.325-79.65-82.175-8.788-27.65-7.875-58.325 2.75-85.35 7.95-20.525 21.362-38.9 38.425-52.787 6.55-5.1 12.737-10.713 19.85-15.05a115.63 115.63 0 0 1 41.362-16.038m-8.212 10.988c-17.238 6.887-31.663 20.412-39.7 37.15-7.038 14.35-8.913 30.912-6.263 46.612-1.525-24.45 9.413-49.35 29.125-64.062 13.625-10.5 31.025-15.975 48.225-15.1 20.45.725 40.288 10.625 53.363 26.337 12.387 14.463 18.45 33.825 17.262 52.775 2.963-16.162.663-33.3-6.85-47.937-7.725-15.3-20.85-27.788-36.525-34.725-18.325-8.238-40.025-8.613-58.637-1.05m-29.25 47.562c-7.725 13.975-9.425 30.688-6.213 46.213-.675-15.913 3.938-32.15 14.138-44.525 12.687-16.025 33.412-25.225 53.825-23.763 19.1 1.075 37.325 11.388 48.237 27.075 8.513 11.913 12.263 26.738 11.563 41.288 1.712-8.863 2.312-18.038.587-26.938-3.2-18.675-15.137-35.55-31.537-45-12.363-7.287-27.188-10.175-41.4-8.287-20.613 2.475-39.488 15.625-49.2 33.937m8.875 17.85c-6.188 12.05-6.588 26.138-3.775 39.175-.313-10.8 1.187-21.937 6.712-31.412 8.025-14.6 23.413-24.85 40.025-26.463 17.888-2.075 36.438 6.038 47.125 20.5 9.038 11.675 12.025 27.1 9.725 41.525 1.588-5.55 3.113-11.162 3.263-16.962.887-15.888-5.775-31.938-17.563-42.6-12.25-11.413-29.987-16.525-46.437-13.4-16.763 2.925-31.713 14.312-39.075 29.637m-33.563 54.163c7.075 17.962 20.238 33.462 36.825 43.362 18.488 11.213 41.188 15.175 62.4 11.013 19.388-3.688 37.4-14.138 50.238-29.125 14.95-17.125 22.762-40.2 21.4-62.875-.713-15.588-6.175-30.6-14.225-43.85 7.525 15.487 11.587 32.912 9.337 50.15-2.362 21.712-13.75 42.212-30.787 55.837-14.975 12.188-34.275 18.875-53.588 18.6-19.15-.075-38.162-7.025-52.862-19.3-16.3-13.4-27.25-33.125-29.813-54.087-2.35-17.288 1.175-35.088 9.138-50.55-15.588 23.525-18.625 54.675-8.063 80.825m-6.525 36.762c11.488 18.938 29.15 34.1 49.738 42.35 23.05 9.425 49.575 10.013 73.062 1.725 20.313-7.075 38.25-20.737 50.55-38.387 24.05-33.45 24.85-81.5 1.888-115.725 9.8 20.725 12.662 44.787 6.762 67.037-5.925 23.4-21.1 44.263-41.475 57.2-17.637 11.388-39.112 16.663-60.025 14.863-20.25-1.625-39.887-9.9-55.187-23.275-15.8-13.613-26.963-32.513-31.213-52.938-4.575-21.325-1.537-44.1 8.263-63.562-22.175 32.3-22.95 77.437-2.363 110.712m-28.05-13.15c9.363 38.663 39.238 71.475 76.825 84.463 27.1 9.637 57.7 9.1 84.438-1.55 19.675-7.725 37.2-20.813 50.275-37.413 14.562-18.3 23.562-40.962 25.487-64.275 2.075-23.012-2.775-46.5-13.512-66.937 2.862 8.2 5.787 16.425 7.175 25.037 4.6 25.575.25 52.688-12.275 75.488-11.888 21.887-31.063 39.737-53.763 49.975-21.325 9.75-45.675 12.612-68.7 8.35-20.362-3.675-39.625-13.088-55.137-26.75-19.225-16.775-32.625-40.1-37.313-65.2-4.45-22.738-1.462-46.575 7.425-67.9-14.162 26.262-18.2 57.762-10.925 86.712m78.2-65.575c-6.45 9.625-8.837 21.763-6.8 33.138 1.85 11.55 8.75 21.825 17.663 29.175 1.925.012 3.85-.275 5.787.212-5-3.637-7.2-9.825-8.375-15.662-2.275-12.438 4.175-25.738 15.275-31.75 10.338-5.913 24.113-4.9 33.45 2.5 8.775 6.587 13.35 18.175 11.538 29-.9 6.375-4.213 12.075-8.35 16.9 9.162-7.688 14.4-19.975 12.55-31.913-1.888-15.487-15.438-28.512-30.988-29.737-15.287-1.775-30.825 8.062-35.912 22.55-3.788 10.112-2.475 22.012 3.6 30.975.762 1.537 2.487 2.875 2.175 4.775a15.357 15.357 0 0 1-3.288-.775c-9.362-10.838-13.525-26.238-9.175-40.088 4.838-17.287 22.013-30.1 40-29.55 18.675-.25 36.1 13.963 39.925 32.188 3.275 13.575-1.4 28.025-10.55 38.312 8.45-8.175 14.713-19.037 15.563-30.937 1.537-14.938-5-30.363-16.7-39.738-9.85-8.162-23.25-11.787-35.875-9.812-12.75 1.837-24.538 9.412-31.513 20.237m15.363 42.938c-.55 6.562 2.312 12.85 6.5 17.762-4.438-7.775-4.113-18.437 2.55-24.862 7.262-7.825 20.85-7.775 28.05.1 6.637 6.512 6.925 17.312 2.212 25.025 6.038-6.55 8.663-16.325 5.288-24.775-3.5-9.788-14.188-16.263-24.488-14.763-10.712 1.175-19.662 10.738-20.112 21.513m13.6 1.025c-5.763 5.212-5.225 14.637.05 20-1.1-3.475-1.638-7.5.537-10.713 3.188-5.612 11.775-6.587 16.175-1.887 3.563 3.25 3.338 8.475 2.313 12.787 3.612-4.862 5.587-11.675 2.137-17.175-3.975-7.525-15.3-9.162-21.212-3.012m7.125 12.425c-3.963 1.837-4.213 8.05-.338 10.125 3.513 2.437 8.825-.5 8.85-4.713.338-4.275-4.787-7.6-8.512-5.412M137.646 108.025c14.15 40.838 28.338 81.675 42.538 122.513-28 .225-56 .062-84 .075 13.762-40.888 27.637-81.725 41.462-122.588m-2.725 35.013c-8.875 26.312-17.812 52.6-26.687 78.9 19.925 0 39.862.012 59.787 0-10.037-28.95-20.087-57.9-30.15-86.838-1.187 2.563-2.087 5.25-2.95 7.938m257.988 71.875c21.437.025 42.887-.075 64.325.05 13.587.512 27.862 2.262 39.537 9.775 9.463 6.112 14.438 17.325 14.988 28.325 1.037 12.625-1.975 26.6-11.85 35.275-11.288 9.987-27 12.387-41.538 12.925-21.825.125-43.637.025-65.462.05-.013-28.8-.013-57.6 0-86.4m8.65 8.65c.025 23.037.025 46.062 0 69.087 18.925.013 37.85.1 56.775-.037 12.325-.538 25.712-2.2 35.5-10.425 8.65-7.413 10.325-19.8 9.125-30.513-.75-8.3-5-16.562-12.463-20.675-10.487-5.837-22.787-7.037-34.575-7.412-18.125-.088-36.25-.038-54.362-.025M657.946 399.05c15.538-2.137 32.125-1.287 46.363 5.8 10.05 4.925 18.287 13.825 21.362 24.688 3.888 13.55 2.25 29.287-6.562 40.625-7.525 9.8-19.325 15.55-31.325 17.612-11.3 1.875-23 1.813-34.2-.637-10.963-2.4-21.638-7.875-28.525-16.95-9.963-13.263-11.45-32.25-4.013-47.025 6.85-14.013 21.95-21.963 36.9-24.113m2.45 5.025c-11.462 1.5-23.112 6.063-30.575 15.238-10.462 12.912-10.712 32.65-1.512 46.3 5.737 8.45 15.237 13.612 24.987 16 11.3 2.712 23.175 2.787 34.588.75 11.8-2.225 23.45-8.55 29.562-19.213 5.65-10.037 6.238-22.525 2.738-33.375-3.1-9.537-10.875-16.937-19.9-20.962-12.425-5.6-26.525-6.288-39.888-4.738m84.738-5.375c5.687-1.475 12.375-.7 16.85 3.388 3.062 2.75 4.287 6.987 4.225 11.012.05 12.938-.038 25.888.037 38.825.013 4.688 1.175 10.5 6.2 12.225 6.638 2.3 14.15 2.213 20.863.288 4.887-1.375 6.862-6.8 6.862-11.413.138-13.312-.012-26.637.063-39.95 0-2.962.537-6 2.137-8.525 6.875-10.812 27.8-7.987 29.188 5.7.437 13.413.062 26.85.175 40.288.037 9.462-1.95 19.837-9.25 26.5-10.6 10.25-26.175 12.375-40.3 12.012-12.75-.362-26.713-1.775-36.725-10.487-7.7-6.513-10.625-16.913-10.725-26.675-.038-13.35-.113-26.713.025-40.063-.1-6.15 4.45-11.7 10.375-13.125m1.3 5.175c-3.613.875-6.425 4.188-6.35 7.963-.213 12.925-.05 25.875-.075 38.812-.013 8.75 2.162 18.363 9.237 24.175 8.763 7.313 20.75 8.413 31.7 8.888 12.838.35 27.088-.863 37.125-9.788 6.763-5.625 8.35-14.95 8.363-23.275-.038-12.925.125-25.862-.075-38.787 0-10.788-19.038-11.713-20.613-1.338-.5 10.85-.062 21.75-.212 32.625-.138 7.088.987 14.975-3.35 21.138-3.638 5.2-10.45 6.525-16.375 6.8-6.4.175-13.413-.063-18.788-3.963-4.437-3.15-5.812-8.875-6.037-14.012-.35-14.125.225-28.275-.275-42.388-.713-6.637-8.863-8.525-14.275-6.85m101.85-.95c4.262-3.437 10.025-3.65 15.25-3.612 12.9.112 25.8-.163 38.7.162 10.15.238 21.087 2.55 28.487 10.013 6.925 6.875 9.013 18.1 4.663 26.9-3 6.375-9.263 10.35-15.563 12.925 7.538 6.65 14.213 14.5 18.6 23.612 1.85 3.575 1.238 8.163-1.55 11.088-4.612 5.025-12.337 6.025-18.65 4.25-6.8-2.113-10.575-8.588-14.887-13.738-4.8-5.625-8.8-12.025-14.513-16.8-3.837-3.3-9.15-3.225-13.912-3.3-.05 6.638.05 13.275-.025 19.913.037 3.987-1.313 8.15-4.4 10.825-4.863 4.312-12.188 4.825-18.15 2.775-5.575-1.913-9.163-7.7-8.925-13.513-.05-20.037-.038-40.075-.013-60.112-.087-4.25 1.4-8.738 4.888-11.388m4.625 3.3c-3 1.438-4.338 4.838-4.15 8.013.012 20.45-.125 40.9.062 61.35.35 10.562 18.863 11.15 20.55 1.075.475-9.15.063-18.338.2-27.5 7.825-.025 16.763-.85 23.063 4.787 8.55 7.75 14.45 17.925 22.387 26.25 4.075 4.225 11 4.575 15.988 1.85 2.175-1.187 4.1-3.912 2.775-6.4-2.313-5.337-5.863-10.05-9.563-14.487-5.075-5.6-10.737-11.138-18-13.7 7.55-1.6 15.65-3.488 21.338-9.1 6.062-5.988 6.3-16.375 1.162-23.025-5.55-7.413-15.287-9.95-24.112-10.4-12.45-.613-24.913-.163-37.363-.313-4.787.15-9.887-.537-14.337 1.6m-187.575 10.263c11.5-1.838 25.337 1.05 31.887 11.562 7.15 12.225 4.925 30.688-7.725 38.5-10.375 6.025-24.262 6.325-34.65.163-12.662-7.563-15.15-25.75-8.35-38.05 3.725-6.963 11.263-10.938 18.838-12.175m-2.613 6.062c-17.837 4.163-19.637 32.4-3.9 40.338 8.963 4.412 20.538 3.987 28.913-1.563 8.987-6.562 10.162-19.975 5.562-29.462-5.837-10.45-20-12.275-30.575-9.313m206.863-5.975c10.062.2 20.187-.487 30.237.563 5.188.512 11.3 3.8 11.375 9.687.538 5.025-3.962 8.675-8.462 9.575-10.888 2.413-22.125 1.1-33.175 1.413.025-7.075 0-14.15.025-21.238m5.312 5.325c0 3.538 0 7.088.025 10.638 9.463-.4 19.325 1.1 28.463-2 4.212-1.225 2.45-7.013-1.338-7.463-8.862-2.1-18.125-.825-27.15-1.175m-7.35 140.338c12.388-6.225 27.388-6.438 40.413-2.1 14.637 5.3 23.925 19.05 29.7 32.85 28.125 76.3 57.7 152.075 86.237 228.225 2.95 9.012 6.113 18.387 5.138 28-1.625 14.512-12.625 27.65-26.825 31.362-15.313 4.488-33.1-3.275-39.425-18.087-8.95-18.15-14.975-37.525-21.938-56.488-33.687.013-67.362-.012-101.037.013-5.238 14.662-10.075 29.475-15.7 44-3.2 7.687-6.275 15.637-11.5 22.212-6.713 8.038-18.025 10.388-28.013 9.238-11.462-1.288-21.137-9.288-26.962-18.9-6.175-10.363-5.188-23.325-1.363-34.325 21.788-59.688 43.888-119.275 65.8-178.925 6.925-18.813 13.8-37.65 21.163-56.3 4.962-12.238 12.237-24.45 24.312-30.775m-3.875 13.562c-10.737 11.225-14.537 26.838-20.262 40.85-25.438 68.388-50.425 136.938-75.738 205.363-2.787 7.637-5.962 15.362-5.837 23.65-.213 11.037 7.687 20.887 17.325 25.45 10.162 4.2 24.675 2.1 29.75-8.763 10.662-20.637 16.637-43.262 24.737-64.95 37.763-.062 75.538-.037 113.313-.012 7.812 21.025 14.212 42.687 24.375 62.762 4 8.163 13.025 13.338 22.075 12.913 12.05.2 22.787-9.013 26.112-20.3 1.613-5.2 1.15-10.775-.075-15.988-2.775-12.112-7.9-23.487-12.15-35.112-22.687-59.775-45.425-119.525-68.1-179.288-5.062-13.05-8.45-26.95-16.212-38.762-5.175-8.225-13.325-15.038-23.063-16.8-12.537-2.425-27.062-.7-36.25 8.987m-657.237-6.125c7.625-5.925 17.575-7.675 27.012-7.45 59.638.038 119.263-.012 178.9.025 9.225.063 18.938 2.263 25.975 8.55 14.275 12.4 14.388 37.375.288 49.95-7.088 6.513-17.013 8.763-26.4 8.813-17.9.012-35.813 0-53.713 0-.025 69.525.025 139.037-.025 208.55-.137 11.925-2.912 24.7-11.575 33.45-13.437 14.137-38.862 13.462-51.65-1.25-9.625-10.225-11.137-25.088-10.762-38.475V629.575c-17.85-.012-35.7 0-53.538-.012-9.1-.038-18.75-2.063-25.687-8.3-15.013-12.8-14.838-39.688 1.175-51.588m6.112 6.213c-12.987 8.812-12.8 30.637-.362 39.862 5.35 4.025 12.275 5.075 18.8 5.138 20.725.012 41.437-.013 62.162.012.025 72.388-.025 144.763.025 217.15.138 9.413 1.913 19.625 8.675 26.675 10.138 11.35 30.45 11.275 40.15-.6 6.3-7.537 7.75-17.775 7.863-27.275.012-71.987-.013-143.975.012-215.95 20.763-.025 41.538 0 62.3-.012 6.6-.075 13.525-1.213 18.963-5.2 12.3-9 12.462-29.975.45-39.263-5.8-4.487-13.388-5.6-20.525-5.55-59.613.013-119.225.013-178.825 0-6.825-.087-13.988 1.038-19.688 5.013m282.6 3.9c7.275-12.925 22.988-17.85 37.05-17.55 50.013 0 100.025-.013 150.038.012 8.887-.012 18.287 2.2 24.9 8.475 13.537 11.688 13.362 35.438-.163 47.063-6.625 6.175-15.975 8.312-24.8 8.325-39.7.012-79.4 0-119.1 0v55.662c36.363.013 72.725-.012 109.075.013 8.4.025 17.313 1.925 23.725 7.7 14.113 12.087 13.4 37.25-1.462 48.437-6.3 4.813-14.413 6.525-22.2 6.575-36.375.013-72.763-.012-109.138.013v66.8c41.388.037 82.775-.013 124.163.025 11.35-.075 23.7 4.387 29.575 14.675 7.875 13.675 6.1 33.65-6.788 43.725-6.8 5.275-15.625 7.037-24.062 6.987-51.7-.012-103.388.038-155.075-.012-11.45-.113-23.775-3.038-31.75-11.8-8.075-8.9-9.975-21.488-10.063-33.075-.012-72.088 0-144.188 0-216.275-.162-12.1-.162-24.975 6.075-35.775m15.788-4.025c-5.188 2.962-8.9 8.075-10.713 13.712-3.125 9.2-2.425 19.05-2.5 28.613.025 71.7-.025 143.4.025 215.112.188 10.75 2.35 23.4 12.213 29.6 8.05 5.15 17.975 5.375 27.237 5.35 48.738-.012 97.475-.012 146.213 0 7.85.063 16.512-.75 22.562-6.312 8.163-7.9 8.763-21.55 3.525-31.188-4.837-8.65-15.587-10.987-24.762-10.7-43.438.013-86.863.013-130.3 0-.063-28.025.112-56.05-.088-84.062 39.263-.063 78.538.012 117.8-.038 8.138.075 17.188-2.55 21.663-9.862 5.65-9.363 4.737-23.238-4.1-30.375-4.838-4.088-11.413-5.1-17.538-5.188H554.446c-.05-24.325.025-48.662-.037-73 40.937 0 81.875-.012 122.825.013 7.537.137 15.775 0 22.125-4.625 11.575-7.888 12.35-27.125 1.612-36.025-5.075-4.55-12.137-5.9-18.75-5.888-49.562-.037-99.137 0-148.7-.025-7.75-.087-15.825.838-22.587 4.888m576.225-4.05c10.887-8.6 25.362-9.938 38.75-9.475 14.262.337 30.187-1.6 42.612 6.95 10.163 7.012 12.463 19.862 15.663 30.937a34573.733 34573.733 0 0 1 34.412 137.625c10.463-42.575 21.075-85.1 31.6-127.662 2.425-9.5 4.688-19.113 8.275-28.263 3.475-8.587 11.188-15.2 20.175-17.412 12.2-3.1 24.9-1.925 37.35-2.188 12.338-.237 25.55 2.25 35.075 10.613 8.263 7.625 10.375 19.5 10.463 30.25.012 78.725 0 157.45 0 236.175-.013 11.5-2.363 23.937-10.65 32.487-11.775 12.638-33.888 13.488-46.425 1.538-8.463-7.575-11.7-19.225-12.125-30.225-.45-45.038.337-90.088-.4-135.113-5.3 25.888-12.025 51.463-17.888 77.225-4.587 19.15-8.95 38.363-13.7 57.488-1.95 8.925-4.837 17.937-11.012 24.9-13.725 18.537-44.613 18.912-59.725 1.937-8.075-8.887-11.763-20.737-14.425-32.2-6.55-27.825-13.138-55.65-19.713-83.475-3.45-15.287-7.537-30.425-10.525-45.812-.6 44.612 0 89.237-.3 133.85-.3 11.112-3.212 22.987-11.575 30.862-12.262 12.175-34.362 12.038-46.425-.362-8.725-8.513-11.25-21.275-11.25-33.013-.012-78.75-.012-157.487 0-236.237.05-11.275 2.488-23.963 11.763-31.4m5.475 6.662c-7.2 5.9-8.413 15.938-8.6 24.663-.038 78.787-.025 157.575-.013 236.362.113 9.463 1.688 19.9 8.738 26.85 9.087 9.263 25.875 9.15 34.825-.262 6.575-6.65 8.2-16.45 8.462-25.413.175-68.825-.175-137.65.175-206.475 13.088 57 26.85 113.838 40.2 170.788 3.138 12.85 5.863 25.8 9.263 38.587 3.15 10.988 8.962 22.5 20.05 27.213 9.45 3.612 20.85 3.4 29.662-1.825 7.313-5.188 12.788-13.088 14.888-21.825 4.25-16.263 7.9-32.675 11.825-49.013 12.837-54.662 26-109.25 38.625-163.962.212 68.437.012 136.875.1 205.3.15 9.375 1.637 19.662 8.5 26.637 5.475 5.863 13.987 8.075 21.775 6.725 8.6-1.1 15.975-7.5 18.9-15.575 4.25-11.3 2.487-23.587 2.875-35.375-.013-72.925.012-145.85-.025-218.775-.163-8.437-1.313-17.987-7.875-24.012-8.35-6.95-19.738-8.388-30.25-8.113-11.363.275-22.95-.9-34.075 1.925-6.588 1.638-12.138 6.613-14.475 12.975-3.438 9.2-5.675 18.788-8.075 28.288-13.175 53.162-26.35 106.337-39.525 159.5-14.15-57.325-28.525-114.6-42.925-171.85-2.95-9.575-4.438-21.5-14.163-26.775-10.6-5.3-22.912-3.738-34.35-4.05-11.8-.313-24.737-.025-34.512 7.487m-203 50.688c13.75 41.05 28.15 81.9 42.112 122.887-27.737-.012-55.475-.037-83.225.013 13.613-41 27.538-81.888 41.113-122.9m-.1 27.85c-9.75 28.762-19.325 57.587-29 86.375h59.087c-8.2-23.9-16.437-47.788-24.662-71.688-1.925-4.812-3.025-10.287-5.425-14.687z" stroke="#000" stroke-width=".1175"/></g></svg>