<svg xmlns="http://www.w3.org/2000/svg" width="1677.5" height="1373.75" viewBox="0 0 1677.5 1373.75"><g stroke-width=".094" stroke-miterlimit="10"><path d="M803.85 286.125c45.05-12.625 95.325-5.175 134.537 20.425 33.026 21.163 58.126 54.363 69.338 91.962 13.725 45.163 7.113 96.063-18.113 136.013-15.5 24.838-37.612 45.538-63.55 59.138 38.626-24.475 64.526-67.938 66.85-113.7 2.776-40.763-12.9-82.213-41.762-111.075-17.862-18.038-40.512-31.313-65.025-37.95-42.125-11.613-89.3-2.975-124.3 23.262-37.125 27-59.95 72.438-59.05 118.388 0 46.85 24.725 92.562 63.538 118.675-37.2-20.838-65.613-56.663-77.588-97.575-13.675-45.8-6.412-97.363 19.788-137.375 21.825-33.975 56.387-59.513 95.337-70.188m-12.1 14.513c-40.912 15.187-74.837 47.962-91.475 88.287-18.912 44.738-15.725 98.038 8.388 140.2-6.125-12.912-11.3-26.375-13.988-40.462-6.025-29.813-3.287-61.375 8.125-89.6 14.525-36.538 43.413-67.05 79.038-83.65 41.925-19.913 92.762-19.65 134.475.675 36.025 17.225 64.925 48.75 78.837 86.187 11.913 31.438 13.163 66.738 3.788 99.013-1.238 4.212-2.838 8.312-3.838 12.6 13.388-32.225 16.725-68.688 8-102.575-10.712-43.575-40.925-81.775-80.7-102.5-39.737-21.188-88.575-24.15-130.65-8.175m28.3 11.762c-24.625 4.6-48 15.638-67.2 31.725-30.662 25.375-50.325 63.588-52.712 103.375-.1 4.25-.825 8.463-1.413 12.675.363-2.25 2.175-4.062 2.05-6.387-.375-6.738 1.213-13.363 2.488-19.913 9.087-42.512 38.112-80.087 76.762-99.925 39.563-20.812 88.625-22.1 129.3-3.587 39.288 17.625 70.537 53.075 81.725 94.8-9.725-47.85-46.025-88.85-91.637-105.813-25.15-9.562-52.938-11.85-79.363-6.95m8.188 22.425c27.3-4.037 55.812.3 80.6 12.475 36.487 17.613 64.275 52.075 73.637 91.513 6.863 28.662 4.488 59.55-7.187 86.662-15.913 37.8-49.6 67.575-89.125 78.575-28.15 8.05-58.85 6.813-86.25-3.487-35.775-13.275-65.375-42.1-79.5-77.55-12.063-29.55-13.238-63.338-3.5-93.713 11.362-36.025 38.312-66.7 72.487-82.725 12.25-5.85 25.413-9.762 38.838-11.75m0 6.088c-20.813 3.612-40.45 13.212-56.325 27.112-18.663 13.925-33.65 32.8-42.475 54.375-10.85 25.988-12.575 55.588-5.2 82.738 10.012 37.412 38.012 69.387 73.737 84.312 30.5 13.025 66.087 13.475 96.912 1.263 36.388-14.088 65.375-45.725 76.15-83.238 8.238-28.075 6.575-59-4.875-85.95-8.237-19.775-21.75-37.137-38.3-50.662-26.025-24.975-64.125-36.488-99.625-29.95m-10.362 11.85c19.063-8.438 41.712-8.338 60.712.225 15.075 6.687 27.813 18.512 35.6 33.05 8.15 14.937 10.825 32.7 7.725 49.4 1.125-18.575-4.712-37.55-16.675-51.888-13.062-16.1-33.162-26.3-53.912-27.037-16.925-.863-34.063 4.412-47.6 14.6-19.963 14.625-31.488 39.725-29.638 64.412-3.4-17.725-.112-36.675 9.188-52.162 7.963-13.488 20.25-24.35 34.6-30.6m-26.313 45.075c10.125-17.85 29.1-30.4 49.55-32.45 18.275-2.163 37.3 3.925 50.925 16.287 17.75 15.525 25.6 41 20.1 63.888.963-16.325-4.225-33-14.887-45.475-11.538-13.9-29.2-22.438-47.25-22.8-19.35-.625-38.675 8.225-50.888 23.212-10.462 12.413-15.412 28.85-14.612 44.963-3.538-16.025-1.3-33.413 7.062-47.625m8.45 18.525c8.275-16.463 25.425-28 43.8-29.375 18.238-1.7 36.95 6.712 47.875 21.387 11.338 14.588 13.825 34.875 7.638 52.138 2.012-12.913-.038-26.588-7.163-37.675-8.5-13.738-23.637-23.088-39.762-24.313-18.725-1.812-37.863 7.6-48.038 23.388-6.862 10.1-9.012 22.5-8.675 34.512-2.8-13.375-2.275-27.837 4.325-40.062m-34.762 53.274c-9.712-25.737-6.45-55.987 8.763-78.925-7.963 15.425-11.463 33.2-9.125 50.463 2.512 20.687 13.2 40.187 29.15 53.562 14.787 12.613 34.075 19.788 53.512 19.863 18.675.262 37.35-5.963 52.113-17.425C916.2 484.537 927.775 465.55 931.238 445c3.45-18.538-.175-37.825-8.538-54.575 8.163 12.987 13.325 27.95 14.125 43.325 1.388 22.687-6.4 45.775-21.337 62.925-12.863 15.037-30.913 25.512-50.35 29.2-21.2 4.137-43.875.175-62.35-11.025-17.15-10.238-30.65-26.463-37.538-45.213m-5.85 38.538c-20.425-33.063-19.8-77.875 2.063-110.088-8.525 17.538-11.888 37.575-9.013 56.913 3.162 22.412 14.612 43.525 31.625 58.45 13.513 12.025 30.488 20.062 48.338 22.95 22.575 3.725 46.437-.888 65.912-12.925 19.238-11.7 34.125-30.35 41.2-51.738 6.5-19.375 6.625-40.825.3-60.262-1.325-4.475-3.425-8.65-4.875-13.063 10.425 16.45 16.413 35.763 16.462 55.288.288 21.362-6.3 42.75-18.612 60.225-11.962 17.162-29.262 30.587-48.912 37.8-23.875 8.9-51.088 8.525-74.675-1.113-20.625-8.25-38.325-23.45-49.813-42.437M730 488.7c-5.275-27.1-.825-55.888 12.275-80.188-8.875 21.25-11.813 45.025-7.4 67.7 4.662 25.138 18.088 48.5 37.35 65.288 15.512 13.662 34.762 23.075 55.113 26.737 23.05 4.263 47.412 1.4 68.737-8.375 22.975-10.362 42.325-28.537 54.162-50.787 12.188-22.6 16.375-49.338 11.85-74.6-1.362-8.588-4.312-16.763-7.1-24.963 13.275 25.25 17.3 55.2 10.925 83.025-8.462 38.825-37.6 72.263-74.825 86.088-28.75 10.987-61.75 10.325-90.025-1.838-36.3-15.225-63.95-49.325-71.062-88.087m79.612-59.225c6.988-10.8 18.763-18.363 31.5-20.188 12.063-1.875 24.825 1.325 34.513 8.75 10.8 8.05 17.712 21.088 18.2 34.563.7 12.85-4.488 25.712-13.575 34.775 7.937-10.575 11.725-24.525 8.025-37.463-4.413-17.537-21.45-30.887-39.588-30.637-17.925-.525-35.05 12.225-39.912 29.425-4.1 13.35-.813 28.725 8.562 39.112 1.288 1.463 3.3 2.425 5.213 1.575-12.75-12.95-12.075-35.812 1.1-48.212 11.975-12.25 33.125-13.3 46.187-2.188 9.113 7.3 14.088 19.438 12.575 31.038-.975 8.875-5.725 17.075-12.512 22.812 4.337-4.975 7.625-11.025 8.362-17.65 1.425-10.55-3.162-21.65-11.675-28.05-8.475-6.687-20.612-8.237-30.5-3.937-9.425 3.925-16.562 12.85-18.2 22.937-1.575 9.413 1.113 20.075 8.838 26.175-.725-.525-2.163-1.575-2.888-2.1-.975.7-1.887 2.463-3.325 1.725-7.15-6.337-13.5-13.962-16.275-23.262-4.162-12.988-2.262-27.85 5.375-39.2m15.325 45.5c-.725-10.675 7-21.063 17.4-23.5 10.313-2.813 22.038 2.712 26.438 12.437 4.35 8.65 2.137 19.513-4.45 26.413 4.875-7.913 4.2-19.113-2.888-25.475-7.337-7.313-20.375-7.063-27.425.5-6.662 6.425-6.987 17.05-2.587 24.837-3.575-4.312-6.363-9.5-6.488-15.212m12.338-.088c5-6.9 16.487-6.875 21.437.075 4.475 5.363 3.213 13.288-1.012 18.4.937-4.212 1.1-9.25-2.35-12.425-4.35-4.725-12.925-3.812-16.15 1.75-2.263 3.188-1.588 7.2-.8 10.75-4.438-5.075-5.663-13.137-1.125-18.55m8.35 11.05c3.725-2.225 8.875 1.075 8.562 5.35 0 4.225-5.312 7.188-8.837 4.763-3.863-2.075-3.638-8.263.275-10.113z" fill="#fff" stroke="#fff" stroke-width=".1175"/><path d="M725.55 290.438c32.675-29.838 76.538-47.013 120.788-47.188 40.075-.512 80.125 12.763 111.95 37.1 34.137 25.825 58.737 63.975 67.837 105.838 11.338 50.562.063 105.975-31.2 147.437 23.4-38.95 30.463-87.275 18.913-131.25-10.525-41.5-37.475-78.4-73.538-101.4-27.125-17.3-59.275-27.237-91.537-26.662-47.013-1.15-93.688 19.462-125.663 53.725-29.612 31.225-46.562 73.975-46.425 117-.2 30.625 8.313 61.075 23.663 87.525-28.8-38.538-40.25-89.15-32.413-136.488 6.475-40.412 27.238-78.263 57.625-105.638m-552.012 5.55c10.3-9.187 25.612-9.912 38.387-6.475 13.825 4.225 21.938 17.525 27.1 30.163 15.588 42.8 32.388 85.15 48.538 127.75 12.312 32.15 24.687 64.275 36.95 96.438 3.05 9.312 7.075 19.124 4.975 29.074-2.788 12.175-14.225 22.25-26.975 21.938-9.025.388-18.025-4.775-22.075-12.888-10.263-20.075-16.725-41.762-24.625-62.812-38.113.013-76.225-.025-114.338.025-6.887 18.837-12.825 38.05-20.737 56.5-3.063 6.362-5.925 13.937-12.863 17-8.512 3.587-19.125 2.962-26.587-2.775-6.263-4.825-11.613-11.725-12.163-19.875-.95-9.925 3.213-19.2 6.525-28.3 26.763-71.55 53.013-143.3 80.038-214.762 4.362-11.05 8.6-23 17.85-31m-17.063 177.787c28 .037 56.012.012 84.012.012-14.2-40.887-28.325-81.787-42.625-122.637-13.65 40.925-27.675 81.725-41.387 122.625M1093.213 288.5c9.237-2.15 19.85-.3 26.737 6.575 7.362 7.025 9.175 17.762 9.35 27.512.025 41.238 0 82.475.013 123.713.162 21.812-1.313 44.212 5.4 65.312 3.425 11.65 11.212 22.113 21.937 27.963 11.25 6.162 24.425 7.375 37.025 7.187 15.225-.35 31.788-4.112 42.225-16.05 11.425-13.287 14.65-31.4 15.775-48.362.563-14.125.125-28.275.263-42.413 0-38.312.012-76.625 0-114.937.037-9.75 1.2-20.288 7.45-28.188 11.025-13.5 35.45-11.962 44.337 3.188 6.375 10.5 5.438 23.237 5.45 35.012v128.813c.125 21.6-1.175 43.512-7.45 64.312-6.45 21.55-21.837 39.863-40.95 51.438-17.112 10.312-37.25 14.25-56.987 15.112-19.8.65-39.838-.462-59.075-5.487-16.775-4.275-32.95-12.45-44.613-25.475-13.825-14.588-21.05-34.113-24.5-53.613-2.612-14.475-3.525-29.2-3.512-43.887V323.8c.087-8.138 1.075-16.663 5.375-23.75 3.5-5.688 9.25-9.963 15.75-11.55m-689.425 12.875c7.662-7.925 19.512-8.888 29.925-8.713 30.837.05 61.687-.05 92.525.05 18.7.388 38.312 1.763 54.912 11.238 20.875 12.337 34.688 35.6 35.825 59.787.763 15.675-2.912 31.938-12.3 44.713-7.562 10.625-18.462 18.25-29.887 24.212 16.587 5.725 32.725 14.95 42.962 29.6 11.825 16.613 14.25 38.188 11.275 57.938-3.725 24.825-19.75 47.762-42.475 58.75-19.137 9-40.725 10.25-61.537 10.85-31.25.15-62.5.012-93.75.062-9.875.1-21.088-1.5-27.838-9.475-6.85-8.462-7.537-19.962-7.45-30.4.013-71.65 0-143.3 0-214.95-.1-11.487 0-24.412 7.813-33.662m49.412 36.687c-.012 25.613 0 51.213-.012 76.825 20.2-.087 40.387.213 60.587-.162 11.963-.763 25.213-1.713 34.663-9.988 12.4-11.212 15.487-30.2 9.787-45.525-2.562-6.837-8.175-12.3-14.962-14.912-12.525-4.95-26.188-5.825-39.513-6.175-16.85-.138-33.7-.038-50.55-.063m0 120c-.012 28.8-.012 57.6 0 86.4 21.825-.025 43.65.075 65.475-.05 14.813-.55 30.938-3.05 42.2-13.562 9.738-9.05 12.338-23.263 11.063-36-.813-10.838-6.15-21.688-15.625-27.463-11.95-7.275-26.338-8.912-40.063-9.312-21.012-.05-42.037-.013-63.05-.013m924.475-160.487c5.763-3.925 12.95-4.975 19.8-4.913 60.425.025 120.838-.012 181.263.013 7.037.037 14.512 1.287 20.162 5.8 12.188 9.675 11.413 31.512-1.95 39.812-5.762 3.613-12.75 4.425-19.4 4.438-20.487-.013-40.975 0-61.45 0-.012 72.025.013 144.05-.012 216.075-.088 10.25-1.938 21.537-9.65 28.962-6.463 6.513-16.388 8.238-25.138 6.513-9.337-1.85-17.05-9.313-19.95-18.275-3.312-9.538-2.337-19.788-2.475-29.7-.012-67.863.013-135.713-.012-203.575-20.888-.025-41.763.012-62.638-.013-6.8-.1-14.062-1.175-19.537-5.537-12.163-9.375-12.1-31.05.987-39.6m-656.962 349.65c14.237-1.638 29.425-.788 42.35 5.975 8.575 4.425 15.55 12.225 18.012 21.662 3.225 12.088 1.65 26.113-6.487 35.988-6.925 8.462-17.475 13.25-28.1 14.962-11.538 1.788-23.513 1.55-34.8-1.562-9.038-2.538-17.713-7.588-23.063-15.463-9.4-13.9-8.975-34.137 2.075-47.012 7.488-8.75 18.825-13.075 30.013-14.55m4.925 12.412c-7.563 1.238-15.113 5.2-18.838 12.15-6.825 12.313-4.325 30.55 8.388 38.1 10.362 6.125 24.212 5.838 34.575-.175 12.637-7.775 14.887-26.175 7.812-38.4-6.512-10.587-20.4-13.525-31.937-11.675M806.775 647c4.175-1.05 9.288-.65 12.4 2.65 1.913 2.137 2 5.125 2.025 7.825-.012 12.1-.025 24.2-.012 36.287.062 5.363.712 11.413 4.762 15.375 4.4 4.188 10.8 5.013 16.625 5.15 5.713.025 11.863-.387 16.75-3.687 4.525-3.188 6.3-8.938 6.45-14.238.288-14.237-.287-28.487.263-42.7 1.575-10.337 20.55-9.45 20.6 1.3.225 12.925.037 25.863.087 38.8-.012 8.35-1.6 17.713-8.412 23.35-10.7 9.425-25.9 10.238-39.463 9.65-11.275-.625-23.975-2.387-31.887-11.337-6.363-7.275-6.875-17.5-6.688-26.688.1-11.262-.15-22.525.113-33.775-.088-3.787 2.762-7.1 6.387-7.962m104.95 3.375c3.35-2.738 7.963-2.5 12.025-2.6 13.325.137 26.663-.238 39.975.237 8.95.35 18.838 2.563 24.775 9.813 5.613 6.625 5.638 17.475-.637 23.675-5.65 5.575-13.713 7.55-21.263 9.025 10.95 4.6 19.038 14.05 25.25 23.887 1.238 2.438 3.463 5.125 2.25 8.013-3.325 5.037-10.85 5.562-15.912 3.087-4.813-2.987-7.688-8.087-11.313-12.275-4.987-5.875-9.15-12.637-15.437-17.25-6.225-4.55-14.338-3.612-21.575-3.675-.125 9.138.275 18.288-.188 27.413-1.587 10.175-20.237 9.6-20.562-1-.213-20-.013-40.013-.1-60-.05-2.963.2-6.363 2.712-8.35m18.15 9.35c-.025 7.087 0 14.162-.025 21.25 8.375-.075 16.75.225 25.125-.213 4.563-.437 9.488-.862 13.325-3.637 4.463-3.213 4.163-10.775-.325-13.825-4.062-3.138-9.412-3.313-14.312-3.5-7.938-.15-15.863-.038-23.788-.075M486.088 797.887c29.962-4.187 61.625 1.038 87.625 16.888 29.112 17.812 51.587 45.812 64.2 77.387 6.3 15.788 9.775 32.588 11.337 49.475 7.775-.037 15.563-.087 23.35 0 4.688-.025 9.95 1.513 12.463 5.8 2.662 4.825 2.525 10.838.8 15.963-1.688 5.012-6.988 7.812-12.05 7.912-8.2.225-16.413 0-24.613.075-2.362 30.188-12.712 59.963-31.262 84.05 19.275.113 38.562-.262 57.812.188 6.713.125 8.638 9.212 4.6 13.537-2.025 2.1-5.125 2.45-7.875 2.513-23.062.062-46.125-.1-69.187.075-15.463 15.975-34.525 28.7-55.738 35.6-25.337 8.212-53.15 8.762-78.75 1.4-20.725-5.95-39.575-17.525-55.15-32.313-1.75-1.55-3.187-3.512-5.212-4.662-22.388-.288-44.788.087-67.163-.175-4.887.237-8.712-4.338-7.937-9.087-.175-4.826 4.825-7.35 9.05-7.05 17.412-.088 34.837-.013 52.25-.026-18.063-24.362-29.2-53.775-31.613-84.025-7.675-.162-15.362.213-23.037-.162-5.025-.25-10.063-3.363-11.513-8.363-1.55-5.375-1.675-11.775 1.7-16.487 2.85-3.75 7.85-4.8 12.3-4.775 6.838-.075 13.688 0 20.525-.013 2.6-36.275 16.775-71.912 41.663-98.65-3.6-5.737-2.525-13.737 2.8-18.025 4.925-4.662 12.6-5.262 18.637-2.512 17.713-12.713 38.325-21.575 59.988-24.538m2.787 6.438c-20.45 2.65-39.912 11.087-56.425 23.325.925 2.75 1.988 5.562 1.763 8.537-.213 7.9-7.675 14.438-15.438 14.413-3.425.137-6.675-1.113-9.75-2.463-22.925 25.725-36.3 59.225-38.887 93.475 11.025.013 22.037-.05 33.05.025 4.837-23.85 19.375-45.387 39.625-58.875 38.837-26.45 95.375-23.612 130.837 7.475 15.388 13.113 26.025 31.513 29.825 51.363 12.988 0 25.988.012 38.988 0-2.238-27.175-11.125-53.875-26.475-76.45-13.163-19.4-30.225-36.563-51.013-47.663-23.1-12.412-50.212-16.537-76.1-13.162m1.613 90.137c-19.625 2.813-37.738 14.513-48.338 31.275-10.25 15.913-12.412 36.35-7.125 54.375 4.775 16.075 16.725 29.388 31.175 37.563 15.325 8.75 33.775 11.162 51.088 8.45 20.237-3.175 38.625-15.975 48.937-33.625 8.488-14.563 10.213-32.513 6.2-48.738-4.212-16.975-16.325-31.2-31.075-40.175-15.125-9.137-33.55-11.625-50.862-9.125M370.3 971.275c2.425 30.537 14.538 60.087 33.413 84.162 10.175.163 20.375-.362 30.525.25 7.712.35 9.262 13.1 1.975 15.313-5.75 1.362-11.75.387-17.6.7 11.062 10.175 23.562 18.9 37.362 24.95 27.325 12.062 59.075 13.362 87.488 4.325 18.312-5.8 34.912-16.275 48.95-29.288-5.375-.062-10.738.076-16.1-.024-3.013-.063-6.575-.738-8.25-3.526-1.588-2.925-1.388-6.812.462-9.562 2.063-2.763 5.788-3.125 8.975-3.138 9.938-.037 19.888 0 29.825-.012 19.638-23.613 31.163-53.513 33.525-84.063-12.337.088-24.687-.037-37.012.063-1.413 11.6-4.75 23-10.363 33.275-10.35 19.062-27.575 34.05-47.412 42.65-19.513 8.45-41.513 10.287-62.413 6.975-22.975-3.7-44.425-15.7-59.825-33.113-12.362-13.762-20.037-31.45-22.125-49.8-10.462-.125-20.937.138-31.4-.137m780.813-172.163c33.1-6.45 68.95-1.062 97.5 17.338 29.362 19 51.812 48.25 63.512 81.125 5.075 14.187 7.888 29.075 9.313 44.05 8.287.05 16.6-.188 24.912.1 4.838.137 10 2.637 11.75 7.425 1.775 5.062 1.625 10.962-.75 15.812-2.312 4.475-7.537 6.4-12.312 6.413-7.9.1-15.8-.063-23.688.05-2.275 30.175-12.712 59.912-31.212 84 17.862 0 35.725.012 53.6-.013 2.987.038 6.375-.012 8.787 2.125 4.325 4.513 1.725 13.788-5.062 13.938-23.95.5-47.925.037-71.888.225-15.562 15.962-34.612 28.787-55.9 35.675-26.45 8.537-55.587 8.787-82.1.337-21.625-6.837-40.837-19.95-56.675-36.025-20.312 0-40.625-.025-60.925.013-3.512-.125-7.225.425-10.5-1.063-4.187-1.975-4.9-7.762-3.025-11.55 1.625-3.062 5.45-3.625 8.6-3.65 17.275-.025 34.55-.012 51.838.013-18.188-24.325-29.225-53.8-31.7-84.05-7.575-.113-15.15.175-22.7-.113-5.338-.175-10.65-3.562-11.988-8.9-1.462-5.775-1.512-13.075 3.2-17.412 3.75-3.338 9.05-3.45 13.788-3.388 5.9.013 11.8.025 17.7.013 2.612-36.263 16.75-71.9 41.675-98.613-3.963-6.125-2.238-14.675 3.712-18.837 4.963-4.05 12.063-4.225 17.775-1.738 15.725-11.312 33.713-19.6 52.763-23.3m5.112 5.975c-18.712 3.225-36.425 11.313-51.637 22.6 2.787 5.85 2.512 13.5-2.475 18.088-5.3 5.75-14.288 6-20.85 2.35-23.013 25.675-36.3 59.237-38.963 93.475 11.038.012 22.088.012 33.138 0 4.162-20.663 15.562-39.7 31.875-53.063 38.65-32.425 100.712-31.537 138.575 1.75 15.375 13.113 25.975 31.5 29.787 51.325 12.988-.025 25.975 0 38.975-.012-3.362-45.763-27.5-89.675-64.9-116.363-26.75-19.087-61.35-25.737-93.525-20.15m5.613 89.5c-25.138 3.85-47.688 22.638-54.788 47.225-4.925 17.55-3.062 37.425 6.875 52.95 10.488 16.313 28.088 27.75 47.163 31.075 14.475 2.538 29.775 1.625 43.462-3.962 11.1-4.538 20.925-12.063 28.413-21.413 17.687-21.6 18.35-55.187 1.75-77.587-7.35-9.9-17.163-18.025-28.425-23.05-13.863-6.188-29.55-7.5-44.45-5.238m-119.538 76.85c2.913 30.45 14.613 60 33.625 84 10.338.2 20.725-.462 31.038.338 7.25.838 8.5 12.862 1.625 15.15-5.813 1.488-11.913.45-17.838.763 10.25 9.35 21.625 17.562 34.2 23.5 28.388 13.575 62.013 15.225 91.825 5.425 18.038-5.8 34.013-16.475 48.125-28.938-6.95-.325-14.037.75-20.862-.675-5.313-1.425-6.15-8.7-3.175-12.612 2.162-2.7 5.9-2.95 9.1-2.963 9.887-.037 19.775.075 29.662-.037 19.525-23.675 30.963-53.475 33.488-83.963a4584.96 4584.96 0 0 0-37.088 0c-1.487 12.15-5.1 24.113-11.187 34.763-11.188 19.65-29.663 34.8-50.7 42.837-19.2 7.263-40.4 8.513-60.525 4.9-25.563-4.687-49.038-19.7-64.075-40.887-8.688-12.238-13.9-26.763-15.65-41.625-10.525-.025-21.063-.063-31.588.025M86.812 808.313c7.8-3 16.275-2.6 24.475-2.588h64.9c17.15.05 34.4-.5 51.425 2.038 20.125 2.525 39.513 13.087 51.325 29.775 11.363 16.237 16.538 36.487 15.513 56.2-.6 16.762-5.15 34-16.025 47.112-13.513 16.6-33.988 25.8-54.438 30.488 16.563 9.475 28.813 24.575 39.6 39.962 12.05 17.213 21.7 36.013 29.725 55.4 2.288 5.788 4.538 11.625 5.85 17.725 1.913 9.513-3.462 19.538-11.7 24.3-7.65 4.738-17.55 5.375-25.9 2.2-8.125-3.462-13.562-10.987-17.987-18.325-14.9-25.662-28.55-52.037-43.563-77.637-7.625-12.3-16.225-25.113-29.537-31.775-14.15-6.475-30.1-4.35-45.188-4.713 0 32.588.013 65.163 0 97.75-.137 9.813-1.512 20.538-8.312 28.138-10.6 12.475-33.55 11.287-42-3.063-4.725-7.437-5.913-16.487-5.938-25.125 0-76.225.013-152.437 0-228.662-.112-8.463.088-17.2 3.35-25.15 2.588-6.413 7.875-11.725 14.425-14.05m38.463 43.612c.025 27.575 0 55.15.012 82.738 20.275-.175 40.575.35 60.838-.313 14.362-1.15 30.262-2.912 41.287-13.175 8.863-8.15 10.863-21.062 9.988-32.512-.688-11.063-6.025-21.988-15.325-28.275-10.275-7.613-23.638-7.7-35.838-8.363-20.312-.237-40.637-.037-60.962-.1M740.612 815.5c6.375-7.887 17.275-9.725 26.863-9.775 31.662.025 63.325-.062 94.987.05 15.05.438 30.513 1.375 44.588 7.175 15.5 6.125 27.725 18.838 35.375 33.413 10.4 20.237 11.5 45.112 2.562 66.062-6.8 15.938-20.487 27.888-35.737 35.55 16.575 5.788 32.525 15.4 42.5 30.2 11 16.125 13.65 36.588 11.425 55.638-2.538 23.212-15.138 45.45-34.675 58.475-12.863 8.637-28.338 12.237-43.538 13.887-22 2.438-44.175 1.4-66.262 1.625-17.875-.05-35.763.088-53.638-.062-9.075-.3-19.175-2.725-24.75-10.5-5.6-7.85-6.537-17.875-6.662-27.238-.025-74.175.012-148.337-.013-222.512-.012-10.9.263-22.838 6.975-31.988m49.3 36.425c.025 26 0 52 .013 78 15.437.063 30.875.013 46.312.025 11.688.013 23.625-.05 34.925-3.437 7.725-2.175 14.4-7.488 18.425-14.4 6.95-10.938 7.788-24.913 4.15-37.138-2.2-7.25-7.562-13.487-14.575-16.45-11.537-4.975-24.287-6.025-36.687-6.537-17.525-.163-35.038-.025-52.563-.063m.013 121.9c-.013 29.275-.013 58.55.012 87.825 20.813-.013 41.638.05 62.463-.025 14.3-.375 29.7-2.487 41.15-11.825 9.225-7.4 13.237-19.512 13.35-31.025.525-12.6-3.25-26.45-13.825-34.237-12.05-8.575-27.4-10.35-41.8-10.7-20.45-.088-40.9-.038-61.35-.013m592.625-163.763c8.562-5.437 19.087-4.225 28.75-4.337h167.425c6.337.025 12.987.975 18.412 4.525 13.875 9.125 13.838 32.825-.087 41.875-5.4 3.475-12 4.438-18.3 4.462-20.375.013-40.763 0-61.138.013v218.425c-.012 10.475-1.462 22.012-8.912 30.013-6.188 6.875-16.238 9.087-25.063 7.225-8.487-1.638-15.525-8.125-18.837-15.963-2.988-7.075-3.538-14.875-3.45-22.462.025-72.413.025-144.826 0-217.238-20.013 0-40.038-.013-60.05 0-6.425.025-13.175-.688-18.725-4.188-14.25-9.025-14.625-33.487-.025-42.35M500.462 941.95c9.438-2.475 20.188 5.587 19.313 15.55-.15 8.637-9.05 14.95-17.3 13.862-7.338-.337-14.275-6.375-14.375-13.95-.588-7.362 5.337-14.05 12.362-15.462m672.525-.063c9.763-2.375 20.588 6.488 18.888 16.725-.975 9.5-11.963 15-20.6 12.15-7.263-1.75-12.438-9.487-10.763-16.875 1.125-6.075 6.488-10.887 12.475-12z" fill="#0052ff" stroke="#0052ff" stroke-width=".1175"/><path d="M723.1 328.037c31.975-34.262 78.65-54.875 125.662-53.725 32.263-.575 64.413 9.363 91.538 26.663 36.063 23 63.013 59.9 73.538 101.4 11.55 43.975 4.487 92.3-18.913 131.25-19.587 32.237-49.787 58-85.062 71.512-19.025 7.213-39.35 11.6-59.75 11.15-41.738 1.413-83.45-14.412-114.763-41.837-13.8-12-25.5-26.3-35.013-41.888-15.35-26.45-23.862-56.9-23.662-87.525-.138-43.025 16.813-85.775 46.425-117m80.75-41.912c-38.95 10.675-73.513 36.212-95.338 70.187-26.2 40.013-33.462 91.575-19.787 137.375 11.975 40.913 40.387 76.738 77.587 97.575-38.812-26.112-63.537-71.825-63.537-118.675-.9-45.95 21.925-91.387 59.05-118.387 35-26.238 82.175-34.875 124.3-23.263 24.512 6.638 47.162 19.913 65.025 37.95 28.862 28.863 44.537 70.313 41.762 111.075-2.325 45.763-28.225 89.225-66.85 113.7 25.938-13.6 48.05-34.3 63.55-59.137 25.225-39.95 31.838-90.85 18.113-136.013-11.213-37.6-36.313-70.8-69.338-91.962-39.212-25.6-89.487-33.05-134.537-20.425m24.387 48.7c-13.425 1.987-26.587 5.9-38.837 11.75-34.175 16.025-61.125 46.7-72.488 82.725-9.737 30.375-8.562 64.162 3.5 93.712 14.125 35.45 43.725 64.275 79.5 77.55 27.4 10.3 58.1 11.538 86.25 3.488 39.525-11 73.213-40.775 89.125-78.575 11.675-27.113 14.05-58 7.188-86.663-9.363-39.437-37.15-73.9-73.638-91.512-24.787-12.175-53.3-16.513-80.6-12.475m-640.775-54.8c14.65-2.638 31.263-.413 42.463 10.15 14.162 12.75 19.012 31.9 25.475 49.1 23.55 61.587 47.187 123.137 70.787 184.712 4.725 12.65 10.388 25.163 12.3 38.65 2.488 17.238-9.575 34.9-26.212 39.563-14.838 4.575-32.6-2.038-39.525-16.238-9.575-18.575-15.775-38.6-23.013-58.137-34.037-.013-68.075 0-102.112-.013-5.388 14.863-10.3 29.9-16.1 44.6-3.15 7.463-6.2 15.163-11.288 21.55-6.687 8.025-17.95 10.413-27.925 9.35-12.062-1.225-22.337-9.75-28.112-20.062-6.163-11.288-4.088-25 .4-36.488 25.825-69.487 51.575-139 77.5-208.45 5.075-12.637 9.05-25.837 16.2-37.537 6.35-10.475 16.925-18.7 29.162-20.75m-13.925 15.962c-9.25 8-13.487 19.95-17.85 31C128.662 398.45 102.412 470.2 75.65 541.75c-3.313 9.1-7.475 18.375-6.525 28.3.55 8.15 5.9 15.05 12.162 19.875 7.463 5.737 18.075 6.362 26.588 2.775 6.937-3.063 9.8-10.638 12.862-17 7.913-18.45 13.85-37.663 20.738-56.5 38.112-.05 76.225-.013 114.337-.025 7.9 21.05 14.363 42.737 24.625 62.813 4.05 8.112 13.05 13.274 22.075 12.887 12.75.313 24.188-9.762 26.975-21.938 2.1-9.95-1.925-19.762-4.975-29.075-12.262-32.162-24.637-64.287-36.95-96.437-16.15-42.6-32.95-84.95-48.537-127.75-5.163-12.638-13.275-25.938-27.1-30.163-12.775-3.437-28.088-2.712-38.388 6.475m1098.413-16.125c10.75-2.15 22.687-.25 31.325 6.788 6.95 5.375 11.187 13.575 13.025 22.05 2 8.6 1.525 17.488 1.575 26.263-.013 44.574 0 89.162-.013 133.737-.175 22.012-1.925 44.337-8.937 65.337-10.637 30.763-37.425 55.013-68.65 63.725-21.588 6.2-44.363 6.613-66.613 4.95-20.35-1.75-41-5.987-58.887-16.25-18.875-10.812-33.2-28.775-40.713-49.1-8.437-22.65-10.537-47.1-10.6-71.1V337.525c.113-11.313-.812-22.975 2.9-33.875 2.463-7.763 7.6-14.638 14.463-19.05 8.537-5.588 19.45-6.775 29.262-4.463 10.363 2.4 19.338 9.975 23.55 19.75 3.476 7.863 4.376 16.6 4.363 25.125-.013 47.05 0 94.1-.013 141.15-.1 14.35.65 28.938 4.95 42.738 2.663 9.175 8.526 17.525 16.788 22.463 11.3 6.587 24.925 7.162 37.675 6.562 12.562-.725 26.287-4.575 33.95-15.3 9.725-13.737 11.463-31.25 11.95-47.587.112-50.863-.013-101.725.063-152.575.187-10.625 2.224-21.788 8.8-30.413 4.824-6.3 12.024-10.637 19.787-12.187m-178.737 8.637c-6.5 1.588-12.25 5.863-15.75 11.55-4.3 7.088-5.288 15.613-5.375 23.75v142.425c-.013 14.688.9 29.413 3.512 43.888 3.45 19.5 10.675 39.025 24.5 53.612 11.663 13.025 27.838 21.2 44.613 25.475 19.237 5.025 39.275 6.138 59.075 5.488 19.737-.863 39.875-4.8 56.987-15.113 19.112-11.575 34.5-29.887 40.95-51.437 6.275-20.8 7.575-42.713 7.45-64.313V335.013c-.012-11.775.925-24.513-5.45-35.013-8.887-15.15-33.312-16.687-44.337-3.187-6.25 7.9-7.413 18.437-7.45 28.187.012 38.313 0 76.625 0 114.938-.138 14.137.3 28.287-.263 42.412-1.125 16.963-4.35 35.075-15.775 48.363-10.438 11.937-27 15.7-42.225 16.05-12.6.187-25.775-1.025-37.025-7.188-10.725-5.85-18.513-16.312-21.938-27.962-6.712-21.1-5.237-43.5-5.4-65.313-.012-41.237.013-82.475-.012-123.712-.175-9.75-1.988-20.488-9.35-27.513-6.888-6.875-17.5-8.725-26.738-6.575m-696.087 7.375c7.9-8.762 20.225-11.625 31.6-11.812 25.862-.063 51.725-.013 77.587-.025 20.5 0 41.425-.575 61.363 5 13.5 3.787 25.937 11.225 35.4 21.612 17.075 17.888 25.312 43.675 21.95 68.163-2.188 21-14.063 40.387-31.288 52.462 16.263 8.163 30.55 21.163 37.938 38.013 8.675 19.775 9.1 42.625 3.462 63.3-6.85 24.137-24.412 45.287-47.525 55.387-20.075 8.663-42.287 9.975-63.862 10.513-30.838.137-61.675.012-92.513.062-11.625.1-24.325-2.175-32.787-10.8-8.738-8.912-11.025-22.012-11.113-34.037 0-75 0-150 .013-225.013.112-11.475 2.05-23.837 9.775-32.825m6.662 5.5c-7.812 9.25-7.912 22.175-7.812 33.663 0 71.65.012 143.3 0 214.95-.088 10.437.6 21.937 7.45 30.4 6.75 7.975 17.962 9.575 27.837 9.475 31.25-.05 62.5.087 93.75-.063 20.813-.6 42.4-1.85 61.538-10.85 22.725-10.987 38.75-33.925 42.475-58.75 2.975-19.75.55-41.325-11.275-57.937-10.238-14.65-26.375-23.875-42.963-29.6 11.425-5.963 22.325-13.588 29.888-24.213 9.387-12.775 13.062-29.037 12.3-44.712-1.138-24.188-14.95-47.45-35.825-59.788-16.6-9.475-36.213-10.85-54.913-11.237-30.837-.1-61.687 0-92.525-.05-10.412-.175-22.262.787-29.925 8.712m968.388-10.475c8.687-6.35 19.875-7.237 30.287-6.875 58.338.013 116.663.013 174.988 0 9.95-.137 20.575 1.925 28.15 8.8 14 12.35 14.137 36.875.362 49.425-7.237 6.813-17.525 9.1-27.187 9.113-18.013.012-36.025-.013-54.025.012 0 68.7-.013 137.413 0 206.113.1 12.075-2.075 25.062-10.3 34.4-12.85 15.212-38.875 15.562-52.475 1.2-8.438-8.238-11.438-20.375-11.7-31.813-.125-69.962-.013-139.937-.05-209.9-18.413-.025-36.813.038-55.213-.037-9.262-.15-19.062-2.55-25.825-9.25-14.35-13.275-13.4-39.938 2.988-51.188m5.5 6.675c-13.088 8.55-13.15 30.225-.988 39.6 5.475 4.363 12.738 5.438 19.538 5.538 20.875.025 41.75-.013 62.637.012.025 67.863 0 135.713.013 203.575.137 9.913-.838 20.163 2.475 29.7 2.9 8.963 10.612 16.425 19.95 18.275 8.75 1.725 18.675 0 25.137-6.512 7.713-7.425 9.563-18.713 9.65-28.963.025-72.025 0-144.05.013-216.075 20.475 0 40.962-.012 61.45 0 6.65-.012 13.637-.825 19.4-4.437 13.362-8.3 14.137-30.138 1.95-39.813-5.65-4.512-13.125-5.762-20.163-5.8-60.425-.025-120.837.013-181.262-.012-6.85-.063-14.038.987-19.8 4.912m-585.925 3.063c42.075-15.975 90.912-13.013 130.65 8.175 39.775 20.725 69.987 58.925 80.7 102.5 8.725 33.887 5.387 70.35-8 102.575 1-4.288 2.6-8.388 3.837-12.6 9.375-32.275 8.125-67.575-3.787-99.013-13.913-37.437-42.813-68.962-78.838-86.187-41.712-20.325-92.55-20.588-134.475-.675-35.625 16.6-64.512 47.112-79.037 83.65-11.413 28.225-14.15 59.787-8.125 89.6 2.687 14.087 7.862 27.55 13.987 40.462-24.112-42.162-27.3-95.462-8.387-140.2 16.637-40.325 50.562-73.1 91.475-88.287m28.3 11.762c26.425-4.9 54.212-2.612 79.362 6.95 45.613 16.963 81.913 57.963 91.638 105.813-11.188-41.725-42.438-77.175-81.725-94.8-40.675-18.513-89.738-17.225-129.3 3.587-38.65 19.838-67.675 57.413-76.763 99.925-1.275 6.55-2.862 13.175-2.487 19.913.125 2.325-1.688 4.137-2.05 6.387.587-4.212 1.312-8.425 1.412-12.675 2.388-39.787 22.05-78 52.713-103.375 19.2-16.087 42.575-27.125 67.2-31.725M453.2 338.063c16.85.025 33.7-.075 50.55.062 13.325.35 26.987 1.225 39.512 6.175 6.788 2.613 12.4 8.075 14.963 14.913 5.7 15.325 2.612 34.312-9.788 45.525-9.45 8.275-22.7 9.225-34.662 9.987-20.2.375-40.388.075-60.588.163.013-25.613 0-51.213.013-76.825m8.662 8.7c.025 19.85-.05 39.7.038 59.537 17.7-.2 35.412.288 53.1-.275 9.337-.812 19.737-1.25 27.337-7.437 10.05-8.85 12.288-24.113 7.8-36.325-1.787-4.85-5.962-8.5-10.787-10.2-12.113-4.5-25.225-5.075-38.025-5.3-13.15-.025-26.313 0-39.463 0m366.375-5.85c35.5-6.538 73.6 4.975 99.625 29.95 16.55 13.525 30.063 30.887 38.3 50.662 11.45 26.95 13.113 57.875 4.875 85.95-10.775 37.513-39.762 69.15-76.15 83.238-30.825 12.212-66.412 11.762-96.912-1.263-35.725-14.925-63.725-46.9-73.738-84.312-7.375-27.15-5.65-56.75 5.2-82.738 8.825-21.575 23.813-40.45 42.475-54.375 15.875-13.9 35.513-23.5 56.325-27.112m-10.362 11.85c-14.35 6.25-26.638 17.112-34.6 30.6-9.3 15.487-12.588 34.437-9.188 52.162-1.85-24.687 9.675-49.787 29.638-64.412 13.537-10.188 30.675-15.463 47.6-14.6 20.75.737 40.85 10.937 53.912 27.037 11.963 14.338 17.8 33.313 16.675 51.888 3.1-16.7.425-34.463-7.725-49.4-7.787-14.538-20.525-26.363-35.6-33.05-19-8.563-41.65-8.663-60.712-.225m-26.313 45.075c-8.362 14.212-10.6 31.6-7.062 47.625-.8-16.113 4.15-32.55 14.612-44.963 12.213-14.987 31.538-23.837 50.888-23.212 18.05.362 35.712 8.9 47.25 22.8 10.662 12.475 15.85 29.15 14.887 45.475 5.5-22.888-2.35-48.363-20.1-63.888-13.625-12.362-32.65-18.45-50.925-16.287-20.45 2.05-39.425 14.6-49.55 32.45m8.45 18.525c-6.6 12.225-7.125 26.687-4.325 40.062-.337-12.012 1.813-24.412 8.675-34.512 10.175-15.788 29.313-25.2 48.038-23.388 16.125 1.225 31.262 10.575 39.762 24.313 7.125 11.087 9.175 24.762 7.163 37.675 6.187-17.263 3.7-37.55-7.638-52.138-10.925-14.675-29.637-23.087-47.875-21.387-18.375 1.375-35.525 12.912-43.8 29.375m-34.762 53.275c6.887 18.75 20.387 34.975 37.537 45.212 18.475 11.2 41.15 15.163 62.35 11.025 19.438-3.687 37.488-14.162 50.35-29.2 14.938-17.15 22.725-40.237 21.338-62.925-.8-15.375-5.963-30.337-14.125-43.325 8.362 16.75 11.987 36.038 8.537 54.575-3.462 20.55-15.037 39.538-31.575 52.175-14.762 11.463-33.437 17.688-52.112 17.425-19.438-.075-38.725-7.25-53.513-19.862-15.95-13.375-26.637-32.875-29.15-53.563-2.337-17.262 1.163-35.037 9.125-50.462-15.212 22.937-18.475 53.187-8.762 78.925m-5.85 38.537c11.487 18.988 29.187 34.188 49.812 42.438 23.588 9.637 50.8 10.012 74.675 1.112 19.65-7.212 36.95-20.637 48.913-37.8 12.312-17.475 18.9-38.862 18.612-60.225-.05-19.525-6.037-38.837-16.462-55.287 1.45 4.412 3.55 8.587 4.875 13.062 6.325 19.438 6.2 40.888-.3 60.263-7.075 21.387-21.963 40.037-41.2 51.737-19.475 12.038-43.338 16.65-65.913 12.925-17.85-2.887-34.825-10.925-48.337-22.95-17.013-14.925-28.463-36.037-31.625-58.45-2.875-19.337.487-39.375 9.012-56.912-21.862 32.212-22.487 77.025-2.062 110.087M730 488.7c7.112 38.763 34.762 72.863 71.062 88.088 28.275 12.162 61.275 12.825 90.025 1.837 37.225-13.825 66.363-47.262 74.825-86.087 6.375-27.825 2.35-57.775-10.925-83.025 2.788 8.2 5.738 16.375 7.1 24.962 4.525 25.263.338 52-11.85 74.6-11.837 22.25-31.187 40.425-54.162 50.788-21.325 9.775-45.688 12.637-68.738 8.375-20.35-3.663-39.6-13.075-55.112-26.738-19.263-16.787-32.688-40.15-37.35-65.287-4.413-22.675-1.475-46.45 7.4-67.7-13.1 24.3-17.55 53.087-12.275 80.187m79.612-59.225c-7.637 11.35-9.537 26.213-5.375 39.2 2.775 9.3 9.125 16.925 16.275 23.263 1.438.737 2.35-1.025 3.325-1.725.725.525 2.163 1.575 2.888 2.1-7.725-6.1-10.413-16.763-8.838-26.175 1.638-10.088 8.775-19.013 18.2-22.938 9.888-4.3 22.025-2.75 30.5 3.938 8.513 6.4 13.1 17.5 11.675 28.05-.737 6.625-4.025 12.675-8.362 17.65 6.787-5.738 11.537-13.938 12.512-22.813 1.513-11.6-3.462-23.737-12.575-31.037-13.062-11.113-34.212-10.063-46.187 2.187-13.175 12.4-13.85 35.263-1.1 48.213-1.913.85-3.925-.113-5.213-1.575-9.375-10.388-12.662-25.763-8.562-39.113 4.862-17.2 21.987-29.95 39.912-29.425 18.138-.25 35.175 13.1 39.588 30.638 3.7 12.937-.088 26.887-8.025 37.462 9.087-9.062 14.275-21.925 13.575-34.775-.488-13.475-7.4-26.512-18.2-34.562-9.688-7.425-22.45-10.625-34.513-8.75-12.737 1.825-24.512 9.387-31.5 20.187m15.325 45.5c.125 5.713 2.913 10.9 6.488 15.213-4.4-7.788-4.075-18.413 2.587-24.838 7.05-7.562 20.088-7.812 27.425-.5 7.088 6.363 7.763 17.563 2.888 25.475 6.587-6.9 8.8-17.762 4.45-26.412-4.4-9.725-16.125-15.25-26.438-12.438-10.4 2.438-18.125 12.825-17.4 23.5m12.338-.087c-4.538 5.412-3.313 13.475 1.125 18.55-.788-3.55-1.463-7.563.8-10.75 3.225-5.563 11.8-6.475 16.15-1.75 3.45 3.175 3.287 8.212 2.35 12.425 4.225-5.113 5.487-13.038 1.012-18.4-4.95-6.95-16.437-6.975-21.437-.075m8.35 11.05c-3.913 1.85-4.138 8.037-.275 10.112 3.525 2.425 8.837-.537 8.837-4.762.313-4.275-4.837-7.575-8.562-5.35m-689.15-12.163c13.712-40.9 27.737-81.7 41.387-122.625 14.3 40.85 28.425 81.75 42.625 122.638-28 0-56.012.025-84.012-.013m12.05-8.687c19.925 0 39.862.012 59.8 0C218.2 436.013 208.162 406.9 198 377.85c-9.75 29.1-19.688 58.15-29.475 87.238m284.675-7.025c21.012 0 42.037-.038 63.05.012 13.725.4 28.112 2.038 40.062 9.313 9.475 5.775 14.813 16.625 15.625 27.462 1.275 12.738-1.325 26.95-11.062 36-11.263 10.513-27.388 13.013-42.2 13.563-21.825.125-43.65.025-65.475.05-.013-28.8-.013-57.6 0-86.4m8.662 8.637v69.113c19.25-.038 38.5.125 57.75-.088 12-.612 24.988-2.362 34.5-10.375 8.638-7.4 10.338-19.75 9.138-30.45-.725-8.325-4.988-16.625-12.463-20.75-10.5-5.85-22.812-7.037-34.612-7.412-18.1-.1-36.213-.025-54.313-.038m256.35 175.5c13.975-1.962 28.663-1.375 41.925 3.788 10.713 4.162 20.3 12.2 24.55 23.087 4.6 11.763 4.4 25.513-.862 37.038-5.8 12.45-18.2 20.712-31.288 23.862-11.912 2.8-24.437 2.938-36.462.788-12.6-2.338-25.088-8.613-32.25-19.575-11.225-17.1-9.313-42.413 6.2-56.325 7.7-7.188 17.925-11 28.187-12.663m2.5 5.025c-11.187 1.475-22.525 5.8-30.012 14.55-11.05 12.875-11.475 33.113-2.075 47.013 5.35 7.875 14.025 12.925 23.062 15.462 11.288 3.113 23.263 3.35 34.8 1.563 10.625-1.713 21.175-6.5 28.1-14.963 8.138-9.875 9.713-23.9 6.488-35.987-2.463-9.438-9.438-17.238-18.013-21.663-12.925-6.762-28.112-7.612-42.35-5.975m83.65-5.05c6.188-2.012 13.825-1.187 18.513 3.65 2.662 2.763 3.662 6.688 3.625 10.438.05 12.912-.038 25.825.025 38.75.037 4.65 1.112 10.437 6.075 12.225 6.662 2.375 14.237 2.287 21 .35 4.9-1.375 6.862-6.8 6.862-11.425.163-13.7-.062-27.4.1-41.1.05-4.975 2.763-9.975 7.375-12.113 5.688-2.662 12.888-2.45 18.225 1 4.038 2.6 5.988 7.525 5.863 12.213 0 12.975.037 25.95-.013 38.925-.1 9.35-2.512 19.45-9.925 25.75-10.962 10.025-26.637 11.787-40.862 11.337-12.6-.45-26.45-2.112-36.125-11.037-7.613-6.863-10.163-17.55-10.113-27.45.038-12.925-.087-25.85.063-38.763-.05-5.725 3.875-11.025 9.312-12.75m2.413 4.825c-3.625.863-6.475 4.175-6.388 7.963-.262 11.25-.012 22.512-.112 33.775-.188 9.187.325 19.412 6.687 26.687 7.913 8.95 20.613 10.713 31.888 11.338 13.562.587 28.762-.225 39.462-9.65 6.813-5.638 8.4-15 8.413-23.35-.05-12.938.137-25.875-.088-38.8-.05-10.75-19.025-11.638-20.6-1.3-.55 14.212.025 28.462-.262 42.7-.15 5.3-1.925 11.05-6.45 14.237-4.888 3.3-11.038 3.713-16.75 3.688-5.825-.138-12.225-.963-16.625-5.15-4.05-3.963-4.7-10.013-4.763-15.375-.012-12.088 0-24.188.013-36.288-.025-2.7-.113-5.687-2.025-7.825-3.113-3.3-8.225-3.7-12.4-2.65m101.8-.925c3.887-3.15 9.1-3.612 13.925-3.6 12.087.038 24.187-.037 36.275.038 10.25.05 21.237 1.287 29.6 7.787 8.275 6.175 11.912 17.85 8.05 27.525-2.65 7.275-9.463 11.913-16.375 14.663 7.637 6.562 14.25 14.487 18.662 23.587 2.225 4.163.813 9.5-2.837 12.35-7.138 5.688-18.713 5.038-24.863-1.837-7.2-7.85-12.962-16.95-20.475-24.513-3.937-4.212-9.937-4.575-15.325-4.512-.1 7.05.113 14.112-.087 21.162-.075 5.488-3.788 10.588-8.975 12.375-6.213 2.113-14.075 1.488-18.788-3.487-2.925-3-3.825-7.325-3.7-11.388.025-19.587-.012-39.175.025-58.762-.087-4.25 1.4-8.738 4.888-11.388m3.15 4.3c-2.513 1.988-2.763 5.388-2.713 8.35.088 19.988-.112 40 .1 60 .325 10.6 18.975 11.175 20.563 1 .462-9.125.062-18.275.187-27.412 7.238.062 15.35-.875 21.575 3.675 6.288 4.612 10.45 11.375 15.438 17.25 3.625 4.187 6.5 9.287 11.312 12.275 5.063 2.475 12.588 1.95 15.913-3.088 1.212-2.887-1.013-5.575-2.25-8.012-6.213-9.838-14.3-19.288-25.25-23.888 7.55-1.475 15.612-3.45 21.262-9.025 6.275-6.2 6.25-17.05.638-23.675-5.938-7.25-15.825-9.462-24.775-9.812-13.313-.475-26.65-.1-39.975-.238-4.063.1-8.675-.137-12.025 2.6m-186.088 9.263c11.538-1.85 25.425 1.087 31.938 11.675 7.075 12.225 4.825 30.625-7.813 38.4-10.362 6.012-24.212 6.3-34.575.175-12.712-7.55-15.212-25.788-8.387-38.1 3.725-6.95 11.275-10.913 18.837-12.15m-2.562 6.037c-15.913 3.688-19.213 26.55-8.425 37.138 7.062 6.662 17.9 7.325 26.862 4.825 6.513-1.788 11.963-7.05 13.688-13.613 2.1-8.35 1.075-18.712-6.088-24.4-7.287-5.575-17.412-6.287-26.037-3.95m206.8-5.95c7.925.038 15.85-.075 23.787.075 4.9.188 10.25.363 14.313 3.5 4.487 3.05 4.787 10.613.325 13.825-3.838 2.775-8.763 3.2-13.325 3.638-8.375.437-16.75.137-25.125.212.025-7.087 0-14.162.025-21.25m5.312 5.325c0 3.538 0 7.075.013 10.625 8.65-.212 17.425.65 25.962-1.15 2.15-.55 5.463-1.55 4.975-4.437-.187-3.013-3.775-4.013-6.225-4.488-8.2-.975-16.487-.4-24.725-.55m-453.75 125.775c31.1-5.112 64.138-.587 91.825 14.825 29.588 16.513 52.888 43.263 67.463 73.663 8.137 17.175 13.162 35.737 15.412 54.6 9.425.55 19.6-1.713 28.363 2.8 6.712 3.387 10.25 10.987 10.237 18.3.438 8.012-2.625 16.912-9.987 20.975-8.713 4.9-19.113 2.512-28.625 3.1-2.825 24.225-10.625 47.962-23.575 68.687 13.762.013 27.537-.037 41.3.013 5.675-.088 11.75 2.437 14.425 7.687 3.3 6.538 2.15 15.638-3.813 20.288-3.375 2.712-7.825 3.587-12.062 3.587-21.913 0-43.838 0-65.75-.012-12.263 12-26.313 22.275-41.925 29.475-28.125 13.062-60.638 16.05-90.813 9.2-25.95-5.838-49.525-20.025-68.325-38.65-20.187-.025-40.387-.038-60.587 0-4.088.05-8.4-.175-12-2.325-9.013-5.013-10-19.638-1.838-25.863 3.513-2.787 8.15-3.487 12.513-3.412 12.175 0 24.362.012 36.537 0-12.85-20.813-21.125-44.4-24.112-68.688-9.95-.362-21.625 1.938-29.65-5.537-9.988-9.775-9.238-30.175 3.875-36.975 7.962-4.05 17.162-2.25 25.725-2.65 3.675-33.788 17.15-66.625 39.55-92.313-1.963-7.275-.175-15.437 5.162-20.85 5.975-6.7 15.675-9.05 24.263-6.962 16.937-11.463 36.187-19.65 56.412-22.963m4.65 7.063c-21.662 2.962-42.275 11.825-59.987 24.537-6.038-2.75-13.713-2.15-18.638 2.513-5.325 4.287-6.4 12.287-2.8 18.025C379.775 869.7 365.6 905.338 363 941.613c-6.838.012-13.688-.063-20.525.012-4.45-.025-9.45 1.025-12.3 4.775-3.375 4.713-3.25 11.113-1.7 16.488 1.45 5 6.487 8.112 11.512 8.362 7.675.375 15.363 0 23.038.163 2.412 30.25 13.55 59.662 31.612 84.025-17.412.012-34.837-.063-52.25.025-4.225-.3-9.225 2.225-9.05 7.05-.775 4.75 3.05 9.325 7.938 9.087 22.375.263 44.775-.112 67.162.175 2.025 1.15 3.463 3.113 5.213 4.663 15.575 14.787 34.425 26.362 55.15 32.312 25.6 7.363 53.412 6.813 78.75-1.4 21.212-6.9 40.275-19.625 55.737-35.6 23.063-.175 46.125-.012 69.188-.075 2.75-.062 5.85-.412 7.875-2.512 4.037-4.325 2.112-13.413-4.6-13.538-19.25-.45-38.538-.075-57.813-.187 18.55-24.088 28.9-53.863 31.263-84.05 8.2-.075 16.412.15 24.612-.075 5.063-.1 10.363-2.9 12.05-7.913 1.725-5.125 1.863-11.137-.8-15.962-2.512-4.288-7.775-5.825-12.462-5.8-7.788-.088-15.575-.038-23.35 0-1.563-16.888-5.038-33.688-11.338-49.475-12.612-31.575-35.087-59.575-64.2-77.388-26-15.85-57.662-21.075-87.625-16.887m662.525-6.125c35.863-7.275 74.863-1.225 105.575 19.125 41.338 27.35 68.863 73.85 74.138 123.025 9.975.587 21.112-2.038 30 3.787 8.837 5.8 10.175 18.038 7.275 27.425-2.225 7.425-9.213 12.775-16.838 13.613-6.8.7-13.637.175-20.45.35-2.825 24.225-10.637 47.95-23.562 68.675 13.837.025 27.675-.038 41.525.037 4.875.013 10.012 1.8 13.012 5.85 3.7 5 3.825 12.163 1.1 17.65-2.65 5.175-8.537 7.913-14.175 7.988-22.375.187-44.762-.088-67.137.137-11.863 10.863-24.663 21-39.263 28.013-28.687 14.175-62.312 17.65-93.462 10.637-26.025-5.825-49.713-20-68.55-38.712-20.925-.038-41.85 0-62.775-.013-3.4-.037-6.863-.562-9.813-2.3-9.15-5.062-10.05-20.037-1.537-26.112 3.212-2.388 7.325-3.175 11.262-3.163 12.488-.025 24.975 0 37.463 0-12.85-20.825-21.138-44.412-24.113-68.7-9.125-.412-19.287 1.675-27.35-3.737-8.55-5.613-10.375-17.288-8.075-26.6 1.65-6.95 7.525-12.45 14.45-13.963 6.863-1.537 13.963-.612 20.925-.862 3.663-33.8 17.163-66.613 39.55-92.325-1.987-7.363-.112-15.625 5.338-21.025 5.975-6.563 15.562-8.85 24.062-6.763 15.55-10.487 33-18.312 51.425-22.037m2.5 7.35c-19.05 3.7-37.037 11.987-52.762 23.3-5.713-2.488-12.813-2.313-17.775 1.737-5.95 4.163-7.675 12.713-3.713 18.838-24.925 26.712-39.062 62.35-41.675 98.612-5.9.013-11.8 0-17.7-.012-4.737-.063-10.037.05-13.787 3.387-4.713 4.338-4.663 11.638-3.2 17.413 1.337 5.337 6.65 8.725 11.987 8.9 7.55.287 15.125 0 22.7.112 2.475 30.25 13.513 59.725 31.7 84.05-17.287-.025-34.562-.037-51.837-.012-3.15.025-6.975.587-8.6 3.65-1.875 3.787-1.163 9.575 3.025 11.55 3.275 1.487 6.987.937 10.5 1.062 20.3-.037 40.612-.012 60.925-.012 15.837 16.075 35.05 29.187 56.675 36.025 26.512 8.45 55.65 8.2 82.1-.338 21.287-6.887 40.337-19.712 55.9-35.675 23.962-.187 47.937.275 71.887-.225 6.788-.15 9.388-9.425 5.063-13.937-2.413-2.138-5.8-2.088-8.788-2.125-17.875.025-35.737.012-53.6.012 18.5-24.087 28.938-53.825 31.213-84 7.887-.112 15.787.05 23.687-.05 4.775-.012 10-1.937 12.313-6.412 2.375-4.85 2.525-10.75.75-15.813-1.75-4.787-6.913-7.287-11.75-7.425-8.313-.287-16.625-.05-24.913-.1-1.425-14.975-4.237-29.862-9.312-44.05-11.7-32.875-34.15-62.125-63.513-81.125-28.55-18.4-64.4-23.787-97.5-17.337m-1080.037 9.45c7.875-8.688 20.125-11.488 31.412-11.525 30.825-.013 61.638 0 92.463 0 12.6-.013 25.237.637 37.687 2.7 22 3.75 42.75 16.287 55.025 35.112 12.188 18.7 17.225 41.65 15.238 63.8-1.3 18.6-7.725 37.375-20.663 51.125-10.45 11.513-24.237 19.488-38.687 24.875 16.187 14.45 28.575 32.6 39.562 51.163 9.388 17.062 18.238 34.625 23.763 53.362 3.137 9.675.825 20.563-5.363 28.538-12 15.975-38.1 18.837-52.887 5.175-7.613-6.588-12.45-15.563-17.375-24.175-11.775-21.138-23.413-42.363-35.25-63.463-7.35-12.137-14.725-25.237-27.05-33-10.588-6.025-23.238-4.962-34.963-5.05-.012 30.1.038 60.2-.025 90.288-.162 11.737-2.612 24.325-10.912 33.162-13.475 15.263-41.013 14.638-53.35-1.75-7.275-9.162-9.363-21.25-9.4-32.662 0-77.925-.013-155.863.012-233.8.075-11.938 2.213-24.913 10.763-33.875m15.737-.25c-6.55 2.325-11.837 7.637-14.425 14.05-3.262 7.95-3.462 16.687-3.35 25.15.013 76.225 0 152.437 0 228.662.025 8.638 1.213 17.688 5.938 25.125 8.45 14.35 31.4 15.538 42 3.063 6.8-7.6 8.175-18.325 8.312-28.138.013-32.587 0-65.162 0-97.75 15.088.363 31.038-1.762 45.188 4.713 13.312 6.662 21.912 19.475 29.537 31.775 15.013 25.6 28.663 51.975 43.563 77.637 4.425 7.338 9.862 14.863 17.987 18.325 8.35 3.175 18.25 2.538 25.9-2.2 8.238-4.762 13.613-14.787 11.7-24.3-1.312-6.1-3.562-11.937-5.85-17.725-8.025-19.387-17.675-38.187-29.725-55.4-10.787-15.387-23.037-30.487-39.6-39.962 20.45-4.688 40.925-13.888 54.438-30.488 10.875-13.112 15.425-30.35 16.025-47.112 1.025-19.713-4.15-39.963-15.513-56.2-11.812-16.688-31.2-27.25-51.325-29.775-17.025-2.538-34.275-1.988-51.425-2.038h-64.9c-8.2-.012-16.675-.412-24.475 2.588m647.05 1.7c7.688-9.65 20.688-12.863 32.513-12.963 31.6-.025 63.212-.037 94.812.013 20.475.337 41.988 2.225 59.85 13.187 21.35 13.463 35.488 37.188 38.2 62.188 1.563 15.862-.612 32.35-7.762 46.7-5.375 10.912-13.663 20.237-23.4 27.475 14.675 7.612 27.637 19.125 35.25 33.962 9.775 18.888 11.162 41.2 7.337 61.863-4.487 23.187-18.225 44.725-38.137 57.637-11.625 7.625-25.225 11.638-38.863 13.763-23.537 3.587-47.412 2.475-71.137 2.662-19.163-.037-38.325.075-57.488-.05-11.737-.237-24.462-3.975-31.625-13.9-7.9-10.762-8.675-24.737-8.45-37.6.013-72.487.013-144.987 0-217.475-.187-12.862.775-26.875 8.9-37.462m6.75 5.487c-6.712 9.15-6.987 21.088-6.975 31.988.025 74.175-.012 148.337.013 222.512.125 9.363 1.062 19.388 6.662 27.238 5.575 7.775 15.675 10.2 24.75 10.5 17.875.15 35.763.012 53.638.062 22.087-.225 44.262.813 66.262-1.625 15.2-1.65 30.675-5.25 43.538-13.887 19.537-13.025 32.137-35.263 34.675-58.475 2.225-19.05-.425-39.513-11.425-55.638-9.975-14.8-25.925-24.412-42.5-30.2 15.25-7.662 28.937-19.612 35.737-35.55 8.938-20.95 7.838-45.825-2.562-66.062-7.65-14.575-19.875-27.288-35.375-33.413-14.075-5.8-29.538-6.737-44.588-7.175-31.662-.112-63.325-.025-94.987-.05-9.588.05-20.488 1.888-26.863 9.775m635.638-11.675c8.587-6.325 19.675-7.162 29.987-6.8 57.5.013 115 .013 172.513.013 9.187-.05 18.912 1.975 26.075 8.1 15.3 12.812 15.212 39.6-.238 52.262-6.812 5.713-15.925 7.788-24.637 7.9-17.875.038-35.75 0-53.613.013-.012 70.312 0 140.625-.012 210.937-.025 12.325-2.563 25.613-11.35 34.85-12.763 13.938-37.225 13.988-50.238.363-9.362-9.05-12.112-22.625-12.087-35.163-.025-70.337 0-140.662-.013-210.987-17.95-.013-35.887.025-53.825-.013-8.787-.137-18.025-2.325-24.675-8.375-15.337-13.35-14.812-41.275 2.113-53.1m6.3 6.238c-14.6 8.862-14.225 33.325.025 42.35 5.55 3.5 12.3 4.212 18.725 4.187 20.012-.012 40.037 0 60.05 0 .025 72.413.025 144.825 0 217.238-.088 7.587.462 15.387 3.45 22.462 3.312 7.838 10.35 14.325 18.837 15.963 8.825 1.862 18.875-.35 25.063-7.225 7.45-8 8.9-19.538 8.912-30.013V856.6c20.375-.012 40.763 0 61.138-.012 6.3-.025 12.9-.988 18.3-4.463 13.925-9.05 13.962-32.75.087-41.875-5.425-3.55-12.075-4.5-18.412-4.525H1411.3c-9.663.113-20.188-1.1-28.75 4.338m-893.675-5.738c25.887-3.375 53 .75 76.1 13.163 20.787 11.1 37.85 28.262 51.012 47.662 15.35 22.575 24.238 49.275 26.475 76.45-13 .013-26 0-38.987 0-3.8-19.85-14.438-38.25-29.825-51.362-35.463-31.088-92-33.925-130.838-7.475-20.25 13.487-34.787 35.025-39.625 58.875-11.012-.075-22.025-.013-33.05-.025 2.588-34.25 15.963-67.75 38.888-93.475 3.075 1.35 6.325 2.6 9.75 2.462 7.762.025 15.225-6.512 15.437-14.412.225-2.975-.837-5.788-1.762-8.538 16.512-12.237 35.975-20.675 56.425-23.325m-47.325 26.238c1.275 7.425-.713 15.55-6.35 20.762-6.063 6.325-15.563 8.263-23.888 6.013-18.012 21.675-29.075 48.687-32.637 76.575H397.2c5.937-22.6 20.237-42.663 39.262-56.113 41.025-29.4 101.713-27.375 140.438 5.113 15.887 13.037 27.6 31.062 32.7 51 8.1-.013 16.2 0 24.312 0-5.062-39.825-26.775-77.263-59.025-101.188-38.2-28.287-94.262-29.35-133.337-2.162m714.675-25.475c32.175-5.588 66.775 1.062 93.525 20.15 37.4 26.687 61.537 70.6 64.9 116.362-13 .013-25.987-.012-38.975.013-3.812-19.825-14.412-38.213-29.787-51.325-37.863-33.288-99.925-34.175-138.575-1.75-16.313 13.362-27.713 32.4-31.875 53.062-11.05.013-22.1.013-33.138 0 2.663-34.237 15.95-67.8 38.963-93.475 6.562 3.65 15.55 3.4 20.85-2.35 4.987-4.587 5.262-12.237 2.475-18.087 15.212-11.288 32.925-19.375 51.637-22.6m-42.4 25.362c.975 7.138-.5 14.913-5.737 20.163-6.05 6.812-15.925 9.1-24.588 6.737-18.025 21.65-29.075 48.688-32.65 76.563 6.138.025 12.287-.075 18.438.062 3.15-10.812 7.637-21.3 14.112-30.575 17.787-26.025 47.787-42.712 79.037-45.6 29.638-3.237 60.65 4.55 84.2 23.125 17.063 13.213 29.813 32 35.125 52.975 8.113.025 16.213.013 24.325.013-5.087-40.075-27.05-77.763-59.662-101.638-24.2-17.737-55.525-24.375-85.05-20.275-17.025 2.313-33.25 8.988-47.55 18.45m-988.55 21.475c20.325.063 40.65-.137 60.963.1 12.2.663 25.562.75 35.837 8.363 9.3 6.287 14.638 17.212 15.325 28.275.875 11.45-1.125 24.362-9.987 32.512-11.025 10.263-26.925 12.025-41.288 13.175-20.262.663-40.562.138-60.837.313-.013-27.588.012-55.163-.013-82.738m8.713 8.7v65.325c14.087-.012 28.175 0 42.25-.012 11.35-.075 22.85-.938 33.712-4.45 6.688-2.15 13.075-6.5 16.113-13.025 3.312-7.838 3.512-16.8 1.7-25.025-2.213-10.375-11.163-18.575-21.438-20.65-8.65-1.763-17.525-2.013-26.337-2.138-15.325-.05-30.663-.012-46-.025m655.925-8.7c17.525.038 35.037-.1 52.562.063 12.4.512 25.15 1.562 36.688 6.537 7.012 2.963 12.375 9.2 14.575 16.45 3.637 12.225 2.8 26.2-4.15 37.138-4.025 6.912-10.7 12.225-18.425 14.4-11.3 3.387-23.238 3.45-34.925 3.437-15.438-.012-30.875.038-46.313-.025-.012-26 .013-52-.012-78m8.75 8.7v60.625c13.387.013 26.762 0 40.15.013 11.412-.15 23.375-.05 34.025-4.725 12.312-6.638 16.262-22.563 13.5-35.475-1.038-6.413-5.025-12.538-11.3-14.813-11.463-4.637-24.05-5.275-36.263-5.587-13.375-.075-26.75-.025-40.112-.038m-308.175 33.838c17.312-2.5 35.737-.013 50.862 9.125 14.75 8.975 26.863 23.2 31.075 40.175 4.013 16.225 2.288 34.175-6.2 48.737-10.312 17.65-28.7 30.45-48.937 33.625-17.313 2.713-35.763.3-51.088-8.45-14.45-8.175-26.4-21.487-31.175-37.562-5.287-18.025-3.125-38.463 7.125-54.375 10.6-16.763 28.713-28.463 48.338-31.275m.225 7.725c-18.013 2.837-34.463 14.137-43.488 30-7.462 12.95-9 28.837-5.537 43.262 3.575 14.713 14.062 27.038 26.887 34.725 14.225 8.613 31.65 10.938 47.913 8.288 17.6-2.875 33.55-13.963 42.737-29.2 7.713-12.813 9.263-28.725 5.9-43.125-3.65-15.213-14.487-27.913-27.65-35.938-13.887-8.425-30.9-10.5-46.762-8.012m671.125-7.6c14.9-2.263 30.587-.95 44.45 5.237 11.262 5.025 21.075 13.15 28.425 23.05 16.6 22.4 15.937 55.988-1.75 77.588-7.488 9.35-17.313 16.875-28.413 21.412-13.687 5.588-28.987 6.5-43.462 3.963-19.075-3.325-36.675-14.763-47.163-31.075-9.937-15.525-11.8-35.4-6.875-52.95 7.1-24.588 29.65-43.375 54.788-47.225m1.287 7.562c-22.475 3.4-42.7 20.25-48.85 42.313-4.125 15.375-2.525 32.725 6.2 46.287 9.563 14.8 25.725 25 43.1 27.725 13.488 2.138 27.763 1.075 40.275-4.662 11.413-5.275 21.275-13.988 27.713-24.813 7.575-12.75 9.087-28.525 5.762-42.825-3.612-15.162-14.425-27.85-27.512-35.887-13.85-8.45-30.838-10.575-46.688-8.138M498.05 934.625c11.25-3.137 24.05 3.375 28.088 14.313 2.962 7.9 1.012 17.412-5.075 23.325-8.588 8.737-23.925 9.062-33.1 1.05-5.525-4.7-8.363-12.238-7.388-19.413 1-9.275 8.55-17.087 17.475-19.275m2.413 7.325c-7.025 1.413-12.95 8.1-12.363 15.463.1 7.575 7.038 13.612 14.375 13.95 8.25 1.087 17.15-5.225 17.3-13.863.875-9.962-9.875-18.025-19.312-15.55m670.125-7.4c11.837-3.175 25.3 4.475 28.362 16.388 2.1 7.712-.312 16.475-6.275 21.875-9.062 8.587-24.825 8.3-33.625-.525-4.9-4.788-7.25-11.925-6.25-18.688 1.138-9.262 8.788-17.012 17.788-19.05m2.4 7.338c-5.988 1.112-11.35 5.925-12.475 12-1.675 7.387 3.5 15.125 10.762 16.875 8.638 2.85 19.625-2.65 20.6-12.15 1.7-10.238-9.125-19.1-18.887-16.725M370.3 971.275c10.463.275 20.938.013 31.4.138 2.088 18.35 9.763 36.037 22.125 49.8 15.4 17.412 36.85 29.412 59.825 33.112 20.9 3.313 42.9 1.475 62.413-6.975 19.837-8.6 37.062-23.587 47.412-42.65 5.613-10.275 8.95-21.675 10.363-33.275 12.325-.1 24.675.025 37.012-.062-2.362 30.55-13.887 60.45-33.525 84.062-9.937.013-19.887-.025-29.825.013-3.187.012-6.912.375-8.975 3.137-1.85 2.75-2.05 6.638-.462 9.563 1.675 2.787 5.237 3.462 8.25 3.525 5.362.1 10.725-.038 16.1.025-14.038 13.012-30.638 23.487-48.95 29.287-28.413 9.038-60.163 7.738-87.488-4.325-13.8-6.05-26.3-14.775-37.362-24.95 5.85-.312 11.85.663 17.6-.7 7.287-2.212 5.737-14.962-1.975-15.312-10.15-.613-20.35-.088-30.525-.25-18.875-24.075-30.988-53.625-33.413-84.163m8.525 7.813c3.688 24.812 13.638 48.625 28.713 68.687 8.337.025 16.675-.075 25.012.038 5.113.062 10.4 2.2 13.3 6.562 5.438 7.963 2.6 20.6-6.9 24.013 15.888 10.862 34.288 18.2 53.5 20.1 27.5 3.125 55.938-3.888 78.763-19.55-2.65-1.013-5.425-1.963-7.45-4.013-5.225-4.95-5.663-13.562-2.25-19.625 2.9-5.137 8.987-7.562 14.675-7.5 9.15-.087 18.3 0 27.45-.025 15.562-19.762 25.312-43.812 28.675-68.687-7.288-.013-14.575-.013-21.85-.013-4.863 28.475-23.35 53.663-47.975 68.388-24.438 15.075-54.65 19.15-82.65 13.962-23.3-4.312-44.95-16.6-60.863-34.125-12.325-13.4-20.625-30.325-23.887-48.225-5.425 0-10.85 0-16.263.013m663.475-7.65c10.525-.088 21.063-.05 31.587-.025 1.75 14.862 6.963 29.387 15.65 41.625 15.038 21.187 38.513 36.2 64.076 40.887 20.125 3.613 41.325 2.363 60.525-4.9 21.037-8.037 39.512-23.187 50.7-42.837 6.087-10.65 9.7-22.613 11.187-34.763 12.363-.05 24.725-.05 37.088 0-2.525 30.488-13.963 60.288-33.488 83.963-9.887.112-19.775 0-29.662.037-3.2.013-6.938.263-9.1 2.963-2.975 3.912-2.138 11.187 3.175 12.612 6.825 1.425 13.912.35 20.862.675-14.112 12.463-30.087 23.138-48.125 28.938-29.812 9.8-63.437 8.15-91.825-5.425-12.575-5.938-23.95-14.15-34.2-23.5 5.925-.313 12.025.725 17.838-.763 6.875-2.287 5.625-14.312-1.625-15.15-10.313-.8-20.7-.137-31.038-.337-19.012-24-30.712-53.55-33.625-84m8.713 7.637c3.675 24.825 13.65 48.625 28.687 68.7 7.625-.012 15.263-.012 22.888-.012 5.175-.163 10.825 1.112 14.337 5.2 6.85 7.687 4.325 21.812-5.775 25.4 15.575 10.725 33.65 17.962 52.513 20.012 27.737 3.35 56.625-3.5 79.625-19.437-2.488-1.013-5.125-1.9-7.088-3.788-5.737-5.175-6.075-14.675-1.837-20.875 3.162-4.587 8.912-6.55 14.3-6.487 9.05-.063 18.112 0 27.162-.013 15.563-19.762 25.3-43.812 28.675-68.687-7.287-.025-14.562-.013-21.837-.013-4.225 24.188-18.1 46.225-37.488 61.15-38.975 30.738-98.625 31.25-138.212 1.388-20.413-14.938-35.338-37.488-39.688-62.538h-16.262m-261.088-5.25c20.45-.025 40.9-.075 61.35.013 14.4.35 29.75 2.125 41.8 10.7 10.575 7.787 14.35 21.637 13.825 34.237-.112 11.513-4.125 23.625-13.35 31.025-11.45 9.338-26.85 11.45-41.15 11.825-20.825.075-41.65.013-62.462.025-.025-29.275-.025-58.55-.013-87.825m8.738 8.688v70.4c15.45 0 30.912-.013 46.362 0 13.863.075 28.85-.35 40.838-8.2 8.975-5.8 12.537-16.975 12.337-27.213.325-10.2-2.912-21.675-12.162-27.212-11.95-7.025-26.325-7.725-39.838-7.775-15.85.012-31.687 0-47.537 0z" stroke="#000" stroke-width=".1175"/></g></svg>