<svg xmlns="http://www.w3.org/2000/svg" height="97.986" viewBox="0 0 101.08475 97.985955" width="101.085"><g transform="translate(1.085 13.298)" fill="gray"><rect width="100.881" height="73.22" x="-1.085" y="-.707" ry="0"/><rect width="100.818" height="37.54" x="-1.085" y="-13.298" ry="0"/><path d="M-1.085 72.378H99.793v12.31H-1.085z"/></g><path d="M8.228 27.584h85.714c3.943 0 7.143-3.2 7.143-7.143 0-3.943-3.2-7.143-7.143-7.143H8.228a7.145 7.145 0 0 0-7.143 7.143c0 3.943 3.2 7.143 7.143 7.143zM93.942 41.87H8.228a7.145 7.145 0 0 0-7.143 7.142c0 3.943 3.2 7.143 7.143 7.143h85.714c3.943 0 7.143-3.2 7.143-7.143 0-3.942-3.2-7.142-7.143-7.142zm0 28.571H8.228a7.145 7.145 0 0 0-7.143 7.143c0 3.943 3.2 7.143 7.143 7.143h85.714c3.943 0 7.143-3.2 7.143-7.143 0-3.943-3.2-7.143-7.143-7.143z"/></svg>