<svg xmlns="http://www.w3.org/2000/svg" width="1677.5" height="1373.75" viewBox="0 0 1677.5 1373.75"><g stroke-width=".094" stroke-miterlimit="10"><path d="M791.275 269.762C882.438 259.2 976.7 280 1055.3 327.25c65.987 39.6 121.025 97.387 156.675 165.65 13.55 25.812 24.438 53 32.725 80.937 13-.237 26.012-.112 39.025-.125 5.387 0 10.913-.337 16.137 1.313 9.063 2.712 17.2 8.65 22.3 16.662 6.863 10.463 9.063 23.675 6.575 35.9-1.675 9.413-8.05 18.325-17.237 21.6 2.338 5.963 6.925 10.75 8.838 16.925 2.225 6.838 5.162 13.975 3.787 21.3-.675 3.963-.775 7.988-1.275 11.963-1.087 3.975-3.162 7.575-4.537 11.45-6.6 16.212-21.4 27.737-37.45 33.787-8.876 3.013-18.338 3.4-27.476 5.238.488 5.875-.612 11.7-2.412 17.275-2.075 6.187-.975 13.025-3.675 19.05-3.437 8.45-4.6 17.55-7.162 26.25-3.513 9.575-6.038 19.512-10.05 28.9-4.55 9.062-8.363 18.475-12.288 27.825-11.462 21.737-22.75 43.812-37.612 63.512-4.763 5.35-7.875 11.925-12.775 17.163-4.65 4.587-8 10.275-12.675 14.85-14.738 16.5-30.488 32.15-47.413 46.387-5.037 5.575-11.85 8.913-17.562 13.675-20.013 16.3-42.8 28.65-65.475 40.788-8.1 4.325-16.8 7.337-25.025 11.387-5.563 2.813-11.775 3.8-17.513 6.15-8.737 3.363-17.275 7.6-26.65 8.888-6.537.912-12.212 4.888-18.812 5.463-13.963 1.675-27.313 6.875-41.438 7.4-11.475 2.537-23.212 3.362-34.925 3.862-9.5 1.638-19.137.663-28.7.95-3.7.075-7.425.163-11.075-.525-6.637-1.337-13.462-.3-20.112-1.475-8.438-.687-16.6-3.037-25.013-3.85-12.55-1.9-25.462-2.862-37.35-7.637-3.425-1.2-7.2-.725-10.575-2.025-3.187-1.238-6.287-2.788-9.675-3.35-11.3-2.038-21.575-7.35-32.325-11.1-15.787-5.475-30.612-13.188-45.475-20.725-9.625-5.138-18.687-11.25-28.175-16.625-8.187-3.913-14.937-10.063-22.312-15.213-8.988-7.712-19.125-14-27.513-22.4-7.775-6.387-15.675-12.712-21.862-20.737-8.65-8.413-16.925-17.188-24.425-26.65-7.638-7.613-13.4-16.775-19.7-25.463-11.825-14.262-20.175-30.912-29.1-47.025-3.188-5.012-4.85-10.787-7.963-15.825-10.65-18.787-16.65-39.675-23.737-59.95-2.075-5.925-2.263-12.3-4.213-18.25-1.775-5.3-2.212-10.925-4.05-16.2-2.9-7.45-1.95-15.65-4.225-23.262-2.637-7.963-1.15-16.475-3.262-24.538-1.488 6.575-5.688 12.338-11.525 15.713-8.2 5.35-18.275 5.375-27.663 6.312-8.087-1.1-16.562-1.237-24.075-4.737-5.362-3.138-9.625-8.038-12.675-13.388-1.375-10.6-.85-21.375.575-31.937.875-6.175-.15-12.45.775-18.613.613-3.337 1.663-6.587 1.963-9.975 2.05-23.85 4.25-47.687 6.312-71.537.875-14.2 14.775-24.863 28.463-24.95 16.862-.038 33.737.15 50.6-.075 21.462-75.65 64.725-144.863 123.137-197.488 65.063-59 149-96.762 236.3-106.362m-96.012 32.312c.012 20.125.387 40.275-.175 60.4 5.062.375 10.137.4 15.212.263 0 25.95-.075 51.9.05 77.862-5.075-.15-10.125.25-15.15.838.288 19.95.138 39.912.063 59.862 29.512.1 59.012-.062 88.525.075 2.175.075 4.312-.45 6.425-.95.112-1.937.262-3.85.5-5.762.062 2.212.037 4.425.012 6.637 5.55.1 11.075.775 16.638.813-.325 2.687-.675 5.375-.975 8.075-5.238-.65-10.513-.338-15.725.375.262 20.012.175 40.025.05 60.05 15.975.975 31.987.787 47.975.262 16.162.563 32.35.675 48.5-.275.062-20.237-1.175-40.462-.7-60.7-5.825.138-11.663-.062-17.488-.05.063-2.825.113-5.65.15-8.462 15.7-.338 31.425.35 47.125-.275 4.963-.263 10.025-.188 14.85-1.6 13.225-3.3 26.6-8.425 36.325-18.325 22.05-22.15 24.788-60.738 5.713-85.575-13.15-15.9-34.125-23.6-54.338-24.238-16.5.05-33 .1-49.5-.525.188-2.7.3-5.4.325-8.1 5.825-.525 11.688-.837 17.55-.562-.25-20.113-.075-40.225-.087-60.338-31.975.4-63.963.25-95.925.075-1.1 19.925.737 39.888-.55 59.8-1.188-15.112-.063-30.275-.263-45.412-.062-5-.237-10.038.388-15.013-31.813 1.563-63.675.4-95.5.775M372.025 601.15c-3.55 40.05-7.262 80.088-10.637 120.15-.013 4.263 5.037 5.75 8.512 5.988 7.55 0 15.125.225 22.688-.15 3.3-.3 7.475-2.088 7.687-5.9 1.55-16.925 3.263-33.838 4.288-50.8 6.887.175 13.775-.013 20.675.15 11.4 19.337 23.212 38.437 36.062 56.85 3.163-.2 6.388.1 9.5-.6 5.1-1.613 7.713-8.163 5.238-12.875-7.75-15.538-17.5-29.925-26.975-44.425 11.125-1.038 21.25-7.538 27.625-16.575 9.225-12.538 11.337-30.625 3.312-44.263-5.95-9.85-17.262-15.725-28.687-15.7-22.9-.125-45.8-.025-68.7-.037-4.788-.188-10.663 2.762-10.588 8.187m255.413-7.4c-4.138.413-6.65 4.775-6.813 8.625-3.325 37.975-6.65 75.963-10.087 113.938-1.088 4.275.487 10.662 5.725 10.962 22.512.1 45.037-.012 67.55.025 7.4.125 15-.925 21.737-4.137 14.288-7.363 23.988-23.288 23.025-39.475.05-13.525-9.05-26.525-21.887-30.9 5.662-9.113 9.375-20.088 7.375-30.875-1.875-8.988-6.2-18.05-14.013-23.3-6.6-4.438-14.837-4.988-22.55-5.075-16.675-.9-33.4-.875-50.062.212m246.3 19.063c10.687.525 21.437.187 32.15.15-2.963 35.7-6.313 71.375-9.375 107.062-.425 2.1.837 3.963 1.55 5.85 7.537 2.213 15.437 1.238 23.175 1.463 3.9-.013 8.162.212 11.612-1.988 2.263-1.312 2.625-4.15 2.85-6.5 1.463-19.237 3.5-38.437 5-57.675-.1-2.762.863-6.05-.925-8.4-5.012-3.412-12.825-1-16.5-6.587-.262-11.088 1.863-22.05 2.25-33.1 29.213-.05 58.413-.188 87.625-.038-2.687 25.625-4.687 51.325-7.062 76.975-.438 5.85-1.45 11.675-1.125 17.563-11.2.787-22.45-.35-33.638.575-3.925 1.862-5.65 6.525-5.737 10.637-.188 3.45 1.325 8.713 5.637 8.475 28.6-.112 57.225.388 85.813-.262 5.825-3.425 8.112-13.113 2.575-17.788-5.225-1.387-10.7-1.475-16.038-2.1 1.725-15.737 2.863-31.525 4.525-47.25.2-2.575.55-5.787-1.837-7.487-5.038-2.688-12.263-1.125-15.938-6.088.075-11.125 2.013-22.15 2.25-33.275 10.363.025 20.738.075 31.1 0 7.35.4 9.813-8.687 8.675-14.512-.15-4.213-4.987-5.875-8.562-5.588-62.45.213-124.9-.087-187.35.113-9.45.6-11.325 16.612-2.7 19.775m365.4-19.8c-5.688.1-11.5-.088-16.938 1.8-18.462 5.925-31.025 26.037-28.362 45.237 1.262 12.975 10.362 25.325 23.112 28.95 11.488 2.825 23.375.775 35.038 1.713 4.8.775 8.85 4.275 11.212 8.437 6 10.488-.962 26.388-13.475 27.513-9.45.55-18.912 1.025-28.362 1.675-4.875.162-10.8.612-14.325-3.45-.963-4.263 2.475-9.113-.238-13.25-4.9-5.5-15.637-3.788-18.075 3.337-2.325 7.85-1.812 17.325 3.863 23.688 4.437 4.862 10.562 9.012 17.425 8.687 17.487-.087 34.975-.025 52.475-.037 11.387-.088 22.862-4.5 30.537-13.088 11.263-11.6 14.6-30.35 7.6-44.962-4.812-9.875-14.487-17.925-25.725-18.688-16.225-.575-32.462.213-48.675-.35-11.262-2.837-16.487-18-9.8-27.475 3.938-4.875 9.25-10.062 16.013-9.725 18.325.15 36.65-.175 54.975.163 2.75-.213 3.562 3.362 3.5 5.512-.025 4.15-1.088 9.65 3.187 12.213 4.975 1.9 12.9 1.7 14.938-4.338 2.737-8.762 1.362-18.95-4.375-26.25-3.65-4.962-9.925-7.425-15.95-7.387-16.525.175-33.05-.188-49.575.075m-693.5 1.537c-8.863 1.613-17.738 5.525-23.425 12.763-7.75 9.575-10.4 22.1-11.5 34.087-.4 2.4-.138 5.438-2.288 7.1-4.987 2.688-11.425 1.438-16.075 4.925-3.887 6.963-2.35 15.225-3.275 22.825-.55 11.488-1.75 23.838 3.725 34.425 3.538 7.4 11.013 12.138 18.75 14.125 11.35 2.725 23.1 2.688 34.7 2.475 10.525.013 21.45.825 31.475-3.087 12.263-4.688 21.225-16.025 24.438-28.575 1.05-4.325 1.325-8.788 1.687-13.2 1.65-18.3 3.188-36.625 4.713-54.925-.625-13.988-9.25-28.763-23.338-32.625-13.012-2.575-26.512-2.45-39.587-.313m247.512.063c-8.2 1.662-16.362 5.212-21.987 11.562-7.663 9-10.95 20.888-11.888 32.488-.525 3.112.063 6.925-2.412 9.35-3.925 3.112-9.35 2.175-13.788 3.962-5.125 1.938-4.612 8.475-5.362 12.95-.325 14.6-3.675 29.988 2.387 43.9 2.75 7.175 8.975 12.7 16.275 14.988 12.063 3.725 24.863 3.687 37.375 3.45 11.75.062 24.188.962 35.05-4.45 13.438-6.325 21.863-20.788 22.8-35.363 1.4-19.987 3.6-39.912 4.85-59.912-.337-14.088-9.05-29.1-23.3-32.838-13.2-2.187-26.812-2.425-40-.087m333.788-.05c-9.388 1.762-18.738 6.212-24.388 14.162-7.112 9.788-9.362 22.088-10.262 33.9.012 2.525-1.063 5.163-3.4 6.375-4.663 2.05-10.225 1.35-14.638 4.088-2.012 2.662-2.675 6.05-2.9 9.312-.337 14.138-3.562 28.65.725 42.513 2.288 8.762 9.125 16.225 17.825 18.912 11.338 3.463 23.325 3.613 35.075 3.513 11.7-.363 23.963 1.287 35.013-3.6 10.75-4.063 18.787-13.475 22.025-24.4.9-4 4.012-8.225 2.05-12.325-3.25-5.113-11.513-5.688-15.663-1.35-5.387 5.175-5.612 13.837-11.612 18.525-6.338 4.337-14.463 3.862-21.775 3.65-6.1-.413-12.775 1.262-18.25-2.263-4.45-2.8-9.288-7.35-8.638-13.075.175-8.4 1.5-16.712 2.175-25.062 1.388-13.688 1.913-27.475 3.95-41.075 3.488-7.813 11.825-14.225 20.725-13.375 6.688.162 13.375-.038 20.075.087 4.1.013 8.113 1.875 11 4.775 3.7 4.9 2.6 11.625 5.225 16.975 2.388 2.975 6.613 2.8 10.075 2.663 3.05-.075 6.813-1.088 7.875-4.338 2.088-7.9-.6-16.125-4.187-23.162-4.188-8.55-12.775-14.95-22.288-15.963-11.9-1.325-24.012-1.637-35.812.538m-272.125 210.05c-4.138-.913-8.288-1.825-12.475-2.4-14.4-2.288-29.45 1.075-41.925 8.487l.712.65c-15.912-14.175-31.012-29.225-46.75-43.6-3.8 1.013-7.737 1.038-11.625.988-.137 2.875-.35 5.762-.975 8.587-7.975 41.775-15.087 83.725-23.337 125.438 4.037.612 8.125.75 12.187 1.025 16.55-7.138 33.25-14.025 49.488-21.863 1.575-.075 2.975.388 4.187 1.413 23.625 17.812 56.95 20.75 83.825 8.8 2.2-1.088 5.213-2.113 7.05.212 6.013 5.938 12.288 11.638 18.075 17.813 20.913-21.375 41.625-42.963 62.363-64.5 4.175-3.275 1.462-9.275 2.362-13.725l.075-.113c-22.475-21.337-44.787-42.875-67.237-64.262-12.138 12.225-23.713 24.975-36 37.05m-58.213 117.1c-6.275 25.85-12.125 51.8-18.187 77.7 9.062-.113 18.137-.075 27.212-.013 2.063-8.725 3.95-17.487 6.163-26.175a383.315 383.315 0 0 1 10.15 26c10.287.2 20.575.238 30.862-.037-4.612-9.763-8.725-19.925-15.087-28.725 7.5-1.838 14.712-5.925 18.712-12.738 4.675-7.325 6.188-17.075 2.388-25.075-2.863-5.862-8.95-9.462-15.138-10.825-15.487-3.575-31.45-1.462-47.075-.112m77.863 6.5c-8.2 5.575-14.013 16.525-10.125 26.312 4.087 8.438 13.362 12.238 21.35 16.063 2.175 1.212 5.625 2.437 4.875 5.612-1.113 2.6-4.15 3.588-6.725 3.875-7.725.575-15.15-2.15-22.3-4.65-2.138 7.275-4.163 14.588-6.2 21.9 10.575 3.188 21.825 4.363 32.825 3.113 12.5-1.638 24.775-9.388 29.512-21.413 2.725-6.462 1.788-14.587-3.2-19.7-6.3-6.512-15.575-8.475-22.837-13.575-1.188-2.55 1.762-4.775 3.975-5.35 6.937-1.7 13.775 1.35 20.375 3.163 1.987-7.063 3.85-14.163 5.787-21.238-15.662-4.1-33.637-3.65-47.312 5.888m-174.325-6.863c-5.975 25.975-12.138 51.888-18.063 77.875 9.35.2 18.713.238 28.063-.037 1.862-9.013 4.237-17.913 6.175-26.9 8.912-.263 17.837-.013 26.75-.25 1.387-6.425 3.2-12.75 4.562-19.188-8.95.063-17.9.025-26.85.025.838-3.562 1.663-7.125 2.513-10.687 8.575.037 17.162-.1 25.75.087 1.812-6.937 3.325-13.937 5.212-20.85-18.037-.125-36.075 0-54.112-.075m61.187.063c-6.05 26-12.075 52.012-18.175 78 9.388-.138 18.788.075 28.188-.225 5.812-25.988 12.037-51.863 18.012-77.813-9.35 0-18.687-.037-28.025.038m165.425-.025c-2.112 7.575-4.462 15.075-6.712 22.6 7.25.05 14.5.037 21.75.025-4.475 18.4-8.813 36.825-13.338 55.212 9.363.2 18.725.213 28.088.025 4.287-18.4 8.95-36.7 13.075-55.137 6.737-.2 13.475-.05 20.212-.075 1.563-7.525 3.05-15.05 4.763-22.538-22.613-.275-45.225-.063-67.838-.112M701.65 308.45c13.625.125 27.263-.438 40.863.55 13.987.137 28 .162 42-.013.1 15.85.15 31.7-.013 47.538-6.075-.313-12.15-.075-18.212.013.412 7.062.225 14.137.137 21.212 15.45-.075 30.9-.175 46.35.05.025-7.15-.075-14.288.088-21.438-5.238.15-10.475-.05-15.713 0 .075-15.925.15-31.85-.05-47.775 27.925-.162 55.863-.412 83.788.125-.388 15.85-.2 31.713-.088 47.563-6.037.275-12.075.263-18.112.013-.125 7.162-.063 14.337-.05 21.512 14.962-.425 29.95.5 44.9-.563 7.975.1 15.862 1.625 23.837 1.975 15.2 3.213 30.125 11.075 38.863 24.313 11.637 16.975 12.45 40.15 3.187 58.362-6.25 12.9-18.187 22.288-31.35 27.488-7.875 2.963-16.05 5.6-24.575 5.575-18.312.025-36.625 0-54.937 0 .1 7.125.087 14.262 0 21.4 6.087-.175 12.175-.013 18.262.125-.25 15.925-.125 31.837-.062 47.763-27.875.075-55.75.025-83.613.037.075-15.937.15-31.862-.062-47.8 5.237-.1 10.487-.325 15.737-.175-.075-7.175-.05-14.35-.05-21.512-5.2.95-10.5.862-15.7 0 .263-15.925.113-31.838.1-47.75 5.225.087 10.463-.225 15.7.025-.162-7.163-.075-14.338-.1-21.5-15.45.275-30.9.137-46.35.075.088 7.05.313 14.1-.175 21.137 6.088.263 12.175.375 18.263.163 1.325 10.962.687 22.025.325 33.037.125 4.975.637 9.963 0 14.938-27.725.125-55.45-.075-83.175.112.012-16.012 0-32.025.012-48.037 5.038.137 10.075-.138 15.125.062-.225-30.237-.25-60.475.013-90.7-5.063.138-10.113.038-15.163-.037.038-15.963.025-31.913 0-47.863m6.125 6.713c-.012 11.537-.25 23.075.138 34.6 5.175-.338 10.362.012 15.55-.075-.025 34.675-.05 69.35.025 104.012-5.163-.05-10.325.163-15.475.1-.713 11.463-.063 22.938-.313 34.4 23.375.188 46.75.288 70.125-.05-.125-11.462 0-22.925-.062-34.387-5.913.112-11.825-.075-17.725-.05-.838-11.575-1.638-23.213-.338-34.775 14.25-.025 28.5.2 42.75-.063 5.925-.425 11.9-.8 17.8.188-.625 11.162 1.325 22.362-.287 33.475-5.05 2.5-10.725.912-16.075 1.062.075 11.475.187 22.963-.063 34.438 5.513.162 11.038.462 16.563.462-.3 11.413-.325 22.85.025 34.263-5.525.225-11.05.487-16.575.437.225 11.45.137 22.9.05 34.35 23.412-.087 46.812-.062 70.225-.012-.15-11.413-.2-22.838.05-34.263-5.95-.1-11.9-.225-17.838-.512.25-11.425.263-22.85-.025-34.275 19.15-.45 38.288.125 57.438-.213 4.575-.1 9.225.075 13.675-1.262 12.75-3.138 25.725-8.538 34.187-19.025 8.588-10 12.4-23.625 11.5-36.663-2.162-16.075-10.425-32.787-25.675-40-18.725-8.55-39.8-7.387-59.875-7.412-10.4-.3-20.8.375-31.187.537.175-11.475.212-22.95-.038-34.425 5.875-.537 11.788-.537 17.688-.287.125-11.425-.263-22.85.2-34.275-23.438-.338-46.888-.225-70.325-.063.125 11.425.112 22.863 0 34.288 5.5-.163 11-.2 16.487.35-.3 11.45-.262 22.912-.037 34.375-20.213.012-40.425.025-60.638-.013.138-11.437.05-22.887.025-34.337 5.988-.675 12.013-.488 18.025-.338.05-11.487.025-22.962.013-34.437-23.325-.088-46.663.125-69.988-.125M772.85 362.7c11.113.125 22.25.138 33.375-.037.05 2.912.163 5.825.3 8.75-11.212-.088-22.437.187-33.625-.663.013-2.687 0-5.375-.05-8.05m84.488 56.163c20.912.425 41.825-.288 62.737.337 6.875.15 10.988 7.1 12.163 13.15 1.95 8.875-3.138 20.825-13.325 21.213-20.575.512-41.175.075-61.75.2.237-11.625-.038-23.263.175-34.9m6.55 6.712c-.025 7.175.037 14.363-.075 21.538 18.587-.35 37.187.187 55.775-.238 5.187-1 6.15-7.375 5.787-11.775-.087-3.862-1.762-9.525-6.562-9.287-18.313-.35-36.625.137-54.925-.238m5.625 6.038c13.087-.7 26.212.45 39.275-.763 3.65-.35 7.275.363 10.887.8-.1 3.2-.325 6.4-.7 9.588-13.45.212-26.912-.425-40.35.575-3.087.3-6.15-.338-9.162-.8.212-3.125.2-6.275.05-9.4m-96.7 8.3c.062-2.65.075-5.3.037-7.95 11.463.262 22.95-.25 34.413.287-.213 2.888-.563 5.763-1.125 8.6-11.113-.375-22.25.125-33.325-.937m-381.938 173.15c19.738 0 39.475-.025 59.213 0 10.05.187 16.725 11.737 14.425 20.937-1.8 6.488-6.288 12.488-12.55 15.213-3.375 1.5-7.15 1.175-10.738 1.212-17.862-.037-35.737-.05-53.612 0 1.35-12.425 2.175-24.913 3.262-37.362m156.013.512c8.475-1.225 17.062-.188 25.587-.537 9.088-.838 16.95 8.225 16.025 17.037-1.612 20.438-3.487 40.862-5.237 61.3-.413 5.85-5.225 10.05-9.488 13.462-5.287 4.4-12.5 2.675-18.8 3.05-6.462-.437-13.475 1.125-19.4-2.2-4.85-2.575-9.012-7.475-9.037-13.175 1.75-20.037 3.562-40.087 5.275-60.125-.15-8.837 7.175-16.1 15.075-18.812m92.85-.75c13.437.525 26.887.112 40.325.162 6.425.625 11.187 6.088 14 11.488 3.187 11.812-6.35 26.175-19.05 25.912-12.813.113-25.625-.112-38.438.075.788-12.575 2.063-25.1 3.163-37.637m158.225.262c7.775-.15 15.537.038 23.312-.05 8.85-.6 15.888 8.6 15.363 16.938-1.625 17.962-3 35.95-4.6 53.913-.438 4.95.037 10.637-3.563 14.6-4.062 4.687-9.275 9.737-15.95 9.425-8.95-.588-18.112 1.075-26.912-1.188-5.013-2.65-10.3-6.887-10.95-12.912 1.475-20.025 3.7-40.013 5.012-60.05-.287-10.113 8.4-19.55 18.288-20.675m-144.175 57.425c13.35.062 26.687-.063 40.037 0 6.625.012 11.55 5.737 14.213 11.262 3.325 11.975-6.525 26.388-19.35 26.113-12.75-.013-25.488-.138-38.238.012 1.1-12.462 2.213-24.925 3.338-37.387M876.45 819.038c4.913-4.988 9.575-10.25 14.9-14.813 4.913 3.55 8.95 8.088 13.338 12.238 7.512 7.262 15.35 14.212 22.587 21.8-10.25 10.875-20.8 21.475-31.15 32.262.688-5.162 3.388-9.762 4.263-14.875.875-4.587.712-9.275.387-13.9-.462 4.313-.312 8.9-2.6 12.763-8.387 16.937-25.987 27.45-43.975 31.437-9.887 2.863-20.275 2-30.412 1.825-18.588-1.95-37.325-9.887-49.263-24.687-4.45-5.413-7.162-12.038-8.137-18.95.062 5.237.687 10.45 1.075 15.675-4.113 1.787-7.988 4.187-12.388 5.237 3.05-18.375 6.625-36.687 10.475-54.925 7.25 5.65 12.9 13.038 20.038 18.838-.538 3.912-.975 7.837-1.2 11.787 1.387-2.812 2.787-5.625 4.237-8.387 4.775 4.437 9.438 9.012 14.1 13.587-4.3 2.063-8.775 3.713-13.337 5.038 1.525 1.912 3.025 3.862 4.612 5.75 4.513 4.737 10.325 8.175 16.438 10.412 1.9.888 3.887-.05 5.687-.737 7.3-3.163 14.525-6.525 21.763-9.838 3.975 4.063 7.987 8.088 12.1 12.025 2.862-.837 5.75-1.575 8.65-2.312 6-2.013 11.162-5.838 15.875-9.963-5.575-5.662-11.5-10.975-17.213-16.475 3.813-5.9 9.45-10.187 14.15-15.312 5.288 4.475 9.463 10.2 11.538 16.85.387-7.95-1.813-15.913-6.538-22.35m-68.6-1.1c11.65-6.388 25.488-5.438 38.263-4.338-6.663 7.275-13.425 14.45-20.425 21.4-5.85-5.8-11.988-11.275-17.838-17.062M819.363 940.3c3.975-.337 8.862-1.05 11.887 2.225 2.425 4.25-.037 9.763-3.575 12.625-3.45 3-8.2 3.263-12.537 3.438 1.225-6.15 2.812-12.2 4.225-18.288z" fill="#fff" stroke="#fff" stroke-width=".1175"/><path d="M836.5 52.637c.875-1.45 1.212-4.3 3.513-3.962 18.562-.125 37.2.412 55.637 2.737 9.163 34.125 17.013 68.65 22.088 103.638 27.075 3.862 53.825 9.987 79.925 18.125 1.337-.888 2.675-1.863 3.65-3.188 18.262-23.587 37.825-46.175 58.625-67.55 3.337-3.35 5.937-7.612 10.237-9.862 18.05 5.537 34.8 14.575 52.15 21.95-2.662 27.337-6.813 54.512-11.7 81.525-1.412 7.925-3.813 15.675-4.438 23.725 17.538 11.187 35.488 21.762 52.1 34.325 5.463 4.1 10.825 8.325 16.563 12.05 29.563-18.538 60.813-34.2 92.413-48.925a17.78 17.78 0 0 1 3.637-1c13.087 12.837 26.825 25.1 38.775 39.025 1.212 1.612 0 3.362-.75 4.85-15.075 28.912-31.163 57.337-49.212 84.512-1.476 2.013-1.65 4.888.2 6.738a543.399 543.399 0 0 1 36.812 51.862c2.85 4.263 4.875 9.075 8.338 12.913 35.474-5.725 71.224-10.638 107.187-11.4 8.512 15.6 15.488 31.987 21.837 48.575.326 1.4 1.613 3.437-.012 4.525-25.975 23.125-53.163 44.912-81.625 64.912 7.963 26.4 15.288 53.15 19.1 80.513 35.5 6.987 70.638 15.987 104.887 27.687 2.188 19.038 2.838 38.225 2.35 57.388-7.212 1.387-13.575 5.162-20.525 7.312-9.125 3-18.087 6.475-27.462 8.625-17.175 6.4-35.1 10.475-52.675 15.638-1.088 11.237-1.613 22.562-3.25 33.75-2.45 8.262-2.538 16.937-4.288 25.35-1.15 7.687-4.075 15.237-3.012 23.125 8.112 5.875 17.237 10.2 25.187 16.325 19.275 15.45 40.55 28.287 59.138 44.612.862.9 1.737 1.825 2.6 2.788-1.263 7.025-5.4 13.137-6.35 20.25-3.513 10.525-6.538 21.275-11.038 31.45-5.5 1.462-11.275 2.5-16.95 1.587-11.187-1.8-22.55-.6-33.8-1.225-18.75-1.05-37.437-2.9-56.062-5.275-3.575 5.225-5.225 11.4-8.125 16.975-8.375 17.725-18.162 34.725-28.625 51.313-1.325 2.1-2.837 5.125-.663 7.237 6.738 8.925 12.413 18.6 19.238 27.463 5.337 8.362 11.65 16.112 16.038 25.075 6.312 8.475 10.65 18.187 16.65 26.9 1.487 3.025 4.8 6.025 3.7 9.663-3.963 6.287-8.85 11.95-13.625 17.624-7.413 7.888-13.263 17.088-21.163 24.55-5.587-.2-10.375-3.287-15.437-5.225-9.825-4.462-20.025-8.062-29.663-12.9-17.825-7.45-34.45-17.45-52.112-25.287-4.388 4.075-9.088 7.812-13.175 12.2-4.363 4.875-10.138 8.1-14.788 12.65-11.65 9.75-23.725 18.962-35.812 28.188 4.712 17.774 9.862 35.5 13.087 53.612 3.388 11.712 5.35 23.8 6.288 35.95.875 5.7 1.537 11.487.862 17.262-5.462 4.2-11.925 6.8-17.475 10.85-7.625 5.575-17.012 8.175-24.325 14.25-1.962.163-3.925.588-5.862.5-9.125-6.762-15.913-16.075-24.713-23.212-8.062-6.563-14.237-15.025-21.975-21.9-9.062-9.913-18.062-19.888-26.85-30.038-19.137 7.963-38.437 15.788-58.575 20.85-6.912 1.888-13.687 4.413-20.837 5.325-.938 14.625-3.675 29.05-4.713 43.663-.212 5.387-2.412 10.412-3.05 15.75-2.05 16.387-4.912 32.75-9.962 48.487-7.488.613-14.788 2.438-22.2 3.513-11.363.95-22.588 3.725-34.05 3.175-8.525-21.2-20.2-41.138-26.4-63.238-4.775-11.437-8.8-23.175-13.225-34.75-9.088 1.7-18.313-.662-27.4.688-5.888 1.062-11.738-1.213-17.663-.438-6.35.75-12.4-2.087-18.725-1.337-6.725.462-13.337-1.038-19.975-1.725-4.925 10.575-10.425 20.912-16.587 30.837-3.488 5.138-4.775 11.463-8.725 16.338-5.6 9.313-12.2 17.975-17.375 27.563-3.3 6.337-8.513 11.474-11.438 18.024-6.387.688-12.312-2.324-18.525-3.124-12.562-1.826-25.2-4.563-36.562-10.4-1.838-7.076-.988-14.388-1.6-21.55-1.813-9.576-.875-19.326-.988-28.976.05-4.65-1.65-9.112-1.475-13.762.163-13.675.05-27.363.125-41.037-14.65-3.625-28.187-10.475-41.712-16.988-9.35-3.575-18.088-8.487-27.3-12.387-3.15-1.138-6.713-5-9.863-1.838-6.637 7.325-14.787 12.988-22.15 19.563a253.625 253.625 0 0 1-24.5 19.012c-11.05 10.462-24.3 18.137-36.225 27.475-6.05-3.987-11.812-8.4-17.925-12.275-9.887-5.8-18.737-13.125-28.387-19.288 2.25-15.1 10.475-28.425 13.487-43.325 1.425-7.05 5.375-13.225 7.338-20.1 1.475-5.112 3.962-9.85 5.362-14.974 1.988-7.813 7.175-14.475 8.225-22.563-4.862-5.375-10.812-9.625-15.962-14.7-3.788-3.738-7.488-7.563-11.7-10.8-6.375-4.963-10.425-12.175-16.525-17.4-4.938-4.338-8.85-9.637-13.238-14.463-1.837-1.962-4.55 0-6.525.688-12.287 5.875-25.625 9-38.337 13.787-15.713 4.238-31.2 9.3-47.05 12.988-4.413 1.2-8.838 2.7-13.488 2.412-10.825-15.15-22.012-30.112-31.25-46.3 5.625-7.537 12.05-14.412 17.875-21.787 11.538-16.875 26.813-30.688 39.888-46.325 3.287-4.338 8.4-7.088 10.95-12.013-4.363-13.812-13.063-25.75-18.463-39.15-6.125-11.675-9.1-24.6-14.5-36.587-5.437-.363-10.912.062-16.312-.713-11.088-1.962-22.413-.237-33.575-1.362-19.663-1.975-39.525-2.813-58.938-6.788-4.275-18.137-9.775-36.05-12.687-54.462 30.337-18.35 61.562-35.363 93.762-50.163.95-11.462-2.812-22.812-2.4-34.312.588-6.35-1.712-12.463-1.4-18.788.313-9.812-.112-19.625.225-29.425-34.05-12.875-66.812-28.937-98.687-46.487 1.137-19.15 4.487-38.063 7.45-57 15.937-1.988 31.7-5.113 47.65-6.9 19.175-2.513 38.462-4.1 57.75-5.463 7.25-26.587 14.962-53.175 26.15-78.412-6.95-6.463-13.438-13.413-20.525-19.725-17.763-18.113-35.113-36.65-51.5-56.025-1.175-1.525-3.038-3.338-1.538-5.313 7.95-16.262 17.338-31.762 26.2-47.55 33.725 6.013 66.888 14.788 99.625 24.825 1.75.513 4.363 1.313 5.338-.85 15.35-21.862 32.412-42.512 50.837-61.862-14.962-31.238-28.275-63.275-39.587-96.013-.4-1.837-1.988-4.412.087-5.825 12.963-11.725 26.288-23.075 40.3-33.537 1.663-1.725 3.975-.563 5.638.5 27.837 17.95 54.925 37.075 80.825 57.737 1.837 1.663 4.425.413 6.162-.75 21.488-14.525 44.35-26.9 67.688-38.162-1.3-31.65-3.65-63.363-1.763-95.038-.037-4.325 0-8.65.488-12.962 2.937-1.688 6.037-3.075 9.287-4.088 14.75-4.887 29.275-10.637 44.475-14 12.388 15.463 23.025 32.188 34.088 48.6 8.187 12.363 15.8 25.1 23.337 37.875 1.25 2.725 4.6.875 6.763.75 25.162-5.725 50.862-8.5 76.487-11.212 9.363-33.188 21.288-65.663 34.925-97.338m-45.225 217.126c-87.3 9.6-171.237 47.362-236.3 106.362C496.563 428.75 453.3 497.963 431.838 573.613c-16.863.225-33.738.037-50.6.075-13.688.087-27.588 10.75-28.463 24.95-2.062 23.85-4.262 47.687-6.312 71.537-.3 3.388-1.35 6.638-1.963 9.975-.925 6.163.1 12.438-.775 18.613-1.425 10.562-1.95 21.337-.575 31.937 3.05 5.35 7.313 10.25 12.675 13.388 7.513 3.5 15.988 3.637 24.075 4.737 9.388-.937 19.463-.962 27.663-6.312 5.837-3.375 10.037-9.138 11.525-15.713 2.112 8.063.625 16.575 3.262 24.538 2.275 7.612 1.325 15.812 4.225 23.262 1.838 5.275 2.275 10.9 4.05 16.2 1.95 5.95 2.138 12.325 4.213 18.25 7.087 20.275 13.087 41.163 23.737 59.95 3.113 5.038 4.775 10.813 7.963 15.825 8.925 16.113 17.275 32.763 29.1 47.025 6.3 8.688 12.062 17.85 19.7 25.463 7.5 9.462 15.775 18.237 24.425 26.65 6.187 8.025 14.087 14.35 21.862 20.737 8.388 8.4 18.525 14.688 27.513 22.4 7.375 5.15 14.125 11.3 22.312 15.213 9.488 5.375 18.55 11.487 28.175 16.625 14.863 7.537 29.688 15.25 45.475 20.725 10.75 3.75 21.025 9.062 32.325 11.1 3.388.562 6.488 2.112 9.675 3.35 3.375 1.3 7.15.825 10.575 2.025 11.888 4.775 24.8 5.737 37.35 7.637 8.413.813 16.575 3.163 25.013 3.85 6.65 1.175 13.475.138 20.112 1.475 3.65.688 7.375.6 11.075.525 9.563-.287 19.2.688 28.7-.95 11.713-.5 23.45-1.325 34.925-3.862 14.125-.525 27.475-5.725 41.438-7.4 6.6-.575 12.275-4.55 18.812-5.463 9.375-1.288 17.913-5.525 26.65-8.888 5.738-2.35 11.95-3.337 17.513-6.15 8.225-4.05 16.925-7.062 25.025-11.387 22.675-12.138 45.462-24.488 65.475-40.788 5.712-4.762 12.525-8.1 17.562-13.675 16.925-14.237 32.675-29.887 47.413-46.387 4.675-4.575 8.025-10.263 12.675-14.85 4.9-5.238 8.012-11.813 12.775-17.163 14.862-19.7 26.15-41.775 37.612-63.512 3.925-9.35 7.738-18.763 12.288-27.825 4.012-9.388 6.537-19.325 10.05-28.9 2.562-8.7 3.725-17.8 7.162-26.25 2.7-6.025 1.6-12.863 3.675-19.05 1.8-5.575 2.9-11.4 2.413-17.275 9.137-1.838 18.6-2.225 27.475-5.238 16.05-6.05 30.85-17.575 37.45-33.787 1.375-3.875 3.45-7.475 4.537-11.45.5-3.975.6-8 1.275-11.963 1.375-7.325-1.562-14.462-3.787-21.3-1.913-6.175-6.5-10.962-8.838-16.925 9.188-3.275 15.563-12.187 17.238-21.6 2.487-12.225.287-25.437-6.575-35.9-5.1-8.012-13.238-13.95-22.3-16.662-5.225-1.65-10.75-1.313-16.138-1.313-13.012.013-26.025-.112-39.025.125-8.287-27.937-19.175-55.125-32.725-80.937-35.65-68.263-90.687-126.05-156.675-165.65-78.6-47.25-172.862-68.05-264.025-57.488m-83.5 45.4c23.325.25 46.663.038 69.988.125.012 11.475.037 22.95-.013 34.438-6.012-.15-12.037-.338-18.025.337.025 11.45.113 22.9-.025 34.338 20.213.037 40.425.025 60.638.012-.225-11.462-.263-22.925.037-34.375-5.487-.55-10.987-.512-16.487-.35.112-11.425.125-22.862 0-34.287 23.437-.163 46.887-.275 70.325.062-.463 11.425-.075 22.85-.2 34.275-5.9-.25-11.813-.25-17.688.288.25 11.475.213 22.95.038 34.425 10.387-.163 20.787-.838 31.187-.538 20.075.025 41.15-1.137 59.875 7.413 15.25 7.212 23.513 23.925 25.675 40 .9 13.037-2.912 26.662-11.5 36.662-8.462 10.488-21.437 15.888-34.187 19.025-4.45 1.338-9.1 1.163-13.675 1.263-19.15.337-38.288-.238-57.438.212.288 11.425.275 22.85.025 34.275 5.938.288 11.888.413 17.838.513-.25 11.425-.2 22.85-.05 34.262-23.413-.05-46.813-.075-70.225.013.087-11.45.175-22.9-.05-34.35 5.525.05 11.05-.213 16.575-.438-.35-11.412-.325-22.85-.025-34.262-5.525 0-11.05-.3-16.563-.463.25-11.475.138-22.962.063-34.437 5.35-.15 11.025 1.437 16.075-1.063 1.612-11.112-.338-22.312.287-33.475-5.9-.987-11.875-.612-17.8-.187-14.25.262-28.5.037-42.75.062-1.3 11.563-.5 23.2.338 34.775 5.9-.025 11.812.163 17.725.05.062 11.463-.063 22.925.062 34.388-23.375.337-46.75.237-70.125.05.25-11.463-.4-22.938.313-34.4 5.15.062 10.312-.15 15.475-.1-.075-34.663-.05-69.338-.025-104.013-5.188.088-10.375-.262-15.55.075-.388-11.525-.15-23.062-.138-34.6m149.563 103.7c-.213 11.638.062 23.275-.175 34.9 20.575-.125 41.175.313 61.75-.2 10.187-.387 15.275-12.337 13.325-21.212-1.175-6.05-5.288-13-12.163-13.15-20.912-.625-41.825.088-62.737-.338m-2.525 385.75c12.287-12.075 23.862-24.825 36-37.05 22.45 21.388 44.762 42.925 67.237 64.263l-.075.112c-5.825 9.313-14.1 16.638-21.775 24.375-14.2 13.75-26.937 28.938-41.175 42.65-2.35 2.263-4.712-1.162-6.337-2.637-2.775-3.338-6.988-5.863-8.513-10.013 4.863-5.687 11.213-9.95 15.95-15.787 10.35-10.788 20.9-21.388 31.15-32.263 1.25-2 5.563-4.575 2.875-7.012-5.925-5.813-11.862-11.638-18.175-17.038-6.975-6.7-13.662-13.7-20.737-20.287-6.45 7.65-14.275 13.962-20.55 21.775-6.4 6.112-12.275 12.725-18.138 19.35 1.563 1.6 3.138 3.212 4.75 4.8 5.713 5.5 11.638 10.812 17.213 16.475-4.713 4.125-9.875 7.95-15.875 9.962-5.475-3.062-9.263-8.137-13.65-12.425-6.088-6.387-12.9-11.975-19.275-18.05 0-.2-.025-.612-.025-.812 7-6.95 13.762-14.125 20.425-21.4 2.787-3.1 5.612-6.175 8.7-8.988z" fill="#0945f1" stroke="#0945f1" stroke-width=".1175"/><path d="M695.263 302.075c31.825-.375 63.687.788 95.5-.775-.625 4.975-.45 10.013-.388 15.013.2 15.137-.925 30.3.263 45.412 1.287-19.913-.55-39.875.55-59.8 31.962.175 63.95.325 95.925-.075.012 20.113-.163 40.225.087 60.338-5.863-.275-11.725.037-17.55.562-.025 2.7-.138 5.4-.325 8.1 16.5.625 33 .575 49.5.525 20.212.637 41.187 8.338 54.337 24.238 19.075 24.837 16.338 63.425-5.712 85.575-9.725 9.9-23.1 15.025-36.325 18.325-4.825 1.412-9.888 1.337-14.85 1.6-15.7.625-31.425-.063-47.125.275a963.848 963.848 0 0 1-.15 8.462c5.825-.013 11.662.187 17.487.05-.475 20.238.763 40.462.7 60.7-16.15.95-32.337.838-48.5.275-15.987.525-32 .712-47.975-.263.125-20.025.213-40.037-.05-60.05 5.213-.712 10.488-1.025 15.725-.375.3-2.7.65-5.387.975-8.075-5.562-.037-11.087-.712-16.637-.812.025-2.213.05-4.425-.013-6.638a88.048 88.048 0 0 0-.5 5.763c-2.112.5-4.25 1.025-6.425.95-29.512-.138-59.012.025-88.525-.075.075-19.95.225-39.913-.062-59.863 5.025-.587 10.075-.987 15.15-.837-.125-25.963-.05-51.913-.05-77.863-5.075.138-10.15.113-15.213-.262.563-20.125.188-40.275.175-60.4m6.388 6.375c.025 15.95.037 31.9 0 47.862 5.05.075 10.1.175 15.163.038-.263 30.225-.238 60.462-.013 90.7-5.05-.2-10.088.075-15.125-.063-.013 16.013 0 32.025-.013 48.038 27.725-.187 55.45.013 83.175-.112.638-4.975.125-9.963 0-14.938.363-11.013 1-22.075-.325-33.038-6.087.213-12.175.1-18.262-.162.487-7.037.262-14.087.175-21.137 15.45.062 30.9.2 46.35-.075.025 7.162-.063 14.337.1 21.5-5.238-.25-10.475.062-15.7-.025.012 15.912.162 31.825-.1 47.75 5.2.862 10.5.95 15.7 0 0 7.162-.025 14.337.05 21.512-5.25-.15-10.5.075-15.738.175.213 15.938.138 31.862.063 47.8 27.862-.013 55.737.037 83.612-.037-.062-15.926-.187-31.838.063-47.763-6.088-.138-12.175-.3-18.263-.125.088-7.138.1-14.275 0-21.4 18.313 0 36.625.025 54.938 0 8.525.025 16.7-2.613 24.575-5.575 13.162-5.2 25.1-14.588 31.35-27.488 9.262-18.212 8.45-41.387-3.188-58.362-8.737-13.238-23.662-21.1-38.862-24.313-7.975-.35-15.863-1.875-23.838-1.975-14.95 1.063-29.937.138-44.9.563-.012-7.175-.075-14.35.05-21.513 6.038.25 12.075.263 18.113-.012-.113-15.85-.3-31.713.087-47.563-27.925-.537-55.862-.287-83.787-.125.2 15.925.125 31.85.05 47.775 5.237-.05 10.475.15 15.712 0-.162 7.15-.062 14.288-.087 21.438-15.45-.225-30.9-.125-46.35-.05.087-7.075.275-14.15-.138-21.213 6.063-.087 12.138-.325 18.213-.012.162-15.838.112-31.688.012-47.538-14 .175-28.012.15-42 .013-13.6-.988-27.237-.425-40.862-.55m71.2 54.25c.05 2.675.062 5.362.05 8.05 11.187.85 22.412.575 33.625.662-.138-2.925-.25-5.837-.3-8.75-11.125.175-22.263.163-33.375.038m-.038 77.212c11.075 1.063 22.213.563 33.325.938.563-2.838.913-5.713 1.125-8.6-11.462-.538-22.95-.025-34.412-.288.037 2.65.025 5.3-.038 7.95m91.075-14.337c18.3.375 36.613-.113 54.925.237 4.8-.237 6.475 5.425 6.563 9.288.362 4.4-.6 10.775-5.788 11.775-18.587.425-37.187-.113-55.775.237.113-7.175.05-14.362.075-21.537m5.625 6.037c.15 3.125.163 6.275-.05 9.4 3.013.463 6.075 1.1 9.163.8 13.437-1 26.9-.362 40.35-.575.375-3.187.6-6.387.7-9.587-3.613-.438-7.238-1.15-10.888-.8-13.062 1.212-26.187.062-39.275.762M372.025 601.15c-.075-5.425 5.8-8.375 10.587-8.188 22.9.013 45.8-.087 68.7.038 11.425-.025 22.738 5.85 28.688 15.7 8.025 13.637 5.912 31.725-3.313 44.262-6.375 9.038-16.5 15.538-27.625 16.575 9.475 14.5 19.225 28.888 26.975 44.425 2.475 4.713-.137 11.263-5.237 12.875-3.113.7-6.338.4-9.5.6-12.85-18.412-24.663-37.512-36.063-56.85-6.9-.162-13.787.025-20.675-.15-1.025 16.963-2.737 33.875-4.287 50.8-.213 3.813-4.388 5.6-7.688 5.9-7.562.375-15.137.15-22.687.15-3.475-.237-8.525-1.725-8.513-5.987 3.375-40.063 7.088-80.1 10.638-120.15m18.85 11.912c-1.088 12.45-1.913 24.938-3.263 37.363 17.875-.05 35.75-.038 53.613 0 3.587-.038 7.362.287 10.737-1.213 6.263-2.725 10.75-8.725 12.55-15.212 2.3-9.2-4.375-20.75-14.425-20.938-19.737-.025-39.475 0-59.212 0m236.562-19.312c16.663-1.087 33.388-1.112 50.063-.212 7.712.087 15.95.637 22.55 5.075 7.812 5.25 12.137 14.312 14.012 23.3 2 10.787-1.712 21.762-7.375 30.875 12.838 4.375 21.938 17.375 21.888 30.9.962 16.187-8.738 32.112-23.025 39.475-6.738 3.212-14.338 4.262-21.738 4.137-22.512-.037-45.037.075-67.55-.025-5.237-.3-6.812-6.687-5.725-10.962 3.438-37.975 6.763-75.963 10.088-113.938.162-3.85 2.675-8.212 6.812-8.625m12.3 19.075c-1.1 12.538-2.375 25.063-3.162 37.638 12.812-.188 25.625.037 38.437-.075 12.7.262 22.238-14.1 19.05-25.913-2.812-5.4-7.575-10.862-14-11.487-13.437-.05-26.887.362-40.325-.163m14.05 57.688a18860.895 18860.895 0 0 0-3.337 37.387c12.75-.15 25.487-.025 38.237-.012 12.825.275 22.675-14.138 19.35-26.113-2.662-5.525-7.587-11.25-14.212-11.262-13.35-.063-26.688.062-40.038 0m219.95-57.7c-8.625-3.163-6.75-19.175 2.7-19.775 62.45-.2 124.9.1 187.35-.113 3.575-.287 8.413 1.375 8.563 5.588 1.137 5.825-1.325 14.912-8.675 14.512-10.363.075-20.738.025-31.1 0-.238 11.125-2.175 22.15-2.25 33.275 3.675 4.963 10.9 3.4 15.937 6.088 2.388 1.7 2.038 4.912 1.838 7.487-1.663 15.725-2.8 31.513-4.525 47.25 5.337.625 10.812.713 16.037 2.1 5.538 4.675 3.25 14.363-2.575 17.788-28.587.65-57.212.15-85.812.262-4.313.238-5.825-5.025-5.638-8.475.088-4.112 1.813-8.775 5.738-10.637 11.187-.925 22.437.212 33.637-.575-.325-5.888.688-11.713 1.125-17.563 2.375-25.65 4.375-51.35 7.063-76.975-29.213-.15-58.413-.012-87.625.038-.388 11.05-2.513 22.012-2.25 33.1 3.675 5.587 11.487 3.175 16.5 6.587 1.787 2.35.825 5.638.925 8.4-1.5 19.238-3.538 38.438-5 57.675-.225 2.35-.588 5.188-2.85 6.5-3.45 2.2-7.713 1.975-11.613 1.988-7.737-.225-15.637.75-23.175-1.463-.712-1.887-1.975-3.75-1.55-5.85 3.063-35.687 6.413-71.362 9.375-107.062-10.712.037-21.462.375-32.15-.15m365.4-19.8c16.525-.263 33.05.1 49.575-.075 6.025-.038 12.3 2.425 15.95 7.387 5.738 7.3 7.113 17.488 4.375 26.25-2.037 6.038-9.962 6.238-14.937 4.338-4.275-2.563-3.213-8.063-3.188-12.213.063-2.15-.75-5.725-3.5-5.512-18.325-.338-36.65-.013-54.975-.163-6.762-.337-12.075 4.85-16.012 9.725-6.688 9.475-1.463 24.638 9.8 27.475 16.212.563 32.45-.225 48.675.35 11.237.763 20.912 8.813 25.725 18.688 7 14.612 3.662 33.362-7.6 44.962-7.675 8.588-19.15 13-30.538 13.088-17.5.012-34.987-.05-52.475.037-6.862.325-12.987-3.825-17.425-8.687-5.675-6.363-6.187-15.838-3.862-23.688 2.437-7.125 13.175-8.837 18.075-3.337 2.712 4.137-.725 8.987.237 13.25 3.525 4.062 9.45 3.612 14.325 3.45 9.45-.65 18.913-1.125 28.363-1.675 12.512-1.125 19.475-17.025 13.475-27.513-2.363-4.162-6.413-7.662-11.213-8.437-11.662-.938-23.55 1.112-35.037-1.713-12.75-3.625-21.85-15.975-23.113-28.95-2.662-19.2 9.9-39.312 28.363-45.237 5.437-1.888 11.25-1.7 16.937-1.8m-693.5 1.537c13.075-2.137 26.575-2.262 39.588.313 14.087 3.862 22.712 18.637 23.337 32.625-1.525 18.3-3.062 36.625-4.712 54.925-.363 4.412-.638 8.875-1.688 13.2-3.212 12.55-12.175 23.887-24.437 28.575-10.025 3.912-20.95 3.1-31.475 3.087-11.6.213-23.35.25-34.7-2.475-7.738-1.987-15.213-6.725-18.75-14.125-5.475-10.587-4.275-22.937-3.725-34.425.925-7.6-.613-15.862 3.275-22.825 4.65-3.487 11.087-2.237 16.075-4.925 2.15-1.662 1.887-4.7 2.287-7.1 1.1-11.987 3.75-24.512 11.5-34.087 5.688-7.238 14.563-11.15 23.425-12.763m1.25 19.025c-7.9 2.713-15.225 9.975-15.075 18.813-1.712 20.037-3.525 40.087-5.275 60.125.025 5.7 4.188 10.6 9.038 13.175 5.925 3.325 12.937 1.762 19.4 2.2 6.3-.375 13.512 1.35 18.8-3.05 4.262-3.413 9.075-7.613 9.487-13.463 1.75-20.437 3.625-40.862 5.238-61.3.925-8.812-6.938-17.875-16.025-17.037-8.525.35-17.113-.688-25.588.537m246.263-18.962c13.187-2.338 26.8-2.1 40 .087 14.25 3.738 22.962 18.75 23.3 32.838-1.25 20-3.45 39.925-4.85 59.912-.938 14.575-9.363 29.038-22.8 35.363-10.863 5.412-23.3 4.512-35.05 4.45-12.513.237-25.313.275-37.375-3.45-7.3-2.288-13.525-7.813-16.275-14.988-6.063-13.912-2.713-29.3-2.388-43.9.75-4.475.238-11.012 5.363-12.95 4.437-1.787 9.862-.85 13.787-3.962 2.475-2.425 1.888-6.238 2.413-9.35.937-11.6 4.225-23.488 11.887-32.488 5.625-6.35 13.788-9.9 21.988-11.562m4.812 18.475c-9.887 1.125-18.575 10.562-18.287 20.675-1.313 20.037-3.538 40.025-5.013 60.05.65 6.025 5.938 10.262 10.95 12.912 8.8 2.263 17.963.6 26.913 1.188 6.675.312 11.887-4.738 15.95-9.425 3.6-3.963 3.125-9.65 3.562-14.6 1.6-17.963 2.975-35.95 4.6-53.913.525-8.337-6.512-17.537-15.362-16.937-7.775.087-15.538-.1-23.313.05m328.975-18.525c11.8-2.175 23.913-1.863 35.813-.538 9.512 1.013 18.1 7.413 22.287 15.963 3.588 7.037 6.275 15.262 4.188 23.162-1.063 3.25-4.825 4.263-7.875 4.338-3.463.137-7.688.312-10.075-2.663-2.625-5.35-1.525-12.075-5.225-16.975-2.888-2.9-6.9-4.762-11-4.775-6.7-.125-13.388.075-20.075-.087-8.9-.85-17.238 5.562-20.725 13.375-2.038 13.6-2.563 27.387-3.95 41.075-.675 8.35-2 16.662-2.175 25.062-.65 5.725 4.187 10.275 8.637 13.075 5.475 3.525 12.15 1.85 18.25 2.263 7.313.212 15.438.687 21.775-3.65 6-4.688 6.225-13.35 11.613-18.525 4.15-4.338 12.412-3.763 15.662 1.35 1.963 4.1-1.15 8.325-2.05 12.325-3.237 10.925-11.275 20.337-22.025 24.4-11.05 4.887-23.312 3.237-35.012 3.6-11.75.1-23.738-.05-35.075-3.513-8.7-2.687-15.538-10.15-17.825-18.912-4.288-13.863-1.063-28.375-.725-42.513.225-3.262.887-6.65 2.9-9.312 4.412-2.738 9.975-2.038 14.637-4.088 2.338-1.212 3.413-3.85 3.4-6.375.9-11.812 3.15-24.112 10.263-33.9 5.65-7.95 15-12.4 24.387-14.162z" fill="#010101" stroke="#010101" stroke-width=".1175"/><path d="M742.75 768.737c3.887.05 7.825.025 11.625-.987-2.525 5.537-2.25 11.775-3.8 17.6-2.25 16.238-6.35 32.163-8.55 48.412-2.562 12.913-4.775 25.9-6.887 38.888-2.363 10.188-5.275 20.625-4.513 31.138-4.063-.275-8.15-.413-12.188-1.025 8.25-41.713 15.363-83.663 23.338-125.438.625-2.825.838-5.712.975-8.587M870.688 815.7c6.275-7.812 14.1-14.125 20.55-21.775 7.074 6.588 13.762 13.588 20.737 20.288 6.312 5.4 12.25 11.225 18.175 17.037 2.687 2.438-1.625 5.013-2.875 7.013-7.238-7.588-15.075-14.538-22.588-21.8-4.387-4.15-8.425-8.688-13.337-12.238-5.325 4.563-9.988 9.825-14.9 14.813 4.725 6.437 6.925 14.4 6.537 22.35-2.075-6.65-6.25-12.375-11.537-16.85-4.7 5.125-10.338 9.412-14.15 15.312a342.889 342.889 0 0 1-4.75-4.8c5.863-6.625 11.738-13.237 18.137-19.35m-70.275-5c12.475-7.412 27.525-10.775 41.925-8.487 4.188.575 8.338 1.487 12.475 2.4-3.087 2.812-5.912 5.887-8.7 8.987-12.775-1.1-26.612-2.05-38.262 4.338-2.213-2.225-4.4-4.488-6.725-6.588l-.713-.65m-33.8-6c12.275 9.763 22.425 21.95 35.275 31.025 4.125 3.1 7.613 6.913 10.963 10.825-5.9 4.175-13.625 5-18.85 10.188-1.588-1.888-3.088-3.838-4.613-5.75 4.563-1.325 9.038-2.975 13.338-5.038-4.663-4.575-9.325-9.15-14.1-13.587-1.45 2.762-2.85 5.575-4.238 8.387.225-3.95.663-7.875 1.2-11.787-7.137-5.8-12.787-13.188-20.037-18.838.375-1.812.7-3.637 1.063-5.425M936.2 856.313c7.675-7.738 15.95-15.063 21.775-24.375-.9 4.45 1.812 10.45-2.363 13.725-20.737 21.537-41.45 43.125-62.362 64.5-5.787-6.175-12.063-11.875-18.075-17.813-1.837-2.325-4.85-1.3-7.05-.212-26.875 11.95-60.2 9.012-83.825-8.8-1.212-1.025-2.612-1.488-4.188-1.413-3.512-4.862-7.375-9.475-10.6-14.537-5.587 1.825-10.95 4.225-16.537 6.075.737-2.813 1.512-5.588 2.1-8.413 4.4-1.05 8.275-3.45 12.387-5.237-.387-5.225-1.012-10.438-1.075-15.675.975 6.912 3.688 13.537 8.138 18.95 11.938 14.8 30.675 22.737 49.262 24.687 10.138.175 20.525 1.038 30.413-1.825 17.988-3.987 35.587-14.5 43.975-31.437 2.288-3.863 2.138-8.45 2.6-12.763.325 4.625.488 9.313-.387 13.9-.875 5.113-3.575 9.713-4.263 14.875-4.737 5.838-11.087 10.1-15.95 15.788 1.525 4.15 5.737 6.675 8.512 10.012 1.625 1.475 3.988 4.9 6.338 2.638 14.238-13.713 26.975-28.9 41.175-42.65m-110.488-20.5c6.375 6.075 13.188 11.662 19.275 18.05 4.388 4.287 8.175 9.362 13.65 12.425-2.9.737-5.787 1.475-8.65 2.312-4.112-3.937-8.125-7.962-12.1-12.025-3.237-3.262-7.062-5.9-10.137-9.325-2.888-3.075-1.813-7.65-2.038-11.437m-29.112 85.9c15.625-1.35 31.587-3.463 47.075.112 6.188 1.363 12.275 4.963 15.137 10.825 3.8 8 2.288 17.75-2.387 25.075-4 6.813-11.213 10.9-18.713 12.738 6.363 8.8 10.475 18.962 15.088 28.725-10.288.275-20.575.237-30.863.037a383.315 383.315 0 0 0-10.15-26c-2.212 8.688-4.1 17.45-6.162 26.175-9.075-.062-18.15-.1-27.212.013 6.062-25.9 11.912-51.85 18.187-77.7m22.763 18.587c-1.413 6.088-3 12.138-4.225 18.288 4.337-.175 9.087-.438 12.537-3.438 3.538-2.862 6-8.375 3.575-12.625-3.025-3.275-7.912-2.562-11.887-2.225m55.1-12.087c13.675-9.538 31.65-9.988 47.312-5.888-1.937 7.075-3.8 14.175-5.787 21.238-6.6-1.813-13.438-4.863-20.375-3.163-2.213.575-5.163 2.8-3.975 5.35 7.262 5.1 16.537 7.063 22.837 13.575 4.988 5.113 5.925 13.238 3.2 19.7-4.737 12.025-17.012 19.775-29.512 21.413-11 1.25-22.25.075-32.825-3.113 2.037-7.312 4.062-14.625 6.2-21.9 7.15 2.5 14.575 5.225 22.3 4.65 2.575-.287 5.612-1.275 6.725-3.875.75-3.175-2.7-4.4-4.875-5.612-7.988-3.825-17.263-7.625-21.35-16.063-3.888-9.787 1.925-20.737 10.125-26.312m-174.326-6.863c18.038.075 36.075-.05 54.113.075-1.888 6.913-3.4 13.913-5.213 20.85-8.587-.187-17.175-.05-25.75-.087-.85 3.562-1.675 7.125-2.512 10.687 8.95 0 17.9.038 26.85-.025-1.363 6.438-3.175 12.763-4.563 19.188-8.912.237-17.837-.013-26.75.25-1.937 8.987-4.312 17.887-6.175 26.9-9.35.275-18.712.237-28.062.037 5.925-25.987 12.087-51.9 18.062-77.875m61.188.063c9.337-.075 18.675-.038 28.025-.038-5.975 25.95-12.2 51.825-18.013 77.813-9.4.3-18.8.087-28.187.225 6.1-25.988 12.125-52 18.175-78m165.425-.025c22.612.05 45.225-.163 67.837.112-1.712 7.488-3.2 15.013-4.762 22.538-6.738.025-13.475-.125-20.213.075-4.125 18.437-8.787 36.737-13.075 55.137-9.362.188-18.725.175-28.087-.025 4.525-18.387 8.862-36.812 13.337-55.212-7.25.012-14.5.025-21.75-.025 2.25-7.525 4.6-15.025 6.713-22.6z" fill="#242021" stroke="#242021" stroke-width=".1175"/><path d="M754.375 767.75c15.738 14.375 30.838 29.425 46.75 43.6 2.325 2.1 4.513 4.363 6.725 6.587 5.85 5.788 11.988 11.263 17.837 17.063 0 .2.025.613.025.813.225 3.787-.85 8.362 2.038 11.437 3.075 3.425 6.9 6.063 10.137 9.325-7.237 3.313-14.462 6.675-21.762 9.838-1.8.687-3.787 1.625-5.688.737-6.112-2.237-11.925-5.675-16.437-10.412 5.225-5.188 12.95-6.013 18.85-10.188-3.35-3.912-6.837-7.725-10.962-10.825-12.85-9.075-23-21.263-35.275-31.025-.363 1.787-.688 3.612-1.063 5.425-3.85 18.237-7.425 36.55-10.475 54.925-.587 2.825-1.363 5.6-2.1 8.412 5.587-1.85 10.95-4.25 16.538-6.075 3.225 5.063 7.087 9.675 10.6 14.538-16.238 7.837-32.938 14.725-49.488 21.862-.762-10.512 2.15-20.95 4.513-31.137 2.112-12.988 4.325-25.975 6.887-38.888 2.2-16.25 6.3-32.175 8.55-48.412 1.55-5.825 1.275-12.063 3.8-17.6z" fill="#ed1b24" stroke="#ed1b24" stroke-width=".1175"/></g></svg>