<svg xmlns="http://www.w3.org/2000/svg" width="1671.98" height="305.618" viewBox="0 0 1671.9797 305.6181"><g stroke-width=".094" stroke-miterlimit="10"><path d="M49.159 75.085C71.12 49.597 102.734 32.647 136.17 28.71c33.175-4.163 67.763 4.25 95.15 23.475 26.863 18.55 46.738 46.975 54.775 78.625 7.038 27.275 5.463 56.7-4.55 83.025-11.537 30.575-34.35 56.85-63.25 72.175 16.738-11.188 30.863-26.338 40.288-44.163 14.212-26.412 17.762-58.25 10.05-87.2-7.113-27.162-24.225-51.487-47.25-67.525-20.313-14.325-45.213-21.987-70.063-21.6-29.962.138-59.6 12.238-81.237 32.95-21.288 20.075-34.8 48.188-36.988 77.388-1.9 23.262 3.15 47.062 14.488 67.475 9.05 16.5 22.112 30.737 37.637 41.35-19.5-10.925-36.125-26.85-48.15-45.663-15.487-24.112-23.037-53.187-21.3-81.787 1.575-30.088 13.588-59.463 33.388-82.15m21.2-10.063c-26.413 20.913-44.338 52.263-48.65 85.725-3.9 28.375 1.912 57.813 15.85 82.788-5.938-12.763-10.75-26.163-12.663-40.163-4.737-31.15 2.338-63.937 19.763-90.212 18.225-27.95 47.612-48.375 80.237-55.463 30.438-6.775 63.288-2.2 90.55 12.975 31.425 17.175 55.075 47.925 63.375 82.775 6.388 25.688 4.213 53.088-4.937 77.825 9.625-22.475 13.112-47.575 9.562-71.8-4.35-31.3-20.587-60.675-44.562-81.225-21.475-18.612-49.125-29.987-77.513-31.712-32.475-2.313-65.637 8.062-91.012 28.487m59.212-10.65c-32.512 5.95-62.062 25.938-79.875 53.75-12.725 19.863-20.087 43.563-19.087 67.238.675-25.438 10.35-50.363 26.075-70.275 17.25-21.913 42.162-37.688 69.412-43.7 27.8-6.263 57.763-2.525 83.063 10.637 27.537 14.1 49.312 39 59.55 68.2.837 2.163.287 4.9 2.112 6.625-7.287-33.725-30.35-63.6-60.725-79.925-24.337-13.3-53.3-17.675-80.525-12.55m4.975 18.788c24.025-3.963 49.288 0 70.875 11.275 23.838 12.3 43.038 33.3 53.1 58.175 10.15 24.687 11.138 52.987 2.838 78.35-6.575 20.275-19.013 38.6-35.413 52.212-20.012 16.825-46 26.363-72.15 26.413-21.525.237-43.062-5.875-61.275-17.338-19.85-12.412-35.725-31.062-44.712-52.675-10.75-25.537-11.638-55.025-2.55-81.187 13.087-38.888 48.7-69 89.287-75.225m1.125 4.875a94.63 94.63 0 0 0-30.875 11.487c-7.275 4.113-13.537 9.675-20.05 14.85-12.7 10.638-22.912 24.25-29.425 39.5-9.25 21.363-11.037 45.8-5.2 68.325 5.325 20.825 17.25 39.863 33.588 53.825 18.625 16.1 43.037 25.375 67.662 25.5 20.075.35 40.175-5.262 57.2-15.887 18.375-11.413 33.125-28.563 41.575-48.488 10.4-24.225 11.2-52.362 2.288-77.162-6.563-18.625-18.65-35.063-33.95-47.488-21.65-20.725-53.375-30.075-82.813-24.462m-30.575 26.675c13.138-15.913 34.563-24.4 55.038-21.75 23.962 2.587 45.275 20.562 52.012 43.687 3.063 9.3 2.7 19.163 2.438 28.813-1.038-6.45-.975-13.088-2.825-19.4-4.738-18.188-18.45-33.713-35.85-40.775-17.6-7.325-38.6-5.738-54.863 4.237-19.275 11.375-30.875 33.85-29.562 56.138-3.175-17.9 1.762-37.1 13.612-50.95m-.212 22.4c7.762-15.275 23.175-26.375 40.162-28.75 16.938-2.663 34.888 3.462 46.75 15.812 12.825 12.963 18.025 32.513 13.938 50.213.762-14.488-4.225-29.3-14.338-39.8-11.575-12.563-29.537-18.75-46.387-16.025-16.325 2.337-31.1 12.975-38.7 27.575-4.588 8.487-6.388 18.237-6.1 27.837-2.713-12.35-1.213-25.637 4.675-36.862m11.025 8.3c9.95-14.963 29.4-22.7 46.9-18.513 16.137 3.45 29.662 16.563 33.625 32.588 2.462 8.875 1.362 18.237-1.025 27 1.55-13.263-1.65-27.438-11.088-37.263-13.125-14.812-36.85-18.25-53.675-7.825-14.525 8.375-22.562 25.55-21.012 42.088-3.125-12.863-1.463-27.113 6.275-38.075m99.475 47.15c10.075-20.038 9.162-44.675-1.35-64.35 9.087 14.075 13.575 31.162 11.775 47.887-1.838 19.6-12.113 38.175-27.625 50.275-13.188 10.438-30.088 16.075-46.9 15.588-19.425-.288-38.5-8.888-51.7-23.113-14.225-14.975-21.5-36.212-19.475-56.762.937-11.663 5.112-22.863 11.112-32.85-5.437 11.837-8.762 24.85-7.55 37.95 1.438 21.15 13.325 41.187 31.063 52.75 16.075 10.75 36.75 14.15 55.462 9.312 19.463-4.837 36.4-18.675 45.188-36.687M81.496 124.397c-5.462 11.4-8.712 23.95-8.537 36.638-.038 19.95 7.887 39.75 21.6 54.225 13.1 14.025 31.412 23.075 50.55 24.787 19.7 1.95 40.037-3.8 55.762-15.85 17.838-13.425 29.563-34.637 31.25-56.925 1.363-14.737-1.912-29.612-8.275-42.887 10.625 16.187 15.813 35.925 13.938 55.237-1.688 19.538-10.45 38.35-24.263 52.263-14.075 14.362-33.387 23.5-53.45 25.125-19.762 1.8-40.075-3.625-56.3-15.038-18.487-12.837-31.575-33.212-35.312-55.437-3.8-21.388 1.062-44.038 13.037-62.138m163.3 73.45c6.125-21.2 4.2-44.3-4.35-64.562 9.325 17.6 13.7 37.875 11.6 57.737-2.387 25.388-15.112 49.55-34.587 65.975-17.575 15.063-40.55 23.638-63.7 23.688-19.963.237-39.925-5.788-56.438-16.988-18.937-12.737-33.275-32.15-39.737-54.037-7.6-24.888-4.55-52.45 7.4-75.475-5.113 13.75-8.325 28.387-7.238 43.125 1.213 23.437 11.563 46.2 28.35 62.575 15.963 15.812 37.675 25.662 60.1 27.137 20.188 1.5 40.788-3.662 57.85-14.55 19.65-12.412 34.513-32.212 40.75-54.625m-129.75-30.625c1.788-17.162 16.713-31.712 33.913-33.087 16.187-1.875 32.7 8.087 38.737 23.187 6.2 14.275 2.163 31.825-9.125 42.4 7.038-8.662 10.513-20.462 7.475-31.412-3.687-15.788-19.85-27.313-36-25.588-16.362 1.088-30.487 15.5-31.112 31.925-.913 10.475 3.962 20.475 11.15 27.825-10.675-8.125-16.9-21.85-15.038-35.25m22.975-10.687c8.988-5.488 21-5.338 29.863.35 9.35 5.737 14.787 17.175 13.175 28.05-.825 7.175-4.8 13.587-10.038 18.412 3.325-4.362 6.275-9.275 6.7-14.862 1.225-9.588-3.7-19.5-11.975-24.413-8.337-5.2-19.712-4.8-27.662.988-8.438 5.812-12.6 17.125-9.8 27.012.937 4.1 3.45 7.538 5.637 11.05-5.325-5.212-9.337-12.05-9.775-19.612-1.025-10.675 4.6-21.6 13.875-26.975m-3.612 25.725c2.437-8.75 11.762-14.825 20.762-13.438 9.438 1.025 17.063 10.013 16.55 19.488 0 4.887-2.475 9.225-5.312 13.025 3.075-6.038 3.525-13.863-1.025-19.313-5.625-7.625-18.013-8.262-24.363-1.212-5.475 5.325-5.525 13.912-2.162 20.387-4.313-5.187-6.575-12.325-4.45-18.937m8.975 6.912c4.187-6.725 15.3-6.362 18.987.663 3.038 4.65 1.1 10.287-1.775 14.475.625-3.363 1.275-7.275-1.225-10.075-3.387-4.575-11.2-4.113-14.012.85-1.9 2.737-1.088 6.137-.75 9.2-2.925-4.413-4.7-10.475-1.225-15.113m8.062 8.25c3.063-1.225 6.688 1.538 6.313 4.825-.013 3.613-4.738 5.9-7.563 3.625-3.175-2.012-2.4-7.5 1.25-8.45z" fill="#fff" stroke="#fff" stroke-width=".1175"/><path d="M66.846 26.51C93.246 8.397 125.51-.965 157.51.147c37.075.95 73.5 16.188 100.3 41.813 24.125 22.762 40.5 53.575 45.675 86.35 5.175 31.812.025 65.237-14.738 93.912-16.95 33.088-46.287 60.113-81.337 72.875 19.45-9.012 37.575-21.287 51.625-37.625 27.875-31.275 40.3-75.375 33.212-116.637-6.487-40.663-32-77.613-67.45-98.475-37.825-22.738-86.487-25.9-127.05-8.663-34.975 14.588-63.475 43.9-77.037 79.288-12.075 30.962-12.713 66.212-1.75 97.587 8.4 24.388 23.712 46.275 43.587 62.688 11.463 9.687 24.7 16.95 38.4 22.962-30.25-10.45-56.587-31.362-74.55-57.75C10.134 214.735 1.084 186.31.06 157.597v-10.825c.725-11.6 2.262-23.175 5.412-34.387C14.86 77.672 37.096 46.697 66.846 26.51m264.9 10.1c6.588-2.413 14.613-.788 19.4 4.462 5.913 6.263 7.05 15.363 7.225 23.613.025 39.6.013 79.187.013 118.787-.088 14.725.45 29.763 5.075 43.888 3.375 10.125 10.912 19.287 21.25 22.725 10.475 3.412 22.062 3.487 32.65.5 9.112-2.55 16.612-9.425 20.462-18 7.275-15.688 7.5-33.425 7.4-50.388 0-38.737-.012-77.475 0-116.212.125-8.475.95-17.775 6.613-24.525 6.35-7.6 19.187-7.925 26.1-.925 6.325 6.25 7.6 15.675 7.8 24.162.037 35.838 0 71.675.012 107.513.125 21.275.163 42.862-4.975 63.65-4.425 18.637-15.887 35.725-32.037 46.15-14.75 9.387-32.8 11.612-49.95 10.887-18.2-.687-37.388-4.5-51.813-16.35-14.062-11.65-21.8-29.162-25.225-46.762-3.225-15.65-3.962-31.688-3.887-47.638.05-39.587-.088-79.162.062-118.75.063-10.25 3.2-22.75 13.825-26.787m814.975 8.612c8.7-12.612 29.65-13.062 39.138-1.175 8.637 10.488 11.175 24.25 15.325 36.838 16.012 49.562 32.075 99.112 48.125 148.675 3.637 12 8.475 23.75 10.35 36.212 1.662 10.313-3.525 22.125-13.475 26.2-7.975 3.275-17.6-1.012-20.963-8.825-7.712-17.25-12.125-35.7-17.95-53.612-26.962.025-53.912-.025-80.862.025-5.075 16.237-9.275 32.775-15.225 48.725-2.088 4.962-4.013 10.887-9.325 13.262-7.15 3.35-16.113.9-20.75-5.437-7.65-8.088-6.988-20.288-3.675-30.15 18.525-58.938 36.95-117.913 55.562-176.813 4.025-11.487 6.55-23.862 13.725-33.925m-9.737 146.263c19.837.075 39.662 0 59.5.037-10.063-34.037-19.863-68.15-30.075-102.137-10.213 33.9-19.538 68.087-29.425 102.1M1361.846 36.86c17.35-2.975 35.813-1.05 51.638 6.912 21.725 11.125 38.65 31.775 44.2 55.663 2.787 10.975 1.7 25.112-8.763 31.725-6.975 3.825-16.975 1.387-20.662-5.9-6.638-11.688-10.513-25.063-19.725-35.2-14.038-17.863-43-18.6-59.663-4.088-12.05 10.35-18.637 25.588-22.112 40.775-4.2 18.963-4.625 38.575-3.2 57.875 1.562 18.8 6.1 38.4 18.537 53.15 15.3 18.388 46.15 20.05 63.625 3.875 8.813-8.187 14.2-19.387 17.488-30.8 1.637-5.975 3.525-12.025 7.062-17.175 3.963-5.762 12.45-6.812 18.45-3.837 6.7 3.55 10.7 11.1 10.975 18.562.325 9.6-1.962 19.088-5.15 28.1-6.675 18.438-18.675 35.55-35.8 45.625-11.85 7.538-25.962 10.913-39.925 10.888-17.662.125-36.05-3.513-50.712-13.838-16.338-11.675-27.413-29.325-34.85-47.675-7.988-20.862-11.375-43.287-11.475-65.562-.1-21.525 2.337-43.325 9.7-63.65 6.262-17.413 16.225-33.788 30.325-45.963 11.25-9.962 25.2-16.887 40.037-19.462m139.875 5.787c5.8-8.487 19.2-9.487 26.513-2.425 6.625 6.175 7.875 15.838 8.162 24.425.063 24.225 0 48.463.025 72.688 29.013.012 58.025.037 87.038-.013v-61.35c.137-11.187-1.15-23.737 5.875-33.287 5.662-8.113 18.275-9.55 25.737-3.15 7.288 6.075 8.7 16.262 8.913 25.187.025 66.238 0 132.488.012 198.725-.137 8.388-1.375 17.625-7.425 23.95-6.05 6.888-17.7 7.575-24.512 1.475-6.738-6.037-8.3-15.625-8.563-24.212-.1-28.663 0-57.338-.037-86-29.013-.013-58.025 0-87.038 0-.025 28.262.025 56.525-.025 84.787-.175 8.638-1.487 18.238-8.025 24.538-6.95 7.287-20.25 6.6-26.25-1.55-6.375-8.25-6.362-19.275-6.287-29.213.012-59.6 0-119.2.012-178.8.288-11.975-1.625-25.462 5.875-35.775m-989.425 6.8c3.213-6.537 10.638-9.937 17.713-9.687 42.962-.038 85.912-.013 128.862-.013 6.5-.2 13.6 2.088 17.175 7.888 4.638 7.362 4.738 17.375.688 25.025-3.15 6.025-10.075 9.05-16.663 8.962-15.062.063-30.125-.025-45.175.038-.012 60.175 0 120.35-.012 180.525-.075 8.725-1.038 18.362-7.1 25.162-5.763 6.713-16.85 7.575-23.738 2.125-7.837-6.075-9.637-16.675-9.675-26.012-.025-60.6 0-121.213-.012-181.813-15.225-.037-30.438.063-45.663-.05-6.25.025-12.662-2.937-15.725-8.562-4.025-7.088-4.1-16.275-.675-23.588m197.725-3.525c4.763-5.137 12.163-6.312 18.85-6.187 23.325.062 46.65-.075 69.963.075 11.662.437 23.862 1.137 34.387 6.725 11.95 5.937 21.038 16.737 25.963 29.037 8.162 20.2 8.575 43.588 1 64.025-7.313 19.313-26.013 31.8-45.413 36.763 14.325 9.575 23.613 24.612 32.138 39.2 7.5 13.425 13.637 27.625 18.675 42.15 2.375 7.362 5.4 15.575 1.875 23.1-3.463 9.087-14.238 14.412-23.538 11.437-7.2-2.212-11.45-9.125-14.837-15.375-10.425-20.537-20.013-41.5-30.35-62.075-5.6-10.437-11.438-21.612-21.688-28.2-10.125-5.9-22.275-4.15-33.462-4.437-.063 27.087.012 54.187-.038 81.287-.125 8.35-1.212 17.525-7.112 23.95-6.813 7.863-20.838 7.488-27.088-.887-5.3-6.838-6.262-15.863-6.3-24.238 0-64.225-.025-128.437.013-192.662.162-8.238 1.075-17.375 6.962-23.688m33.55 31.9c-.012 22.75-.012 45.5 0 68.25 14.263-.1 28.538.263 42.788-.212 10.45-.75 21.975-2.35 29.85-9.95 6.975-6.663 8.525-16.9 8.237-26.113-.25-9.525-3.8-19.5-11.637-25.375-7.025-5.762-16.575-6.037-25.213-6.5-14.675-.237-29.35-.062-44.025-.1M909.71 46.847c4.625-5.487 12.162-7.25 19.075-7.1 35.837.038 71.675-.062 107.512.05 7.088-.25 13.963 4.15 16.463 10.838 2.75 7.787 1.937 17.687-4.35 23.6-3.475 3.475-8.6 4.55-13.35 4.525-30.313-.013-60.638-.013-90.95 0-.025 20.425-.013 40.85-.013 61.275 28.263-.188 56.525-.075 84.788-.063 6.712-.25 13.437 3.613 15.787 10.075 2.563 7.038 2.188 15.688-2.35 21.863-3.375 4.562-9.3 6.225-14.737 6.087-27.838-.012-55.663.013-83.5-.012.05 23.512-.05 47.025.062 70.537 31.15-.025 62.3 0 93.463-.012 4.75-.05 9.812.812 13.525 4 4.212 3.562 5.912 9.262 6.125 14.612.325 6-.938 12.55-5.3 16.95-3.75 3.75-9.263 4.813-14.375 4.775-36.663-.037-73.325.025-110-.025-6.913-.025-14.525-2.087-18.75-7.962-4.488-6.5-5.1-14.738-5.25-22.388 0-62.925-.013-125.862.012-188.8.188-7.862.9-16.5 6.113-22.825z" fill="#0052ff" stroke="#0052ff" stroke-width=".1175"/><path d="M97.746 33.697c40.563-17.237 89.225-14.075 127.05 8.663 35.45 20.862 60.963 57.812 67.45 98.475 7.088 41.262-5.337 85.362-33.212 116.637-14.05 16.338-32.175 28.613-51.625 37.625-33.738 13.525-72.45 13.975-106.463 1.125-13.7-6.012-26.937-13.275-38.4-22.962-19.875-16.413-35.187-38.3-43.587-62.688-10.963-31.375-10.325-66.625 1.75-97.587 13.562-35.388 42.062-64.7 77.037-79.288M49.16 75.085c-19.8 22.687-31.813 52.062-33.388 82.15-1.737 28.6 5.813 57.675 21.3 81.787 12.025 18.813 28.65 34.738 48.15 45.663-15.525-10.613-28.587-24.85-37.637-41.35-11.338-20.413-16.388-44.213-14.488-67.475 2.188-29.2 15.7-57.313 36.988-77.388C91.72 77.76 121.359 65.66 151.32 65.522c24.85-.387 49.75 7.275 70.063 21.6 23.025 16.038 40.137 40.363 47.25 67.525 7.712 28.95 4.162 60.788-10.05 87.2-9.425 17.825-23.55 32.975-40.288 44.163 28.9-15.325 51.713-41.6 63.25-72.175 10.013-26.325 11.588-55.75 4.55-83.025-8.037-31.65-27.912-60.075-54.775-78.625-27.387-19.225-61.975-27.638-95.15-23.475-33.437 3.937-65.05 20.887-87.012 46.375m85.387-1.925c-40.587 6.225-76.2 36.337-89.287 75.225-9.088 26.162-8.2 55.65 2.55 81.187 8.987 21.613 24.862 40.263 44.712 52.675 18.213 11.463 39.75 17.575 61.275 17.338 26.15-.05 52.138-9.588 72.15-26.413 16.4-13.612 28.838-31.937 35.413-52.212 8.3-25.363 7.312-53.663-2.838-78.35-10.062-24.875-29.262-45.875-53.1-58.175-21.587-11.275-46.85-15.238-70.875-11.275m194.725-44.05c9.075-3.2 19.95-1.138 26.8 5.737 8.013 7.625 10.063 19.238 10.2 29.838.038 37.5 0 75 .013 112.5-.038 16.037-.338 32.487 4.737 47.887 2.813 8.375 9.288 15.938 18.1 18.15 8.963 2.25 18.713 2.288 27.5-.7 6.725-2.275 11.825-7.837 14.525-14.275 5.413-12.487 6.125-26.362 6.188-39.775.012-41.262-.025-82.525.012-123.787.188-10.35 2-21.7 9.5-29.438 6.463-6.887 16.863-9.137 25.825-6.612 7.3 1.987 13.338 7.55 16.575 14.325 3.425 7.137 4.363 15.175 4.4 23.012v107.45c.15 23.3-.025 47.038-6.662 69.588-7 22.9-23.95 43.35-46.625 51.975-18.413 6.925-38.675 6.975-57.938 4.312-19.1-2.687-38.225-11.025-50.212-26.625-17.813-22.112-21.238-51.725-22.138-79.137-.237-41.725-.025-83.438-.112-125.163-.05-8.625.537-17.575 4.375-25.45 3.05-6.212 8.35-11.475 14.937-13.812m2.475 7.5c-10.625 4.037-13.762 16.537-13.825 26.787-.15 39.588-.012 79.163-.062 118.75-.075 15.95.662 31.988 3.887 47.638 3.425 17.6 11.163 35.112 25.225 46.762 14.425 11.85 33.613 15.663 51.813 16.35 17.15.725 35.2-1.5 49.95-10.887 16.15-10.425 27.612-27.513 32.037-46.15 5.138-20.788 5.1-42.375 4.975-63.65-.012-35.838.025-71.675-.012-107.513-.2-8.487-1.475-17.912-7.8-24.162-6.913-7-19.75-6.675-26.1.925-5.663 6.75-6.488 16.05-6.613 24.525-.012 38.737 0 77.475 0 116.212.1 16.963-.125 34.7-7.4 50.388-3.85 8.575-11.35 15.45-20.462 18-10.588 2.987-22.175 2.912-32.65-.5-10.338-3.438-17.875-12.6-21.25-22.725-4.625-14.125-5.163-29.163-5.075-43.888 0-39.6.012-79.187-.013-118.787-.175-8.25-1.312-17.35-7.225-23.613-4.787-5.25-12.812-6.875-19.4-4.462m813.713-1.513c8.2-7.437 20.35-8.862 30.787-6.262 9.213 2.262 16.4 9.487 20.813 17.625 5.8 10.25 8.337 21.85 11.95 32.95 18.1 55.962 36.237 111.912 54.337 167.887 2.913 10 6.275 20.688 3.4 31.088-2.912 11.137-12.125 21.437-24.087 22.412-10.213 1.263-20.388-5.062-24.563-14.3-7.137-15.762-11.4-32.612-16.612-49.062h-69.175c-5.638 17.412-9.438 35.575-17.563 52.062-5.987 12.125-23.375 14.8-33.862 7.113-7.038-5.225-12.288-13.163-13.4-21.95-1.163-8.538 1.025-17.05 3.687-25.088 19.538-61.85 38.688-123.812 58.438-185.575 3.487-10.412 7.275-21.5 15.85-28.9m1.262 10.125c-7.175 10.063-9.7 22.438-13.725 33.925-18.612 58.9-37.037 117.875-55.562 176.813-3.313 9.862-3.975 22.062 3.675 30.15 4.637 6.337 13.6 8.787 20.75 5.437 5.312-2.375 7.237-8.3 9.325-13.262 5.95-15.95 10.15-32.488 15.225-48.725 26.95-.05 53.9 0 80.862-.025 5.825 17.912 10.238 36.362 17.95 53.612 3.363 7.813 12.988 12.1 20.963 8.825 9.95-4.075 15.137-15.887 13.475-26.2-1.875-12.462-6.713-24.212-10.35-36.212-16.05-49.563-32.113-99.113-48.125-148.675-4.15-12.588-6.688-26.35-15.325-36.838-9.488-11.887-30.438-11.437-39.138 1.175m212.75-15.95c20.763-3.812 43.088-1.05 61.513 9.563 15.437 9.025 28.587 22.237 36.725 38.25 5.962 11.5 10 24.45 8.975 37.525-1.025 10.825-7.613 22.112-18.488 25.387-8.425 2.125-18.537.013-24.087-7.05-6.6-8.25-9.15-18.775-14.538-27.725-4.637-7.862-10.512-15.887-19.35-19.225-12.062-4.4-26.65-2.462-36.412 6.138-10.2 8.925-15.8 21.875-18.963 34.787-4.275 18.038-4.712 36.788-3.55 55.213 1.3 17.3 4.875 35.387 15.838 49.337 12.7 16.725 40.625 17.988 54.95 2.738 6.812-7.163 10.95-16.425 13.65-25.825 1.975-7.138 4.375-14.388 8.925-20.338 5.75-7.312 16.375-9.337 24.925-6.425 8.375 2.988 14.437 10.688 16.85 19.075 2.225 8.35 1.037 17.163-.663 25.5-6.125 27.3-23.025 53.15-48.525 65.838-14.462 7.625-31.212 9.7-47.35 8.612-17.662-1.125-35.575-6.287-49.575-17.45-15.675-12.425-26.662-29.887-34.15-48.237-8.375-21.55-12.025-44.738-12.237-67.788-.413-32.862 5.387-67.012 23.687-94.9 14.013-21.562 36.25-38.387 61.85-43m2.375 7.588c-14.837 2.575-28.787 9.5-40.037 19.462-14.1 12.175-24.063 28.55-30.325 45.963-7.363 20.325-9.8 42.125-9.7 63.65.1 22.275 3.487 44.7 11.475 65.562 7.437 18.35 18.512 36 34.85 47.675 14.662 10.325 33.05 13.963 50.712 13.838 13.963.025 28.075-3.35 39.925-10.888 17.125-10.075 29.125-27.187 35.8-45.625 3.188-9.012 5.475-18.5 5.15-28.1-.275-7.462-4.275-15.012-10.975-18.562-6-2.975-14.487-1.925-18.45 3.837-3.537 5.15-5.425 11.2-7.062 17.175-3.288 11.413-8.675 22.613-17.488 30.8-17.475 16.175-48.325 14.513-63.625-3.875-12.437-14.75-16.975-34.35-18.537-53.15-1.425-19.3-1-38.912 3.2-57.875 3.475-15.187 10.062-30.425 22.112-40.775 16.663-14.512 45.625-13.775 59.663 4.088 9.212 10.137 13.087 23.512 19.725 35.2 3.687 7.287 13.687 9.725 20.662 5.9 10.463-6.613 11.55-20.75 8.763-31.725-5.55-23.888-22.475-44.538-44.2-55.663-15.825-7.962-34.288-9.887-51.638-6.912m134.25.225c5-6.463 13.263-9.988 21.388-9.4 8.562.25 16.562 5.337 20.95 12.6 4.65 7.675 5.812 16.862 5.862 25.675v63.487c23.775 0 47.563.038 71.35-.012-.1-19.463-.012-38.938-.05-58.4-.087-8.15.05-16.5 2.775-24.288 2.225-6.6 6.738-12.525 12.838-15.962 9.712-5.45 22.987-3.713 30.762 4.362 8.05 7.988 9.9 19.963 9.95 30.838-.012 65.812.013 131.637-.012 197.45-.05 10.75-2.3 22.45-10.375 30.187-8.813 9.125-24.7 9.763-34.275 1.488-8.225-6.913-11.1-18.063-11.55-28.388-.25-26.725-.038-53.45-.1-80.175-23.775-.025-47.538-.012-71.313-.012v65.625c-.062 8.812.5 17.8-1.862 26.387-2.013 7.963-7 15.375-14.288 19.375-9.675 5.25-22.8 3.55-30.387-4.562-7.65-7.863-9.663-19.338-9.763-29.9-.037-65.425 0-130.838-.012-196.25-.063-10.45 1.225-21.775 8.112-30.125m5.625 5.562c-7.5 10.313-5.587 23.8-5.875 35.775-.012 59.6 0 119.2-.012 178.8-.075 9.938-.088 20.963 6.287 29.213 6 8.15 19.3 8.837 26.25 1.55 6.538-6.3 7.85-15.9 8.025-24.538.05-28.262 0-56.525.025-84.787 29.013 0 58.025-.013 87.038 0 .037 28.662-.063 57.337.037 86 .263 8.587 1.825 18.175 8.563 24.212 6.812 6.1 18.462 5.413 24.512-1.475 6.05-6.325 7.288-15.562 7.425-23.95-.012-66.237.013-132.487-.012-198.725-.213-8.925-1.625-19.112-8.913-25.187-7.462-6.4-20.075-4.963-25.737 3.15-7.025 9.55-5.738 22.1-5.875 33.287v61.35c-29.013.05-58.025.025-87.038.013-.025-24.225.038-48.463-.025-72.688-.287-8.587-1.537-18.25-8.162-24.425-7.313-7.062-20.713-6.062-26.513 2.425m-997.3 5.025c3.863-9.712 14.125-15.812 24.425-15.787 43.325-.1 86.65-.013 129.975-.05 9.15-.263 18.85 3.45 23.825 11.462 7.95 12.488 6.4 31.425-5.612 40.863-5.163 3.987-11.825 5.437-18.25 5.4-12 .012-24-.013-36.013 0 0 57.987.013 115.962 0 173.937-.112 10.663-2.212 22.3-10.075 30.125-8.125 8.438-22.325 9.65-31.975 3.163-12.512-8.288-14.837-24.588-14.262-38.438V89.56c-12.575-.038-25.138.075-37.7-.05-7.375-.125-15.013-2.813-19.8-8.638-7.75-8.962-8.75-22.425-4.538-33.2m7.875 1.775c-3.425 7.313-3.35 16.5.675 23.588 3.063 5.625 9.475 8.587 15.725 8.562 15.225.113 30.438.013 45.663.05.012 60.6-.013 121.213.012 181.813.038 9.337 1.838 19.937 9.675 26.012 6.888 5.45 17.975 4.588 23.738-2.125 6.062-6.8 7.025-16.437 7.1-25.162.012-60.175 0-120.35.012-180.525 15.05-.063 30.113.025 45.175-.038 6.588.088 13.513-2.937 16.663-8.962 4.05-7.65 3.95-17.663-.688-25.025-3.575-5.8-10.675-8.088-17.175-7.888-42.95 0-85.9-.025-128.862.013-7.075-.25-14.5 3.15-17.713 9.687m192.7-9.675c6.525-6.512 16.188-8.225 25.05-7.95 22.938.075 45.863-.075 68.8.075 13.088.463 26.775 1.45 38.488 7.888 12.612 6.437 22.462 17.6 28.175 30.487 9.275 20.913 10.275 45.163 3.862 67.038-5.562 19-20.625 34.375-38.825 41.775 12.275 12.987 21.5 28.525 29.45 44.437 6.388 13.65 12.488 27.588 16.125 42.263 4.463 15.537-7.125 33.437-23.375 34.937-7.462.9-15.45-1.287-20.862-6.625-6.738-6.325-10.5-14.937-14.563-23.05-7.025-14.6-14.15-29.162-21.162-43.762-4.025-8.25-8.138-16.5-13.375-24.063-3.338-4.487-7.15-9.087-12.5-11.175-5.988-2.312-12.513-1.975-18.813-1.962v63.312c.025 10.125.475 20.663-3.462 30.225-3.263 8.1-10.25 15.05-19.013 16.725-9.012 1.888-19.212-.85-25.15-8.112-7.025-8.25-8.712-19.538-8.687-30.025.012-64.163-.013-128.325.012-192.488.075-10.575 1.9-22.237 9.825-29.95m5.025 6.15c-5.887 6.313-6.8 15.45-6.962 23.688-.038 64.225-.013 128.437-.013 192.662.038 8.375 1 17.4 6.3 24.238 6.25 8.375 20.275 8.75 27.088.887 5.9-6.425 6.987-15.6 7.112-23.95.05-27.1-.025-54.2.038-81.287 11.187.287 23.337-1.463 33.462 4.437 10.25 6.588 16.088 17.763 21.688 28.2 10.337 20.575 19.925 41.538 30.35 62.075 3.387 6.25 7.637 13.163 14.837 15.375 9.3 2.975 20.075-2.35 23.538-11.437 3.525-7.525.5-15.738-1.875-23.1-5.038-14.525-11.175-28.725-18.675-42.15-8.525-14.588-17.813-29.625-32.138-39.2 19.4-4.963 38.1-17.45 45.413-36.763 7.575-20.437 7.162-43.825-1-64.025-4.925-12.3-14.013-23.1-25.963-29.037-10.525-5.588-22.725-6.288-34.387-6.725-23.313-.15-46.638-.013-69.963-.075-6.687-.125-14.087 1.05-18.85 6.187m198.025-8.2c8.025-6.15 18.588-6.125 28.213-5.887 32.95.012 65.9 0 98.85.012 6.425-.037 13.162 1.625 18.025 6.025 13.762 11.913 11.7 38-5.113 46.15-5.575 2.75-11.937 2.75-18 2.65-26-.025-52-.012-78-.012 0 15.125-.012 30.262.013 45.387 25.6-.012 51.212-.037 76.812.013 8.738-.15 17.625 4.225 21.75 12.137 6.538 12.213 4.313 30.213-8.012 37.95-4.475 2.775-9.8 3.775-14.988 3.738-25.2.012-50.387 0-75.575.012-.025 18.225.025 36.463-.025 54.7 28.95.038 57.913-.012 86.863.025 9.062-.15 18.562 4.225 22.762 12.563 5 9.9 4.95 22.55-.7 32.187-4.462 7.625-13.487 11.425-22.075 11.338-37.112.012-74.225.025-111.337-.013-8.938 0-18.438-2.937-24.2-10.112-6.3-7.863-7.488-18.413-7.6-28.15.012-63.313-.038-126.638.037-189.95.138-11.163 2.663-23.838 12.3-30.763m1.663 9.125c-5.213 6.325-5.925 14.963-6.113 22.825-.025 62.938-.012 125.875-.012 188.8.15 7.65.762 15.888 5.25 22.388 4.225 5.875 11.837 7.937 18.75 7.962 36.675.05 73.337-.012 110 .025 5.112.038 10.625-1.025 14.375-4.775 4.362-4.4 5.625-10.95 5.3-16.95-.213-5.35-1.913-11.05-6.125-14.612-3.713-3.188-8.775-4.05-13.525-4-31.163.012-62.313-.013-93.463.012-.112-23.512-.012-47.025-.062-70.537 27.837.025 55.662 0 83.5.012 5.437.138 11.362-1.525 14.737-6.087 4.538-6.175 4.913-14.825 2.35-21.863-2.35-6.462-9.075-10.325-15.787-10.075-28.263-.012-56.525-.125-84.788.063 0-20.425-.012-40.85.013-61.275 30.312-.013 60.637-.013 90.95 0 4.75.025 9.875-1.05 13.35-4.525 6.287-5.913 7.1-15.813 4.35-23.6-2.5-6.688-9.375-11.088-16.463-10.838-35.837-.112-71.675-.012-107.512-.05-6.913-.15-14.45 1.613-19.075 7.1M70.359 65.022c25.375-20.425 58.537-30.8 91.012-28.487 28.388 1.725 56.038 13.1 77.513 31.712 23.975 20.55 40.212 49.925 44.562 81.225 3.55 24.225.063 49.325-9.562 71.8 9.15-24.737 11.325-52.137 4.937-77.825-8.3-34.85-31.95-65.6-63.375-82.775-27.262-15.175-60.112-19.75-90.55-12.975C92.271 54.785 62.884 75.21 44.66 103.16c-17.425 26.275-24.5 59.062-19.763 90.212 1.913 14 6.725 27.4 12.663 40.163-13.938-24.975-19.75-54.413-15.85-82.788 4.312-33.462 22.237-64.812 48.65-85.725m59.212-10.65c27.225-5.125 56.188-.75 80.525 12.55 30.375 16.325 53.438 46.2 60.725 79.925-1.825-1.725-1.275-4.462-2.112-6.625-10.238-29.2-32.013-54.1-59.55-68.2-25.3-13.162-55.263-16.9-83.063-10.637-27.25 6.012-52.162 21.787-69.412 43.7-15.725 19.912-25.4 44.837-26.075 70.275-1-23.675 6.362-47.375 19.087-67.238 17.813-27.812 47.363-47.8 79.875-53.75m6.1 23.663c29.438-5.613 61.163 3.737 82.813 24.462 15.3 12.425 27.387 28.863 33.95 47.488 8.912 24.8 8.112 52.937-2.288 77.162-8.45 19.925-23.2 37.075-41.575 48.488-17.025 10.625-37.125 16.237-57.2 15.887-24.625-.125-49.037-9.4-67.662-25.5-16.338-13.962-28.263-33-33.588-53.825-5.837-22.525-4.05-46.962 5.2-68.325 6.513-15.25 16.725-28.862 29.425-39.5 6.513-5.175 12.775-10.737 20.05-14.85a94.63 94.63 0 0 1 30.875-11.487m-30.575 26.675c-11.85 13.85-16.787 33.05-13.612 50.95-1.313-22.288 10.287-44.763 29.562-56.138 16.263-9.975 37.263-11.562 54.863-4.237 17.4 7.062 31.112 22.587 35.85 40.775 1.85 6.312 1.787 12.95 2.825 19.4.262-9.65.625-19.513-2.438-28.813-6.737-23.125-28.05-41.1-52.012-43.687-20.475-2.65-41.9 5.837-55.038 21.75m-.212 22.4c-5.888 11.225-7.388 24.512-4.675 36.862-.288-9.6 1.512-19.35 6.1-27.837 7.6-14.6 22.375-25.238 38.7-27.575 16.85-2.725 34.812 3.462 46.387 16.025 10.113 10.5 15.1 25.312 14.338 39.8 4.087-17.7-1.113-37.25-13.938-50.213-11.862-12.35-29.812-18.475-46.75-15.812-16.987 2.375-32.4 13.475-40.162 28.75m11.025 8.3c-7.738 10.962-9.4 25.212-6.275 38.075-1.55-16.538 6.487-33.713 21.012-42.088 16.825-10.425 40.55-6.987 53.675 7.825 9.438 9.825 12.638 24 11.088 37.263 2.387-8.763 3.487-18.125 1.025-27-3.963-16.025-17.488-29.138-33.625-32.588-17.5-4.187-36.95 3.55-46.9 18.513m99.475 47.15c-8.788 18.012-25.725 31.85-45.188 36.687-18.712 4.838-39.387 1.438-55.462-9.312-17.738-11.563-29.625-31.6-31.063-52.75-1.212-13.1 2.113-26.113 7.55-37.95-6 9.987-10.175 21.187-11.112 32.85-2.025 20.55 5.25 41.787 19.475 56.762 13.2 14.225 32.275 22.825 51.7 23.113 16.812.487 33.712-5.15 46.9-15.588 15.512-12.1 25.787-30.675 27.625-50.275 1.8-16.725-2.688-33.812-11.775-47.887 10.512 19.675 11.425 44.312 1.35 64.35M81.496 124.397c-11.975 18.1-16.837 40.75-13.037 62.138 3.737 22.225 16.825 42.6 35.312 55.437 16.225 11.413 36.538 16.838 56.3 15.038 20.063-1.625 39.375-10.763 53.45-25.125 13.813-13.913 22.575-32.725 24.263-52.263 1.875-19.312-3.313-39.05-13.938-55.237 6.363 13.275 9.638 28.15 8.275 42.887-1.687 22.288-13.412 43.5-31.25 56.925-15.725 12.05-36.062 17.8-55.762 15.85-19.138-1.712-37.45-10.762-50.55-24.787-13.713-14.475-21.638-34.275-21.6-54.225-.175-12.688 3.075-25.238 8.537-36.638m163.3 73.45c-6.237 22.413-21.1 42.213-40.75 54.625-17.062 10.888-37.662 16.05-57.85 14.55-22.425-1.475-44.137-11.325-60.1-27.137-16.787-16.375-27.137-39.138-28.35-62.575-1.087-14.738 2.125-29.375 7.238-43.125-11.95 23.025-15 50.587-7.4 75.475 6.462 21.887 20.8 41.3 39.737 54.037 16.513 11.2 36.475 17.225 56.438 16.988 23.15-.05 46.125-8.625 63.7-23.688 19.475-16.425 32.2-40.587 34.587-65.975 2.1-19.862-2.275-40.137-11.6-57.737 8.55 20.262 10.475 43.362 4.35 64.562m-129.75-30.625c-1.862 13.4 4.363 27.125 15.038 35.25-7.188-7.35-12.063-17.35-11.15-27.825.625-16.425 14.75-30.837 31.112-31.925 16.15-1.725 32.313 9.8 36 25.588 3.038 10.95-.437 22.75-7.475 31.412 11.288-10.575 15.325-28.125 9.125-42.4-6.037-15.1-22.55-25.062-38.737-23.187-17.2 1.375-32.125 15.925-33.913 33.087m22.975-10.687c-9.275 5.375-14.9 16.3-13.875 26.975.438 7.562 4.45 14.4 9.775 19.612-2.187-3.512-4.7-6.95-5.637-11.05-2.8-9.887 1.362-21.2 9.8-27.012 7.95-5.788 19.325-6.188 27.662-.988 8.275 4.913 13.2 14.825 11.975 24.413-.425 5.587-3.375 10.5-6.7 14.862 5.238-4.825 9.213-11.237 10.038-18.412 1.612-10.875-3.825-22.313-13.175-28.05-8.863-5.688-20.875-5.838-29.863-.35m-3.612 25.725c-2.125 6.612.137 13.75 4.45 18.937-3.363-6.475-3.313-15.062 2.162-20.387 6.35-7.05 18.738-6.413 24.363 1.212 4.55 5.45 4.1 13.275 1.025 19.313 2.837-3.8 5.312-8.138 5.312-13.025.513-9.475-7.112-18.463-16.55-19.488-9-1.387-18.325 4.688-20.762 13.438m8.975 6.912c-3.475 4.638-1.7 10.7 1.225 15.113-.338-3.063-1.15-6.463.75-9.2 2.812-4.963 10.625-5.425 14.012-.85 2.5 2.8 1.85 6.712 1.225 10.075 2.875-4.188 4.813-9.825 1.775-14.475-3.687-7.025-14.8-7.388-18.987-.663m8.062 8.25c-3.65.95-4.425 6.438-1.25 8.45 2.825 2.275 7.55-.012 7.563-3.625.375-3.287-3.25-6.05-6.313-4.825m592.125-119.6c14.675.038 29.35-.137 44.025.1 8.638.463 18.188.738 25.213 6.5 7.837 5.875 11.387 15.85 11.637 25.375.288 9.213-1.262 19.45-8.237 26.113-7.875 7.6-19.4 9.2-29.85 9.95-14.25.475-28.525.112-42.788.212-.012-22.75-.012-45.5 0-68.25m7.913 7.875c-.013 17.488-.013 34.975 0 52.463 9.925-.013 19.862.037 29.8-.013 8.262-.15 16.75-.937 24.387-4.337 5.488-2.538 9.325-7.95 10.213-13.9 1.6-9.613 1-21.088-6.575-28.15-5.4-5.338-13.488-5.388-20.55-5.9-12.425-.363-24.863-.075-37.275-.163m385.5 105.788c9.887-34.013 19.212-68.2 29.425-102.1 10.212 33.987 20.012 68.1 30.075 102.137-19.838-.037-39.663.038-59.5-.037m10.5-7.9c12.85.012 25.7-.038 38.55.025-6.688-22.138-13.025-44.388-19.625-66.55-6.163 22.212-12.663 44.337-18.925 66.525z" fill="#000001" stroke="#000001" stroke-width=".1175"/></g></svg>