<svg version="1" xmlns="http://www.w3.org/2000/svg" width="2237.333" height="2237.333" viewBox="0 0 1678.000000 1678.000000"><path d="M814.5 184.6c-56.2 2.9-102 10.5-151.1 25-77.7 22.8-148.1 59.9-211.9 111.3-58.1 46.8-98.2 87.9-135.2 138.7-153.9 211-164.6 496-27 718.4 63.9 103.2 155.9 186.8 264.2 240 71.6 35.2 142 55.1 225 63.7 21.5 2.2 94.5 2.5 115 .5 56.9-5.7 102.9-15.3 152-31.8 89.3-29.9 174.3-82 244.4-149.8 12-11.6 35.8-37.9 48.7-53.6 94.5-115.7 145.4-258.4 145.4-408 0-71.7-10.7-137.7-33.5-205.5-10.5-31.5-18.4-50.7-33.5-81-18.7-37.8-38.1-69.3-62.9-102.3-23.1-30.6-55.7-66.3-82.6-90.1-17.3-15.4-18.1-16.2-27.5-24.2C1139.9 247 1021.9 197.5 886.5 186c-12.8-1.1-60.3-2-72-1.4zm74.5 31c115.7 9.8 225.7 54.8 315.5 128.8 103.1 84.9 173 202.2 198.4 332.6 28.9 148.8-1.7 302.1-85.2 427.5-47.7 71.5-109.7 130.8-182.7 174.7-20.8 12.5-27.1 15.1-11.5 4.8 19.3-12.9 41.2-30.9 63-52 129.3-124.6 181.4-306.5 138-481.8-8.8-35.3-18.6-62.1-34.9-95.7-19.5-40.1-39.9-71.7-66.7-103.6-59.3-70.5-133.5-122-219.4-152.1-71.8-25.3-151.2-33.5-228.5-23.7-94.4 11.9-183.2 50.5-256.5 111.5-96.6 80.3-159.2 192.6-176.4 316.4-5.9 42.8-6.3 87.8-1 130.2 13.7 111.2 63.3 212.9 142.4 292.2 18.7 18.8 42.3 39.2 59.8 51.6 5.6 4 6.2 5.1 1 1.9-75.1-45.3-139-107.2-186.5-180.4-44.5-68.7-74-147.2-85.8-228-4.4-30.5-5.4-45.8-5.4-83-.1-46.8 2.8-75.6 11.5-117.5 32.5-156.7 130.5-293.9 268.4-376 103.2-61.4 222.4-88.7 342.5-78.4zm-18.8 182.5c148.7 10.2 279.8 85.5 364 208.9 45.1 66.1 72.6 144.6 79.8 228 1.3 14.9 1.3 60.1 0 75.5-6.9 82.1-33.6 159.1-78.3 226-17.6 26.4-36.4 49.3-59.2 72-81 81.2-184.5 129-300 138.6-18.5 1.5-71.3.6-89.5-1.6-76.5-9.1-144.8-33.7-208.2-75.1-60.7-39.6-115-97.1-151.6-160.5-61.8-107.4-79.2-237.5-47.7-357.4 19-72.4 54.4-138.8 103.1-193.5 11.2-12.6 35.6-36.9 47.4-47.1 25.3-22 57.1-43.7 87.4-59.6 62.6-32.8 126.4-50.4 198.1-54.6 12.8-.8 40.8-.6 54.7.4z"/><path d="M805 249.6c-51.9 4.2-84.7 10.2-127.3 23-61 18.3-125.7 51.7-175.8 90.6-45.6 35.4-87.4 79.8-119.1 126.3-59.6 87.5-92.3 187-95.7 291.3-3 96.1 15.7 182.5 58 267.2 13.4 26.8 16.4 31 6 8.5-18.6-40.3-30.4-74.6-39.1-113.9-16.6-74.2-17.1-153-1.5-228.5 25.2-121.8 93.4-232.6 192-311.7 66.4-53.2 146.4-90.7 229.3-107.3 39.1-7.9 66.7-10.5 109.2-10.5 42 .1 70.4 2.9 108.8 11 153.8 32.2 285.2 128.6 362.2 265.9 35.3 63 57.3 132.5 65.7 207.5 1.5 13.4 1.8 24.2 1.8 57-.1 35.6-.4 42.7-2.3 58.8-5.7 46.5-16 90.4-29.8 126.4-1.9 5-3.3 9.2-3.1 9.4.9.9 13.3-31.3 19.6-50.7 12.4-38.5 19.4-72.8 24.3-118.4 1.8-16.2 1.7-84.7 0-101.5-7.5-72.8-25-133.8-56.1-196-62.9-125.9-171-222.4-304.1-271.8-42.4-15.7-88.6-26.1-139-31.3-10.2-1-74.9-2-84-1.3z"/><path d="M798 317.1C652.2 328.7 521.5 399.5 432.5 515c-66 85.6-102.8 189.8-104.9 297.5-.4 17.7-.3 20.1.4 12 2.4-25.5 4.3-42.1 6.6-55.5 17.3-102.5 64.6-195.9 137.2-271.1 80.9-83.7 185.8-136.5 301.9-151.8 44.1-5.8 96.8-5.3 142.3 1.4 154.4 22.7 292.5 117.8 369.7 254.5 17.3 30.7 29.7 58.7 41.4 94 5.9 17.8 5.3 12.3-1.2-10.2-9.1-31.9-18.2-55.4-33.4-86.3-39.8-80.7-99.5-148.4-175.5-199.2-67.4-45-144.7-72.7-228-81.9-17.2-1.9-73.8-2.7-91-1.3z"/><path d="M813 417.7c-1.9.1-8.7.8-15 1.4-44.5 4.1-95.1 18.9-137.5 40.2-14.5 7.2-39 22.3-53.7 33-16.4 11.9-53.2 41.6-67.5 54.6-12.9 11.6-34 34.1-45.8 48.9-49 61.1-80.7 133.1-92.4 209.8-3.8 25.1-4.6 36.4-4.6 67.4.1 36.5 2 56.3 8.5 88.8 20.4 100.6 76.4 191.9 157.4 256.6 68.9 55 149.1 87 239 95.2 22 2 66.7 1.5 87.1-1 107.8-13.3 201.5-60.8 274.8-139.6 49.5-53.1 86.6-121.4 104.1-191.6 30.6-122.6 8.5-250.8-61.4-354.9-13.5-20.2-34.5-46-52.4-64.4-12.5-12.9-59.3-53.9-74.5-65.4-60.9-45.7-132.8-72.8-208.5-78.7-11.8-.9-49.3-1.1-57.6-.3zm58 26.9c69.2 8.3 132.3 45.1 175.1 102 27.1 36.1 43.9 78.4 49.5 124.4 1.9 15.5 2 49.1.1 61.5l-1.3 9-.7-17c-1.7-44.2-12.3-82.1-33.2-119-24.2-42.6-63.1-79.7-106.6-101.6-37.7-18.9-73.6-27.3-116.4-27.2-24.2.1-41 2.1-63 7.8-34.6 9-69.3 26.5-97 49-9.9 8.1-28.3 26.3-36.7 36.5-26 31.5-44.6 70.6-52.7 111-3.1 15.6-4.3 26-5 44.8l-.6 17.7-1.5-12c-2-16.3-1.8-46.4.4-63 7.8-58.2 32.7-108.6 74.1-150 21.5-21.5 42.1-36.3 69-49.5 45.6-22.5 94.6-30.6 146.5-24.4zM858 507c15.9 1.4 27.3 3.4 42 7.5 52.7 14.6 97.2 46.9 127.5 92.5 20.3 30.5 32.3 63.6 36.5 100.1 1.7 14.5.8 47-1.6 61.4l-1.9 11-.6-16.5c-1.3-34.7-8.8-64.6-23.4-93.4-33-64.9-93.1-108-166.5-119.3-23.2-3.5-56.4-1.9-81 3.9-63.3 15-117.6 58.2-146.7 116.9-15.4 31-22 60.1-23.4 102.4l-.1 4-.9-4c-.4-2.2-1.5-10.5-2.5-18.5-2.6-23.1-.9-50.8 4.6-74.7 7.3-31 23.2-63.9 43-88.8 46.9-58.8 121-90.9 195-84.5zm17.5 77.9c23.6 4.8 49.5 15.5 68.5 28.3 55.5 37.6 87.2 102.4 82.2 168-.6 8.4-2.1 19.7-3.2 25-2.1 10.1-7.4 27-6.4 20.8.2-1.9.7-11.4 1-21 .8-25.2-1.9-43-10.3-66.5-9.2-25.9-21.6-45-42.7-66-16.2-16.1-28.8-25.2-47.9-34.5-35.4-17.2-75.7-22.3-114.2-14.4-62.4 12.7-114.4 58.8-134.5 119.3-6.3 18.8-8.1 29.9-8.8 52.1-.6 21.5-1 21.6-4.2 1-4.3-27.5-1.9-58.9 6.7-85.5 19.1-59.6 66.8-105.7 127.2-122.9 7.5-2.1 19.4-4.5 29.6-6 1.7-.2 12.7-.3 24.5-.1 17.4.2 23.6.7 32.5 2.4zm228.9 23.3c19.5 33.8 32.5 72.1 38.1 112.5 2.2 15.9 3 49.2 1.6 65.3-3.8 42-13.9 77.3-32.8 114.3-14.7 28.6-32.3 52.7-55.8 76.3-24.4 24.4-49.7 42.6-80 57.5-32.5 16-59.8 24.3-96.5 29.5-15.8 2.3-59.1 2.6-75 .5-68.9-8.8-128.1-37.1-176.8-84.6-8.5-8.2-19.3-19.7-23.9-25.5-27.3-33.8-48.2-74.8-58.8-115.2-8.3-32-11.9-68-9.6-96.8 4.2-52.1 16.6-92.4 41.8-136.3 2.5-4.2 4.7-7.7 4.9-7.7.2 0-1.3 3.5-3.5 7.7-8.4 16.9-17.4 42.8-22 64-15 67.6-4.7 139.9 28.5 200.8 13.7 25.1 28.6 44.8 49.8 66.1 45.6 45.8 100.8 73.4 166.1 83.1 17.1 2.5 62.1 2.5 78.5-.1 46.5-7.2 84.8-21.6 120-45.1 18.3-12.2 31.1-22.6 46-37.5 46.1-46 73.9-102.8 83.2-170 2-14.5 1.7-59.4-.5-74.5-4.6-31.1-14.2-62.6-26.6-87.3-2.3-4.5-3.9-8.2-3.7-8.2.2 0 3.4 5.1 7 11.2zM537 627.1c-4.9 9.5-12.5 29.2-16.8 43.4-24.9 81.1-18.2 167.8 18.7 243.6C586 1011 677.1 1079.2 783 1096.9c20.8 3.5 32.4 4.4 56.5 4.4 24.9 0 40-1.5 62.9-5.9 81.1-15.8 152.9-61 203.1-127.9 31.4-41.8 53-92.6 61.4-143.7 3.3-20.6 4.3-33.3 4.3-55.8 0-36.1-4.5-65.5-15.2-99.9-3.3-10.6-13.1-35.5-17-43.1-3.7-7.3-1.2-4.2 5.3 6.7 13.4 22.3 27.4 53.3 34.6 76.8 10.2 33.4 14.9 62.1 15.8 96.7 2.2 82.3-22.3 159.3-71.2 224.3-53.4 70.9-128 117.8-215.5 135.5-25 5.1-39.7 6.4-69 6.4-43.3.1-74.6-4.9-113.4-17.8-75.5-25.2-140.3-74.8-184.3-141.1-31.1-46.9-49.6-97.3-57.3-156-1.7-13-2.4-56.5-1.1-70.5 4.4-47.6 16.2-89.6 37-131 7-14.1 18.6-34 19.7-34 .2 0-.9 2.7-2.6 6.1zm325.5 32c56 8.3 105 48.5 124.3 101.9 6.7 18.6 9.3 33.7 9.3 55.3.1 39.8-15.2 78.3-42.7 107.2-6 6.3-7.2 6.7-1.8.5 8-9.2 19-29.6 23.7-44.1 5.2-15.8 6.2-23.1 6.2-43.9 0-21.9-1.1-29.1-7.2-47-6.9-20.3-16.3-35.7-31.3-51.3-12.5-13.1-23.8-21.4-39.5-29.2-24.2-11.9-37-14.9-63.5-14.9-15.3 0-20.2.4-28.6 2.2-57.8 12.5-101.1 56.8-112 114.7-2.1 11.2-2.4 36.9-.5 47.5 5 28.8 17.6 54.3 37.2 75.5 4.6 4.9 7.5 8.3 6.4 7.4-30.7-24.3-51.3-57.1-58.9-94.3-3.7-17.9-3.9-41.9-.6-60.1 10.7-56.8 51.6-103.4 106.7-121.4 23.1-7.5 48.4-9.6 72.8-6zm-392.9 8.1c-3.7 8.5-11.2 31.4-15 45.9-32.3 123.1-4.9 252.9 74.2 351.4 47.8 59.6 111.4 103.9 184.2 128.7 81.2 27.5 171.8 27.4 254.5-.5 123-41.5 218.9-141.6 255-266.2 11.6-40.1 16.2-76.7 15.2-120.4-.9-41.1-6.2-73.5-18.4-112.1-2.5-8-5.8-17.6-7.4-21.4-3.6-8.6-3-9.8.9-2 17.5 34.9 32 82 38.1 123.9 5.6 38.6 5.4 88.3-.5 123.5-8.7 52.1-25.2 99.3-49.7 142-41.7 72.6-103.2 130.3-178.2 167.2-41.4 20.3-83.7 32.8-133.5 39.5-11 1.5-20.4 1.8-50 1.8-38.6-.1-49.2-1-79-6.6-95.1-18.1-182.9-71.4-244.7-148.4-42.6-53-71.6-116.4-84.2-184-15.9-85.2-4-175.4 33.8-255 5.9-12.3 9.2-17.5 4.7-7.3zm396.9 70.7c46.6 12.4 79.9 47.4 89.2 93.8 2.3 11.6 2.2 34.7-.1 45.3-3.5 16-9.6 30.8-17.9 43.2-5 7.4-16.5 20.7-19.7 22.6-2.3 1.4-2.2 1.3.6-1.9 10.8-12.1 19.7-30.3 23.6-48.4 1.9-9 1.6-31.3-.6-41.5-11-51.9-61-88.7-113.1-83-25.1 2.7-45 11.9-62.9 29-14.4 13.8-24.1 30.4-29.3 49.8-2.3 8.5-2.6 11.7-2.7 25.7 0 13.3.4 17.4 2.2 24.2 4 15.6 10.2 28.6 18.9 40 1.9 2.5 3.2 4.7 3 4.9-.7.7-12.7-13.2-17.9-20.6-16.5-23.5-23.8-55.2-19.3-84 4-26.5 15.2-48.8 33.5-67 18.8-18.7 39.2-29 68-34.4 1.4-.2 10.2-.3 19.5-.1 13.3.3 18.7.8 25 2.4zm-8.5 66.7c38 9.6 64 47.3 59.1 85.6-2.1 16.3-8.4 31.1-17.4 41-3.8 4.2-3.8 4.2-1.9.8 4.1-7.1 7.4-19.2 7.9-29.1 2.1-37.6-26.2-68.8-64.2-70.6-20.2-1-36 5.2-50.6 19.7-7 6.9-9.4 10.2-12.7 17-2.3 4.7-4.8 11.4-5.6 15-3.3 13.9-1.2 32.2 5.2 45.3 2.3 4.6 2.5 5.4.9 4-1.1-1-3.7-4.4-5.9-7.7-22.7-33.2-16.3-78.7 14.6-104.7 9.1-7.7 22.8-14.5 34.2-17 10.5-2.2 26-2 36.4.7zm-5.6 64.9c7 2 16.1 8 21 13.6 15.3 17.7 15.3 44.7.2 61.4l-3.7 4 1.8-3.5c1.3-2.6 1.7-6 1.8-13.5 0-8.8-.3-10.7-2.7-15.7-4.9-10.6-15-18-27.4-20.1-11.3-1.9-25.9 3.7-32.7 12.6-7.9 10.5-10.1 24.2-5.8 36.2l1.1 3-3.3-3.7c-6.8-7.6-10.7-18.4-10.7-29.8 0-13 4.3-23.2 13.5-32.6 12.5-12.7 29.4-17 46.9-11.9zm-4.9 53.4c5.6 2.6 9.6 7.2 11 12.7 3.1 12.1-4.5 23.3-16.8 25-6.3.9-14.7-3.1-18.4-8.8-10.7-16.1 6.7-37 24.2-28.9z"/></svg>