<svg xmlns="http://www.w3.org/2000/svg" width="952.5" height="622.5" viewBox="0 0 952.5 622.5"><g stroke-width=".094" stroke-miterlimit="10"><path d="M133.112 12.525c2.463 2.075 4.875 4.212 7.338 6.3.05 97.475.013 194.95.037 292.425.263 95.862.2 191.737.188 287.6 1.037 5.063-4.125 7.512-7.288 10.337-.3-198.887.038-397.775-.275-596.662M71.225 121.262c17.412-32.987 34.387-66.212 52-99.1.1 95.113.012 190.225.037 285.338.25 21.662-.637 43.362.75 64.987-.112 76.438.15 152.888-.125 229.313-6.512-11.025-11.712-22.775-17.65-34.125a10437.721 10437.721 0 0 0-31.312-61.188c-1.913-4.225-5.4-7.9-5.875-12.65-.3-53.362.375-106.725-.325-160.087-.013-64.162 0-128.338 0-192.5.262-6.675-1.138-13.963 2.5-19.988M193.312 226.3c4.763 4.975 8.625 10.725 13.513 15.575 3.05 3.337 5.912 6.9 7.762 11.063 19.263 34.937 39.563 69.275 59.313 103.937 2.137 4 5.162 7.65 6.262 12.125.238 4.037.05 8.1.188 12.15-10.325-16.838-20.388-33.837-30.725-50.663-1.325-2.175-2.563-4.487-4.488-6.2-2.125-.175-4.3.175-5.687 1.95-.788 3.288 1.725 5.925 3.112 8.638 12.675 20.312 24.663 41.05 37.425 61.312-7.4-8.05-14.1-16.762-20.687-25.475a5771.993 5771.993 0 0 1-41.538-71.737c-1.712.35-3.387.762-5.05 1.25-.525 2.487-.425 5.1 1.15 7.225 3.613 5.45 5.263 11.9 8.838 17.362 1.312 2.125 2.4 4.388 3.3 6.725-4.988.363-9.975.788-14.975.525l-1.763 2.925c4 5.1 5.463 11.563 8.525 17.2 2.388 4.4 3.85 9.288 6.463 13.55 6.812 2.263 14.4-.3 21.462 1.35 1.413 1.063 2.6 2.4 3.913 3.6-19 .725-38.038-.037-57.025.463-8.938 6.1-16.15 14.612-25.463 20.2-3.562-54.4-8.612-108.713-12.062-163.125 9.125 6.325 17.775 13.312 26.975 19.537-.413 5.488-1.225 10.95-1.263 16.475 5.175-1.412 10.575-.812 15.838-1.487-2.363-4.125-4.913-8.275-6.325-12.838 2.037-7.712 2.262-15.712 3.012-23.612m91.2.262c5.888 7.45 12.513 14.288 18.338 21.775 13.45 23.963 26.6 48.138 40.9 71.613 8.7 15.75 18.062 31.137 26.65 46.95 1.262 5.037.062 10.375.187 15.537-5.775-11.225-12.662-21.837-19-32.737-4.4-6.588-7.812-13.8-12.375-20.25-3.762-3.2-8.512 1.85-5.837 5.675 11.362 19.025 22.537 38.162 33.987 57.125-6.95-8.75-14.875-16.863-20.262-26.738-11.275-19.512-22.488-39.062-34-58.425-2-2.8-2.513-8.062-6.838-7.975-2.137 1.088-4.325 3.25-3.162 5.838 2.062 3.862 4.85 7.362 6.275 11.55 1.687 5.037 4.675 9.45 7.112 14.125-10.625 1.45-21.4 1.5-32.1 1.475-11.15-20.788-23.425-40.925-34.85-61.563-2.875-5.275-6.337-10.3-8.312-16.025 10.075-.025 20.162.1 30.237-.137 1.125 3.3.263 6.825.4 10.225 2.325-.7 4.713-1.2 7.113-1.625 1.825 3.037 3.687 6.05 5.5 9.087 1.737-.037 3.462-.062 5.2-.087.387-1.375 1.337-2.713 1.1-4.188-2.1-5.037-5.4-9.462-7.775-14.35-.2-8.975 1.325-17.9 1.512-26.875m90.275-.15c5.613 5.288 10.063 11.638 15.325 17.25 5.513 5.475 7.863 13.063 11.95 19.513 10.475 17.8 20 36.15 30.875 53.712 9.363 16.8 19.175 33.338 28.638 50.075.85 4.713.312 9.625.512 14.413-9.812-17.075-19.987-33.95-30.062-50.863-2.325-4.837-10.275-.275-7.088 4.1 12 20.613 24.613 40.863 36.388 61.588-4.288-5.313-8.463-10.7-12.913-15.85-8.6-9.838-14.15-21.775-20.85-32.888-5.3-8.5-9.775-17.475-15.1-25.962-4.6-7.163-8.687-14.663-12.45-22.288-2 .263-3.975.713-5.9 1.263-.675 4.937 2.938 8.65 4.85 12.837 2.838 5.913 5.113 12.188 9.288 17.325-10.775 1.463-21.713.775-32.488 2.175-9.375-16.787-19.162-33.325-28.662-50.037-4.738-9.7-11.063-18.513-15.625-28.288 10.55 0 21.112.1 31.662 0-.162 2.988-.312 5.975-.5 8.963 2.525-.063 5.05-.163 7.588-.275 1.75 2.962 3.45 5.962 5.237 8.9 1.65-.05 3.313-.088 4.975-.125.4-.8 1.213-2.375 1.613-3.175-2.05-5.438-5.5-10.175-7.9-15.438-.425-8.975 1.887-18 .637-26.925m92.163.188c5.637 7.687 12.462 14.4 18.2 22 19.287 35.1 39.55 69.7 59.312 104.55 3.025 5.262 6.6 10.3 8.65 16.05.288 4.225-.137 8.475-.287 12.7-10.1-18.125-20.563-36.075-31.238-53.875-2.062.4-4.1.85-6.137 1.337.05 2.163-.1 4.475 1.287 6.3 11.55 19.738 22.725 39.7 34.588 59.25-7.088-9.137-15.25-17.5-21.313-27.387-12.712-22.663-26.6-44.688-38.65-67.713-1.537-.45-3.125-.537-4.687-.687-1.288 2.425-2.2 5.537-.163 7.862 4.925 7.638 7.138 16.813 13.05 23.838-10.987.025-21.887 1.925-32.887 1.325-14.913-25.738-29.875-51.463-44.075-77.6 10.025-.075 20.05-.025 30.075-.025 3.062 1.937.887 5.975 1.212 8.925 2.575-.1 5.15-.163 7.738-.238 1.637 2.925 2.7 6.3 5.187 8.663 1.763.287 3.563.175 5.35.187 2.075-7.662-5.437-12.862-7.037-19.675.325-8.612.8-17.225 1.825-25.787m91.237-.088c5.713 8.35 13.388 15.175 18.963 23.625 11.05 20.463 22.937 40.463 34.212 60.788 9.863 15.812 18.388 32.412 28.063 48.337 1.65 2.85 3.337 5.713 4.512 8.8.525 4.738.188 9.525.063 14.288-9.163-18.938-20.138-36.963-29.663-55.725-2.125.075-4.225.175-6.325.288.013 2.25-.475 4.687.65 6.775 10.788 20.012 21.763 39.9 32.538 59.925-5.85-8.163-12.938-15.363-18.525-23.675-12.063-21.513-24.813-42.625-36.938-64.088-1.662-2.387-2.137-6.65-5.725-6.662-3.425.25-4.612 4.662-2.687 7.162 4.55 7.95 7.775 16.55 12.662 24.325-10.887.762-21.775 1.963-32.7 1.288-14.137-25.963-29.675-51.2-43.437-77.363 10.575-.1 21.175-.2 31.762.063-.312 2.912-.675 5.825-.987 8.737 2.687.013 5.4-.025 8.1-.125 1.312 2.488 2.55 5.013 4.062 7.388.988 2.237 3.925 1.2 5.825 1.537.45-.9 1.363-2.7 1.825-3.6-2.25-4.875-5.125-9.425-7.587-14.175-1.388-2.087-.5-4.588-.438-6.875.45-7.025.563-14.1 1.775-21.037m97.638 9.537c4.762 4.188 9.25 8.8 13.3 13.675 8.637 16.15 18 31.888 26.925 47.875 7.65 13.925 16.337 27.25 23.937 41.2 4.725 8.8 9.988 17.313 14.763 26.075 2.15 3.3.512 7.237-.738 10.525-9.15-16.425-18.875-32.525-28.2-48.85-1.987.287-4.312-.325-6.012.887-1.4 2.525.112 5.35 1.387 7.588 9.588 16.662 19.425 33.162 28.925 49.875-5.725-5.9-12.975-10.613-16.862-18.038a18452.342 18452.342 0 0 0-39.413-68c-2.125.35-5.387 1.013-5.487 3.663.525 4.875 4.187 8.525 5.975 12.937 2.125 5.425 5.012 10.513 8.4 15.25-11.388.925-22.838 1.725-34.25 1.213-10.413-18.788-21.488-37.2-31.9-56-3.963-7.063-8.313-13.95-11.538-21.4 9.938-.075 19.888.087 29.825-.063-1.05 2.975-2.162 5.938-2.9 9 4.088.1 8.175.05 12.263-.3 2.025 2.8 3.7 5.825 5.737 8.638a33.75 33.75 0 0 0 5.738.187c1.812-7.162-4.925-11.925-6.7-18.225 1.687-6.087 4.462-11.85 6.825-17.712m40.675 18.212c70.275-.162 140.537-.075 210.812-.05 2.138 3.5 5.35 6.6 6.3 10.663-1.887 5.887-9.037 8.75-14.8 8.812-59.2.038-118.4.175-177.587-.075-4.413-.75-9.013 1.55-13.163.725-3.725-6.762-7.225-13.675-11.562-20.075m26.9 34.075c8.4-.937 16.887-1.187 25.35-1.075H815c23.175.063 46.462-.187 69.462 3.225 20.25 3.213 40.588 8.075 58.688 18.025-10.638 18.763-21.388 37.45-32.025 56.213-1.438 1.975-2.138 4.987-4.875 5.5-49.35.162-98.7-.163-148.05.15 1.112-4.4-.188-8.575-2.713-12.2A232.932 232.932 0 0 1 785 356.237c35.912-.187 71.85.65 107.737-.675-35.175-.637-70.425-3.037-105.112-9.112-1.763-.125-2.175-2.188-3.075-3.35-3.85-6.925-7.463-13.988-10.888-21.125-12.5.637-24.975 1.725-37.5 1.525-5.287-8.463-9.9-17.325-14.825-25.988-1.912-3.037-.037-6.787 2.063-9.175m-56.813 74.488c11.688.85 23.625-.763 35.125 1.612 1.1 2.475 2.288 4.925 3.388 7.413-12.85.137-25.7-.175-38.5-1.038.012-2.662 0-5.325-.013-7.987m-364.462 3.725c11.625-.1 23.25-.025 34.875.413a84.33 84.33 0 0 0 2.9 3.5c-12.525.925-25.088.475-37.638.587-.05-1.512-.087-3.012-.137-4.5m90.5-.075c12.137.05 24.262-.025 36.387.575.225 1.225.475 2.45.713 3.675-12.325-.075-24.65-.125-36.975.038a476.925 476.925 0 0 0-.125-4.288m91.537-.037c11.75.062 23.488.1 35.238.512a125.52 125.52 0 0 0 1.8 3.7c-12.313.175-24.625-.175-36.925.113l-.113-4.325m90.4.325c12.3-.463 24.6-.263 36.9.312.338 1.2.688 2.388 1.05 3.588-12.625-.05-25.237.075-37.85-.025-.037-1.3-.062-2.588-.1-3.875z" fill="#fdfdfd" stroke="#fdfdfd" stroke-width=".1175"/><path d="M125.988 0h5.325c5.612 3.3 9.8 8.512 14.875 12.537 2.525 1.613 2.587 4.65 2.537 7.325-.025 63.013 0 126.025-.025 189.038.088 2.288-.163 5.112 2.212 6.375 10.688 7.675 21.15 15.662 31.863 23.313 1.45-17.288 2.612-34.588 4.175-51.863 7.8 6.863 13.762 15.45 20.65 23.175 7.375 8.075 13.95 16.837 21.225 25 3.212 3.412 5.188 7.7 7.262 11.85 12.238.025 24.463-.013 36.7 0 2.075-20.288 2.8-40.725 5.425-60.95 14.2 17.325 28.988 34.175 43.363 51.35 2.175 3.012 3.663 6.437 5.487 9.662 11.85-.237 23.713.163 35.563-.175.35-.437 1.037-1.337 1.388-1.775 1.937-19.825 2.762-39.775 5.175-59.537 13.625 17.662 29.025 33.9 42.9 51.375 2.487 3.112 3.812 7.037 6.587 9.937 12.175.275 24.362.05 36.55.088 1.037-17.725 2.675-35.413 4.037-53.113a51.221 51.221 0 0 1 1.025-7.55c10.613 12.3 21.075 24.7 31.588 37.088 6.075 7.55 13.625 14.187 17.012 23.55 12.338.112 24.688.012 37.038.062 2.112-20.275 3.262-40.625 4.963-60.937 11.362 13.075 22.624 26.25 33.9 39.4 4.537 5.512 9.737 10.612 12.95 17.075 1.137 1.75 2.112 4.575 4.65 4.425 12.124.125 24.25-.063 36.387.075 6.15-13.5 11.563-27.375 18.388-40.55 9.075 10.587 19.437 19.975 29.1 30 2.562 2.687 3.825 6.275 5.375 9.575 73.6-.088 147.2-.075 220.8 0 13.162 21.062 26.975 41.712 40.062 62.812v.875c-13.275 22.875-26.3 45.888-39.237 68.95-52.688.1-105.388-.137-158.075.125-3.238 12.15-7.438 24.038-10.288 36.288-11.125-10.925-21.95-22.15-32.962-33.175-1.263-1.113-2.513-2.663-4.375-2.488-13.925-.787-27.888-.412-41.825-.412.137 14.962-.65 29.925-.138 44.887-.213 4.563-.75 9.113-1.05 13.675-3.188-5.237-7.287-9.825-11.238-14.487-8.937-11.1-18.137-21.988-27.062-33.1-.613.562-1.837 1.7-2.45 2.275.725-.975 1.462-1.95 2.2-2.913-3.375-3.437-5.85-7.837-9.8-10.65-13.813-.625-27.675-.187-41.5-.187-.375 19.612-.225 39.237-.838 58.837-14.962-18.712-30.387-37.05-45.437-55.7-1.287-1.425-2.537-3.475-4.775-3.1-13.375-.262-26.775-.075-40.162-.112-.125 19.437-.075 38.875-.863 58.3-16.1-18.65-31.037-38.288-47-57.063-1.037-1.362-2.825-1.125-4.325-1.225-12.912-.075-25.825.025-38.725-.087-.562 19.65-.225 39.325-.812 58.962-14.863-18.487-30.288-36.512-44.975-55.162-1.525-1.613-2.913-4.05-5.488-3.675-13.2-.038-26.4-.125-39.588.087.075 19.413-.675 38.813-.825 58.238-16.275-19.175-32.037-38.775-47.837-58.338-18.15.175-36.288.688-54.45.5-4.375-.462-7.238 3.338-10.375 5.713-12.15 10.762-24.925 20.812-37.063 31.612-3.387 2.288-2.262 6.663-2.462 10.125.137 57.963-.1 115.938.075 173.9-.225 2.725.425 6.063-2.013 8.025-5.112 5.05-10.737 9.563-16.074 14.363h-3.838c-1.475-1.675-3.137-3.2-4.3-5.1-20.325-39.1-40.5-78.3-60.862-117.388-.825-1.5-1.25-3.162-1.175-4.862-.013-120.888.012-241.775-.025-362.663.125-4-.6-8.337 1.562-11.962a83497.785 83497.785 0 0 1 54.838-104.85c2.725-5.388 5.1-11.05 9.1-15.675m7.125 12.525c.312 198.887-.025 397.775.275 596.662 3.162-2.825 8.325-5.275 7.287-10.337.013-95.863.075-191.738-.187-287.6-.025-97.475.012-194.95-.038-292.425-2.462-2.088-4.875-4.225-7.337-6.3M71.225 121.262c-3.637 6.025-2.237 13.313-2.5 19.988 0 64.162-.012 128.337 0 192.5.7 53.362.025 106.725.325 160.087.475 4.75 3.963 8.425 5.875 12.65a10437.721 10437.721 0 0 1 31.313 61.188c5.937 11.35 11.137 23.1 17.65 34.125.275-76.425.012-152.875.125-229.313-1.388-21.625-.5-43.325-.75-64.987-.025-95.113.062-190.225-.038-285.338-17.612 32.888-34.587 66.113-52 99.1M193.313 226.3c-.75 7.9-.975 15.9-3.013 23.612 1.413 4.563 3.963 8.713 6.325 12.838-5.262.675-10.662.075-15.837 1.487.037-5.525.85-10.987 1.262-16.475-9.2-6.225-17.85-13.212-26.975-19.537 3.45 54.412 8.5 108.725 12.063 163.125 9.312-5.588 16.525-14.1 25.462-20.2 18.988-.5 38.025.262 57.025-.463-1.312-1.2-2.5-2.537-3.912-3.6-7.063-1.65-14.65.913-21.463-1.35-2.612-4.262-4.075-9.15-6.462-13.55-3.063-5.637-4.525-12.1-8.525-17.2l1.762-2.925c5 .263 9.988-.162 14.975-.525-.9-2.337-1.987-4.6-3.3-6.725-3.575-5.462-5.225-11.912-8.837-17.362-1.575-2.125-1.675-4.738-1.15-7.225 1.662-.488 3.337-.9 5.05-1.25 13.662 24 27.525 47.925 41.537 71.737 6.588 8.713 13.288 17.425 20.688 25.475-12.763-20.262-24.75-41-37.425-61.312-1.388-2.713-3.9-5.35-3.113-8.638 1.388-1.775 3.563-2.125 5.688-1.95 1.925 1.713 3.162 4.025 4.487 6.2 10.338 16.825 20.4 33.825 30.725 50.663-.137-4.05.05-8.113-.187-12.15-1.1-4.475-4.125-8.125-6.263-12.125-19.75-34.663-40.05-69-59.312-103.938-1.85-4.162-4.713-7.725-7.763-11.062-4.887-4.85-8.75-10.6-13.512-15.575m91.2.262c-.188 8.975-1.713 17.9-1.513 26.875 2.375 4.888 5.675 9.313 7.775 14.35.238 1.475-.712 2.813-1.1 4.188-1.737.025-3.462.05-5.2.087-1.812-3.037-3.675-6.05-5.5-9.087-2.4.425-4.787.925-7.112 1.625-.138-3.4.725-6.925-.4-10.225-10.075.237-20.163.112-30.238.137 1.975 5.725 5.438 10.75 8.313 16.025 11.425 20.638 23.7 40.775 34.85 61.563 10.7.025 21.475-.025 32.1-1.475-2.438-4.675-5.425-9.088-7.113-14.125-1.425-4.188-4.212-7.688-6.275-11.55-1.162-2.588 1.025-4.75 3.163-5.838 4.325-.087 4.837 5.175 6.837 7.975 11.513 19.363 22.725 38.913 34 58.425 5.388 9.875 13.313 17.988 20.263 26.738-11.45-18.963-22.625-38.1-33.988-57.125-2.675-3.825 2.075-8.875 5.838-5.675 4.562 6.45 7.975 13.662 12.375 20.25 6.337 10.9 13.225 21.512 19 32.737-.125-5.162 1.075-10.5-.188-15.537-8.587-15.813-17.95-31.2-26.65-46.95-14.3-23.475-27.45-47.65-40.9-71.613-5.825-7.487-12.45-14.325-18.337-21.775m90.275-.15c1.25 8.925-1.063 17.95-.638 26.925 2.4 5.263 5.85 10 7.9 15.438-.4.8-1.212 2.375-1.612 3.175-1.663.037-3.325.075-4.975.125-1.788-2.938-3.488-5.938-5.238-8.9-2.537.112-5.062.212-7.587.275.187-2.988.337-5.975.5-8.963-10.55.1-21.113 0-31.663 0 4.563 9.775 10.888 18.588 15.625 28.288 9.5 16.712 19.288 33.25 28.663 50.037 10.775-1.4 21.712-.712 32.487-2.175-4.175-5.137-6.45-11.412-9.287-17.325-1.913-4.187-5.525-7.9-4.85-12.837 1.925-.55 3.9-1 5.9-1.263 3.762 7.625 7.85 15.125 12.45 22.288 5.325 8.487 9.8 17.462 15.1 25.962 6.7 11.113 12.25 23.05 20.85 32.888 4.45 5.15 8.625 10.537 12.912 15.85-11.775-20.725-24.387-40.975-36.387-61.588-3.188-4.375 4.762-8.937 7.087-4.1 10.075 16.913 20.25 33.788 30.063 50.863-.2-4.788.337-9.7-.513-14.413-9.462-16.737-19.275-33.275-28.637-50.075-10.875-17.562-20.4-35.912-30.875-53.712-4.088-6.45-6.438-14.038-11.95-19.513-5.263-5.612-9.713-11.962-15.325-17.25m92.162.188c-1.025 8.562-1.5 17.175-1.825 25.787 1.6 6.813 9.113 12.013 7.038 19.675-1.788-.012-3.588.1-5.35-.187-2.488-2.363-3.55-5.738-5.188-8.663-2.587.075-5.162.138-7.737.238-.325-2.95 1.85-6.988-1.213-8.925-10.025 0-20.05-.05-30.075.025 14.2 26.137 29.163 51.862 44.075 77.6 11 .6 21.9-1.3 32.888-1.325-5.913-7.025-8.125-16.2-13.05-23.838-2.038-2.325-1.125-5.437.162-7.862 1.563.15 3.15.237 4.688.687 12.05 23.025 25.937 45.05 38.65 67.713 6.062 9.887 14.225 18.25 21.312 27.387-11.862-19.55-23.037-39.512-34.587-59.25-1.388-1.825-1.238-4.137-1.288-6.3 2.038-.487 4.075-.937 6.138-1.337 10.675 17.8 21.137 35.75 31.237 53.875.15-4.225.575-8.475.288-12.7-2.05-5.75-5.625-10.788-8.65-16.05C524.7 318.3 504.438 283.7 485.15 248.6c-5.737-7.6-12.562-14.313-18.2-22m91.238-.088c-1.213 6.938-1.325 14.013-1.775 21.038-.063 2.287-.95 4.787.437 6.875 2.463 4.75 5.338 9.3 7.588 14.175-.463.9-1.375 2.7-1.825 3.6-1.9-.338-4.838.7-5.825-1.538-1.513-2.375-2.75-4.9-4.063-7.387-2.7.1-5.412.138-8.1.125.313-2.913.675-5.825.988-8.738-10.588-.262-21.188-.162-31.763-.062 13.763 26.162 29.3 51.4 43.438 77.362 10.925.675 21.812-.525 32.7-1.287-4.888-7.775-8.113-16.375-12.663-24.325-1.925-2.5-.737-6.913 2.688-7.163 3.587.013 4.062 4.275 5.725 6.663 12.125 21.462 24.875 42.575 36.937 64.087 5.588 8.313 12.675 15.513 18.525 23.675-10.775-20.025-21.75-39.912-32.537-59.925-1.125-2.087-.638-4.525-.65-6.775 2.1-.112 4.2-.212 6.325-.287 9.525 18.762 20.5 36.788 29.662 55.725.125-4.763.463-9.55-.062-14.287-1.175-3.088-2.863-5.95-4.513-8.8-9.675-15.925-18.2-32.525-28.062-48.338C600.088 290.6 588.2 270.6 577.15 250.137c-5.575-8.45-13.25-15.275-18.962-23.625m97.637 9.538c-2.362 5.862-5.137 11.625-6.825 17.712 1.775 6.3 8.513 11.063 6.7 18.225-1.925.1-3.85.038-5.737-.187-2.038-2.813-3.713-5.838-5.738-8.638-4.087.35-8.175.4-12.262.3.737-3.062 1.85-6.025 2.9-9-9.938.15-19.888-.012-29.825.063 3.225 7.45 7.575 14.337 11.537 21.4 10.413 18.8 21.488 37.212 31.9 56 11.413.512 22.863-.288 34.25-1.213-3.387-4.737-6.275-9.825-8.4-15.25-1.787-4.412-5.45-8.062-5.975-12.937.1-2.65 3.363-3.313 5.488-3.663a18452.342 18452.342 0 0 1 39.412 68c3.888 7.425 11.138 12.138 16.863 18.038-9.5-16.712-19.338-33.212-28.925-49.875-1.275-2.237-2.788-5.063-1.388-7.588 1.7-1.212 4.025-.6 6.013-.887 9.325 16.325 19.05 32.425 28.2 48.85 1.25-3.287 2.887-7.225.737-10.525-4.775-8.762-10.037-17.275-14.762-26.075-7.6-13.95-16.288-27.275-23.938-41.2-8.925-15.987-18.287-31.725-26.925-47.875a122.697 122.697 0 0 0-13.3-13.675m40.675 18.212c4.338 6.4 7.838 13.313 11.563 20.076 4.15.825 8.75-1.475 13.162-.725 59.188.25 118.388.112 177.588.075 5.762-.063 12.912-2.925 14.8-8.813-.95-4.063-4.163-7.163-6.3-10.662-70.275-.025-140.538-.113-210.813.05m26.9 34.075c-2.1 2.387-3.975 6.137-2.062 9.175 4.925 8.662 9.537 17.525 14.825 25.987 12.525.2 25-.887 37.5-1.525 3.425 7.138 7.037 14.2 10.887 21.125.9 1.163 1.313 3.225 3.075 3.35 34.688 6.075 69.938 8.475 105.113 9.113-35.888 1.325-71.825.487-107.738.675-9.862.025-19.737.662-29.512 1.937 2.525 3.625 3.825 7.8 2.712 12.2 49.35-.312 98.7.013 148.05-.15 2.738-.512 3.438-3.525 4.875-5.5 10.638-18.762 21.388-37.45 32.025-56.212-18.1-9.95-38.437-14.813-58.687-18.025-23-3.413-46.288-3.163-69.463-3.225h-66.25c-8.462-.113-16.95.137-25.35 1.075m-56.812 74.487c.012 2.663.025 5.325.012 7.988 12.8.862 25.65 1.175 38.5 1.037-1.1-2.487-2.287-4.937-3.387-7.412-11.5-2.375-23.438-.763-35.125-1.613m-364.463 3.725c.05 1.488.088 2.988.138 4.5 12.55-.112 25.112.338 37.637-.587a84.33 84.33 0 0 1-2.9-3.5c-11.625-.438-23.25-.513-34.875-.413m90.5-.075c.05 1.425.088 2.85.125 4.288 12.325-.163 24.65-.113 36.975-.038-.237-1.225-.487-2.45-.712-3.675-12.125-.6-24.25-.525-36.388-.575m91.538-.037l.112 4.325c12.3-.288 24.613.062 36.925-.113a125.52 125.52 0 0 1-1.8-3.7c-11.75-.412-23.487-.45-35.237-.512m90.4.325c.037 1.287.062 2.575.1 3.875 12.612.1 25.225-.025 37.85.025-.363-1.2-.713-2.388-1.05-3.588-12.3-.575-24.6-.775-36.9-.312z" fill="#030102" stroke="#030102" stroke-width=".1175"/></g></svg>