<svg xmlns="http://www.w3.org/2000/svg" width="1677.5" height="1373.75" viewBox="0 0 1677.5 1373.75"><g stroke-width=".094" stroke-miterlimit="10"><path d="M670.263 86.5c105.212-32.525 219.825-33.8 325.762-3.775 81.125 22.887 156.95 64.112 220.413 119.55 86.774 75.387 150.162 177.362 178.724 288.75 27.65 106.9 23.788 221.775-11.375 326.463-27.95 83.724-75.75 160.687-138.15 223.087-41.312 41.325-88.862 76.513-140.762 103.413 70.1-44.076 128.962-105.8 169.65-177.913 22.7-40.15 39.8-83.475 50.6-128.325 26.437-109.175 15.087-227.213-32.613-329-32.2-69.3-80.575-130.988-140.075-178.925-66.1-53.462-146.05-89.662-229.912-103.75-99.188-16.9-203.438-3.412-294.675 39.138-94.75 43.725-175 117.937-226.138 208.875-46.625 82.225-68.85 177.912-63.675 272.262 4.438 89.775 33.913 178.125 84.188 252.638 35.925 53.512 82.287 99.95 135.662 136.087-67.1-37.5-126.2-89.075-173.137-149.887-52.625-68.138-89.638-148.288-107.088-232.613-13.087-62.862-15.525-127.912-7.312-191.6 10.2-79.837 37.65-157.387 79.85-225.925 42.4-69.088 99.587-129.012 166.587-174.625 47.088-32.1 99-57.15 153.475-73.925m63.325 20.25c-105.112 19.975-203.75 71.813-280.25 146.563-59.262 57.662-105.425 128.737-133.662 206.462-22.313 61.188-33.525 126.375-33.125 191.488.25 96.925 26.637 193.725 76.15 277.075-23.138-43.65-40.713-90.3-51.263-138.6-25.275-113.95-12.687-236.05 36.238-342.1 30.25-66.063 74.037-125.863 127.775-174.763 47.6-43.412 103-78.262 162.8-102.237 93.5-37.7 197.637-48.025 296.825-30.288 84.15 14.888 164.512 50.388 232.362 102.325 56.15 42.875 103.838 96.8 139.413 157.838 29.412 50.337 50.562 105.487 62.287 162.6 21.488 104.162 11.75 214.687-28.512 313.187 14.45-30.725 25.25-63.125 33.437-96.05 26.95-109.887 19.35-228.063-22.2-333.35-24.875-63.375-61.687-122.025-107.837-172.075-54.125-58.837-121.163-105.775-195.075-136.3-99.013-41.15-210.138-52.038-315.363-31.775m27.775 62.537c-96.6 13.988-188.662 56.95-261.737 121.613-58.113 51.175-104.413 115.725-133.988 187.313-23.562 56.762-36.525 117.862-38.3 179.275-.4 9.137.163 18.3-.537 27.425.412-2.7.8-5.4.95-8.113 3.187-68.625 20.5-136.55 50.55-198.337 30.675-63.275 74.6-120.063 128.012-165.788 68.3-58.7 152.338-98.925 240.988-114.887 101.025-18.463 207.575-5.988 301.287 36.175 71.5 31.95 135.413 80.612 185.363 140.9 45.337 54.637 79.387 118.737 98.487 187.15-1.012-6.838-2.95-13.488-4.637-20.175-18.188-68.763-51.188-133.538-95.938-188.813-48.475-60.062-110.75-108.925-180.7-141.562-89.675-42.15-191.837-56.663-289.8-42.175m44.3 76.725c93.888-6.85 189.675 14.887 271.15 62.112 67.35 38.763 124.925 94.288 166.138 160.163 35.912 57.2 59.362 122.162 68.187 189.125 12.875 95.85-4.025 195.575-48.662 281.437-38.675 75.062-97.775 139.412-169.213 184.425-78.025 49.525-170.812 75.187-263.187 73.112-74.275-1.3-148.175-20.387-213.725-55.362-70.025-37.163-130.45-92.175-174.1-158.338-51.1-76.95-78.725-169.112-78.575-261.475-.325-88.487 24.787-176.9 71.762-251.925C478.75 399.7 540.312 341.6 612.337 302.462c59.4-32.4 125.825-51.8 193.325-56.45m2.588 20.025c-48.325 3.738-95.95 16.4-139.7 37.263-33.613 15.95-64.825 36.775-92.775 61.3-25.113 18.712-48.4 39.9-69.1 63.4-53.95 60.862-90.613 136.887-104.275 217.075-16.563 95.15-1.125 195.662 44.1 281.087 38.825 74.075 99.15 136.675 171.725 178.25 67.737 39.075 146.062 59.388 224.25 58.475 89.537-.562 178.6-29.337 251.487-81.362 67.95-48.125 121.913-115.763 153.463-192.85 41.9-101.325 43.95-218.35 5.787-321.125-27.262-74.288-75.162-140.688-136.55-190.55-41.475-40-91.525-71.163-146-90.063-51.912-18.162-107.612-25.15-162.412-20.9M690.187 336.45c41.825-29.25 92.488-45.65 143.538-46.3 44.237-.9 88.662 9.85 127.575 30.95 43.962 23.675 80.8 60.362 104.675 104.225 28.887 52.412 38.175 114.925 26.95 173.625 2.825-40.975-3.788-82.663-20.2-120.375-19.45-45.225-52.35-84.513-93.388-111.7-37.862-25.25-82.612-40.025-128.075-42.188-47.487-2.537-95.625 8.55-137.125 31.788-40.487 22.487-74.625 56.237-97.612 96.437-23.675 41.1-35.35 88.95-33.488 136.338.125 3.087.25 6.175.238 9.275-9.225-50.588-4.05-103.925 16.462-151.2 19-44.45 50.75-83.3 90.45-110.875m78.525 28.687c45.825-15.187 96.525-15.1 142.3.238 40.575 13.462 77.05 38.837 103.925 72.05 27.725 34.012 45.15 76.262 49.338 119.95 2.612 25.212.475 50.75-4.988 75.45 2.9-44.513-7.212-89.95-30.162-128.325-22.313-37.813-56.163-68.688-95.913-87.338-41.55-19.687-89.337-25.612-134.487-17.112-42.525 7.887-82.463 28.812-113.275 59.125-30.375 29.625-51.9 68.225-60.963 109.687-4.812 20.913-5.725 42.475-4.912 63.85-5.363-25.137-7.55-51.05-4.725-76.662 4.525-44.575 22.887-87.563 51.8-121.75 26.775-31.888 62.5-56.175 102.062-69.163m-4.125 79.588c41.938-18.463 90.725-20.588 134.163-6.025 39.412 13.037 74.087 39.712 96.95 74.337 24.487 36.613 35.125 82.05 29.8 125.738-1.8 15.375-5.613 30.487-11.075 44.975 8.987-45.05.125-93.425-24.888-132.025-22.125-34.7-56.512-61.4-95.687-74.05-44.075-14.463-93.725-10.963-135.238 9.775-37.525 18.462-68.15 50.475-84.912 88.787-12.9 29.013-17.463 61.438-14.075 92.938-13.163-45.1-8.813-95.088 12.537-137 19.438-38.688 52.7-70.2 92.425-87.45m-230.4 176.5c-2.9-64.788 15.7-130.25 52.188-183.863-25.275 45.163-38.388 97.063-37.05 148.838.962 48.075 14.175 95.85 38.137 137.537 22.163 38.763 53.388 72.275 90.475 97.125 33.95 22.838 72.813 38.338 113.175 45.063 51.563 8.675 105.488 3.287 154.175-15.85 66.113-25.663 121.9-76.588 153.613-140.013 35.012-68.912 40.425-151.975 15.075-224.962-5.638-16.575-13.025-32.5-21.413-47.85 22.038 32.587 37.825 69.412 45.9 107.925 9.6 45.412 8.738 92.987-2.55 138.012-16.6 67.038-57.012 127.75-112.15 169.275-28.837 21.85-61.587 38.525-96.237 48.9-49.713 14.95-103.225 16.888-153.9 5.75-41.963-9.187-81.875-27.45-116.313-53.112-34.837-25.875-64.087-59.25-85.15-97.2-23.037-41.388-36.162-88.238-37.975-135.575M481.7 678.687c-3.55-75.812 18.075-152.5 60.762-215.275-22.512 43.738-35.412 92.425-36.912 141.613-2 55.362 10.075 111.187 35.025 160.675 34.687 69.437 94.45 125.912 165.787 156.512 79.913 34.8 173.588 36.15 254.513 3.813 75.012-29.513 138.287-87.413 174.487-159.413 33.75-66.237 43.913-143.937 29.038-216.725-6.063-30.1-16.525-59.25-30.513-86.562 43.7 64.187 65.263 142.962 60.55 220.45-3.362 61.587-23.225 122.15-56.937 173.8-28.138 43.312-65.788 80.387-109.513 107.862-67.15 42.55-148.825 61.175-227.8 52.575-76.912-7.9-150.7-42.037-206.787-95.212-31.2-29.4-57.075-64.45-75.9-102.975-21.538-43.888-33.788-92.288-35.8-141.138m721.875-177.512c34.75 62.725 52.662 134.612 51.512 206.325-.812 88.675-31.287 176.712-85.4 246.962-48.487 63.5-115.612 112.6-190.95 139.238-66.2 23.587-138.425 29.775-207.725 18.262-76.412-12.512-148.925-47.237-206.812-98.612-61.375-54.125-106.288-126.7-126.85-205.925-26.863-101.7-13.413-213.512 37.725-305.538-21.1 48.2-32.913 100.5-33.775 153.138-1.175 53.113 8.4 106.438 28.137 155.762 28.538 71.813 78.638 134.788 142 178.988 61.95 43.525 136.613 68.687 212.288 71.387 70.075 2.913 140.85-13.087 202.725-46.162 66.7-35.388 122.875-90.2 159.975-155.963 25.612-45.212 42.162-95.5 48.412-147.075 8.85-71.387-2.05-145.05-31.262-210.787m-383.45 4.712c45.462-5.487 92.85 10.1 126.112 41.575 32.55 30.1 51.388 74.375 50.2 118.725-.487 44.45-21.112 88.05-54.875 116.888 15.925-16.713 28.175-37.025 34.613-59.263 12.862-42.8 4.012-91.412-23.4-126.75-27.988-37.225-75.088-58.975-121.588-55.8-44.362 2.163-86.712 26.875-110.85 64.1-23.987 36-29.875 83.163-15.762 124.025 8.7 25.825 25.162 48.813 46.387 65.838-35.412-23.1-60.7-61.088-68.337-102.675-8.163-42.325 1.975-87.8 27.562-122.525 25.6-35.438 66.438-59.438 109.938-64.138m-2.788 78.263c21.925-3.887 44.95-1.538 65.6 6.837 22.825 9.175 42.625 25.625 55.9 46.338 13.6 21.025 20.225 46.425 18.713 71.425-1.663 34.15-19.125 66.962-46.2 87.762 13.425-13.187 23.537-29.825 28.425-48.037 6-21.888 4.712-45.713-3.738-66.788-8.45-21.325-24.112-39.675-43.812-51.425-18.925-11.412-41.55-16.537-63.55-14.475-20.188 1.75-39.775 9.575-55.638 22.163-16.825 13.225-29.487 31.687-35.637 52.187-7.8 25.613-5.388 54.2 6.812 78.05 5.275 10.563 12.513 20.038 20.863 28.35-16.013-12.437-28.875-28.925-36.825-47.587-9.825-22.775-12.163-48.638-6.825-72.838 4.95-22.725 16.812-43.862 33.525-60.025 16.987-16.55 39.012-27.875 62.387-31.937m-2.487 69.1c18.775-5.825 39.687-4.313 57.425 4.175 18.125 8.55 32.762 24.225 40 42.925 7.637 19.337 7.2 41.687-1.175 60.725-4.25 9.875-10.688 18.712-18.375 26.2 9.975-13.863 14.725-31.475 12.437-48.45-2.175-18.113-12.175-35.05-26.875-45.825-13.375-9.975-30.537-14.625-47.125-12.813-18.475 1.788-35.912 11.75-46.975 26.638-10.575 13.937-15.3 32.112-12.9 49.45 1.375 11.162 5.9 21.75 12.3 30.95-12.387-11.938-21.1-27.75-23.825-44.788-3.262-19 .75-39.137 11.075-55.412 10.013-16.038 25.925-28.275 44.013-33.775M800.9 733.4c9.3-12.35 25-19.513 40.437-18.35 19.288 1.025 36.9 15.287 41.975 33.925 5.15 17.15-.825 36.625-14.225 48.375 5.563-9.7 6.575-21.925 2.138-32.25-6.013-14.925-22.925-24.363-38.788-21.463-15.462 2.25-28.35 15.75-29.837 31.313-.95 7.725.912 15.575 4.675 22.35-6.75-6.188-11.988-14.1-14.338-22.988-3.875-13.9-.887-29.512 7.963-40.912m33.375 36.037c11.675-3.562 24.837 5.863 25.187 18.063 1.05 10.962-8.5 21.312-19.475 21.325-10.45.475-20.137-8.425-20.487-18.875-.725-9.225 5.837-18.238 14.775-20.513z" fill="#fff" stroke="#fff" stroke-width=".1175"/><path d="M509.525 127.15c90.388-57.225 195.963-90.062 302.863-94.262 95.987-4.088 192.912 14.425 280.4 54.2 55.937 25.35 108.05 59.137 154.05 99.837 3.324 2.525 6.112 5.738 9.712 7.913.663 1 1.412 1.95 2.237 2.85 78.988 73.512 138.425 167.912 169.838 271.187 31.363 102.388 35.3 212.95 11.688 317.375-19.238 85.5-57.188 166.688-110.25 236.413-49.588 65.312-112.263 120.637-183.276 161.637-77.562 44.938-165.087 72.488-254.4 80.138-108.725 9.587-219.962-10-318.524-57.013-67.813-32.175-129.626-76.875-181.5-131.125-60.438-63.037-107.326-139.012-136.313-221.4-34.95-98.8-43.8-206.537-26.175-309.787 14.15-83.338 45.862-163.613 92.35-234.188 24.437-37.162 52.912-71.675 84.712-102.775 4.463-4.462 9.2-8.65 13.6-13.175 27.788-24.937 57.325-48 88.988-67.825M670.262 86.5c-54.474 16.775-106.387 41.825-153.474 73.925-67 45.613-124.188 105.538-166.588 174.625-42.2 68.538-69.65 146.088-79.85 225.925-8.213 63.688-5.775 128.738 7.313 191.6 17.45 84.325 54.462 164.475 107.087 232.613 46.938 60.812 106.037 112.387 173.137 149.887-53.374-36.137-99.737-82.575-135.662-136.087-50.275-74.513-79.75-162.863-84.188-252.638-5.174-94.35 17.05-190.037 63.676-272.262C452.85 383.15 533.1 308.938 627.85 265.213c91.237-42.55 195.487-56.038 294.675-39.138 83.863 14.088 163.813 50.288 229.913 103.75 59.5 47.938 107.874 109.625 140.074 178.925 47.7 101.788 59.05 219.825 32.613 329-10.8 44.85-27.9 88.175-50.6 128.325-40.688 72.113-99.55 133.838-169.65 177.913 51.9-26.9 99.45-62.088 140.762-103.413 62.4-62.4 110.2-139.362 138.15-223.087 35.163-104.688 39.026-219.563 11.376-326.463-28.563-111.387-91.95-213.362-178.725-288.75-63.463-55.437-139.288-96.662-220.413-119.55C890.088 52.7 775.475 53.975 670.263 86.5m135.4 159.513c-67.5 4.65-133.925 24.05-193.325 56.45-72.025 39.137-133.588 97.237-176.9 166.825-46.975 75.025-72.088 163.437-71.763 251.925-.15 92.362 27.475 184.525 78.575 261.475 43.65 66.162 104.075 121.175 174.1 158.337 65.55 34.975 139.45 54.063 213.725 55.363 92.375 2.075 185.163-23.588 263.188-73.113 71.437-45.012 130.537-109.362 169.212-184.425 44.638-85.862 61.538-185.587 48.663-281.437-8.825-66.963-32.275-131.925-68.188-189.125-41.212-65.875-98.787-121.4-166.137-160.163-81.475-47.225-177.263-68.962-271.15-62.112M733.588 106.75c105.225-20.262 216.35-9.375 315.362 31.775 73.913 30.525 140.95 77.463 195.075 136.3 46.15 50.05 82.963 108.7 107.838 172.075 41.55 105.288 49.15 223.463 22.2 333.35-8.188 32.925-18.988 65.325-33.438 96.05 40.263-98.5 50-209.025 28.513-313.187-11.725-57.113-32.875-112.263-62.288-162.6-35.575-61.038-83.262-114.963-139.412-157.838-67.85-51.937-148.213-87.437-232.363-102.325-99.187-17.737-203.325-7.412-296.825 30.288-59.8 23.975-115.2 58.825-162.8 102.237-53.737 48.9-97.525 108.7-127.775 174.763-48.925 106.05-61.512 228.15-36.237 342.1 10.55 48.3 28.125 94.95 51.262 138.6-49.512-83.35-75.9-180.15-76.15-277.075-.4-65.113 10.813-130.3 33.125-191.488 28.238-77.725 74.4-148.8 133.663-206.462 76.5-74.75 175.137-126.588 280.25-146.563m27.775 62.538c97.962-14.488 200.125.025 289.8 42.175 69.95 32.637 132.225 81.5 180.7 141.562 44.75 55.275 77.75 120.05 95.937 188.813 1.688 6.687 3.625 13.337 4.638 20.175-19.1-68.413-53.15-132.513-98.488-187.15-49.95-60.288-113.862-108.95-185.362-140.9-93.713-42.163-200.263-54.638-301.288-36.175-88.65 15.962-172.687 56.187-240.987 114.887C452.9 358.4 408.975 415.188 378.3 478.463c-30.05 61.787-47.362 129.712-50.55 198.337-.15 2.713-.537 5.413-.95 8.113.7-9.125.138-18.288.538-27.425 1.775-61.413 14.737-122.513 38.3-179.275 29.575-71.588 75.875-136.138 133.987-187.313 73.075-64.662 165.138-107.625 261.738-121.612m46.887 96.75c54.8-4.25 110.5 2.737 162.413 20.9 54.475 18.9 104.525 50.062 146 90.062 61.387 49.863 109.287 116.263 136.55 190.55 38.162 102.775 36.112 219.8-5.788 321.125-31.55 77.088-85.512 144.725-153.462 192.85-72.888 52.025-161.95 80.8-251.488 81.363-78.187.912-156.512-19.4-224.25-58.475-72.575-41.575-132.9-104.175-171.725-178.25-45.225-85.425-60.662-185.938-44.1-281.088C416.063 564.888 452.725 488.863 506.675 428c20.7-23.5 43.988-44.687 69.1-63.4 27.95-24.525 59.163-45.35 92.775-61.3 43.75-20.862 91.375-33.525 139.7-37.262M690.188 336.45c-39.7 27.575-71.45 66.425-90.45 110.875-20.513 47.275-25.688 100.613-16.463 151.2.013-3.1-.112-6.187-.237-9.275-1.863-47.387 9.812-95.237 33.487-136.337 22.988-40.2 57.125-73.95 97.613-96.438 41.5-23.237 89.637-34.325 137.125-31.787 45.462 2.162 90.212 16.937 128.075 42.187 41.037 27.188 73.937 66.475 93.387 111.7 16.413 37.713 23.025 79.4 20.2 120.375 11.225-58.7 1.938-121.212-26.95-173.625-23.875-43.862-60.712-80.55-104.675-104.225-38.912-21.1-83.337-31.85-127.575-30.95-51.05.65-101.712 17.05-143.537 46.3m78.525 28.688c-39.563 12.987-75.288 37.275-102.063 69.162-28.912 34.188-47.275 77.175-51.8 121.75-2.825 25.613-.637 51.525 4.725 76.663-.812-21.375.1-42.938 4.913-63.85 9.062-41.463 30.587-80.063 60.962-109.688 30.813-30.312 70.75-51.237 113.275-59.125 45.15-8.5 92.938-2.575 134.488 17.113 39.75 18.65 73.6 49.525 95.912 87.337 22.95 38.375 33.063 83.813 30.163 128.325 5.462-24.7 7.6-50.237 4.987-75.45-4.187-43.687-21.612-85.937-49.337-119.95-26.875-33.212-63.35-58.587-103.925-72.05-45.775-15.337-96.475-15.425-142.3-.237m-4.125 79.587c-39.725 17.25-72.988 48.763-92.425 87.45-21.35 41.913-25.7 91.9-12.538 137-3.387-31.5 1.175-63.925 14.075-92.937 16.763-38.313 47.388-70.325 84.913-88.788 41.512-20.737 91.162-24.237 135.237-9.775 39.175 12.65 73.563 39.35 95.688 74.05 25.012 38.6 33.875 86.975 24.887 132.025 5.463-14.487 9.275-29.6 11.075-44.975 5.325-43.687-5.312-89.125-29.8-125.737-22.862-34.625-57.537-61.3-96.95-74.338-43.437-14.562-92.225-12.437-134.162 6.025m-230.4 176.5c1.812 47.338 14.937 94.188 37.975 135.575 21.062 37.95 50.312 71.325 85.15 97.2 34.437 25.663 74.35 43.925 116.312 53.113 50.675 11.137 104.188 9.2 153.9-5.75 34.65-10.375 67.4-27.05 96.238-48.9 55.137-41.525 95.55-102.238 112.15-169.275 11.287-45.025 12.15-92.6 2.55-138.013-8.075-38.512-23.863-75.337-45.9-107.925 8.387 15.35 15.774 31.275 21.412 47.85 25.35 72.988 19.938 156.05-15.075 224.963-31.713 63.425-87.5 114.35-153.613 140.012-48.687 19.138-102.612 24.525-154.175 15.85-40.362-6.725-79.225-22.225-113.175-45.062-37.087-24.85-68.312-58.363-90.475-97.125-23.962-41.688-37.175-89.463-38.137-137.538-1.338-51.775 11.775-103.675 37.05-148.837-36.488 53.612-55.088 119.075-52.188 183.862M481.7 678.688c2.012 48.85 14.262 97.25 35.8 141.137 18.825 38.525 44.7 73.575 75.9 102.975 56.087 53.175 129.875 87.313 206.787 95.213 78.975 8.6 160.65-10.025 227.8-52.575 43.725-27.475 81.375-64.55 109.513-107.863 33.712-51.65 53.575-112.212 56.938-173.8 4.712-77.487-16.85-156.262-60.55-220.45 13.987 27.313 24.45 56.463 30.512 86.563 14.875 72.787 4.713 150.487-29.038 216.725-36.2 72-99.474 129.9-174.487 159.412-80.925 32.338-174.6 30.988-254.512-3.812-71.338-30.6-131.1-87.075-165.788-156.513-24.95-49.487-37.025-105.312-35.025-160.675 1.5-49.187 14.4-97.875 36.913-141.612-42.688 62.775-64.313 139.462-60.763 215.275m721.875-177.513c29.213 65.738 40.113 139.4 31.263 210.788-6.25 51.575-22.8 101.862-48.413 147.075-37.1 65.762-93.275 120.575-159.975 155.962-61.875 33.075-132.65 49.075-202.725 46.163-75.675-2.7-150.337-27.863-212.287-71.388-63.363-44.2-113.463-107.175-142-178.987-19.738-49.325-29.313-102.65-28.138-155.763.863-52.637 12.675-104.937 33.775-153.137-51.137 92.025-64.587 203.837-37.725 305.537 20.563 79.225 65.475 151.8 126.85 205.925 57.888 51.375 130.4 86.1 206.813 98.613 69.3 11.512 141.525 5.325 207.725-18.263 75.337-26.637 142.462-75.737 190.95-139.237 54.112-70.25 84.587-158.288 85.4-246.963 1.15-71.712-16.763-143.6-51.513-206.325m-383.45 4.713c-43.5 4.7-84.337 28.7-109.937 64.137-25.588 34.725-35.725 80.2-27.563 122.525 7.638 41.588 32.925 79.575 68.338 102.675-21.225-17.025-37.688-40.012-46.388-65.837-14.112-40.863-8.225-88.025 15.763-124.025 24.137-37.225 66.487-61.938 110.85-64.1 46.5-3.175 93.6 18.575 121.587 55.8 27.413 35.337 36.263 83.95 23.4 126.75-6.437 22.237-18.687 42.55-34.612 59.262 33.762-28.837 54.387-72.437 54.875-116.887 1.187-44.35-17.65-88.625-50.2-118.725-33.263-31.475-80.65-47.063-126.113-41.575m-2.787 78.262c-23.375 4.063-45.4 15.388-62.388 31.938-16.712 16.162-28.575 37.3-33.525 60.025-5.337 24.2-3 50.062 6.825 72.837 7.95 18.663 20.813 35.15 36.825 47.588-8.35-8.313-15.587-17.788-20.862-28.35-12.2-23.85-14.613-52.438-6.813-78.05 6.15-20.5 18.813-38.963 35.638-52.188 15.862-12.587 35.45-20.412 55.637-22.162 22-2.063 44.625 3.062 63.55 14.475 19.7 11.75 35.363 30.1 43.813 51.425 8.45 21.075 9.737 44.9 3.737 66.787-4.887 18.213-15 34.85-28.425 48.038 27.075-20.8 44.538-53.613 46.2-87.763 1.513-25-5.112-50.4-18.712-71.425-13.275-20.712-33.075-37.162-55.9-46.337-20.65-8.375-43.675-10.725-65.6-6.838m-2.488 69.1c-18.087 5.5-34 17.738-44.012 33.775-10.325 16.275-14.338 36.413-11.075 55.413 2.725 17.037 11.437 32.85 23.825 44.787-6.4-9.2-10.925-19.787-12.3-30.95-2.4-17.337 2.325-35.512 12.9-49.45 11.062-14.887 28.5-24.85 46.975-26.637 16.587-1.813 33.75 2.837 47.125 12.812 14.7 10.775 24.7 27.713 26.875 45.825 2.287 16.975-2.463 34.588-12.438 48.45 7.688-7.487 14.125-16.325 18.375-26.2 8.375-19.037 8.813-41.387 1.175-60.725-7.237-18.7-21.875-34.375-40-42.925-17.737-8.487-38.65-10-57.425-4.175M800.9 733.4c-8.85 11.4-11.837 27.013-7.962 40.913 2.35 8.887 7.587 16.8 14.337 22.987-3.762-6.775-5.625-14.625-4.675-22.35 1.488-15.562 14.375-29.062 29.838-31.312 15.862-2.9 32.775 6.537 38.787 21.462 4.438 10.325 3.425 22.55-2.137 32.25 13.4-11.75 19.375-31.225 14.225-48.375-5.075-18.637-22.688-32.9-41.975-33.925-15.438-1.162-31.138 6-40.438 18.35m33.375 36.038c-8.937 2.275-15.5 11.287-14.775 20.512.35 10.45 10.038 19.35 20.488 18.875 10.975-.012 20.525-10.362 19.475-21.325-.35-12.2-13.513-21.625-25.188-18.062z" stroke="#000" stroke-width=".1175"/><path d="M368.237 244.325c16.55-17.325 33.625-34.3 52.3-49.35-4.4 4.525-9.137 8.713-13.6 13.175-31.8 31.1-60.275 65.613-84.712 102.775-46.488 70.575-78.2 150.85-92.35 234.188C212.25 648.363 221.1 756.1 256.05 854.9c28.988 82.388 75.875 158.363 136.313 221.4 51.875 54.25 113.687 98.95 181.5 131.125 98.562 47.013 209.8 66.6 318.524 57.013 89.313-7.65 176.838-35.2 254.4-80.138 71.013-41 133.688-96.325 183.275-161.637 53.063-69.725 91.013-150.913 110.25-236.413 23.613-104.425 19.676-214.987-11.687-317.375-31.412-103.275-90.85-197.675-169.838-271.187l.488-.05c23.25 19.325 44.5 41.025 64.525 63.65 66.85 76.075 115.45 168.1 140.225 266.325 26.725 105.35 26.325 217.45-1.137 322.612-21.713 83.438-60.563 162.325-113.275 230.538-54.726 70.987-124.35 130.437-203.1 173.237-88.063 48.075-187.538 74.875-287.8 77.838-99.326 3.225-199.376-16.7-289.65-58.325-60.888-27.963-117.338-65.513-166.726-110.8-64.537-59.05-116.937-131.313-152.85-211.088-38.587-85.375-57.9-179.287-56.65-272.937.813-71 13.375-141.875 37.263-208.763 29.775-83.675 77.225-160.962 138.137-225.6z" fill="#0052ff" stroke="#0052ff" stroke-width=".1175"/></g></svg>