<svg xmlns="http://www.w3.org/2000/svg" width="1612.677" height="542.699" viewBox="0 0 1612.6771 542.69897"><g stroke-width=".094" stroke-miterlimit="10"><path d="M736.47 5.187c33.35-.35 66.7-.2 100.05-.4 2.287-.112 4.625.338 6.525 1.713 15.387 9.85 30.85 19.575 46.175 29.512-50.075.238-100.163.275-150.238.45-40.725.875-81.487.55-122.225.7 16.5-10.7 33.3-20.962 49.863-31.525 23.262-.612 46.562-.087 69.85-.45m-17.338 6.688c-.062 4.675-.137 9.35.05 14.025-.35 2.2 2.738 3.062 3.8 1.175.263-2.5.175-5.025.2-7.538h8.638c.025 2.375-.113 4.75.187 7.125.4 2.475 4.388 1.5 3.825-.937-.237-5.475.888-11.338-.637-16.588-4.688-1.625-3.088 4.763-3.413 7.325-2.862 0-5.712 0-8.562.013-.063-2.413-.038-4.85-.375-7.238-2.163-1.162-4.225.188-3.713 2.638m21.413-2.025c-.363 5.862-.813 11.975.225 17.75 4.475 2.2 3.512-4.35 3.575-7 3.062-.225 6.512.375 9.187-1.5 3.313-2.5 2.225-8.788-2.025-9.575-3.6-.375-7.525-.963-10.962.325m18.487-.95c-.537 6.225-.225 12.487-.262 18.725 1.3.112 2.812.775 3.825-.463.287-2.537.187-5.087.225-7.637 2.875.012 5.75.012 8.637.012.363 2.75-1.55 9.875 3.363 8.225 1.562-5.975.387-12.575.55-18.775-5.075-1.275-3.775 4.338-3.95 7.475-2.863 0-5.725 0-8.563.013-.05-2.338-.037-4.7-.362-7.013-.863-.137-2.6-.425-3.463-.562m22.888 1.15c-3.725 1.875-2.738 7.775 1.287 8.562 2.7 1.475 7.925.588 7.938 4.75-1.888 2.588-6.438 2.775-7.925-.312-.725-1.6-3.375-3.425-4.038-.775.538 8.475 17.188 7.625 15.738-1.288-1.3-5.762-9.988-2.862-11.788-7.712.488-.388 1.475-1.15 1.975-1.525 4.2-2.313 5.2 4.675 8.963 3 .712-6.275-8.1-7.1-12.15-4.7m-37.625 1.837c2.637.238 7.775-.487 7.037 3.725-1.1 2.775-4.7 1.775-7 2.225-.025-1.987-.05-3.975-.037-5.95M613.107 42.762c93.563-.537 187.138-.525 280.713-.962a309.959 309.959 0 0 0-2.913 4.15c-90.687.2-181.362.662-272.05.85-2.912.725-4.225-2.225-5.75-4.038m102.3 19.138c25.7-2.075 51.313-5.125 77.013-7.175a6299.093 6299.093 0 0 1-9.175 15.475c-2.538-.25-5.05-.525-7.55-.775.237 3.037.375 6.087.55 9.137 2.1-1.075 3.937-3.075 6.387-3.237 3.563.525 7.138 1.137 10.738 1.462-4.413 4.213-7.95 9.4-13.138 12.738-17.587 11.85-34.625 24.475-52.025 36.575-2.187 1.425-4.937.75-7.375 1.012 8.45-6.525 17.188-12.65 25.588-19.25 2.175-1.05.837-5.937-1.588-4.175-10.675 7.5-20.925 15.625-31.5 23.288 4.788-4.55 9.15-9.613 14.438-13.625 10.487-7.513 21.1-14.863 31.462-22.538-.125-.762-.375-2.287-.487-3.05-5.538.975-9.875 5.338-14.738 8-.15-3.325-.312-6.625-.7-9.912-5.175 2.9-10.25 5.975-15.562 8.6-1.15 4.825 1.412 10.675-1.95 14.762-.863-10.825.125-21.712-.625-32.537-2.6-5.313-6.588-9.8-9.763-14.775m28.325 67.8c12.113-8.525 24.05-17.338 36.463-25.425.037 5.912 0 11.837.112 17.75l-4.775.05c.238 1.325.488 2.675.75 4.012-2.625 1.788-5.462 3.675-4.075 7.375 3.413-.887 5.9-3.55 9.063-4.925 4-.037 7.987.563 11.987.85-4.325 4.25-7.95 9.3-13.087 12.65-17.363 11.688-34.15 24.188-51.325 36.138-2.438 1.85-5.65.85-8.45.987 8.037-5.487 15.762-11.425 23.612-17.175 2.1-1.2 2.3-3.925-.025-5.1-10.337 6.763-20.25 14.275-29.9 22 4.788-4.475 8.925-9.725 14.375-13.45 9.825-6.887 19.488-14.025 29.313-20.925 2.487-.925 1.175-3.45.187-5.025-4.437 2.95-9.237 5.338-13.487 8.563-.4-6.113-.613-12.238-.738-18.35m-18.15 10h2c-.487 7.625 1.363 15.675-1.5 22.962-.712-7.637-.5-15.3-.5-22.962m18.35 42.187c12.125-8.6 24.388-17.037 36.45-25.725-.037 6.163-.025 12.325.025 18.488-1.05-.063-3.162-.2-4.212-.275.025 1.45.05 2.9.1 4.35-2.675 1.675-5.288 3.637-3.988 7.25 3.075-1 5.638-3.013 8.413-4.613 4.175-.65 8.462.263 12.675.525-3.888 3.85-7.2 8.338-11.638 11.6-17.825 12.163-35.275 24.85-52.925 37.275-2.162 1.625-5.05.888-7.537 1.188 8.037-6.413 16.7-12.013 24.687-18.475-.3-.975-.912-2.938-1.212-3.913-10.688 6.463-20.275 14.6-30.488 21.8 4.975-5.1 9.7-10.575 15.7-14.512 9.975-6.875 19.513-14.363 29.675-20.963-.337-.975-1.025-2.912-1.362-3.887-4.563 2.837-9.325 5.375-13.663 8.55a309.927 309.927 0 0 1-.7-18.663m-18.112 10.15c.487-.062 1.462-.162 1.962-.225-.125 6.738.225 13.488-.3 20.213l-1.362 1.862c-.438-7.275-.125-14.575-.3-21.85m18.212 42.525c12.1-8.55 24.025-17.35 36.45-25.412 0 6.012.1 12.037-.037 18.05-1.025-.038-3.075-.125-4.1-.163.012 1.425.037 2.863.075 4.313-2.538 1.5-5.038 3.387-4.238 6.775 3.638-.3 6.163-3.088 9.325-4.5 4.05-.113 8.075.45 12.1.875-4.037 3.75-7.325 8.312-11.787 11.587-17.813 12.163-35.35 24.725-52.963 37.15-2.275 1.75-5.287.95-7.912 1.113 8.237-6.2 16.987-11.738 25.012-18.213-.1-1-.312-3-.412-4-1.838.65-3.588 1.475-5.125 2.638-8.488 6.187-17.138 12.137-25.563 18.412 4.325-4.062 8.163-8.687 12.925-12.262 10.313-7.238 20.413-14.788 30.838-21.863 2.512-.825.237-5.85-2.013-3.487-4.012 2.412-8.062 4.787-11.862 7.537-.125-6.2-.763-12.362-.713-18.55m-18.05 10.175c.488-.025 1.463-.062 1.95-.075-.05 6.013.05 12.038-.125 18.063.075 1.412-.762 2.587-1.525 3.687-.5-7.212-.112-14.45-.3-21.675m18.3 42.063c12.213-8.225 23.975-17.125 36.338-25.15.012 6.037.112 12.075-.038 18.112a464.066 464.066 0 0 0-4.162-.225c.037 1.088.125 3.263.162 4.35-2.075 1.5-5.175 2.7-4.175 5.9 3.175 2.25 6.15-2.687 9.138-3.8 4.087.275 8.187.55 12.275 1.038-4.313 3.975-7.8 8.85-12.688 12.162-17.337 11.788-34.275 24.163-51.437 36.2-2.463 2.075-5.838 1.388-8.775 1.513 8.762-5.638 17.3-11.613 26.025-17.3l-.225-4.075c-1.675.462-3.4.837-4.813 1.887-8.412 5.65-16.8 11.325-25.237 16.938 3.137-3.375 6.25-6.8 9.85-9.688 11.012-8.037 22.262-15.775 33.237-23.85-.162-.65-.487-1.962-.65-2.612l-1.287-.65c-4.438 2.475-8.825 5.075-12.888 8.137-.337-6.3-.812-12.587-.65-18.887m-580.35 16.525c-6-6.45-10.525-14.088-13.775-22.25 5.125 4.687 12.213 5.1 18.788 4.775-1.663 5.825-3.288 11.662-5.013 17.475m562.438-5.85l1.45-1.35c.375 7.625.425 15.3-.2 22.912-2.038-1.775-1.288-4.612-1.438-6.95.15-4.875-.375-9.787.188-14.612m18.087 42.012c12.063-8.5 23.925-17.275 36.3-25.312.05 5.712 0 11.412.088 17.125-1.425-.575-2.838-1.15-4.238-1.713.013 2.438.038 4.875.088 7.325-1.338 1.038-2.663 2.075-3.988 3.113-.025.987-.087 2.95-.125 3.937 3.325-.5 5.775-2.85 8.663-4.337 2.912.925 5.587 2.487 8.325 3.862-2.613 3.3-5.088 6.863-8.688 9.163-17.162 11.55-33.725 23.937-50.712 35.725-1.613 1.425-3.825 1.237-5.788 1.125 6.625-6.725 15.4-11.05 22.588-17.225a459.325 459.325 0 0 1-.038-4.15c-1.975.625-3.85 1.462-5.5 2.712-7.187 5.175-14.375 10.363-21.6 15.475 2.625-3.387 4.888-7.212 8.488-9.7 10.7-7.587 21.375-15.187 31.987-22.887-.8-.938-.625-3.413-2.35-2.975-4.487 2.362-8.75 5.175-12.9 8.087-.362-6.45-.75-12.9-.6-19.35m-18.25 10.425c.913-.037 2.738-.087 3.65-.112-.15 6.725.238 13.475-.5 20.187-.887.488-2.662 1.475-3.55 1.963-.075-7.35.038-14.7.4-22.038m45.125 23.963c3.313-2.175 6.588-4.425 9.725-6.85.138 40.475.25 80.95.338 121.425-1.738 1.575-3.588 3.087-5.813 3.925-1.825-2.725-3.525-5.75-3.312-9.15-.125-31.625-.163-63.25-.275-94.875-.025-4.838.35-9.713-.663-14.475m-22.75 15.987c4.313-3.05 8.513-6.275 13.063-8.975 1.137.25 2.275.588 3.4 1.013 1.1 15.85.337 31.75.662 47.625.075 26.737.75 54.512-9.7 79.675-9.587-6.875-19.7-13.113-28.912-20.463-.638-28.512-.138-57.075-.525-85.6a35.645 35.645 0 0 0 5.837-1.662c1.325 15.15.713 30.375.863 45.575-.125 10.912.4 21.837-.15 32.75 1.575-20.338 1.75-40.788 4.812-60.988 3.725-2.487 7.5-4.912 11.313-7.287-.1-7.225-.738-14.438-.663-21.663m455.575 70.238c.975.875 1.138 1.962.5 3.287-2.95 2.438-3.95-3.537-.5-3.287z" fill="#fff" stroke="#fff" stroke-width=".1175"/><path d="M668.87.512C725.582.3 782.295.075 839.007.087c2.863-.287 5.163 1.663 7.5 2.988 16.788 10.812 33.675 21.487 50.525 32.2 1.325 1.175 3.613 2.175 3.4 4.312-1.875 4.088-5.012 7.425-7.625 11.05-31.125.6-62.287-.112-93.387.638-4.213 6.212-7.838 12.825-11.6 19.325 8.237.912 16.487 1.562 24.725 2.375-9.425 9.7-18.263 20.2-28.525 28.937-.338 6.863.025 13.75-.063 20.638 9.538 1.125 19.138 1.637 28.65 2.975-7.312 7.725-14.7 15.375-22 23.112-1.925 2.075-4.225 3.725-6.562 5.288-.013 6.975.05 13.95.012 20.937 9.575 1.513 19.3 1.788 28.9 3.138-9.812 9.3-18.025 20.312-28.775 28.612 0 7.038.013 14.088.088 21.125 9.575.775 19.137 1.625 28.675 2.725-7.1 7.663-14.463 15.088-21.575 22.75-2.063 2.25-4.5 4.088-7.038 5.763-.025 7.025.025 14.062.075 21.1 9.525 1.137 19.113 1.85 28.675 2.75-7.175 7.712-14.412 15.35-21.662 22.987-2.025 2.2-4.463 3.95-6.925 5.625-.063 7.388.037 14.775.025 22.175 6.362 3.45 12.85 6.688 19.037 10.463-6.437 6.475-10.7 15.2-18.475 20.212.113 42.288.25 84.575.338 126.863-9.588 8.187-19.825 15.562-29.438 23.712-11.087-7.487-21.937-15.312-33.05-22.762-.05-30.375-.05-60.75-.3-91.125-5.687-2.025-11.362-4.088-17.062-6.063 5.387-6.85 11.425-13.225 16.35-20.412 1.137-8.313.325-16.763.487-25.125-9.162-.238-18.337.237-27.462-.55 8.462-8.025 16.375-16.613 24.762-24.725 1.1-1.313 2.888-2.5 2.775-4.425.275-7.6.038-15.213 0-22.813-9.225-.125-18.462-.125-27.687-.362 8.537-8.513 16.937-17.163 25.487-25.663.888-1.075 2.325-2.1 2.113-3.687.162-7.6-.013-15.213.012-22.813-9.375.025-18.762-.412-28.137-.225 8.437-7.962 16.412-16.425 24.7-24.562 1.275-1.525 3.475-2.788 3.3-5.05.137-7.55-.038-15.1.025-22.638-9.2-.287-18.4-.087-27.6-.4 8.362-8.762 16.962-17.312 25.525-25.887.837-1 2.087-2 1.9-3.475.125-7.525-.025-15.075-.038-22.6-9.162-.013-18.312-.338-27.475-.463 9-9.387 18.225-18.525 27.438-27.7-.163-10.2-.363-20.387-.325-30.587.287-3.175-1.975-5.6-3.613-8.025-4.8-6.525-9.1-13.4-13.95-19.875-.987-2.038-3.425-1.463-5.237-1.575-26.225.187-52.45.087-78.688.287-1.875-.037-3.775.075-5.6-.325-2.925-3.1-5.337-6.662-7.6-10.25-.75-2.412 1.425-3.887 3.113-5.087 17.537-11.288 35.187-22.425 52.712-33.725A8.739 8.739 0 0 1 668.87.512m67.6 4.675c-23.288.363-46.588-.162-69.85.45-16.563 10.563-33.363 20.825-49.863 31.525 40.738-.15 81.5.175 122.225-.7 50.075-.175 100.163-.212 150.238-.45-15.325-9.937-30.788-19.662-46.175-29.512-1.9-1.375-4.238-1.825-6.525-1.713-33.35.2-66.7.05-100.05.4M613.107 42.762c1.525 1.813 2.838 4.763 5.75 4.038 90.688-.188 181.363-.65 272.05-.85a309.959 309.959 0 0 1 2.913-4.15c-93.575.437-187.15.425-280.713.962m102.3 19.138c3.175 4.975 7.163 9.462 9.763 14.775.75 10.825-.238 21.712.625 32.537 3.362-4.087.8-9.937 1.95-14.762 5.312-2.625 10.387-5.7 15.562-8.6.388 3.287.55 6.587.7 9.912 4.863-2.662 9.2-7.025 14.738-8 .112.763.362 2.288.487 3.05-10.362 7.675-20.975 15.025-31.462 22.538-5.288 4.012-9.65 9.075-14.438 13.625 10.575-7.663 20.825-15.788 31.5-23.288 2.425-1.762 3.763 3.125 1.588 4.175-8.4 6.6-17.138 12.725-25.588 19.25 2.438-.262 5.188.413 7.375-1.012 17.4-12.1 34.438-24.725 52.025-36.575 5.188-3.338 8.725-8.525 13.138-12.738-3.6-.325-7.175-.937-10.738-1.462-2.45.162-4.287 2.162-6.387 3.237-.175-3.05-.313-6.1-.55-9.137 2.5.25 5.012.525 7.55.775 3.062-5.15 6.125-10.313 9.175-15.475-25.7 2.05-51.313 5.1-77.013 7.175m28.325 67.8c.125 6.112.338 12.237.738 18.35 4.25-3.225 9.05-5.613 13.487-8.563.988 1.575 2.3 4.1-.187 5.025-9.825 6.9-19.488 14.038-29.313 20.925-5.45 3.725-9.587 8.975-14.375 13.45 9.65-7.725 19.563-15.237 29.9-22 2.325 1.175 2.125 3.9.025 5.1-7.85 5.75-15.575 11.688-23.612 17.175 2.8-.137 6.012.863 8.45-.987 17.175-11.95 33.962-24.45 51.325-36.138 5.137-3.35 8.762-8.4 13.087-12.65-4-.287-7.987-.887-11.987-.85-3.163 1.375-5.65 4.038-9.063 4.925-1.387-3.7 1.45-5.587 4.075-7.375a249.319 249.319 0 0 1-.75-4.012l4.775-.05c-.112-5.913-.075-11.838-.112-17.75-12.413 8.087-24.35 16.9-36.463 25.425m-18.15 10c0 7.662-.212 15.325.5 22.962 2.863-7.287 1.013-15.337 1.5-22.962h-2m18.35 42.187c.038 6.225.288 12.45.7 18.663 4.338-3.175 9.1-5.713 13.663-8.55.337.975 1.025 2.912 1.362 3.887-10.162 6.6-19.7 14.088-29.675 20.963-6 3.937-10.725 9.412-15.7 14.512 10.213-7.2 19.8-15.337 30.488-21.8.3.975.912 2.938 1.212 3.913-7.987 6.462-16.65 12.062-24.687 18.475 2.487-.3 5.375.437 7.537-1.188 17.65-12.425 35.1-25.112 52.925-37.275 4.438-3.262 7.75-7.75 11.638-11.6-4.213-.262-8.5-1.175-12.675-.525-2.775 1.6-5.338 3.613-8.413 4.613-1.3-3.613 1.313-5.575 3.988-7.25-.05-1.45-.075-2.9-.1-4.35 1.05.075 3.162.212 4.212.275-.05-6.163-.062-12.325-.025-18.488-12.062 8.688-24.325 17.125-36.45 25.725m-18.112 10.15c.175 7.275-.138 14.575.3 21.85l1.362-1.862c.525-6.725.175-13.475.3-20.213-.5.063-1.475.163-1.962.225m18.212 42.525c-.05 6.188.588 12.35.713 18.55 3.8-2.75 7.85-5.125 11.862-7.537 2.25-2.363 4.525 2.662 2.013 3.487-10.425 7.075-20.525 14.625-30.838 21.863-4.762 3.575-8.6 8.2-12.925 12.262 8.425-6.275 17.075-12.225 25.563-18.412 1.537-1.163 3.287-1.988 5.125-2.638.1 1 .312 3 .412 4-8.025 6.475-16.775 12.013-25.012 18.213 2.625-.163 5.637.637 7.912-1.113 17.613-12.425 35.15-24.987 52.963-37.15 4.462-3.275 7.75-7.837 11.787-11.587-4.025-.425-8.05-.988-12.1-.875-3.162 1.412-5.687 4.2-9.325 4.5-.8-3.388 1.7-5.275 4.238-6.775-.038-1.45-.063-2.888-.075-4.313 1.025.038 3.075.125 4.1.163.137-6.013.037-12.038.037-18.05-12.425 8.062-24.35 16.862-36.45 25.412m-18.05 10.175c.188 7.225-.2 14.463.3 21.675.763-1.1 1.6-2.275 1.525-3.687.175-6.025.075-12.05.125-18.063-.487.013-1.462.05-1.95.075m18.3 42.063c-.162 6.3.313 12.587.65 18.887 4.063-3.062 8.45-5.662 12.888-8.137l1.287.65c.163.65.488 1.962.65 2.612-10.975 8.075-22.225 15.813-33.237 23.85-3.6 2.888-6.713 6.313-9.85 9.688 8.437-5.613 16.825-11.288 25.237-16.938 1.413-1.05 3.138-1.425 4.813-1.887l.225 4.075c-8.725 5.687-17.263 11.662-26.025 17.3 2.937-.125 6.312.562 8.775-1.513 17.162-12.037 34.1-24.412 51.437-36.2 4.888-3.312 8.375-8.187 12.688-12.162-4.088-.488-8.188-.763-12.275-1.038-2.988 1.113-5.963 6.05-9.138 3.8-1-3.2 2.1-4.4 4.175-5.9-.037-1.087-.125-3.262-.162-4.35 1.037.05 3.125.163 4.162.225.15-6.037.05-12.075.038-18.112-12.363 8.025-24.125 16.925-36.338 25.15m-17.912 10.675c-.563 4.825-.038 9.737-.188 14.612.15 2.338-.6 5.175 1.438 6.95.625-7.612.575-15.287.2-22.912l-1.45 1.35m18.087 42.012c-.15 6.45.238 12.9.6 19.35 4.15-2.912 8.413-5.725 12.9-8.087 1.725-.438 1.55 2.037 2.35 2.975-10.612 7.7-21.287 15.3-31.987 22.887-3.6 2.488-5.863 6.313-8.488 9.7 7.225-5.112 14.413-10.3 21.6-15.475 1.65-1.25 3.525-2.087 5.5-2.712 0 1.037.025 3.112.038 4.15-7.188 6.175-15.963 10.5-22.588 17.225 1.963.112 4.175.3 5.788-1.125 16.987-11.788 33.55-24.175 50.712-35.725 3.6-2.3 6.075-5.863 8.688-9.163-2.738-1.375-5.413-2.937-8.325-3.862-2.888 1.487-5.338 3.837-8.663 4.337.038-.987.1-2.95.125-3.937 1.325-1.038 2.65-2.075 3.988-3.113-.05-2.45-.075-4.887-.088-7.325 1.4.563 2.813 1.138 4.238 1.713-.088-5.713-.038-11.413-.088-17.125-12.375 8.037-24.237 16.812-36.3 25.312m-18.25 10.425c-.362 7.338-.475 14.688-.4 22.038.888-.488 2.663-1.475 3.55-1.963.738-6.712.35-13.462.5-20.187-.912.025-2.737.075-3.65.112m45.125 23.963c1.013 4.762.638 9.637.663 14.475.112 31.625.15 63.25.275 94.875-.213 3.4 1.487 6.425 3.312 9.15 2.225-.838 4.075-2.35 5.813-3.925-.088-40.475-.2-80.95-.338-121.425-3.137 2.425-6.412 4.675-9.725 6.85m-22.75 15.987c-.075 7.225.563 14.438.663 21.663a425.215 425.215 0 0 0-11.313 7.287c-3.062 20.2-3.237 40.65-4.812 60.988.55-10.913.025-21.838.15-32.75-.15-15.2.462-30.425-.863-45.575a35.645 35.645 0 0 1-5.837 1.662c.387 28.525-.113 57.088.525 85.6 9.212 7.35 19.325 13.588 28.912 20.463 10.45-25.163 9.775-52.938 9.7-79.675-.325-15.875.438-31.775-.662-47.625a24.522 24.522 0 0 0-3.4-1.013c-4.55 2.7-8.75 5.925-13.063 8.975m-29.45-377.987c-.512-2.45 1.55-3.8 3.713-2.638.337 2.388.312 4.825.375 7.238 2.85-.013 5.7-.013 8.562-.013.325-2.562-1.275-8.95 3.413-7.325 1.525 5.25.4 11.113.637 16.588.563 2.437-3.425 3.412-3.825.937-.3-2.375-.162-4.75-.187-7.125h-8.638c-.025 2.513.063 5.038-.2 7.538-1.062 1.887-4.15 1.025-3.8-1.175-.187-4.675-.112-9.35-.05-14.025m21.413-2.025c3.437-1.288 7.362-.7 10.962-.325 4.25.787 5.338 7.075 2.025 9.575-2.675 1.875-6.125 1.275-9.187 1.5-.063 2.65.9 9.2-3.575 7-1.038-5.775-.588-11.888-.225-17.75m3.75 2.037c-.013 1.975.012 3.963.037 5.95 2.3-.45 5.9.55 7-2.225.738-4.212-4.4-3.487-7.037-3.725M759.032 8.9c.863.137 2.6.425 3.463.562.325 2.313.312 4.675.362 7.013 2.838-.013 5.7-.013 8.563-.013.175-3.137-1.125-8.75 3.95-7.475-.163 6.2 1.012 12.8-.55 18.775-4.913 1.65-3-5.475-3.363-8.225-2.887 0-5.762 0-8.637-.012-.038 2.55.062 5.1-.225 7.637-1.013 1.238-2.525.575-3.825.463.037-6.238-.275-12.5.262-18.725m22.888 1.15c4.05-2.4 12.862-1.575 12.15 4.7-3.763 1.675-4.763-5.313-8.963-3-.5.375-1.487 1.137-1.975 1.525 1.8 4.85 10.488 1.95 11.788 7.712 1.45 8.913-15.2 9.763-15.738 1.288.663-2.65 3.313-.825 4.038.775 1.487 3.087 6.037 2.9 7.925.312-.013-4.162-5.238-3.275-7.938-4.75-4.025-.787-5.012-6.687-1.287-8.562m133.925 94.212c22.037-2.662 45.2 1.063 64.35 12.6 17.737 10.7 32.712 26.738 40.275 46.2 6.712 17.425 7.462 36.963 2.9 55.013-5.988 23.362-22.588 43.2-43.263 55.212-20.35 11.825-44.925 15.075-67.987 11.538-34.65-5.3-65.788-31.163-75.988-64.875-6.925-24-3.937-51.175 9.788-72.263 15.475-23.737 41.675-40.312 69.925-43.425m.775 7.9c-24.388 2.7-47.013 16.388-61.475 36.1-19.8 26.838-19.513 66.588.537 93.225 13.338 18.063 33.45 31.275 55.688 35.138 22.062 3.812 45.825.962 65.3-10.55 19.175-11.313 34.525-30.025 39.487-51.963 3.6-16.012 2.775-33.175-3.225-48.512-6.85-17.413-20.262-31.725-36.05-41.475-17.85-11.013-39.612-14.488-60.262-11.963m-2.25 19.325c17.55-3.3 36.562-1.175 52.075 8.05 14.312 8.513 25.95 22.163 30.425 38.363 3.175 10.812 2.412 22.375-.075 33.237-5.088 20-21.088 36.113-39.85 43.95-19.45 7.6-42.375 7.075-61-2.662-11.213-6.1-20.975-15.063-27.725-25.913-10.325-16.95-11.25-39.05-3.188-57.087 9.2-19.475 28.238-33.863 49.338-37.938m2.612 7.6c-16.475 2.813-31.437 12.825-40.787 26.613-8.888 13.137-10.7 30.325-6.263 45.387 3.9 13.125 13.613 23.75 24.725 31.35 14.325 9.65 32.7 11.825 49.388 8.338 15.975-3.338 30.137-13.7 38.937-27.338 6.638-10.3 8.525-22.937 7.838-34.987-1.725-17.8-13.563-33.425-28.763-42.25-13.462-7.9-29.85-9.688-45.075-7.113m3.65 18.725c11.15-2.387 23.413-.912 33.038 5.475 9.725 6.225 16.625 16.975 17.387 28.6.275 9.963-2.412 20.438-9.325 27.9-12.15 14-33.862 17.613-50.362 9.725-9.738-4.675-17.563-13.45-20.475-23.912-2.725-10-1.625-21.238 3.925-30.1 5.675-9.125 15.375-15.425 25.812-17.688m2.613 7.563c-9.588 1.825-18.65 7.812-23 16.7-5.025 10.562-3.338 24.162 4.662 32.812 12.25 14.038 36.275 14.25 49.338 1.238 4.925-4.663 7.937-11.138 8.512-17.875 2.013-11-4-22.225-13.162-28.15-7.638-5.188-17.4-6.4-26.35-4.725m-753.013.462c18.65-10.212 42.188-10.512 61.35-1.45 22.113 10.85 37.8 32.475 44.55 55.838 2.325-5.113 6.388-9.8 12.075-11.075 6.05-1.275 12.288-.425 18.425-.663 3.488-8.775 13.575-13.362 22.575-10.925 5.875 1.125 10.213 5.713 12.713 10.925h57.012c3.95-9.45 10.313-18.25 19.3-23.462 11.675-6.813 27.488-5.1 37.575 3.85 17.1 15.05 21.325 40.912 14.313 61.937-3.413 9.625-9.413 18.675-18.013 24.388-12.575 8.237-30.75 6.712-41.625-3.725-5.137-4.7-8.55-10.9-11.225-17.25-18.575.012-37.15 0-55.725.012V314.7c11.3 0 22.6.025 33.9-.013 8.925-9.737 24.525-6.675 34.363.013 7.3.5 16.037-1.85 21.925 3.775 8.187 8.3 6.275 25.187-5 29.887.775 11.175-1.1 22.85-7.288 32.375-5.862 9.563-15.987 17.075-27.512 17.338-16.788.137-33.588.012-50.388.05v33.55c14.75-.038 29.513.062 44.275-.05 3.7-4.375 9.1-7.6 15-7.088 5.413-.037 10.075 3.213 13.525 7.113 5.575-.088 11.5-.425 16.388 2.75-.113-8.738-.075-17.488-.05-26.225-.038-5.263 1.175-10.95 5.137-14.688 5.35-5.15 14.988-4.437 19.613 1.35 3.175 3.663 4.025 8.7 4.025 13.413.025 18.325 0 36.662.012 54.987 19.638 0 39.275.013 58.925 0-.012-21.7 0-43.4 0-65.1-15.1-.025-30.187.013-45.275-.012-5.812.1-11.775-2.438-15.075-7.35-4.85-7.05-5.037-16.363-3.125-24.425 1.875-7.763 8.975-13.988 17.1-13.925 15.463-.138 30.913-.013 46.375-.05 0-18.35-.012-36.713 0-55.063-15.5-.1-31 .188-46.487-.125-8.175-.487-13.363-8.837-13.063-16.475-.75-8.012 4.975-16.775 13.538-16.887 16-.188 32.012-.025 48.012-.063 2.413-4.825 6.188-9.362 11.638-10.725 5.775-1.45 12.9-2.2 17.65 2.175 3.312 2.425 3.537 6.888 5.237 10.35 5.95 2.2 12.8-1.075 18.35 2.65 2.975 1.213 3.375 4.75 3.9 7.5 1.413 6.75-.075 15-6.112 19.113-4 2.9-9.15 2.487-13.825 2.512v54.875c7.387-.662 14.812-1.25 22-3.137-3.1-11.85-9.363-24.363-4.538-36.65 3.5-10.788 18.038-15.6 27.388-9.388 5.337 3.55 7.575 9.888 9.287 15.763 6.8-14.5 8.763-30.95 7.063-46.788-2.338-17.8-10.975-35.137-25.088-46.475-10.462-8.412-24.325-13.262-37.775-11-10.575 1.55-20.037 7.263-27.875 14.3-6.587 7.463-11.575 17.325-21.4 21.088-9.7 3.187-19.662-4.375-22.687-13.388-2.35-6.8-1.55-14.575 2.012-20.812 7.925-13.988 19.038-26.4 32.95-34.613 8.788-4.325 17.488-9.225 27.288-10.912 22.075-4.6 46.025.087 64.362 13.35 14.213 9.625 24.875 23.487 33.325 38.237 10.8 22.838 16.163 48.488 13.725 73.738-2.212 26.887-12.6 53.425-31.275 73.162 9.1 31.513 18.088 63.05 27.188 94.55 10.487.075 20.975-.137 31.45.088 6.75.137 12.262 5.9 13.212 12.387 2.138 8.475-2.037 19.513-11.575 20.825-12.325.688-24.712 0-37.062.325-3.8.613-7.063 3.375-11.063 3.163-4.487.537-8.375-1.975-12.475-3.15-7.125-.313-14.275.212-21.387-.213-5.963-.4-10.863-5.287-12.088-11-1.65-6.975-.237-15.637 6-19.987 4.05-2.963 9.313-2.4 14.05-2.463-6.962-23.637-13.925-47.275-20.9-70.912-11.112 3.087-22.412 6.787-34.112 5.825-.025 21.675.037 43.337-.025 65.012 5.562-.262 11.9.988 15.05 6.1 6.537 9.363 2.9 27.125-10.375 27.525-131.238.125-262.475.013-393.713.05-4.562.2-9.312-1.55-12.075-5.287-3.012-3.863-3.375-8.963-3.512-13.663-2.338 10.288-5.675 20.325-8.4 30.525 3.637.125 7.525-.062 10.787 1.85 12.25 6.838 9.438 30.138-5.4 31.625-18.8.463-37.625.088-56.437.188-5.825.337-11.663-2.95-13.913-8.4-3.087-7.4-2.412-17.55 4.475-22.613 3.9-2.987 9.025-2.55 13.638-2.612-10.613-36.763-21.263-73.525-31.85-110.3-16.213-.013-32.425.037-48.638-.013-5.125.038-10.35-2.037-13.612-6.062-4.1-4.813-5.225-11.388-5.113-17.513.088-5.712 1.375-11.712 5.213-16.112 3.3-3.975 8.475-6.013 13.575-6.025 11.7-.075 23.4 0 35.1-.025-4.838-14.038-9.588-28.113-14.413-42.163-7.287-.05-14.587.15-21.875-.075-6.225-.225-12.112-4.025-14.85-9.625-3.475-7.212-3.5-15.837-1.25-23.412 2.238-7.413 9.488-12.85 17.288-12.588 22.512-.1 45.025-.012 67.537-.05 5.013-.15 10.3 1.175 13.938 4.825 5.687 5.475 6.912 13.975 6.275 21.513-.513 6.637-3.45 13.625-9.488 17.025-4.05 2.437-8.912 2.462-13.487 2.462 13.062 45.8 26.137 91.613 39.2 137.425 11.25-39.837 22.462-79.675 33.737-119.5-15.825-13.85-25.65-33.6-30.1-53.937-5.362-26.6-1.537-55.663 13.225-78.75 7.763-11.975 17.863-22.8 30.5-29.688m3.975 7.663c-12.175 6.462-21.75 17-28.987 28.575-12.55 20.375-15.6 45.587-11.388 68.875 4.288 20.725 14.7 40.975 31.963 53.787-14.313 50.7-28.638 101.4-42.925 152.113-16.488-58.55-33.363-116.975-49.95-175.488 6.462-.362 13.137.838 19.45-.837 6.7-2.713 7.05-11.175 6.262-17.288-.337-5.087-4.45-9.925-9.787-9.762-22.913-.2-45.825-.025-68.725-.088-3.875-.212-8.225 1-10.15 4.663-2.625 4.962-2.6 11.087-1.025 16.387 1.212 4.325 5.575 7.063 9.962 6.888 8.688.125 17.363-.038 26.038.037 6.8 19.963 13.675 39.9 20.412 59.888-15.45.025-30.9-.075-46.337.025-4.438-.2-8.825 2.537-10.075 6.9-1.488 5.025-1.563 10.75.575 15.612 1.525 3.613 5.462 5.575 9.275 5.425 18.1.075 36.2 0 54.3.025 12.337 42.7 24.737 85.363 36.987 128.088-6.162.187-12.375-.475-18.487.375-4.713 1.35-4.963 7.65-3.563 11.525 1.025 3.612 5.2 4.087 8.375 3.95 17.963-.113 35.95.137 53.913-.125 8.15.112 8.975-14.675.962-15.525-5.275-.488-10.575-.113-15.862-.2 12.125-42.713 24.2-85.438 36.475-128.113 46.862.063 93.725.013 140.587.025.013 17.088-.012 34.175.013 51.263-8.738.075-17.488-.138-26.213.062-9.025-.725-9.6 15.95-.737 16.075 8.975.275 17.962-.012 26.937.1v15.425c-46.612-.012-93.212.05-139.812-.037-2.488.15-5.313-.363-7.488 1.162-5.012 4.3-3.137 15.963 4.925 14.663 130.863 0 261.725.037 392.588-.025 7.975.812 9.05-11.925 3.212-15.138-4.687-1.262-9.637-.425-14.425-.6-.237-27.637-.025-55.3-.125-82.95 6.288-.162 12.6.375 18.875-.262 9.488-2.05 19.163-3.863 27.963-8.163 8.975 30.45 17.975 60.888 26.887 91.35-5.837.1-11.662-.187-17.487.088-8.363-.075-8.538 15.925.025 15.625 7.775.287 15.55-.088 23.337.15 4.75 3.987 11.788 4.187 16.488-.013 12.975-.225 25.95.188 38.912-.175 6.4-.137 7.413-8.525 4.788-12.962-1.375-2.6-4.55-2.775-7.113-2.725-11.487.025-22.987 0-34.475.037-10.287-35.4-20.45-70.825-30.525-106.287 18.4-17.688 29.388-42.25 32.013-67.513 3.1-24.837-1.563-50.55-13.188-72.712-7.925-15.788-20.275-29.413-35.575-38.313-18.312-10.837-41.4-12.887-61.5-6.137-16.012 5.6-30.6 15.775-40.412 29.737-4.225 6.138-9.938 12.988-7.888 20.988 1.35 6.325 8.75 12.35 15.125 8.775 8.7-5.413 12.838-15.475 20.6-21.938 10.713-8.612 24.288-14.237 38.188-13.625 16.487.75 31.85 9.525 42.525 21.85 12.887 15.213 20.287 35.063 19.875 55.05.25 19.938-5.438 40.238-18.1 55.875-2.75-7.9-4.163-16.287-7.638-23.9-3.75-7.637-16.5-5.862-19.175 1.775-1.762 4.8-1.275 10.15.163 14.975 2.4 7.913 4.675 15.863 7.025 23.8-12.375 5.675-26.3 6.3-39.7 6.688.012-24.263.012-48.538 0-72.8 5-.113 10.025.275 15.012-.225 7.45-1.038 7.6-14.863-.175-15.488-4.85-.4-9.725-.087-14.587-.175-1-3.425-1.85-7.337-4.975-9.475-3.875-2.575-9.388-2.775-13.338-.275-3.312 2.138-4.225 6.2-5.287 9.738-16.8.037-33.6.025-50.4 0-2.763.012-6.25.05-7.838 2.762-1.637 3.213-1.55 7.388.288 10.513 1.55 2.625 4.937 2.575 7.612 2.637 16.85-.037 33.7-.037 50.55-.012-.025 24.25-.012 48.512 0 72.762-17.737.025-35.462-.037-53.2.025-4.05-.187-8.387 1.813-9.912 5.763-2.013 5.087-2.025 11-.15 16.137 1.487 4.125 5.95 6.288 10.162 6.075 17.7.025 35.388-.012 53.088 0 0 27.65.012 55.288 0 82.925h-74.588c-.05-21.7.05-43.4-.05-65.087.275-4.125-2.525-8.938-7.237-8.163-4.188-.1-5.913 4.525-5.763 8.038-.137 21.737.013 43.475-.062 65.212-34.938 0-69.888.013-104.825 0-.025-5.15-.025-10.3.025-15.437 18.637.05 37.287-.05 55.925.05 2.487 3.687 6.125 7.375 11.012 6.775 4.438.062 7.45-3.5 9.763-6.8 4.212-.075 8.437.187 12.637-.175 7.888-.613 7.863-14.925.175-15.85-4.3-.475-8.625-.163-12.925-.263-2.15-3.425-5.125-7.162-9.587-7.05-4.963-.712-8.663 3.163-10.95 7.038-18.7.125-37.388.012-56.088.05.025-17.1-.062-34.2.05-51.288 19 .05 38 .038 57 .013 8.05.137 15.575-4.35 20.288-10.7 8.437-10.7 9.787-25.588 6.112-38.4 3.688-.088 8.813.637 10.7-3.438 1.825-4.225 1.675-11.575-3.837-12.8-5.513-.712-11.1-.137-16.65-.362-5.875-4.725-13.663-7.1-21.138-5.75-3.175.5-5.012 3.312-6.7 5.75-15.262.1-30.525 0-45.8.05-.062-26.063-.037-52.138-.012-78.2 22.962.012 45.925.012 68.887 0 2.2 6.675 4.975 13.425 10.038 18.487 7.9 8.163 21.225 10 31.287 5 7.788-4.087 13.163-11.737 16.363-19.75 6.55-17.737 3.425-40.062-11.038-53.075-8.437-7.575-22.112-8.512-31.387-1.912-7.863 5.487-12.888 14.162-15.55 23.212h-68.338c-.912-3.55-1.587-7.75-5.05-9.775-3.825-2.2-8.937-2.325-12.85-.262-3.737 1.95-4.737 6.325-5.787 10.037-7.488.275-15.075-.625-22.513.5-6.162 1.525-7.712 8.738-7.45 14.225-.112 5.288 2.075 11.975 8.038 12.975 7.35.775 14.762.138 22.137.338 0 26.062.013 52.125-.012 78.2-9.925.062-19.85-.15-29.775.062-8.75-.187-8.638 16.25-.113 16.388 9.963.175 19.938-.013 29.9.05v21.175c-44.2 0-88.412-.013-132.625-.013 2.438-8.587 4.838-17.187 7.425-25.725 16.875 4 35.575 1.175 49.75-9.1 18.5-13.412 30.825-34.7 34.163-57.225 3.35-22.337.75-46.275-10.9-65.962-8.2-13.838-20.05-26.163-35.2-32.188-16.25-6.387-35.388-5.787-50.888 2.463m106.15 75.737c.163 10.725-.837 21.513-3.625 31.888-5.375 20.712-17.762 39.725-35.05 52.425-13.975 10.312-32.012 14.225-49.125 11.962-.65 2.288-1.3 4.563-1.937 6.863 38.025 0 76.037-.013 114.062 0v-3.413c-8.087-.162-16.2.325-24.262-.237-8.3-1.2-12.488-10.3-11.85-17.95-.238-7.388 4.775-15.438 12.662-15.913 7.813-.375 15.638-.05 23.45-.15v-60.487c-8.275-.088-17.825 1.425-24.325-4.988M156.832 470.412c2.613-4.112 6.975-7.275 12.013-7.125 36.337-.062 72.687-.1 109.025.025-6.975-5.712-8.075-16.325-4.213-24.1 2.125-4.337 6.688-7.3 11.513-7.462 6.5-.225 13.012 0 19.525-.075-.013-11.188-.013-22.363-.013-33.55-42.387.012-84.775 0-127.175.012-6.912 24.075-13.562 48.25-20.675 72.275M924.52 172.85c8.237-1.625 17.362.375 23.5 6.275 5.275 4.8 7.875 12.212 6.862 19.262-.987 9.638-9.05 17.575-18.362 19.575-13.125 3.563-29.063-4.737-31.025-18.787-2.463-12.225 7.075-24.325 19.025-26.325m.012 11.425c-5.037 1.212-7.637 6.587-7.287 11.45-.138 8.25 8.6 15.237 16.637 12.625 8.5-1.663 9.588-12.625 6.7-19.263-2.862-5.8-10.525-6.3-16.05-4.812m-740.075-7.863c16.913-5.575 36.5-2.75 50.863 7.9 17.1 12.65 27.937 32.825 30.6 53.788 2.7 20.362-.313 42-11.038 59.775-7.375 12.237-17.95 23.1-31.375 28.5-10.787 4.437-22.862 4.912-34.187 2.575 4.812-17.35 9.712-34.688 14.487-52.05 8-.125 16.013.225 24-.138 4.388-.1 7.963-3.712 8.813-7.875 1.075-5.15 1.187-10.962-1.575-15.612-2.038-3.35-6.163-4.513-9.875-4.338-20.863.025-41.725-.062-62.575.038-3.963-.163-7.925 2.162-9.35 5.912-1.713 4.6-1.688 9.775-.55 14.525.912 3.938 4.412 7.275 8.575 7.35 6.15.363 12.325.025 18.487.125-3.95 13.763-7.862 27.55-11.875 41.3-14.337-11.012-24.512-27.187-28-44.937-4.387-22.15-2.362-46.325 9.213-66.075 7.987-13.688 20.062-25.7 35.362-30.763m-21.8 25.6c-11.962 13.913-17.2 32.4-17.212 50.525 2.562-6.837 8.825-12.4 16.387-12.412 21.15-.138 42.313-.025 63.463-.063 5.725-.2 11.675 2.05 15.162 6.738 4.9 6.412 5.325 15.075 4.113 22.762-1.138 7.125-6.125 13.95-13.4 15.613-7.113 1.287-14.4.387-21.588.65-3.35 11.9-6.7 23.787-9.95 35.712 13.713.713 27.563-4.325 37.275-14.075 16.563-15.712 23.675-39.375 21.938-61.8-1.138-20.9-10.963-41.737-28.125-54.162-10.5-7.688-24.125-10.413-36.888-8.363-12.4 1.863-23.3 9.35-31.175 18.875m1.275 101.313c1.725-5.813 3.35-11.65 5.013-17.475-6.575.325-13.663-.088-18.788-4.775 3.25 8.162 7.775 15.8 13.775 22.25m255.875-101.763c7.538-6.45 19.763-6.762 27.363-.237 16.25 13.975 16.95 41.925 1.775 56.925-7.425 7.637-20.7 8.125-28.8 1.3-4.513-3.663-7.263-8.938-9.575-14.15 7.425-.138 14.862.175 22.287-.125 4.45.025 8.413-3.338 9.338-7.65 1.25-5.288 1.25-11.325-1.613-16.1-1.9-3.025-5.625-4.213-9.025-4.163-7.087-.137-14.162.063-21.237-.05 2.05-5.8 4.675-11.7 9.487-15.75m764.538 15.225c4.562-9.162 17.825-10.612 25.362-4.425 3.888 3.188 5.363 8.4 5.225 13.288 0 21.7-.025 43.412.013 65.125.037 3.525-.325 7.2-2.063 10.35-5.262 9.987-22.012 10.55-27.737.737-2.038-3.3-2.4-7.262-2.35-11.037.012-10.45 0-20.9.012-31.35-16.712 3.3-32.1 11.675-45.262 22.312-11.875 9.45-19.663 22.763-26.538 36.038-8.6 16.625-9.887 36.087-7.962 54.412 2.362 22.375 13.662 43.025 28.712 59.438 9.675 10.687 22.663 17.6 35.8 23.137-3.487-7.962-2.425-17.9 3.8-24.212 8.65-9.088 24.288-8.725 33.175-.125-.15-7.3-.037-14.613-.075-21.913-9.737-.05-19.487.088-29.225-.05-7.412-.062-15.137-3.787-18.387-10.712-3.2-6.988-3.25-15.663.475-22.463 3.512-6.287 10.837-9.412 17.812-9.512 9.775-.163 19.55 0 29.338-.05-.013-7.288-.013-14.563 0-21.85-8.925-.013-17.838.012-26.75.012-4 .013-8.175-.675-11.488-3.037-7.975-5.475-8.437-19-.575-24.763 3.4-2.625 7.825-3.337 12.038-3.312 25 0 50 .025 75.012-.013 5.163-.15 10.838.725 14.625 4.6 7.625 7.488 4.388 22.75-6.287 25.563-7.988 1.912-16.325.55-24.45.95-.013 7.275-.013 14.562 0 21.837 18.8.15 37.6-.112 56.4-.325 3.55-31.425 16.175-61.887 36.962-85.825-1.662-7.037.075-14.837 5.275-20 5.763-6.362 14.95-8.462 23.175-6.7 41.588-28.887 99.988-31.287 143.513-5.25 41.2 24.963 68.962 70.025 74.312 117.763 9.313.487 19.7-1.788 27.975 3.7 8.525 5.612 9.925 17.437 7.063 26.525-2.05 6.912-8.375 12.012-15.438 13.112-6.487.938-13.087.3-19.6.475-2.7 22.113-9.8 43.738-21.45 62.763 12.25.012 24.5-.013 36.763.012 3.725-.025 7.612.688 10.712 2.913 8.15 5.662 7.85 19.55-.25 25.137-3.4 2.413-7.675 3.1-11.75 3.05-20.3-.012-40.612-.012-60.9 0-15.437 15.088-34.112 27.063-54.8 33.463-25.962 8.037-54.412 8.15-80.362-.038-20.513-6.45-38.988-18.437-54.288-33.425-34.412-.025-68.825.013-103.237-.012-.113 4.025 0 8.312-2 11.962-5.075 10.075-21.675 10.875-27.663 1.313-2.587-3.913-2.587-8.775-2.612-13.275-12.925.187-26.025.162-38.613-3.225-24.5-6.088-47.087-19.438-64.512-37.675-15.138-15.338-27.588-33.5-35.413-53.638-12.3-.025-24.587.038-36.887-.025-7.15.075-14.788-2.875-18.538-9.275-3.95-6.875-4.175-15.787-.887-22.962 3.187-6.788 10.775-10.4 18.037-10.475 9.875-.175 19.763.012 29.663-.063-.4-20.437 2.6-41.112 10.45-60.075 8.825-21.762 23.962-40.5 41.6-55.812 20.987-18.225 47.5-29.663 75.05-33.088m9.212 1.138c-2.062 1.387-2.325 4.05-3.075 6.212-29.137 2.463-57.362 14.513-78.925 34.313-17.925 16.262-32.825 36.525-39.987 59.862-5.875 17.825-6.775 36.763-6.363 55.4-12.1.025-24.212-.062-36.312.013-4.375.025-9.35 1.225-11.738 5.237-2.475 4.325-2.362 9.825-.787 14.45 1.812 5.05 7.437 7.238 12.45 7.15 14.2.1 28.4 0 42.6.038 6.1 17.725 15.925 34.075 28.25 48.162 17.987 21.363 42.437 37.613 69.825 43.813 14.037 3.525 28.587 2.425 42.912 2.587.138 5.075-.512 10.263.575 15.288 2 6.9 14.325 6.062 15.363-1.1.65-4.7.237-9.463.312-14.175 38.163-.05 76.325.012 114.488-.025 14.15 14.312 31.137 26.125 50.25 32.737 26.1 9.063 55.187 9 81.362.275 19.525-6.525 36.95-18.375 51.325-32.987 20.963 0 41.938-.038 62.9.012 3.225-.062 7 .038 9.45-2.462 2.25-2.65 2.425-6.825.75-9.8-1.937-2.913-5.812-2.988-8.925-3.013-16.825.038-33.662.013-50.487.025 17.337-22.575 27.075-50.375 29.337-78.637 9.038-.375 18.25.912 27.175-.813 8.2-2.237 9.775-12.587 7.475-19.6-1.475-4.612-6.3-7.2-10.912-7.362-7.913-.338-15.838-.038-23.738-.113-2.362-29.787-12.887-59.05-31.3-82.7-13.237-17.25-30.012-32.125-49.762-41.475-23.075-11.012-49.575-13.95-74.725-10.012-19.363 3.062-37.788 11.087-53.675 22.525-6.55-2.738-14.863-1.688-19.363 4.162-3.8 4.188-3.587 10.425-1.05 15.2-23.25 25.05-36.65 58.338-39.012 92.288-23.85.137-47.7.475-71.55.3 0-12.563.012-25.138-.013-37.7 9.663-.263 19.388.487 29.013-.375 5.812-.625 7.737-8.738 4.012-12.65-2.387-2.263-5.925-2.138-8.962-2.25-24.6.012-49.188.025-73.775-.013-3.35.1-7.425-.012-9.688 2.938-1.812 2.65-1.65 6.45-.012 9.162 2.1 3.163 6.3 3.125 9.7 3.2 11.15-.037 22.312-.025 33.462-.025-.025 12.575 0 25.15-.012 37.725-11.988.025-23.988-.062-35.975.025-4.413.013-9.4 1.163-11.938 5.125-2.637 4.4-2.512 10.113-.762 14.825 1.937 5.013 7.65 6.975 12.637 6.888 12.013.087 24.025-.025 36.038.025.012 26.45 0 52.9 0 79.337-2.075-.012-4.15-.012-6.188-.012-.375-6.025-5.375-10.438-11.25-10.875-21.925-1.713-43.087-10.5-60.425-23.913-12.837-10.762-22.85-24.737-30.125-39.775-10.462-21.487-12.237-46.425-7.925-69.712 2.288-12.925 8.675-24.6 15.438-35.663a90.987 90.987 0 0 1 25.55-28.237c15.612-11.238 33.775-20.088 53.275-21.113.037 13.4.012 26.8 0 40.2.037 2.888.037 6.288 2.412 8.388 4.888 3.925 14.338 1.112 13.775-6.038.088-23.3.213-46.637-.075-69.937-.112-6.463-8.687-8.375-13.3-5.325m-9.35 214.275c-8 1.375-13.075 10.712-9.712 18.15 3.3 8.512 15.137 10.762 22.237 5.687 5.613-3.775 7.15-12.112 3.55-17.762-3.212-5.363-10.2-7.425-16.075-6.075m19.95 27.9c-3.45-.25-2.45 5.725.5 3.287.638-1.325.475-2.412-.5-3.287m161.363-193.45c15.275-11.225 33.175-19.05 52-21.638 24.875-3.425 51.025.513 73.175 12.6 19.712 10.7 35.837 27.15 48.175 45.713 13.812 20.812 21.825 45.225 23.85 70.075-12.2-.013-24.375 0-36.563 0-3.562-18.288-13.237-35.263-27.325-47.463-35.275-31.487-93.337-32.762-130.012-2.95-15.775 12.55-26.8 30.688-30.863 50.425-10.362-.037-20.712-.012-31.075-.012 2.5-32.038 15-63.4 36.513-87.438 6.287 3.163 14.7 3.2 19.725-2.3 4.725-4.35 4.737-11.45 2.4-17.012m9.312 3.162c.975 7.013-.887 14.563-6.162 19.513-5.8 6.125-14.85 8-22.9 6.125-16.4 19.875-26.575 44.5-30.013 69.975 5.325.012 10.65 0 15.988 0 5.862-21.663 19.912-40.788 38.437-53.363 38.613-26.562 94.625-24.487 130.875 5.363 15.138 12.2 26.388 29.162 31.363 48 7.125 0 14.262.012 21.412 0-4.95-36.788-25.2-71.263-55.062-93.325-35.538-26.175-87.475-27.25-123.938-2.288m-462.487 26.513c8.425-11.95 28.862-12.1 37.25-.013 12.512.1 25.037-.125 37.55.1 7.262.025 14.287 5.613 14.75 13.1 1.4 8.188-4.5 16.838-12.95 17.625-12.15.675-24.363.088-36.525.288 0 .475.012 1.425.025 1.9 8.7.587 17.875-1.438 26.237 1.637 11.5 4.7 11.563 23.75-.112 28.263-8.363 2.925-17.463.987-26.125 1.55v81.662c8.825.638 18.237-1.612 26.65 1.838 10.85 4.937 10.937 22.387.425 27.8 37.712-.175 75.437-.013 113.15-.088 4.837-.075 10.037.463 13.975 3.563 7.537 5.6 7.225 18.45-.213 24-3.875 3.037-8.975 3.65-13.737 3.562-90.875-.062-181.75.063-272.613-.062-7.687.212-15.425-5.563-15.712-13.563-1.338-8.65 5.587-17.262 14.425-17.35 20.637-.262 41.3-.137 61.95-.062-10.5-5.425-10.413-22.85.425-27.8 8.412-3.45 17.812-1.2 26.662-1.838v-81.662c-6.75-.1-13.5.187-20.225-.138-5.637-.3-11.3-3.562-13.437-8.937-2.3-5.813-1.475-13.138 3.012-17.688 3.038-3.125 7.438-4.525 11.713-4.637 6.312-.15 12.625.012 18.937-.05 0-.475 0-1.425.013-1.9-10.913-.063-21.825.1-32.725-.063-5.45-.087-11.025-2.862-13.55-7.825-2.988-5.95-2.513-14.037 2.412-18.825 3.25-3.237 7.963-4.387 12.438-4.387 11.975-.025 23.95.025 35.925 0m5 7.912c-14.475.225-28.975-.312-43.438.25-6.412.125-8.175 8.975-4.087 12.95 2.087 1.938 5.125 1.95 7.812 2.038 12.713.025 25.438-.088 38.15.037 0 5.925 0 11.85-.012 17.788-9.525.162-19.075-.363-28.575.237-6.238.363-8.3 8.963-4.35 13.075 2.275 2.125 5.612 2.163 8.562 2.238 8.113.012 16.238-.038 24.375-.013.013 32.513 0 65.013 0 97.525-8.125.038-16.237-.012-24.35-.012-3.1.075-6.762.112-8.925 2.7-2.05 2.675-2.175 6.687-.525 9.6 1.675 2.737 5.188 3.2 8.125 3.25 8.563.075 17.113-.038 25.675.012v14.025c-31.05-.012-62.087.025-93.125-.025-2.95.063-6.35.025-8.525 2.338-3.15 3.512-2.6 10.662 2.438 12.175 4 1.187 8.262.625 12.4.75 85.812-.013 171.625-.038 257.437 0 4.488-.15 9.175.55 13.513-.963 5.187-1.85 5.95-10.337 1.037-12.925-2.525-1.362-5.487-1.3-8.262-1.375-49.4.075-98.8 0-148.188.025-.012-4.675-.012-9.35-.012-14.012 9.725-.263 19.487.462 29.175-.363 6.062-.7 7.5-9.212 3.575-13.062-2.238-2.063-5.488-2.063-8.325-2.138-8.138-.012-16.288.025-24.413.013 0-32.513-.025-65.025 0-97.538 9.55-.2 19.138.413 28.663-.287 6.225-.35 8.1-8.763 4.337-12.9-2.2-2.3-5.6-2.338-8.537-2.375-8.15.012-16.3.012-24.438.037-.05-5.937-.037-11.875-.025-17.812 13.163-.088 26.338-.013 39.5-.025 2.975-.063 6.513-.138 8.538-2.713 1.975-2.787 2.15-6.975.175-9.812-2.113-2.625-5.8-2.638-8.85-2.713-13.05.013-26.1.05-39.15 0-3.788-12.025-23.613-12.012-27.375 0m503.412 24.913c22.288-3.388 46.388 3.612 61.725 20.537 18.163 18.3 21.488 48.763 8.825 70.988-8.075 13.937-21.487 24.737-36.85 29.6-25.175 7.787-55 1.587-73.162-18.063-18.138-18.387-20.913-48.9-8.3-71.062 9.812-17.325 28.037-29.438 47.762-32m-3.675 8.737c-17.725 3.8-33.425 16.563-40.2 33.45-7.175 18.3-4.012 40.95 9.988 55.238 16.562 18.05 44.162 23.312 66.962 15.525 21.2-7.375 37.975-28.275 37.05-51.275.575-19.05-11.087-36.713-27.187-46.163-13.85-8.325-30.988-10.012-46.613-6.775m-1081.387 2.188c15.65.075 31.312-.125 46.962.112 3.1 3.013 7.413 3.8 11.263 5.438 6.475 3 5.6 15.662-2.5 15.487-18.563.325-37.163.025-55.738.125-.012-7.05-.012-14.112.013-21.162m7.837 8.887c0 .85 0 2.563-.012 3.413 14.375.05 28.737-.125 43.1.087a70.718 70.718 0 0 1-6.875-3.462c-12.075-.088-24.138-.013-36.213-.038m1082.1 17.513c12.3-4.288 27.163 4 29.45 16.912 2.213 10.163-4.162 21.025-13.925 24.375-11.65 4.613-26.887-1.425-30.475-13.875-3.862-11.325 3.663-24.225 14.95-27.412m2.6 7.5c-4.4 1.3-8.225 4.675-9.787 9.025-2.563 6.85 1.437 15.087 8.412 17.3 8.213 3.375 19.413-1.475 20.525-10.788 1.863-10.262-9.625-18.85-19.15-15.537m-199.55 26.625c15.088.075 30.188-.15 45.288.087 8.712.95 17.475.513 26.237.613 2.275 28.337 12.763 55.837 29.688 78.637-33.738.013-67.475.013-101.213 0-.012-26.45-.012-52.887 0-79.337m7.913 7.962c-.013 21.138 0 42.288-.013 63.438 26.138.012 52.288-.013 78.425.012-11.612-19.1-19.125-40.612-21.975-62.775-3.887-.012-7.762.063-11.625-.012-14.9-1.275-29.887-.413-44.812-.663m70.287-7.237c9.863-.025 19.738-.013 29.613-.013 2.187 18.213 10.137 35.75 22.987 48.925 13.725 14.463 32.025 24.563 51.65 28.238 27.088 5.1 56.6.175 79.075-16.3 19.963-14.025 33.675-36.538 36.325-60.863 11.575 0 23.163-.012 34.75 0-2.387 28.575-13.112 56.525-31.512 78.625-9.05 0-18.1-.012-27.138-.025-3.237.038-7.087.075-9.262 2.863-2.788 3.687-1.913 10.575 3.162 11.762 6.288 1.275 12.775.35 19.15.65-13.275 12.213-28.925 22.063-46.2 27.45-27.562 8.688-58.437 7.025-84.625-5.35-11.9-5.562-22.712-13.25-32.362-22.1 5.45-.275 11.05.613 16.425-.662 4.95-1.338 5.612-8.088 2.987-11.775-2.112-2.825-5.975-2.788-9.137-2.838-8.1.013-16.2.013-24.3.038-17.813-22.463-28.825-50.1-31.588-78.625m9.025 7.925c3.563 22.662 12.713 44.375 26.45 62.762 7.638.025 15.288-.087 22.925.025 5.388-.012 11.038 2.388 13.813 7.2 4.487 7.5 2.1 18.338-5.913 22.413 14.088 9.287 30.163 15.7 46.975 17.625 25.575 3.3 52.163-2.788 73.725-16.95-7.2-2.625-11.5-10.5-9.662-17.975 1.025-6.975 7.637-12.038 14.525-12.225 9.05-.313 18.125-.025 27.187-.138 14.163-18.1 23.163-40.012 26.4-62.737-6.35-.013-12.7 0-19.037-.013-4.713 26.125-21.538 49.263-44.013 63.1-22.937 14.6-51.487 18.813-78.05 14.238-39.187-6.513-74.412-37.588-81.537-77.338-4.6 0-9.2 0-13.788.013M14.357 463.962c2.7-.862 5.575-.712 8.375-.737 17.125.1 34.25-.113 51.375.1 7.275.087 12.838 6.65 13.488 13.587 1.8 8.538-3.25 19.163-12.775 19.75-18.65.325-37.325.075-55.988.125-6.4.238-12.4-4.412-13.85-10.637-2.275-8.2.338-19.425 9.375-22.188m2.4 8.475c-7.275 2.013-6.237 16.2 2.125 15.475 18.338.025 36.688.188 55.013-.075 8.937-.175 7.925-16.9-1.175-15.65-18.65.138-37.338-.375-55.963.25z" fill="#010000" stroke="#010000" stroke-width=".1175"/><path d="M916.62 112.162c20.65-2.525 42.412.95 60.262 11.963 15.788 9.75 29.2 24.062 36.05 41.475 6 15.337 6.825 32.5 3.225 48.512-4.962 21.938-20.312 40.65-39.487 51.963-19.475 11.512-43.238 14.362-65.3 10.55-22.238-3.863-42.35-17.075-55.688-35.138-20.05-26.637-20.337-66.387-.537-93.225 14.462-19.712 37.087-33.4 61.475-36.1m-2.25 19.325c-21.1 4.075-40.138 18.463-49.338 37.938-8.062 18.037-7.137 40.137 3.188 57.087 6.75 10.85 16.512 19.813 27.725 25.913 18.625 9.737 41.55 10.262 61 2.662 18.762-7.837 34.762-23.95 39.85-43.95 2.487-10.862 3.25-22.425.075-33.237-4.475-16.2-16.113-29.85-30.425-38.363-15.513-9.225-34.525-11.35-52.075-8.05m8.875 33.888c8.95-1.675 18.712-.463 26.35 4.725 9.162 5.925 15.175 17.15 13.162 28.15-.575 6.737-3.587 13.212-8.512 17.875-13.063 13.012-37.088 12.8-49.338-1.238-8-8.65-9.687-22.25-4.662-32.812 4.35-8.888 13.412-14.875 23-16.7m1.275 7.475c-11.95 2-21.488 14.1-19.025 26.325 1.962 14.05 17.9 22.35 31.025 18.787 9.312-2 17.375-9.937 18.362-19.575 1.013-7.05-1.587-14.462-6.862-19.262-6.138-5.9-15.263-7.9-23.5-6.275m-750.313.65c15.5-8.25 34.638-8.85 50.888-2.463 15.15 6.025 27 18.35 35.2 32.188 11.65 19.687 14.25 43.625 10.9 65.962-3.338 22.525-15.663 43.813-34.163 57.225-14.175 10.275-32.875 13.1-49.75 9.1-2.587 8.538-4.987 17.138-7.425 25.725 44.213 0 88.425.013 132.625.013v-21.175c-9.962-.063-19.937.125-29.9-.05-8.525-.138-8.637-16.575.113-16.388 9.925-.212 19.85 0 29.775-.062.025-26.075.012-52.138.012-78.2-7.375-.2-14.787.437-22.137-.338-5.963-1-8.15-7.687-8.038-12.975-.262-5.487 1.288-12.7 7.45-14.225 7.438-1.125 15.025-.225 22.513-.5 1.05-3.712 2.05-8.087 5.787-10.037 3.913-2.063 9.025-1.938 12.85.262 3.463 2.025 4.138 6.225 5.05 9.775h68.338c2.662-9.05 7.687-17.725 15.55-23.212 9.275-6.6 22.95-5.663 31.387 1.912 14.463 13.013 17.588 35.338 11.038 53.075-3.2 8.013-8.575 15.663-16.363 19.75-10.062 5-23.387 3.163-31.287-5-5.063-5.062-7.838-11.812-10.038-18.487-22.962.012-45.925.012-68.887 0-.025 26.062-.05 52.137.012 78.2 15.275-.05 30.538.05 45.8-.05 1.688-2.438 3.525-5.25 6.7-5.75 7.475-1.35 15.263 1.025 21.138 5.75 5.55.225 11.137-.35 16.65.362 5.512 1.225 5.662 8.575 3.837 12.8-1.887 4.075-7.012 3.35-10.7 3.438 3.675 12.812 2.325 27.7-6.112 38.4-4.713 6.35-12.238 10.837-20.288 10.7-19 .025-38 .037-57-.013-.112 17.088-.025 34.188-.05 51.288 18.7-.038 37.388.075 56.088-.05 2.287-3.875 5.987-7.75 10.95-7.038 4.462-.112 7.437 3.625 9.587 7.05 4.3.1 8.625-.212 12.925.263 7.688.925 7.713 15.237-.175 15.85-4.2.362-8.425.1-12.637.175-2.313 3.3-5.325 6.862-9.763 6.8-4.887.6-8.525-3.088-11.012-6.775-18.638-.1-37.288 0-55.925-.05-.05 5.137-.05 10.287-.025 15.437 34.937.013 69.887 0 104.825 0 .075-21.737-.075-43.475.062-65.212-.15-3.513 1.575-8.138 5.763-8.038 4.712-.775 7.512 4.038 7.237 8.163.1 21.687 0 43.387.05 65.087h74.588c.012-27.637 0-55.275 0-82.925-17.7-.012-35.388.025-53.088 0-4.212.213-8.675-1.95-10.162-6.075-1.875-5.137-1.863-11.05.15-16.137 1.525-3.95 5.862-5.95 9.912-5.763 17.738-.062 35.463 0 53.2-.025-.012-24.25-.025-48.512 0-72.762-16.85-.025-33.7-.025-50.55.012-2.675-.062-6.062-.012-7.612-2.637-1.838-3.125-1.925-7.3-.288-10.513 1.588-2.712 5.075-2.75 7.838-2.762 16.8.025 33.6.037 50.4 0 1.062-3.538 1.975-7.6 5.287-9.738 3.95-2.5 9.463-2.3 13.338.275 3.125 2.138 3.975 6.05 4.975 9.475 4.862.088 9.737-.225 14.587.175 7.775.625 7.625 14.45.175 15.488-4.987.5-10.012.112-15.012.225.012 24.262.012 48.537 0 72.8 13.4-.388 27.325-1.013 39.7-6.688-2.35-7.937-4.625-15.887-7.025-23.8-1.438-4.825-1.925-10.175-.163-14.975 2.675-7.637 15.425-9.412 19.175-1.775 3.475 7.613 4.888 16 7.638 23.9 12.662-15.637 18.35-35.937 18.1-55.875.412-19.987-6.988-39.837-19.875-55.05-10.675-12.325-26.038-21.1-42.525-21.85-13.9-.612-27.475 5.013-38.188 13.625-7.762 6.463-11.9 16.525-20.6 21.938-6.375 3.575-13.775-2.45-15.125-8.775-2.05-8 3.663-14.85 7.888-20.988 9.812-13.962 24.4-24.137 40.412-29.737 20.1-6.75 43.188-4.7 61.5 6.137 15.3 8.9 27.65 22.525 35.575 38.313 11.625 22.162 16.288 47.875 13.188 72.712-2.625 25.263-13.613 49.825-32.013 67.513a18403.392 18403.392 0 0 0 30.525 106.287c11.488-.037 22.988-.012 34.475-.037 2.563-.05 5.738.125 7.113 2.725 2.625 4.437 1.612 12.825-4.788 12.962-12.962.363-25.937-.05-38.912.175-4.7 4.2-11.738 4-16.488.013-7.787-.238-15.562.137-23.337-.15-8.563.3-8.388-15.7-.025-15.625 5.825-.275 11.65.012 17.487-.088-8.912-30.462-17.912-60.9-26.887-91.35-8.8 4.3-18.475 6.113-27.963 8.163-6.275.637-12.587.1-18.875.262.1 27.65-.112 55.313.125 82.95 4.788.175 9.738-.662 14.425.6 5.838 3.213 4.763 15.95-3.212 15.138-130.863.062-261.725.025-392.588.025-8.062 1.3-9.937-10.363-4.925-14.663 2.175-1.525 5-1.012 7.488-1.162 46.6.087 93.2.025 139.812.037v-15.425c-8.975-.112-17.962.175-26.937-.1-8.863-.125-8.288-16.8.737-16.075 8.725-.2 17.475.013 26.213-.062-.025-17.088 0-34.175-.013-51.263-46.862-.012-93.725.038-140.587-.025-12.275 42.675-24.35 85.4-36.475 128.113 5.287.087 10.587-.288 15.862.2 8.013.85 7.188 15.637-.962 15.525-17.963.262-35.95.012-53.913.125-3.175.137-7.35-.338-8.375-3.95-1.4-3.875-1.15-10.175 3.563-11.525 6.112-.85 12.325-.188 18.487-.375-12.25-42.725-24.65-85.388-36.987-128.088-18.1-.025-36.2.05-54.3-.025-3.813.15-7.75-1.812-9.275-5.425-2.138-4.862-2.063-10.587-.575-15.612 1.25-4.363 5.637-7.1 10.075-6.9 15.437-.1 30.887 0 46.337-.025-6.737-19.988-13.612-39.925-20.412-59.888-8.675-.075-17.35.088-26.038-.037-4.387.175-8.75-2.563-9.962-6.888-1.575-5.3-1.6-11.425 1.025-16.387 1.925-3.663 6.275-4.875 10.15-4.663 22.9.063 45.812-.112 68.725.088 5.337-.163 9.45 4.675 9.787 9.762.788 6.113.438 14.575-6.262 17.288-6.313 1.675-12.988.475-19.45.837 16.587 58.513 33.462 116.938 49.95 175.488 14.287-50.713 28.612-101.413 42.925-152.113-17.263-12.812-27.675-33.062-31.963-53.787-4.212-23.288-1.162-48.5 11.388-68.875 7.237-11.575 16.812-22.113 28.987-28.575m10.25 2.912c-15.3 5.063-27.375 17.075-35.362 30.763-11.575 19.75-13.6 43.925-9.213 66.075 3.488 17.75 13.663 33.925 28 44.937 4.013-13.75 7.925-27.537 11.875-41.3-6.162-.1-12.337.238-18.487-.125-4.163-.075-7.663-3.412-8.575-7.35-1.138-4.75-1.163-9.925.55-14.525 1.425-3.75 5.387-6.075 9.35-5.912 20.85-.1 41.712-.013 62.575-.038 3.712-.175 7.837.988 9.875 4.338 2.762 4.65 2.65 10.462 1.575 15.612-.85 4.163-4.425 7.775-8.813 7.875-7.987.363-16 .013-24 .138-4.775 17.362-9.675 34.7-14.487 52.05 11.325 2.337 23.4 1.862 34.187-2.575 13.425-5.4 24-16.263 31.375-28.5 10.725-17.775 13.738-39.413 11.038-59.775-2.663-20.963-13.5-41.138-30.6-53.788-14.363-10.65-33.95-13.475-50.863-7.9m235.35 25.15c-4.812 4.05-7.437 9.95-9.487 15.75 7.075.113 14.15-.087 21.237.05 3.4-.05 7.125 1.138 9.025 4.163 2.863 4.775 2.863 10.812 1.613 16.1-.925 4.312-4.888 7.675-9.338 7.65-7.425.3-14.862-.013-22.287.125 2.312 5.212 5.062 10.487 9.575 14.15 8.1 6.825 21.375 6.337 28.8-1.3 15.175-15 14.475-42.95-1.775-56.925-7.6-6.525-19.825-6.213-27.363.237m-84.112 138.513a3980.91 3980.91 0 0 0-.013 21.162c18.575-.1 37.175.2 55.738-.125 8.1.175 8.975-12.487 2.5-15.487-3.85-1.638-8.163-2.425-11.263-5.438-15.65-.237-31.312-.037-46.962-.112m588.837-155.8c5.525-1.488 13.188-.988 16.05 4.812 2.888 6.638 1.8 17.6-6.7 19.263-8.037 2.612-16.775-4.375-16.637-12.625-.35-4.863 2.25-10.238 7.287-11.45m269.025 33.65c4.613-3.05 13.188-1.138 13.3 5.325.288 23.3.163 46.637.075 69.937.563 7.15-8.887 9.963-13.775 6.038-2.375-2.1-2.375-5.5-2.412-8.388.012-13.4.037-26.8 0-40.2-19.5 1.025-37.663 9.875-53.275 21.113a90.987 90.987 0 0 0-25.55 28.237c-6.763 11.063-13.15 22.738-15.438 35.663-4.312 23.287-2.537 48.225 7.925 69.712 7.275 15.038 17.288 29.013 30.125 39.775 17.338 13.413 38.5 22.2 60.425 23.913 5.875.437 10.875 4.85 11.25 10.875 2.038 0 4.113 0 6.188.012 0-26.437.012-52.887 0-79.337-12.013-.05-24.025.062-36.038-.025-4.987.087-10.7-1.875-12.637-6.888-1.75-4.712-1.875-10.425.762-14.825 2.538-3.962 7.525-5.112 11.938-5.125 11.987-.087 23.987 0 35.975-.025.012-12.575-.013-25.15.012-37.725-11.15 0-22.312-.012-33.462.025-3.4-.075-7.6-.037-9.7-3.2-1.638-2.712-1.8-6.512.012-9.162 2.263-2.95 6.338-2.838 9.688-2.938 24.587.038 49.175.025 73.775.013 3.037.112 6.575-.013 8.962 2.25 3.725 3.912 1.8 12.025-4.012 12.65-9.625.862-19.35.112-29.013.375.025 12.562.013 25.137.013 37.7 23.85.175 47.7-.163 71.55-.3 2.362-33.95 15.762-67.238 39.012-92.288-2.537-4.775-2.75-11.012 1.05-15.2 4.5-5.85 12.813-6.9 19.363-4.162 15.887-11.438 34.312-19.463 53.675-22.525 25.15-3.938 51.65-1 74.725 10.012 19.75 9.35 36.525 24.225 49.762 41.475 18.413 23.65 28.938 52.913 31.3 82.7 7.9.075 15.825-.225 23.738.113 4.612.162 9.437 2.75 10.912 7.362 2.3 7.013.725 17.363-7.475 19.6-8.925 1.725-18.137.438-27.175.813-2.262 28.262-12 56.062-29.337 78.637 16.825-.012 33.662.013 50.487-.025 3.113.025 6.988.1 8.925 3.013 1.675 2.975 1.5 7.15-.75 9.8-2.45 2.5-6.225 2.4-9.45 2.462-20.962-.05-41.937-.012-62.9-.012-14.375 14.612-31.8 26.462-51.325 32.987-26.175 8.725-55.262 8.788-81.362-.275-19.113-6.612-36.1-18.425-50.25-32.737-38.163.037-76.325-.025-114.488.025-.075 4.712.338 9.475-.312 14.175-1.038 7.162-13.363 8-15.363 1.1-1.087-5.025-.437-10.213-.575-15.288-14.325-.162-28.875.938-42.912-2.587-27.388-6.2-51.838-22.45-69.825-43.813-12.325-14.087-22.15-30.437-28.25-48.162-14.2-.038-28.4.062-42.6-.038-5.013.088-10.638-2.1-12.45-7.15-1.575-4.625-1.688-10.125.787-14.45 2.388-4.012 7.363-5.212 11.738-5.237 12.1-.075 24.212.012 36.312-.013-.412-18.637.488-37.575 6.363-55.4 7.162-23.337 22.062-43.6 39.987-59.862 21.563-19.8 49.788-31.85 78.925-34.313.75-2.162 1.013-4.825 3.075-6.212m171.963 48.725c2.337 5.562 2.325 12.662-2.4 17.012-5.025 5.5-13.438 5.463-19.725 2.3-21.513 24.038-34.013 55.4-36.513 87.438 10.363 0 20.713-.025 31.075.012 4.063-19.737 15.088-37.875 30.863-50.425 36.675-29.812 94.737-28.537 130.012 2.95 14.088 12.2 23.763 29.175 27.325 47.463 12.188 0 24.363-.013 36.563 0-2.025-24.85-10.038-49.263-23.85-70.075-12.338-18.563-28.463-35.013-48.175-45.713-22.15-12.087-48.3-16.025-73.175-12.6-18.825 2.588-36.725 10.413-52 21.638m55.237 62.5c-19.725 2.562-37.95 14.675-47.762 32-12.613 22.162-9.838 52.675 8.3 71.062 18.162 19.65 47.987 25.85 73.162 18.063 15.363-4.863 28.775-15.663 36.85-29.6 12.663-22.225 9.338-52.688-8.825-70.988-15.337-16.925-39.437-23.925-61.725-20.537m-192.075 71.45c-.012 26.45-.012 52.887 0 79.337 33.738.013 67.475.013 101.213 0-16.925-22.8-27.413-50.3-29.688-78.637-8.762-.1-17.525.337-26.237-.613-15.1-.237-30.2-.012-45.288-.087m78.2.725c2.763 28.525 13.775 56.162 31.588 78.625 8.1-.025 16.2-.025 24.3-.038 3.162.05 7.025.013 9.137 2.838 2.625 3.687 1.963 10.437-2.987 11.775-5.375 1.275-10.975.387-16.425.662 9.65 8.85 20.462 16.538 32.362 22.1 26.188 12.375 57.063 14.038 84.625 5.35 17.275-5.387 32.925-15.237 46.2-27.45-6.375-.3-12.862.625-19.15-.65-5.075-1.187-5.95-8.075-3.162-11.762 2.175-2.788 6.025-2.825 9.262-2.863 9.038.013 18.088.025 27.138.025 18.4-22.1 29.125-50.05 31.512-78.625-11.587-.012-23.175 0-34.75 0-2.65 24.325-16.362 46.838-36.325 60.863-22.475 16.475-51.987 21.4-79.075 16.3-19.625-3.675-37.925-13.775-51.65-28.238-12.85-13.175-20.8-30.712-22.987-48.925-9.875 0-19.75-.012-29.613.013m-389.537-97.088c3.762-12.012 23.587-12.025 27.375 0 13.05.05 26.1.013 39.15 0 3.05.075 6.737.088 8.85 2.713 1.975 2.837 1.8 7.025-.175 9.812-2.025 2.575-5.563 2.65-8.538 2.713-13.162.012-26.337-.063-39.5.025-.012 5.937-.025 11.875.025 17.812 8.138-.025 16.288-.025 24.438-.037 2.937.037 6.337.075 8.537 2.375 3.763 4.137 1.888 12.55-4.337 12.9-9.525.7-19.113.087-28.663.287-.025 32.513 0 65.025 0 97.538 8.125.012 16.275-.025 24.413-.013 2.837.075 6.087.075 8.325 2.138 3.925 3.85 2.487 12.362-3.575 13.062-9.688.825-19.45.1-29.175.363 0 4.662 0 9.337.012 14.012 49.388-.025 98.788.05 148.188-.025 2.775.075 5.737.013 8.262 1.375 4.913 2.588 4.15 11.075-1.037 12.925-4.338 1.513-9.025.813-13.513.963-85.812-.038-171.625-.013-257.437 0-4.138-.125-8.4.437-12.4-.75-5.038-1.513-5.588-8.663-2.438-12.175 2.175-2.313 5.575-2.275 8.525-2.338 31.038.05 62.075.013 93.125.025v-14.025c-8.562-.05-17.112.063-25.675-.012-2.937-.05-6.45-.513-8.125-3.25-1.65-2.913-1.525-6.925.525-9.6 2.163-2.588 5.825-2.625 8.925-2.7 8.113 0 16.225.05 24.35.012 0-32.512.013-65.012 0-97.525-8.137-.025-16.262.025-24.375.013-2.95-.075-6.287-.113-8.562-2.238-3.95-4.112-1.888-12.712 4.35-13.075 9.5-.6 19.05-.075 28.575-.237.012-5.938.012-11.863.012-17.788-12.712-.125-25.437-.012-38.15-.037-2.687-.088-5.725-.1-7.812-2.038-4.088-3.975-2.325-12.825 4.087-12.95 14.463-.562 28.963-.025 43.438-.25m510.887 69.738c9.525-3.313 21.013 5.275 19.15 15.537-1.112 9.313-12.312 14.163-20.525 10.788-6.975-2.213-10.975-10.45-8.412-17.3 1.562-4.35 5.387-7.725 9.787-9.025M1184.207 432.2c5.875-1.35 12.863.712 16.075 6.075 3.6 5.65 2.063 13.987-3.55 17.762-7.1 5.075-18.937 2.825-22.237-5.687-3.363-7.438 1.712-16.775 9.712-18.15M16.757 472.437c18.625-.625 37.313-.112 55.963-.25 9.1-1.25 10.112 15.475 1.175 15.65-18.325.263-36.675.1-55.013.075-8.362.725-9.4-13.462-2.125-15.475z" fill="#0149ff" stroke="#0149ff" stroke-width=".1175"/></g></svg>